<svg xmlns="http://www.w3.org/2000/svg" width="28" height="28" viewBox="0 0 28 28"><title>icon/聊天/ic_IM_zhaopian@2x</title><g fill="#A6A6A6" fill-rule="evenodd" transform="translate(3 3)"><path fill-rule="nonzero" d="M18.7 0C20.523 0 22 1.477 22 3.3v14.4c0 1.823-1.477 3.3-3.3 3.3H3.3c-.067 0-.133-.002-.2-.006-.153.016-.309-.004-.454-.059C1.136 20.632 0 19.3 0 17.7V3.3C0 1.477 1.477 0 3.3 0h15.4zM14 10.414L5.414 19h13.461c.621 0 1.125-.504 1.125-1.125v-1.46l-6-6zM18.875 2H3.125C2.504 2 2 2.504 2 3.125v14.75c0 .462.28.86.678 1.033L13.293 8.293c.39-.39 1.024-.39 1.414 0L20 13.585V3.125C20 2.504 19.496 2 18.875 2z"/><circle cx="7" cy="7" r="2"/></g></svg>