<svg xmlns="http://www.w3.org/2000/svg" xmlns:xlink="http://www.w3.org/1999/xlink" width="64" height="64" viewBox="0 0 64 64"><title>sound_status</title><defs><linearGradient id="b" x1="0%" x2="100%" y1="0%" y2="100%"><stop offset="0%" stop-color="#4FDBFF"/><stop offset="100%" stop-color="#27B5FF"/></linearGradient><rect id="a" width="64" height="64" x="0" y="0" rx="4"/></defs><g fill="none" fill-rule="evenodd"><mask id="c" fill="#fff"><use xlink:href="#a"/></mask><use fill="url(#b)" xlink:href="#a"/><rect width="2" height="16" x="49" y="24" fill="#FFF" mask="url(#c)" opacity=".2" rx="1"/><rect width="2" height="24" x="45" y="20" fill="#FFF" mask="url(#c)" opacity=".2" rx="1"/><rect width="2" height="16" x="41" y="24" fill="#FFF" mask="url(#c)" opacity=".2" rx="1"/><rect width="2" height="24" x="37" y="20" fill="#FFF" mask="url(#c)" opacity=".2" rx="1"/><rect width="2" height="28" x="33" y="18" fill="#FFF" mask="url(#c)" opacity=".2" rx="1"/><rect width="2" height="24" x="29" y="20" fill="#FFF" mask="url(#c)" opacity=".2" rx="1"/><rect width="2" height="16" x="25" y="24" fill="#FFF" mask="url(#c)" opacity=".2" rx="1"/><rect width="2" height="24" x="21" y="20" fill="#FFF" mask="url(#c)" opacity=".2" rx="1"/><rect width="2" height="16" x="17" y="24" fill="#FFF" mask="url(#c)" opacity=".2" rx="1"/><rect width="2" height="24" x="13" y="20" fill="#FFF" mask="url(#c)" opacity=".2" rx="1"/><rect width="2" height="26" x="9" y="19" fill="#FFF" mask="url(#c)" opacity=".2" rx="1"/><rect width="2" height="12" x="5" y="26" fill="#FFF" mask="url(#c)" opacity=".2" rx="1"/><rect width="2" height="20" x="1" y="22" fill="#FFF" mask="url(#c)" opacity=".2" rx="1"/><rect width="2" height="20" x="61" y="22" fill="#FFF" mask="url(#c)" opacity=".2" rx="1"/><rect width="2" height="12" x="57" y="26" fill="#FFF" mask="url(#c)" opacity=".2" rx="1"/><rect width="2" height="26" x="53" y="19" fill="#FFF" mask="url(#c)" opacity=".2" rx="1"/></g></svg>