<?xml version="1.0" encoding="UTF-8"?>
<svg width="22px" height="22px" viewBox="0 0 22 22" version="1.1" xmlns="http://www.w3.org/2000/svg" xmlns:xlink="http://www.w3.org/1999/xlink">
    <!-- Generator: Sketch 63.1 (92452) - https://sketch.com -->
    <title>发布1</title>
    <desc>Created with Sketch.</desc>
    <g id="页面-" stroke="none" stroke-width="1" fill="none" fill-rule="evenodd">
        <g id="发布2" transform="translate(-164.000000, -487.000000)" fill="#000000">
            <g id="语音" transform="translate(164.000000, 487.000000)">
                <g id="椭圆形-2">
                    <path d="M11.8750016,19.7641577 L11.8750016,21.1749694 C11.8750016,21.6306521 11.5056537,22 11.049971,22 C10.594385,22 10.2250371,21.6306521 10.2250371,21.1749694 L10.2250371,19.7641577 C5.4474585,19.3462444 1.7,15.3356566 1.7,10.4499581 L1.7,9.89998066 C1.7,9.44439464 2.06934791,9.07504673 2.52506284,9.07504673 C2.98061664,9.07504673 3.34996455,9.44439464 3.34996455,9.89998066 L3.34996455,10.4499581 C3.34996455,14.7025992 6.79745879,18.1499646 11.049971,18.1499646 C15.3026121,18.1499646 18.7499452,14.7025992 18.7499452,10.4499581 L18.7499452,9.89998066 C18.7499452,9.44439464 19.1192931,9.07504673 19.5750081,9.07504673 C20.0305941,9.07504673 20.399942,9.44439464 20.399942,9.89998066 L20.399942,10.4499581 C20.399942,15.3359144 16.6525802,19.3462444 11.8750016,19.7641577 Z M5.54993877,5.49726075 C5.54993877,2.4612989 8.01210779,0 11.049971,0 C14.0865451,0 16.5500032,2.46320027 16.5500032,5.49726075 L16.5500032,10.4527296 C16.5500032,13.4886914 14.0879309,15.9499903 11.049971,15.9499903 C8.01349353,15.9499903 5.54993877,13.4867901 5.54993877,10.4527296 L5.54993877,5.49726075 Z M7.20003223,5.49726075 L7.20003223,10.4527296 C7.20003223,12.5757791 8.92453667,14.3000258 11.049971,14.3000258 C13.1767911,14.3000258 14.9000387,12.5776483 14.9000387,10.4527296 L14.9000387,5.49726075 C14.9000387,3.37421118 13.1754053,1.64999678 11.049971,1.64999678 C8.92315093,1.64999678 7.20003223,3.37234205 7.20003223,5.49726075 Z" id="yuyin-3"></path>
                </g>
            </g>
        </g>
    </g>
</svg>