<?xml version="1.0" encoding="UTF-8"?>
<svg width="22px" height="22px" viewBox="0 0 22 22" version="1.1" xmlns="http://www.w3.org/2000/svg" xmlns:xlink="http://www.w3.org/1999/xlink">
    <!-- Generator: Sketch 63.1 (92452) - https://sketch.com -->
    <title>编组</title>
    <desc>Created with Sketch.</desc>
    <g id="页面-" stroke="none" stroke-width="1" fill="none" fill-rule="evenodd">
        <g id="发布2" transform="translate(-92.000000, -486.000000)">
            <g id="视频" transform="translate(92.000000, 486.000000)">
                <g id="编组">
                    <path d="M15,1.75 L3,1.75 C2.37867966,1.75 1.81617966,2.00183983 1.40900974,2.40900974 C1.00183983,2.81617966 0.75,3.37867966 0.75,4 L0.75,18 C0.75,18.6213203 1.00183983,19.1838203 1.40900974,19.5909903 C1.81617966,19.9981602 2.37867966,20.25 3,20.25 L15,20.25 C15.6213203,20.25 16.1838203,19.9981602 16.5909903,19.5909903 C16.9981602,19.1838203 17.25,18.6213203 17.25,18 L17.25,14.0874899 L21.25,16.1783268 L20.8657811,5.61075779 L17.25,7.91104217 L17.25,4 C17.25,3.37867966 16.9981602,2.81617966 16.5909903,2.40900974 C16.1838203,2.00183983 15.6213203,1.75 15,1.75 Z" id="形状结合" stroke="#2E2E2E" stroke-width="1.5"></path>
                    <rect id="矩形" fill="#2E2E2E" x="16.5" y="7" width="1.5" height="7"></rect>
                </g>
            </g>
        </g>
    </g>
</svg>