<?xml version="1.0" encoding="UTF-8"?>
<svg width="12px" height="12px" viewBox="0 0 12 12" version="1.1" xmlns="http://www.w3.org/2000/svg" xmlns:xlink="http://www.w3.org/1999/xlink">
    <title>形状</title>
    <g id="形状" stroke="none" stroke-width="1" fill="none" fill-rule="evenodd" opacity="0.600000024">
        <path d="M6,2 C3.27272476,2 0.943645509,3.65866658 0,6 C0.943631665,8.34133343 3.27272476,10 6,10 C8.73000061,10 11.0563683,8.34133342 12,6 C11.0563545,3.65866657 8.73000061,2 6,2 Z M6,8.66667118 C4.4945527,8.66667118 3.27272476,7.47200757 3.27272476,6 C3.27272476,4.52799243 4.49453887,3.33332882 6,3.33332882 C7.50546113,3.33332882 8.72727524,4.52799243 8.72727524,6 C8.72727524,7.47200757 7.5054473,8.66667118 6,8.66667118 Z M6,4.39999999 C5.0972767,4.39999999 4.36363762,5.11733653 4.36363762,6 C4.36363762,6.88266347 5.0972767,7.60000001 6,7.60000001 C6.9027233,7.60000001 7.63636238,6.88266347 7.63636238,6 C7.63636238,5.11733653 6.9027233,4.39999999 6,4.39999999 Z" fill="#FFFFFF" fill-rule="nonzero"></path>
    </g>
</svg>