<svg xmlns="http://www.w3.org/2000/svg" width="20" height="20" viewBox="0 0 20 20"><title>ic_close_pic</title><g fill="none" fill-rule="evenodd" transform="translate(1 2)"><circle cx="8.757" cy="8.393" r="8" fill="#626262" transform="matrix(1 0 0 -1 0 16.787)"/><path fill="#FFF" d="M12.742 4.258c.344.345.344.903 0 1.248l-2.495 2.493 2.495 2.495c.344.345.344.903 0 1.248-.345.344-.903.344-1.248 0L9 9.247l-2.493 2.495c-.345.344-.903.344-1.248 0-.344-.345-.344-.903 0-1.248L7.752 8 5.258 5.506c-.344-.345-.344-.903 0-1.248.345-.344.903-.344 1.248 0l2.493 2.494 2.495-2.494c.345-.344.903-.344 1.248 0z"/></g></svg>