<?xml version="1.0" encoding="UTF-8"?>
<svg width="12px" height="12px" viewBox="0 0 12 12" version="1.1" xmlns="http://www.w3.org/2000/svg" xmlns:xlink="http://www.w3.org/1999/xlink">
    <title>形状备份 8@2x</title>
    <g id="形状备份-8" stroke="none" stroke-width="1" fill="none" fill-rule="evenodd" opacity="0.600000024">
        <g id="评论备份" transform="translate(0.000000, 2.000000)" fill="#FFFFFF" fill-rule="nonzero">
            <path d="M11.1428571,-2.8768099e-11 C11.6142857,-2.8768099e-11 12,0.385714286 12,0.857142857 L12,0.857142857 L12,7.28571429 C12,7.75714286 11.6142857,8.14285714 11.1428571,8.14285714 L11.1428571,8.14285714 L7.71428571,8.14285714 L6.36740172,9.60198147 C6.3583616,9.61177493 6.34893351,9.62120302 6.33914005,9.63024314 C6.13622968,9.81754502 5.81990016,9.80489184 5.63259828,9.60198147 L5.63259828,9.60198147 L4.28571429,8.14285714 L0.857142857,8.14285714 C0.385714286,8.14285714 0,7.75714286 0,7.28571429 L0,7.28571429 L0,0.857142857 C0,0.385714286 0.385714286,-2.8768099e-11 0.857142857,-2.8768099e-11 L0.857142857,-2.8768099e-11 Z M3,3 C2.44771525,3 2,3.44771525 2,4 C2,4.55228475 2.44771525,5 3,5 C3.55228475,5 4,4.55228475 4,4 C4,3.44771525 3.55228475,3 3,3 Z M6,3 C5.44771525,3 5,3.44771525 5,4 C5,4.55228475 5.44771525,5 6,5 C6.55228475,5 7,4.55228475 7,4 C7,3.44771525 6.55228475,3 6,3 Z M9,3 C8.44771525,3 8,3.44771525 8,4 C8,4.55228475 8.44771525,5 9,5 C9.55228475,5 10,4.55228475 10,4 C10,3.44771525 9.55228475,3 9,3 Z" id="形状结合"></path>
        </g>
    </g>
</svg>