<?xml version="1.0" encoding="UTF-8"?>
<svg width="14px" height="16px" viewBox="0 0 14 16" version="1.1" xmlns="http://www.w3.org/2000/svg" xmlns:xlink="http://www.w3.org/1999/xlink">
    <!-- Generator: Sketch 63.1 (92452) - https://sketch.com -->
    <title>垃圾桶</title>
    <desc>Created with Sketch.</desc>
    <g id="页面-" stroke="none" stroke-width="1" fill="none" fill-rule="evenodd">
        <g id="发布-添加标签" transform="translate(-343.000000, -269.000000)" fill-rule="nonzero">
            <g id="弹窗" transform="translate(0.000000, -7.000000)">
                <g id="垃圾桶" transform="translate(343.000000, 275.000000)">
                    <g id="编组" transform="translate(0.000000, 0.416667)">
                        <rect id="矩形" fill="#D8D8D8" x="0" y="2.91666667" width="14" height="1.75" rx="0.75"></rect>
                        <rect id="矩形" fill="#D8D8D8" x="5.83333333" y="1.16666667" width="2.33333333" height="3.5" rx="0.5"></rect>
                        <path d="M12.0833333,3.66666667 L1.91666667,3.66666667 L1.91666667,13.75 C1.91666667,14.095178 2.05657768,14.407678 2.28278319,14.6338835 C2.5089887,14.860089 2.8214887,15 3.16666667,15 L10.8333333,15 C11.1785113,15 11.4910113,14.860089 11.7172168,14.6338835 C11.9434223,14.407678 12.0833333,14.095178 12.0833333,13.75 L12.0833333,3.66666667 Z" id="矩形" stroke="#D8D8D8" stroke-width="1.5"></path>
                        <path d="M5.43333333,5.83333333 C5.8475469,5.83333333 6.18333333,6.16911977 6.18333333,6.58333333 L6.18333333,12.0833333 C6.18333333,12.4975469 5.8475469,12.8333333 5.43333333,12.8333333 L5.18333333,12.8333333 C4.76911977,12.8333333 4.43333333,12.4975469 4.43333333,12.0833333 L4.43333333,6.58333333 C4.43333333,6.16911977 4.76911977,5.83333333 5.18333333,5.83333333 L5.43333333,5.83333333 Z M8.93333333,5.83333333 C9.3475469,5.83333333 9.68333333,6.16911977 9.68333333,6.58333333 L9.68333333,12.0833333 C9.68333333,12.4975469 9.3475469,12.8333333 8.93333333,12.8333333 L8.68333333,12.8333333 C8.26911977,12.8333333 7.93333333,12.4975469 7.93333333,12.0833333 L7.93333333,6.58333333 C7.93333333,6.16911977 8.26911977,5.83333333 8.68333333,5.83333333 L8.93333333,5.83333333 Z" id="形状结合" fill="#D8D8D8"></path>
                    </g>
                </g>
            </g>
        </g>
    </g>
</svg>