<?xml version="1.0" encoding="UTF-8"?>
<svg width="13px" height="13px" viewBox="0 0 13 13" version="1.1" xmlns="http://www.w3.org/2000/svg" xmlns:xlink="http://www.w3.org/1999/xlink">
    <!-- Generator: Sketch 63.1 (92452) - https://sketch.com -->
    <title>形状结合</title>
    <desc>Created with Sketch.</desc>
    <g id="页面-" stroke="none" stroke-width="1" fill="none" fill-rule="evenodd">
        <g id="发布-约玩" transform="translate(-227.000000, -434.000000)" fill="#2E2E2E" fill-rule="nonzero">
            <g id="约玩标签-黑" transform="translate(217.000000, 428.000000)">
                <g id="约玩标签" transform="translate(10.000000, 6.000000)">
                    <path d="M6.5,1 C7.01283584,1 7.42857143,1.41573559 7.42857143,1.92857143 L7.42857143,2.85714286 L8.82142857,2.85714286 C11.1291898,2.85714286 13,4.72795301 13,7.03571429 C13,9.34347556 11.1291898,11.2142857 8.82142857,11.2142857 L4.17857143,11.2142857 C1.87081015,11.2142857 2.82619246e-16,9.34347556 0,7.03571429 C-2.82619246e-16,4.72795301 1.87081015,2.85714286 4.17857143,2.85714286 L5.57142857,2.85714286 L5.57142857,1.92857143 C5.57142857,1.41573559 5.98716416,1 6.5,1 Z M9.98214286,7.5 C9.59751598,7.5 9.28571429,7.81180169 9.28571429,8.19642857 C9.28571429,8.58105545 9.59751598,8.89285714 9.98214286,8.89285714 C10.3667697,8.89285714 10.6785714,8.58105545 10.6785714,8.19642857 C10.6785714,7.81180169 10.3667697,7.5 9.98214286,7.5 Z M4.17857143,5.17857143 L3.25,5.17857143 L3.24914286,6.57057143 L1.85714286,6.57142857 L1.85714286,7.5 L3.24914286,7.49957143 L3.25,8.89285714 L4.17857143,8.89285714 L4.17814286,7.49957143 L5.57142857,7.5 L5.57142857,6.57142857 L4.17814286,6.57057143 L4.17857143,5.17857143 Z M8.58928571,5.17857143 C8.20465883,5.17857143 7.89285714,5.49037312 7.89285714,5.875 C7.89285714,6.25962688 8.20465883,6.57142857 8.58928571,6.57142857 C8.97391259,6.57142857 9.28571429,6.25962688 9.28571429,5.875 C9.28571429,5.49037312 8.97391259,5.17857143 8.58928571,5.17857143 Z" id="形状结合"></path>
                </g>
            </g>
        </g>
    </g>
</svg>