<?xml version="1.0" encoding="UTF-8"?>
<svg width="24px" height="24px" viewBox="0 0 24 24" version="1.1" xmlns="http://www.w3.org/2000/svg" xmlns:xlink="http://www.w3.org/1999/xlink">
    <!-- Generator: Sketch 63.1 (92452) - https://sketch.com -->
    <title>ic_sayhi_defualt_small</title>
    <desc>Created with Sketch.</desc>
    <g id="ic_sayhi_defualt_small" stroke="none" stroke-width="1" fill="none" fill-rule="evenodd" fill-opacity="0.4">
        <path d="M12,2.75 C6.89136606,2.75 2.75,6.89136606 2.75,12 C2.75,17.1086339 6.89136606,21.25 12,21.25 L18.9168327,21.25 C19.644008,21.25 20.2335003,20.660509 20.2335003,19.9333333 C20.2335003,19.5527992 20.069051,19.1933815 19.7867636,18.9449687 L19.6535341,18.8413538 C19.2184089,18.5214756 19.1236556,17.9010139 19.4479027,17.4598828 L19.6565406,17.1650673 C20.7195478,15.6009231 21.25,13.8767231 21.25,12 C21.25,6.89136606 17.1086339,2.75 12,2.75 Z M12,4.25 C16.2802068,4.25 19.75,7.71979319 19.75,12 C19.75,13.5760468 19.3099091,15.0065337 18.4238487,16.3105064 L18.2312346,16.5826544 L18.1319057,16.7283243 C17.5401736,17.6662321 17.656377,18.8835192 18.3821604,19.7001604 L18.43,19.75 L12,19.75 C7.71979319,19.75 4.25,16.2802068 4.25,12 C4.25,7.71979319 7.71979319,4.25 12,4.25 Z" id="face" fill="#202020" fill-rule="nonzero" transform="translate(12.000000, 12.000000) scale(-1, 1) translate(-12.000000, -12.000000) "></path>
        <path d="M8.64124279,13.4696699 C8.93413601,13.1767767 9.40900974,13.1767767 9.70190296,13.4696699 C10.3079492,14.0757162 11.1256463,14.4215729 12,14.4215729 C12.8743537,14.4215729 13.6920508,14.0757162 14.298097,13.4696699 C14.5909903,13.1767767 15.065864,13.1767767 15.3587572,13.4696699 C15.6516504,13.7625631 15.6516504,14.2374369 15.3587572,14.5303301 C14.474195,15.4148923 13.2762675,15.9215729 12,15.9215729 C10.7237325,15.9215729 9.52580499,15.4148923 8.64124279,14.5303301 C8.34834957,14.2374369 8.34834957,13.7625631 8.64124279,13.4696699 Z" id="路径" fill="#202020" fill-rule="nonzero"></path>
    </g>
</svg>