<?xml version="1.0" encoding="UTF-8"?>
<svg width="14px" height="15px" viewBox="0 0 14 15" version="1.1" xmlns="http://www.w3.org/2000/svg" xmlns:xlink="http://www.w3.org/1999/xlink">
    <!-- Generator: Sketch 64 (93537) - https://sketch.com -->
    <title>垃圾桶</title>
    <desc>Created with Sketch.</desc>
    <g id="页面-" stroke="none" stroke-width="1" fill="none" fill-rule="evenodd">
        <g id="发布-添加标签" transform="translate(-341.000000, -269.000000)" fill-rule="nonzero">
            <g id="弹窗" transform="translate(0.000000, -7.000000)">
                <g id="垃圾桶" transform="translate(341.000000, 275.000000)">
                    <g id="编组" transform="translate(0.000000, 0.423077)">
                        <rect id="矩形" fill="#D8D8D8" x="0" y="2.88461538" width="14" height="1.73076923" rx="0.75"></rect>
                        <rect id="矩形" fill="#D8D8D8" x="5.83333333" y="1.15384615" width="2.33333333" height="3.46153846" rx="0.5"></rect>
                        <path d="M12.0833333,3.63461538 L1.91666667,3.63461538 L1.91666667,13.5769231 C1.91666667,13.922101 2.05657768,14.234601 2.28278319,14.4608066 C2.5089887,14.6870121 2.8214887,14.8269231 3.16666667,14.8269231 L10.8333333,14.8269231 C11.1785113,14.8269231 11.4910113,14.6870121 11.7172168,14.4608066 C11.9434223,14.234601 12.0833333,13.922101 12.0833333,13.5769231 L12.0833333,3.63461538 Z" id="矩形" stroke="#D8D8D8" stroke-width="1.5"></path>
                        <path d="M5.43333333,5.76923077 C5.8475469,5.76923077 6.18333333,6.10501721 6.18333333,6.51923077 L6.18333333,11.9423077 C6.18333333,12.3565213 5.8475469,12.6923077 5.43333333,12.6923077 L5.18333333,12.6923077 C4.76911977,12.6923077 4.43333333,12.3565213 4.43333333,11.9423077 L4.43333333,6.51923077 C4.43333333,6.10501721 4.76911977,5.76923077 5.18333333,5.76923077 L5.43333333,5.76923077 Z M8.93333333,5.76923077 C9.3475469,5.76923077 9.68333333,6.10501721 9.68333333,6.51923077 L9.68333333,11.9423077 C9.68333333,12.3565213 9.3475469,12.6923077 8.93333333,12.6923077 L8.68333333,12.6923077 C8.26911977,12.6923077 7.93333333,12.3565213 7.93333333,11.9423077 L7.93333333,6.51923077 C7.93333333,6.10501721 8.26911977,5.76923077 8.68333333,5.76923077 L8.93333333,5.76923077 Z" id="形状结合" fill="#D8D8D8"></path>
                    </g>
                </g>
            </g>
        </g>
    </g>
</svg>