<?xml version="1.0" encoding="UTF-8"?>
<svg width="24px" height="24px" viewBox="0 0 24 24" version="1.1" xmlns="http://www.w3.org/2000/svg" xmlns:xlink="http://www.w3.org/1999/xlink">
    <!-- Generator: Sketch 63.1 (92452) - https://sketch.com -->
    <title>ic_like_defualt_small</title>
    <desc>Created with Sketch.</desc>
    <g id="ic_like_defualt_small" stroke="none" stroke-width="1" fill="none" fill-rule="evenodd" fill-opacity="0.4">
        <g id="ic" transform="translate(3.000000, 2.000000)" fill="#202020" fill-rule="nonzero">
            <path d="M7.73408637,2.09824126 C8.30569239,0.941796424 9.60946623,0.335279961 10.8670389,0.649673139 C12.3411012,1.01818869 13.2373065,2.51190326 12.8687147,3.98589133 L12.8687147,3.98589133 L12.381,5.934 L15.709612,5.93421053 C15.8336076,5.93421053 15.9573725,5.94293055 16.0799946,5.9602741 L16.0799946,5.9602741 L16.2629566,5.992745 C17.6912768,6.29834879 18.6014182,7.70397185 18.2958144,9.13229198 L18.2958144,9.13229198 L16.7942191,16.1503948 C16.4209734,17.894857 14.8240439,19.1010793 13.0440057,18.9830751 L13.0440057,18.9830751 L4.754,18.4332267 L1.95652174,18.4342105 C1.06364033,18.4342105 0.330919143,17.7484831 0.256263953,16.874934 L0.25,16.7276888 L0.25,7.64073227 C0.25,6.69824633 1.01403581,5.93421053 1.95652174,5.93421053 L1.95652174,5.93421053 L4.60130296,5.93491818 C5.96749543,5.18463528 6.9772743,3.984839 7.64177549,2.30610743 L7.64177549,2.30610743 Z M10.5032355,2.10488689 C9.93146232,1.96194359 9.3382935,2.23788613 9.09189436,2.73495539 L9.09189436,2.73495539 L9.02458593,2.88652981 L8.89550203,3.1977787 C8.16808508,4.86977138 7.1032576,6.151514 5.7082153,7.02399498 L5.7082153,7.02399498 L5.539,7.12222672 L5.539,16.9802267 L13.1432275,17.4863603 C14.070824,17.5478536 14.9130449,16.9919173 15.235786,16.146447 L15.2872595,15.9943076 L15.3274177,15.8365575 L16.829013,8.81845474 C16.9612893,8.20022662 16.5673475,7.59182261 15.9491194,7.45954634 C15.8703966,7.44270279 15.7901166,7.43421053 15.709612,7.43421053 L15.709612,7.43421053 L11.4210526,7.43421053 C10.9331243,7.43421053 10.5751057,6.97566885 10.6934458,6.50230881 L10.6934458,6.50230881 L11.413512,3.62204389 C11.5811314,2.95173858 11.1735832,2.27247381 10.5032355,2.10488689 Z M4.039,7.434 L1.95652174,7.43421053 C1.86147273,7.43421053 1.78142086,7.4984209 1.75737716,7.58583061 L1.75737716,7.58583061 L1.75,7.64073227 L1.75,16.7276888 C1.75,16.8417476 1.84246293,16.9342105 1.95652174,16.9342105 L1.95652174,16.9342105 L4.039,16.934 L4.039,7.434 Z" id="形状结合"></path>
        </g>
    </g>
</svg>