<?xml version="1.0" encoding="UTF-8"?>
<svg width="24px" height="24px" viewBox="0 0 24 24" version="1.1" xmlns="http://www.w3.org/2000/svg" xmlns:xlink="http://www.w3.org/1999/xlink">
    <!-- Generator: Sketch 63.1 (92452) - https://sketch.com -->
    <title>ic_like_selected_small</title>
    <desc>Created with Sketch.</desc>
    <defs>
        <linearGradient x1="-15.1587113%" y1="0%" x2="50%" y2="100%" id="linearGradient-1">
            <stop stop-color="#FFE31D" offset="0%"></stop>
            <stop stop-color="#FF9D1D" offset="100%"></stop>
        </linearGradient>
    </defs>
    <g id="ic_like_selected_small" stroke="none" stroke-width="1" fill="none" fill-rule="evenodd">
        <g id="ic" transform="translate(3.000000, 2.000000)" fill="url(#linearGradient-1)">
            <path d="M8,2 C8.47327725,0.747031121 9.60946623,0.335279961 10.8670389,0.649673139 C12.3411012,1.01818869 13.2373065,2.51190326 12.8687147,3.98589133 C12.6229869,4.96855004 12.4473793,5.61798977 12.3418919,5.93421053 L12.3418919,5.93421053 L15.709612,5.93421053 C15.8336076,5.93421053 15.9573725,5.94293055 16.0799946,5.9602741 L16.0799946,5.9602741 L16.2629566,5.992745 C17.6912768,6.29834879 18.6014182,7.70397185 18.2958144,9.13229198 L18.2958144,9.13229198 L16.7942191,16.1503948 C16.4209734,17.894857 14.8240439,19.1010793 13.0440057,18.9830751 L13.0440057,18.9830751 L5.93096868,18.4269288 C5.53687831,18.4008033 5.23057959,18.0735268 5.23057959,17.6785714 L5.23057959,17.6785714 L5.23057959,6.67857143 C5.23057959,6.3976082 5.38761512,6.14020959 5.6374493,6.01166694 C7.08250049,5.26817092 7.52672275,3.25296888 8,2 Z M3.5506135,5.93421053 C3.936874,5.93421053 4.25,6.26999696 4.25,6.68421053 L4.25,6.68421053 L4.25,17.6842105 C4.25,18.0984241 3.936874,18.4342105 3.5506135,18.4342105 L3.5506135,18.4342105 L1.8413577,18.4342105 C0.962475109,18.4342105 0.25,17.6701747 0.25,16.7276888 L0.25,16.7276888 L0.25,7.64073227 C0.25,6.69824633 0.962475109,5.93421053 1.8413577,5.93421053 L1.8413577,5.93421053 Z" id="形状结合"></path>
        </g>
    </g>
</svg>