<?xml version="1.0" encoding="UTF-8"?>
<svg width="24px" height="24px" viewBox="0 0 24 24" version="1.1" xmlns="http://www.w3.org/2000/svg" xmlns:xlink="http://www.w3.org/1999/xlink">
    <title>icon-评论</title>
    <defs>
        <linearGradient x1="26.1558316%" y1="7.39036363%" x2="94.1637427%" y2="96.8017769%" id="linearGradient-1">
            <stop stop-color="#FD91D7" offset="0%"></stop>
            <stop stop-color="#FFBD9E" offset="100%"></stop>
        </linearGradient>
        <filter x="-75.0%" y="-112.5%" width="250.0%" height="325.0%" filterUnits="objectBoundingBox" id="filter-2">
            <feGaussianBlur stdDeviation="1" in="SourceGraphic"></feGaussianBlur>
        </filter>
        <path d="M0.654607919,0.5 C1.43640528,0.5 2.21820264,0.5 3,0.5 C3.77834014,0.5 4.55668029,0.5 5.33502043,0.5 C5.7022785,0.5 6,0.797721495 6,1.16497957 L6,1.16497957 L6,1.16497957 L6,1.5 C6,3.15685425 4.65685425,4.5 3,4.5 C1.34314575,4.5 -2.41183085e-16,3.15685425 0,1.5 L0,1.15460792 L0,1.15460792 C-4.42746521e-17,0.793077948 0.293077948,0.5 0.654607919,0.5 Z" id="path-3"></path>
        <filter x="-75.0%" y="-112.5%" width="250.0%" height="325.0%" filterUnits="objectBoundingBox" id="filter-5">
            <feGaussianBlur stdDeviation="1" in="SourceGraphic"></feGaussianBlur>
        </filter>
    </defs>
    <g id="首页改版方案" stroke="none" stroke-width="1" fill="none" fill-rule="evenodd">
        <g id="发现页" transform="translate(-282.000000, -372.000000)">
            <g id="编组-23" transform="translate(0.000000, 100.000000)">
                <g id="编组-17" transform="translate(0.000000, 269.000000)">
                    <g id="编组-21" transform="translate(274.000000, 0.000000)">
                        <g id="编组-18" transform="translate(8.000000, 3.000000)">
                            <g id="编组" transform="translate(2.000000, 2.000000)">
                                <path d="M9,20 L9.06588257,19.9569468 C3.98102238,19.4859052 0,15.2078614 0,10 C0,4.4771525 4.4771525,0 10,0 C15.5228475,0 20,4.4771525 20,10 C20,11.9225235 19.4574758,13.7183337 18.5171728,15.2426852 L19.9089424,17.9097422 C20.0154919,18.1138706 20.0711354,18.340724 20.0711354,18.5709874 C20.0711354,19.3602093 19.4313447,20 18.6421229,20 L18.6421229,20 L9,20 Z" id="形状结合" fill="url(#linearGradient-1)"></path>
                                <ellipse id="椭圆形" fill="#FF74DD" filter="url(#filter-2)" cx="2" cy="10.3333333" rx="2" ry="1.33333333"></ellipse>
                                <g id="矩形-2" transform="translate(4.000000, 9.000000)">
                                    <mask id="mask-4" fill="white">
                                        <use xlink:href="#path-3"></use>
                                    </mask>
                                    <use id="矩形" fill="#510A13" xlink:href="#path-3"></use>
                                    <circle id="椭圆形" fill="#E47272" mask="url(#mask-4)" cx="3.5" cy="5" r="2.5"></circle>
                                    <path d="M2.67490187,-2.49379102 L3.67490187,-2.49379102 C4.77947137,-2.49379102 5.67490187,-1.59836052 5.67490187,-0.493791024 C5.67490187,0.610778476 4.77947137,1.50620898 3.67490187,1.50620898 L2.67490187,1.50620898 C1.57033237,1.50620898 0.674901871,0.610778476 0.674901871,-0.493791024 C0.674901871,-1.59836052 1.57033237,-2.49379102 2.67490187,-2.49379102 Z" id="矩形" fill="#FFFFFF" mask="url(#mask-4)"></path>
                                </g>
                                <ellipse id="椭圆形" fill="#FF74DD" filter="url(#filter-5)" cx="12" cy="10.3333333" rx="2" ry="1.33333333"></ellipse>
                                <circle id="椭圆形" fill="#510A13" cx="3.5" cy="6.5" r="1.5"></circle>
                                <circle id="椭圆形备份-3" fill="#510A13" cx="10.5" cy="6.5" r="1.5"></circle>
                            </g>
                        </g>
                    </g>
                </g>
            </g>
        </g>
    </g>
</svg>