<?xml version="1.0" encoding="UTF-8"?>
<svg width="16px" height="16px" viewBox="0 0 16 16" version="1.1" xmlns="http://www.w3.org/2000/svg" xmlns:xlink="http://www.w3.org/1999/xlink">
    <!-- Generator: Sketch 64 (93537) - https://sketch.com -->
    <title>编组 13</title>
    <desc>Created with Sketch.</desc>
    <g id="首页" stroke="none" stroke-width="1" fill="none" fill-rule="evenodd">
        <g id="首页长图" transform="translate(-28.000000, -1438.000000)">
            <g id="编组-15备份-3" transform="translate(0.000000, 1193.000000)">
                <g id="编组-14" transform="translate(20.000000, 241.000000)">
                    <g id="约玩标签">
                        <g id="标签">
                            <g id="编组-33" transform="translate(8.000000, 4.000000)">
                                <g id="编组-13">
                                    <circle id="椭圆形" fill="#638CFF" cx="8" cy="8" r="8"></circle>
                                    <g id="编组-36" transform="translate(2.000000, 3.000000)">
                                        <path d="M4.14933253,2 L8.14933253,2 C10.0823292,2 11.6493325,3.56700338 11.6493325,5.5 C11.6493325,7.43299662 10.0823292,9 8.14933253,9 L4.14933253,9 C2.21633591,9 0.649332532,7.43299662 0.649332532,5.5 C0.649332532,3.56700338 2.21633591,2 4.14933253,2 Z" id="矩形" fill="#FFFFFF"></path>
                                        <path d="M5.97620258,0.411014872 C6.25234496,0.411014872 6.47620258,0.634872497 6.47620258,0.911014872 L6.47620258,2.5 C6.47620258,2.77614237 6.25234496,3 5.97620258,3 C5.70006021,3 5.47620258,2.77614237 5.47620258,2.5 L5.47620258,0.911014872 C5.47620258,0.634872497 5.70006021,0.411014872 5.97620258,0.411014872 Z" id="矩形" fill="#FFFFFF"></path>
                                        <path d="M9.4701903,5.56653916 C9.9120181,5.56653916 10.2701903,5.92471136 10.2701903,6.36653916 C10.2701903,6.80836696 9.9120181,7.16653916 9.4701903,7.16653916 C9.0283625,7.16653916 8.6701903,6.80836696 8.6701903,6.36653916 C8.6701903,5.92471136 9.0283625,5.56653916 9.4701903,5.56653916 Z M7.4701903,3.56653916 C7.9120181,3.56653916 8.2701903,3.92471136 8.2701903,4.36653916 C8.2701903,4.80836696 7.9120181,5.16653916 7.4701903,5.16653916 C7.0283625,5.16653916 6.6701903,4.80836696 6.6701903,4.36653916 C6.6701903,3.92471136 7.0283625,3.56653916 7.4701903,3.56653916 Z" id="形状结合" fill="#638CFF"></path>
                                        <path d="M4,3.5 C4.27614237,3.5 4.5,3.72385763 4.5,4 L4.499,5 L5.5,5 C5.77614237,5 6,5.22385763 6,5.5 C6,5.77614237 5.77614237,6 5.5,6 L4.499,6 L4.5,7 C4.5,7.27614237 4.27614237,7.5 4,7.5 C3.72385763,7.5 3.5,7.27614237 3.5,7 L3.499,6 L2.5,6 C2.22385763,6 2,5.77614237 2,5.5 C2,5.22385763 2.22385763,5 2.5,5 L3.499,5 L3.5,4 C3.5,3.72385763 3.72385763,3.5 4,3.5 Z" id="形状结合" fill="#638CFF"></path>
                                    </g>
                                </g>
                            </g>
                        </g>
                    </g>
                </g>
            </g>
        </g>
    </g>
</svg>