<?xml version="1.0" encoding="UTF-8"?>
<svg width="14px" height="14px" viewBox="0 0 14 14" version="1.1" xmlns="http://www.w3.org/2000/svg" xmlns:xlink="http://www.w3.org/1999/xlink">
    <!-- Generator: Sketch 64 (93537) - https://sketch.com -->
    <title>编组 16</title>
    <desc>Created with Sketch.</desc>
    <g id="首页" stroke="none" stroke-width="1" fill="none" fill-rule="evenodd">
        <g id="首页-朋友圈" transform="translate(-28.000000, -286.000000)" fill-rule="nonzero">
            <g id="编组-15" transform="translate(0.000000, 165.000000)">
                <g id="编组-14" transform="translate(20.000000, 116.000000)">
                    <g id="编组-16" transform="translate(8.000000, 5.000000)">
                        <path d="M7,0 C3.11818181,0 0,3.15 0,7 C0,10.7545455 2.99090909,13.8409091 6.71363636,14 L10.8181818,14 C11.1363636,14 11.4545455,13.6818182 11.4545455,13.3636364 L11.4545455,12.4090909 C13.0136364,11.1363636 14,9.19545456 14,7 C14,3.15 10.8818182,0 7,0 Z" id="形状" fill="#202020"></path>
                        <path d="M9.814875,11.702875 C10.835125,11.6515417 11.3965833,11.1125417 11.49925,10.085875 C11.557,9.11054167 11.5922917,7.07966667 11.605125,3.99325 L11.605125,3.99325 L8.9775,3.99325 C9.0545,3.74941667 9.11866667,3.512 9.17,3.281 L9.17,3.281 L7.504875,2.95375 C7.37654167,3.54408333 7.119875,4.24670833 6.734875,5.061625 L6.734875,5.061625 L5.926375,4.695875 C5.74029167,5.042375 5.53816667,5.3985 5.32,5.76425 L5.32,5.76425 L4.963875,5.812375 L6.30175,3.56975 L4.675125,2.91525 C4.136125,4.15366667 3.73829167,4.97179167 3.481625,5.369625 C3.28270833,5.68404167 3.07095833,5.88616667 2.846375,5.976 L2.846375,5.976 L3.52975,7.41975 C3.84416667,7.29783333 4.14254167,7.208 4.424875,7.15025 C4.43129167,7.14383333 4.444125,7.140625 4.463375,7.140625 C4.482625,7.13420833 4.49545833,7.131 4.501875,7.131 C4.309375,7.44541667 4.18104167,7.641125 4.116875,7.718125 C3.924375,7.97479167 3.5875,8.17370833 3.10625,8.314875 L3.10625,8.314875 L3.616375,9.777875 C3.982125,9.66879167 4.347875,9.58216667 4.713625,9.518 C5.079375,9.45383333 5.83333333,9.33191667 6.9755,9.15225 L6.9755,9.15225 L6.9755,7.679625 L5.705,7.891375 L6.638625,6.447625 L7.447125,7.044375 L7.18725,7.22725 C7.67491667,7.81116667 8.14333333,8.44 8.5925,9.11375 L8.5925,9.11375 L9.7475,8.237875 C9.7475,8.59079167 9.74108333,8.93408333 9.72825,9.26775 C9.73466667,9.76825 9.5165,10.0056667 9.07375,9.98 L9.07375,9.98 L7.861,9.98 L8.197875,11.702875 L9.814875,11.702875 Z M9.757125,7.9395 C9.30795833,7.34275 8.86841667,6.794125 8.4385,6.293625 L8.4385,6.293625 L7.53375,6.977 C7.80325,6.62408333 8.05991667,6.19416667 8.30375,5.68725 L8.30375,5.68725 L9.786,5.68725 C9.786,5.85408333 9.78279167,6.10754167 9.776375,6.447625 C9.76995833,7.13420833 9.76354167,7.6315 9.757125,7.9395 Z M3.395,11.77025 L7.1295,11.2505 L7.1295,9.57575 L3.0485,10.26875 L3.395,11.77025 Z" id="约" fill="#FFFFFF"></path>
                    </g>
                </g>
            </g>
        </g>
    </g>
</svg>