<?xml version="1.0" encoding="UTF-8"?>
<svg width="24px" height="24px" viewBox="0 0 24 24" version="1.1" xmlns="http://www.w3.org/2000/svg" xmlns:xlink="http://www.w3.org/1999/xlink">
    <title>发布1</title>
    <g id="发布器" stroke="none" stroke-width="1" fill="none" fill-rule="evenodd">
        <g id="发说说" transform="translate(-148.000000, -736.000000)">
            <g id="语音" transform="translate(148.000000, 736.000000)">
                <g id="椭圆形-2" transform="translate(5.000000, 0.000000)" stroke="#202020" stroke-width="2">
                    <rect id="矩形" x="1.45454545" y="1" width="11.0909091" height="15.4545455" rx="5.54545455"></rect>
                </g>
                <path d="M21.8181818,9.90909091 C22.3704666,9.90909091 22.8181818,10.3568062 22.8181818,10.9090909 C22.8181818,16.8838077 17.9747168,21.7272727 12,21.7272727 C6.02528316,21.7272727 1.18181818,16.8838077 1.18181818,10.9090909 C1.18181818,10.3568062 1.62953343,9.90909091 2.18181818,9.90909091 C2.73410293,9.90909091 3.18181818,10.3568062 3.18181818,10.9090909 C3.18181818,15.7792382 7.12985266,19.7272727 12,19.7272727 C16.8701473,19.7272727 20.8181818,15.7792382 20.8181818,10.9090909 C20.8181818,10.3568062 21.2658971,9.90909091 21.8181818,9.90909091 Z" id="路径" fill="#202020" fill-rule="nonzero"></path>
                <rect id="矩形" fill="#202020" x="11" y="20" width="2" height="4" rx="1"></rect>
            </g>
        </g>
    </g>
</svg>