<?xml version="1.0" encoding="UTF-8"?>
<svg width="24px" height="24px" viewBox="0 0 24 24" version="1.1" xmlns="http://www.w3.org/2000/svg" xmlns:xlink="http://www.w3.org/1999/xlink">
    <title>编组</title>
    <g id="发布器" stroke="none" stroke-width="1" fill="none" fill-rule="evenodd">
        <g id="发说说" transform="translate(-84.000000, -736.000000)">
            <g id="视频" transform="translate(84.000000, 736.000000)">
                <g id="编组">
                    <path d="M15.2727273,2.09090909 L4.36363636,2.09090909 C3.43479383,2.09090909 2.59388474,2.46739691 1.98518628,3.07609537 C1.37648782,3.68479383 1,4.52570292 1,5.45454545 L1,18.5454545 C1,19.4742971 1.37648782,20.3152062 1.98518628,20.9239046 C2.59388474,21.5326031 3.43479383,21.9090909 4.36363636,21.9090909 L15.2727273,21.9090909 C16.2015698,21.9090909 17.0424789,21.5326031 17.6511774,20.9239046 C18.2598758,20.3152062 18.6363636,19.4742971 18.6363636,18.5454545 L18.6356071,15.0367779 L23,17.6490838 L22.860284,6.27421968 L18.635607,8.96136438 L18.6363637,5.45432969 C18.6363636,4.52570292 18.2598758,3.68479383 17.6511774,3.07609537 C17.0424789,2.46739691 16.2015698,2.09090909 15.2727273,2.09090909 Z" id="形状结合" stroke="#202020" stroke-width="2"></path>
                    <rect id="矩形" fill="#202020" x="17.6363636" y="7.63636364" width="2" height="7.63636364"></rect>
                </g>
            </g>
        </g>
    </g>
</svg>