<?xml version="1.0" encoding="UTF-8"?>
<svg width="14px" height="14px" viewBox="0 0 14 14" version="1.1" xmlns="http://www.w3.org/2000/svg" xmlns:xlink="http://www.w3.org/1999/xlink">
    <!-- Generator: Sketch 63.1 (92452) - https://sketch.com -->
    <title>icon-已赞</title>
    <desc>Created with Sketch.</desc>
    <g id="页面-" stroke="none" stroke-width="1" fill="none" fill-rule="evenodd">
        <g id="动态详情" transform="translate(-30.000000, -446.000000)">
            <g id="点赞" transform="translate(20.000000, 432.000000)">
                <g id="icon-已赞" transform="translate(10.000000, 14.000000)">
                    <g id="icon-点赞">
                        <g>
                            <rect id="矩形" fill-rule="nonzero" x="0" y="0" width="14" height="14"></rect>
                            <path d="M7.0000868,13.5680719 C6.67343991,13.5680719 6.36866913,13.4418485 6.13964441,13.2112337 L1.33716212,8.4038094 C-0.328412541,6.73699289 -0.453817384,4.08816865 1.04981932,2.37353557 C1.85635531,1.45526514 2.96910225,0.928630038 4.18539615,0.89094978 C5.20194287,0.860504567 6.20239241,1.18831193 7.0000868,1.80922021 C7.79645039,1.18831193 8.79248825,0.859017665 9.8148686,0.89094978 C11.0297223,0.93011694 12.1439094,1.45667951 12.9489506,2.37353557 C14.4540639,4.08816865 14.3285861,6.73699289 12.6631026,8.4038094 L7.86062034,13.2126481 C7.63017367,13.4418485 7.32538467,13.5680719 7.0000868,13.5680719 Z" id="路径" fill="#FF7090"></path>
                            <path d="M3.72320418,6.70014741 C3.57855166,6.70014741 3.43530742,6.63724215 3.3309907,6.51287364 C2.74958148,5.82215179 2.76628954,4.78096581 3.36854472,4.19067889 C3.6898576,3.87604023 4.12797042,3.73968619 4.57166419,3.8145957 C4.86096922,3.8640547 5.05711942,4.15622051 5.0125588,4.46632715 C4.96664206,4.77796943 4.69547075,4.98923297 4.407574,4.9412347 C4.33246596,4.92778845 4.19337701,4.92477334 4.08069756,5.03414122 C3.90963553,5.20195724 3.92490055,5.52251376 4.11404414,5.74724228 C4.31019434,5.98097867 4.29491194,6.34060049 4.07791579,6.55178912 C3.97773696,6.65216787 3.85121817,6.70014741 3.72320418,6.70014741 Z" id="Fill-1" fill="#FFFFFF"></path>
                        </g>
                    </g>
                </g>
            </g>
        </g>
    </g>
</svg>