<?xml version="1.0" encoding="UTF-8"?>
<svg width="20px" height="20px" viewBox="0 0 20 20" version="1.1" xmlns="http://www.w3.org/2000/svg" xmlns:xlink="http://www.w3.org/1999/xlink">
    <!-- Generator: Sketch 63.1 (92452) - https://sketch.com -->
    <title>icon-点赞</title>
    <desc>Created with Sketch.</desc>
    <g id="页面-" stroke="none" stroke-width="1" fill="none" fill-rule="evenodd">
        <g id="动态详情" transform="translate(-253.000000, -400.000000)">
            <g id="列表01" transform="translate(16.000000, 104.000000)">
                <g id="icon-点赞" transform="translate(237.000000, 296.000000)">
                    <g>
                        <rect id="矩形" fill-rule="nonzero" x="0" y="0" width="20" height="20"></rect>
                        <path d="M5.31886311,9.57163915 C5.11221666,9.57163915 4.90758203,9.48177449 4.75855815,9.30410519 C3.92797354,8.3173597 3.9518422,6.82995116 4.81220675,5.98668412 C5.27122514,5.53720032 5.89710061,5.34240885 6.53094885,5.44942243 C6.94424175,5.52007815 7.22445632,5.93745788 7.16079829,6.38046735 C7.09520294,6.82567061 6.70781536,7.12747567 6.29653428,7.05890672 C6.18923709,7.03969778 5.99053858,7.03539048 5.82956795,7.19163031 C5.58519362,7.43136749 5.60700078,7.88930537 5.87720592,8.21034612 C6.15742049,8.54425525 6.13558849,9.05800071 5.82559398,9.35969875 C5.68248138,9.50309695 5.50174025,9.57163915 5.31886311,9.57163915 Z" id="Fill-1" fill="#B3B3B3"></path>
                        <path d="M13.9970732,2.02239592 C12.7133075,1.9823003 11.4618477,2.39594696 10.4612799,3.17606898 C10.2998114,3.3019627 10.1460053,3.4365204 10.0004407,3.5789437 C9.85479454,3.43661263 9.70094472,3.30214847 9.53944699,3.17644209 C8.53680253,2.39600505 7.27926742,1.98418326 6.00158952,2.02244926 C4.47415651,2.06976887 3.07647478,2.73210493 2.06324606,3.88570252 C1.12085583,4.96033309 0.691580959,6.32886419 0.756373265,7.68861756 C0.821699482,9.05957578 1.38858296,10.4223488 2.44075928,11.4753096 L9.30152333,18.3431337 C9.48861436,18.5315191 9.73572737,18.6329599 10.000124,18.6329599 C10.2649613,18.6329599 10.5129921,18.5300064 10.7005674,18.3434455 L17.5594659,11.4754628 C18.6118141,10.4222723 19.1787038,9.05935113 19.2436961,7.68826806 C19.3081417,6.32871813 18.878406,4.96043955 17.9348525,3.88553836 C16.9234149,2.73361873 15.5236052,2.07161165 13.9970732,2.02239592 Z" id="路径" stroke="#B3B3B3" stroke-width="1.5"></path>
                    </g>
                </g>
            </g>
        </g>
    </g>
</svg>