<?xml version="1.0" encoding="UTF-8"?>
<svg width="13px" height="13px" viewBox="0 0 13 13" version="1.1" xmlns="http://www.w3.org/2000/svg" xmlns:xlink="http://www.w3.org/1999/xlink">
    <!-- Generator: Sketch 63.1 (92452) - https://sketch.com -->
    <title>约玩标签备份</title>
    <desc>Created with Sketch.</desc>
    <g id="页面-" stroke="none" stroke-width="1" fill="none" fill-rule="evenodd">
        <g id="发布-约玩" transform="translate(-153.000000, -397.000000)" fill="#1789FF" fill-rule="nonzero">
            <g id="约玩标签备份-2" transform="translate(20.000000, 391.000000)">
                <g id="x" transform="translate(133.000000, 6.000000)">
                    <g id="X">
                        <path d="M6.35355339,2 C6.62969577,2 6.85355339,2.22385763 6.85355339,2.5 L6.853,5.939 L10.5,5.93933983 C10.7761424,5.93933983 11,6.16319745 11,6.43933983 C11,6.7154822 10.7761424,6.93933983 10.5,6.93933983 L6.853,6.939 L6.85355339,10.5 C6.85355339,10.7761424 6.62969577,11 6.35355339,11 C6.07741102,11 5.85355339,10.7761424 5.85355339,10.5 L5.853,6.939 L2.5,6.93933983 C2.22385763,6.93933983 2,6.7154822 2,6.43933983 C2,6.16319745 2.22385763,5.93933983 2.5,5.93933983 L5.853,5.939 L5.85355339,2.5 C5.85355339,2.22385763 6.07741102,2 6.35355339,2 Z" id="形状结合" transform="translate(6.500000, 6.500000) rotate(45.000000) translate(-6.500000, -6.500000) "></path>
                    </g>
                </g>
            </g>
        </g>
    </g>
</svg>