<?xml version="1.0" encoding="UTF-8"?>
<svg width="16px" height="16px" viewBox="0 0 16 16" version="1.1" xmlns="http://www.w3.org/2000/svg" xmlns:xlink="http://www.w3.org/1999/xlink">
    <!-- Generator: Sketch 63.1 (92452) - https://sketch.com -->
    <title>ic_tag</title>
    <desc>Created with Sketch.</desc>
    <g id="ic_tag" stroke="none" stroke-width="1" fill="none" fill-rule="evenodd">
        <g fill="#00BBFF" id="形状结合">
            <path d="M6.16321464,2.5 C6.66756916,2.5 7.07642928,2.90886012 7.07642928,3.41321464 C7.07642928,3.44081668 7.07517786,3.46840452 7.07267889,3.49589321 L6.981,4.499 L9.481,4.499 L9.58053607,3.40946425 C9.62736145,2.8943851 10.0592261,2.5 10.5764293,2.5 L10.6632146,2.5 C11.1675692,2.5 11.5764293,2.90886012 11.5764293,3.41321464 C11.5764293,3.44081668 11.5751779,3.46840452 11.5726789,3.49589321 L11.481,4.499 L12.5,4.5 C13.0522847,4.5 13.5,4.94771525 13.5,5.5 C13.5,6.05228475 13.0522847,6.5 12.5,6.5 L11.299,6.499 L11.072,8.999 L12.5,9 C13.0522847,9 13.5,9.44771525 13.5,10 C13.5,10.5522847 13.0522847,11 12.5,11 L10.89,10.999 L10.7458932,12.5905357 C10.6990678,13.1056149 10.2672032,13.5 9.75,13.5 L9.66321464,13.5 C9.15886012,13.5 8.75,13.0911399 8.75,12.5867854 C8.75,12.5591833 8.75125141,12.5315955 8.75375038,12.5041068 L8.89,10.999 L6.39,10.999 L6.24589321,12.5905357 C6.19906783,13.1056149 5.7672032,13.5 5.25,13.5 L5.16321464,13.5 C4.65886012,13.5 4.25,13.0911399 4.25,12.5867854 C4.25,12.5591833 4.25125141,12.5315955 4.25375038,12.5041068 L4.39,10.999 L3.5,11 C2.94771525,11 2.5,10.5522847 2.5,10 C2.5,9.44771525 2.94771525,9 3.5,9 L4.572,8.999 L4.799,6.499 L3.5,6.5 C2.94771525,6.5 2.5,6.05228475 2.5,5.5 C2.5,4.94771525 2.94771525,4.5 3.5,4.5 L4.981,4.499 L5.08053607,3.40946425 C5.12736145,2.8943851 5.55922607,2.5 6.07642928,2.5 L6.16321464,2.5 Z M9.299,6.499 L6.799,6.499 L6.572,8.999 L9.072,8.999 L9.299,6.499 Z"></path>
        </g>
    </g>
</svg>