<?xml version="1.0" encoding="UTF-8"?>
<svg width="16px" height="16px" viewBox="0 0 16 16" version="1.1" xmlns="http://www.w3.org/2000/svg" xmlns:xlink="http://www.w3.org/1999/xlink">
    <title>话题icon</title>
    <g id="话题详情" stroke="none" stroke-width="1" fill="none" fill-rule="evenodd">
        <g id="话题详情页长标题" transform="translate(-279.000000, -60.000000)" fill-rule="nonzero">
            <g id="话题icon" transform="translate(279.000000, 60.000000)">
                <rect id="矩形" fill="#000000" opacity="0" x="0" y="0" width="16" height="16"></rect>
                <path d="M8.8,0.8 C12.3348,0.8 15.2,3.6652 15.2,7.2 L15.2,13.6 C15.2,14.4836556 14.4836556,15.2 13.6,15.2 L7.2,15.2 C3.6652,15.2 0.8,12.3348 0.8,8.8 L0.8,7.2 C0.8,3.6652 3.6652,0.8 7.2,0.8 L8.8,0.8 Z M10.84,3.796 C10.4357443,3.6878788 10.0203491,3.9278053 9.912,4.332 L9.464,6.0032 C9.44273792,6.00100686 9.4213748,5.9999387 9.4,6 L8.0028,6 L8.3444,4.7244 C8.44139246,4.32437177 8.2014118,3.92004547 7.80379962,3.81358101 C7.40618744,3.70711655 6.99627642,3.93742813 6.8804,4.3324 L6.4332,5.9996 L4.2,6 C3.86862915,6 3.6,6.26862915 3.6,6.6 C3.6,6.93137085 3.86862915,7.2 4.2,7.2 L6.1116,7.2 L5.5756,9.2 L4.2,9.2 C3.86862915,9.2 3.6,9.46862915 3.6,9.8 C3.6,10.1313708 3.86862915,10.4 4.2,10.4 L5.254,10.4 L4.9188,11.6528 C4.82180754,12.0528282 5.0617882,12.4571545 5.45940038,12.563619 C5.85701256,12.6700835 6.26692358,12.4397719 6.3828,12.0448 L6.824,10.4 L8.286,10.4 L7.9508,11.6532 C7.85380754,12.0532282 8.0937882,12.4575545 8.49140038,12.564019 C8.88901256,12.6704835 9.29892358,12.4401719 9.4148,12.0452 L9.8552,10.4 L11.8,10.4 C12.1313708,10.4 12.4,10.1313708 12.4,9.8 C12.4,9.46862915 12.1313708,9.2 11.8,9.2 L10.1768,9.2 L11.376,4.724 C11.4841212,4.31974426 11.2441947,3.90434914 10.84,3.796 Z M9.1432,7.2 L8.6072,9.2 L7.1452,9.2 L7.6812,7.2 L9.1432,7.2 L9.1432,7.2 Z M12.2,6 C11.8686292,6 11.6,6.26862915 11.6,6.6 C11.6,6.93137085 11.8686292,7.2 12.2,7.2 C12.5313708,7.2 12.8,6.93137085 12.8,6.6 C12.8,6.26862915 12.5313708,6 12.2,6 Z" id="形状" fill="#FFFFFF"></path>
            </g>
        </g>
    </g>
</svg>