<?xml version="1.0" encoding="UTF-8"?>
<svg width="24px" height="24px" viewBox="0 0 24 24" version="1.1" xmlns="http://www.w3.org/2000/svg" xmlns:xlink="http://www.w3.org/1999/xlink">
    <!-- Generator: Sketch 63.1 (92452) - https://sketch.com -->
    <title>tag</title>
    <desc>Created with Sketch.</desc>
    <g id="tag" stroke="none" stroke-width="1" fill="none" fill-rule="evenodd">
        <g>
            <path d="M12,0 C18.627417,-1.21743675e-15 24,5.372583 24,12 C24,18.627417 18.627417,24 12,24 C5.372583,24 8.11624501e-16,18.627417 0,12 C-8.11624501e-16,5.372583 5.372583,1.21743675e-15 12,0 Z" id="base" fill="#F5F5F5"></path>
            <g id="ic_tag" transform="translate(6.000000, 5.500000)" fill="#00BBFF">
                <path d="M1,8 L11,8 C11.5522847,8 12,8.44771525 12,9 C12,9.55228475 11.5522847,10 11,10 L1,10 C0.44771525,10 0,9.55228475 0,9 C0,8.44771525 0.44771525,8 1,8 Z M11,3 C11.5522847,3 12,3.44771525 12,4 C12,4.55228475 11.5522847,5 11,5 L1,5 C0.44771525,5 0,4.55228475 0,4 C0,3.44771525 0.44771525,3 1,3 L11,3 Z" id="形状结合"></path>
                <path d="M0.840265763,7.57986712 C0.865769763,7.57986712 0.891262737,7.58092749 0.91667864,7.58304548 L10.9235871,8.41695452 C11.4868668,8.46389449 11.9201329,8.9347679 11.9201329,9.5 C11.9201329,10.0081754 11.5081754,10.4201329 11,10.4201329 C10.974496,10.4201329 10.949003,10.4190725 10.9235871,10.4169545 L0.91667864,9.58304548 C0.353398993,9.53610551 -0.0798671184,9.0652321 -0.0798671184,8.5 C-0.0798671184,7.99182464 0.332090405,7.57986712 0.840265763,7.57986712 Z M0.91667864,2.58304548 L10.9235871,3.41695452 C11.4868668,3.46389449 11.9201329,3.9347679 11.9201329,4.5 C11.9201329,5.00817536 11.5081754,5.42013288 11,5.42013288 C10.974496,5.42013288 10.949003,5.41907251 10.9235871,5.41695452 L0.91667864,4.58304548 C0.353398993,4.53610551 -0.0798671184,4.0652321 -0.0798671184,3.5 C-0.0798671184,2.99182464 0.332090405,2.57986712 0.840265763,2.57986712 C0.865769763,2.57986712 0.891262737,2.58092749 0.91667864,2.58304548 Z" id="形状结合" transform="translate(5.920133, 6.500000) rotate(-270.000000) translate(-5.920133, -6.500000) "></path>
            </g>
        </g>
    </g>
</svg>