<?xml version="1.0" encoding="UTF-8"?>
<svg width="16px" height="16px" viewBox="0 0 16 16" version="1.1" xmlns="http://www.w3.org/2000/svg" xmlns:xlink="http://www.w3.org/1999/xlink">
    <!-- Generator: Sketch 63.1 (92452) - https://sketch.com -->
    <title>ic_tag</title>
    <desc>Created with Sketch.</desc>
    <g id="ic_tag" stroke="none" stroke-width="1" fill="none" fill-rule="evenodd" fill-opacity="0.4">
        <g fill="#202020" id="形状结合">
            <path d="M10.4287407,3 C10.8035988,3 11.1074813,3.30388255 11.1074813,3.67874067 C11.1074813,3.70129506 11.1063571,3.72383544 11.1041129,3.74627789 L10.979,5 L12.25,5 C12.6642136,5 13,5.33578644 13,5.75 C13,6.16421356 12.6642136,6.5 12.25,6.5 L10.829,6.5 L10.578,9 L12.25,9 C12.6642136,9 13,9.33578644 13,9.75 C13,10.1642136 12.6642136,10.5 12.25,10.5 L10.428,10.5 L10.2533685,12.2537221 C10.2110031,12.6773758 9.85450739,13 9.42874067,13 C9.05388255,13 8.75,12.6961175 8.75,12.3212593 C8.75,12.2987049 8.75112422,12.2761646 8.75336846,12.2537221 L8.928,10.5 L6.428,10.499 L6.25336846,12.2537221 C6.21100309,12.6773758 5.85450739,13 5.42874067,13 C5.05388255,13 4.75,12.6961175 4.75,12.3212593 C4.75,12.2987049 4.75112422,12.2761646 4.75336846,12.2537221 L4.928,10.499 L3.75,10.5 C3.33578644,10.5 3,10.1642136 3,9.75 C3,9.33578644 3.33578644,9 3.75,9 L5.078,8.999 L5.329,6.499 L3.75,6.5 C3.33578644,6.5 3,6.16421356 3,5.75 C3,5.33578644 3.33578644,5 3.75,5 L5.479,4.999 L5.60411288,3.74627789 C5.64647825,3.32262417 6.00297395,3 6.42874067,3 C6.80359879,3 7.10748134,3.30388255 7.10748134,3.67874067 C7.10748134,3.70129506 7.10635713,3.72383544 7.10411288,3.74627789 L6.979,4.999 L9.479,5 L9.60411288,3.74627789 C9.64647825,3.32262417 10.002974,3 10.4287407,3 Z M6.829,6.499 L6.578,8.999 L9.078,9 L9.329,6.5 L6.829,6.499 Z"></path>
        </g>
    </g>
</svg>