<?xml version="1.0" encoding="UTF-8"?>
<svg width="20px" height="20px" viewBox="0 0 20 20" version="1.1" xmlns="http://www.w3.org/2000/svg" xmlns:xlink="http://www.w3.org/1999/xlink">
    <title>话题-蓝备份 5</title>
    <g id="话题-蓝备份-5" stroke="none" stroke-width="1" fill="none" fill-rule="evenodd">
        <path d="M14.4364795,2.32564614 C15.0784141,2.4371871 15.5083831,3.04799976 15.3968422,3.6899344 C15.3965042,3.69187967 15.3961613,3.69382409 15.3958135,3.69576763 L14.8964615,6.48086176 L17.292627,6.48142666 C17.938199,6.48142666 18.4615385,7.00476615 18.4615385,7.65033813 C18.4615385,8.29591011 17.938199,8.8192496 17.292627,8.8192496 L14.4784615,8.81886176 L14.0604615,11.1568618 L16.1855098,11.1570725 C16.8310818,11.1570725 17.3544213,11.680412 17.3544213,12.325984 C17.3544213,12.971556 16.8310818,13.4948955 16.1855098,13.4948955 L13.6414615,13.4948618 L13.0670848,16.7101911 C12.9515754,17.3557316 12.3361792,17.7866207 11.6900669,17.6743539 C11.0481322,17.5628129 10.6181632,16.9520002 10.7297042,16.3100656 C10.7300422,16.3081203 10.7303851,16.3061759 10.7307328,16.3042324 L11.2334615,13.4948618 L7.31546154,13.4948618 L6.74070091,16.7101911 C6.62519147,17.3557316 6.00979535,17.7866207 5.36368299,17.6743539 C4.72174835,17.5628129 4.29177932,16.9520002 4.40332029,16.3100656 C4.40365829,16.3081203 4.40400118,16.3061759 4.40434895,16.3042324 L4.90646154,13.4948618 L2.70737301,13.4948955 C2.06180103,13.4948955 1.53846154,12.971556 1.53846154,12.325984 C1.53846154,11.680412 2.06180103,11.1570725 2.70737301,11.1570725 L5.32446154,11.1568618 L5.74246154,8.81886176 L3.81449019,8.8192496 C3.16891821,8.8192496 2.64557872,8.29591011 2.64557872,7.65033813 C2.64557872,7.00476615 3.16891821,6.48142666 3.81449019,6.48142666 L6.16146154,6.48086176 L6.73307766,3.28980894 C6.8485871,2.64426839 7.46398322,2.21337927 8.11009558,2.32564614 C8.75203022,2.4371871 9.18199925,3.04799976 9.07045828,3.6899344 C9.07012028,3.69187967 9.06977739,3.69382409 9.06942962,3.69576763 L8.57046154,6.48086176 L12.4884615,6.48086176 L13.0594616,3.28980894 C13.174971,2.64426839 13.7903671,2.21337927 14.4364795,2.32564614 Z M12.0694615,8.81886176 L8.15146154,8.81886176 L7.73346154,11.1568618 L11.6514615,11.1568618 L12.0694615,8.81886176 Z" id="形状结合" fill="#FFFFFF" fill-rule="nonzero"></path>
    </g>
</svg>