<svg xmlns="http://www.w3.org/2000/svg" width="28" height="28" viewBox="0 0 28 28"><title>icon/聊天/ic_IM_zhenxinhua@2x</title><g fill="none" fill-rule="evenodd" stroke="#A6A6A6" stroke-linecap="round" stroke-linejoin="round" stroke-width="2"><path d="M13.958 8.647c-.027-.192-.068-.377-.121-.557-.1-.335-.243-.649-.423-.937-.301-.482-.705-.893-1.18-1.223-.76-.53-1.704-.85-2.703-.917-1.824-.122-3.832.599-5.248 2.437C.899 11.844 4.234 19.54 14 23.963"/><path d="M14.012 8.916c.311-4.077 6.514-5.61 9.705-1.466.345.448.62.93.826 1.44.324.802.475 1.672.455 2.583M8 14.673h4.051l1.95 2.383 2.139-4.955 2.865 2.573h5.274c-1.403 3.355-4.845 6.829-10.279 9.289"/></g></svg>