<?xml version="1.0" encoding="UTF-8"?>
<svg width="24px" height="24px" viewBox="0 0 24 24" version="1.1" xmlns="http://www.w3.org/2000/svg" xmlns:xlink="http://www.w3.org/1999/xlink">
    <!-- Generator: Sketch 63.1 (92452) - https://sketch.com -->
    <title>ic_titlebar_search</title>
    <desc>Created with Sketch.</desc>
    <g id="ic_titlebar_search" stroke="none" stroke-width="1" fill="none" fill-rule="evenodd">
        <g id="ic" fill="#D2D2D2">
            <path d="M11.5,2.5 C16.1944204,2.5 20,6.30557963 20,11 C20,13.1955517 19.1675767,15.1966806 17.8011191,16.7049977 L21.6568542,20.5606602 C22.0473785,20.9511845 22.0473785,21.5843494 21.6568542,21.9748737 C21.26633,22.365398 20.633165,22.365398 20.2426407,21.9748737 L16.2904769,18.0224802 C14.9264469,18.9547684 13.2768963,19.5 11.5,19.5 C6.80557963,19.5 3,15.6944204 3,11 C3,6.30557963 6.80557963,2.5 11.5,2.5 Z M11.5,4.5 C7.91014913,4.5 5,7.41014913 5,11 C5,14.5898509 7.91014913,17.5 11.5,17.5 C15.0898509,17.5 18,14.5898509 18,11 C18,7.41014913 15.0898509,4.5 11.5,4.5 Z" id="形状结合"></path>
        </g>
    </g>
</svg>