<?xml version="1.0" encoding="UTF-8"?>
<svg width="20px" height="20px" viewBox="0 0 20 20" version="1.1" xmlns="http://www.w3.org/2000/svg" xmlns:xlink="http://www.w3.org/1999/xlink">
    <!-- Generator: Sketch 64 (93537) - https://sketch.com -->
    <title>形状结合</title>
    <desc>Created with Sketch.</desc>
    <g id="挂起功能迭代" stroke="none" stroke-width="1" fill="none" fill-rule="evenodd">
        <g id="匹配设置未添加游戏" transform="translate(-237.000000, -536.000000)" fill="#FFFFFF">
            <g id="编组-12" transform="translate(21.000000, 512.000000)">
                <g id="编组-10" transform="translate(100.000000, 23.000000)">
                    <g id="编组-9">
                        <path d="M126,1 C131.522847,1 136,5.4771525 136,11 C136,16.5228475 131.522847,21 126,21 C120.477153,21 116,16.5228475 116,11 C116,5.4771525 120.477153,1 126,1 Z M126,6 C125.447715,6 125,6.44771525 125,7 L125,7 L125,10 L122,10 C121.487164,10 121.064493,10.3860402 121.006728,10.8833789 L121,11 C121,11.5522847 121.447715,12 122,12 L122,12 L125,12 L125,15 C125,15.5128358 125.38604,15.9355072 125.883379,15.9932723 L126,16 C126.552285,16 127,15.5522847 127,15 L127,15 L127,12 L130,12 C130.512836,12 130.935507,11.6139598 130.993272,11.1166211 L131,11 C131,10.4477153 130.552285,10 130,10 L130,10 L127,10 L127,7 C127,6.48716416 126.61396,6.06449284 126.116621,6.00672773 Z" id="形状结合"></path>
                    </g>
                </g>
            </g>
        </g>
    </g>
</svg>