<?xml version="1.0" encoding="UTF-8"?>
<svg width="15px" height="16px" viewBox="0 0 15 16" version="1.1" xmlns="http://www.w3.org/2000/svg" xmlns:xlink="http://www.w3.org/1999/xlink">
    <!-- Generator: Sketch 64 (93537) - https://sketch.com -->
    <title>关机</title>
    <desc>Created with Sketch.</desc>
    <g id="挂起功能迭代" stroke="none" stroke-width="1" fill="none" fill-rule="evenodd" opacity="0.699999988">
        <g id="匹配设置" transform="translate(-278.000000, -154.000000)" fill="#FFFFFF" fill-rule="nonzero">
            <g id="编组-7" transform="translate(20.000000, 145.000000)">
                <g id="编组-5" transform="translate(258.000000, 8.000000)">
                    <g id="关机" transform="translate(0.000000, 1.000000)">
                        <path d="M7.18710937,6.24589844 C7.72636719,6.24589844 8.16367187,5.80859375 8.16367187,5.26933594 L8.16367187,0.980859375 C8.16367187,0.441601562 7.72636719,0.004296875 7.18710937,0.004296875 C6.64785156,0.004296875 6.21054687,0.441601562 6.21054687,0.980859375 L6.21054687,5.26933594 C6.21054687,5.80859375 6.64785156,6.24589844 7.18710937,6.24589844 L7.18710937,6.24589844 Z" id="路径"></path>
                        <path d="M13.8933594,5.94023438 C13.5292969,5.07929687 13.0082031,4.30625 12.3445313,3.64277344 C11.6810547,2.97929688 10.9080078,2.45820312 10.0470703,2.09394531 C9.88789063,2.0265625 9.72695313,1.96523437 9.56445313,1.90996094 L9.56445313,4.01914062 C10.0759766,4.27148438 10.5484375,4.60878906 10.9634766,5.02382812 C11.9599609,6.0203125 12.5085938,7.34511719 12.5085938,8.75429688 C12.5085938,10.1634766 11.9597656,11.4882812 10.9632813,12.4847656 C9.96679688,13.48125 8.64199219,14.0298828 7.2328125,14.0298828 C5.82363281,14.0298828 4.49882813,13.4810547 3.50234375,12.4847656 C2.50585938,11.4882812 1.95722656,10.1634766 1.95722656,8.75429688 C1.95722656,7.34511719 2.50605469,6.0203125 3.50234375,5.02382813 C3.87558594,4.65058594 4.29472656,4.34023438 4.74726563,4.09804688 L4.74726563,1.96445313 C4.63691406,2.00488281 4.52734375,2.04804688 4.41875,2.09414063 C3.5578125,2.45820313 2.78476563,2.97929688 2.12128906,3.64296875 C1.4578125,4.30644531 0.93671875,5.07949219 0.572460938,5.94042969 C0.1953125,6.83222656 0.00390625,7.77910156 0.00390625,8.75449219 C0.00390625,9.72988281 0.195117188,10.6767578 0.572460938,11.5685547 C0.936523438,12.4294922 1.45761719,13.2023437 2.12128906,13.8660156 C2.78476563,14.5294922 3.5578125,15.0505859 4.41875,15.4148437 C5.31054688,15.7919922 6.25742188,15.9833984 7.2328125,15.9833984 C8.20820313,15.9833984 9.15507813,15.7921875 10.046875,15.4148437 C10.9078125,15.0507812 11.6806641,14.5296875 12.3443359,13.8660156 C13.0080078,13.2023438 13.5289063,12.4294922 13.8931641,11.5685547 C14.2703125,10.6767578 14.4617188,9.72988281 14.4617188,8.75449219 C14.4617188,7.77910156 14.2705078,6.83203125 13.8933594,5.94023438 Z" id="路径"></path>
                    </g>
                </g>
            </g>
        </g>
    </g>
</svg>