<svg xmlns="http://www.w3.org/2000/svg" width="12" height="12" viewBox="0 0 12 12"><title>#</title><path fill="#FFF" fill-rule="nonzero" d="M6.557 1.73c-.054-.605.709-.974 1.171-.542.434.398.827.847 1.176 1.341a7.719 7.719 0 0 1 1.43 4.458c0 2.22-1.868 4.013-4.167 4.013C3.867 11 2 9.206 2 6.987c0-1.188.324-2.33.925-3.32.076-.13.157-.257.254-.397.337-.499 1.098-.343 1.248.21.015.052.024.08.04.117l.086.175c.21.381.609.62 1.072.62.658 0 1.116-.498 1.116-1.204 0-.326-.044-.707-.121-1.12l-.05-.25-.013-.089z"/></svg>