<svg xmlns="http://www.w3.org/2000/svg" xmlns:xlink="http://www.w3.org/1999/xlink" width="32" height="32" viewBox="0 0 32 32"><title>ic_sidebar_level</title><defs><linearGradient id="b" x1="7.986%" x2="92.014%" y1="0%" y2="100%"><stop offset="0%" stop-color="#45FFCF"/><stop offset="100%" stop-color="#1EBDEF"/></linearGradient><path id="a" d="M8 5h16a3 3 0 0 1 3 3v11.804a4 4 0 0 1-1.852 3.375l-7.537 4.796a3 3 0 0 1-3.222 0L6.852 23.18A4 4 0 0 1 5 19.804V8a3 3 0 0 1 3-3z"/><linearGradient id="c" x1="17.584%" x2="82.416%" y1="32.416%" y2="32.416%"><stop offset="0%" stop-color="#44E7FF"/><stop offset="100%" stop-color="#B6ECFF" stop-opacity="0"/></linearGradient><linearGradient id="e" x1="50%" x2="50%" y1="64.832%" y2="0%"><stop offset="0%" stop-color="#00E6D4"/><stop offset="100%" stop-color="#B6ECFF" stop-opacity="0"/></linearGradient><linearGradient id="f" x1="17.584%" x2="82.416%" y1="32.416%" y2="32.416%"><stop offset="0%" stop-color="#33FFB1"/><stop offset="100%" stop-color="#B6ECFF" stop-opacity="0"/></linearGradient></defs><g fill="none" fill-rule="evenodd"><mask id="d" fill="#fff"><use xlink:href="#a"/></mask><use fill="url(#b)" fill-rule="nonzero" xlink:href="#a"/><path fill="url(#c)" fill-opacity=".8" d="M5 13h18v10H5z" mask="url(#d)"/><path fill="url(#e)" fill-opacity=".5" d="M18 12h10v17H18z" mask="url(#d)"/><path fill="url(#f)" fill-opacity=".4" d="M5 11h14v4H5z" mask="url(#d)"/><path fill="#D3FF8D" d="M15.656 19.094l-1.196.438a1 1 0 0 1-1.343-.976l.047-1.273a1 1 0 0 0-.213-.654l-.786-1.002a1 1 0 0 1 .513-1.58l1.225-.348a1 1 0 0 0 .557-.404l.71-1.058a1 1 0 0 1 1.66 0l.71 1.058a1 1 0 0 0 .557.404l1.225.349a1 1 0 0 1 .513 1.579l-.786 1.002a1 1 0 0 0-.213.654l.047 1.273a1 1 0 0 1-1.343.976l-1.196-.438a1 1 0 0 0-.688 0z" mask="url(#d)"/></g></svg>