<svg xmlns="http://www.w3.org/2000/svg" xmlns:xlink="http://www.w3.org/1999/xlink" width="24" height="24" viewBox="0 0 24 24"><title>ic_bag</title><defs><path id="a" d="M7 0a7 7 0 0 1 7 7v6a1 1 0 0 1-1 1H1a1 1 0 0 1-1-1V7a7 7 0 0 1 7-7z"/></defs><g fill="none" fill-rule="evenodd"><g transform="translate(5 6)"><mask id="b" fill="#fff"><use xlink:href="#a"/></mask><path stroke="#313131" stroke-width="2.4" d="M7-1.2c2.264 0 4.314.918 5.798 2.402A8.174 8.174 0 0 1 15.2 7h0v6c0 .608-.246 1.158-.644 1.556A2.193 2.193 0 0 1 13 15.2h0H1a2.193 2.193 0 0 1-1.556-.644A2.193 2.193 0 0 1-1.2 13h0V7c0-2.264.918-4.314 2.402-5.798A8.174 8.174 0 0 1 7-1.2z"/><circle cx="13" cy="15" r="10" fill="#2ECEFE" mask="url(#b)"/></g><path stroke="#313131" stroke-linejoin="round" stroke-width="2" d="M16 12v2a2.99 2.99 0 0 1-.879 2.121A2.99 2.99 0 0 1 13 17h0-2a2.99 2.99 0 0 1-2.121-.879A2.99 2.99 0 0 1 8 14h0v-2h8z"/><path stroke="#313131" stroke-linecap="round" stroke-linejoin="round" stroke-width="2" d="M9 4.977A2.98 2.98 0 0 1 12 2c1.657 0 3 1.32 3 2.977"/><rect width="2" height="5" x="1.679" y="12" fill="#313131" rx="1"/><rect width="2" height="5" x="20" y="12" fill="#313131" rx="1"/></g></svg>