<svg xmlns="http://www.w3.org/2000/svg" width="24" height="24" viewBox="0 0 24 24"><title>ic_ranknew</title><defs><path id="a" d="M8.644 0a3 3 0 0 1 2.625 4.452c.63-.106 1.256-.252 1.872-.437l2.867-.862a1 1 0 0 1 1.264 1.175l-2.03 9.107A2 2 0 0 1 13.29 15H3.997a2 2 0 0 1-1.952-1.565L.015 4.328A1 1 0 0 1 1.28 3.153l2.864.861c.617.186 1.244.333 1.875.44A3 3 0 0 1 8.643 0z"/></defs><g fill="none" fill-rule="evenodd"><path fill="#60C8FF" d="M4.866 16.185l3.68-.777a17.735 17.735 0 0 0 9.106-5.047l2.035-2.112a1 1 0 0 1 1.72.704l-.05 4.878-1.995 6.091a2 2 0 0 1-1.5 1.338l-2.729.556-8.074-.789-2.746-3.214a1 1 0 0 1 .553-1.628z"/><path stroke="#313131" stroke-width="2.4" d="M12 3.8c1.16 0 2.21.47 2.97 1.23.76.76 1.23 1.81 1.23 2.97l-.005-.148 2.824-.848a2.191 2.191 0 0 1 1.507.087l.168.082A2.193 2.193 0 0 1 21.8 9.589h0l-2.03 9.107a3.194 3.194 0 0 1-3.123 2.504h0-9.294a3.194 3.194 0 0 1-3.123-2.504h0L2.2 9.59a2.193 2.193 0 0 1 .29-1.658 2.193 2.193 0 0 1 2.491-.927h0l2.822.849.004-.1c.057-.98.45-1.87 1.065-2.556l.158-.167C9.79 4.27 10.84 3.8 12 3.8z"/><path fill="#313131" fill-rule="nonzero" d="M17.882 15.175c-.911 2.227-2.877 3.215-5.57 2.91a1.2 1.2 0 1 1 .27-2.384c1.686.19 2.602-.27 3.078-1.435a1.2 1.2 0 0 1 2.262.793l-.04.116z"/></g></svg>