<svg xmlns="http://www.w3.org/2000/svg" xmlns:xlink="http://www.w3.org/1999/xlink" width="24" height="24" viewBox="0 0 24 24"><title>ic_orderlist</title><defs><path id="a" d="M1 0h11a1 1 0 0 1 1 1v11a4 4 0 0 1-4 4H1a1 1 0 0 1-1-1V1a1 1 0 0 1 1-1z"/></defs><g fill="none" fill-rule="evenodd" transform="translate(6 4)"><mask id="b" fill="#fff"><use xlink:href="#a"/></mask><path stroke="#313131" stroke-width="2.4" d="M12-1.2c.608 0 1.158.246 1.556.644.398.398.644.948.644 1.556h0v11a5.184 5.184 0 0 1-1.523 3.677A5.184 5.184 0 0 1 9 17.2h0-8a2.193 2.193 0 0 1-1.556-.644A2.193 2.193 0 0 1-1.2 15h0V1c0-.608.246-1.158.644-1.556A2.193 2.193 0 0 1 1-1.2h0z"/><path fill="#2ECEFE" d="M11.462-2.348C11.112 6.829 14.306 15.17 0 14.811c-9.537-.24-9.07 1.574 1.402 5.44H14L18.896.5c-4.723-8.017-7.2-8.966-7.434-2.848z" mask="url(#b)"/><rect width="9" height="4" x="2" y="-2.6" fill="#313131" mask="url(#b)" rx="1.2"/><rect width="9" height="2.4" x="2" y="5" fill="#313131" mask="url(#b)" rx="1.2"/><rect width="5" height="2.4" x="2" y="9" fill="#313131" mask="url(#b)" rx="1.2"/></g></svg>