<svg xmlns="http://www.w3.org/2000/svg" xmlns:xlink="http://www.w3.org/1999/xlink" width="32" height="32" viewBox="0 0 32 32"><title>ic_sidebar_vip32</title><defs><linearGradient id="b" x1="10.974%" x2="107.241%" y1="14.301%" y2="96.378%"><stop offset="0%" stop-color="#FFB24E"/><stop offset="100%" stop-color="#FF6E2E"/></linearGradient><path id="a" d="M25.639 6.849l-2.062-4.163a2.843 2.843 0 0 0-2.54-1.603H4.963c-1.072 0-2.053.62-2.54 1.603L.361 6.849c-1.144 2.703.55 5.897 3.403 6.135 1.594.137 3.135-.622 4.033-1.985a.918.918 0 0 1 .767-.42c.307 0 .595.157.767.42.798 1.208 2.143 2 3.669 2 1.526 0 2.87-.792 3.67-2a.918.918 0 0 1 .766-.42c.307 0 .595.157.767.42.898 1.363 2.44 2.122 4.033 1.985 2.853-.238 4.547-3.432 3.403-6.135zM22 14.485a6.53 6.53 0 0 1-3.905-1.287.992.992 0 0 0-1.19 0A6.532 6.532 0 0 1 13 14.485a6.53 6.53 0 0 1-3.906-1.287.992.992 0 0 0-1.19 0 6.55 6.55 0 0 1-4.683 1.24.96.96 0 0 0-.738.22.891.891 0 0 0-.316.68v5.579a4 4 0 0 0 4 4h13.666a4 4 0 0 0 4-4V15.34a.925.925 0 0 0-1.046-.902 6.738 6.738 0 0 1-.787.047z"/><linearGradient id="c" x1="50%" x2="0%" y1="60.135%" y2="68.833%"><stop offset="0%" stop-color="#FF6969"/><stop offset="100%" stop-color="#B6ECFF" stop-opacity="0"/></linearGradient><linearGradient id="e" x1="58.977%" x2="61.08%" y1="50%" y2="100%"><stop offset="0%" stop-color="#FFCA4C"/><stop offset="100%" stop-color="#B6ECFF" stop-opacity="0"/></linearGradient><linearGradient id="f" x1="35.906%" x2="35.906%" y1="0%" y2="68.762%"><stop offset="0%" stop-color="#FFF14C" stop-opacity="0"/><stop offset="100%" stop-color="#FFF14C"/></linearGradient><linearGradient id="g" x1="35.906%" x2="35.906%" y1="0%" y2="68.762%"><stop offset="0%" stop-color="#FFF14C" stop-opacity="0"/><stop offset="100%" stop-color="#FFF14C"/></linearGradient></defs><g fill="none" fill-rule="evenodd" transform="translate(3 3)"><mask id="d" fill="#fff"><use xlink:href="#a"/></mask><use fill="url(#b)" xlink:href="#a"/><path fill="url(#c)" d="M21.885 12.882l7.04 6.135C28.457 27.185 25.565 29 14 29c-4.22 0-7.285-.255-9.499-.972l17.384-15.146z" mask="url(#d)" opacity=".4"/><path fill="url(#e)" d="M24.66 3.32C28.662 4.652 29.5 7.896 29.5 15v.33c-.016 3.905-.304 6.612-1.272 8.463L26.5 25.521 14.48 13.5z" mask="url(#d)" opacity=".2"/><path fill="url(#f)" d="M21.47-8.963L-3.96 14.51C-3.509-3.603.98-8.501 21.47-8.963z" mask="url(#d)" opacity=".3"/><path fill="url(#g)" d="M41.415-18.92L-5.911 24.468c.915-33.333 9.393-42.467 47.326-43.388z" mask="url(#d)" opacity=".1"/><path fill="#FFD546" fill-rule="nonzero" d="M9.25 18h7.5a1.25 1.25 0 0 1 0 2.5h-7.5a1.25 1.25 0 0 1 0-2.5z" mask="url(#d)"/></g></svg>