<?xml version="1.0" encoding="UTF-8"?>
<svg width="20px" height="20px" viewBox="0 0 20 20" version="1.1" xmlns="http://www.w3.org/2000/svg" xmlns:xlink="http://www.w3.org/1999/xlink">
    <title>星星大</title>
    <defs>
        <linearGradient x1="0%" y1="0%" x2="100%" y2="100%" id="linearGradient-1">
            <stop stop-color="#FBF5D4" offset="0.0300480769%"></stop>
            <stop stop-color="#DDB36A" offset="100%"></stop>
        </linearGradient>
    </defs>
    <g id="我的身份-进行中.." stroke="none" stroke-width="1" fill="none" fill-rule="evenodd">
        <g id="人气等级页面-没有人气" transform="translate(-114.000000, -352.000000)" fill="url(#linearGradient-1)">
            <g id="title" transform="translate(111.000000, 348.000000)">
                <path d="M13.7673294,19.6223222 L8.4310983,22.4277449 C8.18667601,22.5562453 7.88436243,22.462272 7.75586203,22.2178497 C7.70469249,22.1205195 7.68703515,22.0090355 7.70562358,21.9006566 L8.72475304,15.9586759 C8.75257201,15.7964789 8.69879776,15.6309788 8.58095472,15.5161102 L4.26385305,11.3079761 C4.06611126,11.1152255 4.0620651,10.7986689 4.25481571,10.6009271 C4.33157001,10.5221853 4.43214122,10.4709417 4.54095973,10.4551295 L10.5070475,9.58820616 C10.6699026,9.56454193 10.8106854,9.46225724 10.8835164,9.3146855 L13.551632,3.90849288 C13.6738431,3.66086605 13.973656,3.55919655 14.2212829,3.68140769 C14.3198892,3.73007281 14.3997029,3.80988657 14.448368,3.90849288 L17.1164836,9.3146855 C17.1893146,9.46225724 17.3300974,9.56454193 17.4929525,9.58820616 L23.4590403,10.4551295 C23.7323127,10.4948383 23.9216534,10.7485597 23.8819446,11.0218321 C23.8661324,11.1306506 23.8148888,11.2312218 23.736147,11.3079761 L19.4190453,15.5161102 C19.3012022,15.6309788 19.247428,15.7964789 19.275247,15.9586759 L20.2943764,21.9006566 C20.3410569,22.1728249 20.158263,22.4313028 19.8860948,22.4779833 C19.777716,22.4965718 19.6662319,22.4789144 19.5689017,22.4277449 L14.2326706,19.6223222 C14.0870086,19.5457431 13.9129914,19.5457431 13.7673294,19.6223222 Z" id="星星大" transform="translate(14.000000, 14.000000) rotate(-15.000000) translate(-14.000000, -14.000000) "></path>
            </g>
        </g>
    </g>
</svg>