<?xml version="1.0" encoding="UTF-8"?>
<svg width="24px" height="24px" viewBox="0 0 24 24" version="1.1" xmlns="http://www.w3.org/2000/svg" xmlns:xlink="http://www.w3.org/1999/xlink">
    <title>问号</title>
    <g id="我的身份-进行中.." stroke="none" stroke-width="1" fill="none" fill-rule="evenodd">
        <g id="人气等级页面-没有人气备份" transform="translate(-331.000000, -54.000000)" fill-rule="nonzero">
            <g id="问号" transform="translate(331.000000, 54.000000)">
                <rect id="矩形" fill="#000000" opacity="0" x="0" y="0" width="24" height="24"></rect>
                <path d="M11.9844705,1.48979791 C6.18740892,1.48979791 1.48803511,6.1892197 1.48803511,11.9862333 C1.48803511,17.783247 6.1874569,22.4826687 11.9844705,22.4826687 C17.7814602,22.4826687 22.480882,17.783247 22.480882,11.9862333 C22.480882,6.1892197 17.7814841,1.48979791 11.9844705,1.48979791 Z M11.9844705,20.9750509 C7.02007638,20.9750509 2.99567693,16.9506035 2.99567693,11.9862334 C2.99567693,7.02183921 7.02005241,2.99743976 11.9844705,2.99743976 C16.9488167,2.99743976 20.9732641,7.02183921 20.9732641,11.9862334 C20.9732641,16.9506035 16.9488167,20.9750509 11.9844705,20.9750509 Z M11.7647555,6.34034126 C10.219795,6.3910189 8.59887797,7.15079977 8.06703855,9.50617083 C9.33335599,9.68348262 9.94122387,9.7594631 9.94122387,9.7594631 C9.94122387,9.7594631 10.2704966,7.73329284 12.2966189,7.96125827 C14.3227652,8.1892237 13.8669063,9.70883341 13.6642436,10.0127554 C13.461653,10.5193159 11.5874677,11.7350037 11.2835218,12.4694577 C10.9795999,13.2039357 11.0049267,14.5716085 11.0049267,14.5716085 L12.8284823,14.5716085 C12.8284823,14.5716085 12.727151,13.1279553 13.7402481,12.5201114 C14.7533212,11.9122675 16.4755456,10.1393655 15.7157647,8.44246802 C14.500053,6.49230223 13.309692,6.28968759 11.7647555,6.34034126 Z M10.9796238,15.2554088 L12.8791359,15.2554088 L12.8791359,17.331945 L10.9796238,17.331945 L10.9796238,15.2554088 L10.9796238,15.2554088 Z" id="形状" fill="#FFFFFF"></path>
            </g>
        </g>
    </g>
</svg>