<?xml version="1.0" encoding="UTF-8"?>
<svg width="11px" height="12px" viewBox="0 0 11 12" version="1.1" xmlns="http://www.w3.org/2000/svg" xmlns:xlink="http://www.w3.org/1999/xlink">
    <title>星星小</title>
    <defs>
        <linearGradient x1="0%" y1="0%" x2="100%" y2="100%" id="linearGradient-1">
            <stop stop-color="#FBF5D4" offset="0.0300480769%"></stop>
            <stop stop-color="#DDB36A" offset="100%"></stop>
        </linearGradient>
    </defs>
    <g id="我的身份-进行中.." stroke="none" stroke-width="1" fill="none" fill-rule="evenodd">
        <g id="人气等级页面-没有人气" transform="translate(-243.000000, -359.000000)" fill="url(#linearGradient-1)">
            <g id="title" transform="translate(111.000000, 348.000000)">
                <path d="M136.767329,20.1223222 L134.370025,21.3826599 C134.125602,21.5111603 133.823289,21.4171871 133.694788,21.1727648 C133.643619,21.0754345 133.625961,20.9639505 133.64455,20.8555717 L134.102394,18.1861335 C134.130213,18.0239364 134.076439,17.8584363 133.958596,17.7435678 L132.019136,15.8530611 C131.821394,15.6603105 131.817348,15.3437539 132.010098,15.1460121 C132.086853,15.0672703 132.187424,15.0160267 132.296242,15.0002144 L134.976511,14.6107486 C135.139366,14.5870844 135.280149,14.4847997 135.35298,14.337228 L136.551632,11.9084929 C136.673843,11.660866 136.973656,11.5591965 137.221283,11.6814077 C137.319889,11.7300728 137.399703,11.8098866 137.448368,11.9084929 L138.64702,14.337228 C138.719851,14.4847997 138.860634,14.5870844 139.023489,14.6107486 L141.703758,15.0002144 C141.97703,15.0399232 142.166371,15.2936447 142.126662,15.5669171 C142.11085,15.6757356 142.059606,15.7763068 141.980864,15.8530611 L140.041404,17.7435678 C139.923561,17.8584363 139.869787,18.0239364 139.897606,18.1861335 L140.35545,20.8555717 C140.402131,21.1277399 140.219337,21.3862179 139.947169,21.4328984 C139.83879,21.4514868 139.727306,21.4338294 139.629975,21.3826599 L137.232671,20.1223222 C137.087009,20.0457431 136.912991,20.0457431 136.767329,20.1223222 Z" id="星星小" transform="translate(137.000000, 17.000000) scale(-1, 1) rotate(-15.000000) translate(-137.000000, -17.000000) "></path>
            </g>
        </g>
    </g>
</svg>