<?xml version="1.0" encoding="UTF-8"?>
<svg width="24px" height="24px" viewBox="0 0 24 24" version="1.1" xmlns="http://www.w3.org/2000/svg">
    <defs>
        <linearGradient x1="4.71851594%" y1="0%" x2="91.322314%" y2="111.258519%" id="linearGradient-1">
            <stop stop-color="#FFFFFF" offset="0%"></stop>
            <stop stop-color="#FFFFFF" stop-opacity="0.8" offset="100%"></stop>
        </linearGradient>
    </defs>
    <g id="ic_invite_personal" stroke="none" stroke-width="1" fill="none" fill-rule="evenodd">
        <g fill="url(#linearGradient-1)" id="形状结合">
            <path d="M14.5,1 C15.3284271,1 16,1.67157288 16,2.5 C16,2.94888755 15.8028215,3.35172158 15.4903523,3.62661422 C19.2918106,5.04177092 22,8.7046197 22,13 C22,18.5228475 17.5228475,23 12,23 C6.4771525,23 2,18.5228475 2,13 C2,8.7046197 4.70818936,5.04177092 8.51023057,3.62579115 C8.19717854,3.35172158 8,2.94888755 8,2.5 C8,1.67157288 8.67157288,1 9.5,1 L14.5,1 Z M12,7 C11.4477153,7 11,7.44771525 11,8 L11,8 L11,13 C11,13.5522847 11.4477153,14 12,14 L12,14 L17,14 C17.5522847,14 18,13.5522847 18,13 C18,12.4477153 17.5522847,12 17,12 L17,12 L13,12 L13,8 C13,7.48716416 12.6139598,7.06449284 12.1166211,7.00672773 Z"></path>
        </g>
    </g>
</svg>