<?xml version="1.0" encoding="UTF-8"?>
<svg width="24px" height="24px" viewBox="0 0 24 24" version="1.1" xmlns="http://www.w3.org/2000/svg" xmlns:xlink="http://www.w3.org/1999/xlink">
    <title>ic_profile_edit</title>
    <defs>
        <linearGradient x1="0.377029488%" y1="0%" x2="99.6229705%" y2="107.979547%" id="linearGradient-1">
            <stop stop-color="#EA6AFF" offset="0%"></stop>
            <stop stop-color="#A281FF" offset="100%"></stop>
        </linearGradient>
    </defs>
    <g id="ic_profile_edit" stroke="none" stroke-width="1" fill="none" fill-rule="evenodd">
        <path d="M21.0543674,19 C21.8827946,19 22.5543674,19.6715729 22.5543674,20.5 C22.5543674,21.3284271 21.8827946,22 21.0543674,22 L11.0543674,22 C10.2259403,22 9.55436745,21.3284271 9.55436745,20.5 C9.55436745,19.6715729 10.2259403,19 11.0543674,19 L21.0543674,19 Z M13.5800756,6.2538364 C13.9705998,5.86331211 14.6037648,5.86331211 14.9942891,6.2538364 L14.9942891,6.2538364 L17.7461636,9.00571088 L17.7461636,9.00571088 L17.8300109,9.09995976 C18.134838,9.49240127 18.1068002,10.0595933 17.7458107,10.4195713 L17.7458107,10.4195713 L7.75346649,20.401943 C7.47197948,20.6831491 7.11301385,20.8740048 6.7224747,20.9501032 L6.7224747,20.9501032 L4.74135537,21.3361339 C4.51773596,21.3797072 4.28781242,21.3797536 4.06417546,21.3362704 C3.10342689,21.1494661 2.47602112,20.2191906 2.66282546,19.2584421 L2.66282546,19.2584421 L3.04995009,17.2674314 C3.12600842,16.8762578 3.31718879,16.5167232 3.59897033,16.2349416 L3.59897033,16.2349416 Z M17.5089571,2.32495487 C17.9422302,1.89168171 18.642133,1.89168171 19.0754062,2.32495487 L19.0754062,2.32495487 L21.6750451,4.92459381 C22.1083183,5.35786696 22.1083183,6.05776975 21.6750451,6.49104291 L21.6750451,6.49104291 L20.3491009,7.81698709 C19.9585767,8.20751139 19.3254117,8.20751139 18.9348874,7.81698709 L18.9348874,7.81698709 L16.1830129,5.06511261 C15.7924886,4.67458832 15.7924886,4.04142334 16.1830129,3.65089905 L16.1830129,3.65089905 Z" id="形状结合" fill="url(#linearGradient-1)"></path>
    </g>
</svg>