<?xml version="1.0" encoding="UTF-8"?>
<svg width="60px" height="60px" viewBox="0 0 60 60" version="1.1" xmlns="http://www.w3.org/2000/svg" xmlns:xlink="http://www.w3.org/1999/xlink">
    <title>编组 5</title>
    <g id="匹配聊天" stroke="none" stroke-width="1" fill="none" fill-rule="evenodd">
        <g id="镇楼音录制3" transform="translate(-63.000000, -655.000000)">
            <g id="编组-13" transform="translate(63.000000, 605.000000)">
                <g id="编组-5" transform="translate(0.000000, 50.000000)">
                    <circle id="椭圆形备份-2" fill="#FFFFFF" opacity="0.400000006" cx="30" cy="30" r="30"></circle>
                    <g id="编组" transform="translate(17.000000, 16.000000)">
                        <path d="M3.14757995,7.30404919 L14.2985116,7.30404919 C19.5452168,7.30404919 23.7985116,11.5573441 23.7985116,16.8040492 C23.7985116,22.0507543 19.5452168,26.3040492 14.2985116,26.3040492" id="路径" stroke="#FFFFFF" stroke-width="4" stroke-linecap="round" stroke-linejoin="round"></path>
                        <path d="M5,1 C6.1045695,1 7,1.8954305 7,3 L7,8 C7,9.1045695 6.1045695,10 5,10 C3.8954305,10 3,9.1045695 3,8 L3,3 C3,1.8954305 3.8954305,1 5,1 Z" id="矩形" fill="#FFFFFF" transform="translate(5.000000, 5.500000) rotate(-315.000000) translate(-5.000000, -5.500000) "></path>
                    </g>
                </g>
            </g>
        </g>
    </g>
</svg>