<svg xmlns="http://www.w3.org/2000/svg" xmlns:xlink="http://www.w3.org/1999/xlink" width="9" height="9" viewBox="0 0 9 9"><title>ic</title><defs><path id="a" d="M.878 6.138C.71 4.654 2 2.63 2 2.63l.225 1.097s.828-.899 1.346-1.974C3.913 1.043 3.795 0 3.795 0s.714.453 1.346 1.096c.848.862 1.29 2.234 1.29 2.234.108-.295.165-.528.17-.7.008-.228-.03-.593-.113-1.096 0 0 1.677 2.268 1.57 3.946-.116 1.824-1.265 3.412-3.747 3.302-2.483-.11-3.265-1.168-3.433-2.644z"/><linearGradient id="b" x1="50%" x2="50%" y1="0%" y2="100%"><stop offset="0%" stop-color="#FFA68E"/><stop offset="100%" stop-color="#FFF"/></linearGradient><linearGradient id="d" x1="50%" x2="50%" y1="0%" y2="100%"><stop offset="0%" stop-color="#FFA68E"/><stop offset="100%" stop-color="#FFF"/></linearGradient><linearGradient id="e" x1="50%" x2="50.913%" y1="11.655%" y2="96.417%"><stop offset="0%" stop-color="#FF5B16"/><stop offset="100%" stop-color="#F77B26"/></linearGradient></defs><g fill="none" fill-rule="evenodd"><mask id="c" fill="#fff"><use xlink:href="#a"/></mask><use fill="#FFF" xlink:href="#a"/><path fill="url(#b)" d="M6.488 1.534c.486.907.729 1.975.729 3.203 0 1.228-.429 2.4-1.285 3.513l4.136-.092L7.81 2.389l-1.323-.855z" mask="url(#c)" opacity=".659"/><path fill="#FFE3E1" d="M3.795 0c.674 2.237.947 4.009.821 5.315s-.781 2.463-1.965 3.472L0 7.192l.725-5.726L3.795 0z" mask="url(#c)"/><path fill="url(#d)" d="M2.23 2.113c-.284.391-.463 1.31-.537 2.755-.073 1.445.51 2.546 1.75 3.302-.64.772-1.19 1.05-1.649.83-.459-.22-.92-.978-1.381-2.277l.285-3.16 1.533-1.45z" mask="url(#c)" opacity=".659"/><path fill="url(#e)" d="M6.379 2.563c.157-.137.175.119.052.767-.123.649-.322 1.17-.6 1.562.241-.422.345-.943.311-1.562-.033-.619-.159-1.128-.376-1.529l.613.762z" mask="url(#c)" opacity=".245"/></g></svg>