<?xml version="1.0" encoding="UTF-8"?>
<svg width="14px" height="14px" viewBox="0 0 14 14" version="1.1" xmlns="http://www.w3.org/2000/svg" xmlns:xlink="http://www.w3.org/1999/xlink">
    <!-- Generator: Sketch 63 (92445) - https://sketch.com -->
    <title>形状结合@2x</title>
    <desc>Created with Sketch.</desc>
    <g id="形状结合" stroke="none" stroke-width="1" fill="none" fill-rule="evenodd">
        <path d="M7,0 C7.55228475,-1.01453063e-16 8,0.44771525 8,1 L8,6 L13,6 C13.5522847,6 14,6.44771525 14,7 C14,7.55228475 13.5522847,8 13,8 L8,8 L8,13 C8,13.5522847 7.55228475,14 7,14 C6.44771525,14 6,13.5522847 6,13 L6,8 L1,8 C0.44771525,8 6.76353751e-17,7.55228475 0,7 C-6.76353751e-17,6.44771525 0.44771525,6 1,6 L6,6 L6,1 C6,0.44771525 6.44771525,1.01453063e-16 7,0 Z" fill="#FFFFFF"></path>
    </g>
</svg>