<?xml version="1.0" encoding="UTF-8"?>
<svg width="32px" height="32px" viewBox="0 0 32 32" version="1.1" xmlns="http://www.w3.org/2000/svg" xmlns:xlink="http://www.w3.org/1999/xlink">
    <!-- Generator: Sketch 63 (92445) - https://sketch.com -->
    <title>形状结合备份 2@2x</title>
    <desc>Created with Sketch.</desc>
    <g id="形状结合备份-2" stroke="none" stroke-width="1" fill="none" fill-rule="evenodd" fill-opacity="0.0752840909">
        <path d="M7.11111111,7 C11.0384693,7 14.2222222,10.1837529 14.2222222,14.1111111 C14.2222222,15.6348499 13.7429752,17.0466546 12.9269915,18.2040149 L12.9318267,18.2062248 L12.8323409,18.335084 C12.7591038,18.4341168 12.6833566,18.5311808 12.6051933,18.626182 L6.91202557,25.9112188 L4.81066356,24.2694549 L7.192,21.221 L7.11111111,21.2222222 C3.26390306,21.2222222 0.130258804,18.1670924 0.00395729269,14.3506118 L0,14.1111111 C0,10.1837529 3.18375289,7 7.11111111,7 Z M24.8888889,7 C28.8162471,7 32,10.1837529 32,14.1111111 C32,15.6348499 31.520753,17.0466546 30.7047693,18.2040149 L30.7096044,18.2062248 L30.6101187,18.335084 C30.5368815,18.4341168 30.4611343,18.5311808 30.3829711,18.626182 L24.6898033,25.9112188 L22.5884413,24.2694549 L24.9697778,21.221 L24.8888889,21.2222222 C21.0416808,21.2222222 17.9080366,18.1670924 17.7817351,14.3506118 L17.7777778,14.1111111 C17.7777778,10.1837529 20.9615307,7 24.8888889,7 Z" id="形状结合" fill="#202020"></path>
    </g>
</svg>