<?xml version="1.0" encoding="UTF-8"?>
<svg width="24px" height="24px" viewBox="0 0 24 24" version="1.1" xmlns="http://www.w3.org/2000/svg" xmlns:xlink="http://www.w3.org/1999/xlink">
    <!-- Generator: Sketch 63 (92445) - https://sketch.com -->
    <title>1@3x</title>
    <desc>Created with Sketch.</desc>
    <defs>
        <linearGradient x1="100%" y1="50%" x2="0%" y2="50%" id="linearGradient-1">
            <stop stop-color="#E0ACFD" offset="0%"></stop>
            <stop stop-color="#BA97FE" offset="100%"></stop>
        </linearGradient>
    </defs>
    <g id="1" stroke="none" stroke-width="1" fill="none" fill-rule="evenodd">
        <path d="M11.8420153,3 C16.7253256,3 20.6840307,7.02943725 20.6840307,12 C20.6840307,13.5553366 20.2964244,15.0185254 19.6141697,16.2949475 L20.6106271,18.209085 C20.7524434,18.4813922 20.826492,18.7838862 20.826492,19.0909091 C20.826492,20.0950632 20.0512275,20.9181445 19.0665954,20.9942563 L18.9174011,21 L11.3649169,21 L11.383266,20.9880955 C6.71316915,20.7451422 3,16.8139475 3,12 C3,7.02943725 6.95870511,3 11.8420153,3 Z M7.01909788,8.72727273 C6.13122329,8.72727273 5.41145873,9.45989768 5.41145873,10.3636364 C5.41145873,11.267375 6.13122329,12 7.01909788,12 C7.90697246,12 8.62673703,11.267375 8.62673703,10.3636364 C8.62673703,9.45989768 7.90697246,8.72727273 7.01909788,8.72727273 Z M11.8420153,8.72727273 C10.9541407,8.72727273 10.2343762,9.45989768 10.2343762,10.3636364 C10.2343762,11.267375 10.9541407,12 11.8420153,12 C12.7298899,12 13.4496545,11.267375 13.4496545,10.3636364 C13.4496545,9.45989768 12.7298899,8.72727273 11.8420153,8.72727273 Z" fill="url(#linearGradient-1)"></path>
    </g>
</svg>