<svg xmlns="http://www.w3.org/2000/svg" xmlns:xlink="http://www.w3.org/1999/xlink" width="21" height="16" viewBox="0 0 21 16"><title>ic_crown1</title><defs><path id="a" d="M1.905.242l8.398 4.617L18.695.242c.558-.306 1.258-.103 1.565.455.108.196.156.42.14.642l-.704 9.27c-.091 1.203-1.093 2.131-2.298 2.131H3.202c-1.205 0-2.207-.928-2.298-2.13L.201 1.339C.153.704.628.15 1.263.103c.223-.017.446.031.642.139z"/></defs><g fill="none" fill-rule="evenodd"><path fill="#FFBF00" d="M11.276.969l5.472 8.707H3.852L9.325.969c.338-.539 1.05-.701 1.588-.363.147.093.27.216.363.363z"/><g transform="translate(0 3.216)"><mask id="b" fill="#fff"><use xlink:href="#a"/></mask><use fill="#FFBF00" xlink:href="#a"/><path fill="#FFE240" d="M24.118-3.8L.168 11.123v3.731l20.265-1.866z" mask="url(#b)"/></g><text fill="#DD3B05" font-family="NunitoSans-SemiBold, Nunito Sans" font-size="10" font-weight="500"><tspan x="7" y="13">1</tspan></text></g></svg>