<svg xmlns="http://www.w3.org/2000/svg" width="83" height="84" viewBox="0 0 83 84"><title>decro</title><g fill="#313131" fill-opacity=".04" fill-rule="nonzero"><path d="M17.857 16c-1.143-.571-2.857-.571-4 0-1.143 1.143-1.143 2.857 0 4l4 4c1.143 1.143 2.857 1.143 4 0 1.143-1.143 1.143-2.857 0-4l-4-4zm50.286 0l-4 4c-1.143 1.143-1.143 2.857 0 4 1.143 1.143 2.857 1.143 4 0l4-4c1.143-1.143 1.143-2.857 0-4-1.143-.571-2.857-.571-4 0zM11 37.143H5.857C4.143 37.143 3 38.286 3 40c0 1.714 1.143 2.857 2.857 2.857H11c1.714 0 2.857-1.143 2.857-2.857 0-1.714-1.143-2.857-2.857-2.857zm69.143 0H75c-1.714 0-2.857 1.143-2.857 2.857 0 1.714 1.143 2.857 2.857 2.857h5.143C81.857 42.857 83 41.714 83 40c0-1.714-1.143-2.857-2.857-2.857zm-40-30.286V12c0 1.714 1.143 2.857 2.857 2.857 1.714 0 2.857-1.143 2.857-2.857V6.857C45.857 5.143 44.714 4 43 4c-1.714 0-2.857 1.143-2.857 2.857zM24.143 44c0-10.286 8.571-18.857 18.857-18.857S61.857 33.714 61.857 44 53.286 62.857 43 62.857 24.143 54.286 24.143 44zM19 44c0 13.143 10.857 24 24 24s24-10.857 24-24-10.857-24-24-24-24 10.857-24 24zm18.857 37.143C37.857 82.857 39 84 40.714 84h5.143c1.714 0 2.857-1.143 2.857-2.857 0-1.714-1.143-2.857-2.857-2.857h-5.714C39 78.857 37.857 80 37.857 81.143zm-5.714-8C32.143 74.857 33.286 76 35 76h16c1.714 0 2.857-1.143 2.857-2.857 0-1.714-1.143-2.857-2.857-2.857H35c-1.714.571-2.857 1.714-2.857 2.857z"/><path d="M45 29.75a2.25 2.25 0 1 1 0 4.5c-6.49 0-11.75 5.26-11.75 11.75a2.25 2.25 0 1 1-4.5 0c0-8.975 7.275-16.25 16.25-16.25z"/></g></svg>