<svg xmlns="http://www.w3.org/2000/svg" width="12" height="12" viewBox="0 0 12 12"><title>🔥</title><defs><linearGradient id="a" x1="50%" x2="50%" y1="0%" y2="100%"><stop offset="0%" stop-color="#FFAE11"/><stop offset="100%" stop-color="#FD7607"/></linearGradient></defs><path fill="url(#a)" fill-rule="nonzero" d="M6.468.875C6.403.15 7.319-.293 7.874.225c.52.478.992 1.017 1.411 1.61C10.396 3.416 11 5.26 11 7.185 11 9.846 8.76 12 6 12S1 9.847 1 7.184c0-1.425.39-2.796 1.11-3.983.09-.157.189-.31.305-.477.404-.599 1.317-.411 1.498.251.018.064.029.097.049.142l.102.21c.252.457.73.744 1.286.744.79 0 1.339-.598 1.339-1.446 0-.39-.053-.848-.145-1.343l-.06-.301-.016-.106z"/></svg>