<?xml version="1.0" encoding="UTF-8"?>
<svg width="9px" height="10px" viewBox="0 0 9 10" version="1.1" xmlns="http://www.w3.org/2000/svg" xmlns:xlink="http://www.w3.org/1999/xlink">
    <title>形状结合</title>
    <g id="开黑车队房间" stroke="none" stroke-width="1" fill="none" fill-rule="evenodd">
        <g id="交友厅-没有车队" transform="translate(-264.000000, -375.000000)" fill="#FFFFFF">
            <g id="编组-6" transform="translate(16.000000, 370.000000)">
                <g id="编组-5" transform="translate(248.000000, 2.000000)">
                    <path d="M4.5,3 C6.15685425,3 7.5,4.27918643 7.5,5.85714286 C7.5,6.66631516 7.14680452,7.39692248 6.57922902,7.91675961 C6.58132047,7.91656479 6.58397709,7.91709108 6.58663346,7.91761839 C7.98943894,8.1960799 9,9.42696663 9,10.8571429 L9,11 C9,12.1045695 8.1045695,13 7,13 L2,13 C0.8954305,13 1.3527075e-16,12.1045695 0,11 L0,10.8571429 C2.69124949e-16,9.42845125 1.00902305,8.19862988 2.41019276,7.91955432 L2.42175943,7.91766451 C1.85360558,7.39777052 1.5,6.66678479 1.5,5.85714286 C1.5,4.27918643 2.84314575,3 4.5,3 Z" id="形状结合"></path>
                </g>
            </g>
        </g>
    </g>
</svg>