<svg xmlns="http://www.w3.org/2000/svg" width="10" height="10" viewBox="0 0 10 10"><title>路径</title><defs><linearGradient id="a" x1="0%" x2="100%" y1="50%" y2="50%"><stop offset="0%" stop-color="#C5A9FF"/><stop offset="100%" stop-color="#9C76F9"/></linearGradient></defs><path fill="url(#a)" fill-rule="evenodd" d="M10 5.263v3.684c0 .28-.105.547-.293.745A.975.975 0 0 1 9 10H8c-.552 0-1-.471-1-1.053V6.316c0-.28.105-.547.293-.745A.975.975 0 0 1 8 5.263h1c0-2.325-1.79-4.21-4-4.21s-4 1.885-4 4.21h1c.552 0 1 .471 1 1.053v2.631C3 9.53 2.552 10 2 10H1a.975.975 0 0 1-.707-.308A1.081 1.081 0 0 1 0 8.947V5.263C0 2.356 2.239 0 5 0s5 2.356 5 5.263z"/></svg>