<?xml version="1.0" encoding="UTF-8"?>
<svg width="24px" height="24px" viewBox="0 0 24 24" version="1.1" xmlns="http://www.w3.org/2000/svg" xmlns:xlink="http://www.w3.org/1999/xlink">
    <!-- Generator: Sketch 63 (92445) - https://sketch.com -->
    <title>蒙版@3x</title>
    <desc>Created with Sketch.</desc>
    <g id="蒙版" stroke="none" stroke-width="1" fill="none" fill-rule="evenodd" opacity="0.400000006">
        <path d="M17.46875,17.4667969 C17.8671875,17.0683594 17.8671875,16.3964844 17.4765625,16.0058594 L13.859375,12.3886719 L17.4765625,8.76367188 C17.8671875,8.37304688 17.8671875,7.70117188 17.46875,7.30273438 C17.0703125,6.89648438 16.3984375,6.90429688 16.0078125,7.29492188 L12.3828125,10.9121094 L8.7578125,7.28710938 C8.3828125,6.91210938 7.6953125,6.89648438 7.296875,7.29492188 C6.8984375,7.69335938 6.90625,8.38085938 7.2890625,8.76367188 L10.9140625,12.3886719 L7.2890625,16.0136719 C6.90625,16.3886719 6.8984375,17.0761719 7.296875,17.4746094 C7.6953125,17.8730469 8.3828125,17.8574219 8.7578125,17.4824219 L12.3828125,13.8574219 L16.0078125,17.4746094 C16.3984375,17.8652344 17.0703125,17.8730469 17.46875,17.4667969 Z" fill="#FFFFFF" fill-rule="nonzero"></path>
    </g>
</svg>