<?xml version="1.0" encoding="UTF-8"?>
<svg width="24px" height="24px" viewBox="0 0 24 24" version="1.1" xmlns="http://www.w3.org/2000/svg" xmlns:xlink="http://www.w3.org/1999/xlink">
    <!-- Generator: Sketch 63 (92445) - https://sketch.com -->
    <title>横屏备份 2@3x</title>
    <desc>Created with Sketch.</desc>
    <g id="横屏备份-2" stroke="none" stroke-width="1" fill="none" fill-rule="evenodd">
        <path d="M8.75,4.5 C9.71649831,4.5 10.5,5.28350169 10.5,6.25 L10.5,17.75 C10.5,18.7164983 9.71649831,19.5 8.75,19.5 C7.78350169,19.5 7,18.7164983 7,17.75 L7,6.25 C7,5.28350169 7.78350169,4.5 8.75,4.5 Z" id="矩形" fill="#FFFFFF"></path>
        <path d="M16.25,4.5 C17.2164983,4.5 18,5.28350169 18,6.25 L18,17.75 C18,18.7164983 17.2164983,19.5 16.25,19.5 C15.2835017,19.5 14.5,18.7164983 14.5,17.75 L14.5,6.25 C14.5,5.28350169 15.2835017,4.5 16.25,4.5 Z" id="矩形备份" fill="#FFFFFF"></path>
    </g>
</svg>