<?xml version="1.0" encoding="UTF-8"?>
<svg width="24px" height="24px" viewBox="0 0 24 24" version="1.1" xmlns="http://www.w3.org/2000/svg" xmlns:xlink="http://www.w3.org/1999/xlink">
    <!-- Generator: Sketch 63 (92445) - https://sketch.com -->
    <title>横屏备份 4@3x</title>
    <desc>Created with Sketch.</desc>
    <g id="横屏备份-4" stroke="none" stroke-width="1" fill="none" fill-rule="evenodd">
        <path d="M3.85961379,6.63939352 L11.264134,5.44230673 C12.3545453,5.26602022 13.3814068,6.0070648 13.5576933,7.09747612 C13.5918741,7.30890017 13.5918741,7.52444199 13.5576933,7.73586603 L12.3606065,15.1403862 C12.18432,16.2307975 11.1574585,16.9718421 10.0670472,16.7955556 C9.65226313,16.7284976 9.26913342,16.5325097 8.97202857,16.2354048 L2.76459518,10.0279714 C1.9835466,9.24692285 1.9835466,7.98059289 2.76459518,7.19954431 C3.06170003,6.90243946 3.44482974,6.70645155 3.85961379,6.63939352 Z" id="矩形" stroke="#FFFFFF" stroke-width="3" transform="translate(7.000000, 12.000000) rotate(45.000000) translate(-7.000000, -12.000000) "></path>
        <path d="M17.25,4.5 C18.2164983,4.5 19,5.28350169 19,6.25 L19,17.75 C19,18.7164983 18.2164983,19.5 17.25,19.5 C16.2835017,19.5 15.5,18.7164983 15.5,17.75 L15.5,6.25 C15.5,5.28350169 16.2835017,4.5 17.25,4.5 Z" id="矩形备份" fill="#FFFFFF"></path>
    </g>
</svg>