<?xml version="1.0" encoding="UTF-8"?>
<svg width="16px" height="16px" viewBox="0 0 16 16" version="1.1" xmlns="http://www.w3.org/2000/svg" xmlns:xlink="http://www.w3.org/1999/xlink">
    <!-- Generator: Sketch 63 (92445) - https://sketch.com -->
    <title>ic_shezhi备份 2@3x</title>
    <desc>Created with Sketch.</desc>
    <g id="ic_shezhi备份-2" stroke="none" stroke-width="1" fill="none" fill-rule="evenodd" opacity="0.600000024">
        <path d="M3.36905484,11.4362061 C3.83315646,11.1682569 4.40495325,11.1682569 4.86905488,11.4362061 C5.10594729,11.572976 5.29641043,11.7689516 5.42612211,11.999326 L14.4473684,12 C15.1491228,12 15.5,12.25 15.5,12.75 C15.5,13.25 15.1491228,13.5 14.4473684,13.5 L5.40936808,13.5006143 C5.14789455,13.9404756 4.66789815,14.2352442 4.11905486,14.2352442 C3.57021156,14.2352442 3.09021517,13.9404756 2.82874163,13.5006143 L1.55263158,13.5 C0.850877193,13.5 0.5,13.25 0.5,12.75 C0.5,12.25 0.850877193,12 1.55263158,12 L2.81198761,11.999326 C2.94169928,11.7689516 3.13216243,11.572976 3.36905484,11.4362061 Z M11.1190548,6.23524417 C11.6798743,6.23524417 12.1688096,6.54301739 12.4261711,6.99887431 L14.4473684,7 C15.1491228,7 15.5,7.25 15.5,7.75 C15.5,8.25 15.1491228,8.5 14.4473684,8.5 L12.409368,8.50061426 C12.1478945,8.94047554 11.6678981,9.23524417 11.1190548,9.23524417 C10.5702115,9.23524417 10.0902151,8.94047554 9.82874155,8.50061426 L1.55263158,8.5 C0.850877193,8.5 0.5,8.25 0.5,7.75 C0.5,7.25 0.850877193,7 1.55263158,7 L9.81193848,6.99887431 C10.0692999,6.54301739 10.5582352,6.23524417 11.1190548,6.23524417 Z M4.11905478,1.23524417 C4.67987434,1.23524417 5.16880961,1.54301739 5.42617108,1.99887431 L14.4473684,2 C15.1491228,2 15.5,2.25 15.5,2.75 C15.5,3.25 15.1491228,3.5 14.4473684,3.5 L5.409368,3.50061426 C5.14789447,3.94047554 4.66789807,4.23524417 4.11905478,4.23524417 C3.57021148,4.23524417 3.09021509,3.94047554 2.82874155,3.50061426 L1.55263158,3.5 C0.850877193,3.5 0.5,3.25 0.5,2.75 C0.5,2.25 0.850877193,2 1.55263158,2 L2.81193848,1.99887431 C3.06929995,1.54301739 3.55823522,1.23524417 4.11905478,1.23524417 Z" id="形状结合" fill="#FFFFFF"></path>
    </g>
</svg>