<?xml version="1.0" encoding="UTF-8"?>
<svg width="32px" height="32px" viewBox="0 0 32 32" version="1.1" xmlns="http://www.w3.org/2000/svg" xmlns:xlink="http://www.w3.org/1999/xlink">
    <title>路径备份 4@2x</title>
    <g id="精品本" stroke="none" stroke-width="1" fill="none" fill-rule="evenodd">
        <g id="真相详解-已评分" transform="translate(-260.000000, -116.000000)" fill-rule="nonzero" stroke="#FFCA66" stroke-width="2">
            <g id="编组-14" transform="translate(84.000000, 116.000000)">
                <g id="编组-15">
                    <g id="路径备份-2" transform="translate(176.000000, 0.000000)">
                        <path d="M15.9445284,1.01718102 C15.9284338,1.02819758 15.9156084,1.04397943 15.9082226,1.06298959 L11.8340453,11.5506666 L1.09096519,12.3837213 C1.07130494,12.3852458 1.05305539,12.3925815 1.03814539,12.4041992 C1.02315295,12.4158812 1.01153639,12.4318878 1.00521345,12.4506815 C0.998876593,12.4695165 0.998479464,12.4893337 1.00337057,12.5077421 C1.00825733,12.5261341 1.0184242,12.5431279 1.0332601,12.55632 L9.26214527,19.8726026 L6.69450223,30.8786128 C6.6899015,30.8983325 6.69151915,30.918451 6.69843264,30.9365464 C6.70531809,30.9545684 6.71746055,30.9705877 6.73396369,30.98216 C6.75041164,30.9936942 6.76951549,30.9996577 6.78872138,30.9999854 C6.80789432,31.0003126 6.82715962,30.9950215 6.84394541,30.9840837 L15.9999985,25.0191814 L25.1560155,30.9840279 C25.1723108,30.994643 25.190959,31 25.2096098,31 C25.2293493,31 25.2490733,30.9940547 25.26596,30.9822096 C25.282586,30.970551 25.2947285,30.9545317 25.3016139,30.9365097 C25.3085274,30.9184143 25.3101451,30.8982959 25.3055467,30.8785862 L22.7379013,19.872527 L30.9667947,12.55628 C30.9816036,12.5431134 30.9917492,12.5261467 30.9966274,12.5077866 C31.001529,12.4893388 31.0011194,12.4694803 30.9947713,12.4506068 C30.9884735,12.4318878 30.9768569,12.4158812 30.9618645,12.4041992 C30.9469545,12.3925814 30.9287049,12.3852458 30.9090436,12.3837211 L20.166042,11.5506666 L16.0917754,1.06295905 C16.0843874,1.04393911 16.0715756,1.02818858 16.0555073,1.01719017 C16.0395065,1.00623799 16.0202754,1 15.9445284,1.01718102 Z" id="路径"></path>
                    </g>
                </g>
            </g>
        </g>
    </g>
</svg>