<?xml version="1.0" encoding="UTF-8"?>
<svg width="32px" height="32px" viewBox="0 0 32 32" version="1.1" xmlns="http://www.w3.org/2000/svg" xmlns:xlink="http://www.w3.org/1999/xlink">
    <title>路径备份 3@2x</title>
    <defs>
        <linearGradient x1="50%" y1="0%" x2="50%" y2="100%" id="linearGradient-1">
            <stop stop-color="#FFE79F" offset="0%"></stop>
            <stop stop-color="#FFCA66" offset="100%"></stop>
        </linearGradient>
    </defs>
    <g id="精品本" stroke="none" stroke-width="1" fill="none" fill-rule="evenodd">
        <g id="真相详解-已评分" transform="translate(-216.000000, -116.000000)" fill="url(#linearGradient-1)" fill-rule="nonzero">
            <g id="编组-14" transform="translate(84.000000, 116.000000)">
                <g id="编组-15">
                    <g id="路径" transform="translate(132.000000, 0.000000)">
                        <path d="M31.9425926,12.1318048 C31.802059,11.714097 31.4256426,11.4207784 30.9863559,11.3867142 L20.8704225,10.602285 L17.0239087,0.700843729 C16.8597941,0.278337597 16.4531326,0 16,0 C15.5468773,0 15.1402524,0.278337597 14.9761012,0.700843729 L11.1296605,10.602285 L1.0136539,11.3867143 C0.574367237,11.4207785 0.197950866,11.714097 0.0574172151,12.1318048 C-0.0831164353,12.5495127 0.0394751915,13.0108081 0.368766288,13.3036138 L8.15315186,20.2246928 L5.72065268,30.6514189 C5.6187127,31.0883566 5.79256723,31.5433885 6.15982953,31.8009213 C6.52712839,32.0584907 7.01405299,32.0668053 7.3898835,31.8219092 L16,26.2126687 L24.6101631,31.8219092 C24.7926225,31.9407677 25.001226,32 25.2096098,32 C25.4305164,32 25.65124,31.933442 25.8402171,31.8008846 C26.2074793,31.5433518 26.3813339,31.0883199 26.2793939,30.6513823 L23.8468947,20.2246195 L31.6312436,13.3036138 C31.9605713,13.010808 32.0830897,12.5495126 31.9425926,12.1318048 Z"></path>
                    </g>
                </g>
            </g>
        </g>
    </g>
</svg>