<svg xmlns="http://www.w3.org/2000/svg" width="24" height="24" viewBox="0 0 24 24"><title>ic_titlebar_question</title><g fill="none" fill-rule="evenodd"><circle cx="12" cy="12" r="9" stroke="#202020" stroke-width="2"/><path fill="#202020" fill-rule="nonzero" d="M12.026 16c.347 0 .643.099.874.33.23.214.346.494.346.84s-.115.627-.346.857c-.247.215-.544.33-.874.33-.346 0-.626-.115-.84-.346-.248-.23-.363-.511-.363-.84 0-.297.085-.546.265-.745l.098-.096c.214-.231.494-.33.84-.33z"/><path stroke="#202020" stroke-linecap="round" stroke-linejoin="round" stroke-width="2" d="M12 14.587c.017-1.057.66-2.003 1.635-2.41C14.545 11.8 15 11.074 15 10c0-1.657-1.343-3-3-3s-3 1.343-3 3"/></g></svg>