<svg xmlns="http://www.w3.org/2000/svg" width="24" height="24" viewBox="0 0 24 24"><title>ic_titlebar_shot</title><g fill="none" fill-rule="evenodd" stroke="#242528" stroke-linecap="round" stroke-width="2"><path stroke-linejoin="round" d="M7 20h12.5c1.38 0 2.5-1.12 2.5-2.5v-9C22 7.12 20.88 6 19.5 6H17h0l-1.703-2.555C15.11 3.167 14.799 3 14.465 3h-4.93c-.334 0-.646.167-.832.445L7 6h0-2.5C3.12 6 2 7.12 2 8.5v9C2 18.88 3.12 20 4.5 20H7z"/><path d="M12 16.5c2.21 0 4-1.79 4-4s-1.79-4-4-4-4 1.79-4 4c0 1.049.403 2.003 1.064 2.716"/></g></svg>