<svg xmlns="http://www.w3.org/2000/svg" width="40" height="40" viewBox="0 0 40 40"><title>icon/聊天_语音通话</title><path fill="#626262" fill-rule="evenodd" d="M23.27 24.738l-1.187.889s-1.188.563-2.618-.726c-1.426-1.292-3.96-4.245-4.675-5.937-.714-1.695.715-2.421.715-2.421s1.861-1.574 1.938-1.855c.08-.282 1.111-1.414-1.107-4.439-2.219-3.028-2.734-2.421-3.922-1.492-1.188.926-2.856 2.743-3.21 4.845-.357 2.1-.592 4.683 2.418 9.285 3.01 4.6 7.566 8.114 10.1 8.677 2.54.563 4.32.926 6.852-1.17 2.537-2.099 2.974-2.3 1.822-3.794-1.14-1.499-3.667-3.288-4.047-3.363-.377-.078-.921-.207-1.774.438-.853.641-1.304 1.063-1.304 1.063"/></svg>