<svg xmlns="http://www.w3.org/2000/svg" width="28" height="28" viewBox="0 0 28 28"><title>ic_addcircle备份@2x</title><g fill="none" fill-rule="evenodd" transform="translate(2 2)"><circle cx="12" cy="12" r="10.5" stroke="#2ECEFE" stroke-width="3"/><path fill="#2ECEFE" d="M15.89 8.11a1.5 1.5 0 0 1 0 2.122L14.12 12l1.768 1.768a1.5 1.5 0 0 1-2.121 2.121L12 14.121l-1.768 1.768a1.5 1.5 0 0 1-2.121-2.121L9.879 12 8.11 10.232a1.5 1.5 0 0 1 2.121-2.121L12 9.879l1.768-1.768a1.5 1.5 0 0 1 2.121 0z"/></g></svg>