<svg xmlns="http://www.w3.org/2000/svg" width="40" height="40" viewBox="0 0 40 40"><title>icon/聊天_真心话</title><path fill="#626262" fill-rule="nonzero" d="M22.601 19.324l1.63 3.178a1 1 0 0 0 .765.535l.124.008h6.557c-2.455 4.545-7.773 8.584-11.194 10.823A.885.885 0 0 1 20 34l-.131-.008a.826.826 0 0 1-.352-.124c-3.426-2.242-8.754-6.263-11.203-10.823H12a1 1 0 0 0 .467-.116l.105-.064 2.069-1.442 3.372 4.596a1 1 0 0 0 1.664-.077l.057-.111 2.867-6.507zM25.621 10C29.312 10 33 12.989 33 18.352c0 .903-.162 1.804-.453 2.692h-6.816l-2.31-4.5a1 1 0 0 0-1.746-.063l-.06.116-3.013 6.843-2.926-3.987a1 1 0 0 0-1.272-.293l-.106.065-2.611 1.819H7.448A8.71 8.71 0 0 1 7 18.353C7 12.989 10.69 10 14.378 10c2.065 0 4.173.967 5.622 2.989l.185-.247C21.625 10.888 23.643 10 25.622 10z"/></svg>