<?xml version="1.0" encoding="UTF-8"?>
<svg width="38px" height="26px" viewBox="0 0 38 26" version="1.1" xmlns="http://www.w3.org/2000/svg" xmlns:xlink="http://www.w3.org/1999/xlink">
    <!-- Generator: Sketch 63.1 (92452) - https://sketch.com -->
    <title>筛选</title>
    <desc>Created with Sketch.</desc>
    <g id="页面-" stroke="none" stroke-width="1" fill="none" fill-rule="evenodd">
        <g id="匹配聊天-筛选" transform="translate(-169.000000, -132.000000)" fill="#B3B3B3">
            <g id="筛选" transform="translate(0.000000, 92.000000)">
                <g id="不限" transform="translate(169.000000, 40.000000)">
                    <path d="M32.2863802,5.6365169 C31.210643,4.58129109 29.7883408,4 28.2818424,4 C26.7335289,4 25.2836292,4.60861693 24.1994927,5.7137175 C23.1300493,6.80385337 22.5487583,8.24580664 22.5634286,9.773156 C22.5749295,10.9888957 22.9639662,12.1422636 23.6716308,13.1021319 L22.3386413,14.4604097 L19.5643325,11.738466 C19.3314628,11.5052568 18.99135,11.4149705 18.6736051,11.5022457 C18.3557695,11.589453 18.1093841,11.8406153 18.028199,12.1600356 C17.9471044,12.4794559 18.0437749,12.8178254 18.2813988,13.0460766 L21.0557077,15.7680204 L19.1676889,17.6923755 C18.8218257,18.0548787 18.831289,18.6279291 19.1889247,18.978773 C19.5465378,19.3296848 20.1197013,19.3281679 20.4754807,18.9754902 L22.3634768,17.0512257 L25.1376951,19.7731694 C25.3088269,19.9414712 25.5392062,20.0356515 25.7792072,20.0353128 C26.1512643,20.0353128 26.4864417,19.8101397 26.6271234,19.4657707 C26.7679182,19.1213111 26.6863029,18.7259353 26.4206287,18.4654003 L23.6464104,15.7435245 L24.9778152,14.3862202 C25.9377741,15.0679626 27.0823126,15.4370992 28.2811406,15.4370992 C29.8294767,15.4370992 31.2793764,14.8286634 32.3634902,13.7234043 C33.4331147,12.6330873 34.0142247,11.1913152 33.9997354,9.66403375 C33.9853141,8.13648063 33.3766972,6.70623197 32.2863802,5.6365169 Z M31.0559022,12.4403802 C30.3189648,13.1914673 29.3337855,13.6049773 28.2813217,13.6049773 C27.2572252,13.6049773 26.2905423,13.2100317 25.559627,12.4925641 C24.8184559,11.7657012 24.4049233,10.7936981 24.3952789,9.75547458 C24.3852949,8.71725101 24.7801499,7.73755049 25.5072845,6.99647 C26.2441088,6.24538287 27.2293786,5.8318729 28.2818424,5.8318729 C29.3056672,5.8318729 30.2722595,6.22690906 31.0035371,6.94428602 C31.7444591,7.67114892 32.1578785,8.6433105 32.1678852,9.68137558 C32.1777786,10.7195991 31.7830142,11.699277 31.0559022,12.4403802 Z" id="nv-2备份" transform="translate(26.000000, 12.017657) rotate(-45.000000) translate(-26.000000, -12.017657) "></path>
                    <path d="M20,6.84849631 L20,6.84753878 C20,6.83248834 19.998355,6.81770797 19.9974957,6.80265753 C19.9967346,6.78932573 19.9966364,6.77579752 19.9953842,6.76266214 C19.9936656,6.74702245 19.990793,6.73216842 19.9882886,6.71682335 C19.9868646,6.70788639 19.9858089,6.69877756 19.9841639,6.68966872 L19.9833046,6.68392353 L19.9822488,6.6783502 C19.9791798,6.66273506 19.9744904,6.64785648 19.970562,6.63251141 C19.9673948,6.62062819 19.9647923,6.60835214 19.9612568,6.59673899 C19.9561745,6.58073102 19.94984,6.56499312 19.9438002,6.54918156 L19.9384233,6.53430298 L19.9351579,6.52539057 L19.9326781,6.51895791 C19.9256562,6.50265531 19.9177013,6.48701562 19.9097464,6.47130227 C19.9053271,6.4623653 19.9014969,6.45325647 19.8967093,6.44463868 C19.8881651,6.42890078 19.8785653,6.41414496 19.8691864,6.39906997 C19.8663874,6.39467514 19.8639077,6.38996114 19.8611333,6.38583638 C19.8593901,6.38335662 19.8581379,6.38065589 19.8564193,6.37807792 L19.8541114,6.37461607 C19.8442414,6.35986025 19.8333157,6.34623383 19.8224637,6.33233734 C19.8165221,6.32475074 19.8111452,6.31659944 19.8050072,6.30911104 C19.7940815,6.29607387 19.7821982,6.28369961 19.7705851,6.27122714 C19.7635877,6.26366509 19.7572533,6.25588207 19.7501577,6.24878651 L19.7488074,6.24753436 L19.7485373,6.24706787 L19.7471869,6.24591392 C19.736826,6.23555293 19.7256056,6.22624768 19.7143853,6.21627952 C19.7059394,6.20888934 19.6981809,6.20093445 19.6893422,6.19374069 C19.6776554,6.18406716 19.6647901,6.17542481 19.652514,6.16621777 C19.6429387,6.15912221 19.6337316,6.15153561 19.6239354,6.1449311 C19.6217502,6.14367894 19.6195405,6.14232857 19.617429,6.14090455 L19.6069698,6.13486473 C19.5995797,6.13005252 19.5920913,6.12555948 19.5845292,6.12123831 C19.5742664,6.11500208 19.5643965,6.10829935 19.5537409,6.1024314 C19.5404091,6.09523763 19.5263162,6.08929602 19.5125915,6.08278971 C19.5014694,6.07751101 19.4907402,6.0715694 19.4793234,6.06685539 C19.4763526,6.06543137 19.472989,6.06444928 19.4697236,6.06331989 C19.4659916,6.0617731 19.4620633,6.06061916 19.4583068,6.05890051 L19.4383705,6.05170674 C19.4259963,6.04728736 19.4139166,6.04210687 19.4011495,6.03808032 C19.3885052,6.0343484 19.3754435,6.03167222 19.3626027,6.02840679 C19.3482152,6.02455211 19.3342205,6.02015728 19.3195383,6.01735834 C19.3165675,6.01659723 19.3134985,6.01659723 19.3105277,6.01603253 L19.3020818,6.01458395 C19.2917208,6.01266889 19.2810897,6.01131852 19.2703359,6.00999271 C19.2585509,6.00807764 19.2470359,6.00567154 19.2352264,6.00441938 C19.2063777,6.00144857 19.177308,6 19.1482383,6 L19.1452675,6 L12.4066712,6.02428204 C11.9363511,6.02514136 11.5557934,6.4069512 11.5566527,6.87727138 C11.557512,7.34749336 11.9393219,7.72805104 12.4096421,7.72719172 L12.4126374,7.72719172 L17.0955592,7.71022621 L14.0164793,10.8115503 C12.9614998,9.98301488 11.6364471,9.48632573 10.2030213,9.48632573 L10.1201579,9.48679222 C6.70071217,9.53177168 3.95556548,12.3502801 4.00054495,15.7693576 C4.04495971,19.1441185 6.82597702,21.8895353 10.2000505,21.8895353 L10.2829139,21.8889706 C11.9393219,21.8672911 13.488118,21.2018062 14.6439821,20.0151291 C15.8000427,18.8284766 16.4244028,17.2626168 16.4025269,15.6066016 C16.3852667,14.2742569 15.9399652,13.0411027 15.201315,12.035031 L18.2970658,8.91701144 L18.2970658,13.5896705 C18.2970658,14.0600152 18.6783109,14.4411376 19.1485329,14.4411376 C19.6188531,14.4411376 20,14.0600152 20,13.5896705 L20,6.84849631 Z M13.2208192,18.6289907 C12.4352499,19.4355766 11.3825783,19.8877773 10.2568395,19.9026313 L10.2000505,19.902926 C7.90722732,19.902926 6.01718147,18.0369657 5.98698238,15.7433569 C5.95648866,13.4194507 7.82235068,11.5039934 10.1462568,11.4734015 L10.2030213,11.4732051 C12.4960655,11.4732051 14.386185,13.3390671 14.4159176,15.6329706 C14.4308944,16.7584392 14.006413,17.8225276 13.2208192,18.6289907 Z" id="Fill-1备份" transform="translate(12.000000, 13.944768) scale(1, -1) rotate(135.000000) translate(-12.000000, -13.944768) "></path>
                </g>
            </g>
        </g>
    </g>
</svg>