<svg xmlns="http://www.w3.org/2000/svg" width="28" height="28" viewBox="0 0 28 28"><title>ic_gamechat@2x</title><g fill="none" fill-rule="evenodd" transform="translate(2 2)"><path stroke="#ADADAD" stroke-width="3" d="M8.5 5h7a8.5 8.5 0 1 1 0 17h-7a8.5 8.5 0 1 1 0-17z"/><path fill="#ADADAD" d="M12 0a1.5 1.5 0 011.5 1.5V5h-3V1.5A1.5 1.5 0 0112 0zM8 10a1.5 1.5 0 011.5 1.5v.5h.5a1.5 1.5 0 010 3h-.5v.5a1.5 1.5 0 01-3 0V15H6a1.5 1.5 0 010-3h.5v-.5A1.5 1.5 0 018 10z"/><circle cx="16.5" cy="13.5" r="2.5" fill="#ADADAD"/></g></svg>