<?xml version="1.0" encoding="UTF-8"?>
<svg width="40px" height="40px" viewBox="0 0 40 40" version="1.1" xmlns="http://www.w3.org/2000/svg" xmlns:xlink="http://www.w3.org/1999/xlink">
    <title>icon/能力</title>
    <g id="icon/能力" stroke="none" stroke-width="1" fill="none" fill-rule="evenodd">
        <g id="商店" transform="translate(8.000000, 9.000000)" fill="#626262" fill-rule="nonzero">
            <path d="M7.36371835,11.0649055 C7.68160808,10.8183965 8.1283991,10.8183965 8.44628883,11.0649055 C9.46373942,11.8438614 10.7137297,12.2662912 12,12.2658696 C13.2861019,12.2660688 14.5358858,11.8436578 15.5532826,11.0649055 C15.8711723,10.8183965 16.3179633,10.8183965 16.6358531,11.0649055 C17.6533037,11.8438614 18.903294,12.2662912 20.1895642,12.2658696 C20.4289599,12.265508 20.668113,12.2507747 20.9057065,12.2217509 C21.4122775,12.1572696 21.8571342,12.5577324 21.8575628,13.0638257 L21.8575628,13.0638257 L21.8575628,19 C21.8575628,21.209139 20.0667018,23 17.8575628,23 L17.8575628,23 L15,23 L15,21 C15,19.4023191 13.75108,18.0963391 12.1762728,18.0050927 L12,18 C10.3431458,18 9,19.3431458 9,21 L9,21 L9,23 L6.14276514,23 C4.00056975,23 2.25168626,21.3160315 2.14766045,19.1996403 L2.14276514,19 L2.14276514,13.0612804 C2.14241654,12.8188197 2.24736115,12.5878848 2.43093937,12.4273626 C2.6145176,12.2668404 2.85898644,12.1922455 3.10200781,12.2225993 C4.62120121,12.4077365 6.15280399,11.9916765 7.36371835,11.0649055 Z M19.4185649,0 C20.407948,0 21.3137772,0.549129239 21.7632771,1.42155804 L21.7632771,1.42155804 L23.6665612,5.11396067 C24.7229888,7.51122252 23.1591331,10.3441573 20.525564,10.5558427 C19.0545018,10.6766723 17.6317515,10.0037283 16.8025672,8.79490938 C16.6438682,8.5619918 16.3786039,8.42237189 16.0947821,8.42237189 C15.8109604,8.42237189 15.5456961,8.5619918 15.386997,8.79490938 C14.6498548,9.86606248 13.4082845,10.5694176 12,10.5694177 C10.5917155,10.5694177 9.3497166,9.86606248 8.61300296,8.79490938 C8.45430392,8.5619918 8.18903963,8.42237189 7.90521787,8.42237189 C7.6213961,8.42237189 7.35613182,8.5619918 7.19743277,8.79490938 C6.36824849,10.0037283 4.94549823,10.6766723 3.47443604,10.5558427 C0.840866916,10.3441573 -0.722988839,7.51122252 0.333438798,5.11396067 L0.333438798,5.11396067 L2.23672285,1.42155804 C2.68622276,0.549129239 3.59205195,0 4.58143507,0 L4.58143507,0 Z" id="形状结合"></path>
        </g>
    </g>
</svg>