<?xml version="1.0" encoding="UTF-8"?>
<svg width="16px" height="16px" viewBox="0 0 16 16" version="1.1" xmlns="http://www.w3.org/2000/svg" xmlns:xlink="http://www.w3.org/1999/xlink">
    <title>编组 19</title>
    <g id="匹配聊天" stroke="none" stroke-width="1" fill="none" fill-rule="evenodd">
        <g transform="translate(-75.000000, -597.000000)" id="编组-14">
            <g transform="translate(20.000000, 117.000000)">
                <g id="编组-2">
                    <g id="编组-15" transform="translate(16.000000, 443.000000)">
                        <g id="编组-4">
                            <g id="编组-3" transform="translate(4.000000, 0.000000)">
                                <g id="编组-19" transform="translate(35.000000, 37.000000)">
                                    <circle id="椭圆形" fill="#FF639F" cx="8" cy="8" r="8"></circle>
                                    <path d="M8,3.2 C8.6627417,3.2 9.2,3.7372583 9.2,4.4 L9.2,6.799 L11.6,6.8 C12.2627417,6.8 12.8,7.3372583 12.8,8 C12.8,8.6627417 12.2627417,9.2 11.6,9.2 L9.2,9.2 L9.2,11.6 C9.2,12.2627417 8.6627417,12.8 8,12.8 C7.3372583,12.8 6.8,12.2627417 6.8,11.6 L6.8,9.2 L4.4,9.2 C3.7372583,9.2 3.2,8.6627417 3.2,8 C3.2,7.3372583 3.7372583,6.8 4.4,6.8 L6.8,6.799 L6.8,4.4 C6.8,3.7372583 7.3372583,3.2 8,3.2 Z" id="形状结合" fill="#FFFFFF" fill-rule="nonzero"></path>
                                </g>
                            </g>
                        </g>
                    </g>
                </g>
            </g>
        </g>
    </g>
</svg>