<?xml version="1.0" encoding="UTF-8"?>
<svg width="20px" height="20px" viewBox="0 0 20 20" version="1.1" xmlns="http://www.w3.org/2000/svg" xmlns:xlink="http://www.w3.org/1999/xlink">
    <!-- Generator: Sketch 63.1 (92452) - https://sketch.com -->
    <title>筛选</title>
    <desc>Created with Sketch.</desc>
    <g id="页面-" stroke="none" stroke-width="1" fill="none" fill-rule="evenodd">
        <g id="匹配聊天-筛选" transform="translate(-288.000000, -134.000000)" fill="#FFFFFF">
            <g id="筛选" transform="translate(0.000000, 92.000000)">
                <g id="女" transform="translate(288.000000, 42.000000)">
                    <path d="M17.4650765,2.44336382 C16.1876386,1.19028317 14.4986547,0.5 12.7096878,0.5 C10.8710655,0.5 9.14930962,1.22273261 7.86189763,2.53503953 C6.5919336,3.82957588 5.90165043,5.54189539 5.9190715,7.35562275 C5.93272876,8.79931361 6.39470984,10.168938 7.23506158,11.3087817 L5.65213656,12.9217365 L2.35764479,9.68942833 C2.08111212,9.4124924 1.67722818,9.30527751 1.299906,9.40891677 C0.922476282,9.51247538 0.629893647,9.81073062 0.533486284,10.1900422 C0.437186458,10.5693539 0.551982732,10.9711677 0.834161116,11.242216 L4.12865289,14.4745242 L1.88663057,16.7596959 C1.47591799,17.1901685 1.48715566,17.8706658 1.91184811,18.2872929 C2.33651367,18.7040007 3.01714535,18.7021994 3.43963328,18.2833947 L5.68162872,15.9983305 L8.97601295,19.2306387 C9.17923193,19.4304971 9.45280731,19.5423361 9.73780855,19.5419339 C10.1796263,19.5419339 10.5776495,19.2745409 10.744709,18.8656027 C10.9119029,18.4565569 10.8149847,17.9870482 10.4994966,17.6776628 L7.20511239,14.4454353 L8.7861555,12.8336364 C9.9261067,13.6432056 11.2852462,14.0815553 12.7088544,14.0815553 C14.5475036,14.0815553 16.2692595,13.3590378 17.5566446,12.0465426 C18.8268237,10.7517912 19.5168918,9.03968679 19.4996858,7.22604008 C19.4825605,5.41207075 18.7598279,3.71365046 17.4650765,2.44336382 Z M16.0038839,10.5229514 C15.1287706,11.4148674 13.9588703,11.9059105 12.7090695,11.9059105 C11.4929549,11.9059105 10.345019,11.4369126 9.47705701,10.5849199 C8.5969164,9.72177023 8.10584643,8.56751654 8.09439369,7.33462606 C8.08253768,6.10173558 8.55142804,4.9383412 9.41490034,4.05830813 C10.2898792,3.16639215 11.4598871,2.67534907 12.7096878,2.67534907 C13.9254799,2.67534907 15.0733082,3.14445451 15.9417003,3.99633965 C16.8215452,4.85948934 17.3124808,6.01393122 17.3243637,7.24663351 C17.3361121,8.47952399 16.8673293,9.64289148 16.0038839,10.5229514 Z" id="nv-2"></path>
                </g>
            </g>
        </g>
    </g>
</svg>