<svg xmlns="http://www.w3.org/2000/svg" width="28" height="28" viewBox="0 0 28 28"><title>ic_skill@2x</title><g fill="none" fill-rule="evenodd" stroke="#ADADAD" stroke-linecap="round" stroke-linejoin="round" stroke-width="3" transform="translate(3 4)"><path d="M5.5 10a5.5 5.5 0 015.5 5.5V19h0H0v-3.5A5.5 5.5 0 015.5 10zM16.5 10a5.5 5.5 0 015.5 5.5V19h0-11v-3.5a5.5 5.5 0 015.5-5.5z"/><path d="M1 0h5.111C8.811 0 11 2.189 11 4.889v.222C11 7.811 8.811 10 6.111 10H5.89A4.889 4.889 0 0 1 1 5.111V0h0z"/><rect width="10" height="10" x="11" rx="4.889" transform="rotate(180 16 5)"/></g></svg>