<svg xmlns="http://www.w3.org/2000/svg" xmlns:xlink="http://www.w3.org/1999/xlink" width="12" height="10" viewBox="0 0 12 10"><title>icon_皇冠 01@2x</title><defs><path id="a" d="M1.126.163l4.761 2.695L10.646.164c.326-.185.74-.07.924.256.066.116.096.25.086.383l-.4 5.435c-.053.708-.643 1.256-1.353 1.256H1.868c-.71 0-1.3-.548-1.351-1.256L.116.803C.088.43.369.105.742.077c.134-.01.267.02.384.086z"/></defs><g fill="none" fill-rule="evenodd"><path fill="#FFBF00" d="M6.443.57L9.57 5.692H2.201L5.328.57c.194-.317.6-.412.908-.213.084.054.155.127.207.213z"/><g transform="translate(0 1.892)"><mask id="b" fill="#fff"><use xlink:href="#a"/></mask><use fill="#FFBF00" xlink:href="#a"/><path fill="#FFE240" d="M13.781-2.235L.096 6.543v2.195l11.58-1.098z" mask="url(#b)"/></g></g></svg>