<svg xmlns="http://www.w3.org/2000/svg" width="40" height="40" viewBox="0 0 40 40"><title>icon/聊天_甜蜜守护</title><path fill="#626262" fill-rule="evenodd" d="M20.5 8c2.79 0 5.581.424 8.372 1.271 1.264.384 2.128 1.55 2.128 2.871V21c0 6.995-8.187 11-10.5 11C18.187 32 10 28.004 10 21v-8.858c0-1.321.864-2.487 2.128-2.87C14.918 8.423 17.71 8 20.5 8zm2.493 7.5c-.865 0-1.763.414-2.495 1.143-.732-.729-1.63-1.143-2.496-1.143-.67 0-1.273.247-1.696.697-.615.58-.88 1.257-.788 2.011.312 2.564 4.68 5.152 4.865 5.261.035.02.075.031.115.031.04 0 .079-.01.114-.03.186-.109 4.554-2.686 4.87-5.25.093-.758-.174-1.439-.792-2.023-.423-.45-1.026-.697-1.697-.697z"/></svg>