<?xml version="1.0" encoding="UTF-8"?>
<svg width="20px" height="21px" viewBox="0 0 20 21" version="1.1" xmlns="http://www.w3.org/2000/svg" xmlns:xlink="http://www.w3.org/1999/xlink">
    <!-- Generator: Sketch 63.1 (92452) - https://sketch.com -->
    <title>筛选</title>
    <desc>Created with Sketch.</desc>
    <g id="页面-" stroke="none" stroke-width="1" fill="none" fill-rule="evenodd">
        <g id="匹配聊天-筛选" transform="translate(-64.000000, -135.000000)" fill="#B3B3B3">
            <g id="筛选" transform="translate(0.000000, 92.000000)">
                <g id="男" transform="translate(64.000000, 43.500000)">
                    <path d="M20,1.50758937 L20,1.5064523 C20,1.4885799 19.9980466,1.47102821 19.9970261,1.45315581 C19.9961223,1.43732431 19.9960057,1.42125955 19.9945187,1.40566129 C19.9924778,1.38708916 19.9890666,1.36945 19.9860928,1.35122773 C19.9844017,1.34061509 19.983148,1.32979835 19.9811946,1.31898161 L19.9801742,1.31215919 L19.9789205,1.30554086 C19.975276,1.28699788 19.9697073,1.26932957 19.9650424,1.25110731 C19.9612813,1.23699598 19.9581908,1.22241817 19.9539924,1.20862755 C19.9479572,1.18961808 19.9404351,1.17092933 19.9332628,1.1521531 L19.9268777,1.13448479 L19.923,1.1239013 L19.9200553,1.11626252 C19.9117168,1.09690319 19.9022703,1.07833105 19.8928239,1.05967145 C19.8875759,1.0490588 19.8830276,1.03824206 19.8773423,1.02800843 C19.8671961,1.00931968 19.8557963,0.991797144 19.8446588,0.973895588 C19.8413351,0.968676731 19.8383904,0.96307885 19.8350958,0.958180704 C19.8330257,0.955235986 19.8315388,0.952028867 19.8294979,0.948967526 L19.8267573,0.944856582 C19.8150367,0.927334049 19.8020624,0.911152675 19.7891756,0.894650589 C19.78212,0.8856415 19.7757349,0.875961831 19.768446,0.867069365 C19.7554717,0.851587726 19.7413604,0.836893289 19.7275698,0.82208223 C19.7192605,0.813102296 19.7117383,0.803859962 19.7033123,0.795433985 L19.7017088,0.793947048 L19.7013881,0.793393091 L19.6997845,0.792022777 C19.6874808,0.779719101 19.6741567,0.768669118 19.6608326,0.756831933 C19.650803,0.748056089 19.6415899,0.738609665 19.6310938,0.730067066 C19.6172158,0.718579748 19.6019382,0.708316967 19.5873604,0.697383606 C19.5759897,0.688957629 19.5650563,0.67994854 19.5534232,0.672105676 C19.5508284,0.670618739 19.5482044,0.669015179 19.545697,0.667324153 L19.5332767,0.660151868 C19.5245009,0.654437365 19.5156084,0.649101885 19.5066285,0.643970494 C19.4944414,0.636564965 19.4827208,0.628605478 19.4700673,0.621637283 C19.4542358,0.613094684 19.4375005,0.606039021 19.4212025,0.59831278 C19.407995,0.59204432 19.395254,0.584988658 19.3816966,0.579390777 C19.3781688,0.57769975 19.3741744,0.576533525 19.3702967,0.575192366 C19.3658651,0.573355562 19.3612002,0.571985247 19.3567394,0.569944353 L19.333065,0.561401754 C19.3183706,0.556153741 19.304026,0.550001903 19.2888651,0.54522038 C19.2738499,0.540788724 19.2583391,0.537610761 19.2430907,0.533733062 C19.2260055,0.529155629 19.2093868,0.523936771 19.1919518,0.520613029 C19.1884239,0.519709205 19.1847795,0.519709205 19.1812516,0.519038626 L19.1712221,0.517318443 C19.1589184,0.515044304 19.146294,0.513440745 19.1335239,0.511866341 C19.1195292,0.509592202 19.1058552,0.50673495 19.0918313,0.505248013 C19.0575735,0.501720182 19.0230532,0.5 18.9885329,0.5 L18.9850051,0.5 L10.9829221,0.528834917 C10.4244169,0.529855364 9.97250464,0.983254545 9.97352509,1.54175977 C9.97454553,2.10014837 10.4279447,2.55206061 10.9864499,2.55104016 L10.9900069,2.55104016 L16.5509766,2.53089362 L12.8945692,6.21371601 C11.641781,5.22983017 10.0682809,4.6400118 8.36608781,4.6400118 L8.26768756,4.64056576 C4.2070957,4.69397887 0.947234012,8.04095757 1.00064712,12.1011121 C1.05338966,16.1086407 4.35584771,19.3688231 8.36255998,19.3688231 L8.46096023,19.3681525 C10.4279447,19.3424081 12.2671401,18.5521448 13.6397288,17.1429658 C15.0125507,15.733816 15.7539783,13.8743574 15.7280007,11.9078394 C15.7075043,10.3256801 15.1787086,8.8613095 14.3015615,7.6665993 L17.9777656,3.96395108 L17.9777656,9.51273371 C17.9777656,10.0712681 18.4304942,10.5238509 18.9888828,10.5238509 C19.547388,10.5238509 20,10.0712681 20,9.51273371 L20,1.50758937 Z M11.9497228,15.4969265 C11.0168593,16.4547472 9.76681168,16.9917356 8.42999695,17.0093747 L8.36255998,17.0097246 C5.63983244,17.0097246 3.39540299,14.7938968 3.35954157,12.0702363 C3.32333028,9.31059773 5.53904144,7.03599221 8.29868,6.99966429 L8.36608781,6.99943105 C11.0890777,6.99943105 13.3335947,9.2151422 13.3689021,11.9391526 C13.3866871,13.2756466 12.8826154,14.5392516 11.9497228,15.4969265 Z" id="Fill-1"></path>
                </g>
            </g>
        </g>
    </g>
</svg>