<svg xmlns="http://www.w3.org/2000/svg" width="40" height="40" viewBox="0 0 40 40"><title>ic_more_master</title><g fill="#626262" fill-rule="evenodd"><path stroke="#626262" stroke-width="2.4" d="M18 10.2c1.175 0 2.238.476 3.008 1.246a4.241 4.241 0 0 1 1.247 3.009 4.244 4.244 0 0 1-1.368 3.125l-.173.151-1.657 1.375 2.041.686c1.697.57 3.15 1.597 4.167 2.922.965 1.257 1.535 2.783 1.535 4.431 0 .809-.13 1.463-.403 1.985-.264.502-.664.863-1.16 1.132-1.545.838-3.86.9-6.477.909H17.808c-2.799-.004-5.332-.032-7-.921-.51-.272-.924-.636-1.197-1.142-.278-.517-.411-1.164-.411-1.963 0-1.648.57-3.174 1.535-4.431.95-1.237 2.279-2.214 3.83-2.802l.337-.12 2.04-.686-1.656-1.375a4.246 4.246 0 0 1-1.54-3.276c0-1.175.476-2.239 1.246-3.009A4.241 4.241 0 0 1 18 10.2zm3.416 13.436a2.392 2.392 0 0 0-1.793.399c-.549.384-1.072.606-1.61.605-.546-.001-1.084-.227-1.656-.62a2.392 2.392 0 0 0-1.797-.38 2.392 2.392 0 0 0-1.54 1.003 2.392 2.392 0 0 0-.38 1.797 2.392 2.392 0 0 0 1.003 1.54c1.44.987 2.917 1.461 4.38 1.46 1.468-.002 2.936-.48 4.354-1.475.543-.38.88-.944.987-1.55a2.392 2.392 0 0 0-.399-1.792 2.392 2.392 0 0 0-1.55-.987z"/><path fill-rule="nonzero" d="M24.72 8a4.364 4.364 0 0 1 2.785 7.724c3.045 1.023 5.216 3.678 5.216 6.792 0 2.22-1.081 3.263-2.798 3.753.05-.315.077-.656.077-1.027 0-3.517-2.405-6.519-5.791-7.701a5.502 5.502 0 0 0-2.143-8.64A4.34 4.34 0 0 1 24.72 8z"/></g></svg>