<svg xmlns="http://www.w3.org/2000/svg" xmlns:xlink="http://www.w3.org/1999/xlink" width="26" height="36" viewBox="0 0 26 36"><title>矩形 2@2x</title><defs><rect id="a" width="26" height="36" x="0" y="0" rx="4"/><ellipse id="d" cx="13" cy="5" rx="15" ry="8"/><filter id="c" width="143.3%" height="181.2%" x="-21.7%" y="-34.4%" filterUnits="objectBoundingBox"><feOffset dy="1" in="SourceAlpha" result="shadowOffsetOuter1"/><feGaussianBlur in="shadowOffsetOuter1" result="shadowBlurOuter1" stdDeviation="2"/><feColorMatrix in="shadowBlurOuter1" values="0 0 0 0 0.494791667 0 0 0 0 0.154212412 0 0 0 0 0.161023997 0 0 0 0.500820879 0"/></filter></defs><g fill="none" fill-rule="evenodd"><mask id="b" fill="#fff"><use xlink:href="#a"/></mask><use fill="#DF492B" xlink:href="#a"/><g mask="url(#b)"><use fill="#000" filter="url(#c)" xlink:href="#d"/><use fill="#E36046" xlink:href="#d"/></g><circle cx="13" cy="13" r="5" fill="#FFA844" mask="url(#b)"/><path fill="#DF492B" d="M13.457 14.042h1.097c.291 0 .436.145.436.436 0 .285-.145.428-.436.428h-1.097v.903c0 .203-.029.338-.086.405-.057.068-.182.102-.374.102-.166 0-.285-.034-.358-.102-.073-.067-.109-.202-.109-.405v-.903h-1.082c-.291 0-.436-.143-.436-.428 0-.29.14-.436.42-.436h1.098v-.397h-1.082c-.291 0-.436-.143-.436-.428 0-.291.14-.437.42-.437h.615l-.475-.774-.475-.775c-.083-.135-.113-.254-.09-.358.024-.104.088-.192.191-.265.12-.083.23-.117.331-.101.102.015.199.101.292.257l1.184 1.978.576-.978.576-.977c.057-.093.11-.162.16-.206.05-.044.1-.07.152-.078.052-.008.104 0 .156.023.051.024.106.053.163.09.13.083.2.17.21.26.01.092-.026.21-.109.355l-.934 1.55h.6c.29 0 .435.145.435.436 0 .285-.145.428-.436.428h-1.097v.397z" mask="url(#b)"/></g></svg>