<?xml version="1.0" encoding="UTF-8"?>
<svg width="10px" height="10px" viewBox="0 0 10 10" version="1.1" xmlns="http://www.w3.org/2000/svg" xmlns:xlink="http://www.w3.org/1999/xlink">
    <title>形状结合</title>
    <g id="匹配聊天" stroke="none" stroke-width="1" fill="none" fill-rule="evenodd">
        <g transform="translate(-243.000000, -65.000000)" fill="#FFFFFF" id="编组">
            <g transform="translate(243.000000, 60.000000)">
                <path d="M5,5 C5.55228475,5 6,5.44771525 6,6 L6,9 L9,9 C9.55228475,9 10,9.44771525 10,10 C10,10.5522847 9.55228475,11 9,11 L6,11 L6,14 C6,14.5522847 5.55228475,15 5,15 C4.44771525,15 4,14.5522847 4,14 L4,11 L1,11 C0.44771525,11 6.76353751e-17,10.5522847 0,10 C-6.76353751e-17,9.44771525 0.44771525,9 1,9 L4,9 L4,6 C4,5.44771525 4.44771525,5 5,5 Z" id="形状结合"></path>
            </g>
        </g>
    </g>
</svg>