<svg xmlns="http://www.w3.org/2000/svg" width="24" height="24" viewBox="0 0 24 24"><title>ic_add</title><g fill="none" fill-rule="evenodd" stroke="#202020" stroke-linecap="round" stroke-linejoin="round" stroke-width="2"><path d="M12 13.286c.695 0 1.355-.153 1.947-.427.845-.39 1.552-1.028 2.03-1.82.423-.7.666-1.52.666-2.396C16.643 6.079 14.564 4 12 4 9.436 4 7.357 6.079 7.357 8.643c0 2.564 2.079 4.643 4.643 4.643zM18.5 19.321c-.558-.7-1.209-1.31-1.931-1.806-.61-.419-1.27-.757-1.969-1-.828-.288-1.71-.444-2.624-.444-2.577 0-4.89 1.234-6.476 3.19"/></g></svg>