<?xml version="1.0" encoding="UTF-8"?>
<svg width="89px" height="32px" viewBox="0 0 89 32" version="1.1" xmlns="http://www.w3.org/2000/svg" xmlns:xlink="http://www.w3.org/1999/xlink">
    <title>编组 6</title>
    <g id="匹配聊天" stroke="none" stroke-width="1" fill="none" fill-rule="evenodd">
        <g id="交友卡完成预览" transform="translate(-246.000000, -158.000000)">
            <g id="编组-6" transform="translate(246.000000, 158.000000)">
                <rect id="矩形" fill="#000000" opacity="0.400000006" x="0" y="0" width="89" height="32" rx="16"></rect>
                <g id="编组" transform="translate(8.000000, 8.000000)" fill-rule="nonzero">
                    <path d="M28.252,13.144 L28.615,12.396 C27.317,11.758 26.371,10.889 25.788,9.767 L28.56,9.767 L28.56,9.041 L27.867,9.041 L27.867,6.049 L25.92,6.049 C26.25,5.598 26.58,5.048 26.899,4.41 L26.899,3.838 L24.567,3.838 C24.699,3.585 24.809,3.321 24.908,3.046 L24.138,2.947 C23.742,3.992 22.994,4.883 21.894,5.609 L22.356,6.225 C23.082,5.73 23.687,5.158 24.149,4.52 L26.063,4.52 C25.755,5.103 25.436,5.609 25.117,6.049 L22.609,6.049 L22.609,9.041 L21.828,9.041 L21.828,9.767 L24.391,9.767 C23.951,10.867 22.983,11.769 21.487,12.473 L22.004,13.133 C23.632,12.275 24.677,11.208 25.139,9.932 C25.755,11.252 26.8,12.33 28.252,13.144 Z M19.727,12.979 C20.365,12.979 20.684,12.649 20.684,12 L20.684,8.821 C21.08,8.645 21.465,8.447 21.85,8.249 L21.85,7.446 C21.465,7.666 21.08,7.864 20.684,8.04 L20.684,5.796 L21.806,5.796 L21.806,5.037 L20.684,5.037 L20.684,3.024 L19.892,3.024 L19.892,5.037 L18.583,5.037 L18.583,5.796 L19.892,5.796 L19.892,8.359 C19.397,8.546 18.891,8.7 18.374,8.832 L18.572,9.624 C19.012,9.481 19.452,9.327 19.892,9.151 L19.892,11.802 C19.892,12.11 19.738,12.275 19.452,12.275 C19.188,12.275 18.913,12.253 18.627,12.22 L18.792,12.979 L19.727,12.979 Z M24.611,9.041 L23.313,9.041 L23.313,6.742 L24.842,6.742 C24.82,7.633 24.743,8.403 24.611,9.041 Z M27.163,9.041 L25.37,9.041 C25.48,8.425 25.546,7.655 25.568,6.742 L27.163,6.742 L27.163,9.041 Z M39.439,8.359 L39.439,7.567 L29.55,7.567 L29.55,8.359 L39.439,8.359 Z M40.869,7.787 C42.739,6.841 44.279,5.499 45.5,3.761 C46.512,5.345 48.063,6.665 50.131,7.743 L50.604,7.028 C48.36,5.873 46.776,4.542 45.852,3.024 L45.148,3.024 C44.037,4.674 42.453,6.027 40.396,7.072 L40.869,7.787 Z M45.907,13.089 L45.907,6.269 L45.093,6.269 L45.093,13.089 L45.907,13.089 Z M60.086,6.94 C60.482,6.94 60.779,6.863 60.966,6.731 C61.164,6.566 61.307,6.115 61.384,5.367 L60.691,5.136 C60.647,5.664 60.57,5.994 60.449,6.104 C60.35,6.192 60.185,6.236 59.954,6.236 L58.227,6.236 C57.963,6.236 57.842,6.104 57.842,5.862 L57.842,4.916 C59.008,4.674 60.031,4.366 60.922,4.014 L60.482,3.42 C59.69,3.739 58.81,4.003 57.842,4.212 L57.842,2.991 L57.072,2.991 L57.072,6.016 C57.072,6.632 57.38,6.94 58.007,6.94 L60.086,6.94 Z M51.726,7.039 C53.068,6.885 54.135,6.687 54.938,6.445 L54.938,6.94 L55.697,6.94 L55.697,3.013 L54.938,3.013 L54.938,3.981 L51.968,3.981 L51.968,4.707 L54.938,4.707 L54.938,5.774 C54.058,6.016 52.947,6.192 51.616,6.28 L51.726,7.039 Z M53.959,13.089 L53.959,11.285 L59.184,11.285 L59.184,11.989 C59.184,12.253 59.03,12.385 58.744,12.385 L57.468,12.352 L57.666,13.078 L58.986,13.078 C59.635,13.078 59.965,12.77 59.965,12.165 L59.965,7.479 L53.178,7.479 L53.178,13.089 L53.959,13.089 Z M59.184,9.052 L53.959,9.052 L53.959,8.15 L59.184,8.15 L59.184,9.052 Z M59.184,10.636 L53.959,10.636 L53.959,9.712 L59.184,9.712 L59.184,10.636 Z M72.34,7.765 L72.34,7.105 L67.995,7.105 C67.907,6.885 67.819,6.665 67.72,6.467 L71.13,6.467 L71.13,3.332 L63.881,3.332 L63.881,6.467 L66.818,6.467 C66.939,6.665 67.06,6.874 67.17,7.105 L62.66,7.105 L62.66,7.765 L72.34,7.765 Z M70.36,4.597 L64.651,4.597 L64.651,3.959 L70.36,3.959 L70.36,4.597 Z M70.36,5.84 L64.651,5.84 L64.651,5.18 L70.36,5.18 L70.36,5.84 Z M67.17,13.056 C67.731,13.056 68.017,12.748 68.017,12.143 L68.017,10.581 L71.02,10.581 L71.02,8.359 L64.068,8.359 L64.068,10.581 L67.236,10.581 L67.236,11.956 C67.236,12.231 67.126,12.374 66.906,12.374 C66.521,12.374 66.114,12.352 65.696,12.319 L65.861,13.056 L67.17,13.056 Z M70.25,9.954 L64.838,9.954 L64.838,8.986 L70.25,8.986 L70.25,9.954 Z M62.957,12.968 C64.101,12.572 65.036,12.055 65.762,11.428 L65.267,10.922 C64.629,11.472 63.716,11.934 62.517,12.319 L62.957,12.968 Z M72.208,12.968 L72.483,12.242 C71.504,11.692 70.481,11.263 69.425,10.977 L69.095,11.604 C70.173,11.934 71.207,12.385 72.208,12.968 Z" id="换一个背景" fill="#FFFFFF"></path>
                    <g id="换一换">
                        <rect id="矩形" fill="#000000" opacity="0" x="0" y="0" width="16" height="16"></rect>
                        <path d="M3.2125,6.10625 L4.5578125,7.79375 C4.778125,8.0703125 4.7328125,8.4734375 4.45625,8.69375 C4.1796875,8.9140625 3.7765625,8.86875 3.55625,8.5921875 L3.06983415,7.9818125 L3.0625,8.2609375 C3.0625,10.8529983 5.10672936,12.9672834 7.67107106,13.0796757 L7.8859375,13.084375 C9.0609375,13.084375 10.1375,12.6640625 10.975,11.965625 L10.975,11.965625 L10.9858342,11.9778125 L11.0476562,11.9371806 C11.2171362,11.8393313 11.4203259,11.8253528 11.5994372,11.8952452 L11.6867188,11.9371806 C11.8844454,12.0513381 12.00625,12.2623099 12.00625,12.490625 C12.00625,12.7375643 11.8661904,12.9517909 11.661177,13.0581991 C10.6229377,13.8763864 9.31161192,14.365625 7.8859375,14.365625 C4.515625,14.365625 1.7828125,11.6328125 1.7828125,8.2625 C1.7828125,8.19672309 1.7838611,8.13118248 1.78594107,8.06589541 L1.421875,8.3578125 C1.1453125,8.578125 0.74375,8.5328125 0.5234375,8.25625 C0.303125,7.9796875 0.3484375,7.5765625 0.625,7.35625 L2.26385172,6.04758557 C2.27917799,6.03263583 2.29539679,6.01831209 2.3125,6.0046875 C2.5890625,5.784375 2.9921875,5.8296875 3.2125,6.10625 Z M7.8859375,2.1578125 C11.1327731,2.1578125 13.7879647,4.69405098 13.9781612,7.89317683 L14.371875,7.525 C14.63125,7.284375 15.0359375,7.2984375 15.2765625,7.55625 C15.5171875,7.8140625 15.503125,8.2203125 15.2453125,8.4609375 L13.6671875,9.9328125 C13.4591176,10.127011 13.1543639,10.1553204 12.9180205,10.0234902 C12.8531776,9.9912763 12.7929808,9.94672047 12.740625,9.890625 L11.26875,8.3125 C11.0265625,8.053125 11.040625,7.6484375 11.3,7.4078125 C11.5578125,7.1671875 11.9640625,7.18125 12.2046875,7.4390625 L12.7008432,7.97006494 C12.5512382,5.44071728 10.4528656,3.4359375 7.8859375,3.4359375 C6.7640625,3.4359375 5.73125,3.8203125 4.9125,4.4625 L4.95136061,4.43400517 C4.83439447,4.56375156 4.66500327,4.6453125 4.4765625,4.6453125 C4.12361803,4.6453125 3.8375,4.35919447 3.8375,4.00625 C3.8375,3.78752385 3.94738385,3.59446244 4.11495944,3.47925791 L4.10625,3.46875 C5.1453125,2.6484375 6.4578125,2.1578125 7.8859375,2.1578125 Z" id="形状结合" fill="#FFFFFF"></path>
                    </g>
                </g>
            </g>
        </g>
    </g>
</svg>