<?xml version="1.0" encoding="UTF-8"?>
<svg width="24px" height="24px" viewBox="0 0 24 24" version="1.1" xmlns="http://www.w3.org/2000/svg" xmlns:xlink="http://www.w3.org/1999/xlink">
    <title>能力@2x</title>
    <g id="能力" stroke="none" stroke-width="1" fill="none" fill-rule="evenodd">
        <g id="icon/聊天_红包" transform="translate(3.000000, 4.000000)" fill-rule="nonzero" stroke="#313131" stroke-width="1.5">
            <path d="M2.09993439,9.01963958 L2.09993439,14.2039834 C2.09993439,15.1318217 2.85209601,15.8839834 3.77993439,15.8839834 L14.220294,15.8839834 C15.1481323,15.8839834 15.900294,15.1318217 15.900294,14.2039834 L15.900294,9.0214213 L15.900294,9.0214213" id="形状结合" stroke-linecap="round" stroke-linejoin="round"></path>
            <path d="M17.1665928,3.17977247 L15.834294,1.19509063 C15.5196441,0.584390467 14.8855636,0.2 14.1929954,0.2 L3.80700455,0.2 C3.11443637,0.2 2.48035593,0.584390467 2.165706,1.19509063 L0.833407159,3.17977247 C0.0939078128,4.85785576 1.18860684,6.84091014 3.03210523,6.98908986 C4.06184876,7.07367059 5.05777394,6.60260979 5.63820294,5.75643657 C5.74929227,5.59339426 5.93497727,5.49566032 6.13365251,5.49566032 C6.33232774,5.49566032 6.51801274,5.59339426 6.62910207,5.75643657 C7.14480162,6.50624373 8.01420086,6.99859238 9,6.99859236 C9.98579914,6.99859234 10.8548984,6.50624373 11.3708979,5.75643657 C11.4819873,5.59339426 11.6676723,5.49566032 11.8663475,5.49566032 C12.0650227,5.49566032 12.2507077,5.59339426 12.3617971,5.75643657 C12.9422261,6.60260979 13.9381512,7.07367059 14.9678948,6.98908986 C16.8113932,6.84091014 17.9060922,4.85785576 17.1665928,3.17977247 Z" id="路径"></path>
        </g>
    </g>
</svg>