<svg xmlns="http://www.w3.org/2000/svg" width="16" height="16" viewBox="0 0 16 16"><title>ic_agree_small</title><g fill="none" fill-rule="evenodd" stroke="#626262" stroke-linejoin="round"><path d="M5.5 12.5l1.3.103c.782.062 1.829.156 3.14.28.695 0 1.316-.415 1.56-1.042l1.134-3.387c.323-.83-.114-1.755-.975-2.066a1.723 1.723 0 00-.535-.1H9.713V4.684c.088-.663-.4-1.27-1.09-1.354a1.264 1.264 0 00-1.337.776c-.324 1.454-.92 2.307-1.786 2.56V12.5zM4 6.667h1.5V12.5H4a1 1 0 01-1-1V7.667a1 1 0 011-1z"/></g></svg>