<svg xmlns="http://www.w3.org/2000/svg" width="16" height="16" viewBox="0 0 16 16"><title>ic_dontagree_small</title><g fill="none" fill-rule="evenodd" stroke="#626262" stroke-linejoin="round"><path d="M5.5 4.333l1.3-.103c.782-.062 1.829-.155 3.14-.28.695 0 1.316.416 1.56 1.042l1.134 3.387c.323.83-.114 1.755-.975 2.066a1.723 1.723 0 01-.535.101H9.713v1.602c.088.664-.4 1.27-1.09 1.355a1.264 1.264 0 01-1.337-.777c-.324-1.453-.92-2.306-1.786-2.56V4.334zM4 10.167h1.5V4.333H4a1 1 0 00-1 1v3.834a1 1 0 001 1z"/></g></svg>