<svg xmlns="http://www.w3.org/2000/svg" width="24" height="24" viewBox="0 0 24 24"><title>ic_videostatus</title><path fill="#202020" fill-rule="evenodd" d="M14.97 13.079s-.016.32.019.873c.033.554.267.725.425.847.158.125 1.715.52 2.69.464.979-.049.91-.29.884-1.998-.026-1.704-.77-2.285-1.848-3.097-1.076-.81-3.997-1.424-6.827-1.061s-3.77 1.326-4.478 2.174c-.71.849-.865 2.12-.83 2.9.033.782-.032 1.19 1.91 1.044 1.941-.144 2.04-.932 2.125-1.058.085-.126.078-1.39.078-1.39s-.195-.809.715-1.098c.908-.289 2.927-.284 3.918-.156.99.13 1.168.788 1.168.788l.05.768z"/></svg>