<svg xmlns="http://www.w3.org/2000/svg" width="24" height="24" viewBox="0 0 24 24"><title>ic_videostatus</title><path fill="#202020" fill-rule="evenodd" d="M14.064 7c.92 0 1.667.746 1.667 1.667v6.666c0 .92-.746 1.667-1.667 1.667H7.167c-.92 0-1.667-.746-1.667-1.667V8.667C5.5 7.747 6.246 7 7.167 7h6.897zm5.311 2.168c.082.132.125.284.125.44v4.785c0 .46-.373.833-.833.833-.155 0-.307-.043-.439-.125l-1.42-.879V9.778l1.42-.88c.391-.242.905-.12 1.147.27zM7.385 8.111c-.446 0-.808.373-.808.833 0 .46.362.834.808.834.446 0 .807-.373.807-.834 0-.46-.361-.833-.807-.833z"/></svg>