<?xml version="1.0" encoding="UTF-8"?>
<svg width="24px" height="24px" viewBox="0 0 24 24" version="1.1" xmlns="http://www.w3.org/2000/svg" xmlns:xlink="http://www.w3.org/1999/xlink">
    <title>ic_profile_gift</title>
    <defs>
        <linearGradient x1="50%" y1="0%" x2="50%" y2="100%" id="linearGradient-1">
            <stop stop-color="#FFAE11" offset="0%"></stop>
            <stop stop-color="#FD7607" offset="100%"></stop>
        </linearGradient>
    </defs>
    <g id="ic_profile_gift" stroke="none" stroke-width="1" fill="none" fill-rule="evenodd">
        <path d="M16.4697256,1.5 C17.4763435,1.5 18.3784237,1.83353215 19.0985797,2.47942346 C19.8537219,3.14976091 20.25,4.01444881 20.25,5 C20.25,5.71886248 20.0344523,6.37820517 19.6213398,6.94515969 L19.8888889,6.94444444 C21.6071081,6.94444444 23,8.33733633 23,10.0555556 C23,11.2133786 22.3675232,12.2234787 21.4292213,12.7592042 L21.4285714,19.3571429 C21.4285714,21.0928949 20.0214664,22.5 18.2857143,22.5 L5.71428571,22.5 C3.97853364,22.5 2.57142857,21.0928949 2.57142857,19.3571429 L2.57077875,12.7592042 C1.63247682,12.2234787 1,11.2133786 1,10.0555556 C1,8.33733633 2.39289189,6.94444444 4.11111111,6.94444444 L4.65053072,6.94515969 C4.23741818,6.37820517 4.02187053,5.71886248 4.02187053,5 C4.02187053,4.01444881 4.41814859,3.14976091 5.1732908,2.47942346 C5.89344682,1.83353215 6.79552702,1.5 7.80214489,1.5 C8.89438456,1.5 9.83443079,1.87841752 10.5338951,2.62422361 L11.7315001,4.0070313 C11.898164,4.19966914 12.0328909,4.40871619 12.1361747,4.62784889 C12.2389797,4.40871619 12.3737066,4.19966914 12.5403705,4.0070313 L12.5403705,4.0070313 L13.7379754,2.62422361 C14.4374397,1.87841752 15.377486,1.5 16.4697256,1.5 Z M14.1428571,7.94444444 L9.85714286,7.94444444 C9.30485811,7.94444444 8.85714286,8.39215969 8.85714286,8.94444444 L8.85714286,8.94444444 L8.85714286,15.3730159 C8.85714286,16.2408919 9.56069539,16.9444444 10.4285714,16.9444444 L10.4285714,16.9444444 L13.5714286,16.9444444 C14.4393046,16.9444444 15.1428571,16.2408919 15.1428571,15.3730159 L15.1428571,15.3730159 L15.1428571,8.94444444 C15.1428571,8.39215969 14.6951419,7.94444444 14.1428571,7.94444444 L14.1428571,7.94444444 Z M16.4697256,3.83333333 C16.0129477,3.83333333 15.703548,3.9578828 15.4968572,4.17689135 L15.4968572,4.17689135 L14.330679,5.52481399 C14.1895454,5.68794277 14.2087254,5.93344051 14.3735187,6.07314855 C14.4447042,6.13349798 14.5353401,6.16666667 14.6290638,6.16666667 L14.6290638,6.16666667 L16.4697256,6.16666667 C16.8988195,6.16666667 17.2323831,6.04307469 17.5204176,5.78740768 C17.7812969,5.55343852 17.8928571,5.31074664 17.8928571,5 C17.8928571,4.68254088 17.7852222,4.44767894 17.5204176,4.21259232 C17.2361023,3.95760454 16.8999949,3.83333333 16.4697256,3.83333333 Z M7.80214489,3.83333333 C7.37187558,3.83333333 7.03576826,3.95760454 6.75145292,4.21259232 C6.48664833,4.44767894 6.37901338,4.68254088 6.37901338,5 C6.37901338,5.31074664 6.49057368,5.55343852 6.75145292,5.78740768 C7.03948747,6.04307469 7.37305103,6.16666667 7.80214489,6.16666667 L9.64280676,6.16666667 C9.73653047,6.16666667 9.82716632,6.13349798 9.89835181,6.07314855 C10.0631452,5.93344051 10.0823252,5.68794277 9.94119152,5.52481399 L8.77501332,4.17689135 C8.56832252,3.9578828 8.25892284,3.83333333 7.80214489,3.83333333 Z" id="形状结合" fill="url(#linearGradient-1)" fill-rule="nonzero"></path>
        <g id="1" transform="translate(8.000000, 6.000000)"></g>
    </g>
</svg>