<svg xmlns="http://www.w3.org/2000/svg" width="30" height="30" viewBox="0 0 30 30"><title>ic_black</title><g fill="none" fill-rule="evenodd" transform="translate(0 -21)"><rect width="347" height="72" rx="10"/><g stroke="#3C98FF" stroke-linecap="round" stroke-width="3"><path stroke-linejoin="round" d="M10 40.25l-.875 1C6.847 41.25 5 39.403 5 37.125S6.847 33 9.125 33L10 34v6.25zM20 40.25l.875 1c2.278 0 4.125-1.847 4.125-4.125S23.153 33 20.875 33L20 34v6.25z" opacity=".8"/><path stroke-linejoin="round" d="M20 41c0 3.314-2.686 6-6 6h0"/><path d="M10 42.077V30c0-2.761 2.239-5 5-5s5 2.239 5 5v12.077"/></g></g></svg>