<?xml version="1.0" encoding="UTF-8"?>
<svg width="28px" height="28px" viewBox="0 0 28 28" version="1.1" xmlns="http://www.w3.org/2000/svg" xmlns:xlink="http://www.w3.org/1999/xlink">
    <!-- Generator: Sketch 61.2 (89653) - https://sketch.com -->
    <title>ic_discover_music</title>
    <desc>Created with Sketch.</desc>
    <defs>
        <linearGradient x1="50%" y1="2.18802787%" x2="50%" y2="100%" id="linearGradient-1">
            <stop stop-color="#FC889B" offset="0%"></stop>
            <stop stop-color="#FF6A9B" offset="100%"></stop>
        </linearGradient>
        <linearGradient x1="50%" y1="0%" x2="50%" y2="100%" id="linearGradient-2">
            <stop stop-color="#FF7798" offset="0%"></stop>
            <stop stop-color="#FF6EA0" offset="100%"></stop>
        </linearGradient>
    </defs>
    <g id="ic_discover_music" stroke="none" stroke-width="1" fill="none" fill-rule="evenodd">
        <g fill-rule="nonzero" id="ic">
            <g transform="translate(2.000000, 1.000000)">
                <path d="M21.5217391,8.34782609 C18.2800678,8.34782609 15.6521739,10.9757199 15.6521739,14.2173913 C15.6521739,17.4590627 18.2800678,20.0869565 21.5217391,20.0869565 C21.9730893,20.0869565 22.4024691,19.8921176 22.6996853,19.552442 L23.6127287,18.5089637 C23.8623888,18.2236379 24,17.8573928 24,17.4782609 L24,10.9565217 C24,10.5773899 23.8623888,10.2111447 23.6127287,9.92581887 L22.6996853,8.88234061 C22.4024691,8.54266502 21.9730893,8.34782609 21.5217391,8.34782609 Z" id="4" fill="url(#linearGradient-1)" transform="translate(19.826087, 14.217391) scale(-1, 1) translate(-19.826087, -14.217391) "></path>
                <path d="M5.86956522,8.34782609 C2.62789386,8.34782609 -9.76996262e-15,10.9757199 -9.76996262e-15,14.2173913 C-9.76996262e-15,17.4590627 2.62789386,20.0869565 5.86956522,20.0869565 C6.32091535,20.0869565 6.75029521,19.8921176 7.04751135,19.552442 L7.96055483,18.5089637 C8.21021492,18.2236379 8.34782609,17.8573928 8.34782609,17.4782609 L8.34782609,10.9565217 C8.34782609,10.5773899 8.21021492,10.2111447 7.96055483,9.92581887 L7.04751135,8.88234061 C6.75029521,8.54266502 6.32091535,8.34782609 5.86956522,8.34782609 Z" id="3" fill="url(#linearGradient-1)"></path>
                <path d="M12,0 C15.6644981,0 18.6502441,2.906083 18.7783273,6.5393383 L18.7826087,6.7826087 L18.7826087,19.3850932 C18.7826087,19.6976829 18.690976,19.9888707 18.5331065,20.2332605 C17.6578028,23.6005376 14.5975294,26.0869565 10.9565217,26.0869565 C10.092076,26.0869565 9.39130435,25.3861848 9.39130435,24.5217391 C9.39130435,23.6572934 10.092076,22.9565217 10.9565217,22.9565217 C13.5498588,22.9565217 15.6521739,20.8542067 15.6521739,18.2608696 L15.6521739,6.7826087 C15.6521739,4.76556874 14.01704,3.13043478 12,3.13043478 C10.0501947,3.13043478 8.45725936,4.65837662 8.35323012,6.58222414 L8.34782609,6.7826087 L8.34782609,19.3850932 C8.34782609,20.2495389 7.64705439,20.9503106 6.7826087,20.9503106 C5.96901275,20.9503106 5.30040138,20.3295578 5.22455643,19.535834 L5.2173913,19.3850932 L5.2173913,6.7826087 C5.2173913,3.03667735 8.25406865,0 12,0 Z" id="形状结合" fill="url(#linearGradient-2)"></path>
            </g>
        </g>
    </g>
</svg>