<?xml version="1.0" encoding="UTF-8"?>
<svg width="28px" height="28px" viewBox="0 0 28 28" version="1.1" xmlns="http://www.w3.org/2000/svg" xmlns:xlink="http://www.w3.org/1999/xlink">
    <!-- Generator: Sketch 61.2 (89653) - https://sketch.com -->
    <title>ic_discover_game</title>
    <desc>Created with Sketch.</desc>
    <defs>
        <linearGradient x1="50%" y1="0%" x2="50%" y2="100%" id="linearGradient-1">
            <stop stop-color="#FDD67D" offset="0%"></stop>
            <stop stop-color="#FBAD47" offset="100%"></stop>
        </linearGradient>
    </defs>
    <g id="ic_discover_game" stroke="none" stroke-width="1" fill="none" fill-rule="evenodd">
        <g id="ic">
            <g transform="translate(3.000000, 0.000000)">
                <path d="M15.2136135,13.5074342 L20.9126073,10.5620013 C21.1579226,10.4352141 21.4595713,10.5313001 21.5863586,10.7766154 C21.648024,10.8959292 21.6590957,11.0350348 21.6170799,11.1626008 L18.2739477,21.3128336 C18.1388827,21.7229102 17.7558866,22 17.3241397,22 L4.67586028,22 C4.24411339,22 3.86111725,21.7229102 3.72605233,21.3128336 L0.384024082,11.1659526 C0.297637476,10.9036704 0.440229049,10.6210185 0.702511274,10.5346319 C0.830408972,10.4925068 0.969891295,10.5037498 1.08939062,10.5658163 L6.58496734,13.4201525 L6.58496734,13.4201525 L15.2136135,13.5074342 Z" id="2" stroke="#FFAF28" stroke-width="3" fill="#FFAF28" stroke-linejoin="round"></path>
                <path d="M12.8224919,4.0322634 L19.72374,19.3012748 C20.1786709,20.3078093 19.7315078,21.4925611 18.7249733,21.9474919 C18.4661199,22.0644878 18.1853134,22.125 17.9012481,22.125 L4.0987519,22.125 C2.9941824,22.125 2.0987519,21.2295695 2.0987519,20.125 C2.0987519,19.8409347 2.1592641,19.5601282 2.27625996,19.3012748 L9.17750807,4.0322634 C9.63243891,3.0257289 10.8171907,2.57856579 11.8237252,3.03349664 C12.2670403,3.23386505 12.6221235,3.58894829 12.8224919,4.0322634 Z" id="1" fill="url(#linearGradient-1)"></path>
            </g>
        </g>
    </g>
</svg>