<?xml version="1.0" encoding="UTF-8"?>
<svg width="28px" height="28px" viewBox="0 0 28 28" version="1.1" xmlns="http://www.w3.org/2000/svg" xmlns:xlink="http://www.w3.org/1999/xlink">
    <!-- Generator: Sketch 61.2 (89653) - https://sketch.com -->
    <title>ic_discover_friends</title>
    <desc>Created with Sketch.</desc>
    <defs>
        <linearGradient x1="50%" y1="-21.0764956%" x2="50%" y2="100%" id="linearGradient-1">
            <stop stop-color="#FFCE4C" offset="0%"></stop>
            <stop stop-color="#FFA025" offset="100%"></stop>
        </linearGradient>
        <linearGradient x1="50%" y1="-47.4293108%" x2="50%" y2="100%" id="linearGradient-2">
            <stop stop-color="#FF8B8B" offset="0%"></stop>
            <stop stop-color="#FF5353" offset="100%"></stop>
        </linearGradient>
        <linearGradient x1="50%" y1="-17.808387%" x2="50%" y2="100%" id="linearGradient-3">
            <stop stop-color="#00ED7D" offset="0%"></stop>
            <stop stop-color="#00D747" offset="100%"></stop>
        </linearGradient>
        <linearGradient x1="50%" y1="0%" x2="50%" y2="100%" id="linearGradient-4">
            <stop stop-color="#59EBF3" offset="0%"></stop>
            <stop stop-color="#2DD2E4" offset="100%"></stop>
        </linearGradient>
        <linearGradient x1="50%" y1="0%" x2="50%" y2="100%" id="linearGradient-5">
            <stop stop-color="#8DB2FF" offset="0%"></stop>
            <stop stop-color="#547AFF" offset="100%"></stop>
        </linearGradient>
        <linearGradient x1="50%" y1="-12.9338256%" x2="50%" y2="100%" id="linearGradient-6">
            <stop stop-color="#D574FF" offset="0%"></stop>
            <stop stop-color="#AA40FF" offset="100%"></stop>
        </linearGradient>
    </defs>
    <g id="ic_discover_friends" stroke="none" stroke-width="1" fill="none" fill-rule="evenodd">
        <g fill-rule="nonzero" id="ic">
            <g transform="translate(2.500000, 2.500000)">
                <path d="M16.19456,11.3339782 L21.8829735,8.35139428 C22.2295503,8.16794996 22.3837893,7.75400926 22.2417576,7.38850379 C21.1442422,4.53364343 18.9577407,2.23159843 16.1631281,0.988655255 C15.6506342,0.760965385 15.0718266,1.12396589 15.0718266,1.6847576 L15.0718266,10.6551251 C15.0718266,11.2312495 15.6839827,11.601533 16.19456,11.3339782 L16.19456,11.3339782 Z" id="路径" fill="url(#linearGradient-1)"></path>
                <path d="M13.5385615,7.21256163 L13.5385615,0.847211544 C13.5382007,0.457254703 13.2465388,0.129052738 12.8593251,0.0828788904 C10.0176549,-0.261011247 7.15032328,0.473055178 4.82348268,2.14013734 C4.37040285,2.4640396 4.39531841,3.14557594 4.87484705,3.42922997 L12.381713,7.87224893 C12.8922903,8.17468548 13.5385615,7.80631853 13.5385615,7.21256163 Z" id="路径" fill="url(#linearGradient-2)"></path>
                <path d="M19.6355902,18.6710351 C19.9715564,18.869315 20.4027073,18.785192 20.6394955,18.4751604 C22.3347642,16.2635065 23.1645576,13.5091596 22.973125,10.7291051 C22.9351767,10.1755964 22.3410365,9.84249461 21.849625,10.1004664 L14.2143481,14.1034383 C13.6826884,14.3821093 13.6631393,15.1364757 14.1798496,15.4419787 L19.6355902,18.6710351 Z" id="路径" fill="url(#linearGradient-3)"></path>
                <path d="M9.47349241,15.7823636 L9.47349241,22.1549967 C9.47387645,22.5450833 9.76574646,22.8733342 10.1531122,22.9193293 C10.5950758,22.9718437 11.0443225,22.9998258 11.5000856,22.9998258 C13.9950912,22.9998258 16.3030385,22.2036779 18.1874213,20.8532546 C18.6397345,20.528969 18.614819,19.847816 18.1356736,19.5645453 L10.6307242,15.1226763 C10.1193803,14.8202397 9.47349241,15.1886067 9.47349241,15.7823636 Z" id="路径" fill="url(#linearGradient-4)"></path>
                <path d="M6.81749394,11.660947 L1.11758093,14.649664 C0.771004163,14.8331083 0.616765113,15.247049 0.758796898,15.6125545 C1.85810824,18.4716567 4.0494737,20.7761071 6.8496925,22.0177695 C7.36218636,22.2446927 7.94022732,21.8820755 7.94022732,21.3212838 L7.94022732,12.3398001 C7.94022732,11.7632925 7.32807123,11.3930089 6.81749394,11.660947 Z" id="路径" fill="url(#linearGradient-5)"></path>
                <path d="M3.37148062,4.32082363 C3.0357857,4.1226084 2.60493119,4.20637653 2.36795861,4.51593162 C0.667852091,6.72925461 -0.164680135,9.4876396 0.0270461257,12.2719531 C0.0649944412,12.8254618 0.659134664,13.1585637 1.15054613,12.9005918 L8.7973225,8.89110358 C9.32898217,8.61243264 9.34853132,7.85806622 8.83182098,7.55256315 L3.37148062,4.32082363 Z" id="路径" fill="url(#linearGradient-6)"></path>
            </g>
        </g>
    </g>
</svg>