<svg xmlns="http://www.w3.org/2000/svg" xmlns:xlink="http://www.w3.org/1999/xlink" width="36" height="36" viewBox="0 0 36 36"><title>ic_company</title><defs><circle id="a" cx="18" cy="18" r="18"/><path id="c" d="M7.623 4.622c-.619 0-1.288.273-1.678.752-.57.625-.726 1.342-.64 2.15.29 2.737 4.337 5.51 4.508 5.626.032.022.075.056.089.056.013 0 .061-.034.093-.056.172-.115 4.219-2.877 4.51-5.614.086-.808-.068-1.532-.638-2.156-.39-.48-1.046-.755-1.664-.755-.798 0-1.585.399-2.283 1.177-.699-.777-1.5-1.18-2.297-1.18z"/><filter id="d" width="132.5%" height="134.9%" x="-16.2%" y="-17.5%" filterUnits="objectBoundingBox"><feOffset in="SourceAlpha" result="shadowOffsetOuter1"/><feGaussianBlur in="shadowOffsetOuter1" result="shadowBlurOuter1" stdDeviation=".5"/><feColorMatrix in="shadowBlurOuter1" values="0 0 0 0 0.960784314 0 0 0 0 0.670588235 0 0 0 0 0.631372549 0 0 0 0.5 0"/></filter></defs><g fill="none" fill-rule="evenodd"><mask id="b" fill="#fff"><use xlink:href="#a"/></mask><use fill="#F7F7F7" xlink:href="#a"/><g mask="url(#b)"><path fill="#FF3671" d="M22.529 8.8c2.916 0 5.28 2.364 5.28 5.28V27.652c0 .53-.429.959-.958.959-.588 0-1.125-.332-1.39-.856l-.858-1.701H13.281C10.364 26.053 8 23.69 8 20.773V14.08C8 11.164 10.364 8.8 13.28 8.8h9.249z"/><g transform="translate(8 8.8)"><use fill="#000" filter="url(#d)" xlink:href="#c"/><use fill="#FFF" xlink:href="#c"/></g></g></g></svg>