<?xml version="1.0" encoding="UTF-8"?>
<svg width="28px" height="28px" viewBox="0 0 28 28" version="1.1" xmlns="http://www.w3.org/2000/svg" xmlns:xlink="http://www.w3.org/1999/xlink">
    <!-- Generator: Sketch 61.2 (89653) - https://sketch.com -->
    <title>ic_discover_entertainment</title>
    <desc>Created with Sketch.</desc>
    <defs>
        <rect id="path-1" x="0" y="0" width="28" height="28"></rect>
        <linearGradient x1="50%" y1="2.42029139%" x2="50%" y2="100%" id="linearGradient-3">
            <stop stop-color="#9F7CFF" offset="0%"></stop>
            <stop stop-color="#A985FF" offset="100%"></stop>
        </linearGradient>
        <linearGradient x1="14.383145%" y1="31.4353202%" x2="65.9289955%" y2="71.8123561%" id="linearGradient-4">
            <stop stop-color="#C592FF" offset="0%"></stop>
            <stop stop-color="#C391FF" offset="0%"></stop>
            <stop stop-color="#9973FF" offset="100%"></stop>
        </linearGradient>
    </defs>
    <g id="ic_discover_entertainment" stroke="none" stroke-width="1" fill="none" fill-rule="evenodd">
        <g>
            <mask id="mask-2" fill="white">
                <use xlink:href="#path-1"></use>
            </mask>
            <g id="#"></g>
            <g id="ic" mask="url(#mask-2)">
                <g transform="translate(13.442873, 14.059045) rotate(35.000000) translate(-13.442873, -14.059045) translate(4.442873, -1.440955)">
                    <path d="M2.52573529,17.4375 C1.69730817,17.4375 1.02573529,16.7659271 1.02573529,15.9375 L1.02573529,15.8602941 C1.02573529,15.031867 1.69730817,14.3602941 2.52573529,14.3602941 L15.9375,14.3602941 C16.7659271,14.3602941 17.4375,15.031867 17.4375,15.8602941 L17.4375,15.9375 C17.4375,16.7659271 16.7659271,17.4375 15.9375,17.4375 L14.3602941,17.4375 L13.6752895,25.6575549 C13.5192037,27.5305845 12.2206513,29.0532379 10.4994542,29.5631836 L10.4585162,29.7662426 C10.3415483,30.3510819 9.82803899,30.7720588 9.23161765,30.7720588 C8.6351963,30.7720588 8.12168696,30.3510819 8.00471911,29.7662426 L7.96277561,29.5628855 C6.24207826,29.0526449 4.94400115,27.5302197 4.78794575,25.6575549 L4.10294118,17.4375 L2.52573529,17.4375 Z M9.3803951,19.9471087 C9.21390552,19.8649411 9.01232912,19.9332977 8.93016161,20.0997872 L8.93016161,20.0997872 L8.86137613,20.2391618 C8.71571412,20.5343053 8.43414853,20.7388747 8.10843837,20.7862031 L8.10843837,20.7862031 L7.95462937,20.8085529 C7.88146627,20.8191841 7.81384816,20.8536373 7.76224313,20.9065786 C7.63264907,21.0395284 7.63536946,21.2523623 7.76831929,21.3819564 L7.76831929,21.3819564 L7.87961653,21.4904444 C8.11530262,21.7201815 8.2228511,22.0511817 8.16721316,22.3755758 L8.16721316,22.3755758 L8.14093945,22.5287633 C8.1284417,22.6016308 8.14031344,22.676586 8.1747168,22.7420251 C8.26111284,22.9063601 8.46437054,22.9695421 8.62870557,22.8831461 L8.62870557,22.8831461 L8.76627652,22.8108208 C9.05760054,22.6576627 9.40563475,22.6576627 9.69695877,22.8108208 L9.69695877,22.8108208 L9.83452973,22.8831461 C9.8999688,22.9175495 9.97492405,22.9294212 10.0477915,22.9169235 C10.2307813,22.8855383 10.353681,22.711753 10.3222958,22.5287633 L10.3222958,22.5287633 L10.2960221,22.3755758 C10.2403842,22.0511817 10.3479327,21.7201815 10.5836188,21.4904444 L10.5836188,21.4904444 L10.694916,21.3819564 C10.7478573,21.3303513 10.7823105,21.2627332 10.7929417,21.1895701 C10.8196395,21.005838 10.6923381,20.8352507 10.5086059,20.8085529 L10.5086059,20.8085529 L10.3547969,20.7862031 C10.0290868,20.7388747 9.74752117,20.5343053 9.60185916,20.2391618 L9.60185916,20.2391618 L9.53307369,20.0997872 C9.50035415,20.0334902 9.44669212,19.9798282 9.3803951,19.9471087 Z" id="base" fill="url(#linearGradient-3)"></path>
                    <path d="M8.8405043,0.322414328 C13.372488,0.322414328 17.0463866,3.996313 17.0463866,8.52829668 C17.0463866,10.0829793 16.633117,11.527147 15.8065778,12.8607997 C15.6242608,13.155041 15.3027288,13.3340445 14.9565822,13.3340445 L2.73194522,13.3340445 C2.38245505,13.3340864 2.05831982,13.1516361 1.87700775,12.8528564 C1.04875054,11.4879917 0.634621943,10.0464718 0.634621943,8.52829668 C0.634621943,3.996313 4.30852061,0.322414328 8.8405043,0.322414328 Z" id="路径" fill="url(#linearGradient-4)"></path>
                </g>
            </g>
        </g>
    </g>
</svg>