<svg xmlns="http://www.w3.org/2000/svg" xmlns:xlink="http://www.w3.org/1999/xlink" width="36" height="36" viewBox="0 0 36 36"><title>ic_cp</title><defs><circle id="a" cx="18" cy="18" r="18"/><path id="c" d="M6.09 2.104C5 2.109 3.82 2.609 3.13 3.48 2.122 4.616 1.84 5.917 1.986 7.379c.487 4.955 7.582 9.942 7.882 10.15.057.039.132.1.155.1.024 0 .109-.062.166-.102.302-.211 7.447-5.248 7.983-10.207.158-1.464-.106-2.773-1.104-3.898-.682-.865-1.832-1.358-2.92-1.353-1.404.007-2.792.736-4.027 2.152C8.898 2.82 7.493 2.097 6.09 2.104z"/></defs><g fill="none" fill-rule="evenodd"><mask id="b" fill="#fff"><use xlink:href="#a"/></mask><use fill="#F7F7F7" xlink:href="#a"/><g mask="url(#b)"><path fill="#FFB8CD" d="M21.624 12.96c-.88-.208-1.921-.032-2.634.54-1.018.724-1.477 1.723-1.623 2.937-.492 4.112 4.342 9.537 4.547 9.764.038.043.088.108.107.112.02.005.099-.03.152-.05.282-.113 6.95-2.804 8.269-6.72.39-1.157.41-2.27-.194-3.376-.396-.834-1.236-1.458-2.115-1.666-1.134-.268-2.384.053-3.635.96-.735-1.375-1.74-2.233-2.874-2.501z"/><g transform="translate(5.4 8.8)"><mask id="d" fill="#fff"><use xlink:href="#c"/></mask><use fill="#FF3671" transform="rotate(-13 10.081 9.85)" xlink:href="#c"/><path fill="#FFB8CD" d="M14.685 4.748c-.904-.005-1.88.4-2.446 1.119-.828.934-1.05 2.011-.92 3.227.445 4.117 6.376 8.316 6.627 8.491.047.033.11.085.13.085.02 0 .089-.051.136-.084.25-.172 6.14-4.295 6.545-8.408.12-1.214-.11-2.302-.948-3.245-.573-.724-1.532-1.143-2.436-1.147-1.165-.006-2.31.588-3.325 1.753-1.026-1.174-2.198-1.785-3.363-1.791z" mask="url(#d)" transform="rotate(13 18.036 11.209)"/></g></g></g></svg>