<?xml version="1.0" encoding="UTF-8"?>
<svg width="48px" height="48px" viewBox="0 0 48 48" version="1.1" xmlns="http://www.w3.org/2000/svg" xmlns:xlink="http://www.w3.org/1999/xlink">
    <title>ic_qzone</title>
    <defs>
        <linearGradient x1="24.6913637%" y1="10.4847559%" x2="100%" y2="114.189633%" id="linearGradient-1">
            <stop stop-color="#FFE688" offset="0%"></stop>
            <stop stop-color="#FFA257" offset="100%"></stop>
        </linearGradient>
    </defs>
    <g id="伴伴" stroke="none" stroke-width="1" fill="none" fill-rule="evenodd">
        <g id="分享" transform="translate(-308.000000, -622.000000)">
            <g id="popup_share" transform="translate(20.000000, 607.000000)">
                <g id="ic_qzone" transform="translate(288.000000, 15.000000)">
                    <circle id="base" fill="url(#linearGradient-1)" cx="24" cy="24" r="24"></circle>
                    <path d="M32.7511744,21.1841097 L27.186883,20.1846454 C27.0896386,20.1671066 27.0054093,20.1071826 26.9577694,20.0211941 L24.2604669,15.1537075 C24.2039866,15.0516418 24.0924994,15.0004872 23.9812578,15 C23.8702617,15.001218 23.7590201,15.0528598 23.7030309,15.1554127 L21.033723,20.038002 C20.9865743,20.1242342 20.9028361,20.1846454 20.8055918,20.2026713 L15.2471939,21.2335592 C15.0094855,21.2776497 14.9173981,21.5667952 15.0865934,21.7382851 L19.1435976,25.8550163 C19.2155486,25.9278508 19.2487001,26.0299165 19.233475,26.1307642 L18.3248789,31.654979 C18.2890262,31.8924827 18.5350838,32.0734727 18.7538836,31.9704326 L23.8825401,29.5366894 C23.9269876,29.5157403 23.9748731,29.5052658 24.0230041,29.5052658 C24.0711351,29.5050222 24.1192662,29.5152531 24.1637137,29.5359586 L29.3063675,31.9407142 C29.5256584,32.0422927 29.7704882,31.8598412 29.7334076,31.622581 L29.2061763,28.52943 L29.0251938,27.4673621 C29.8989194,26.850096 30.3232584,26.3185748 30.3735995,26.2396505 C30.4315532,26.1492773 30.3939815,26.0723017 30.3939815,26.0723017 C30.3939815,26.0723017 30.3939815,26.0727889 30.3939815,26.0727889 C28.9851665,26.6576571 25.560496,27.6451854 21.3512405,27.5143756 C20.8429179,27.4987856 20.3370509,27.4442207 20.0534215,27.3937968 C19.7489191,27.3399626 19.6993146,27.015496 19.8847174,26.8603269 C21.0626999,25.8732858 24.984397,23.074883 25.0450519,23.0276258 C25.1165118,22.9718429 25.1199497,22.8907262 25.054629,22.8354305 C24.9632783,22.7584549 22.8128524,22.0133022 19.5254536,22.5214384 C19.3010058,22.5562723 19.1681543,22.2525111 19.3876908,22.1365606 C20.3129853,21.6476683 22.4236295,21.0411203 24.5740553,21.0523256 C26.0766768,21.0603642 27.3757236,21.5029737 27.7440734,21.7714138 C27.9363519,21.9112365 27.8953423,22.0841879 27.7379342,22.2169464 C26.9310027,22.8985212 24.6406039,24.4835845 23.8407938,25.0954916 C23.7467418,25.1675952 23.7816122,25.2781867 23.8840135,25.3166745 C25.2621327,25.8350416 27.3244002,25.9919159 28.7754527,26.0006852 L32.9147217,21.6878612 C33.0826892,21.515397 32.9891283,21.2267386 32.7511744,21.1841097" id="Fill-203" fill="#FFFFFF"></path>
                </g>
            </g>
        </g>
    </g>
</svg>