<?xml version="1.0" encoding="UTF-8"?>
<svg width="48px" height="48px" viewBox="0 0 48 48" version="1.1" xmlns="http://www.w3.org/2000/svg" xmlns:xlink="http://www.w3.org/1999/xlink">
    <!-- Generator: Sketch 64 (93537) - https://sketch.com -->
    <title>QQ</title>
    <desc>Created with Sketch.</desc>
    <g id="登陆注册流程" stroke="none" stroke-width="1" fill="none" fill-rule="evenodd">
        <g id="登录-已有手机" transform="translate(-90.000000, -704.000000)">
            <g id="其他登录方式" transform="translate(43.000000, 671.000000)">
                <g id="QQ" transform="translate(47.000000, 33.000000)">
                    <circle id="椭圆形" fill="#638CFF" fill-rule="nonzero" cx="24" cy="24" r="24"></circle>
                    <path d="M30.8204213,29.1388881 C30.4456291,29.1824428 29.3617152,27.4907043 29.3617152,27.4907043 C29.3617152,28.4702552 28.8370427,29.748478 27.7017529,30.671564 C28.2493494,30.8337515 29.4850743,31.2705484 29.1911057,31.7472282 C28.9531872,32.1328923 25.1099721,31.9934977 24.0004718,31.8733415 C22.8908903,31.9934977 19.0476751,32.1328923 18.8097567,31.7472282 C18.5157068,31.270607 19.75007,30.8342984 20.2984795,30.6717007 C19.1630271,29.7486342 18.638192,28.4703138 18.638192,27.4907043 C18.638192,27.4907043 17.5543391,29.1824428 17.1795672,29.1388881 C17.0049948,29.1185951 16.7755712,28.2125208 17.4835346,26.023126 C17.8171935,24.9911728 18.1987125,24.133243 18.7888649,22.7175202 C18.6894866,19.0644925 20.2600492,16 23.9999841,16 C27.6982573,16 29.3051773,19.0041409 29.2111845,22.7175983 C29.8003208,24.1308016 30.1838314,24.9941415 30.5165352,26.023126 C31.2243359,28.2125208 30.995075,29.118517 30.8204213,29.1388881 Z" id="Fill-1" fill="#FFFFFF"></path>
                </g>
            </g>
        </g>
    </g>
</svg>