<svg xmlns="http://www.w3.org/2000/svg" width="20" height="20" viewBox="0 0 20 20"><title>路径</title><path fill="#FFF" fill-rule="nonzero" d="M19.88 13.922c-.34-.627-1.14-.946-1.895-.752l-3.874.999 5.632-8.526c.255-.382.175-.87-.193-1.17l-.14-.116c-.422-.347-1.081-.333-1.486.03L12.81 9.14l3.932-7.448c.23-.432.04-.947-.433-1.178l-.342-.166c-.555-.27-1.252-.106-1.583.371L9.484 7.987l2.3-6.639c.09-.275.05-.572-.111-.82-.162-.248-.433-.427-.748-.495-.593-.128-1.209.122-1.485.605l-3.53 6.26.685-4.272c.096-.602-.348-1.169-1.02-1.3l-.039-.008c-.658-.128-1.32.204-1.533.77L.186 12.217s-1.517 4.686 4.107 6.91c5 1.98 8.97.108 10.704-.905 1.192-.698 3.695-2.32 4.637-2.892.4-.244.456-1.02.246-1.41z"/></svg>