<svg xmlns="http://www.w3.org/2000/svg" width="36" height="36" viewBox="0 0 36 36"><title>ic_script_toolbar_biji</title><g fill="none" fill-rule="evenodd"><path d="M6 6h24v24H6z"/><path stroke="#FFF" stroke-linecap="round" stroke-width="2" d="M26 18v4.8c0 1.767-1.433 3.2-3.2 3.2h-9.6c-1.767 0-3.2-1.433-3.2-3.2v-9.6c0-1.767 1.433-3.2 3.2-3.2H18"/><path fill="#FFF" d="M14.954 19.718l9.85-9.85c.39-.39 1.023-.39 1.414 0 .39.39.39 1.024 0 1.414l-9.85 9.85c-.39.39-1.023.39-1.414 0-.39-.39-.39-1.024 0-1.414z"/></g></svg>