<svg xmlns="http://www.w3.org/2000/svg" width="36" height="36" viewBox="0 0 36 36"><title>ic_script_toolbar_biji</title><g fill="none" fill-rule="evenodd"><path fill="#FFF" fill-rule="nonzero" d="M20.5 8c1.933 0 3.5 1.567 3.5 3.5 0 .537-.121 1.046-.337 1.501L24.5 13c1.38 0 2.5 1.12 2.5 2.5v2c0 1.21-.859 2.218-2 2.45V24c0 1.657-1.343 3-3 3h-8c-1.657 0-3-1.343-3-3v-4.05c-1.14-.231-2-1.24-2-2.45v-2c0-1.38 1.12-2.5 2.5-2.5l.837.001c-.216-.455-.337-.964-.337-1.501C12 9.567 13.567 8 15.5 8c.98 0 1.866.403 2.501 1.052C18.634 8.402 19.52 8 20.5 8zM23 20H13v4c0 .552.448 1 1 1h8c.552 0 1-.448 1-1v-4zm-6-5h-5.5c-.276 0-.5.224-.5.5v2c0 .276.224.5.5.5H17v-3zm7.5 0H19v3h5.5c.276 0 .5-.224.5-.5v-2c0-.276-.224-.5-.5-.5zm-9-5c-.828 0-1.5.672-1.5 1.5s.672 1.5 1.5 1.5H17v-1.5c0-.828-.672-1.5-1.5-1.5zm5 0c-.828 0-1.5.672-1.5 1.5V13h1.5c.828 0 1.5-.672 1.5-1.5s-.672-1.5-1.5-1.5z"/></g></svg>