<svg xmlns="http://www.w3.org/2000/svg" width="36" height="36" viewBox="0 0 36 36"><title>ic_script_toolbar_guanmai</title><path fill="#FFF" fill-rule="nonzero" d="M11.207 10.282L16.925 16l4.325 4.324v.001l1.668 1.668 1.176 1.175h-.001l1.963 1.964c.39.39.39 1.023 0 1.414-.39.39-1.023.39-1.414 0l-2.027-2.027c-1.05.743-2.284 1.238-3.615 1.401V27c0 .552-.448 1-1 1s-1-.448-1-1v-1.08c-3.92-.48-7-3.84-7-7.92v-1c0-.552.448-1 1-1s1 .448 1 1v1c0 3.32 2.68 6 6 6 1.172 0 2.264-.334 3.186-.912l-1.476-1.474c-.52.247-1.1.386-1.71.386-2.2 0-4-1.8-4-4l-.001-2.098-4.206-4.205c-.39-.39-.39-1.024 0-1.415.39-.39 1.024-.39 1.414 0zM25 16c.552 0 1 .448 1 1v1c0 1.24-.284 2.412-.79 3.458l-1.526-1.526c.205-.606.316-1.256.316-1.932v-1c0-.552.448-1 1-1zm-7-8c1.12 0 2.12.44 2.84 1.16.72.72 1.16 1.72 1.16 2.84v6c0 .08-.002.16-.007.24l-7.711-7.71C14.87 9.05 16.319 8 18 8z"/></svg>