<svg xmlns="http://www.w3.org/2000/svg" width="36" height="36" viewBox="0 0 36 36"><title>ic_script_toolbar_jieduan</title><g fill="none" fill-rule="evenodd"><path d="M6 6h24v24H6z"/><path fill="#FFF" fill-rule="nonzero" d="M10 16.5c-.83 0-1.5.67-1.5 1.5s.67 1.5 1.5 1.5 1.5-.67 1.5-1.5-.67-1.5-1.5-1.5zm0-6c-.83 0-1.5.67-1.5 1.5s.67 1.5 1.5 1.5 1.5-.67 1.5-1.5-.67-1.5-1.5-1.5zm0 12c-.83 0-1.5.68-1.5 1.5s.68 1.5 1.5 1.5 1.5-.68 1.5-1.5-.67-1.5-1.5-1.5zm4 2.5h12c.55 0 1-.45 1-1s-.45-1-1-1H14c-.55 0-1 .45-1 1s.45 1 1 1zm0-6h12c.55 0 1-.45 1-1s-.45-1-1-1H14c-.55 0-1 .45-1 1s.45 1 1 1zm-1-7c0 .55.45 1 1 1h12c.55 0 1-.45 1-1s-.45-1-1-1H14c-.55 0-1 .45-1 1z"/></g></svg>