<svg xmlns="http://www.w3.org/2000/svg" width="36" height="36" viewBox="0 0 36 36"><title>ic_script_toolbar_kaimai</title><g fill="none" fill-rule="nonzero"><path stroke="#00BF8F" stroke-width="2" d="M15 12v6c0 1.648 1.352 3 3 3s3-1.352 3-3v-6c0-.826-.314-1.58-.867-2.133C19.58 9.314 18.826 9 18 9c-1.648 0-3 1.352-3 3z"/><path fill="#00BF8F" d="M26 18c0 4.08-3.08 7.44-7 7.92V27c0 .552-.448 1-1 1s-1-.448-1-1v-1.08c-3.92-.48-7-3.84-7-7.92v-1c0-.552.448-1 1-1s1 .448 1 1v1c0 3.32 2.68 6 6 6s6-2.68 6-6v-1c0-.552.448-1 1-1s1 .448 1 1v1z"/></g></svg>