<svg xmlns="http://www.w3.org/2000/svg" width="24" height="24" viewBox="0 0 24 24"><title>ic_script_yuanzhuo_green</title><g fill="none" fill-rule="evenodd"><path fill="#00BF8F" d="M12 0c6.627 0 12 5.373 12 12s-5.373 12-12 12S0 18.627 0 12 5.373 0 12 0zM6.5 12c-1.105 0-2 .895-2 2 0 1.018.76 1.858 1.742 1.983C7.522 17.833 9.652 19 12 19c1.009 0 1.99-.214 2.89-.623.503-.228.726-.82.498-1.324-.229-.503-.821-.725-1.324-.497-.642.291-1.341.444-2.064.444-1.54 0-2.946-.702-3.872-1.838.234-.327.372-.729.372-1.162 0-1.105-.895-2-2-2zm10.428-4.971c-.392-.389-1.025-.386-1.414.006s-.386 1.025.006 1.414C16.462 9.383 17 10.647 17 12c0 .021 0 .043-.002.064-.862.222-1.498 1.005-1.498 1.936 0 .805.476 1.5 1.162 1.816l.049.033c.16.092.336.134.508.131.092.013.186.02.281.02 1.105 0 2-.895 2-2 0-.523-.2-.999-.53-1.355.02-.213.03-.428.03-.645 0-1.891-.755-3.666-2.072-4.971zM12 4c-.839 0-1.557.516-1.853 1.249-1.96.537-3.609 1.91-4.487 3.78-.235.5-.02 1.096.48 1.33.5.235 1.096.02 1.33-.48.592-1.261 1.674-2.205 2.969-2.629.366.457.93.75 1.561.75 1.105 0 2-.895 2-2s-.895-2-2-2z"/></g></svg>