<svg xmlns="http://www.w3.org/2000/svg" width="24" height="24" viewBox="0 0 24 24"><title>ic_script_gonggong_green</title><g fill="none" fill-rule="evenodd"><path fill="#00BF8F" d="M12 0c6.627 0 12 5.373 12 12s-5.373 12-12 12S0 18.627 0 12 5.373 0 12 0zm0 6c-1.82 0-3.574.673-4.926 1.89L5.81 9.026c-.104.094-.204.194-.298.299-1.478 1.642-1.344 4.171.298 5.649l1.264 1.136C8.426 17.327 10.18 18 12 18c1.82 0 3.574-.673 4.926-1.89l1.264-1.136c.104-.094.204-.194.298-.299 1.478-1.642 1.344-4.171-.298-5.649L16.926 7.89C15.574 6.673 13.82 6 12 6zm0 2c1.325 0 2.604.49 3.589 1.377l1.263 1.136c.821.739.888 2.003.15 2.825-.048.052-.098.102-.15.149l-1.263 1.136C14.604 15.51 13.325 16 12 16c-1.325 0-2.604-.49-3.589-1.377l-1.263-1.136c-.821-.739-.888-2.003-.15-2.825.048-.052.098-.102.15-.149l1.263-1.136C9.396 8.49 10.675 8 12 8zm0 2.5c-.828 0-1.5.672-1.5 1.5s.672 1.5 1.5 1.5 1.5-.672 1.5-1.5-.672-1.5-1.5-1.5z"/></g></svg>