<svg xmlns="http://www.w3.org/2000/svg" width="24" height="24" viewBox="0 0 24 24"><title>ic_script_yuedu_green</title><g fill="none" fill-rule="evenodd"><path fill="#00BF8F" d="M12 0c6.627 0 12 5.373 12 12s-5.373 12-12 12S0 18.627 0 12 5.373 0 12 0zm5 17.5c1.105 0 2-.895 2-2v-7c0-1.105-.895-2-2-2h-2.5c-.98 0-1.866.403-2.501 1.052C11.366 6.902 10.48 6.5 9.5 6.5H7c-1.054 0-1.918.816-1.995 1.85L5 8.5v7c0 1.054.816 1.918 1.85 1.995L7 17.5h10zm-10-9h2.5c.78 0 1.42.595 1.493 1.356L11 10v5.5H7v-7h2.5zm10 0v7h-4V10c0-.828.672-1.5 1.5-1.5H17z"/></g></svg>