<svg xmlns="http://www.w3.org/2000/svg" width="32" height="32" viewBox="0 0 32 32"><title>ic_script_close</title><g fill="#FFF" fill-rule="evenodd"><path fill-rule="nonzero" d="M16 0c8.837 0 16 7.163 16 16s-7.163 16-16 16S0 24.837 0 16 7.163 0 16 0zm0 2C8.268 2 2 8.268 2 16s6.268 14 14 14 14-6.268 14-14S23.732 2 16 2z"/><path d="M11.852 10.233L16 14.382l4.148-4.149c.36-.36.928-.388 1.32-.083l.095.083.204.204c.39.39.39 1.024 0 1.415L17.618 16l4.149 4.148c.39.391.39 1.024 0 1.415l-.204.204c-.39.39-1.024.39-1.415 0L16 17.618l-4.148 4.149c-.36.36-.928.388-1.32.083l-.095-.083-.204-.204c-.39-.39-.39-1.024 0-1.415L14.382 16l-4.149-4.148c-.39-.391-.39-1.024 0-1.415l.204-.204c.39-.39 1.024-.39 1.415 0z"/></g></svg>