<svg xmlns="http://www.w3.org/2000/svg" width="24" height="24" viewBox="0 0 24 24"><title>ic_script_jieshao_green</title><path fill="#00BF8F" fill-rule="evenodd" d="M12 0c6.627 0 12 5.373 12 12s-5.373 12-12 12S0 18.627 0 12 5.373 0 12 0zm0 5.5c-2.158 0-3.917 1.72-3.917 3.852 0 1.042.42 1.986 1.104 2.678C7.309 12.886 6 14.566 6 16.5v.011c0 1.1.902 1.992 1.995 1.992h8.01c1.099 0 1.995-.9 1.995-1.992V16.5c0-1.934-1.31-3.614-3.185-4.47.682-.692 1.102-1.636 1.102-2.678C15.917 7.219 14.158 5.5 12 5.5zm0 7.926c2.219 0 4 1.468 4 3.074v.003H8c0-1.609 1.781-3.077 4-3.077zM12 7.5c1.064 0 1.917.834 1.917 1.852 0 1.018-.853 1.852-1.917 1.852s-1.917-.834-1.917-1.852c0-1.018.853-1.852 1.917-1.852z"/></svg>