<?xml version="1.0" encoding="UTF-8"?>
<svg width="24px" height="24px" viewBox="0 0 24 24" version="1.1" xmlns="http://www.w3.org/2000/svg" xmlns:xlink="http://www.w3.org/1999/xlink">
    <title>ic_script_yuedu_white备份</title>
    <g id="ic_script_yuedu_white备份" stroke="none" stroke-width="1" fill="none" fill-rule="evenodd">
        <path d="M12,0 C18.627417,0 24,5.372583 24,12 C24,18.627417 18.627417,24 12,24 C5.372583,24 0,18.627417 0,12 C0,5.372583 5.372583,0 12,0 Z M11,5 C7.6862915,5 5,7.6862915 5,11 C5,14.3137085 7.6862915,17 11,17 C12.2958935,17 13.4958324,16.589169 14.4766776,15.8906459 L16.2928932,17.7071068 C16.6834175,18.0976311 17.3165825,18.0976311 17.7071068,17.7071068 C18.0976311,17.3165825 18.0976311,16.6834175 17.7071068,16.2928932 L17.7071068,16.2928932 L15.8906459,14.4766776 C16.589169,13.4958324 17,12.2958935 17,11 C17,7.6862915 14.3137085,5 11,5 Z M11,7 C13.209139,7 15,8.790861 15,11 C15,13.209139 13.209139,15 11,15 C8.790861,15 7,13.209139 7,11 C7,8.790861 8.790861,7 11,7 Z" id="形状结合" fill="#FFFFFF"></path>
    </g>
</svg>