<?xml version="1.0" encoding="UTF-8"?>
<svg width="56px" height="56px" viewBox="0 0 56 56" version="1.1" xmlns="http://www.w3.org/2000/svg" xmlns:xlink="http://www.w3.org/1999/xlink">
    <!-- Generator: Sketch 63.1 (92452) - https://sketch.com -->
    <title>小房私聊备份 2</title>
    <desc>Created with Sketch.</desc>
    <defs>
        <linearGradient x1="0%" y1="0%" x2="100%" y2="100%" id="linearGradient-1">
            <stop stop-color="#E65ED5" offset="0%"></stop>
            <stop stop-color="#E6515B" offset="100%"></stop>
        </linearGradient>
        <circle id="path-2" cx="28.0000004" cy="28" r="28"></circle>
    </defs>
    <g id="小房私聊备份-2" stroke="none" stroke-width="1" fill="none" fill-rule="evenodd">
        <g id="1-+-1-+-Combined-Shape-+-Combined-Shape-蒙版">
            <mask id="mask-3" fill="white">
                <use xlink:href="#path-2"></use>
            </mask>
            <use id="蒙版" fill="url(#linearGradient-1)" xlink:href="#path-2"></use>
            <circle id="1" fill="#FFFFFF" opacity="0.100000001" mask="url(#mask-3)" cx="30.5" cy="7.5" r="28.5"></circle>
            <circle id="1" fill="#FFFFFF" opacity="0.100000001" mask="url(#mask-3)" cx="53" cy="18" r="32"></circle>
            <path d="M32.5632,16.6628571 L29.52,16.6628571 L29.52,13.5542857 C29.52,12.6955102 28.8384,12 27.9968,12 C27.1552,12 26.4736,12.6955102 26.4736,13.5542857 L26.4736,16.6628571 L23.4304,16.6628571 C17.1168,16.6628571 12,21.8873469 12,28.3330612 C12,34.7755102 17.1168,40 23.4272,40 L32.5696,40 C38.8832,40 44,34.7755102 44,28.3330612 C44,21.8873469 38.8736,16.6628571 32.5632,16.6628571 Z M24.3828777,29.2119603 L22.52035,29.2119603 L22.52035,31.1228 C22.52035,31.7544031 22.0195022,32.2673802 21.4028334,32.2673802 C20.7892948,32.2673802 20.2853168,31.7544031 20.2853168,31.1228 L20.2853168,29.2119603 L18.422789,29.2119603 C17.8092505,29.2119603 17.3052724,28.6989832 17.3052724,28.0673802 C17.3052724,27.4357771 17.8061202,26.9228 18.422789,26.9228 L20.2853168,26.9228 L20.2853168,25.0119603 C20.2853168,24.3803572 20.7861645,23.8673802 21.4028334,23.8673802 C22.0163719,23.8673802 22.52035,24.3803572 22.52035,25.0119603 L22.52035,26.9228 L24.3828777,26.9228 C24.9964163,26.9228 25.5003944,27.4357771 25.5003944,28.0673802 C25.4972641,28.6989832 24.9995466,29.2119603 24.3828777,29.2119603 Z M33.0726785,27.5934216 C32.5543477,27.5943147 32.0570422,27.3837813 31.6908343,27.0084174 C31.3246264,26.6330535 31.1197186,26.1238167 31.1214425,25.5934216 C31.1214425,24.4860384 31.9904926,23.5934216 33.0726785,23.5934216 C34.1548644,23.5934216 35.0238925,24.4860384 35.0238925,25.5934216 C35.0238925,26.700802 34.151585,27.5934216 33.0726785,27.5934216 Z M36.7973368,32.3415366 C36.279006,32.3424297 35.7817005,32.1318962 35.4154926,31.7565324 C35.0492847,31.3811685 34.8443769,30.8719317 34.8461008,30.3415366 C34.8461008,29.2341534 35.7151509,28.3415366 36.7973368,28.3415366 C37.8795227,28.3415366 38.7485508,29.2341534 38.7485508,30.3415366 C38.7485508,31.4489169 37.872964,32.3415366 36.7973368,32.3415366 Z" id="形状" fill="#FFFFFF" fill-rule="nonzero" mask="url(#mask-3)"></path>
        </g>
    </g>
</svg>