<svg xmlns="http://www.w3.org/2000/svg" xmlns:xlink="http://www.w3.org/1999/xlink" width="56" height="56" viewBox="0 0 56 56"><title>小房私聊</title><defs><linearGradient id="b" x1="0%" x2="100%" y1="0%" y2="100%"><stop offset="0%" stop-color="#5E94E6"/><stop offset="100%" stop-color="#8151E6"/></linearGradient><circle id="a" cx="28" cy="28" r="28"/></defs><g fill="none" fill-rule="evenodd"><mask id="c" fill="#fff"><use xlink:href="#a"/></mask><use fill="url(#b)" xlink:href="#a"/><circle cx="30.5" cy="7.5" r="28.5" fill="#FFF" mask="url(#c)" opacity=".1"/><circle cx="53" cy="18" r="32" fill="#FFF" mask="url(#c)" opacity=".1"/><g fill="#FFF" mask="url(#c)"><path d="M13.999 28.505c.692 5.23 4.944 9.097 10.53 10.502-1.3.665-2.85 1.034-4.497 1.034l-.005.105c-.078.894-1.156 1.48-2.475.734 0 0-1.014-.307-2.99-2.3C12.944 36.948 12 35.25 12 33.271c0-1.775.714-3.401 1.9-4.663z"/><path d="M29.668 14c7.738 0 14.01 5.592 14.01 12.491 0 3.4-1.625 6.32-4.403 9.122-3.398 3.428-6.875 5.001-6.875 5.001-1.396.756-2.529.085-2.529-1.515v-.973c-7.737 0-14.212-4.736-14.212-11.635S21.931 14 29.67 14zm-.03 10.631c-1.16 0-2.1.94-2.1 2.1 0 1.16.94 2.1 2.1 2.1 1.159 0 2.1-.94 2.1-2.1 0-1.16-.941-2.1-2.1-2.1zm-6.6 0c-1.16 0-2.1.94-2.1 2.1 0 1.16.94 2.1 2.1 2.1 1.159 0 2.1-.94 2.1-2.1 0-1.16-.941-2.1-2.1-2.1zm13.2 0c-1.16 0-2.1.94-2.1 2.1 0 1.16.94 2.1 2.1 2.1 1.159 0 2.1-.94 2.1-2.1 0-1.16-.941-2.1-2.1-2.1z"/></g></g></svg>