<svg xmlns="http://www.w3.org/2000/svg" xmlns:xlink="http://www.w3.org/1999/xlink" width="56" height="56" viewBox="0 0 56 56"><title>投票下一阶段</title><defs><linearGradient id="b" x1="0%" x2="98.657%" y1="0%" y2="98.657%"><stop offset="0%" stop-color="#5ACEEF"/><stop offset="100%" stop-color="#5280F3"/></linearGradient><rect id="a" width="56" height="56" x="0" y="0" rx="28"/></defs><g fill="none" fill-rule="evenodd"><g><mask id="c" fill="#fff"><use xlink:href="#a"/></mask><use fill="url(#b)" xlink:href="#a"/><circle cx="28.5" cy="7.5" r="28.5" fill="#FFF" mask="url(#c)" opacity=".1"/><circle cx="51" cy="18" r="32" fill="#FFF" mask="url(#c)" opacity=".1"/></g><path fill="#FFF" d="M30.5 33c1.38 0 2.5 1.12 2.5 2.5S31.88 38 30.5 38h-12c-1.38 0-2.5-1.12-2.5-2.5s1.12-2.5 2.5-2.5h12zm8-8c1.38 0 2.5 1.12 2.5 2.5S39.88 30 38.5 30h-20c-1.38 0-2.5-1.12-2.5-2.5s1.12-2.5 2.5-2.5h20zm-4-8c1.38 0 2.5 1.12 2.5 2.5S35.88 22 34.5 22h-16c-1.38 0-2.5-1.12-2.5-2.5s1.12-2.5 2.5-2.5h16z"/></g></svg>