<svg xmlns="http://www.w3.org/2000/svg" xmlns:xlink="http://www.w3.org/1999/xlink" width="56" height="56" viewBox="0 0 56 56"><title>奖杯</title><defs><linearGradient id="b" x1="0%" x2="100%" y1="0%" y2="100%"><stop offset="0%" stop-color="#2ECC86"/><stop offset="100%" stop-color="#37A8CC"/></linearGradient><circle id="a" cx="28" cy="28" r="28"/></defs><g fill="none" fill-rule="evenodd"><g><mask id="c" fill="#fff"><use xlink:href="#a"/></mask><use fill="url(#b)" xlink:href="#a"/><circle cx="31.5" cy="8.5" r="28.5" fill="#FFF" mask="url(#c)" opacity=".1"/><circle cx="54" cy="19" r="32" fill="#FFF" mask="url(#c)" opacity=".1"/></g><path fill="#FFF" d="M28.5 15C34.851 15 40 20.149 40 26.5V37h2.5c.828 0 1.5.672 1.5 1.5s-.672 1.5-1.5 1.5h-28c-.828 0-1.5-.672-1.5-1.5s.672-1.5 1.5-1.5H17V26.5C17 20.149 22.149 15 28.5 15zm.706 7.11l-5.085 5.013c-.794.785-.238 2.139.879 2.139h3.986l-2.849 2.855c-.488.488-.487 1.28.002 1.768.488.487 1.28.487 1.767-.002l4.979-4.988c.786-.788.228-2.133-.885-2.133h-3.956l2.92-2.873c.49-.485.495-1.276.01-1.768-.485-.49-1.277-.495-1.768-.01z"/></g></svg>