<svg xmlns="http://www.w3.org/2000/svg" xmlns:xlink="http://www.w3.org/1999/xlink" width="56" height="56" viewBox="0 0 56 56"><title>1 + 形状结合 + 1 蒙版</title><defs><linearGradient id="b" x1="0%" x2="100%" y1="0%" y2="100%"><stop offset="0%" stop-color="#F2C841"/><stop offset="100%" stop-color="#F26464"/></linearGradient><circle id="a" cx="28" cy="28" r="28"/><linearGradient id="d" x1="0%" x2="100%" y1="7.396%" y2="92.604%"><stop offset="0%" stop-color="#FFF"/><stop offset="100%" stop-color="#FFF"/></linearGradient></defs><g fill="none" fill-rule="evenodd"><mask id="c" fill="#fff"><use xlink:href="#a"/></mask><use fill="url(#b)" xlink:href="#a"/><circle cx="33.5" cy="10.5" r="28.5" fill="#FFF" mask="url(#c)" opacity=".1"/><path fill="url(#d)" d="M29.787 15.532l9.047 6.006c1.353.898 2.166 2.414 2.166 4.038v10.193C41 37.554 39.554 39 37.77 39h-6.52v-6.364c0-1.795-1.455-3.25-3.25-3.25s-3.25 1.455-3.25 3.25V39h-6.52C16.447 39 15 37.554 15 35.77V25.575c0-1.624.813-3.14 2.166-4.038l9.047-6.006c1.083-.719 2.491-.719 3.574 0z" mask="url(#c)"/><circle cx="56" cy="21" r="32" fill="#FFF" mask="url(#c)" opacity=".1"/></g></svg>