<svg xmlns="http://www.w3.org/2000/svg" width="16" height="16" viewBox="0 0 16 16"><title>ic_script_head_taopao</title><g fill="none" fill-rule="evenodd"><circle cx="8" cy="8" r="8" fill="#909090"/><path fill="#FFF" fill-rule="nonzero" stroke="#FFF" stroke-width=".5" d="M8.831 4.547c.563 0 1.024-.461 1.024-1.024S9.395 2.5 8.83 2.5c-.563 0-1.023.46-1.023 1.023s.46 1.024 1.023 1.024zM7.21 10.686l.292-1.279 1.074 1.023v2.558c0 .282.23.512.512.512.281 0 .512-.23.512-.512v-2.885c0-.282-.113-.548-.317-.742l-.758-.721.307-1.535c.548.634 1.34 1.09 2.231 1.233.307.046.583-.2.583-.512 0-.25-.184-.46-.435-.501-.777-.128-1.422-.589-1.765-1.192l-.511-.819c-.205-.307-.512-.512-.87-.512-.154 0-.256.051-.41.051l-2.036.86c-.378.164-.624.532-.624.947v1.212c0 .281.23.512.512.512.281 0 .511-.23.511-.512V6.644l.921-.358-.818 4.144-2.006-.41c-.276-.055-.547.124-.604.4v.02c-.056.277.123.548.4.604l2.102.42c.543.107 1.075-.236 1.197-.778z"/></g></svg>