<?xml version="1.0" encoding="UTF-8"?>
<svg width="20px" height="20px" viewBox="0 0 20 20" version="1.1" xmlns="http://www.w3.org/2000/svg" xmlns:xlink="http://www.w3.org/1999/xlink">
    <!-- Generator: Sketch 63.1 (92452) - https://sketch.com -->
    <title>形状结合</title>
    <desc>Created with Sketch.</desc>
    <g id="谁是凶手" stroke="none" stroke-width="1" fill="none" fill-rule="evenodd" opacity="0.300000012">
        <g id="游戏房_准备_邀请" transform="translate(-236.000000, -123.000000)" fill="#FFFFFF">
            <g id="房间人" transform="translate(8.000000, 107.000000)">
                <g id="形状结合">
                    <path d="M238,16 C238.552285,16 239,16.4477153 239,17 L239,25 L247,25 C247.552285,25 248,25.4477153 248,26 C248,26.5522847 247.552285,27 247,27 L239,27 L239,35 C239,35.5522847 238.552285,36 238,36 C237.447715,36 237,35.5522847 237,35 L237,27 L229,27 C228.447715,27 228,26.5522847 228,26 C228,25.4477153 228.447715,25 229,25 L237,25 L237,17 C237,16.4477153 237.447715,16 238,16 Z"></path>
                </g>
            </g>
        </g>
    </g>
</svg>