<svg xmlns="http://www.w3.org/2000/svg" width="16" height="16" viewBox="0 0 16 16"><title>ic_script_head_taopao备份</title><g fill="none" fill-rule="evenodd"><circle cx="8" cy="8" r="8" fill="#909090"/><g fill="#FFF" fill-rule="nonzero"><path d="M7.268 4.175l.221-.221c1.27-1.27 3.327-1.27 4.596 0 1.226 1.225 1.268 3.186.127 4.462l-.127.134-.22.22-1.061-1.06.22-.22c.684-.684.684-1.792 0-2.476-.649-.649-1.681-.681-2.369-.097l-.105.097-.221.221-1.06-1.06.22-.221-.22.22zM4.175 7.268l1.06 1.06-.22.222c-.684.683-.684 1.791 0 2.475.649.649 1.681.681 2.369.097l.105-.097.221-.221 1.06 1.06-.22.221c-1.27 1.27-3.327 1.27-4.596 0C2.728 10.86 2.686 8.9 3.827 7.623l.127-.134.22-.22zM9.08 9.08c.268-.269.69-.291.984-.067l.076.067 1.194 1.193c.293.293.293.768 0 1.061-.269.268-.69.29-.984.067l-.077-.067L9.08 10.14c-.293-.293-.293-.767 0-1.06zM4.703 4.703c.269-.268.69-.29.984-.067l.077.067 1.193 1.194c.293.293.293.767 0 1.06-.268.269-.69.291-.984.067l-.076-.067-1.194-1.193c-.293-.293-.293-.768 0-1.06z"/></g></g></svg>