<svg xmlns="http://www.w3.org/2000/svg" width="20" height="20" viewBox="0 0 20 20"><title>形状</title><path fill="#FFF" fill-rule="nonzero" d="M10.003 0c5.513 0 10 4.486 10 10s-4.486 10-10 10c-5.515 0-10-4.485-10-10 0-5.513 4.486-10 10-10zm0 12.934c-1.033 0-1.991.291-2.63.801-.27.246-.303.66-.075.946.229.285.64.344.94.135.385-.308 1.061-.5 1.765-.5.703 0 1.38.192 1.765.5.122.098.275.151.431.151.295 0 .557-.185.654-.462.098-.278.009-.587-.221-.77-.639-.509-1.597-.801-2.63-.801zM6.588 6.277c-.552 0-1.007.418-1.065.954l-.006.117v1.43c0 .59.48 1.07 1.071 1.07.553 0 1.007-.417 1.066-.954l.006-.117V7.348c0-.592-.48-1.071-1.072-1.071zm6.876 0c-.552 0-1.007.418-1.065.954l-.006.117v1.43c0 .59.48 1.07 1.071 1.07.552 0 1.007-.418 1.065-.954l.007-.117V7.348c0-.592-.48-1.071-1.072-1.071z"/></svg>