<svg xmlns="http://www.w3.org/2000/svg" width="32" height="32" viewBox="0 0 32 32"><title>编组 8</title><g fill="none" fill-rule="evenodd"><circle cx="16" cy="16" r="16" stroke="#FFF" stroke-opacity=".205"/><path fill="#FFF" fill-rule="nonzero" d="M21.657 10.343c.52.52.52 1.365 0 1.886l-3.771 3.77 3.77 3.772c.522.52.522 1.365 0 1.886-.52.52-1.364.52-1.885 0L16 17.885l-3.771 3.772c-.52.52-1.365.52-1.886 0-.52-.52-.52-1.365 0-1.886L14.114 16l-3.77-3.77c-.522-.52-.522-1.365 0-1.886.52-.52 1.364-.52 1.885 0L16 14.113l3.771-3.77c.52-.52 1.365-.52 1.886 0z"/></g></svg>