<svg xmlns="http://www.w3.org/2000/svg" width="32" height="32" viewBox="0 0 32 32"><title>ic_round_lock</title><g fill="none" fill-rule="evenodd"><path d="M0 0h32v32H0z"/><path d="M0 0h32v32H0z" opacity=".87"/><path fill="#FFF" fill-rule="nonzero" d="M24 10.667h-1.333V8c0-3.68-2.987-6.667-6.667-6.667-3.68 0-6.667 2.987-6.667 6.667v2.667H8c-1.467 0-2.667 1.2-2.667 2.666v13.334c0 1.466 1.2 2.666 2.667 2.666h16c1.467 0 2.667-1.2 2.667-2.666V13.333c0-1.466-1.2-2.666-2.667-2.666zm-8 12c-1.467 0-2.667-1.2-2.667-2.667 0-1.467 1.2-2.667 2.667-2.667 1.467 0 2.667 1.2 2.667 2.667 0 1.467-1.2 2.667-2.667 2.667zm-4-12V8c0-2.213 1.787-4 4-4s4 1.787 4 4v2.667h-8z"/></g></svg>