<svg xmlns="http://www.w3.org/2000/svg" width="36" height="36" viewBox="0 0 36 36"><title>ic_yaoqing</title><g fill="none" fill-rule="evenodd"><path stroke="#FFF" stroke-width="2" d="M16.5 17c-2.21 0-4-1.79-4-4s1.79-4 4-4 4 1.79 4 4-1.79 4-4 4z"/><path fill="#FFF" d="M26 16v-1c0-.552.448-1 1-1s1 .448 1 1v1h1c.552 0 1 .448 1 1s-.448 1-1 1h-1v1c0 .552-.448 1-1 1s-1-.448-1-1v-1h-1c-.552 0-1-.448-1-1s.448-1 1-1h1z"/><path stroke="#FFF" stroke-linecap="round" stroke-width="2" d="M9.095 26.026c.574-2.923 3.677-5.287 7.418-5.287 3.73 0 6.826 2.35 7.413 5.262"/></g></svg>