<?xml version="1.0" encoding="UTF-8"?>
<svg width="40px" height="40px" viewBox="0 0 40 40" version="1.1" xmlns="http://www.w3.org/2000/svg" xmlns:xlink="http://www.w3.org/1999/xlink">
    <!-- Generator: Sketch 63.1 (92452) - https://sketch.com -->
    <title>img_NEW</title>
    <desc>Created with Sketch.</desc>
    <defs>
        <linearGradient x1="0%" y1="50%" x2="90.3805612%" y2="0%" id="linearGradient-1">
            <stop stop-color="#FF9431" offset="0%"></stop>
            <stop stop-color="#FFAF00" offset="100%"></stop>
        </linearGradient>
        <polygon id="path-2" points="13.9130435 0 40 0 0 40 0 13.9130435"></polygon>
        <linearGradient x1="0%" y1="50%" x2="90.3805612%" y2="7.46778249%" id="linearGradient-4">
            <stop stop-color="#FFFFFF" offset="0%"></stop>
            <stop stop-color="#FFAF00" offset="100%"></stop>
        </linearGradient>
        <path d="M40,-1.97619698e-13 L11.4092109,28.5912015 C9.8595745,25.0412404 9,21.1210024 9,17 C9,10.6493985 11.0413032,4.77556894 14.5035577,-0.001136925 L40,-1.97619698e-13 Z" id="path-5"></path>
    </defs>
    <g id="img_NEW" stroke="none" stroke-width="1" fill="none" fill-rule="evenodd">
        <g id="img_xiansuo_green">
            <mask id="mask-3" fill="white">
                <use xlink:href="#path-2"></use>
            </mask>
            <use id="蒙版" fill="url(#linearGradient-1)" xlink:href="#path-2"></use>
            <mask id="mask-6" fill="white">
                <use xlink:href="#path-5"></use>
            </mask>
            <use id="形状结合" fill="url(#linearGradient-4)" opacity="0.200000003" xlink:href="#path-5"></use>
        </g>
        <path d="M8.16768901,17.235689 C8.44768901,17.235689 8.62768901,17.179689 8.70768901,17.067689 C8.78768901,16.955689 8.82768901,16.831689 8.82768901,16.695689 L8.82768901,16.695689 L8.82768901,9.25568901 C8.82768901,9.09568901 8.76768901,8.95168901 8.64768901,8.82368901 C8.52768901,8.69568901 8.32768901,8.63168901 8.04768901,8.63168901 C7.76768901,8.63168901 7.56768901,8.69968901 7.44768901,8.83568901 C7.32768901,8.97168901 7.26768901,9.11168901 7.26768901,9.25568901 L7.26768901,9.25568901 L7.26768901,14.163689 L3.47568901,9.06368901 C3.40368901,8.96768901 3.31768901,8.87168901 3.21768901,8.77568901 C3.11768901,8.67968901 2.98768901,8.63168901 2.82768901,8.63168901 C2.53968901,8.63168901 2.35568901,8.68968901 2.27568901,8.80568901 C2.19568901,8.92168901 2.15568901,9.05168901 2.15568901,9.19568901 L2.15568901,9.19568901 L2.15568901,16.611689 C2.15568901,16.755689 2.21568901,16.895689 2.33568901,17.031689 C2.45568901,17.167689 2.65568901,17.235689 2.93568901,17.235689 C3.21568901,17.235689 3.41568901,17.171689 3.53568901,17.043689 C3.65568901,16.915689 3.71568901,16.771689 3.71568901,16.611689 L3.71568901,16.611689 L3.71568901,11.871689 L7.49568901,16.803689 C7.56768901,16.899689 7.65768901,16.995689 7.76568901,17.091689 C7.87368901,17.187689 8.00768901,17.235689 8.16768901,17.235689 Z M14.611689,17.115689 C14.915689,17.115689 15.131689,17.067689 15.259689,16.971689 C15.387689,16.875689 15.451689,16.699689 15.451689,16.443689 C15.451689,16.187689 15.387689,16.011689 15.259689,15.915689 C15.131689,15.819689 14.915689,15.771689 14.611689,15.771689 L14.611689,15.771689 L11.707689,15.771689 L11.707689,13.467689 L14.491689,13.467689 C14.747689,13.467689 14.931689,13.417689 15.043689,13.317689 C15.155689,13.217689 15.211689,13.047689 15.211689,12.807689 C15.211689,12.567689 15.155689,12.393689 15.043689,12.285689 C14.931689,12.177689 14.747689,12.123689 14.491689,12.123689 L14.491689,12.123689 L11.707689,12.123689 L11.707689,10.095689 L14.611689,10.095689 C14.843689,10.095689 15.023689,10.045689 15.151689,9.94568901 C15.279689,9.84568901 15.339689,9.67168901 15.331689,9.42368901 C15.323689,9.17568901 15.261689,9.00168901 15.145689,8.90168901 C15.029689,8.80168901 14.855689,8.75168901 14.623689,8.75168901 L14.623689,8.75168901 L10.915689,8.75168901 C10.659689,8.75168901 10.467689,8.79968901 10.339689,8.89568901 C10.211689,8.99168901 10.147689,9.16368901 10.147689,9.41168901 L10.147689,9.41168901 L10.147689,16.455689 C10.147689,16.711689 10.215689,16.885689 10.351689,16.977689 C10.487689,17.069689 10.675689,17.115689 10.915689,17.115689 L10.915689,17.115689 L14.611689,17.115689 Z M23.347689,17.235689 C23.611689,17.235689 23.833689,17.165689 24.013689,17.025689 C24.193689,16.885689 24.315689,16.635689 24.379689,16.275689 L24.379689,16.275689 L25.507689,9.29168901 C25.539689,9.11568901 25.505689,8.96168901 25.405689,8.82968901 C25.305689,8.69768901 25.119689,8.63168901 24.847689,8.63168901 C24.631689,8.63168901 24.465689,8.67768901 24.349689,8.76968901 C24.233689,8.86168901 24.155689,9.04368901 24.115689,9.31568901 L24.115689,9.31568901 L23.407689,14.175689 C23.367689,14.471689 23.329689,14.607689 23.293689,14.583689 C23.257689,14.559689 23.203689,14.423689 23.131689,14.175689 C22.899689,13.351689 22.669689,12.543689 22.441689,11.751689 C22.213689,10.959689 21.983689,10.151689 21.751689,9.32768901 C21.671689,9.04768901 21.565689,8.86168901 21.433689,8.76968901 C21.301689,8.67768901 21.131689,8.63168901 20.923689,8.63168901 C20.739689,8.63168901 20.571689,8.68768901 20.419689,8.79968901 C20.267689,8.91168901 20.163689,9.07168901 20.107689,9.27968901 L20.107689,9.27968901 L18.835689,14.187689 C18.771689,14.443689 18.715689,14.575689 18.667689,14.583689 C18.619689,14.591689 18.575689,14.459689 18.535689,14.187689 L18.535689,14.187689 L17.803689,9.25568901 C17.763689,8.96768901 17.677689,8.79168901 17.545689,8.72768901 C17.413689,8.66368901 17.259689,8.63168901 17.083689,8.63168901 C16.803689,8.63168901 16.611689,8.70568901 16.507689,8.85368901 C16.403689,9.00168901 16.367689,9.16768901 16.399689,9.35168901 L16.399689,9.35168901 L17.443689,16.035689 C17.483689,16.283689 17.541689,16.485689 17.617689,16.641689 C17.693689,16.797689 17.779689,16.919689 17.875689,17.007689 C17.971689,17.095689 18.075689,17.155689 18.187689,17.187689 C18.299689,17.219689 18.415689,17.235689 18.535689,17.235689 C18.999689,17.251689 19.299689,17.023689 19.435689,16.551689 L19.435689,16.551689 L20.947689,11.163689 L22.435689,16.431689 C22.523689,16.727689 22.651689,16.935689 22.819689,17.055689 C22.987689,17.175689 23.163689,17.235689 23.347689,17.235689 Z" id="NEW" fill="#FFFFFF" fill-rule="nonzero" transform="translate(13.837507, 12.934082) rotate(-45.000000) translate(-13.837507, -12.934082) "></path>
    </g>
</svg>