<svg xmlns="http://www.w3.org/2000/svg" width="24" height="24" viewBox="0 0 24 24"><title>popup</title><g fill="none" fill-rule="evenodd"><g transform="translate(3 3)"><path fill="#92CFFF" d="M4 2h2v7H4z"/><path fill="#92CFFF" d="M4.293 1.464c.39-.39 1.024-.39 1.414 0l2.829 2.829c.39.39.39 1.024 0 1.414-.391.39-1.024.39-1.415 0L5 3.586 2.879 5.707c-.39.39-1.024.39-1.415 0-.39-.39-.39-1.024 0-1.414l2.829-2.829z"/><circle cx="5" cy="12" r="4" stroke="#92CFFF" stroke-width="2"/></g><g transform="rotate(-180 10.5 10)"><rect width="2" height="7" x="4" fill="#FF9FBC" rx="1"/><rect width="6" height="2" x="2" y="2" fill="#FF9FBC" rx="1"/><circle cx="5" cy="10" r="4" stroke="#FF9FBC" stroke-width="2"/></g></g></svg>