<svg xmlns="http://www.w3.org/2000/svg" xmlns:xlink="http://www.w3.org/1999/xlink" width="28" height="12" viewBox="0 0 28 12"><title>25</title><defs><path id="a" d="M6 0h16a6 6 0 1 1 0 12H6A6 6 0 1 1 6 0z"/><linearGradient id="c" x1="0%" x2="100%" y1="50%" y2="50%"><stop offset="0%" stop-color="#FFF" stop-opacity="0"/><stop offset="50.903%" stop-color="#FFF" stop-opacity=".4"/><stop offset="100%" stop-color="#FFF" stop-opacity="0"/></linearGradient><path id="b" d="M6 0h16a6 6 0 1 1 0 12H6A6 6 0 1 1 6 0z"/><linearGradient id="e" x1="50%" x2="50%" y1="0%" y2="100%"><stop offset="0%" stop-color="#FFF" stop-opacity=".75"/><stop offset="100%" stop-color="#FFF" stop-opacity=".951"/></linearGradient><linearGradient id="f" x1="84.43%" x2="33.446%" y1="44.538%" y2="24.64%"><stop offset="0%" stop-color="#FFF" stop-opacity=".201"/><stop offset="100%" stop-color="#FFF" stop-opacity="0"/></linearGradient><linearGradient id="g" x1="84.43%" x2="33.446%" y1="44.487%" y2="24.404%"><stop offset="0%" stop-color="#FFF" stop-opacity="0"/><stop offset="100%" stop-color="#FFF" stop-opacity=".2"/></linearGradient></defs><g fill="none" fill-rule="evenodd"><g><use fill="#FF7ADC" xlink:href="#a"/><mask id="d" fill="#fff"><use xlink:href="#b"/></mask><path stroke="url(#c)" stroke-width=".6" d="M22 .3H6a5.682 5.682 0 0 0-4.03 1.67A5.682 5.682 0 0 0 .3 6c0 1.574.638 2.999 1.67 4.03A5.682 5.682 0 0 0 6 11.7h16a5.682 5.682 0 0 0 4.03-1.67A5.682 5.682 0 0 0 27.7 6a5.682 5.682 0 0 0-1.67-4.03A5.682 5.682 0 0 0 22 .3z"/><g fill-rule="nonzero" mask="url(#d)"><path fill="url(#e)" d="M7.101.002L5.471 0a.5.5 0 0 0-.38.174l-2.751 3.2L.933 6.283a.5.5 0 0 0 .45.718h.723a.5.5 0 0 0 .384-.18L7.485.822A.5.5 0 0 0 7.1.002z" transform="translate(5 2.5)"/><path fill="#FFF" d="M7.34 5.875V3.004a.5.5 0 0 0-.5-.5H5.29a.29.29 0 1 0 0 .581h.296V9a.5.5 0 0 0 .5.5h.754a.5.5 0 0 0 .5-.5V5.875z"/></g><path fill="url(#f)" style="mix-blend-mode:overlay" d="M8.713-2.4L2.191 12.47H-7.2L-.891-2.4z" mask="url(#d)" opacity=".7"/><path fill="url(#g)" style="mix-blend-mode:overlay" d="M33.165-3.6l-10.479 24H7.6l10.135-24z" mask="url(#d)" opacity=".6"/></g><path fill="#FFF" fill-rule="nonzero" d="M15.88 4.573l-1.372-.205c.11-.664.369-1.173.774-1.526s.912-.53 1.52-.53c.668 0 1.192.181 1.573.542.381.362.571.82.571 1.377 0 .284-.058.568-.175.852-.117.285-.31.584-.576.896-.193.222-.507.535-.943.94a25.02 25.02 0 0 0-.867.83 6.37 6.37 0 0 0-.407.472h2.48L18.195 9.5h-4.351c.046-.352.149-.686.31-1.003.161-.318.362-.613.603-.887.24-.273.682-.714 1.323-1.323a24.8 24.8 0 0 0 .913-.903c.228-.254.384-.474.47-.66a1.23 1.23 0 0 0 .126-.502c0-.241-.07-.437-.212-.586a.71.71 0 0 0-.54-.225.793.793 0 0 0-.58.252c-.167.167-.292.47-.377.91zm3.555 2.876l1.362-.122a3.21 3.21 0 0 0-.005.147c0 .332.074.58.222.747a.739.739 0 0 0 .579.249c.332 0 .634-.159.906-.476.272-.318.407-.756.407-1.316 0-.332-.076-.583-.229-.752a.783.783 0 0 0-.61-.254 1.18 1.18 0 0 0-.53.127c-.171.084-.336.213-.496.386l-1.152-.088 1.089-3.658h3.598l-.263 1.28h-2.378l-.327 1.103a2.14 2.14 0 0 1 .41-.139c.136-.03.272-.046.405-.046.547 0 .996.184 1.348.551.351.368.527.861.527 1.48 0 .495-.123.982-.369 1.462-.245.48-.586.85-1.023 1.106a2.662 2.662 0 0 1-1.372.386c-.608 0-1.109-.197-1.501-.59-.392-.395-.592-.922-.598-1.583z"/></g></svg>