<svg xmlns="http://www.w3.org/2000/svg" xmlns:xlink="http://www.w3.org/1999/xlink" width="28" height="12" viewBox="0 0 28 12"><title>29</title><defs><path id="a" d="M6 0h16a6 6 0 1 1 0 12H6A6 6 0 1 1 6 0z"/><linearGradient id="c" x1="0%" x2="100%" y1="50%" y2="50%"><stop offset="0%" stop-color="#FFF" stop-opacity="0"/><stop offset="50.903%" stop-color="#FFF" stop-opacity=".4"/><stop offset="100%" stop-color="#FFF" stop-opacity="0"/></linearGradient><path id="b" d="M6 0h16a6 6 0 1 1 0 12H6A6 6 0 1 1 6 0z"/><linearGradient id="e" x1="50%" x2="50%" y1="0%" y2="100%"><stop offset="0%" stop-color="#FFF" stop-opacity=".75"/><stop offset="100%" stop-color="#FFF" stop-opacity=".951"/></linearGradient><linearGradient id="f" x1="84.43%" x2="33.446%" y1="44.538%" y2="24.64%"><stop offset="0%" stop-color="#FFF" stop-opacity=".201"/><stop offset="100%" stop-color="#FFF" stop-opacity="0"/></linearGradient><linearGradient id="g" x1="84.43%" x2="33.446%" y1="44.487%" y2="24.404%"><stop offset="0%" stop-color="#FFF" stop-opacity="0"/><stop offset="100%" stop-color="#FFF" stop-opacity=".2"/></linearGradient></defs><g fill="none" fill-rule="evenodd"><g><use fill="#FF7ADC" xlink:href="#a"/><mask id="d" fill="#fff"><use xlink:href="#b"/></mask><path stroke="url(#c)" stroke-width=".6" d="M22 .3H6a5.682 5.682 0 0 0-4.03 1.67A5.682 5.682 0 0 0 .3 6c0 1.574.638 2.999 1.67 4.03A5.682 5.682 0 0 0 6 11.7h16a5.682 5.682 0 0 0 4.03-1.67A5.682 5.682 0 0 0 27.7 6a5.682 5.682 0 0 0-1.67-4.03A5.682 5.682 0 0 0 22 .3z"/><g fill-rule="nonzero" mask="url(#d)"><path fill="url(#e)" d="M7.101.002L5.471 0a.5.5 0 0 0-.38.174l-2.751 3.2L.933 6.283a.5.5 0 0 0 .45.718h.723a.5.5 0 0 0 .384-.18L7.485.822A.5.5 0 0 0 7.1.002z" transform="translate(5 2.5)"/><path fill="#FFF" d="M7.34 5.875V3.004a.5.5 0 0 0-.5-.5H5.29a.29.29 0 1 0 0 .581h.296V9a.5.5 0 0 0 .5.5h.754a.5.5 0 0 0 .5-.5V5.875z"/></g><path fill="url(#f)" style="mix-blend-mode:overlay" d="M8.713-2.4L2.191 12.47H-7.2L-.891-2.4z" mask="url(#d)" opacity=".7"/><path fill="url(#g)" style="mix-blend-mode:overlay" d="M33.165-3.6l-10.479 24H7.6l10.135-24z" mask="url(#d)" opacity=".6"/></g><path fill="#FFF" fill-rule="nonzero" d="M15.88 4.573l-1.372-.205c.11-.664.369-1.173.774-1.526s.912-.53 1.52-.53c.668 0 1.192.181 1.573.542.381.362.571.82.571 1.377 0 .284-.058.568-.175.852-.117.285-.31.584-.576.896-.193.222-.507.535-.943.94a25.02 25.02 0 0 0-.867.83 6.37 6.37 0 0 0-.407.472h2.48L18.195 9.5h-4.351c.046-.352.149-.686.31-1.003.161-.318.362-.613.603-.887.24-.273.682-.714 1.323-1.323a24.8 24.8 0 0 0 .913-.903c.228-.254.384-.474.47-.66a1.23 1.23 0 0 0 .126-.502c0-.241-.07-.437-.212-.586a.71.71 0 0 0-.54-.225.793.793 0 0 0-.58.252c-.167.167-.292.47-.377.91zm3.555 3.277l1.313-.108c.026.28.094.477.203.591.109.114.256.17.442.17a.858.858 0 0 0 .63-.277c.267-.27.478-.707.634-1.309a1.737 1.737 0 0 1-.957.293c-.553 0-1.009-.188-1.367-.564-.358-.376-.537-.89-.537-1.54a3 3 0 0 1 .689-1.944c.459-.566 1.067-.85 1.826-.85.67 0 1.183.245 1.538.733s.532 1.149.532 1.982c0 1.286-.284 2.373-.852 3.262-.568.889-1.316 1.333-2.244 1.333-.543 0-.978-.155-1.303-.466-.326-.311-.508-.746-.547-1.306zm3.598-3.31c0-.379-.074-.656-.224-.833a.7.7 0 0 0-.557-.267c-.273 0-.508.127-.703.381-.264.342-.395.801-.395 1.377 0 .371.073.646.22.823a.672.672 0 0 0 .536.266c.18 0 .36-.068.542-.205.183-.137.325-.352.428-.647.102-.295.153-.593.153-.896z"/></g></svg>