<svg xmlns="http://www.w3.org/2000/svg" xmlns:xlink="http://www.w3.org/1999/xlink" width="28" height="12" viewBox="0 0 28 12"><title>37</title><defs><path id="a" d="M6 0h16a6 6 0 1 1 0 12H6A6 6 0 1 1 6 0z"/><linearGradient id="c" x1="0%" x2="100%" y1="50%" y2="50%"><stop offset="0%" stop-color="#FFF" stop-opacity="0"/><stop offset="50.903%" stop-color="#FFF" stop-opacity=".4"/><stop offset="100%" stop-color="#FFF" stop-opacity="0"/></linearGradient><path id="b" d="M6 0h16a6 6 0 1 1 0 12H6A6 6 0 1 1 6 0z"/><linearGradient id="e" x1="50%" x2="50%" y1="0%" y2="100%"><stop offset="0%" stop-color="#FFF" stop-opacity=".75"/><stop offset="100%" stop-color="#FFF" stop-opacity=".951"/></linearGradient><linearGradient id="f" x1="84.43%" x2="33.446%" y1="44.538%" y2="24.64%"><stop offset="0%" stop-color="#FFF" stop-opacity=".201"/><stop offset="100%" stop-color="#FFF" stop-opacity="0"/></linearGradient><linearGradient id="g" x1="84.43%" x2="31.646%" y1="44.487%" y2="24.111%"><stop offset="0%" stop-color="#FFF" stop-opacity="0"/><stop offset="100%" stop-color="#FFF" stop-opacity=".201"/></linearGradient></defs><g fill="none" fill-rule="evenodd"><g><use fill="#FF9E6B" xlink:href="#a"/><mask id="d" fill="#fff"><use xlink:href="#b"/></mask><path stroke="url(#c)" stroke-width=".6" d="M22 .3H6a5.682 5.682 0 0 0-4.03 1.67A5.682 5.682 0 0 0 .3 6c0 1.574.638 2.999 1.67 4.03A5.682 5.682 0 0 0 6 11.7h16a5.682 5.682 0 0 0 4.03-1.67A5.682 5.682 0 0 0 27.7 6a5.682 5.682 0 0 0-1.67-4.03A5.682 5.682 0 0 0 22 .3z"/><g fill-rule="nonzero" mask="url(#d)"><path fill="url(#e)" d="M7.101.002L5.471 0a.5.5 0 0 0-.38.174l-2.751 3.2L.933 6.283a.5.5 0 0 0 .45.718h.723a.5.5 0 0 0 .384-.18L7.485.822A.5.5 0 0 0 7.1.002z" transform="translate(5 2.5)"/><path fill="#FFF" d="M7.34 5.875V3.004a.5.5 0 0 0-.5-.5H5.29a.29.29 0 1 0 0 .581h.296V9a.5.5 0 0 0 .5.5h.754a.5.5 0 0 0 .5-.5V5.875z"/></g><path fill="url(#f)" style="mix-blend-mode:overlay" d="M8.713-2.4L2.191 12.47H-7.2L-.891-2.4z" mask="url(#d)" opacity=".5"/><path fill="url(#g)" style="mix-blend-mode:overlay" d="M33.165-3.6l-10.479 24H7.6l10.135-24z" mask="url(#d)" opacity=".5"/></g><path fill="#FFF" fill-rule="nonzero" d="M13.746 7.63l1.343-.161c.055.38.155.644.3.79.145.147.338.22.579.22.319 0 .583-.107.793-.322.21-.215.315-.49.315-.825 0-.293-.084-.525-.254-.696-.169-.17-.397-.256-.683-.256-.072 0-.147.006-.225.02l.244-1.168c.05.007.096.01.142.01.374 0 .66-.095.854-.285.196-.19.293-.449.293-.774 0-.232-.065-.414-.197-.547a.698.698 0 0 0-.52-.2.775.775 0 0 0-.542.222c-.16.148-.287.4-.381.759l-1.28-.254c.163-.527.39-.933.68-1.216.439-.423.98-.635 1.62-.635.658 0 1.158.184 1.5.55.341.366.512.805.512 1.316 0 .37-.109.706-.327 1.006-.218.3-.518.519-.899.659.303.16.526.366.67.62.143.254.214.52.214.796 0 .527-.187 1.012-.561 1.455-.511.605-1.17.908-1.978.908-.605 0-1.104-.173-1.496-.52-.393-.347-.631-.837-.716-1.472zm6.09-3.897l.268-1.294h4.721l-.21.997c-.3.24-.63.603-.99 1.086a11.481 11.481 0 0 0-1.004 1.621c-.308.597-.56 1.165-.755 1.702-.27.742-.437 1.294-.503 1.655H20.03c.06-.358.197-.85.416-1.475.266-.768.6-1.51 1-2.226s.884-1.405 1.45-2.066h-3.06z"/></g></svg>