<svg xmlns="http://www.w3.org/2000/svg" xmlns:xlink="http://www.w3.org/1999/xlink" width="28" height="12" viewBox="0 0 28 12"><title>38</title><defs><path id="a" d="M6 0h16a6 6 0 1 1 0 12H6A6 6 0 1 1 6 0z"/><linearGradient id="c" x1="0%" x2="100%" y1="50%" y2="50%"><stop offset="0%" stop-color="#FFF" stop-opacity="0"/><stop offset="50.903%" stop-color="#FFF" stop-opacity=".4"/><stop offset="100%" stop-color="#FFF" stop-opacity="0"/></linearGradient><path id="b" d="M6 0h16a6 6 0 1 1 0 12H6A6 6 0 1 1 6 0z"/><linearGradient id="e" x1="50%" x2="50%" y1="0%" y2="100%"><stop offset="0%" stop-color="#FFF" stop-opacity=".75"/><stop offset="100%" stop-color="#FFF" stop-opacity=".951"/></linearGradient><linearGradient id="f" x1="84.43%" x2="33.446%" y1="44.538%" y2="24.64%"><stop offset="0%" stop-color="#FFF" stop-opacity=".201"/><stop offset="100%" stop-color="#FFF" stop-opacity="0"/></linearGradient><linearGradient id="g" x1="84.43%" x2="31.646%" y1="44.487%" y2="24.111%"><stop offset="0%" stop-color="#FFF" stop-opacity="0"/><stop offset="100%" stop-color="#FFF" stop-opacity=".201"/></linearGradient></defs><g fill="none" fill-rule="evenodd"><g><use fill="#FF9E6B" xlink:href="#a"/><mask id="d" fill="#fff"><use xlink:href="#b"/></mask><path stroke="url(#c)" stroke-width=".6" d="M22 .3H6a5.682 5.682 0 0 0-4.03 1.67A5.682 5.682 0 0 0 .3 6c0 1.574.638 2.999 1.67 4.03A5.682 5.682 0 0 0 6 11.7h16a5.682 5.682 0 0 0 4.03-1.67A5.682 5.682 0 0 0 27.7 6a5.682 5.682 0 0 0-1.67-4.03A5.682 5.682 0 0 0 22 .3z"/><g fill-rule="nonzero" mask="url(#d)"><path fill="url(#e)" d="M7.101.002L5.471 0a.5.5 0 0 0-.38.174l-2.751 3.2L.933 6.283a.5.5 0 0 0 .45.718h.723a.5.5 0 0 0 .384-.18L7.485.822A.5.5 0 0 0 7.1.002z" transform="translate(5 2.5)"/><path fill="#FFF" d="M7.34 5.875V3.004a.5.5 0 0 0-.5-.5H5.29a.29.29 0 1 0 0 .581h.296V9a.5.5 0 0 0 .5.5h.754a.5.5 0 0 0 .5-.5V5.875z"/></g><path fill="url(#f)" style="mix-blend-mode:overlay" d="M8.713-2.4L2.191 12.47H-7.2L-.891-2.4z" mask="url(#d)" opacity=".5"/><path fill="url(#g)" style="mix-blend-mode:overlay" d="M33.165-3.6l-10.479 24H7.6l10.135-24z" mask="url(#d)" opacity=".5"/></g><path fill="#FFF" fill-rule="nonzero" d="M13.746 7.63l1.343-.161c.055.38.155.644.3.79.145.147.338.22.579.22.319 0 .583-.107.793-.322.21-.215.315-.49.315-.825 0-.293-.084-.525-.254-.696-.169-.17-.397-.256-.683-.256-.072 0-.147.006-.225.02l.244-1.168c.05.007.096.01.142.01.374 0 .66-.095.854-.285.196-.19.293-.449.293-.774 0-.232-.065-.414-.197-.547a.698.698 0 0 0-.52-.2.775.775 0 0 0-.542.222c-.16.148-.287.4-.381.759l-1.28-.254c.163-.527.39-.933.68-1.216.439-.423.98-.635 1.62-.635.658 0 1.158.184 1.5.55.341.366.512.805.512 1.316 0 .37-.109.706-.327 1.006-.218.3-.518.519-.899.659.303.16.526.366.67.62.143.254.214.52.214.796 0 .527-.187 1.012-.561 1.455-.511.605-1.17.908-1.978.908-.605 0-1.104-.173-1.496-.52-.393-.347-.631-.837-.716-1.472zm7.202-2.07a1.749 1.749 0 0 1-.564-.574 1.411 1.411 0 0 1-.188-.72c0-.306.088-.617.264-.933.176-.316.439-.565.789-.747.35-.182.746-.273 1.189-.273.638 0 1.136.166 1.494.498.358.332.537.751.537 1.26 0 .357-.101.67-.303.934-.202.266-.504.486-.908.662.293.179.512.396.657.652.145.255.217.548.217.876 0 .54-.172 1.032-.518 1.475-.5.638-1.186.957-2.055.957-.632 0-1.14-.186-1.524-.56-.384-.372-.576-.846-.576-1.422 0-.479.134-.907.4-1.285a2.14 2.14 0 0 1 1.09-.8zm.533-1.202c0 .225.068.406.205.545a.715.715 0 0 0 .532.207c.25 0 .471-.095.662-.285a.913.913 0 0 0 .285-.667.77.77 0 0 0-.21-.561.719.719 0 0 0-.537-.215.89.89 0 0 0-.661.283.956.956 0 0 0-.276.693zm-.625 3.31c0 .268.073.478.22.63.146.154.336.23.57.23.362 0 .641-.16.838-.478.197-.32.295-.666.295-1.04a.813.813 0 0 0-.227-.593.775.775 0 0 0-.578-.232c-.293 0-.553.135-.779.405-.226.27-.34.63-.34 1.079z"/></g></svg>