<svg xmlns="http://www.w3.org/2000/svg" width="28" height="12" viewBox="0 0 28 12"><linearGradient id="a" x1="0%" x2="100%" y1="50%" y2="50%"><stop offset="0" stop-color="#fff" stop-opacity="0"/><stop offset=".509" stop-color="#fff" stop-opacity=".4"/><stop offset="1" stop-color="#fff" stop-opacity="0"/></linearGradient><linearGradient id="c" x1="50%" x2="50%" y1="0%" y2="100%"><stop offset="0" stop-color="#fff" stop-opacity=".75"/><stop offset="1" stop-color="#fff" stop-opacity=".951"/></linearGradient><linearGradient id="d" x1="84.43%" x2="33.446%" y1="44.538%" y2="24.64%"><stop offset="0" stop-color="#fff" stop-opacity=".295"/><stop offset="1" stop-color="#fff" stop-opacity="0"/></linearGradient><linearGradient id="e" x1="84.43%" x2="31.646%" y1="44.487%" y2="24.111%"><stop offset="0" stop-color="#fff" stop-opacity="0"/><stop offset="1" stop-color="#fff" stop-opacity=".294"/></linearGradient><mask id="b" fill="#fff"><path fill-rule="evenodd" d="M6 0h16a6 6 0 1 1 0 12H6A6 6 0 1 1 6 0z"/></mask><g fill="none" fill-rule="evenodd"><path fill="#ffc01e" d="M6 0h16a6 6 0 1 1 0 12H6A6 6 0 1 1 6 0z"/><path stroke="url(#a)" stroke-width=".6" d="M22 .3H6a5.682 5.682 0 0 0-4.03 1.67C.937 3 .3 4.425.3 6s.638 2.999 1.67 4.03A5.682 5.682 0 0 0 6 11.7h16a5.682 5.682 0 0 0 4.03-1.67C27.063 9 27.7 7.575 27.7 6s-.638-2.999-1.67-4.03A5.682 5.682 0 0 0 22 .3z"/><g fill-rule="nonzero" mask="url(#b)"><path fill="url(#c)" d="M7.101.002L5.471 0a.5.5 0 0 0-.38.174l-2.751 3.2L.933 6.283a.5.5 0 0 0 .45.718h.723a.5.5 0 0 0 .384-.18L7.485.822A.5.5 0 0 0 7.1.002z" transform="translate(5 2.5)"/><path fill="#fff" d="M7.34 5.875V3.004a.5.5 0 0 0-.5-.5H5.29a.29.29 0 0 0 0 .581h.296V9a.5.5 0 0 0 .5.5h.754a.5.5 0 0 0 .5-.5z"/></g><path fill="#fff" fill-opacity=".4" d="M13.8 9.6l1.8 1.8H12z" mask="url(#b)"/><path fill="#fff" fill-opacity=".4" d="M13.8.6l1.8 1.8H12z" mask="url(#b)" transform="matrix(1 0 0 -1 0 3)"/><path fill="url(#d)" d="M8.713-2.4L2.191 12.47H-7.2L-.891-2.4z" mask="url(#b)" opacity=".552"/><path fill="url(#e)" d="M33.165-3.6l-10.479 24H7.6l10.135-24z" mask="url(#b)" opacity=".524"/><path fill="#fff" fill-rule="nonzero" d="M16.33 8.04h-2.818l.244-1.172 3.872-4.526h1.211l-.942 4.507h.869l-.25 1.191h-.868L17.34 9.5h-1.318zm.248-1.191l.464-2.232-1.89 2.232zm3.409-1.46l.263-1.25c1.208-.528 2.142-1.141 2.803-1.841h.854L22.4 9.5h-1.412l1.04-4.96c-.292.188-.63.36-1.013.517a6.23 6.23 0 0 1-1.027.332z"/></g></svg>