<svg xmlns="http://www.w3.org/2000/svg" xmlns:xlink="http://www.w3.org/1999/xlink" width="28" height="12" viewBox="0 0 28 12"><title>60</title><defs><path id="a" d="M6 0h16a6 6 0 1 1 0 12H6A6 6 0 1 1 6 0z"/><linearGradient id="c" x1="0%" x2="100%" y1="50%" y2="50%"><stop offset="0%" stop-color="#FFF" stop-opacity="0"/><stop offset="50.903%" stop-color="#FFF" stop-opacity=".4"/><stop offset="100%" stop-color="#FFF" stop-opacity="0"/></linearGradient><path id="b" d="M6 0h16a6 6 0 1 1 0 12H6A6 6 0 1 1 6 0z"/><linearGradient id="e" x1="50%" x2="50%" y1="0%" y2="100%"><stop offset="0%" stop-color="#FFF" stop-opacity=".75"/><stop offset="100%" stop-color="#FFF" stop-opacity=".951"/></linearGradient><linearGradient id="f" x1="84.43%" x2="33.446%" y1="44.538%" y2="24.64%"><stop offset="0%" stop-color="#FFF" stop-opacity=".295"/><stop offset="100%" stop-color="#FFF" stop-opacity="0"/></linearGradient><linearGradient id="g" x1="84.43%" x2="31.646%" y1="44.487%" y2="24.111%"><stop offset="0%" stop-color="#FFF" stop-opacity="0"/><stop offset="100%" stop-color="#FFF" stop-opacity=".294"/></linearGradient></defs><g fill="none" fill-rule="evenodd"><g><use fill="#FFC01E" xlink:href="#a"/><mask id="d" fill="#fff"><use xlink:href="#b"/></mask><path stroke="url(#c)" stroke-width=".6" d="M22 .3H6a5.682 5.682 0 0 0-4.03 1.67A5.682 5.682 0 0 0 .3 6c0 1.574.638 2.999 1.67 4.03A5.682 5.682 0 0 0 6 11.7h16a5.682 5.682 0 0 0 4.03-1.67A5.682 5.682 0 0 0 27.7 6a5.682 5.682 0 0 0-1.67-4.03A5.682 5.682 0 0 0 22 .3z"/><g fill-rule="nonzero" mask="url(#d)"><path fill="url(#e)" d="M7.101.002L5.471 0a.5.5 0 0 0-.38.174l-2.751 3.2L.933 6.283a.5.5 0 0 0 .45.718h.723a.5.5 0 0 0 .384-.18L7.485.822A.5.5 0 0 0 7.1.002z" transform="translate(5 2.5)"/><path fill="#FFF" d="M7.34 5.875V3.004a.5.5 0 0 0-.5-.5H5.29a.29.29 0 1 0 0 .581h.296V9a.5.5 0 0 0 .5.5h.754a.5.5 0 0 0 .5-.5V5.875z"/></g><path fill="#FFF" fill-opacity=".4" d="M13.8 9.6l1.8 1.8H12z" mask="url(#d)"/><path fill="#FFF" fill-opacity=".4" d="M13.8.6l1.8 1.8H12z" mask="url(#d)" transform="matrix(1 0 0 -1 0 3)"/><path fill="url(#f)" style="mix-blend-mode:overlay" d="M8.713-2.4L2.191 12.47H-7.2L-.891-2.4z" mask="url(#d)" opacity=".552"/><path fill="url(#g)" style="mix-blend-mode:overlay" d="M33.165-3.6l-10.479 24H7.6l10.135-24z" mask="url(#d)" opacity=".524"/></g><path fill="#FFF" fill-rule="nonzero" d="M18.995 4.09l-1.313.107c-.026-.283-.094-.482-.203-.595a.583.583 0 0 0-.442-.171.867.867 0 0 0-.634.283c-.264.27-.476.706-.635 1.308.303-.198.623-.297.962-.297.553 0 1.009.188 1.367.566.358.378.537.892.537 1.543 0 .518-.125 1.007-.376 1.467-.25.46-.563.797-.937 1.009-.375.211-.77.317-1.187.317a2 2 0 0 1-1.082-.3c-.32-.2-.568-.493-.742-.877-.174-.384-.261-.898-.261-1.543 0-1.28.283-2.365.85-3.257.566-.892 1.313-1.337 2.24-1.337.535 0 .96.146 1.275.439.316.293.51.739.581 1.338zm-3.598 3.306c0 .377.075.655.224.834.15.18.336.269.557.269.273 0 .508-.127.703-.38.264-.343.396-.802.396-1.378 0-.37-.074-.645-.22-.823a.672.672 0 0 0-.537-.266c-.18 0-.36.068-.542.203-.183.135-.325.35-.428.645a2.708 2.708 0 0 0-.153.896zm4.048-.225c0-.72.122-1.449.366-2.188.3-.901.683-1.572 1.152-2.011.469-.44.99-.66 1.563-.66.579 0 1.055.21 1.428.63.373.42.559 1.03.559 1.831 0 .733-.136 1.507-.408 2.322-.272.816-.639 1.44-1.1 1.875-.463.435-.984.652-1.563.652-.58 0-1.058-.21-1.434-.63-.375-.42-.563-1.027-.563-1.821zm1.376.283c0 .384.062.654.186.81a.583.583 0 0 0 .479.235c.26 0 .491-.12.693-.361.27-.323.51-.957.718-1.905.166-.752.249-1.347.249-1.787 0-.358-.063-.616-.188-.774a.587.587 0 0 0-.481-.236c-.248 0-.467.118-.66.356-.283.345-.527.952-.732 1.821-.176.752-.264 1.366-.264 1.841z"/></g></svg>