<svg xmlns="http://www.w3.org/2000/svg" xmlns:xlink="http://www.w3.org/1999/xlink" width="28" height="12" viewBox="0 0 28 12"><title>70</title><defs><path id="a" d="M6 0h16a6 6 0 1 1 0 12H6A6 6 0 1 1 6 0z"/><linearGradient id="c" x1="0%" x2="100%" y1="50%" y2="50%"><stop offset="0%" stop-color="#FFF" stop-opacity="0"/><stop offset="50.903%" stop-color="#FFF" stop-opacity=".4"/><stop offset="100%" stop-color="#FFF" stop-opacity="0"/></linearGradient><path id="b" d="M6 0h16a6 6 0 1 1 0 12H6A6 6 0 1 1 6 0z"/><linearGradient id="e" x1="50%" x2="50%" y1="0%" y2="100%"><stop offset="0%" stop-color="#FFF" stop-opacity=".75"/><stop offset="100%" stop-color="#FFF" stop-opacity=".951"/></linearGradient><linearGradient id="f" x1="84.43%" x2="33.446%" y1="44.538%" y2="24.64%"><stop offset="0%" stop-color="#FFF" stop-opacity=".302"/><stop offset="100%" stop-color="#FFF" stop-opacity="0"/></linearGradient><linearGradient id="g" x1="84.43%" x2="31.646%" y1="44.487%" y2="24.111%"><stop offset="0%" stop-color="#FFF" stop-opacity="0"/><stop offset="100%" stop-color="#FFF" stop-opacity=".492"/></linearGradient><linearGradient id="h" x1="84.43%" x2="31.646%" y1="44.487%" y2="24.111%"><stop offset="0%" stop-color="#FFF" stop-opacity="0"/><stop offset="100%" stop-color="#FFF" stop-opacity=".3"/></linearGradient></defs><g fill="none" fill-rule="evenodd"><g><use fill="#FFE100" xlink:href="#a"/><mask id="d" fill="#fff"><use xlink:href="#b"/></mask><path stroke="url(#c)" stroke-width=".6" d="M22 .3H6a5.682 5.682 0 0 0-4.03 1.67A5.682 5.682 0 0 0 .3 6c0 1.574.638 2.999 1.67 4.03A5.682 5.682 0 0 0 6 11.7h16a5.682 5.682 0 0 0 4.03-1.67A5.682 5.682 0 0 0 27.7 6a5.682 5.682 0 0 0-1.67-4.03A5.682 5.682 0 0 0 22 .3z"/><g fill-rule="nonzero" mask="url(#d)"><path fill="url(#e)" d="M7.101.002L5.471 0a.5.5 0 0 0-.38.174l-2.751 3.2L.933 6.283a.5.5 0 0 0 .45.718h.723a.5.5 0 0 0 .384-.18L7.485.822A.5.5 0 0 0 7.1.002z" transform="translate(5 2.5)"/><path fill="#FFF" d="M7.34 5.875V3.004a.5.5 0 0 0-.5-.5H5.29a.29.29 0 1 0 0 .581h.296V9a.5.5 0 0 0 .5.5h.754a.5.5 0 0 0 .5-.5V5.875z"/></g><path fill="#FFF" fill-opacity=".4" d="M13.8 9.6l1.8 1.8H12z" mask="url(#d)"/><path fill="#FFF" fill-opacity=".4" d="M13.8.6l1.8 1.8H12z" mask="url(#d)" transform="matrix(1 0 0 -1 0 3)"/><path fill="url(#f)" style="mix-blend-mode:overlay" d="M8.713-2.4L2.191 12.47H-7.2L-.891-2.4z" mask="url(#d)" opacity=".9"/><path fill="url(#g)" style="mix-blend-mode:overlay" d="M33.165-3.6l-10.479 24H7.6l10.135-24z" mask="url(#d)" opacity=".524"/><path fill="url(#h)" style="mix-blend-mode:overlay" d="M39.565-6L29.086 18H14L24.135-6z" mask="url(#d)" opacity=".524"/></g><path fill="#FFF" fill-rule="nonzero" d="M14.274 3.733l.268-1.294h4.722l-.21.997c-.3.24-.63.603-.991 1.086a11.481 11.481 0 0 0-1.004 1.621c-.307.597-.559 1.165-.754 1.702-.27.742-.438 1.294-.503 1.655h-1.333c.059-.358.197-.85.415-1.475.267-.768.6-1.51 1.001-2.226.4-.716.884-1.405 1.45-2.066h-3.061zm5.17 3.438c0-.72.123-1.449.367-2.188.3-.901.683-1.572 1.152-2.011.469-.44.99-.66 1.563-.66.579 0 1.055.21 1.428.63.373.42.559 1.03.559 1.831 0 .733-.136 1.507-.408 2.322-.272.816-.639 1.44-1.1 1.875-.463.435-.984.652-1.563.652-.58 0-1.058-.21-1.434-.63-.375-.42-.563-1.027-.563-1.821zm1.377.283c0 .384.062.654.186.81a.583.583 0 0 0 .479.235c.26 0 .491-.12.693-.361.27-.323.51-.957.718-1.905.166-.752.249-1.347.249-1.787 0-.358-.063-.616-.188-.774a.587.587 0 0 0-.481-.236c-.248 0-.467.118-.66.356-.283.345-.527.952-.732 1.821-.176.752-.264 1.366-.264 1.841z"/></g></svg>