<svg xmlns="http://www.w3.org/2000/svg" xmlns:xlink="http://www.w3.org/1999/xlink" width="28" height="12" viewBox="0 0 28 12"><title>86</title><defs><path id="a" d="M6 0h16a6 6 0 1 1 0 12H6A6 6 0 1 1 6 0z"/><linearGradient id="c" x1="0%" x2="100%" y1="50%" y2="50%"><stop offset="0%" stop-color="#FFF" stop-opacity="0"/><stop offset="50.903%" stop-color="#FFF" stop-opacity=".4"/><stop offset="100%" stop-color="#FFF" stop-opacity="0"/></linearGradient><path id="b" d="M6 0h16a6 6 0 1 1 0 12H6A6 6 0 1 1 6 0z"/><linearGradient id="e" x1="50%" x2="50%" y1="0%" y2="100%"><stop offset="0%" stop-color="#FFF" stop-opacity=".75"/><stop offset="100%" stop-color="#FFF" stop-opacity=".951"/></linearGradient><linearGradient id="f" x1="84.43%" x2="33.446%" y1="44.538%" y2="24.64%"><stop offset="0%" stop-color="#FFF" stop-opacity=".302"/><stop offset="100%" stop-color="#FFF" stop-opacity="0"/></linearGradient><linearGradient id="g" x1="84.43%" x2="31.646%" y1="44.487%" y2="24.111%"><stop offset="0%" stop-color="#FFF" stop-opacity="0"/><stop offset="100%" stop-color="#FFF" stop-opacity=".492"/></linearGradient><linearGradient id="h" x1="84.43%" x2="31.646%" y1="44.487%" y2="24.111%"><stop offset="0%" stop-color="#FFF" stop-opacity="0"/><stop offset="100%" stop-color="#FFF" stop-opacity=".3"/></linearGradient></defs><g fill="none" fill-rule="evenodd"><g><use fill="#FFE100" xlink:href="#a"/><mask id="d" fill="#fff"><use xlink:href="#b"/></mask><path stroke="url(#c)" stroke-width=".6" d="M22 .3H6a5.682 5.682 0 0 0-4.03 1.67A5.682 5.682 0 0 0 .3 6c0 1.574.638 2.999 1.67 4.03A5.682 5.682 0 0 0 6 11.7h16a5.682 5.682 0 0 0 4.03-1.67A5.682 5.682 0 0 0 27.7 6a5.682 5.682 0 0 0-1.67-4.03A5.682 5.682 0 0 0 22 .3z"/><g fill-rule="nonzero" mask="url(#d)"><path fill="url(#e)" d="M7.101.002L5.471 0a.5.5 0 0 0-.38.174l-2.751 3.2L.933 6.283a.5.5 0 0 0 .45.718h.723a.5.5 0 0 0 .384-.18L7.485.822A.5.5 0 0 0 7.1.002z" transform="translate(5 2.5)"/><path fill="#FFF" d="M7.34 5.875V3.004a.5.5 0 0 0-.5-.5H5.29a.29.29 0 1 0 0 .581h.296V9a.5.5 0 0 0 .5.5h.754a.5.5 0 0 0 .5-.5V5.875z"/></g><path fill="#FFF" fill-opacity=".4" d="M13.8 9.6l1.8 1.8H12z" mask="url(#d)"/><path fill="#FFF" fill-opacity=".4" d="M13.8.6l1.8 1.8H12z" mask="url(#d)" transform="matrix(1 0 0 -1 0 3)"/><path fill="url(#f)" style="mix-blend-mode:overlay" d="M8.713-2.4L2.191 12.47H-7.2L-.891-2.4z" mask="url(#d)" opacity=".9"/><path fill="url(#g)" style="mix-blend-mode:overlay" d="M33.165-3.6l-10.479 24H7.6l10.135-24z" mask="url(#d)" opacity=".524"/><path fill="url(#h)" style="mix-blend-mode:overlay" d="M39.565-6L29.086 18H14L24.135-6z" mask="url(#d)" opacity=".524"/></g><path fill="#FFF" fill-rule="nonzero" d="M15.387 5.56a1.749 1.749 0 0 1-.564-.574 1.411 1.411 0 0 1-.188-.72c0-.306.088-.617.264-.933.175-.316.438-.565.788-.747.35-.182.746-.273 1.19-.273.637 0 1.135.166 1.493.498.358.332.537.751.537 1.26 0 .357-.1.67-.302.934-.202.266-.505.486-.909.662.293.179.512.396.657.652.145.255.218.548.218.876 0 .54-.173 1.032-.518 1.475-.501.638-1.187.957-2.056.957-.631 0-1.14-.186-1.523-.56-.384-.372-.576-.846-.576-1.422 0-.479.133-.907.4-1.285a2.14 2.14 0 0 1 1.089-.8zm.532-1.202c0 .225.068.406.205.545a.715.715 0 0 0 .532.207c.251 0 .472-.095.662-.285a.913.913 0 0 0 .286-.667.77.77 0 0 0-.21-.561.719.719 0 0 0-.537-.215.89.89 0 0 0-.662.283.956.956 0 0 0-.276.693zm-.625 3.31c0 .268.073.478.22.63.146.154.337.23.571.23.361 0 .64-.16.838-.478.196-.32.295-.666.295-1.04a.813.813 0 0 0-.227-.593.775.775 0 0 0-.579-.232c-.293 0-.552.135-.779.405-.226.27-.339.63-.339 1.079zm9.263-3.578l-1.314.107c-.026-.283-.093-.482-.202-.595a.583.583 0 0 0-.442-.171.867.867 0 0 0-.635.283c-.264.27-.475.706-.635 1.308.303-.198.624-.297.962-.297.554 0 1.01.188 1.367.566.358.378.538.892.538 1.543 0 .518-.126 1.007-.376 1.467-.251.46-.564.797-.938 1.009-.374.211-.77.317-1.186.317a2 2 0 0 1-1.082-.3c-.32-.2-.568-.493-.742-.877-.174-.384-.261-.898-.261-1.543 0-1.28.283-2.365.85-3.257.566-.892 1.313-1.337 2.24-1.337.534 0 .959.146 1.275.439.316.293.51.739.58 1.338zm-3.599 3.306c0 .377.075.655.225.834.15.18.335.269.556.269.274 0 .508-.127.704-.38.263-.343.395-.802.395-1.378 0-.37-.073-.645-.22-.823a.672.672 0 0 0-.537-.266c-.179 0-.36.068-.542.203-.182.135-.324.35-.427.645a2.708 2.708 0 0 0-.154.896z"/></g></svg>