<svg xmlns="http://www.w3.org/2000/svg" xmlns:xlink="http://www.w3.org/1999/xlink" width="28" height="12" viewBox="0 0 28 12"><title>100</title><defs><path id="a" d="M6 0h16c3.314 0 6 2.686 6 6s-2.686 6-6 6H6c-3.314 0-6-2.686-6-6s2.686-6 6-6z"/><linearGradient id="c" x1="0%" x2="100%" y1="50%" y2="50%"><stop offset="0%" stop-color="#C8C8C8" stop-opacity="0"/><stop offset="50.903%" stop-color="#FFF" stop-opacity=".283"/><stop offset="100%" stop-color="#979797" stop-opacity="0"/></linearGradient><path id="b" d="M6 0h16c3.314 0 6 2.686 6 6s-2.686 6-6 6H6c-3.314 0-6-2.686-6-6s2.686-6 6-6z"/><linearGradient id="e" x1="50%" x2="50%" y1="0%" y2="100%"><stop offset="0%" stop-color="#FFF" stop-opacity=".75"/><stop offset="100%" stop-color="#FFF" stop-opacity=".951"/></linearGradient><linearGradient id="f" x1="84.43%" x2="33.446%" y1="44.538%" y2="24.64%"><stop offset="0%" stop-color="#FFF" stop-opacity=".302"/><stop offset="100%" stop-color="#FFF" stop-opacity="0"/></linearGradient><linearGradient id="g" x1="84.43%" x2="31.646%" y1="44.487%" y2="24.111%"><stop offset="0%" stop-color="#FFF" stop-opacity="0"/><stop offset="100%" stop-color="#FFF" stop-opacity=".492"/></linearGradient><linearGradient id="h" x1="84.43%" x2="31.646%" y1="44.487%" y2="24.111%"><stop offset="0%" stop-color="#FFF" stop-opacity="0"/><stop offset="100%" stop-color="#FFF" stop-opacity=".3"/></linearGradient><path id="i" d="M12.756 9.5l1.51-7.202h-.855c-.661.7-1.595 1.313-2.803 1.84l-.264 1.25c.303-.064.646-.175 1.028-.331.383-.157.72-.33 1.013-.518L11.345 9.5h1.411zm4.605.122c.58 0 1.1-.217 1.562-.652.463-.434.83-1.06 1.101-1.875.272-.815.408-1.59.408-2.322 0-.8-.186-1.41-.559-1.83-.373-.42-.849-.63-1.428-.63-.573 0-1.094.22-1.563.659-.468.44-.853 1.11-1.152 2.011-.244.74-.366 1.468-.366 2.188 0 .794.188 1.401.564 1.821.376.42.853.63 1.433.63zm.044-1.123c-.196 0-.355-.078-.479-.234-.123-.157-.185-.427-.185-.81 0-.476.088-1.09.263-1.842.205-.869.45-1.476.733-1.821.192-.238.412-.356.659-.356.195 0 .356.078.481.236.125.158.188.416.188.774 0 .44-.083 1.035-.25 1.787-.207.948-.447 1.582-.717 1.905-.202.24-.433.361-.693.361zm5.517 1.123c.58 0 1.1-.217 1.563-.652.462-.434.83-1.06 1.1-1.875.273-.815.409-1.59.409-2.322 0-.8-.187-1.41-.56-1.83-.372-.42-.848-.63-1.428-.63-.573 0-1.093.22-1.562.659-.469.44-.853 1.11-1.152 2.011-.245.74-.367 1.468-.367 2.188 0 .794.188 1.401.564 1.821.376.42.854.63 1.433.63zm.044-1.123c-.195 0-.355-.078-.478-.234-.124-.157-.186-.427-.186-.81 0-.476.088-1.09.264-1.842.205-.869.45-1.476.732-1.821.192-.238.412-.356.66-.356.195 0 .355.078.48.236.126.158.188.416.188.774 0 .44-.083 1.035-.249 1.787-.208.948-.447 1.582-.717 1.905-.202.24-.433.361-.694.361z"/></defs><g fill="none" fill-rule="evenodd"><g><use fill="#BDBDBD" xlink:href="#a"/><mask id="d" fill="#fff"><use xlink:href="#b"/></mask><path stroke="url(#c)" stroke-width=".6" d="M6 .3C2.852.3.3 2.852.3 6s2.552 5.7 5.7 5.7h16c3.148 0 5.7-2.552 5.7-5.7S25.148.3 22 .3H6z"/><g fill-rule="nonzero" mask="url(#d)"><path fill="url(#e)" d="M7.101.002L5.471 0c-.147 0-.286.064-.38.174l-2.751 3.2L.933 6.283c-.12.249-.016.548.232.668.068.033.143.05.218.05h.723c.148 0 .289-.066.384-.18L7.485.822C7.662.61 7.633.295 7.42.118 7.33.043 7.218.002 7.1.002z" transform="translate(3 2.5)"/><path fill="#FFF" d="M5.34 5.875V3.004c0-.277-.224-.5-.5-.5H3.29c-.16 0-.29.13-.29.29 0 .161.13.291.29.291h.296V9c0 .276.224.5.5.5h.754c.276 0 .5-.224.5-.5V5.875z"/></g><path fill="#FFF" fill-opacity=".4" d="M13.8 9.6l1.8 1.8H12z" mask="url(#d)"/><path fill="#FFF" fill-opacity=".4" d="M13.8.6l1.8 1.8H12z" mask="url(#d)" transform="matrix(1 0 0 -1 0 3)"/><path fill="url(#f)" style="mix-blend-mode:overlay" d="M8.713-2.4L2.191 12.47H-7.2L-.891-2.4z" mask="url(#d)" opacity=".9"/><path fill="url(#g)" style="mix-blend-mode:overlay" d="M33.165-3.6l-10.479 24H7.6l10.135-24z" mask="url(#d)" opacity=".524"/><path fill="url(#h)" style="mix-blend-mode:overlay" d="M39.565-6L29.086 18H14L24.135-6z" mask="url(#d)" opacity=".524"/></g><g fill="#FFF" fill-rule="nonzero"><use xlink:href="#i"/><use xlink:href="#i"/></g></g></svg>