<svg xmlns="http://www.w3.org/2000/svg" xmlns:xlink="http://www.w3.org/1999/xlink" width="28" height="12" viewBox="0 0 28 12"><title>18</title><defs><path id="a" d="M6 0h16c3.314 0 6 2.686 6 6s-2.686 6-6 6H6c-3.314 0-6-2.686-6-6s2.686-6 6-6z"/><linearGradient id="c" x1="0%" x2="100%" y1="50%" y2="50%"><stop offset="0%" stop-color="#C8C8C8" stop-opacity="0"/><stop offset="50.903%" stop-color="#FFF" stop-opacity=".283"/><stop offset="100%" stop-color="#979797" stop-opacity="0"/></linearGradient><path id="b" d="M6 0h16c3.314 0 6 2.686 6 6s-2.686 6-6 6H6c-3.314 0-6-2.686-6-6s2.686-6 6-6z"/><linearGradient id="d" x1="84.43%" x2="33.446%" y1="44.538%" y2="24.64%"><stop offset="0%" stop-color="#FFF" stop-opacity=".3"/><stop offset="100%" stop-color="#FFF" stop-opacity="0"/></linearGradient><linearGradient id="f" x1="84.43%" x2="33.446%" y1="44.487%" y2="24.404%"><stop offset="0%" stop-color="#FFF" stop-opacity="0"/><stop offset="100%" stop-color="#FFF" stop-opacity=".2"/></linearGradient><linearGradient id="g" x1="50%" x2="50%" y1="0%" y2="100%"><stop offset="0%" stop-color="#FFF" stop-opacity=".75"/><stop offset="100%" stop-color="#FFF" stop-opacity=".951"/></linearGradient></defs><g fill="none" fill-rule="evenodd"><g><use fill="#BDBDBD" xlink:href="#a"/><mask id="e" fill="#fff"><use xlink:href="#b"/></mask><path stroke="url(#c)" stroke-width=".6" d="M6 .3C2.852.3.3 2.852.3 6s2.552 5.7 5.7 5.7h16c3.148 0 5.7-2.552 5.7-5.7S25.148.3 22 .3H6z"/><path fill="url(#d)" style="mix-blend-mode:overlay" d="M8.713-2.4L2.191 12.47H-7.2L-.891-2.4z" mask="url(#e)" opacity=".4"/><path fill="url(#f)" style="mix-blend-mode:overlay" d="M33.165-3.6l-10.479 24H7.6l10.135-24z" mask="url(#e)" opacity=".4"/></g><path fill="#FFF" fill-rule="nonzero" d="M13.425 5.389l.264-1.25c1.207-.528 2.142-1.141 2.802-1.841h.855L15.837 9.5h-1.411l1.04-4.96c-.293.188-.63.36-1.013.517-.383.156-.725.267-1.028.332zm6.523.17c-.25-.165-.438-.357-.564-.573-.125-.217-.188-.457-.188-.72 0-.306.088-.617.264-.933.176-.316.439-.565.789-.747.35-.182.746-.273 1.189-.273.638 0 1.136.166 1.494.498.358.332.537.751.537 1.26 0 .357-.101.67-.303.934-.202.266-.504.486-.908.662.293.179.512.396.657.652.145.255.217.548.217.876 0 .54-.172 1.032-.518 1.475-.5.638-1.186.957-2.055.957-.632 0-1.14-.186-1.524-.56-.384-.372-.576-.846-.576-1.422 0-.479.134-.907.4-1.285.267-.377.63-.644 1.09-.8zm.533-1.2c0 .224.068.405.205.544.136.138.314.207.532.207.25 0 .471-.095.662-.285.19-.19.285-.413.285-.667 0-.23-.07-.418-.21-.561-.14-.144-.319-.215-.537-.215-.257 0-.478.094-.661.283-.184.189-.276.42-.276.693zm-.625 3.31c0 .267.073.477.22.63.146.153.336.23.57.23.362 0 .641-.16.838-.48.197-.318.295-.665.295-1.04 0-.24-.075-.438-.227-.592-.15-.155-.344-.232-.578-.232-.293 0-.553.135-.779.405-.226.27-.34.63-.34 1.079z"/><g fill-rule="nonzero"><path fill="url(#g)" d="M7.101.002L5.471 0c-.147 0-.286.064-.38.174l-2.751 3.2L.933 6.283c-.12.249-.016.548.232.668.068.033.143.05.218.05h.723c.148 0 .289-.066.384-.18L7.485.822C7.662.61 7.633.295 7.42.118 7.33.043 7.218.002 7.1.002z" transform="translate(5 2.5)"/><path fill="#FFF" d="M7.34 5.875V3.004c0-.277-.224-.5-.5-.5H5.29c-.16 0-.29.13-.29.29 0 .161.13.291.29.291h.296V9c0 .276.224.5.5.5h.754c.276 0 .5-.224.5-.5V5.875z"/></g></g></svg>