<svg xmlns="http://www.w3.org/2000/svg" xmlns:xlink="http://www.w3.org/1999/xlink" width="28" height="12" viewBox="0 0 28 12"><title>22</title><defs><path id="a" d="M6 0h16c3.314 0 6 2.686 6 6s-2.686 6-6 6H6c-3.314 0-6-2.686-6-6s2.686-6 6-6z"/><linearGradient id="c" x1="0%" x2="100%" y1="50%" y2="50%"><stop offset="0%" stop-color="#C8C8C8" stop-opacity="0"/><stop offset="50.903%" stop-color="#FFF" stop-opacity=".283"/><stop offset="100%" stop-color="#979797" stop-opacity="0"/></linearGradient><path id="b" d="M6 0h16c3.314 0 6 2.686 6 6s-2.686 6-6 6H6c-3.314 0-6-2.686-6-6s2.686-6 6-6z"/><linearGradient id="e" x1="50%" x2="50%" y1="0%" y2="100%"><stop offset="0%" stop-color="#FFF" stop-opacity=".75"/><stop offset="100%" stop-color="#FFF" stop-opacity=".951"/></linearGradient><linearGradient id="f" x1="84.43%" x2="33.446%" y1="44.538%" y2="24.64%"><stop offset="0%" stop-color="#FFF" stop-opacity=".201"/><stop offset="100%" stop-color="#FFF" stop-opacity="0"/></linearGradient><linearGradient id="g" x1="84.43%" x2="33.446%" y1="44.487%" y2="24.404%"><stop offset="0%" stop-color="#FFF" stop-opacity="0"/><stop offset="100%" stop-color="#FFF" stop-opacity=".2"/></linearGradient></defs><g fill="none" fill-rule="evenodd"><g><use fill="#BDBDBD" xlink:href="#a"/><mask id="d" fill="#fff"><use xlink:href="#b"/></mask><path stroke="url(#c)" stroke-width=".6" d="M6 .3C2.852.3.3 2.852.3 6s2.552 5.7 5.7 5.7h16c3.148 0 5.7-2.552 5.7-5.7S25.148.3 22 .3H6z"/><g fill-rule="nonzero" mask="url(#d)"><path fill="url(#e)" d="M7.101.002L5.471 0c-.147 0-.286.064-.38.174l-2.751 3.2L.933 6.283c-.12.249-.016.548.232.668.068.033.143.05.218.05h.723c.148 0 .289-.066.384-.18L7.485.822C7.662.61 7.633.295 7.42.118 7.33.043 7.218.002 7.1.002z" transform="translate(5 2.5)"/><path fill="#FFF" d="M7.34 5.875V3.004c0-.277-.224-.5-.5-.5H5.29c-.16 0-.29.13-.29.29 0 .161.13.291.29.291h.296V9c0 .276.224.5.5.5h.754c.276 0 .5-.224.5-.5V5.875z"/></g><path fill="url(#f)" style="mix-blend-mode:overlay" d="M8.713-2.4L2.191 12.47H-7.2L-.891-2.4z" mask="url(#d)" opacity=".7"/><path fill="url(#g)" style="mix-blend-mode:overlay" d="M33.165-3.6l-10.479 24H7.6l10.135-24z" mask="url(#d)" opacity=".6"/></g><path fill="#FFF" fill-rule="nonzero" d="M15.88 4.573l-1.372-.205c.11-.664.369-1.173.774-1.526s.912-.53 1.52-.53c.668 0 1.192.181 1.573.542.381.362.571.82.571 1.377 0 .284-.058.568-.175.852-.117.285-.31.584-.576.896-.193.222-.507.535-.943.94-.436.406-.725.682-.867.83-.141.149-.277.306-.407.472h2.48L18.195 9.5h-4.351c.046-.352.149-.686.31-1.003.161-.318.362-.613.603-.887.24-.273.682-.714 1.323-1.323.482-.462.786-.763.913-.903.228-.254.384-.474.47-.66.084-.185.126-.353.126-.502 0-.241-.07-.437-.212-.586-.142-.15-.322-.225-.54-.225-.221 0-.415.084-.58.252-.167.167-.292.47-.377.91zm5.562 0l-1.372-.205c.11-.664.368-1.173.773-1.526.406-.353.913-.53 1.521-.53.668 0 1.192.181 1.573.542.38.362.571.82.571 1.377 0 .284-.059.568-.176.852-.117.285-.309.584-.576.896-.192.222-.506.535-.942.94-.437.406-.725.682-.867.83-.142.149-.278.306-.408.472h2.48L23.757 9.5h-4.35c.045-.352.148-.686.31-1.003.16-.318.362-.613.603-.887.24-.273.682-.714 1.323-1.323.482-.462.786-.763.913-.903.228-.254.384-.474.469-.66.084-.185.127-.353.127-.502 0-.241-.071-.437-.213-.586-.141-.15-.321-.225-.54-.225-.22 0-.414.084-.58.252-.166.167-.292.47-.376.91z"/></g></svg>