<svg xmlns="http://www.w3.org/2000/svg" xmlns:xlink="http://www.w3.org/1999/xlink" width="28" height="12" viewBox="0 0 28 12"><title>28</title><defs><path id="a" d="M6 0h16c3.314 0 6 2.686 6 6s-2.686 6-6 6H6c-3.314 0-6-2.686-6-6s2.686-6 6-6z"/><linearGradient id="c" x1="0%" x2="100%" y1="50%" y2="50%"><stop offset="0%" stop-color="#C8C8C8" stop-opacity="0"/><stop offset="50.903%" stop-color="#FFF" stop-opacity=".283"/><stop offset="100%" stop-color="#979797" stop-opacity="0"/></linearGradient><path id="b" d="M6 0h16c3.314 0 6 2.686 6 6s-2.686 6-6 6H6c-3.314 0-6-2.686-6-6s2.686-6 6-6z"/><linearGradient id="e" x1="50%" x2="50%" y1="0%" y2="100%"><stop offset="0%" stop-color="#FFF" stop-opacity=".75"/><stop offset="100%" stop-color="#FFF" stop-opacity=".951"/></linearGradient><linearGradient id="f" x1="84.43%" x2="33.446%" y1="44.538%" y2="24.64%"><stop offset="0%" stop-color="#FFF" stop-opacity=".201"/><stop offset="100%" stop-color="#FFF" stop-opacity="0"/></linearGradient><linearGradient id="g" x1="84.43%" x2="33.446%" y1="44.487%" y2="24.404%"><stop offset="0%" stop-color="#FFF" stop-opacity="0"/><stop offset="100%" stop-color="#FFF" stop-opacity=".2"/></linearGradient></defs><g fill="none" fill-rule="evenodd"><g><use fill="#BDBDBD" xlink:href="#a"/><mask id="d" fill="#fff"><use xlink:href="#b"/></mask><path stroke="url(#c)" stroke-width=".6" d="M6 .3C2.852.3.3 2.852.3 6s2.552 5.7 5.7 5.7h16c3.148 0 5.7-2.552 5.7-5.7S25.148.3 22 .3H6z"/><g fill-rule="nonzero" mask="url(#d)"><path fill="url(#e)" d="M7.101.002L5.471 0c-.147 0-.286.064-.38.174l-2.751 3.2L.933 6.283c-.12.249-.016.548.232.668.068.033.143.05.218.05h.723c.148 0 .289-.066.384-.18L7.485.822C7.662.61 7.633.295 7.42.118 7.33.043 7.218.002 7.1.002z" transform="translate(5 2.5)"/><path fill="#FFF" d="M7.34 5.875V3.004c0-.277-.224-.5-.5-.5H5.29c-.16 0-.29.13-.29.29 0 .161.13.291.29.291h.296V9c0 .276.224.5.5.5h.754c.276 0 .5-.224.5-.5V5.875z"/></g><path fill="url(#f)" style="mix-blend-mode:overlay" d="M8.713-2.4L2.191 12.47H-7.2L-.891-2.4z" mask="url(#d)" opacity=".7"/><path fill="url(#g)" style="mix-blend-mode:overlay" d="M33.165-3.6l-10.479 24H7.6l10.135-24z" mask="url(#d)" opacity=".6"/></g><path fill="#FFF" fill-rule="nonzero" d="M15.88 4.573l-1.372-.205c.11-.664.369-1.173.774-1.526s.912-.53 1.52-.53c.668 0 1.192.181 1.573.542.381.362.571.82.571 1.377 0 .284-.058.568-.175.852-.117.285-.31.584-.576.896-.193.222-.507.535-.943.94-.436.406-.725.682-.867.83-.141.149-.277.306-.407.472h2.48L18.195 9.5h-4.351c.046-.352.149-.686.31-1.003.161-.318.362-.613.603-.887.24-.273.682-.714 1.323-1.323.482-.462.786-.763.913-.903.228-.254.384-.474.47-.66.084-.185.126-.353.126-.502 0-.241-.07-.437-.212-.586-.142-.15-.322-.225-.54-.225-.221 0-.415.084-.58.252-.167.167-.292.47-.377.91zm5.068.987c-.25-.166-.438-.358-.564-.574-.125-.217-.188-.457-.188-.72 0-.306.088-.617.264-.933.176-.316.439-.565.789-.747.35-.182.746-.273 1.189-.273.638 0 1.136.166 1.494.498.358.332.537.751.537 1.26 0 .357-.101.67-.303.934-.202.266-.504.486-.908.662.293.179.512.396.657.652.145.255.217.548.217.876 0 .54-.172 1.032-.518 1.475-.5.638-1.186.957-2.055.957-.632 0-1.14-.186-1.524-.56-.384-.372-.576-.846-.576-1.422 0-.479.134-.907.4-1.285.267-.377.63-.644 1.09-.8zm.533-1.202c0 .225.068.406.205.545.136.138.314.207.532.207.25 0 .471-.095.662-.285.19-.19.285-.413.285-.667 0-.23-.07-.418-.21-.561-.14-.144-.319-.215-.537-.215-.257 0-.478.094-.661.283-.184.189-.276.42-.276.693zm-.625 3.31c0 .268.073.478.22.63.146.154.336.23.57.23.362 0 .641-.16.838-.478.197-.32.295-.666.295-1.04 0-.241-.075-.439-.227-.593-.15-.155-.344-.232-.578-.232-.293 0-.553.135-.779.405-.226.27-.34.63-.34 1.079z"/></g></svg>