<svg xmlns="http://www.w3.org/2000/svg" xmlns:xlink="http://www.w3.org/1999/xlink" width="28" height="12" viewBox="0 0 28 12"><title>46</title><defs><path id="a" d="M6 0h16a6 6 0 1 1 0 12H6A6 6 0 1 1 6 0z"/><linearGradient id="c" x1="0%" x2="100%" y1="50%" y2="50%"><stop offset="0%" stop-color="#FFF" stop-opacity="0"/><stop offset="50.903%" stop-color="#FFF" stop-opacity=".4"/><stop offset="100%" stop-color="#FFF" stop-opacity="0"/></linearGradient><path id="b" d="M6 0h16a6 6 0 1 1 0 12H6A6 6 0 1 1 6 0z"/><linearGradient id="e" x1="50%" x2="50%" y1="0%" y2="100%"><stop offset="0%" stop-color="#FFF" stop-opacity=".75"/><stop offset="100%" stop-color="#FFF" stop-opacity=".951"/></linearGradient><linearGradient id="f" x1="84.43%" x2="33.446%" y1="44.538%" y2="24.64%"><stop offset="0%" stop-color="#FFF" stop-opacity=".294"/><stop offset="100%" stop-color="#FFF" stop-opacity="0"/></linearGradient><linearGradient id="g" x1="84.43%" x2="31.646%" y1="44.487%" y2="24.111%"><stop offset="0%" stop-color="#FFF" stop-opacity="0"/><stop offset="100%" stop-color="#FFF" stop-opacity=".294"/></linearGradient><path id="i" d="M16.33 8.04h-2.818l.244-1.172 3.872-4.526h1.211l-.942 4.507h.869l-.25 1.191h-.868L17.34 9.5h-1.318l.307-1.46zm.248-1.191l.464-2.232-1.89 2.232h1.426zm7.979-2.76l-1.314.108c-.026-.283-.093-.482-.202-.595a.583.583 0 0 0-.442-.171.867.867 0 0 0-.635.283c-.264.27-.475.706-.635 1.308.303-.198.624-.297.962-.297.554 0 1.01.188 1.367.566.358.378.538.892.538 1.543 0 .518-.126 1.007-.376 1.467-.251.46-.564.797-.938 1.009-.374.211-.77.317-1.186.317a2 2 0 0 1-1.082-.3c-.32-.2-.568-.493-.742-.877-.174-.384-.261-.898-.261-1.543 0-1.28.283-2.365.85-3.257.566-.892 1.313-1.337 2.24-1.337.534 0 .959.146 1.275.439.316.293.51.739.58 1.338zm-3.599 3.307c0 .377.075.655.225.834.15.18.335.269.556.269.274 0 .508-.127.704-.38.263-.343.395-.802.395-1.378 0-.37-.073-.645-.22-.823a.672.672 0 0 0-.537-.266c-.179 0-.36.068-.542.203-.182.135-.324.35-.427.645a2.708 2.708 0 0 0-.154.896z"/><filter id="h" width="118.1%" height="127.3%" x="-9.1%" y="-6.8%" filterUnits="objectBoundingBox"><feOffset dy=".5" in="SourceAlpha" result="shadowOffsetOuter1"/><feGaussianBlur in="shadowOffsetOuter1" result="shadowBlurOuter1" stdDeviation=".25"/><feColorMatrix in="shadowBlurOuter1" values="0 0 0 0 1 0 0 0 0 0.660449232 0 0 0 0 0.145098039 0 0 0 0.551190997 0"/></filter></defs><g fill="none" fill-rule="evenodd"><g><use fill="#A5A5A5" xlink:href="#a"/><mask id="d" fill="#fff"><use xlink:href="#b"/></mask><path stroke="url(#c)" stroke-width=".6" d="M22 .3H6a5.682 5.682 0 0 0-4.03 1.67A5.682 5.682 0 0 0 .3 6c0 1.574.638 2.999 1.67 4.03A5.682 5.682 0 0 0 6 11.7h16a5.682 5.682 0 0 0 4.03-1.67A5.682 5.682 0 0 0 27.7 6a5.682 5.682 0 0 0-1.67-4.03A5.682 5.682 0 0 0 22 .3z"/><g fill-rule="nonzero" mask="url(#d)"><path fill="url(#e)" d="M7.101.002L5.471 0a.5.5 0 0 0-.38.174l-2.751 3.2L.933 6.283a.5.5 0 0 0 .45.718h.723a.5.5 0 0 0 .384-.18L7.485.822A.5.5 0 0 0 7.1.002z" transform="translate(5 2.5)"/><path fill="#FFF" d="M7.34 5.875V3.004a.5.5 0 0 0-.5-.5H5.29a.29.29 0 1 0 0 .581h.296V9a.5.5 0 0 0 .5.5h.754a.5.5 0 0 0 .5-.5V5.875z"/></g><path fill="#FFF" fill-opacity=".4" d="M13.8 9.6l1.8 1.8H12z" mask="url(#d)"/><path fill="#FFF" fill-opacity=".4" d="M13.8.6l1.8 1.8H12z" mask="url(#d)" transform="matrix(1 0 0 -1 0 3)"/><path fill="url(#f)" style="mix-blend-mode:overlay" d="M8.713-2.4L2.191 12.47H-7.2L-.891-2.4z" mask="url(#d)" opacity=".552"/><path fill="url(#g)" style="mix-blend-mode:overlay" d="M33.165-3.6l-10.479 24H7.6l10.135-24z" mask="url(#d)" opacity=".524"/></g><g fill-rule="nonzero"><use fill="#000" filter="url(#h)" xlink:href="#i"/><use fill="#FFF" xlink:href="#i"/></g></g></svg>