<svg xmlns="http://www.w3.org/2000/svg" xmlns:xlink="http://www.w3.org/1999/xlink" width="28" height="12" viewBox="0 0 28 12"><title>6</title><defs><path id="a" d="M6 0h16c3.314 0 6 2.686 6 6s-2.686 6-6 6H6c-3.314 0-6-2.686-6-6s2.686-6 6-6z"/><linearGradient id="b" x1="50%" x2="50%" y1="0%" y2="100%"><stop offset="0%" stop-color="#FFF" stop-opacity=".75"/><stop offset="100%" stop-color="#FFF" stop-opacity=".951"/></linearGradient></defs><g fill="none" fill-rule="evenodd"><use fill="#BDBDBD" xlink:href="#a"/><path fill="#FFF" fill-rule="nonzero" d="M21.776 4.09l-1.313.107c-.026-.283-.094-.482-.203-.595-.11-.114-.256-.171-.442-.171-.238 0-.45.094-.635.283-.263.27-.475.706-.634 1.308.302-.198.623-.297.961-.297.554 0 1.01.188 1.368.566.358.378.537.892.537 1.543 0 .518-.126 1.007-.376 1.467-.25.46-.563.797-.938 1.009-.374.211-.77.317-1.186.317-.4 0-.761-.1-1.082-.3-.32-.2-.568-.493-.742-.877-.174-.384-.261-.898-.261-1.543 0-1.28.283-2.365.85-3.257.566-.892 1.313-1.337 2.24-1.337.534 0 .96.146 1.275.439.316.293.51.739.581 1.338zm-3.599 3.306c0 .377.075.655.225.834.15.18.335.269.557.269.273 0 .508-.127.703-.38.263-.343.395-.802.395-1.378 0-.37-.073-.645-.22-.823-.146-.177-.325-.266-.537-.266-.179 0-.36.068-.542.203-.182.135-.324.35-.427.645-.102.294-.154.593-.154.896z"/><g fill-rule="nonzero"><path fill="url(#b)" d="M7.101.002L5.471 0c-.147 0-.286.064-.38.174l-2.751 3.2L.933 6.283c-.12.249-.016.548.232.668.068.033.143.05.218.05h.723c.148 0 .289-.066.384-.18L7.485.822C7.662.61 7.633.295 7.42.118 7.33.043 7.218.002 7.1.002z" transform="translate(5 2.5)"/><path fill="#FFF" d="M7.34 5.875V3.004c0-.277-.224-.5-.5-.5H5.29c-.16 0-.29.13-.29.29 0 .161.13.291.29.291h.296V9c0 .276.224.5.5.5h.754c.276 0 .5-.224.5-.5V5.875z"/></g></g></svg>