<svg xmlns="http://www.w3.org/2000/svg" xmlns:xlink="http://www.w3.org/1999/xlink" width="28" height="12" viewBox="0 0 28 12"><title>70</title><defs><path id="a" d="M6 0h16c3.314 0 6 2.686 6 6s-2.686 6-6 6H6c-3.314 0-6-2.686-6-6s2.686-6 6-6z"/><linearGradient id="c" x1="0%" x2="100%" y1="50%" y2="50%"><stop offset="0%" stop-color="#C8C8C8" stop-opacity="0"/><stop offset="50.903%" stop-color="#FFF" stop-opacity=".283"/><stop offset="100%" stop-color="#979797" stop-opacity="0"/></linearGradient><path id="b" d="M6 0h16c3.314 0 6 2.686 6 6s-2.686 6-6 6H6c-3.314 0-6-2.686-6-6s2.686-6 6-6z"/><linearGradient id="e" x1="50%" x2="50%" y1="0%" y2="100%"><stop offset="0%" stop-color="#FFF" stop-opacity=".75"/><stop offset="100%" stop-color="#FFF" stop-opacity=".951"/></linearGradient><linearGradient id="f" x1="84.43%" x2="33.446%" y1="44.538%" y2="24.64%"><stop offset="0%" stop-color="#FFF" stop-opacity=".302"/><stop offset="100%" stop-color="#FFF" stop-opacity="0"/></linearGradient><linearGradient id="g" x1="84.43%" x2="31.646%" y1="44.487%" y2="24.111%"><stop offset="0%" stop-color="#FFF" stop-opacity="0"/><stop offset="100%" stop-color="#FFF" stop-opacity=".492"/></linearGradient><linearGradient id="h" x1="84.43%" x2="31.646%" y1="44.487%" y2="24.111%"><stop offset="0%" stop-color="#FFF" stop-opacity="0"/><stop offset="100%" stop-color="#FFF" stop-opacity=".3"/></linearGradient></defs><g fill="none" fill-rule="evenodd"><g><use fill="#BDBDBD" xlink:href="#a"/><mask id="d" fill="#fff"><use xlink:href="#b"/></mask><path stroke="url(#c)" stroke-width=".6" d="M6 .3C2.852.3.3 2.852.3 6s2.552 5.7 5.7 5.7h16c3.148 0 5.7-2.552 5.7-5.7S25.148.3 22 .3H6z"/><g fill-rule="nonzero" mask="url(#d)"><path fill="url(#e)" d="M7.101.002L5.471 0c-.147 0-.286.064-.38.174l-2.751 3.2L.933 6.283c-.12.249-.016.548.232.668.068.033.143.05.218.05h.723c.148 0 .289-.066.384-.18L7.485.822C7.662.61 7.633.295 7.42.118 7.33.043 7.218.002 7.1.002z" transform="translate(5 2.5)"/><path fill="#FFF" d="M7.34 5.875V3.004c0-.277-.224-.5-.5-.5H5.29c-.16 0-.29.13-.29.29 0 .161.13.291.29.291h.296V9c0 .276.224.5.5.5h.754c.276 0 .5-.224.5-.5V5.875z"/></g><path fill="#FFF" fill-opacity=".4" d="M13.8 9.6l1.8 1.8H12z" mask="url(#d)"/><path fill="#FFF" fill-opacity=".4" d="M13.8.6l1.8 1.8H12z" mask="url(#d)" transform="matrix(1 0 0 -1 0 3)"/><path fill="url(#f)" style="mix-blend-mode:overlay" d="M8.713-2.4L2.191 12.47H-7.2L-.891-2.4z" mask="url(#d)" opacity=".9"/><path fill="url(#g)" style="mix-blend-mode:overlay" d="M33.165-3.6l-10.479 24H7.6l10.135-24z" mask="url(#d)" opacity=".524"/><path fill="url(#h)" style="mix-blend-mode:overlay" d="M39.565-6L29.086 18H14L24.135-6z" mask="url(#d)" opacity=".524"/></g><path fill="#FFF" fill-rule="nonzero" d="M14.274 3.733l.268-1.294h4.722l-.21.997c-.3.24-.63.603-.991 1.086-.362.483-.696 1.024-1.004 1.621-.307.597-.559 1.165-.754 1.702-.27.742-.438 1.294-.503 1.655h-1.333c.059-.358.197-.85.415-1.475.267-.768.6-1.51 1.001-2.226.4-.716.884-1.405 1.45-2.066h-3.061zm5.17 3.438c0-.72.123-1.449.367-2.188.3-.901.683-1.572 1.152-2.011.469-.44.99-.66 1.563-.66.579 0 1.055.21 1.428.63.373.42.559 1.03.559 1.831 0 .733-.136 1.507-.408 2.322-.272.816-.639 1.44-1.1 1.875-.463.435-.984.652-1.563.652-.58 0-1.058-.21-1.434-.63-.375-.42-.563-1.027-.563-1.821zm1.377.283c0 .384.062.654.186.81.124.157.283.235.479.235.26 0 .491-.12.693-.361.27-.323.51-.957.718-1.905.166-.752.249-1.347.249-1.787 0-.358-.063-.616-.188-.774-.126-.158-.286-.236-.481-.236-.248 0-.467.118-.66.356-.283.345-.527.952-.732 1.821-.176.752-.264 1.366-.264 1.841z"/></g></svg>