<svg xmlns="http://www.w3.org/2000/svg" xmlns:xlink="http://www.w3.org/1999/xlink" width="28" height="12" viewBox="0 0 28 12"><title>8</title><defs><path id="a" d="M6 0h16c3.314 0 6 2.686 6 6s-2.686 6-6 6H6c-3.314 0-6-2.686-6-6s2.686-6 6-6z"/><linearGradient id="b" x1="50%" x2="50%" y1="0%" y2="100%"><stop offset="0%" stop-color="#FFF" stop-opacity=".75"/><stop offset="100%" stop-color="#FFF" stop-opacity=".951"/></linearGradient></defs><g fill="none" fill-rule="evenodd"><use fill="#BDBDBD" xlink:href="#a"/><path fill="#FFF" fill-rule="nonzero" d="M18.168 5.56c-.251-.166-.439-.358-.564-.574-.126-.217-.188-.457-.188-.72 0-.306.088-.617.263-.933.176-.316.439-.565.789-.747.35-.182.746-.273 1.189-.273.638 0 1.136.166 1.494.498.358.332.537.751.537 1.26 0 .357-.1.67-.303.934-.201.266-.504.486-.908.662.293.179.512.396.657.652.145.255.217.548.217.876 0 .54-.172 1.032-.517 1.475-.502.638-1.187.957-2.056.957-.631 0-1.14-.186-1.523-.56-.385-.372-.577-.846-.577-1.422 0-.479.134-.907.4-1.285.268-.377.63-.644 1.09-.8zm.532-1.202c0 .225.068.406.205.545.137.138.314.207.532.207.25 0 .471-.095.662-.285.19-.19.285-.413.285-.667 0-.23-.07-.418-.21-.561-.14-.144-.318-.215-.537-.215-.257 0-.477.094-.661.283-.184.189-.276.42-.276.693zm-.625 3.31c0 .268.073.478.22.63.146.154.337.23.57.23.362 0 .641-.16.838-.478.197-.32.296-.666.296-1.04 0-.241-.076-.439-.227-.593-.152-.155-.345-.232-.579-.232-.293 0-.553.135-.779.405-.226.27-.34.63-.34 1.079z"/><g fill-rule="nonzero"><path fill="url(#b)" d="M7.101.002L5.471 0c-.147 0-.286.064-.38.174l-2.751 3.2L.933 6.283c-.12.249-.016.548.232.668.068.033.143.05.218.05h.723c.148 0 .289-.066.384-.18L7.485.822C7.662.61 7.633.295 7.42.118 7.33.043 7.218.002 7.1.002z" transform="translate(5 2.5)"/><path fill="#FFF" d="M7.34 5.875V3.004c0-.277-.224-.5-.5-.5H5.29c-.16 0-.29.13-.29.29 0 .161.13.291.29.291h.296V9c0 .276.224.5.5.5h.754c.276 0 .5-.224.5-.5V5.875z"/></g></g></svg>