<svg xmlns="http://www.w3.org/2000/svg" xmlns:xlink="http://www.w3.org/1999/xlink" width="28" height="12" viewBox="0 0 28 12"><title>9</title><defs><path id="a" d="M6 0h16c3.314 0 6 2.686 6 6s-2.686 6-6 6H6c-3.314 0-6-2.686-6-6s2.686-6 6-6z"/><linearGradient id="b" x1="50%" x2="50%" y1="0%" y2="100%"><stop offset="0%" stop-color="#FFF" stop-opacity=".75"/><stop offset="100%" stop-color="#FFF" stop-opacity=".951"/></linearGradient></defs><g fill="none" fill-rule="evenodd"><use fill="#BDBDBD" xlink:href="#a"/><path fill="#FFF" fill-rule="nonzero" d="M16.654 7.85l1.313-.108c.027.28.094.477.203.591.11.114.256.17.442.17.238 0 .448-.092.63-.277.267-.27.478-.707.635-1.309-.303.195-.622.293-.957.293-.554 0-1.01-.188-1.368-.564-.358-.376-.537-.89-.537-1.54 0-.73.23-1.377.689-1.944.459-.566 1.068-.85 1.826-.85.67 0 1.183.245 1.538.733s.532 1.149.532 1.982c0 1.286-.284 2.373-.852 3.262-.568.889-1.316 1.333-2.243 1.333-.544 0-.979-.155-1.304-.466-.326-.311-.508-.746-.547-1.306zm3.599-3.31c0-.379-.075-.656-.225-.833-.15-.178-.335-.267-.557-.267-.273 0-.507.127-.703.381-.263.342-.395.801-.395 1.377 0 .371.073.646.22.823.146.177.325.266.537.266.179 0 .36-.068.542-.205.182-.137.324-.352.427-.647.102-.295.154-.593.154-.896z"/><g fill-rule="nonzero"><path fill="url(#b)" d="M7.101.002L5.471 0c-.147 0-.286.064-.38.174l-2.751 3.2L.933 6.283c-.12.249-.016.548.232.668.068.033.143.05.218.05h.723c.148 0 .289-.066.384-.18L7.485.822C7.662.61 7.633.295 7.42.118 7.33.043 7.218.002 7.1.002z" transform="translate(5 2.5)"/><path fill="#FFF" d="M7.34 5.875V3.004c0-.277-.224-.5-.5-.5H5.29c-.16 0-.29.13-.29.29 0 .161.13.291.29.291h.296V9c0 .276.224.5.5.5h.754c.276 0 .5-.224.5-.5V5.875z"/></g></g></svg>