<?xml version="1.0" encoding="UTF-8"?>
<svg width="16px" height="16px" viewBox="0 0 16 16" version="1.1" xmlns="http://www.w3.org/2000/svg" xmlns:xlink="http://www.w3.org/1999/xlink">
    <title>ic_male</title>
    <defs>
        <linearGradient x1="19.1326531%" y1="0%" x2="70.0535568%" y2="50%" id="linearGradient-1">
            <stop stop-color="#2EFEFD" offset="0%"></stop>
            <stop stop-color="#2ECEFE" offset="100%"></stop>
        </linearGradient>
        <path d="M12.0404921,1.99394215 L13.0869913,5.59295213 C13.2703491,6.22353676 12.9078,6.88336742 12.2772154,7.06672516 C12.261099,7.07141138 12.2448852,7.07575586 12.2285849,7.07975565 L12.2028094,7.08608049 C11.5437483,7.24780207 10.8743384,6.86131812 10.6848628,6.20969362 L10.499,5.574 L9.68857068,7.04120596 C11.0729447,8.44947918 11.3825321,10.7178688 10.306839,12.5810239 C9.02448568,14.8021251 6.25904768,15.6062431 4.13006041,14.3770717 C2.00107313,13.1479003 1.31474073,10.3509018 2.59709409,8.12980062 C3.64201593,6.31994291 5.6716699,5.4509276 7.53930553,5.85620012 L8.471,4.173 L7.57518785,4.3931156 C6.90171811,4.55837278 6.21767344,4.16343941 6.02405549,3.49756891 C5.84069775,2.86698428 6.20324679,2.20715362 6.83383142,2.02379588 C6.8499478,2.01910966 6.86616159,2.01476518 6.8824619,2.01076538 L10.4967701,1.12388012 L10.5225456,1.11755529 C11.1816067,0.955833705 11.8510166,1.34231766 12.0404921,1.99394215 Z M5.40063771,9.74842728 C5.05090497,10.3541821 5.23808654,11.1169999 5.81871943,11.4522285 C6.39935232,11.787457 7.15356269,11.5681521 7.50329542,10.9623973 C7.85302816,10.3566424 7.66584659,9.59382463 7.0852137,9.25859607 C6.5045808,8.92336751 5.75037044,9.14267242 5.40063771,9.74842728 Z" id="path-2"></path>
    </defs>
    <g id="ic_male" stroke="none" stroke-width="1" fill="none" fill-rule="evenodd">
        <g id="形状结合">
            <use fill="url(#linearGradient-1)" xlink:href="#path-2"></use>
            <use fill-opacity="0.2" fill="#FFFFFF" xlink:href="#path-2"></use>
        </g>
    </g>
</svg>