<?xml version="1.0" encoding="UTF-8"?>
<svg width="16px" height="16px" viewBox="0 0 16 16" version="1.1" xmlns="http://www.w3.org/2000/svg" xmlns:xlink="http://www.w3.org/1999/xlink">
    <title>ic_female</title>
    <defs>
        <linearGradient x1="19.1326531%" y1="0%" x2="80.8673469%" y2="83.328986%" id="linearGradient-1">
            <stop stop-color="#FF8D8D" offset="0%"></stop>
            <stop stop-color="#FF6CD2" offset="100%"></stop>
        </linearGradient>
    </defs>
    <g id="ic_female" stroke="none" stroke-width="1" fill="none" fill-rule="evenodd">
        <path d="M4.31391155,8.55501714 C4.32479485,8.56112739 4.3356038,8.56736915 4.34633601,8.57374107 L8.36274997,10.9583609 C9.1074679,11.4005138 9.36342037,12.3560647 8.93942442,13.1112676 L8.92606814,13.1350572 C8.50789659,13.879886 7.5650986,14.1446939 6.82026989,13.7265224 C6.80938658,13.7204121 6.79857764,13.7141703 6.78784543,13.7077984 L6.135,13.32 L5.62909302,14.221194 C5.21672497,14.9556858 4.28701138,15.2168186 3.55251959,14.8044506 C3.54178732,14.7984251 3.53112839,14.79227 3.52054512,14.7859865 L3.51599493,14.783285 C2.771277,14.3411321 2.51532453,13.3855811 2.93932048,12.6303782 L3.447,11.725 L2.77143146,11.3231786 C2.02671353,10.8810257 1.77076106,9.92547479 2.19475702,9.17027189 L2.2081133,9.14648227 C2.62628484,8.40165355 3.56908283,8.13684559 4.31391155,8.55501714 Z M10.9265295,1.58853709 C12.9671527,2.76669144 13.6392444,5.42292564 12.4276884,7.52140223 C11.2161324,9.61987881 8.57972024,10.3659474 6.53909703,9.18779303 C4.49847383,8.00963868 3.82638209,5.35340448 5.03793811,3.25492789 C6.24949413,1.15645131 8.8859063,0.41038273 10.9265295,1.58853709 Z M7.72512004,4.80637311 C7.39469567,5.3786849 7.57799342,6.10311241 8.13452702,6.42442724 C8.69106062,6.74574206 9.41008212,6.54226881 9.74050649,5.96995702 C10.0709309,5.39764522 9.88763311,4.67321771 9.33109951,4.35190289 C8.77456591,4.03058806 8.05554441,4.23406131 7.72512004,4.80637311 Z" id="形状结合" fill="url(#linearGradient-1)"></path>
    </g>
</svg>