<svg xmlns="http://www.w3.org/2000/svg" width="48" height="48" viewBox="0 0 48 48"><title>ic_wechat_hp</title><g fill="none" fill-rule="evenodd"><circle cx="24" cy="24" r="24" fill="#1DDF5D"/><g fill="#FFF"><path d="M31.77 25.659c-.59 0-1.062-.472-1.062-1.061 0-.59.472-1.062 1.062-1.062.59 0 1.06.472 1.06 1.062 0 .56-.47 1.06-1.06 1.06m-5.23 0c-.59 0-1.062-.47-1.062-1.06 0-.59.472-1.062 1.061-1.062.59 0 1.062.472 1.062 1.062 0 .56-.472 1.06-1.062 1.06m7.762 5.957C35.955 30.425 37 28.653 37 26.707c0-3.601-3.483-6.506-7.808-6.506-4.324 0-7.807 2.905-7.807 6.506 0 3.601 3.483 6.506 7.807 6.506.9 0 1.742-.116 2.555-.349.058-.029.145-.029.232-.029.145 0 .29.058.406.116l1.713.988c.058.029.087.058.145.058.145 0 .26-.116.26-.261 0-.058-.028-.116-.028-.204 0-.029-.232-.813-.348-1.307-.03-.058-.03-.116-.03-.174-.028-.203.059-.348.204-.436"/><path d="M23.431 19.519c-.676 0-1.212-.536-1.212-1.213s.536-1.213 1.212-1.213c.677 0 1.213.536 1.213 1.213 0 .649-.536 1.213-1.213 1.213m-6.215 0c-.677 0-1.213-.536-1.213-1.213s.536-1.213 1.213-1.213 1.213.536 1.213 1.213c0 .649-.536 1.213-1.213 1.213M20.396 13C15.218 13 11 16.479 11 20.799c0 2.348 1.25 4.464 3.258 5.885.146.116.262.29.262.522 0 .057-.03.144-.03.202-.145.58-.406 1.537-.435 1.566-.03.087-.059.145-.059.232 0 .174.146.319.32.319.059 0 .117-.03.175-.058l2.065-1.189c.146-.087.32-.145.495-.145.087 0 .174 0 .262.03.96.26 2.007.434 3.054.434h.524c-.204-.609-.32-1.247-.32-1.913 0-3.914 3.84-7.103 8.553-7.103h.523C28.978 15.84 25.08 13 20.397 13"/></g></g></svg>