<?xml version="1.0" encoding="UTF-8"?>
<svg width="48px" height="48px" viewBox="0 0 48 48" version="1.1" xmlns="http://www.w3.org/2000/svg" xmlns:xlink="http://www.w3.org/1999/xlink">
    <title>ic_cell</title>
    <defs>
        <linearGradient x1="24.6913637%" y1="10.4847559%" x2="100%" y2="114.189633%" id="linearGradient-1">
            <stop stop-color="#FFE688" offset="0%"></stop>
            <stop stop-color="#FFA257" offset="100%"></stop>
        </linearGradient>
    </defs>
    <g id="伴伴" stroke="none" stroke-width="1" fill="none" fill-rule="evenodd">
        <g id="分享" transform="translate(-308.000000, -352.000000)">
            <g id="popup_share" transform="translate(20.000000, 352.000000)">
                <g id="ic_cell" transform="translate(288.000000, 0.000000)">
                    <circle id="base" fill="url(#linearGradient-1)" cx="24" cy="24" r="24"></circle>
                    <path d="M27.6111111,15.5 C29.2066004,15.5 30.5,16.7933996 30.5,18.3888889 L30.5,29.6111111 C30.5,31.2066004 29.2066004,32.5 27.6111111,32.5 L20.3888889,32.5 C18.7933996,32.5 17.5,31.2066004 17.5,29.6111111 L17.5,18.3888889 C17.5,16.7933996 18.7933996,15.5 20.3888889,15.5 L27.6111111,15.5 Z M24,29.3518519 C23.2819574,29.3518519 22.7,29.9155713 22.7,30.6111111 C22.7,31.3066509 23.2819574,31.8703704 24,31.8703704 C24.7180426,31.8703704 25.3,31.3066509 25.3,30.6111111 C25.3,29.9155713 24.7180426,29.3518519 24,29.3518519 Z M27.8277778,17.3888889 L20.1722222,17.3888889 C19.7733499,17.3888889 19.45,17.7122388 19.45,18.1111111 L19.45,18.1111111 L19.45,28 C19.45,28.3988723 19.7733499,28.7222222 20.1722222,28.7222222 L20.1722222,28.7222222 L27.8277778,28.7222222 C28.2266501,28.7222222 28.55,28.3988723 28.55,28 L28.55,28 L28.55,18.1111111 C28.55,17.7122388 28.2266501,17.3888889 27.8277778,17.3888889 L27.8277778,17.3888889 Z M24.9851852,16.1296296 L23.0148148,16.1296296 C22.8409474,16.1296296 22.7,16.270577 22.7,16.4444444 C22.7,16.6183119 22.8409474,16.7592593 23.0148148,16.7592593 L23.0148148,16.7592593 L24.9851852,16.7592593 C25.1590526,16.7592593 25.3,16.6183119 25.3,16.4444444 C25.3,16.270577 25.1590526,16.1296296 24.9851852,16.1296296 L24.9851852,16.1296296 Z" id="cell" fill="#FFFFFF"></path>
                </g>
            </g>
        </g>
    </g>
</svg>