<?xml version="1.0" encoding="UTF-8"?>
<svg width="48px" height="48px" viewBox="0 0 48 48" version="1.1" xmlns="http://www.w3.org/2000/svg" xmlns:xlink="http://www.w3.org/1999/xlink">
    <title>ic_sharetofriend</title>
    <defs>
        <linearGradient x1="82.4456637%" y1="85.8205346%" x2="14.4619623%" y2="14.4366124%" id="linearGradient-1">
            <stop stop-color="#FF7092" offset="0%"></stop>
            <stop stop-color="#FFA8D0" offset="100%"></stop>
        </linearGradient>
        <circle id="path-2" cx="24" cy="24" r="24"></circle>
    </defs>
    <g id="伴伴" stroke="none" stroke-width="1" fill="none" fill-rule="evenodd">
        <g id="分享" transform="translate(-20.000000, -622.000000)">
            <g id="popup_share" transform="translate(20.000000, 607.000000)">
                <g id="ic_sharetofriend" transform="translate(0.000000, 15.000000)">
                    <mask id="mask-3" fill="white">
                        <use xlink:href="#path-2"></use>
                    </mask>
                    <use id="matte" fill="url(#linearGradient-1)" xlink:href="#path-2"></use>
                    <g id="ic" mask="url(#mask-3)" fill="#FFFFFF" fill-rule="nonzero">
                        <g transform="translate(16.000000, 16.000000)" id="路径">
                            <path d="M7.32061538,10.2375385 C7.24,10.2110769 6.73415385,9.69169231 7.05046154,8.71507692 L7.04615385,8.71507692 C7.87076923,7.85292308 8.57661538,6.46584615 8.57661538,5.09907692 C8.57661538,2.99938462 7.12492308,1.89846154 5.52615385,1.89846154 C3.92615385,1.89846154 2.53846154,2.99938462 2.53846154,5.09907692 C2.53846154,6.47076923 3.18523077,7.86338462 4.01415385,8.72492308 C4.33723077,9.58523077 3.75938462,10.192 3.63815385,10.2375385 C1.96430769,10.8516923 -6.07191065e-14,11.9729231 -6.07191065e-14,13.0787692 C-6.07191065e-14,13.3772308 -6.07191065e-14,13.1963077 -6.07191065e-14,13.4935385 C-6.07191065e-14,15.0006154 2.87815385,15.3433846 5.54215385,15.3433846 C8.20923077,15.3433846 11.0516923,15.0006154 11.0516923,13.4935385 C11.0516923,13.1969231 11.0516923,13.3778462 11.0516923,13.0787692 C11.0516923,11.9390769 9.07753846,10.8276923 7.32061538,10.2375385 Z"></path>
                            <path d="M12.4670769,7.46892308 C12.392,7.44369231 11.9156923,7.32738462 12.2129231,6.40861538 L12.2092308,6.40861538 C12.9846154,5.59876923 13.5193846,4.29292308 13.5193846,3.00984615 C13.5193846,1.03507692 12.2824615,-2.17038508e-13 10.7796923,-2.17038508e-13 C9.67323077,-2.17038508e-13 8.72,0.564923077 8.29230769,1.648 C9.19015385,2.38953846 9.808,3.544 9.808,5.09846154 C9.808,6.75815385 9.03015385,8.27261538 8.21661538,9.24984615 C9.51261538,9.74030769 11.5378462,10.7267692 12.1175385,12.2344615 C14.1593846,12.1212308 15.9753846,11.6972308 15.9753846,10.5292308 C15.9753846,10.2504615 15.9753846,10.4203077 15.9753846,10.1396923 C15.9747692,9.06892308 14.1187692,8.02338462 12.4670769,7.46892308 Z"></path>
                        </g>
                    </g>
                </g>
            </g>
        </g>
    </g>
</svg>