<?xml version="1.0" encoding="UTF-8"?>
<svg width="24px" height="24px" viewBox="0 0 24 24" version="1.1" xmlns="http://www.w3.org/2000/svg" xmlns:xlink="http://www.w3.org/1999/xlink">
    <!-- Generator: Sketch 62 (91390) - https://sketch.com -->
    <title>身份</title>
    <desc>Created with Sketch.</desc>
    <g id="页面1" stroke="none" stroke-width="1" fill="none" fill-rule="evenodd" opacity="0.8">
        <g id="卧底房间-PK投票结果" transform="translate(-27.000000, -339.000000)" fill="#FFFFFF">
            <g id="avatar" transform="translate(9.000000, 326.000000)">
                <g id="身份" transform="translate(6.000000, 8.000000)">
                    <g id="平民" transform="translate(12.000000, 5.000000)">
                        <path d="M24,11.9362232 C24,11.119028 23.0857876,0 11.8661863,0 C1.85951962,0 0,9.9407738 0,11.9942983 C0,19.4148896 6.98926032,20.5521444 6.98926032,20.5521444 C6.6083336,22.5370133 7.99907911,23.9284642 10.2090772,22.9378078 C12.0155474,24.152212 13.312156,23.0312688 13.312156,23.0312688 C14.7773176,23.8251282 17.0291086,22.8676534 16.7126052,20.5322766 C16.7126052,20.5322766 24,19.0834266 24,11.9362232 Z M7.01048006,14.9018734 C5.16015959,14.9018734 3.65967098,13.1570638 3.65967098,11.0043473 C3.65967098,8.8531003 5.16015959,7.10817318 7.01048006,7.10817318 C8.8594192,7.10817318 10.3599375,8.8531003 10.3599375,11.0043473 C10.3606426,13.1570638 8.86012457,14.9018734 7.01048006,14.9018734 Z M13.4708339,16.9157799 C13.4006794,18.2521241 11.0879331,18.688951 10.8429362,16.9157799 C10.8174255,16.5518701 11.1615262,15.1434317 12.1572083,15.1434317 C13.1521263,15.1434317 13.5415468,16.4796583 13.4708339,16.9157799 Z M16.9888146,14.9018734 C15.1377006,14.9018734 13.6378585,13.1570638 13.6378585,11.0043473 C13.6378585,8.8531003 15.1377006,7.10817318 16.9888146,7.10817318 C18.8377537,7.10817318 20.3382719,8.8531003 20.3382719,11.0043473 C20.3389477,13.1570638 18.8384591,14.9018734 16.9888146,14.9018734 Z" id="bqklt"></path>
                    </g>
                </g>
            </g>
        </g>
    </g>
</svg>