<?xml version="1.0" encoding="UTF-8"?>
<svg width="31px" height="19px" viewBox="0 0 31 19" version="1.1" xmlns="http://www.w3.org/2000/svg" xmlns:xlink="http://www.w3.org/1999/xlink">
    <!-- Generator: Sketch 62 (91390) - https://sketch.com -->
    <title>avatar</title>
    <desc>Created with Sketch.</desc>
    <defs>
        <linearGradient x1="50%" y1="0%" x2="50%" y2="100%" id="linearGradient-1">
            <stop stop-color="#FFCC7D" offset="0%"></stop>
            <stop stop-color="#FF4747" offset="100%"></stop>
        </linearGradient>
    </defs>
    <g id="页面1" stroke="none" stroke-width="1" fill="none" fill-rule="evenodd" stroke-linejoin="round">
        <g id="卧底房间-PK他人发言" transform="translate(-43.000000, -326.000000)" fill="url(#linearGradient-1)" fill-rule="nonzero" stroke="#FFFFFF" stroke-width="2">
            <g id="PK" transform="translate(43.000000, 326.000000)">
                <path d="M6.84,12.68 L6.84,17.34 L2,17.34 L2,2 L9.66,2 C11.0238778,2 11.9929793,2.11690055 12.5762278,2.3113167 C13.686071,2.68126446 14.5744117,3.43269956 15.2204711,4.60590018 C15.6721241,5.44468426 15.9,6.35569077 15.9,7.34 C15.9,8.15290075 15.7511621,8.92158546 15.4563556,9.64665008 C15.1469124,10.4077132 14.7114011,11.0267011 14.1549305,11.5156891 C13.6392719,11.9625933 13.0910972,12.2665588 12.5160355,12.438219 C11.9995507,12.5923936 11.2954977,12.68 10.4,12.68 L6.84,12.68 Z M6.84,8.3 L9.7,8.3 C10.0751044,8.3 10.3770368,8.30895285 10.5432658,8.1923828 C10.7612988,8.00560401 10.78,7.65124161 10.78,7.24 C10.78,6.99204783 10.7558604,6.78125404 10.4652108,6.44711007 C10.3124932,6.38424877 10.0747758,6.38 9.76,6.38 L6.84,6.38 L6.84,8.3 Z M20.32,2 L20.32,17.34 L15.48,17.34 L15.48,2 L20.32,2 Z M30.0632964,17.34 L23.7469758,17.34 L18.1731519,9.57810471 L24.0289601,2 L30.4149557,2 L23.9711301,9.62172923 L30.0632964,17.34 Z" id="PK备份-2"></path>
            </g>
        </g>
    </g>
</svg>