<?xml version="1.0" encoding="UTF-8"?>
<svg width="24px" height="24px" viewBox="0 0 24 24" version="1.1" xmlns="http://www.w3.org/2000/svg" xmlns:xlink="http://www.w3.org/1999/xlink">
    <!-- Generator: Sketch 62 (91390) - https://sketch.com -->
    <title>卧底房间-PK投票结果</title>
    <desc>Created with Sketch.</desc>
    <g id="页面1" stroke="none" stroke-width="1" fill="none" fill-rule="evenodd" opacity="0.9">
        <g id="卧底房间-PK投票结果" transform="translate(-324.000000, -256.000000)" fill="#D8D8D8">
            <g id="凶手" transform="translate(323.037712, 255.127347)">
                <path d="M5.12117129,3.00367302 L12.9622875,3.47954082 L20.8034038,3.00367302 C20.8616024,3.00014102 20.9199277,2.99915566 20.9782125,3.00071978 C22.0823961,3.03035139 22.9534926,3.94949023 22.9238399,5.05367326 C22.7660933,10.9318955 22.1868162,14.9718951 21.1860086,17.1736718 C20.1494749,19.4540459 18.6869976,20.9574085 14.9171694,22.690849 C14.6062607,22.8338108 14.0328037,22.896454 13.1967984,22.8787783 L12.9622875,22.8719664 L12.9622875,22.8702879 C11.998206,22.9066203 11.3465788,22.8468074 11.0074057,22.690849 C7.23757741,20.9574085 5.77510011,19.4540459 4.73856646,17.1736718 C3.73775884,14.9718951 3.15848173,10.9318955 3.00073513,5.05367326 C2.97108248,3.94949023 3.84217898,3.03035139 4.94636258,3.00071978 C5.00464734,2.99915566 5.06297262,3.00014102 5.12117129,3.00367302 Z M7.96228752,7.872653 C6.30543327,7.872653 4.96228752,9.21579875 4.96228752,10.872653 C4.96228752,10.9858691 4.96855902,11.0976204 4.98028498,11.2065755 C5.71272877,10.387901 6.77733683,9.872653 7.96228752,9.872653 C9.14723822,9.872653 10.2118463,10.387901 10.9438015,11.2075785 C10.956016,11.0976204 10.9622875,10.9858691 10.9622875,10.872653 C10.9622875,9.21579875 9.61914177,7.872653 7.96228752,7.872653 Z M17.9622875,7.872653 C16.3054333,7.872653 14.9622875,9.21579875 14.9622875,10.872653 C14.9622875,10.9858691 14.968559,11.0976204 14.980285,11.2065755 C15.7127288,10.387901 16.7773368,9.872653 17.9622875,9.872653 C19.1472382,9.872653 20.2118463,10.387901 20.9438015,11.2075785 C20.956016,11.0976204 20.9622875,10.9858691 20.9622875,10.872653 C20.9622875,9.21579875 19.6191418,7.872653 17.9622875,7.872653 Z" id="形状结合"></path>
            </g>
        </g>
    </g>
</svg>