<svg xmlns="http://www.w3.org/2000/svg" width="16" height="16" viewBox="0 0 16 16"><title>ic_delete</title><g fill="none" fill-rule="evenodd"><circle cx="8" cy="8" r="8" fill="#FF4A4A"/><path fill="#FFF" fill-rule="nonzero" d="M8 9.097l-2.355 2.355c-.303.303-.794.303-1.097 0-.303-.303-.303-.794 0-1.097L6.903 8 4.548 5.645c-.303-.303-.303-.794 0-1.097.303-.303.794-.303 1.097 0L8 6.903l2.355-2.355c.303-.303.794-.303 1.097 0 .303.303.303.794 0 1.097L9.097 8l2.355 2.355c.303.303.303.794 0 1.097-.303.303-.794.303-1.097 0L8 9.097z"/></g></svg>