<?xml version="1.0" encoding="UTF-8"?>
<svg width="32px" height="32px" viewBox="0 0 32 32" version="1.1" xmlns="http://www.w3.org/2000/svg">
    <g id="保存图片" stroke="none" stroke-width="1" fill="none" fill-rule="evenodd">
        <path d="M24,24 C24.8284271,24 25.5,24.6715729 25.5,25.5 C25.5,26.3284271 24.8284271,27 24,27 L24,27 L8,27 C7.17157288,27 6.5,26.3284271 6.5,25.5 C6.5,24.6715729 7.17157288,24 8,24 L8,24 Z M17.9894048,3 C18.995921,3 19.8456239,3.74799143 19.9732591,4.74638226 L20.9441852,12.3411822 C20.976094,12.5907799 21.1885197,12.7777778 21.4401488,12.7777778 L24.4549123,12.7777778 C25.0071971,12.7777778 25.4549123,13.225493 25.4549123,13.7777778 C25.4549123,14.0557119 25.3392422,14.3211083 25.1356472,14.5103077 L17.3614697,21.7347958 C16.5939468,22.4480494 15.4060532,22.4480494 14.6385303,21.7347958 L6.86435283,14.5103077 C6.45978773,14.1343482 6.4365983,13.501608 6.81255778,13.0970429 C7.00175721,12.8934479 7.26715359,12.7777778 7.54508768,12.7777778 L10.5598512,12.7777778 C10.8114803,12.7777778 11.023906,12.5907799 11.0558148,12.3411822 L12.0267409,4.74638226 C12.1543761,3.74799143 13.004079,3 14.0105952,3 L17.9894048,3 Z" id="形状结合" fill="#FFFFFF" fill-rule="nonzero"></path>
    </g>
</svg>