<svg xmlns="http://www.w3.org/2000/svg" xmlns:xlink="http://www.w3.org/1999/xlink" width="21" height="16" viewBox="0 0 21 16"><title>ic_crown2</title><defs><path id="a" d="M1.738 3.258l8.397 4.617 8.393-4.617c.557-.306 1.258-.103 1.565.454.108.197.156.42.139.643l-.703 9.27c-.092 1.202-1.093 2.13-2.298 2.13H3.035c-1.205 0-2.207-.928-2.298-2.13l-.704-9.27c-.048-.635.428-1.188 1.062-1.237.223-.017.446.032.643.14z"/></defs><g fill="none" fill-rule="evenodd"><path fill="#C2C2C3" d="M11.108.768l5.473 8.708H3.685L9.157.768c.339-.538 1.05-.7 1.589-.362.146.092.27.216.362.362z"/><mask id="b" fill="#fff"><use xlink:href="#a"/></mask><use fill="#C2C2C3" xlink:href="#a"/><path fill="#EDEDED" d="M23.95-.784L0 14.139v3.731l20.265-1.866z" mask="url(#b)"/><text fill="#626283" font-family="Gotham-Medium, Gotham" font-size="10"><tspan x="7.267" y="12.8">2</tspan></text></g></svg>