<?xml version="1.0" encoding="UTF-8"?>
<svg width="24px" height="24px" viewBox="0 0 24 24" version="1.1" xmlns="http://www.w3.org/2000/svg" xmlns:xlink="http://www.w3.org/1999/xlink">
    <title>Combined Shape</title>
    <g id="Combined-Shape" stroke="none" stroke-width="1" fill="none" fill-rule="evenodd" fill-opacity="0.404747596">
        <path d="M12.375,13.8314919 L8.18473789,18.021754 C7.78253875,18.4239532 7.1304451,18.4239532 6.72824596,18.021754 C6.32604682,17.6195549 6.32604682,16.9674613 6.72824596,16.5652621 L10.9185081,12.375 L10.9185081,12.375 L6.72824596,8.18473789 C6.32604682,7.78253875 6.32604682,7.1304451 6.72824596,6.72824596 C7.1304451,6.32604682 7.78253875,6.32604682 8.18473789,6.72824596 L12.375,10.9185081 L12.375,10.9185081 L16.5652621,6.72824596 C16.9674613,6.32604682 17.6195549,6.32604682 18.021754,6.72824596 C18.4239532,7.1304451 18.4239532,7.78253875 18.021754,8.18473789 L13.8314919,12.375 L13.8314919,12.375 L18.021754,16.5652621 C18.4239532,16.9674613 18.4239532,17.6195549 18.021754,18.021754 C17.6195549,18.4239532 16.9674613,18.4239532 16.5652621,18.021754 L12.375,13.8314919 L12.375,13.8314919 Z" fill="#202020" fill-rule="nonzero"></path>
    </g>
</svg>