<svg xmlns="http://www.w3.org/2000/svg" width="24" height="24" viewBox="0 0 24 24"><title>ic_profile_contact</title><g fill="none" fill-rule="evenodd"><path fill="#60C8FF" d="M3 7h1.5A3.5 3.5 0 0 1 8 10.5c0 2.241.89 4.39 2.475 5.975L14 20 3 18V7z"/><path stroke="#313131" stroke-linejoin="round" stroke-width="2.4" d="M5.4 3h13.2A2.4 2.4 0 0 1 21 5.4v10.847a2.4 2.4 0 0 1-2.4 2.4h-2.1 0a1.905 1.905 0 0 1-2.88 1.636l-2.745-1.636h0H5.4a2.4 2.4 0 0 1-2.4-2.4V5.4A2.4 2.4 0 0 1 5.4 3z"/><path stroke="#313131" stroke-linecap="round" stroke-linejoin="round" stroke-width="2.4" d="M7 14c1.28.64 2.763.746 4.121.293L12 14h0"/></g></svg>