<?xml version="1.0" encoding="UTF-8"?>
<svg width="16px" height="16px" viewBox="0 0 16 16" version="1.1" xmlns="http://www.w3.org/2000/svg">
    <g id="ic_copy" stroke="none" stroke-width="1" fill="none" fill-rule="evenodd">
        <g fill="#202020" fill-rule="nonzero">
            <path d="M9,5.4 L4,5.4 C3.1163444,5.4 2.4,6.1163444 2.4,7 L2.4,12 C2.4,12.8836556 3.1163444,13.6 4,13.6 L9,13.6 C9.8836556,13.6 10.6,12.8836556 10.6,12 L10.6,7 C10.6,6.1163444 9.8836556,5.4 9,5.4 Z M4,6.6 L9,6.6 C9.2209139,6.6 9.4,6.7790861 9.4,7 L9.4,12 C9.4,12.2209139 9.2209139,12.4 9,12.4 L4,12.4 C3.7790861,12.4 3.6,12.2209139 3.6,12 L3.6,7 C3.6,6.7790861 3.7790861,6.6 4,6.6 Z" id="1"></path>
            <path d="M12,2.4 C12.8050281,2.4 13.5120102,2.91304362 13.592399,3.63919939 L13.6,3.77777778 L13.6,9.22222222 C13.6,9.9738454 12.9403725,10.5311022 12.1496648,10.594061 L12,10.6 L11.8185086,10.6 C11.4871378,10.6 11.2185086,10.3313708 11.2185086,10 C11.2185086,9.70176624 11.4360983,9.45435325 11.7211855,9.40785299 L11.8185086,9.4 L12,9.4 C12.2136232,9.4 12.3549128,9.31384407 12.3909215,9.25112268 L12.4,9.22222222 L12.4,3.77777778 C12.4,3.72591208 12.2892281,3.63234676 12.1006313,3.6066723 L12,3.6 L7,3.6 C6.78637675,3.6 6.64508724,3.68615593 6.60907846,3.74887732 L6.6,3.77777778 L6.6,4.04757199 C6.6,4.37894284 6.33137085,4.64757199 6,4.64757199 C5.70176624,4.64757199 5.45435325,4.42998238 5.40785299,4.14489511 L5.4,4.04757199 L5.4,3.77777778 C5.4,3.0261546 6.05962751,2.46889785 6.85033524,2.405939 L7,2.4 L12,2.4 Z" id="路径"></path>
        </g>
    </g>
</svg>