<svg xmlns="http://www.w3.org/2000/svg" width="24" height="24" viewBox="0 0 24 24"><title>ic_profile_language</title><g fill="none" fill-rule="evenodd"><path fill="#60C8FF" d="M9 2a15.446 15.446 0 0 0-.462 18.34L9 21l-5.25-3L2 11l2.625-6L9 2z"/><circle cx="12" cy="12" r="9.7" stroke="#313131" stroke-width="2.4"/><path fill="#313131" fill-rule="nonzero" d="M20.5 10.75a1.25 1.25 0 0 1 .128 2.494l-.128.006h-17a1.25 1.25 0 0 1-.128-2.494l.128-.006h17z"/><path stroke="#313131" stroke-linecap="round" stroke-width="2.4" d="M12.999 3.004C14.333 4.668 15 7.666 15 12c0 4.334-.667 7.334-2 9M11 3.004C9.666 4.668 8.999 7.666 8.999 12c0 4.334.666 7.334 2 9"/></g></svg>