<?xml version="1.0" encoding="UTF-8"?>
<svg width="32px" height="32px" viewBox="0 0 32 32" version="1.1" xmlns="http://www.w3.org/2000/svg" xmlns:xlink="http://www.w3.org/1999/xlink">
    <title>我的等级</title>
    <g id="我的等级" stroke="none" stroke-width="1" fill="none" fill-rule="evenodd">
        <path d="M8,5 L24,5 C25.6568542,5 27,6.34314575 27,8 L27,19.8042164 C27,21.1718179 26.3012947,22.4446307 25.147502,23.1788624 L17.6106265,27.9750559 C16.6279273,28.6004099 15.3720727,28.6004099 14.3893735,27.9750559 L6.85249803,23.1788624 C5.69870535,22.4446307 5,21.1718179 5,19.8042164 L5,8 C5,6.34314575 6.34314575,5 8,5 Z" id="矩形" fill="#202020"></path>
        <path d="M15.655776,18.6873076 L13.8723161,19.341177 C13.3537828,19.5312866 12.7793142,19.2650467 12.5892045,18.7465134 C12.5444677,18.6244916 12.5239454,18.4949192 12.5287859,18.3650451 L12.5995331,16.4668172 C12.6083494,16.2302656 12.532965,15.9982564 12.386791,15.8120642 L11.2138049,14.3179498 C10.8727642,13.8835425 10.9484529,13.2549177 11.3828602,12.913877 C11.4850855,12.833623 11.6019744,12.7740651 11.7269878,12.7385353 L13.5541719,12.2192353 C13.7818702,12.1545216 13.979229,12.011132 14.111138,11.8145756 L15.1696527,10.2372928 C15.4774112,9.77870467 16.098658,9.65643311 16.5572462,9.96419168 C16.6651617,10.0366138 16.7579252,10.1293773 16.8303473,10.2372928 L17.888862,11.8145756 C18.020771,12.011132 18.2181298,12.1545216 18.4458281,12.2192353 L20.2730122,12.7385353 C20.8042581,12.8895196 21.1125211,13.4425764 20.9615369,13.9738223 C20.9260071,14.0988357 20.8664492,14.2157246 20.7861951,14.3179498 L19.613209,15.8120642 C19.467035,15.9982564 19.3916506,16.2302656 19.4004669,16.4668172 L19.4712141,18.3650451 C19.4917836,18.9169467 19.0610538,19.3810261 18.5091522,19.4015956 C18.3792781,19.406436 18.2497058,19.3859138 18.1276839,19.341177 L16.344224,18.6873076 C16.1219745,18.6058244 15.8780255,18.6058244 15.655776,18.6873076 Z" id="星形" fill="#51FCB6"></path>
    </g>
</svg>