<?xml version="1.0" encoding="UTF-8"?>
<svg width="24px" height="24px" viewBox="0 0 24 24" version="1.1" xmlns="http://www.w3.org/2000/svg" xmlns:xlink="http://www.w3.org/1999/xlink">
    <title>潜力榜备份 2</title>
    <g id="潜力榜备份-2" stroke="none" stroke-width="1" fill="none" fill-rule="evenodd">
        <g id="形状结合-2" transform="translate(0.356441, 2.000000)">
            <path d="M5.68317199,9.14674883 L9.44622691,10.3023645 C12.8531572,11.348616 16.4792642,11.4562543 19.9422554,10.6139312 L25.2535677,9.32203041 L25.2535677,9.32203041 L17.4368358,18.7415473 C16.887567,19.4034412 15.9766229,19.6400295 15.1746862,19.3290677 L8.58900729,16.7753817 L8.58900729,16.7753817 L5.87943272,15.4492606 C5.25919887,15.1457055 4.83943016,14.5436732 4.76904124,13.8567372 L4.39481657,10.2046224 C4.33851987,9.65521439 4.73826554,9.16419373 5.28767352,9.10789703 C5.42077795,9.09425809 5.55526598,9.10746953 5.68317199,9.14674883 Z" id="形状结合" fill="#51FCB6" transform="translate(14.821549, 14.283573) rotate(-29.000000) translate(-14.821549, -14.283573) "></path>
            <path d="M11.4263737,0.6042878 C9.19309579,0.692624521 7.30847052,2.13726184 6.57344884,4.13724886 L6.51,4.317 L4.9702318,3.85475985 C4.41215792,3.68694432 3.82031738,3.6653883 3.25151402,3.79216069 C1.41871499,4.20064686 0.264081297,6.01756751 0.672567475,7.85036654 L2.70225125,16.9571678 C3.15065134,18.9690529 4.93563105,20.4 6.99687927,20.4 L16.2902386,20.4 C18.3514868,20.4 20.1364665,18.9690529 20.5848666,16.9571678 L22.6145977,7.85015414 C22.7413423,7.28147573 22.719824,6.6897681 22.5521074,6.13179818 L22.4914143,5.94857827 C21.88093,4.26504892 20.0535719,3.33254222 18.3172952,3.85443867 L16.776,4.317 L16.713669,4.13724886 C15.954937,2.07274613 13.9712371,0.6 11.6435589,0.6 L11.4263737,0.6042878 Z M11.6435589,3 C13.3004132,3 14.6435589,4.34314575 14.6435589,6 C14.6435589,6.52692474 14.5077114,7.02212058 14.2691289,7.45247499 C14.8997958,7.34626737 15.5246834,7.19992872 16.1409888,7.01467735 L19.0081609,6.15285218 C19.5370687,5.99387112 20.0947128,6.293756 20.2536938,6.82266381 C20.3030223,6.98677261 20.3093512,7.16080426 20.2720734,7.32806262 L18.2423422,16.4350763 C18.038524,17.3495695 17.2271696,18 16.2902386,18 L6.99687927,18 C6.05994826,18 5.24859385,17.3495695 5.04477562,16.4350763 L3.01509185,7.32827502 C2.89494886,6.78921648 3.234547,6.25482805 3.77360554,6.13468506 C3.94090064,6.09739906 4.11497139,6.10373907 4.27911077,6.15309658 L7.14265212,7.01417739 C7.76037689,7.19993023 8.38672827,7.34658926 9.01807532,7.45415429 C8.77940645,7.02212058 8.64355894,6.52692474 8.64355894,6 C8.64355894,4.34314575 9.98670469,3 11.6435589,3 Z" id="形状结合" fill="#313131" fill-rule="nonzero"></path>
            <g id="编组" transform="translate(2.990929, 4.000000)"></g>
        </g>
        <path d="M13.1511517,12.8095576 C15.5385849,13.1126924 17.0020177,14.7561224 17.4047124,17.4354979 C17.5032125,18.090879 17.0517712,18.7020203 16.3963901,18.8005203 C15.7410091,18.8990203 15.1298678,18.4475791 15.0313678,17.792198 C14.7792593,16.1147657 14.097332,15.3489637 12.8488483,15.1904424 C12.1913851,15.1069636 11.7260788,14.5063115 11.8095576,13.8488483 C11.8878189,13.2324765 12.4206272,12.7849927 13.0286555,12.8002493 L13.1511517,12.8095576 Z" id="路径-24" fill="#313131" fill-rule="nonzero" transform="translate(14.609037, 15.806941) rotate(-255.000000) translate(-14.609037, -15.806941) "></path>
    </g>
</svg>
