<svg xmlns="http://www.w3.org/2000/svg" width="24" height="24" viewBox="0 0 24 24"><title>ic_master</title><g fill="none" fill-rule="evenodd"><path fill="#2ECEFE" d="M8 4c3.273 1.416 4.09 3.416 2.454 6l1.375 2.34c2.76 4.597 1.932 7.664-2.482 9.2.856.588 1.352.894 1.49.92.206.036 7.539-.92 7.539-.92v-2.943L15.287 13l-2.868-1.814L14.37 6.8l-1.672-3.23L8 4z"/><g stroke="#313131" stroke-width="2.4" transform="translate(0 2)"><circle cx="10.324" cy="5.238" r="4.038"/><path d="M10.324 9.93c2.335 0 4.453.85 5.985 2.236 1.486 1.346 2.418 3.202 2.418 5.26 0 .59-.07 1.057-.236 1.417a1.197 1.197 0 0 1-.543.573c-1.017.536-2.604.35-4.448.24-.996-.06-2.065-.124-3.176-.124-1.112 0-2.18.064-3.176.124-1.845.11-3.431.296-4.448-.24a1.197 1.197 0 0 1-.543-.573c-.167-.36-.236-.827-.236-1.418 0-2.057.931-3.913 2.418-5.259C5.87 10.78 7.989 9.93 10.324 9.93z"/><path stroke-linecap="round" stroke-linejoin="round" d="M6.133 15.278c2.88 1.974 5.729 1.974 8.546 0"/></g><path stroke="#313131" stroke-linecap="round" stroke-linejoin="round" stroke-width="2.4" d="M14 3.794a3.474 3.474 0 0 1 4.563 5.236c2.036.985 3.437 3.04 3.437 5.414 0 2.08-1.074 2.46-2.71 2.45"/></g></svg>