<svg xmlns="http://www.w3.org/2000/svg" width="24" height="24" viewBox="0 0 24 24"><title>ic_popularity</title><g fill="none" fill-rule="evenodd"><path fill="#60C8FF" fill-rule="nonzero" d="M6 20.75l6-1 6 1v-6l-6-2-6 2z"/><path stroke="#313131" stroke-linejoin="round" stroke-width="2.4" d="M11.665 19.77l-5.05 1.795a1 1 0 0 1-1.334-.97l.147-5.357a1 1 0 0 0-.207-.638l-3.268-4.247a1 1 0 0 1 .51-1.57l5.14-1.515a1 1 0 0 0 .542-.394l3.03-4.42a1 1 0 0 1 1.65 0l3.03 4.42a1 1 0 0 0 .542.394l5.14 1.516a1 1 0 0 1 .51 1.569L18.78 14.6a1 1 0 0 0-.207.638l.147 5.357a1 1 0 0 1-1.334.97l-5.05-1.796a1 1 0 0 0-.67 0l-.001.001z"/><path fill="#313131" fill-rule="nonzero" d="M11.65 15.239l-.826.308a.831.831 0 0 1-1.121-.815l.038-.88a1 1 0 0 0-.216-.666l-.549-.69a.831.831 0 0 1 .429-1.318l.85-.236a1 1 0 0 0 .565-.411l.487-.735a.831.831 0 0 1 1.386 0l.487.735a1 1 0 0 0 .566.411l.85.236a.831.831 0 0 1 .428 1.318l-.549.69a1 1 0 0 0-.216.666l.038.88a.831.831 0 0 1-1.121.815l-.826-.308a1 1 0 0 0-.7 0z"/></g></svg>