<?xml version="1.0" encoding="UTF-8"?>
<svg width="32px" height="32px" viewBox="0 0 32 32" version="1.1" xmlns="http://www.w3.org/2000/svg" xmlns:xlink="http://www.w3.org/1999/xlink">
    <defs>
        <linearGradient x1="99.7334248%" y1="93.9033654%" x2="0.250070612%" y2="6.08206481%" id="linearGradient-1">
            <stop stop-color="#FF6281" offset="0%"></stop>
            <stop stop-color="#FF7853" offset="100%"></stop>
        </linearGradient>
        <path d="M13.1538956,2.42857661 L13.1636343,2.33216567 C13.3281852,1.01729382 14.4500537,7.59392549e-14 15.8095238,7.59392549e-14 C17.2822831,7.59392549e-14 18.4761905,1.19390733 18.4761905,2.66666667 C18.4761905,3.00616154 18.412749,3.33083886 18.2970746,3.62949001 C22.9129935,5.88305958 26.1428571,11.0735602 26.1428571,17.1163772 C26.1428571,25.2282284 20.3225589,24.4051472 13.1428571,24.4051472 L12.8708727,24.4055231 C5.81673866,24.4245531 0.142857143,25.1255467 0.142857143,17.1163772 C0.142857143,11.0735602 3.3727208,5.88305958 7.98836538,3.62837777 C7.87296532,3.33083886 7.80952381,3.00616154 7.80952381,2.66666667 C7.80952381,1.19390733 9.00343114,0 10.4761905,0 C11.8684189,0 13.0114571,1.06691071 13.1322976,2.42772493 L13.1538956,2.42857661 L13.1538956,2.42857661 Z" id="path-2"></path>
        <linearGradient x1="67.4334129%" y1="50%" x2="67.4334129%" y2="105.848211%" id="linearGradient-4">
            <stop stop-color="#D90000" offset="0%"></stop>
            <stop stop-color="#FFF14C" stop-opacity="0" offset="100%"></stop>
        </linearGradient>
        <linearGradient x1="67.4334129%" y1="50%" x2="67.4334129%" y2="105.848211%" id="linearGradient-5">
            <stop stop-color="#FFF14C" stop-opacity="0" offset="0%"></stop>
            <stop stop-color="#FFF14C" offset="100%"></stop>
        </linearGradient>
    </defs>
    <g id="ic_sidebar_purse32" stroke="none" stroke-width="1" fill="none" fill-rule="evenodd">
        <g id="ic_sidebar_purse" transform="translate(2.857143, 3.571429)">
            <mask id="mask-3" fill="white">
                <use xlink:href="#path-2"></use>
            </mask>
            <use id="Combined-Shape" fill="url(#linearGradient-1)" xlink:href="#path-2"></use>
            <path d="M0.142857143,17.1163772 C0.142857143,11.4502671 2.98257583,6.53351958 7.1417559,4.08376883 L7.1425917,24.3622211 C2.98295627,24.0894265 0.142857143,22.7828669 0.142857143,17.1163772 Z" id="形状结合" fill="url(#linearGradient-4)" opacity="0.100000001" mask="url(#mask-3)"></path>
            <path d="M26.1428571,17.1163772 C26.1428571,25.2282284 20.3225589,24.4051472 13.1428571,24.4051472 L12.8708727,24.4055231 L12.6418571,24.4061966 L12.6428571,10.9285714 L24.9361452,10.9281966 C25.7105209,12.8087761 26.1428571,14.9055329 26.1428571,17.1163772 Z" id="形状结合" fill="url(#linearGradient-5)" opacity="0.400000006" mask="url(#mask-3)"></path>
            <rect id="矩形" fill="#FFF28D" opacity="0.149999991" mask="url(#mask-3)" transform="translate(10.142857, 14.928571) scale(-1, 1) rotate(-270.000000) translate(-10.142857, -14.928571) " x="8.14285714" y="3.92857143" width="4" height="22"></rect>
            <path d="M12.2000481,9.49509379 L13.1419143,10.4379028 L14.0856662,9.49509379 C14.6063652,8.97439474 15.4505852,8.97439474 15.9712843,9.49509379 C16.4919833,10.0157928 16.4919833,10.8600128 15.9712843,11.3807119 L15.5808571,11.7705695 L15.8095238,11.7712362 C16.5459035,11.7712362 17.1428571,12.3681898 17.1428571,13.1045695 C17.1428571,13.8409492 16.5459035,14.4379028 15.8095238,14.4379028 L14.4566561,14.4379903 C14.469498,14.5122906 14.4761905,14.5886971 14.4761905,14.6666667 L14.4758571,15.3325695 L15.8095238,15.3333333 C16.5459035,15.3333333 17.1428571,15.930287 17.1428571,16.6666667 C17.1428571,17.4030463 16.5459035,18 15.8095238,18 L14.4758571,17.9995695 L14.4761905,18.6666667 C14.4761905,19.4030463 13.8792368,20 13.1428571,20 C12.4064775,20 11.8095238,19.4030463 11.8095238,18.6666667 L11.8088571,17.9995695 L10.4761905,18 C9.73981081,18 9.14285714,17.4030463 9.14285714,16.6666667 C9.14285714,15.930287 9.73981081,15.3333333 10.4761905,15.3333333 L11.8088571,15.3325695 L11.8095238,14.6666667 C11.8095238,14.5886971 11.8162163,14.5122906 11.8290582,14.4379903 L10.4761905,14.4379028 C9.73981081,14.4379028 9.14285714,13.8409492 9.14285714,13.1045695 C9.14285714,12.3681898 9.73981081,11.7712362 10.4761905,11.7712362 L10.7038571,11.7705695 L10.31443,11.3807119 C9.79373096,10.8600128 9.79373096,10.0157928 10.31443,9.49509379 C10.8351291,8.97439474 11.679349,8.97439474 12.2000481,9.49509379 Z" id="形状结合" fill="#FFE072" mask="url(#mask-3)"></path>
        </g>
    </g>
</svg>