<svg xmlns="http://www.w3.org/2000/svg" width="72" height="72" viewBox="0 0 72 72"><title>ic_certsuccess备份 2</title><g fill="none" fill-rule="evenodd"><path fill="#27B5FF" fill-rule="nonzero" d="M0 36c0 19.882 16.118 36 36 36s36-16.118 36-36S55.882 0 36 0 0 16.118 0 36z"/><rect width="10" height="2" x="44" y="34" fill="#FFF" rx="1"/><rect width="10" height="2" x="44" y="38" fill="#FFF" rx="1"/><path fill="#FFF" fill-rule="nonzero" d="M46.008 42.689l-5.302-2.067s-1.011-.391-1.404-.778c-.253-.248-.234-.832-.01-1.58.223-.747 2.941-3.787 2.941-6.545 0-4.263-2.804-7.719-6.261-7.719-3.457 0-6.261 3.456-6.261 7.719 0 2.642 2.423 5.794 2.722 6.366.299.573.226 1.447-.01 1.711-.355.397-1.65.795-1.65.795l-4.781 2.129C24.876 43.122 24 44.175 24 45.363v1.56c0 1.297 1.054 1.093 2.349 1.093h19.304c1.294 0 2.347.204 2.347-1.093v-1.56c0-1.188-.874-2.274-1.992-2.674z"/><circle cx="60" cy="60" r="12" fill="#3CE796"/><path fill="#FFF" d="M66.407 56.896c.39.391.39 1.024 0 1.415l-7.071 7.07c-.1.1-.215.174-.338.223-.372.176-.83.11-1.137-.197l-4.243-4.243c-.39-.39-.39-1.023 0-1.414.39-.39 1.024-.39 1.414 0l3.554 3.553 6.407-6.407c.39-.39 1.023-.39 1.414 0z"/></g></svg>