<svg xmlns="http://www.w3.org/2000/svg" xmlns:xlink="http://www.w3.org/1999/xlink" width="32" height="32" viewBox="0 0 32 32"><title>ic_glamour</title><defs><linearGradient id="c" x1=".945%" x2="100%" y1="11.719%" y2="88.281%"><stop offset="0%" stop-color="#FF6363"/><stop offset="100%" stop-color="#FF65AE"/></linearGradient><filter id="a" width="150%" height="158.2%" x="-25%" y="-28.6%" filterUnits="objectBoundingBox"><feOffset dy="1" in="SourceAlpha" result="shadowOffsetOuter1"/><feGaussianBlur in="shadowOffsetOuter1" result="shadowBlurOuter1" stdDeviation="1"/><feColorMatrix in="shadowBlurOuter1" result="shadowMatrixOuter1" values="0 0 0 0 1 0 0 0 0 0.396078431 0 0 0 0 0.57254902 0 0 0 0.5 0"/><feMerge><feMergeNode in="shadowMatrixOuter1"/><feMergeNode in="SourceGraphic"/></feMerge></filter><path id="b" d="M6.583 0c-1.74 0-3.623.723-4.72 1.993C.26 3.648-.18 5.55.062 7.691.88 14.945 12.26 22.295 12.742 22.6c.09.058.211.149.25.149.037 0 .172-.09.263-.148.482-.307 11.865-7.626 12.683-14.88.241-2.142-.191-4.059-1.796-5.713C23.045.74 21.202.008 19.462.008c-2.243 0-4.455 1.057-6.42 3.12C11.079 1.067 8.828 0 6.583 0z"/></defs><g fill="none" fill-rule="evenodd"><path d="M0 0h32v32H0z"/><g filter="url(#a)" transform="translate(3 5)"><mask id="d" fill="#fff"><use xlink:href="#b"/></mask><use fill="url(#c)" transform="matrix(-1 0 0 1 26 0)" xlink:href="#b"/><circle fill="#FFF" style="mix-blend-mode:overlay" cx="19.5" cy="11.375" r="13" mask="url(#d)" opacity=".203"/><circle fill="#FFF" style="mix-blend-mode:overlay" cx="26" cy="17.875" r="14.625" mask="url(#d)" opacity=".197"/></g></g></svg>