<svg xmlns="http://www.w3.org/2000/svg" width="375" height="375" viewBox="0 0 375 375"><title>ic_star</title><g fill="#FFF" fill-rule="evenodd" opacity=".3"><g transform="matrix(-1 0 0 1 352 118)"><circle cx="79" cy="1" r="1" opacity=".5"/><circle cx="38" cy="35" r="1" opacity=".2"/><circle cx=".5" cy="48.5" r="1" opacity=".2"/><circle cx="43" cy="6" r="1" opacity=".5"/></g><g transform="scale(-1 1) rotate(52 -333.357 -156.417)"><circle cx="42.5" cy="1.5" r="1.5" opacity=".5"/><circle cx="1" cy="37" r="1" opacity=".2"/><circle cx="6" cy="8" r="1" opacity=".5"/></g><g transform="scale(1 -1) rotate(52 360.99 41.722)"><circle cx="43" cy="2" r="2"/><circle cx="1" cy="37" r="1" opacity=".2"/><circle cx="6" cy="8" r="1" opacity=".5"/></g><g transform="translate(115 302)"><circle cx="46.5" cy="1.5" r="1.5" opacity=".5"/><circle cx="1.5" cy="33.5" r="1.5" opacity=".5"/><circle cx="35" cy="66" r="1" opacity=".2"/></g><g transform="rotate(180 47 130.5)"><circle cx="46.5" cy="1.5" r="1.5" opacity=".5"/><circle cx="1.5" cy="25.5" r="1.5" opacity=".5"/><circle cx="35" cy="58" r="1" opacity=".2"/></g><g transform="matrix(1 0 0 -1 277 320)"><circle cx="46.5" cy="1.5" r="1.5" opacity=".5"/><circle cx="1.5" cy="25.5" r="1.5" opacity=".5"/><circle cx="35" cy="58" r="1" opacity=".2"/></g><g transform="scale(-1 1) rotate(-34 93.291 221.746)"><circle cx="50.446" cy="1.821" r="1.5" opacity=".5"/><circle cx="1.5" cy="41.5" r="1.5" opacity=".5"/><circle cx="35" cy="74" r="1" opacity=".2"/></g><g transform="rotate(146 101.364 61.494)"><circle cx="46.5" cy="1.5" r="1.5" opacity=".5"/><circle cx="1.5" cy="25.5" r="1.5" opacity=".5"/><circle cx="35" cy="58" r="1" opacity=".2"/></g><g transform="rotate(146 86.02 102.041)"><circle cx="46.5" cy="1.5" r="1.5" opacity=".5"/><circle cx="1.5" cy="25.5" r="1.5" opacity=".5"/><circle cx="67.219" cy="12.815" r="1.5" opacity=".5"/><circle cx="35" cy="58" r="1" opacity=".2"/><circle cx="76.22" cy="66.532" r="1" opacity=".2"/></g><g transform="rotate(146 130.252 137.895)"><circle cx="46.5" cy="1.5" r="1.5" opacity=".5"/><circle cx="1.5" cy="25.5" r="1.5" opacity=".5"/><circle cx="35" cy="58" r="1" opacity=".2"/><circle cx="76.22" cy="66.532" r="1" opacity=".2"/></g></g></svg>