<svg xmlns="http://www.w3.org/2000/svg" width="28" height="28" viewBox="0 0 28 28"><title>ic_help_method</title><g fill="none" fill-rule="evenodd"><path stroke="#FFA125" stroke-linecap="round" stroke-linejoin="round" stroke-width="2" d="M21.085 5C22.143 5 23 5.857 23 6.915V22c0 .577-.244 1.096-.634 1.461-.239.223-.694.403-1.366.539H7c-1.105 0-2-.895-2-2V6.996C5 5.894 5.894 5 6.996 5h0"/><rect width="2" height="4" x="9" y="3" fill="#FFA125" rx="1"/><rect width="2" height="4" x="17" y="3" fill="#FFA125" rx="1"/><rect width="2" height="4" x="13" y="3" fill="#FFA125" rx="1"/><path stroke="#FFA125" stroke-linecap="round" stroke-linejoin="round" stroke-width="2" d="M14 17.5l-2.939 1.545.561-3.272-2.377-2.318 3.286-.478L14 10l1.469 2.977 3.286.478-2.377 2.318.561 3.272z"/></g></svg>