<svg xmlns="http://www.w3.org/2000/svg" width="28" height="28" viewBox="0 0 28 28"><title>ic_help_house</title><g fill="none" fill-rule="evenodd" stroke="#FFA125" stroke-linecap="round" stroke-linejoin="round" stroke-width="2"><path d="M9.978 17.038C9.978 14.808 11.78 13 14 13s4.022 1.807 4.022 4.038c0 .904-.298 1.76-.828 2.454C18.294 20.33 19 21.535 19 22.7c0 1.958-.903 2.256-4.536 2.292l-.458.004C10.03 25.04 9 24.733 9 22.7c0-1.151.711-2.36 1.811-3.2-.533-.696-.833-1.555-.833-2.462zM5.681 22.079l-.308.003C2.693 22.112 2 21.905 2 20.535c0-.775.48-1.59 1.22-2.156-.359-.469-.56-1.047-.56-1.658h0C2.66 15.218 3.872 14 5.368 14c.612 0 1.177.204 1.631.548M22.319 22.079l.308.003c2.68.03 3.373-.177 3.373-1.547 0-.775-.48-1.59-1.22-2.156.359-.469.56-1.047.56-1.658h0c0-1.503-1.213-2.721-2.709-2.721-.612 0-1.177.204-1.631.548M6 11c0-4.418 3.582-8 8-8h0c4.418 0 8 3.582 8 8h0"/></g></svg>