<svg xmlns="http://www.w3.org/2000/svg" width="28" height="28" viewBox="0 0 28 28"><title>ic_help_price</title><g fill="none" fill-rule="evenodd"><g fill="#FFA125" transform="translate(9 8.5)"><path d="M1.586.793c.39-.39 1.023-.39 1.414 0l2.414 2.414c.39.39.39 1.024 0 1.414-.39.39-1.023.39-1.414 0L1.586 2.207c-.39-.39-.39-1.024 0-1.414z"/><path d="M8.414.793c-.39-.39-1.023-.39-1.414 0L4.586 3.207c-.39.39-.39 1.024 0 1.414.39.39 1.023.39 1.414 0l2.414-2.414c.39-.39.39-1.024 0-1.414z"/><rect width="8" height="2" x="1" y="4" rx="1"/><rect width="2" height="7" x="4" y="4.207" rx="1"/><rect width="8" height="2" x="1" y="7" rx="1"/></g><path stroke="#FFA125" stroke-linecap="round" stroke-linejoin="round" stroke-width="2" d="M20.79 5.99C18.96 4.438 16.59 3.5 14 3.5 8.201 3.5 3.5 8.201 3.5 14S8.201 24.5 14 24.5h0c5.799 0 10.5-4.701 10.5-10.5 0-1.863-.485-3.612-1.336-5.129"/></g></svg>