<svg xmlns="http://www.w3.org/2000/svg" width="28" height="28" viewBox="0 0 28 28"><title>ic_help_credit</title><g fill="none" fill-rule="evenodd" stroke="#FFA125"><path stroke-linecap="round" stroke-linejoin="round" stroke-width="2" d="M20.79 5.99C18.96 4.438 16.59 3.5 14 3.5c-4.048 0-7.56 2.29-9.313 5.646C3.93 10.597 3.5 12.249 3.5 14c0 5.799 4.701 10.5 10.5 10.5S24.5 19.799 24.5 14c0-1.863-.485-3.612-1.336-5.129-3.036.822-6.09 1.233-9.164 1.233-3.073 0-6.036-.41-8.89-1.233"/><rect width="1" height="21" x="13.4" y="3.5" fill="#D6D6D6" rx=".5" transform="matrix(0 1 1 0 -.1 .1)"/><path stroke-linecap="round" stroke-linejoin="round" stroke-width="2" d="M11.429 24C10.476 21.094 10 17.76 10 14s.476-7.094 1.429-10h0M16.57 24c.952-2.906 1.429-6.24 1.429-10s-.477-7.094-1.429-10h0"/><path stroke-linecap="round" stroke-linejoin="round" stroke-width="2" d="M4.783 19.003C7.334 18.334 10.185 18 13.336 18c3.34 0 6.342.375 9.007 1.126"/></g></svg>