<svg xmlns="http://www.w3.org/2000/svg" width="28" height="28" viewBox="0 0 28 28"><title>ic_help_rechagre</title><g fill="none" fill-rule="evenodd" stroke="#FFA125" stroke-linecap="round" stroke-linejoin="round" stroke-width="2"><path d="M20.79 5.99C18.96 4.438 16.59 3.5 14 3.5 8.201 3.5 3.5 8.201 3.5 14S8.201 24.5 14 24.5h0c5.799 0 10.5-4.701 10.5-10.5 0-1.863-.485-3.612-1.336-5.129"/><path d="M12.002 10.5h3.996c.316 0 .613.15.802.403l1.684 2.26c.296.398.256.954-.095 1.305l-3.682 3.681c-.39.39-1.024.39-1.414 0L9.61 14.468c-.35-.351-.391-.907-.095-1.305l1.684-2.26c.189-.254.486-.403.802-.403z"/></g></svg>