<svg xmlns="http://www.w3.org/2000/svg" width="28" height="28" viewBox="0 0 28 28"><title>ic_help_withdraw</title><g fill="none" fill-rule="evenodd"><path stroke="#FFA125" stroke-linecap="round" stroke-linejoin="round" stroke-width="2" d="M4.048 11.313C3.349 10.773 3 10.335 3 10V6c0-1.105.938-2 2.095-2h17.81C24.062 4 25 4.895 25 6v4c0 .415-.35.853-1.048 1.313"/><path stroke="#FFA125" stroke-linecap="round" stroke-linejoin="round" stroke-width="2" d="M21.5 8v14c0 1.105-.895 2-2 2h-11c-1.105 0-2-.895-2-2V8h15z"/><rect width="2" height="4" x="12" y="11" fill="#FFA125" rx="1" transform="rotate(-45 13 13)"/><rect width="2" height="4" x="14" y="11" fill="#FFA125" rx="1" transform="scale(-1 1) rotate(-45 0 49.213)"/><rect width="6" height="2" x="11" y="14" fill="#FFA125" rx="1"/><rect width="2" height="7" x="13" y="14" fill="#FFA125" rx="1"/><rect width="6" height="2" x="11" y="17" fill="#FFA125" rx="1"/></g></svg>