<svg xmlns="http://www.w3.org/2000/svg" width="28" height="28" viewBox="0 0 28 28"><title>ic_help_norm</title><g fill="none" fill-rule="evenodd"><g fill="#FFA125" transform="translate(7.5 7)"><rect width="8" height="2" x="5" y="1" rx="1"/><path d="M1.535 3.245l-.123.064c-.16.084-.358.023-.442-.138-.034-.063-.045-.136-.033-.207l.023-.137c.056-.324-.052-.655-.288-.885l-.099-.097c-.13-.126-.132-.333-.006-.463.05-.052.117-.085.188-.096l.137-.02c.326-.047.607-.251.753-.546l.061-.125c.08-.162.277-.228.439-.148.065.032.117.084.149.148l.061.125c.146.295.427.5.753.547l.137.02c.18.026.303.192.277.37-.01.072-.044.138-.095.188l-.1.097c-.235.23-.343.56-.287.885l.023.137c.03.178-.089.347-.267.378-.071.012-.144 0-.208-.033l-.123-.064c-.291-.154-.639-.154-.93 0z"/><rect width="8" height="2" x="5" y="6" rx="1"/><path d="M1.535 8.245l-.123.064c-.16.084-.358.023-.442-.138-.034-.063-.045-.136-.033-.207l.023-.137c.056-.324-.052-.655-.288-.885l-.099-.097c-.13-.126-.132-.333-.006-.463.05-.052.117-.085.188-.096l.137-.02c.326-.047.607-.251.753-.546l.061-.125c.08-.162.277-.228.439-.148.065.032.117.084.149.148l.061.125c.146.295.427.5.753.547l.137.02c.18.026.303.192.277.37-.01.072-.044.138-.095.188l-.1.097c-.235.23-.343.56-.287.885l.023.137c.03.178-.089.347-.267.378-.071.012-.144 0-.208-.033l-.123-.064c-.291-.154-.639-.154-.93 0z"/><rect width="8" height="2" x="5" y="11" rx="1"/><path d="M1.535 13.245l-.123.064c-.16.084-.358.023-.442-.138-.034-.063-.045-.136-.033-.207l.023-.137c.056-.324-.052-.655-.288-.885l-.099-.097c-.13-.126-.132-.333-.006-.463.05-.052.117-.085.188-.096l.137-.02c.326-.047.607-.251.753-.546l.061-.125c.08-.162.277-.228.439-.148.065.032.117.084.149.148l.061.125c.146.295.427.5.753.547l.137.02c.18.026.303.192.277.37-.01.072-.044.138-.095.188l-.1.097c-.235.23-.343.56-.287.885l.023.137c.03.178-.089.347-.267.378-.071.012-.144 0-.208-.033l-.123-.064c-.291-.154-.639-.154-.93 0z"/></g><path stroke="#FFA125" stroke-linecap="round" stroke-linejoin="round" stroke-width="2" d="M23.5 21.6c0 1.05-.85 1.9-1.9 1.9H6.4c-1.05 0-1.9-.85-1.9-1.9V6.4c0-1.05.85-1.9 1.9-1.9h15.2c1.05 0 1.9.85 1.9 1.9V18.75"/></g></svg>