<svg xmlns="http://www.w3.org/2000/svg" width="28" height="28" viewBox="0 0 28 28"><title>ic_help_game</title><g fill="none" fill-rule="evenodd"><path stroke="#FFA125" stroke-linecap="round" stroke-linejoin="round" stroke-width="2" d="M11.383 24.687c.839.204 1.715.313 2.617.313 3.342 0 6.331-1.493 8.348-3.845.285-.332.226-.837-.125-1.096l-7.349-5.415c-.434-.32-.434-.968 0-1.288h0l7.348-5.415c.354-.26.408-.767.122-1.1-2.285-2.663-5.82-4.223-9.697-3.76-5.01.598-9.024 4.652-9.578 9.667-.488 4.424 1.65 8.395 5.051 10.55"/><circle cx="13.5" cy="8.5" r="1.5" fill="#FFA125"/><circle cx="21" cy="14" r="1" fill="#FFA125"/><circle cx="25" cy="14" r="1" fill="#FFA125"/></g></svg>