<svg xmlns="http://www.w3.org/2000/svg" width="28" height="28" viewBox="0 0 28 28"><title>ic_help_box</title><g fill="none" fill-rule="evenodd" stroke="#FFA125" stroke-linecap="round" stroke-linejoin="round" stroke-width="2"><path d="M13.343 15.355l-1.008-.926c-.206-.19-.324-.458-.323-.739l.005-1.668c.001-.547.443-.992.99-.997l1.915-.017c.541-.005.988.42 1.009.961l.062 1.652c.011.28-.097.553-.297.75l-.974.96c-.38.375-.987.385-1.38.024z"/><path fill="#FFA125" d="M4 13.233h5M19 13.233h5"/><path d="M5 9h0c1.657 0 3-1.343 3-3M20 6c0 1.657 1.343 3 3 3M5 19h0c1.657 0 3 1.343 3 3M20 22h0c0-1.657 1.343-3 3-3"/><path d="M24.829 13.588l-1.507 7.792c-.182.94-1.006 1.62-1.964 1.62H6.642c-.958 0-1.782-.68-1.964-1.62l-1.507-7.792c-.112-.584-.094-1.186.055-1.761l1.378-5.328C4.832 5.617 5.628 5 6.54 5h14.92c.912 0 1.708.617 1.936 1.5l1.378 5.327c.149.575.167 1.177.055 1.76z"/></g></svg>