<svg xmlns="http://www.w3.org/2000/svg" width="28" height="28" viewBox="0 0 28 28"><title>ic_help_android</title><g fill="none" fill-rule="evenodd"><path stroke="#FFA125" stroke-linecap="round" stroke-linejoin="round" stroke-width="2" d="M6.5 10h15v9c0 1.105-.895 2-2 2h-11c-1.105 0-2-.895-2-2v-9z"/><rect width="2" height="3" x="17" y="2" fill="#FFA125" rx="1" transform="rotate(30 18 3.5)"/><rect width="2" height="3" x="9" y="2" fill="#FFA125" rx="1" transform="scale(-1 1) rotate(30 0 -33.82)"/><path stroke="#FFA125" stroke-linecap="round" stroke-linejoin="round" stroke-width="2" d="M6.5 10.5C6.5 6.358 9.858 3 14 3c1.895 0 3.626.703 4.946 1.862.536.47 1.005 1.016 1.389 1.621.286.45.525.933.711 1.442.294.803.454 1.67.454 2.575M9 21h3v2.5c0 .828-.672 1.5-1.5 1.5S9 24.328 9 23.5V21zM16 21h3v2.5c0 .828-.672 1.5-1.5 1.5s-1.5-.672-1.5-1.5V21z"/><circle cx="12" cy="7" r="1" fill="#FFA125"/><circle cx="16" cy="7" r="1" fill="#FFA125"/><rect width="2" height="8" x="23.5" y="10" fill="#FFA125" rx="1"/><rect width="2" height="8" x="2.5" y="10" fill="#FFA125" rx="1"/></g></svg>