<svg xmlns="http://www.w3.org/2000/svg" width="16" height="14" viewBox="0 0 16 14"><title>ic_next@2x</title><g fill="none" fill-rule="evenodd"><path d="M-2-3h20v20H-2z"/><path fill="#202020" d="M1.76 5.32l-.9 1.2c-.1.133-.073.32.06.42.052.039.115.06.18.06h1.8c.166 0 .3-.134.3-.3 0-.065-.021-.128-.06-.18l-.9-1.2c-.1-.133-.287-.16-.42-.06-.023.017-.043.037-.06.06zM13.76 8.68l-.9-1.2c-.1-.133-.073-.32.06-.42.052-.039.115-.06.18-.06h1.8c.166 0 .3.134.3.3 0 .065-.021.128-.06.18l-.9 1.2c-.1.133-.287.16-.42.06-.023-.017-.043-.037-.06-.06z"/><path stroke="#202020" stroke-linecap="round" d="M2 7c0 3.314 2.686 6 6 6h0c1.657 0 3.157-.672 4.243-1.757M14 7c0-3.314-2.686-6-6-6-1.657 0-3.157.672-4.243 1.757"/></g></svg>