<svg xmlns="http://www.w3.org/2000/svg" width="32" height="32" viewBox="0 0 32 32"><title>单曲备份 2</title><g fill="none" fill-rule="nonzero"><path stroke="#363636" stroke-width="2" d="M17.964 6.579c.343.37.536.873.536 1.397v15.748c0 1.091-.82 1.976-1.831 1.976-.486 0-.952-.208-1.295-.579l-3.301-3.562-2.954.001C6.844 21.56 5 19.761 5 17.542v-3.384c0-2.219 1.844-4.018 4.119-4.018l2.955-.001 3.3-3.56c.715-.772 1.874-.772 2.59 0z"/><g fill="#363636"><path d="M23.933 19.186c.646-1.077.992-2.31.992-3.593 0-1.282-.346-2.515-.992-3.592-.284-.474-.898-.628-1.371-.344-.474.283-.628.898-.344 1.371.46.769.707 1.648.707 2.565 0 .918-.247 1.797-.707 2.565-.284.474-.13 1.088.344 1.372.473.284 1.087.13 1.371-.344zM27.17 21.253c1.136-1.652 1.755-3.611 1.755-5.66 0-2.048-.619-4.007-1.755-5.66-.313-.455-.936-.57-1.391-.257-.455.313-.57.936-.257 1.39.909 1.323 1.403 2.887 1.403 4.527 0 1.641-.494 3.205-1.403 4.527-.313.455-.198 1.078.257 1.39.455.314 1.078.198 1.39-.257z"/></g></g></svg>