<svg xmlns="http://www.w3.org/2000/svg" width="32" height="32" viewBox="0 0 32 32"><title>循环</title><path fill="#363636" fill-rule="nonzero" d="M25 13.002c0-.89 1.077-1.337 1.707-.707l3 3c.39.39.39 1.024 0 1.414-.39.39-1.024.39-1.414 0L27 15.416v5.586c0 3.314-2.686 6-6 6h-8.757c-1.061 0-2.079-.421-2.829-1.172l-1.121-1.12c-.39-.391-.39-1.025 0-1.415.39-.39 1.024-.39 1.414 0l1.121 1.121c.375.375.884.586 1.415.586H21c2.21 0 4-1.79 4-4zM19.757 6c1.061 0 2.079.421 2.829 1.172l1.121 1.12c.39.391.39 1.025 0 1.415-.39.39-1.024.39-1.414 0l-1.121-1.121C20.797 8.21 20.288 8 19.757 8H11c-2.21 0-4 1.79-4 4v8c0 .89-1.077 1.337-1.707.707l-3-3c-.39-.39-.39-1.024 0-1.414.39-.39 1.024-.39 1.414 0L5 17.586V12c0-3.314 2.686-6 6-6z"/></svg>