<svg xmlns="http://www.w3.org/2000/svg" width="32" height="32" viewBox="0 0 32 32"><title>单曲</title><path fill="#363636" fill-rule="nonzero" d="M26.623 12.219l.084.076 3 3c.39.39.39 1.024 0 1.414-.36.36-.928.388-1.32.083l-.094-.083L27 15.416v5.586c0 3.238-2.566 5.878-5.775 5.996l-.225.004h-8.757c-.985 0-1.933-.363-2.664-1.016l-.165-.156-1.121-1.12c-.39-.391-.39-1.025 0-1.415.36-.36.928-.388 1.32-.083l.094.083 1.121 1.121c.334.334.773.537 1.239.578l.176.008H21c2.142 0 3.891-1.684 3.995-3.8l.005-.2v-8c0-.852.986-1.297 1.623-.783zM11 6h8.757c.985 0 1.933.363 2.664 1.016l.165.156 1.121 1.12c.39.391.39 1.025 0 1.415-.36.36-.928.388-1.32.083l-.094-.083-1.121-1.121c-.334-.334-.773-.537-1.239-.578L19.757 8H11c-2.142 0-3.891 1.684-3.995 3.8L7 12v8c0 .852-.986 1.297-1.623.783l-.084-.076-3-3c-.39-.39-.39-1.024 0-1.414.36-.36.928-.388 1.32-.083l.094.083L5 17.586V12c0-3.238 2.566-5.878 5.775-5.996L11 6h8.757zm5 6.5c.552 0 1 .448 1 1v6c0 .552-.448 1-1 1s-1-.448-1-1v-5h-.5c-.552 0-1-.448-1-1s.448-1 1-1z"/></svg>