<svg xmlns="http://www.w3.org/2000/svg" width="32" height="32" viewBox="0 0 32 32"><title>随机</title><g fill="#363636" fill-rule="nonzero"><path d="M23.938 8H21.97c-1.553 0-3.017.722-3.964 1.953l-7.593 9.878c-.568.74-1.449 1.172-2.382 1.171L6.001 21c-.552 0-1 .447-1.001.999 0 .552.447 1 .999 1.001l2.03.002c1.555.002 3.022-.72 3.97-1.953l7.593-9.877C20.16 10.432 21.039 10 21.97 10h4.318c.881 0 1.331-1.058.72-1.693l-2.887-3c-.383-.398-1.016-.41-1.414-.028-.398.383-.41 1.016-.027 1.414L23.938 8zM6 8h2.066c1.558 0 3.026.726 3.972 1.963l1.284 1.68c.335.438.252 1.065-.187 1.4-.439.336-1.066.253-1.402-.186l-1.283-1.68C9.882 10.436 9 10 8.066 10H6c-.552 0-1-.448-1-1s.448-1 1-1zM21.958 23c-1.558 0-3.026-.726-3.972-1.964l-1.284-1.679c-.335-.438-.252-1.066.187-1.401.439-.336 1.066-.252 1.402.187l1.283 1.679c.568.742 1.45 1.178 2.384 1.178h4.33c.89 0 1.337 1.077.707 1.707l-2.887 2.886c-.39.391-1.024.391-1.414 0-.39-.39-.39-1.023 0-1.414l1.18-1.18h-1.916z"/></g></svg>