<svg xmlns="http://www.w3.org/2000/svg" width="88" height="104" viewBox="0 0 88 104"><title>logo_88</title><defs><linearGradient id="a" x1="68.668%" x2="40.051%" y1="6.301%" y2="62.806%"><stop offset="0%" stop-color="#E6ECF3"/><stop offset="100%" stop-color="#FFF"/></linearGradient></defs><g fill="none" fill-rule="evenodd"><path fill="#FFF" d="M44 99.638c-9.367.022-18.519-5.358-27.455-16.14C5.901 69.164 1.664 52.996.698 42.008c-1.16-13.18-.813-28.3 5.647-34.825 4.434-5.042 14.179-2.807 21.207-1.051C33.414 7.597 38.897 8.322 44 8.308c5.103.014 10.586-.711 16.448-2.175 7.028-1.756 16.773-3.99 21.207 1.051 6.46 6.525 6.806 21.645 5.647 34.825-.966 10.988-5.203 27.156-15.847 41.488C62.519 94.28 53.367 99.66 44 99.638z"/><path fill="url(#a)" d="M4.819 16.865c5.734 6.14 14.745 12.844 27.03 20.112V18.546C31.85 4.83 19.68 1.13 14.607.29 11.77-.18 3.527-.563.811 3.22c-2.14 2.979.219 9.586 4.008 13.644z" transform="matrix(-1 0 0 1 80.168 30.795)"/><path fill="#1C1C1E" d="M65.67 50.15c-6.458 1.143-12.402-1.962-12.582-2.982-.268-1.527 4.633-6.027 10.807-7.119 6.458-1.142 12.342 1.615 12.582 2.983.24 1.368-4.347 5.977-10.806 7.119z"/><g><path fill="url(#a)" d="M4.819 16.865c5.734 6.14 14.745 12.844 27.03 20.112V18.546C31.85 4.83 19.68 1.13 14.607.29 11.77-.18 3.527-.563.811 3.22c-2.14 2.979.219 9.586 4.008 13.644z" transform="translate(7.832 30.795)"/><path fill="#1C1C1E" d="M22.33 50.15c6.458 1.143 12.402-1.962 12.582-2.982.268-1.527-4.633-6.027-10.807-7.119-6.458-1.142-12.342 1.615-12.582 2.983-.24 1.368 4.347 5.977 10.806 7.119z"/></g></g></svg>