<?xml version="1.0" encoding="UTF-8"?>
<svg width="295px" height="65px" viewBox="0 0 295 65" version="1.1" xmlns="http://www.w3.org/2000/svg" xmlns:xlink="http://www.w3.org/1999/xlink">
    <!-- Generator: Sketch 61.2 (89653) - https://sketch.com -->
    <title>这个游戏很简单！那小谁来为你划重点！@2x</title>
    <desc>Created with Sketch.</desc>
    <g id="谁是凶手" stroke="none" stroke-width="1" fill="none" fill-rule="evenodd">
        <g id="萌新引导页面1" transform="translate(-40.000000, -93.000000)" fill="#FFFFFF" fill-rule="nonzero">
            <path d="M65.28,119.06 L65.98,115.14 L52.344,113.516 L56.88,108.868 L62.34,114.44 L65.42,111.5 L60.744,106.712 L63.88,100.188 L65.28,100.188 L65.28,96.38 L58.98,96.38 L58.28,93.86 L54.22,94.7 L54.668,96.38 L48.62,96.38 L48.62,100.188 L59.204,100.188 L56.768,104.864 L53.24,100.72 L49.74,102.82 L52.82,106.824 L48.34,111.22 L50.748,113.32 L47.164,112.9 L47.164,101.504 L40.5,101.504 L40.5,105.256 L42.964,105.256 L42.964,113.88 L41.06,113.88 L41.06,118.5 L45.68,118.5 L45.68,116.4 L65.28,119.06 Z M46.8,99.46 L46.8,94.84 L42.18,94.84 L42.18,99.46 L46.8,99.46 Z M70.964,107.636 L81.044,99.292 L91.32,107.58 L94.12,104.08 L84.348,96.576 L85.132,95.932 L81.548,93.216 L68.08,104.22 L70.964,107.636 Z M83.424,119.172 L83.424,102.344 L78.944,102.344 L78.944,119.172 L83.424,119.172 Z M104.676,119.172 L106.216,106.488 L107,106.488 L107.028,115.672 L105.544,115.672 L105.516,118.92 L110.724,118.92 L110.724,102.68 L106.664,102.68 L106.972,100.076 L110.948,100.076 L110.444,101.504 L112.04,102.036 L112.04,104.528 L116.632,104.528 L115.092,107.552 L111.172,107.552 L111.116,111.108 L114.56,111.108 L114.56,115.504 L112.404,115.504 L112.404,118.836 L118.648,118.836 L118.648,111.108 L121.672,111.108 L121.672,107.552 L119.404,107.552 L120.58,104.528 L120.58,101.028 L113.804,101.028 L114.28,99.684 L121.476,99.684 L121.476,96.128 L116.352,96.128 L116.8,94.868 L113.16,93.636 L111.256,99.152 L111.256,96.436 L108.596,96.436 L107.896,93.748 L104.648,94.364 L105.124,96.436 L101.764,96.436 L101.764,100.076 L103.248,100.076 L101.036,118.78 L104.676,119.172 Z M101.428,99.404 L101.428,94.644 L97.228,94.644 L97.228,99.404 L101.428,99.404 Z M101.344,106.88 L101.344,102.12 L97.144,102.12 L97.144,106.88 L101.344,106.88 Z M99.44,118.976 L101.848,109.484 L98.068,108.476 L95.632,117.94 L99.44,118.976 Z M136.4,119.48 L141.188,115.616 L141.608,118.948 L149.504,118.948 L149.504,115.224 L145.64,115.224 L145.276,112.312 L150.484,108.112 L148.132,104.836 L144.688,107.58 L144.324,104.64 L149.644,104.304 L149.42,100.44 L143.82,100.804 L142.98,93.972 L138.472,94.392 L139.312,101.084 L136.12,101.28 L136.4,105.172 L139.816,104.948 L140.572,110.856 L133.796,116.26 L136.4,119.48 Z M145.332,100.244 L149.14,99.544 L147.992,94.028 L144.184,94.756 L145.332,100.244 Z M127.44,119.004 L130.744,110.492 L133.768,114.86 L136.736,112.62 L133.656,107.244 L136.008,99.88 L136.008,96.184 L124.752,96.184 L124.752,99.88 L131.892,99.88 L130.548,104.612 L128.812,100.888 L125.508,102.092 L127.664,107.524 L123.716,117.492 L127.44,119.004 Z M155.076,102.596 L161.068,96.184 L158.296,93.636 L152.304,100.02 L155.076,102.596 Z M174.62,119.2 L177.84,116.96 L175.068,112.956 L177.7,111.64 L176.58,108.56 L173.164,110.184 L171.568,107.888 L176.944,107.888 L176.944,94.588 L162.496,94.588 L162.496,116.4 L164.064,119.06 L171.624,117.1 L170.784,113.796 L166.64,114.776 L166.64,107.888 L170.532,107.888 L168.04,109.4 L174.62,119.2 Z M172.828,99.488 L166.64,99.488 L166.64,97.584 L172.828,97.584 L172.828,99.488 Z M160.508,119.172 L160.508,106.6 L158.492,106.6 L162.244,102.204 L159.22,99.544 L152.248,107.72 L155.328,110.296 L156.168,109.316 L156.168,119.172 L160.508,119.172 Z M172.828,104.388 L166.64,104.388 L166.64,102.484 L172.828,102.484 L172.828,104.388 Z M199.288,101.056 L202.816,99.936 L202.424,98.732 L205.7,98.732 L205.7,95.26 L198.112,95.26 L198.364,94.448 L194.584,93.804 L193.1,98.676 L193.1,95.26 L186.184,95.26 L186.464,94.392 L182.404,93.72 L180.276,99.88 L184.308,100.776 L185.008,98.732 L186.548,98.732 L187.248,101.056 L190.776,99.936 L190.384,98.732 L193.1,98.732 L192.652,100.16 L196.32,101.056 L197.048,98.732 L198.588,98.732 L199.288,101.056 Z M186.1,104.808 L186.1,100.832 L181.872,100.832 L181.872,104.808 L186.1,104.808 Z M204.468,118.948 L204.468,101.28 L187.304,101.28 L187.304,104.416 L200.492,104.416 L200.492,116.512 L196.208,116.512 L196.208,118.948 L204.468,118.948 Z M199.344,115.812 L199.344,105.34 L186.688,105.34 L186.688,115.812 L199.344,115.812 Z M185.624,119.172 L185.624,105.62 L181.76,105.62 L181.76,119.172 L185.624,119.172 Z M195.536,109.456 L190.496,109.456 L190.496,108.084 L195.536,108.084 L195.536,109.456 Z M195.536,113.068 L190.496,113.068 L190.496,111.64 L195.536,111.64 L195.536,113.068 Z M223.368,119.2 L223.396,115.616 L233.308,115.616 L233.308,111.836 L223.396,111.836 L223.396,110.324 L231.516,110.324 L231.516,97.64 L227.484,97.64 L228.044,94.616 L223.872,93.916 L223.172,97.64 L219.196,97.64 L218.58,94.028 L214.24,94.728 L214.716,97.64 L210.824,97.64 L210.824,110.324 L218.916,110.324 L218.916,111.836 L208.808,111.836 L208.808,115.616 L218.916,115.616 L218.916,119.172 L223.368,119.2 Z M219,102.484 L215.164,102.484 L215.164,101.084 L219,101.084 L219,102.484 Z M227.148,102.484 L223.312,102.484 L223.312,101.084 L227.148,101.084 L227.148,102.484 Z M219,106.852 L215.164,106.852 L215.164,105.48 L219,105.48 L219,106.852 Z M227.148,106.852 L223.312,106.852 L223.312,105.48 L227.148,105.48 L227.148,106.852 Z M244.928,115.056 L245.488,99.88 L241.512,99.88 L242.072,115.056 L244.928,115.056 Z M244.956,119.676 L244.956,116.736 L242.044,116.736 L242.044,119.676 L244.956,119.676 Z M258.284,118.864 L259.152,112.088 L262.428,112.088 L262.428,115.7 L259.46,115.7 L259.46,118.78 L266.684,118.78 L266.684,94.112 L253.692,94.112 L253.692,97.752 L256.884,97.752 L256.436,101.28 L253.944,101.28 L253.944,104.92 L255.988,104.92 L255.512,108.448 L253.692,108.448 L253.692,112.088 L255.064,112.088 L254.252,118.36 L258.284,118.864 Z M271.976,119.2 L271.976,97.64 L273.936,97.64 L272.62,105.396 L273.46,108.28 L274.412,108.28 L274.412,114.188 L273.18,114.188 L273.18,117.38 L278.164,117.38 L278.164,104.92 L276.736,104.92 L277.884,97.64 L277.884,94.14 L267.72,94.14 L267.72,119.2 L271.976,119.2 Z M262.428,101.28 L260.552,101.28 L261,97.752 L262.428,97.752 L262.428,101.28 Z M262.428,108.448 L259.628,108.448 L260.076,104.92 L262.428,104.92 L262.428,108.448 Z M296.644,118.864 L296.644,94.056 L292.164,94.056 L292.164,115 L289.168,115 L289.168,118.864 L296.644,118.864 Z M285.92,113.6 L289.252,100.3 L285.024,99.068 L281.664,112.368 L285.92,113.6 Z M302.188,113.6 L306.5,112.368 L303.42,99.068 L299.08,100.3 L302.188,113.6 Z M321.872,119.06 L321.872,101.644 L320.136,101.644 L323.664,95.12 L320.388,93.244 L315.6,102.372 L315.6,101.644 L309.328,101.644 L309.328,105.172 L311.484,105.172 L311.484,115.98 L313.332,118.836 L317.896,116.876 L317.896,119.06 L321.872,119.06 Z M334.528,118.696 L334.528,114.832 L330.524,114.832 L330.524,112.9 L333.744,112.9 L333.744,109.12 L330.524,109.12 L330.524,107.188 L333.744,107.188 L333.744,103.408 L330.524,103.408 L330.524,101.42 L334.472,101.42 L334.472,97.556 L328.48,97.556 L330.524,96.884 L329.208,93.272 L325.736,94.588 L326.94,97.556 L322.544,97.556 L322.544,101.42 L326.408,101.42 L326.408,103.408 L323.132,103.408 L323.132,107.188 L326.408,107.188 L326.408,109.12 L323.132,109.12 L323.132,112.9 L326.408,112.9 L326.408,114.832 L322.432,114.832 L322.432,118.696 L334.528,118.696 Z M315.46,99.264 L315.46,94.924 L311.12,94.924 L311.12,99.264 L315.46,99.264 Z M317.896,116.764 L317,113.208 L315.6,113.852 L315.6,103.828 L317.896,104.836 L317.896,116.764 Z M111.256,157.2 L111.284,147.652 L111.508,147.652 L118.032,157.2 L121.7,154.54 L116.548,147.652 L121.7,147.652 L121.7,143.788 L117.92,143.788 L119.04,139.7 L114.952,139 L113.58,143.788 L111.312,143.788 L111.312,138.188 L120.86,138.188 L120.86,134.38 L111.34,134.38 L111.34,132 L106.86,132 L106.86,134.38 L97.34,134.38 L97.34,138.188 L106.832,138.188 L106.832,143.788 L104.48,143.788 L103.248,139 L99.16,139.7 L100.168,143.788 L96.5,143.788 L96.5,147.652 L101.568,147.652 L96.36,154.68 L100.028,157.2 L106.58,147.652 L106.804,147.652 L106.776,157.2 L111.256,157.2 Z M128.812,157.088 L136.176,140.372 L142.952,140.372 L142.952,153.28 L136.652,153.28 L136.652,156.864 L147.376,156.864 L147.376,136.508 L137.856,136.508 L139.256,133.344 L135.084,131.832 L133.04,136.508 L130.66,136.508 L129.988,132.532 L126.124,133.232 L126.684,136.508 L124.668,136.508 L124.668,140.372 L131.332,140.372 L124.752,155.324 L128.812,157.088 Z M137.1,150.984 L140.824,149.808 L138.892,143.704 L135.168,144.852 L137.1,150.984 Z M159.78,157.2 L159.78,139.812 L158.52,139.812 L161.656,133.596 L157.764,131.636 L152.388,142.276 L155.468,143.76 L155.468,157.2 L159.78,157.2 Z M164.512,142.752 L166.108,138.524 L173.024,138.524 L173.024,141.94 L177.112,141.94 L177.112,134.716 L167.564,134.716 L168.264,132.868 L164.316,131.636 L160.592,141.52 L164.512,142.752 Z M171.176,156.976 L171.176,140.54 L166.864,140.54 L166.864,153.616 L164.736,153.616 L164.736,156.976 L171.176,156.976 Z M164.008,153.868 L166.556,143.984 L162.72,143.004 L160.172,152.916 L164.008,153.868 Z M173.668,153.868 L177.532,153 L175.264,143.032 L171.428,143.872 L173.668,153.868 Z M194.304,156.948 L194.304,153.224 L189.6,153.224 L189.236,150.396 L194.64,146.028 L192.12,142.864 L188.648,145.636 L188.256,142.528 L194.808,141.912 L194.584,138.048 L187.78,138.664 L186.94,131.972 L182.432,132.392 L183.272,139.056 L180.64,139.308 L180.92,143.2 L183.776,142.948 L184.532,148.912 L179.66,152.832 L182.124,156.164 L185.148,153.7 L185.568,156.948 L194.304,156.948 Z M189.012,137.684 L192.82,136.984 L191.952,132.028 L188.144,132.756 L189.012,137.684 Z M204.832,157.004 L204.832,132.028 L200.632,132.028 L200.632,153.14 L196.628,153.14 L196.628,157.004 L204.832,157.004 Z M199.512,150.088 L199.512,134.856 L196.096,134.856 L196.096,150.088 L199.512,150.088 Z M233.392,157.144 L233.392,153.728 L223.34,153.728 L223.34,152.916 L232.104,152.916 L232.104,150.34 L223.34,150.34 L223.34,149.528 L232.356,149.528 L232.356,140.344 L223.34,140.344 L223.34,139.532 L233.252,139.532 L233.252,136.676 L223.34,136.676 L223.34,135.5 L232.132,135.108 L231.964,132.056 L209.956,133.008 L210.096,136.06 L218.86,135.668 L218.86,136.676 L208.892,136.676 L208.892,139.532 L218.86,139.532 L218.86,140.344 L209.844,140.344 L209.844,149.528 L218.86,149.528 L218.86,150.34 L210.18,150.34 L210.18,152.916 L218.86,152.916 L218.86,153.728 L208.752,153.728 L208.752,157.144 L233.392,157.144 Z M218.86,143.816 L214.184,143.816 L214.184,142.92 L218.86,142.92 L218.86,143.816 Z M228.016,143.816 L223.34,143.816 L223.34,142.92 L228.016,142.92 L228.016,143.816 Z M218.86,146.952 L214.184,146.952 L214.184,146.112 L218.86,146.112 L218.86,146.952 Z M228.016,146.952 L223.34,146.952 L223.34,146.112 L228.016,146.112 L228.016,146.952 Z M259.18,149.416 L259.18,139.588 L250.752,139.588 L250.752,137.852 L259.964,137.852 L259.964,133.932 L250.752,133.932 L250.752,132 L246.272,132 L246.272,139.588 L239.216,139.588 L239.216,149.416 L259.18,149.416 Z M254.756,145.636 L243.64,145.636 L243.64,143.368 L254.756,143.368 L254.756,145.636 Z M257.388,157.088 L261.616,156.164 L260.132,149.808 L255.932,150.76 L257.388,157.088 Z M240.616,157.172 L242.352,151.152 L238.208,150.032 L236.472,156.08 L240.616,157.172 Z M250.892,157.116 L255.064,156.668 L254.14,150.536 L249.968,150.984 L250.892,157.116 Z M244.284,157.088 L248.456,156.64 L247.812,150.872 L243.64,151.292 L244.284,157.088 Z M272.928,153.056 L273.488,137.88 L269.512,137.88 L270.072,153.056 L272.928,153.056 Z M272.956,157.676 L272.956,154.736 L270.044,154.736 L270.044,157.676 L272.956,157.676 Z" id="这个游戏很简单！那小谁来为你划重点！"></path>
        </g>
    </g>
</svg>