<?xml version="1.0" encoding="UTF-8"?>
<svg width="32px" height="32px" viewBox="0 0 32 32" version="1.1" xmlns="http://www.w3.org/2000/svg" xmlns:xlink="http://www.w3.org/1999/xlink">
    <!-- Generator: Sketch 61.2 (89653) - https://sketch.com -->
    <title>声音备份 3@2x</title>
    <desc>Created with Sketch.</desc>
    <g id="声音备份-3" stroke="none" stroke-width="1" fill="none" fill-rule="evenodd">
        <g id="编组-2" transform="translate(6.000000, 8.000000)">
            <path d="M12,0 L12,16 L11,16 C8.0393493,16 5.45433121,14.3917256 4.07092854,12.0011597 L2,12 C0.8954305,12 1.3527075e-16,11.1045695 0,10 L0,6 C-1.3527075e-16,4.8954305 0.8954305,4 2,4 L4.07035011,3.99984002 C5.45361056,1.60872276 8.03893661,5.4393852e-16 11,0 L12,0 Z" id="形状结合" stroke="#FFFFFF" stroke-width="2" stroke-linejoin="round"></path>
            <path d="M16.7143376,4.78989811 L18.5,6.575 L20.2856624,4.78989811 C20.6461463,4.42941414 21.2133774,4.40168461 21.6056686,4.7067095 L21.6998759,4.78989811 L21.7101019,4.80012406 C22.1006262,5.19064835 22.1006262,5.82381333 21.7101019,6.21433762 L21.7101019,6.21433762 L19.925,8 L21.7101019,9.78566238 C22.1006262,10.1761867 22.1006262,10.8093516 21.7101019,11.1998759 L21.6998759,11.2101019 C21.3093516,11.6006262 20.6761867,11.6006262 20.2856624,11.2101019 L18.5,9.425 L16.7143376,11.2101019 C16.3538537,11.5705859 15.7866226,11.5983154 15.3943314,11.2932905 L15.3001241,11.2101019 L15.2898981,11.1998759 C14.8993738,10.8093516 14.8993738,10.1761867 15.2898981,9.78566238 L15.2898981,9.78566238 L17.075,8 L15.2898981,6.21433762 C14.8993738,5.82381333 14.8993738,5.19064835 15.2898981,4.80012406 L15.3001241,4.78989811 C15.6906484,4.39937381 16.3238133,4.39937381 16.7143376,4.78989811 Z" id="形状结合" fill="#FFFFFF" fill-rule="nonzero"></path>
        </g>
    </g>
</svg>