<?xml version="1.0" encoding="UTF-8"?>
<svg width="375px" height="425px" viewBox="0 0 375 425" version="1.1" xmlns="http://www.w3.org/2000/svg" xmlns:xlink="http://www.w3.org/1999/xlink">
    <!-- Generator: Sketch 61.2 (89653) - https://sketch.com -->
    <title>组 2@2x</title>
    <desc>Created with Sketch.</desc>
    <defs>
        <rect id="path-1" x="0" y="0" width="375" height="425"></rect>
        <linearGradient x1="50%" y1="100%" x2="50%" y2="0%" id="linearGradient-3">
            <stop stop-color="#27B39F" offset="0%"></stop>
            <stop stop-color="#28C79F" offset="100%"></stop>
        </linearGradient>
        <linearGradient x1="50%" y1="100%" x2="50%" y2="0%" id="linearGradient-4">
            <stop stop-color="#27B39F" offset="0%"></stop>
            <stop stop-color="#28C79F" offset="100%"></stop>
        </linearGradient>
        <linearGradient x1="50%" y1="0%" x2="50%" y2="100%" id="linearGradient-5">
            <stop stop-color="#F1EFB9" stop-opacity="0.0832331731" offset="0%"></stop>
            <stop stop-color="#FFFEDE" stop-opacity="0.701677229" offset="100%"></stop>
        </linearGradient>
        <linearGradient x1="50%" y1="100%" x2="50%" y2="0%" id="linearGradient-6">
            <stop stop-color="#27B39F" offset="0%"></stop>
            <stop stop-color="#28C79F" offset="100%"></stop>
        </linearGradient>
        <linearGradient x1="50%" y1="100%" x2="50%" y2="0%" id="linearGradient-7">
            <stop stop-color="#27B39F" offset="0%"></stop>
            <stop stop-color="#28C79F" offset="100%"></stop>
        </linearGradient>
        <path d="M11.41,22.855 L16.992,28.249 C16.992,28.249 22.84,22.806 25.128,17.51 L26.228,14.01 C26.8252596,11.0451148 26.9554976,8.00510281 26.614,5 L9.78,21.279 L10.025,21.517 L5,26.6 L6.351,27.965 L11.41,22.853 L11.41,22.855 Z" id="path-8"></path>
        <rect id="path-10" x="0" y="0" width="279" height="463"></rect>
        <linearGradient x1="50%" y1="0%" x2="50%" y2="100%" id="linearGradient-12">
            <stop stop-color="#FFFFC2" offset="0%"></stop>
            <stop stop-color="#FFF59A" stop-opacity="0" offset="100%"></stop>
        </linearGradient>
        <filter x="-7.1%" y="-5.6%" width="114.1%" height="111.2%" filterUnits="objectBoundingBox" id="filter-13">
            <feGaussianBlur stdDeviation="8" in="SourceGraphic"></feGaussianBlur>
        </filter>
    </defs>
    <g id="组-2" stroke="none" stroke-width="1" fill="none" fill-rule="evenodd">
        <mask id="mask-2" fill="white">
            <use xlink:href="#path-1"></use>
        </mask>
        <use id="蒙版" fill-opacity="0" fill="#D8D8D8" xlink:href="#path-1"></use>
        <path d="M313.242,177.88 C314.248,189.745 310.894,200.44 304.521,210.299 C302.221701,214.10446 298.832709,217.131838 294.793,218.989 C290.189008,221.462259 284.520334,220.722692 280.705,217.151 C277.686,214.644 274.835,211.971 271.816,209.297 C266.323428,204.597226 259.755946,201.325507 252.696,199.772 C251.340507,199.281644 249.933899,198.946178 248.503,198.772 C246.395327,199.09403 244.319084,199.595861 242.297,200.272 C241.778438,200.587467 241.368778,201.054005 241.123,201.609 C240.933887,202.687208 240.251208,203.614838 239.278,204.116 C235.756,206.121 232.234,207.792 229.047,210.132 C221.667,215.647 218.481,223.166 220.158,232.023 C221.164,237.37 224.686,240.713 230.058,242.384 C231.735,242.884 233.58,243.721 235.258,244.222 C235.515855,244.357001 235.807104,244.414973 236.097,244.389 C243.477,245.057 250.856,245.726 258.068,246.394 C260.248,246.561 262.429,246.394 264.609,246.561 C265.659573,246.741909 266.677169,247.078972 267.628,247.561 C268.128,247.728 268.634,247.728 269.305,247.895 C282.555,247.895 293.96,252.407 302.849,262.266 C306.846826,266.302379 309.027146,271.793623 308.887,277.473 C308.674118,279.289883 308.280844,281.081053 307.713,282.82 C307.352676,284.251588 307.072573,285.702179 306.874,287.165 C306.886475,287.868728 306.495761,288.517717 305.868,288.836 C304.719213,289.48349 303.696532,290.332731 302.849,291.343 C300.995366,294.166286 298.798211,296.748388 296.308,299.03 C295.808,299.53 295.469,300.03 294.966,300.53 C290.102,306.713 283.226,310.222 276.852,314.4 C275.008646,315.556973 273.106048,316.616753 271.152,317.575 C269.893488,318.006578 268.603697,318.340894 267.294,318.575 C266.511184,318.675666 265.763759,318.96195 265.114,319.41 L254.045,326.93 C252.988938,327.503561 252.027365,328.236123 251.194,329.102 C249.517,331.776 246.666,332.778 243.982,333.948 C243.549445,334.082921 243.187809,334.383446 242.976,334.784 L251.194,332.946 L251.362,333.113 L249.685,334.113 C241.467,339.293 233.249,344.474 225.03,349.487 C219.998,352.495 214.967,355.503 209.935,358.344 C208.583409,359.056821 207.182096,359.671085 205.742,360.182 C205.407,360.182 205.242,360.349 204.903,360.516 C201.900709,363.184782 198.156377,364.875207 194.169,365.362 C188.802,366.362 183.435,367.033 178.069,367.702 C177.02194,367.924015 175.946529,367.980367 174.882,367.869 C175.696519,367.001954 176.595278,366.218093 177.565,365.529 L188.131,359.513 C190.815,358.013 193.498,356.505 196.181,354.834 C197.136845,354.190334 197.985827,353.400741 198.697,352.494 C196.973467,352.181372 195.194857,352.476865 193.665,353.33 C190.311,355.001 186.789,356.505 183.265,357.842 C180.414,359.012 177.395,360.182 174.544,361.351 C172.196,362.351 170.016,363.69 167.835,364.86 C165.53184,366.009911 163.023405,366.691403 160.455,366.865 C156.262,367.032 152.572,369.037 148.715,370.708 C145.696,372.045 142.677,373.549 139.658,374.886 L139.49,374.552 L144.857,370.207 C141.483435,369.869216 138.079087,370.385026 134.957,371.707 C124.223,376.72 113.489,381.566 102.757,386.58 C97.893,388.92 93.029,391.76 88.333,394.601 C85.985,396.101 83.633,397.943 81.457,399.614 C80.5374387,400.304259 79.3126888,400.432613 78.27,399.948 C76.9491693,399.613605 75.5658307,399.613605 74.245,399.948 C71.394,400.784 68.545,401.786 65.691,402.789 C64.4993067,403.187111 63.25663,403.412073 62.001,403.457 C64.517,401.285 66.701,398.945 69.716,397.441 C74.58,395.101 79.276,392.595 84.14,390.255 C85.482,389.587 86.153,388.918 85.482,387.414 C81.96,387.414 78.941,388.914 75.922,390.589 L75.587,390.255 C75.755,390.088 76.087,390.088 76.258,389.921 C76.593,389.754 76.929,389.421 77.264,389.253 C80.3221999,386.448956 84.0933031,384.540916 88.164,383.738 C92.0917562,382.547713 95.9546818,381.153148 99.737,379.56 C103.93,377.889 108.123,376.385 112.484,374.881 C111.142,375.717 109.968,376.719 108.459,377.555 C106.772538,378.435235 105.036268,379.216557 103.259,379.895 C102.731284,379.900544 102.262839,380.234121 102.085,380.731 C101.800366,381.114568 101.679853,381.595538 101.75,382.068 C104.601,382.568 107.285,381.233 109.968,380.397 C112.112476,379.696812 114.025887,378.426045 115.503,376.721 C116.697877,375.535596 118.052665,374.523123 119.528,373.713 C119.883126,373.584553 120.163114,373.3054 120.292619,372.950659 C120.422125,372.595918 120.387843,372.202034 120.199,371.875 C119.983539,371.588895 119.92086,371.215806 120.031,370.875 C120.156845,370.530501 120.392663,370.237046 120.702,370.04 C121.373,369.706 122.044,369.204 122.715,368.87 C125.902,367.199 129.088,365.695 132.275,364.024 C133.793009,363.112753 135.639353,362.929292 137.307,363.524 C137.789229,363.714248 138.298529,363.826976 138.816,363.858 C141.065866,364.30644 143.402092,363.888555 145.357,362.688 C148.208,361.017 151.395,360.014 154.582,358.677 C155.895736,358.175835 157.136694,357.501547 158.272,356.672 C159.111,355.836 159.949,355.001 160.788,353.998 L160.453,353.498 C159.383611,353.526498 158.318062,353.638168 157.266,353.832 C154.583,354.832 151.899,356.004 149.215,357.174 C146.699,358.344 144.183,359.681 141.835,360.85 L143.344,360.85 L143.344,361.184 L134.79,362.684 L134.79,362.517 C137.641,361.017 140.49,359.342 143.511,357.838 C145.524,356.838 147.369,355.666 149.381,354.663 C151.965947,353.219498 154.199627,351.222128 155.922,348.814 C156.427268,348.018899 157.330961,347.568592 158.27,347.644 C161.457,347.477 164.643,346.808 166.991,344.636 C167.422209,344.142653 167.762786,343.576944 167.997,342.965 C167.829,342.798 167.829,342.631 167.662,342.465 C164.643,342.965 161.624,343.301 158.605,343.802 C153.181879,344.851072 147.931392,346.65071 143.005,349.149 C140.321,350.486 139.651,351.321 138.644,354.162 C138.135253,354.189196 137.625489,354.132781 137.135,353.995 C135.961,353.828 134.787,353.661 134.116,354.995 C133.787426,355.313327 133.383509,355.543154 132.942,355.663 C124.388,358.337 116.002,360.843 107.449,363.517 C106.802046,363.737851 106.110503,363.795222 105.436,363.684 C105.746982,363.503785 106.02969,363.278698 106.275,363.016 C113.319,357.501 120.363,351.987 127.24,346.305 C128.917,344.968 130.427,343.297 132.775,343.631 C133.131106,343.59637 133.474894,343.48223 133.781,343.297 C135.489162,342.63647 137.34722,342.46337 139.148,342.797 C144.683,343.797 150.217,343.633 155.248,340.792 C155.416,340.792 155.416,340.625 155.583,340.625 C157.099849,339.379457 158.98804,338.674068 160.95,338.62 C164.304,338.453 166.65,335.946 168.665,333.44 C168.617982,332.878356 168.381361,332.349397 167.994,331.94 C167.392859,331.762397 166.774253,331.650411 166.149,331.606 C168.329,330.269 170.51,329.099 172.69,327.595 C174.032,326.759 175.373,325.757 176.715,324.754 C184.950143,317.243042 194.211516,310.941295 204.221,306.038 C207.24,304.538 210.427,303.866 213.445,302.696 C214.892741,302.073057 216.293994,301.3472 217.638,300.524 C221.663,298.352 225.689,296.012 229.714,293.84 C237.094,289.996 244.473,286.487 251.014,281.14 C255.039,277.965 258.561,274.121 262.251,270.445 C263.593,269.275 262.751,266.434 261.077,265.265 C259.403,264.096 257.723,263.093 256.213,261.923 C253.697,260.085 250.678,259.583 247.827,259.082 C239.776,257.745 231.558,257.582 223.34,257.244 C217.890356,257.07684 212.482452,256.234752 207.24,254.737 C202.543391,253.541814 198.434757,250.694207 195.667,246.716 C194.97014,245.854392 194.182982,245.069916 193.319,244.376 C191.327176,242.299196 189.986143,239.685258 189.461,236.856 C188.598094,232.619552 188.484711,228.26461 189.126,223.989 C190.132,212.96 195.332,203.769 202.208,195.246 C206.065,190.4 210.929,186.556 215.29,182.212 L215.79,181.712 C220.654,178.871 225.014,175.362 230.381,173.022 C235.564734,170.687623 240.954696,168.84131 246.481,167.507 C252.533162,166.364327 258.755617,166.478014 264.762,167.841 C267.278,168.341 269.793,168.841 272.309,169.178 C275.860515,169.685255 279.481708,169.342533 282.875,168.178 C287.403,166.678 291.932,165.17 296.46,163.332 C298.623674,162.211192 300.698398,160.926441 302.666,159.489 L303.001,162.33 L310.884,155.646 C311.723,156.983 312.561,158.153 313.4,159.49 C313.536376,159.804745 313.594038,160.14797 313.568,160.49 C312.791911,166.251113 312.679509,172.082258 313.233,177.869 L313.242,177.88 Z M232.905,340.48 L240.62,336.302 C236.763,336.633 233.408,338.472 232.905,340.477 L232.905,340.48 Z M236.763,78.618 C236.497294,79.0200821 236.326332,79.4772358 236.263,79.955 C236.095,83.631 233.915,86.472 232.405,89.647 C230.225,94.326 227.705,99.172 225.529,103.847 C225.361,104.014 225.361,104.181 225.361,104.515 L225.696,104.682 L233.076,94.154 C233.076,96.828 233.244,99.501 231.734,101.841 C230.392,104.013 229.218,106.186 228.044,108.525 C227.669617,109.193559 227.440941,109.933772 227.373,110.697 C227.210153,113.042521 226.701663,115.351114 225.864,117.548 C225.668291,118.269752 225.727631,119.036928 226.032,119.72 L226.532,120.054 C227.24386,119.48764 227.91641,118.873559 228.545,118.216 C229.887,116.211 231.229,114.038 232.57,112.033 C233.112756,111.495307 233.735042,111.04436 234.415,110.696 C235.015263,110.385891 235.631076,110.106855 236.26,109.86 C236.092,111.698 236.428,113.536 235.254,115.207 C233.217594,118.119502 231.52879,121.260168 230.222,124.565 C229.763893,125.620679 229.20214,126.628284 228.545,127.573 C227.539,129.745 226.7,131.918 225.861,134.09 C223.681,140.941 219.991,146.957 215.961,152.806 C207.24,165.339 200.866,178.875 195.161,192.745 C187.473079,211.737783 181.249257,231.290822 176.544,251.233 C174.370864,260.020121 172.857318,268.957332 172.016,277.97 C171.681,281.479 172.016,284.989 171.848,288.498 C171.678197,291.245133 171.342249,293.979467 170.842,296.686 C169.836,300.864 166.649,303.036 162.456,303.537 C158.967001,303.848351 155.450465,303.565676 152.056,302.701 C151.664495,302.563238 151.356163,302.256009 151.217,301.865 C150.774148,298.610959 149.236,295.604852 146.856,293.342 C144.277105,290.717387 141.532108,288.26132 138.638,285.989 C135.116,283.315 133.438,280.307 133.938,275.962 C134.273,273.623 134.273,271.45 134.438,269.111 C134.84197,264.830532 134.385687,260.5125 133.096,256.411 L128.232,238.53 C128.064173,238.276602 128.064173,237.947398 128.232,237.694 L132.593,247.888 L133.264,247.721 C133.291706,246.604366 133.235548,245.487227 133.096,244.379 C131.922,237.862 129.406,231.679 127.226,225.329 C124.878,218.31 121.02,211.96 117.666,205.443 C116.492,203.271 115.653,201.098 114.479,198.926 L115.15,203.939 L114.815,204.106 C114.144,202.606 113.473,200.931 112.97,199.427 C109.951,191.573 106.764,183.719 103.745,175.865 C103.095013,173.83486 101.871898,172.035957 100.223,170.685 C99.552,170.185 99.723,168.68 99.384,167.51 C99.0982042,167.414726 98.8180816,167.303211 98.545,167.176 C96.5597077,166.822286 94.8037615,165.676084 93.681,164.001 C92.7172017,162.931771 91.5840724,162.028375 90.327,161.327 C89.9764565,161.098982 89.7341149,160.737817 89.656,160.327 C90.327,157.319 89.156,154.812 87.643,152.306 C86.6853686,151.240527 86.7601754,149.603683 87.811,148.63 C89.656,146.458 89.824,143.784 89.991,141.11 C89.991,140.442 90.159,139.94 90.159,139.272 C90.0658759,138.153113 90.5776333,137.069728 91.501,136.431 C92.8507292,135.464254 93.6600917,133.913099 93.681,132.253 C93.6939366,130.629985 94.688727,129.176547 96.197,128.577 C96.9709584,128.22197 97.4401352,127.420692 97.371,126.572 L97.371,121.727 C98.9020464,122.09553 100.413336,122.541774 101.899,123.064 C104.445286,124.462073 107.627869,123.82952 109.446,121.564 C110.788,119.893 111.962,119.893 113.807,121.064 C115.589913,122.40199 117.939588,122.71851 120.013,121.9 C120.275533,121.778794 120.563064,121.721562 120.852,121.733 C123.368,121.233 123.536,121.399 124.039,123.738 C124.093796,124.142086 124.206626,124.536148 124.374,124.908 L126.722,124.741 C127.393,126.241 127.896,127.916 128.902,128.752 C132.256,131.593 133.263,135.102 133.766,139.28 C134.437,144.962 135.611,150.48 136.617,156.158 C138.63,167.187 141.984,177.715 145.003,188.577 C147.854,198.771 150.873,209.131 153.724,219.325 C153.962169,219.858056 154.130236,220.419735 154.224,220.996 C154.875907,220.286959 155.439051,219.501177 155.901,218.656 C161.268,203.95 166.467,189.078 172.001,174.372 C177.368,159.834 182.735,145.295 188.437,130.757 C190.45,125.577 193.468,120.73 195.984,115.717 C196.212801,115.344101 196.49553,115.007116 196.823,114.717 C199.674,113.217 199.674,113.217 201.687,110.205 L201.687,112.879 L202.187,113.213 L214.766,100.68 L212.586,109.537 L212.754,109.704 L214.599,107.03 C218.289,101.85 222.146,96.836 225.668,91.489 C229.526,85.64 232.88,79.457 236.737,73.608 C237.942797,72.1346515 239.239667,70.7382526 240.62,69.427 L240.956,69.594 L239.949,71.427 C238.775,74.268 237.769,76.44 236.762,78.613 L236.763,78.618 Z M223.513,106.692 L219.991,113.711 L220.326,113.878 L223.848,106.859 C223.757593,106.768207 223.639921,106.709546 223.513,106.692 L223.513,106.692 Z" id="路径_25" fill="#FFFFFF" fill-rule="nonzero" opacity="0.06" mask="url(#mask-2)"></path>
        <g id="Symbols" mask="url(#mask-2)">
            <g transform="translate(86.059000, 205.627000)" id="凶手IP备份-5">
                <g>
                    <g id="凶手IP">
                        <ellipse id="椭圆形" fill="#000000" fill-rule="nonzero" opacity="0.1" cx="35.441" cy="93.873" rx="19.5" ry="1.5"></ellipse>
                        <g id="编组-2">
                            <g id="形状结合" transform="translate(2.617000, 0.000000)">
                                <path d="M33.146,0.808 C51.453,0.808 65.484,13.223 65.484,31.529 C65.4491304,42.550221 60.5691502,52.9984399 52.14,60.099 C53.24,61.351 55.615,61.105 56.689,62.822 C62.328,66.702 70.989,61.643 69.654,69.814 C69.44,71.647 56.054,72.746 50.554,69.814 C50.6426815,72.6179016 50.4901196,75.4242364 50.098,78.202 C49.211,86.639 47.052,93.327 45.276,93.141 C44.251,93.033 43.576,90.659 43.361,87.048 C36.6264559,88.4784682 29.6665441,88.4784682 22.932,87.048 C22.716,90.659 22.042,93.034 21.017,93.141 C19.241,93.328 17.082,86.641 16.195,78.202 C15.84252,75.054728 15.7398657,71.8844822 15.888,68.721 C12.678,73.633 9.04,76.821 7.588,75.913 C6.073,74.967 7.531,69.902 10.843,64.601 C11.8243324,63.0162308 12.9294433,61.5115412 14.148,60.101 C5.71958752,52.9993995 0.841015827,42.5503328 0.808,31.529 C0.808,13.223 14.84,0.808 33.146,0.808 Z" id="路径_1" fill="url(#linearGradient-3)" fill-rule="nonzero"></path>
                                <path d="M33.146,0.808 C51.453,0.808 65.484,13.223 65.484,31.529 C65.4491304,42.550221 60.5691502,52.9984399 52.14,60.099 C53.3589737,61.5094477 54.464424,63.0141442 55.446,64.599 C58.758,69.899 60.216,74.965 58.701,75.911 C57.253,76.811 53.614,73.63 50.401,68.718 C50.5497373,71.8817868 50.4474168,75.0523863 50.095,78.2 C49.208,86.637 47.049,93.325 45.273,93.139 C44.248,93.031 43.573,90.657 43.358,87.046 C36.6234559,88.4764682 29.6635441,88.4764682 22.929,87.046 C22.713,90.657 22.039,93.032 21.014,93.139 C19.238,93.326 17.079,86.639 16.192,78.2 C15.83952,75.052728 15.7368657,71.8824822 15.885,68.719 C12.675,73.631 9.037,76.819 7.585,75.911 C6.07,74.965 7.528,69.9 10.84,64.599 C11.8213324,63.0142308 12.9264433,61.5095412 14.145,60.099 C5.71823831,52.9972824 0.840856752,42.5491463 0.808,31.529 C0.808,13.223 14.84,0.808 33.146,0.808 Z" id="路径_2"></path>
                                <path d="M53.129,60.486 C54.674,61.559 55.061,61.817 58.28,62.804 C67.122,65.122 69.902,65.804 69.78,68.083 C70.08,72.59 60.691,73.165 51.138,70.808 C51.138,72.94 51.154,75.866 50.899,78.288 C49.948,87.339 47.729,94.213 45.189,93.946 C43.689,93.789 42.923,91.646 42.618,88.022 C36.3603363,89.2325002 29.9286637,89.2325002 23.671,88.022 C23.366,91.643 22.599,93.789 21.1,93.946 C18.56,94.214 16.341,87.339 15.39,78.288 C15.143877,75.9960973 15.015708,73.6930597 15.006,71.388 C11.974,75.398 8.9,77.688 7.163,76.603 C5.04,75.277 6.59,69.892 10.163,64.177 C11.0247505,62.7905077 11.9764574,61.461993 13.012,60.2 C4.77360226,52.9443583 0.0369692728,42.5078945 -2.10942375e-15,31.53 C-2.10942375e-15,13.082 14.063,0 33.147,0 C52.231,0 66.293,13.082 66.293,31.53 C66.2008215,42.6100746 61.4173094,53.132057 53.129,60.486 Z" id="路径_3" stroke="#140900" stroke-width="2"></path>
                            </g>
                            <g id="面具备份-2" transform="translate(0.000000, 9.662000)">
                                <g id="椭圆形-2" transform="translate(9.893000, 0.000000)">
                                    <path d="M25.871,50.568 C39.683,50.568 51.742,36.024 51.742,20.324 C51.742,12.44 48.701,6.85 43.925,3.237 C39.189,-0.344 32.747,2.061 25.871,2.061 C18.995,2.061 12.552,-0.344 7.817,3.237 C3.041,6.848 0,12.44 0,20.324 C0,36.025 12.059,50.568 25.871,50.568 Z" id="路径_4" fill="#000000" fill-rule="nonzero"></path>
                                    <path d="M25.871,50.568 C39.683,50.568 51.742,36.024 51.742,20.324 C51.742,12.44 48.701,6.85 43.925,3.237 C39.189,-0.344 32.747,2.061 25.871,2.061 C18.995,2.061 12.552,-0.344 7.817,3.237 C3.041,6.848 0,12.44 0,20.324 C0,36.025 12.059,50.568 25.871,50.568 Z" id="路径_5" fill="#FFFFFF" fill-rule="nonzero"></path>
                                    <path d="M25.871,54.61 C39.683,54.61 51.742,40.066 51.742,24.366 C51.742,16.482 48.701,10.892 43.925,7.279 C39.189,3.698 32.747,6.103 25.871,6.103 C18.995,6.103 12.552,3.698 7.817,7.279 C3.041,10.89 0,16.482 0,24.366 C0,40.067 12.059,54.61 25.871,54.61 Z" id="路径_6" fill="#209B85" fill-rule="nonzero"></path>
                                    <path d="M25.871,50.568 C39.683,50.568 51.742,36.024 51.742,20.324 C51.742,12.44 48.701,6.85 43.925,3.237 C39.189,-0.344 32.747,2.061 25.871,2.061 C18.995,2.061 12.552,-0.344 7.817,3.237 C3.041,6.848 0,12.44 0,20.324 C0,36.025 12.059,50.568 25.871,50.568 Z" id="路径_7" stroke="#140900" stroke-width="2" fill="#FFFFFF" fill-rule="nonzero"></path>
                                    <g id="甲" transform="translate(6.048000, 0.710000)" fill="#000000" font-family="zihun6hao-rijichahuati" font-size="36" font-weight="normal">
                                        <text>
                                            <tspan x="0" y="36.001">甲</tspan>
                                        </text>
                                    </g>
                                </g>
                                <g id="路径" transform="translate(6.955000, 23.121000) rotate(180.000000) translate(-6.955000, -23.121000) translate(0.455000, 19.621000)">
                                    <path d="M2.806,4.265 C3.83649699,3.61187659 5.05797221,3.32739449 6.271,3.458 C8.55566667,3.458 9.92666667,3.98666667 10.384,5.044 C10.5154878,5.33364744 10.843035,5.47893739 11.146,5.382 C11.555,5.288 11.62,5.003 11.646,4.623 C11.646,3.308 10.544,1.808 6.271,1.808 C2.635,1.808 1.674,3.408 1.827,3.926 C2.02633333,4.496 2.35266667,4.609 2.806,4.265 Z" id="路径_8" fill="#000000" fill-rule="nonzero"></path>
                                    <path d="M2.806,4.265 C3.83649699,3.61187659 5.05797221,3.32739449 6.271,3.458 C8.55566667,3.458 9.92666667,3.98666667 10.384,5.044 C10.5154878,5.33364744 10.843035,5.47893739 11.146,5.382 C11.555,5.288 11.62,5.003 11.646,4.623 C11.646,3.308 10.544,1.808 6.271,1.808 C2.635,1.808 1.674,3.408 1.827,3.926 C2.02633333,4.496 2.35266667,4.609 2.806,4.265 Z" id="路径_9" fill="#FFFBDD" fill-rule="nonzero"></path>
                                    <g id="编组" transform="translate(7.010000, 3.410000) rotate(-180.000000) translate(-7.010000, -3.410000) translate(1.510000, 0.910000)" fill="#FFFBDD" fill-rule="nonzero">
                                        <path d="M1.86028791,2.95306896 C2.8907849,2.29994555 4.11226012,2.01546345 5.32528791,2.14606896 C7.60995458,2.14606896 8.98095458,2.67473563 9.43828791,3.73206896 C9.5697757,4.0217164 9.89732286,4.16700635 10.2002879,4.07006896 C10.6092879,3.97606896 10.6742879,3.69106896 10.7002879,3.31106896 C10.7002879,1.99606896 9.59828791,0.496068963 5.32528791,0.496068963 C1.68928791,0.496068963 0.72828791,2.09606896 0.88128791,2.61406896 C1.08062124,3.18406896 1.40695458,3.29706896 1.86028791,2.95306896 Z" id="路径_10-6" transform="translate(5.783144, 2.298034) rotate(180.000000) translate(-5.783144, -2.298034) "></path>
                                    </g>
                                    <g id="编组" transform="translate(6.510000, 3.910000) rotate(-180.000000) translate(-6.510000, -3.910000) translate(0.510000, 0.910000)" fill="#FFFBDD" stroke="#140900" stroke-width="2">
                                        <path d="M2.3500802,4.5982156 L2.3840802,4.5712156 C3.27362329,4.05655507 4.30486336,3.84098314 5.3260802,3.9562156 C7.3260802,3.9562156 8.4020802,4.3722156 8.7260802,5.1152156 C9.02993611,5.72652854 9.72306672,6.0383536 10.3820802,5.8602156 C11.1720802,5.6792156 11.4540802,5.1602156 11.5100806,4.3132156 C11.5110802,2.0802156 9.4200802,0.689215601 5.3260802,0.689215601 C1.9140802,0.689215601 -0.360919797,2.2522156 0.120080203,3.8832156 C0.215517993,4.36006356 0.561812114,4.74777731 1.02489608,4.89625491 C1.48798004,5.0447325 1.99515889,4.93066591 2.3500802,4.5982156 Z" id="路径_11-6" transform="translate(5.783040, 3.299608) rotate(180.000000) translate(-5.783040, -3.299608) "></path>
                                    </g>
                                </g>
                                <g id="路径-2" transform="translate(57.412000, 19.406000)">
                                    <path d="M2.795,2.949 C4.14192202,3.53135801 5.60146051,3.80700687 7.068,3.756 C9.35266667,3.756 10.7236667,3.22733333 11.181,2.17 C11.3124878,1.88035256 11.640035,1.73506261 11.943,1.832 C12.352,1.926 12.417,2.211 12.443,2.591 C12.443,3.91 11.343,5.406 7.067,5.406 C3.431,5.406 1.662,3.806 1.815,3.288 C2.01233333,2.718 2.339,2.605 2.795,2.949 Z" id="路径_12" fill="#000000" fill-rule="nonzero"></path>
                                    <path d="M2.795,2.949 C4.14192202,3.53135801 5.60146051,3.80700687 7.068,3.756 C9.35266667,3.756 10.7236667,3.22733333 11.181,2.17 C11.3124878,1.88035256 11.640035,1.73506261 11.943,1.832 C12.352,1.926 12.417,2.211 12.443,2.591 C12.443,3.91 11.343,5.406 7.067,5.406 C3.431,5.406 1.662,3.806 1.815,3.288 C2.01233333,2.718 2.339,2.605 2.795,2.949 Z" id="路径_13" fill="#FFFBDD" fill-rule="nonzero"></path>
                                    <g id="编组" transform="translate(0.530000, 0.300000)" fill="#FFFBDD" stroke="#140900" stroke-width="2">
                                        <path d="M2.669,1.939 C3.8918492,2.44808505 5.21027938,2.6868693 6.534,2.639 C8.534,2.639 9.61,2.223 9.934,1.48 C10.2378559,0.868687063 10.9309865,0.556861998 11.59,0.735 C12.38,0.916 12.662,1.435 12.718,2.282 C12.718,4.515 10.628,5.906 6.534,5.906 C3.057,5.906 0.047,4.314 0.519,2.712 C0.609223733,2.25155309 0.935049146,1.87253678 1.37674094,1.71423313 C1.81843272,1.55592948 2.31083565,1.64169032 2.673,1.94 L2.669,1.939 Z" id="路径_15-6"></path>
                                    </g>
                                    <path d="M2.795,2.949 C4.14192202,3.53135801 5.60146051,3.80700687 7.068,3.756 C9.35266667,3.756 10.7236667,3.22733333 11.181,2.17 C11.3124878,1.88035256 11.640035,1.73506261 11.943,1.832 C12.352,1.926 12.417,2.211 12.443,2.591 C12.443,3.91 11.343,5.406 7.067,5.406 C3.431,5.406 1.662,3.806 1.815,3.288 C2.01233333,2.718 2.339,2.605 2.795,2.949 Z" id="路径_14" fill="#FFFBDD" fill-rule="nonzero"></path>
                                </g>
                            </g>
                        </g>
                    </g>
                </g>
            </g>
        </g>
        <g id="Symbols-2" mask="url(#mask-2)">
            <g transform="translate(54.530000, 229.881000)" id="凶手IP备份-5-2">
                <g>
                    <g id="凶手IP-2">
                        <ellipse id="椭圆形-3" fill="#000000" fill-rule="nonzero" opacity="0.1" cx="34.97" cy="94.119" rx="19.5" ry="2"></ellipse>
                        <g id="编组-2-2">
                            <g id="形状结合-2" transform="translate(2.617000, 0.000000)">
                                <path d="M33.146,0.808 C51.453,0.808 65.484,13.223 65.484,31.529 C65.4491304,42.550221 60.5691502,52.9984399 52.14,60.099 C53.24,61.351 54.259,59.588 55.332,61.306 C65.167,63.288 70.408,53.228 71.224,60.525 C72.297,64.56 59.982,70.582 50.747,69.862 C50.902,72.5 50.471,74.653 50.098,78.203 C49.211,86.64 47.052,93.328 45.276,93.142 C44.251,93.034 43.576,90.66 43.361,87.049 C36.6264559,88.4794682 29.6665441,88.4794682 22.932,87.049 C22.716,90.66 22.042,93.035 21.017,93.142 C19.241,93.329 17.082,86.642 16.195,78.203 C15.84252,75.055728 15.7398657,71.8854822 15.888,68.722 C12.678,73.634 9.04,76.822 7.588,75.914 C6.073,74.968 7.531,69.903 10.843,64.602 C11.8243324,63.0172308 12.9294433,61.5125412 14.148,60.102 C5.71932134,53.0001737 0.84072229,42.5506827 0.808,31.529 C0.808,13.223 14.84,0.808 33.146,0.808 Z" id="路径_1-2" fill="url(#linearGradient-4)" fill-rule="nonzero"></path>
                                <path d="M33.146,0.808 C51.453,0.808 65.484,13.223 65.484,31.529 C65.4491304,42.550221 60.5691502,52.9984399 52.14,60.099 C53.3589737,61.5094477 54.464424,63.0141442 55.446,64.599 C58.758,69.899 60.216,74.965 58.701,75.911 C57.253,76.811 53.614,73.63 50.401,68.718 C50.5497373,71.8817868 50.4474168,75.0523863 50.095,78.2 C49.208,86.637 47.049,93.325 45.273,93.139 C44.248,93.031 43.573,90.657 43.358,87.046 C36.6234559,88.4764682 29.6635441,88.4764682 22.929,87.046 C22.713,90.657 22.039,93.032 21.014,93.139 C19.238,93.326 17.079,86.639 16.192,78.2 C15.83952,75.052728 15.7368657,71.8824822 15.885,68.719 C12.675,73.631 9.037,76.819 7.585,75.911 C6.07,74.965 7.528,69.9 10.84,64.599 C11.8213324,63.0142308 12.9264433,61.5095412 14.145,60.099 C5.71823831,52.9972824 0.840856752,42.5491463 0.808,31.529 C0.808,13.223 14.84,0.808 33.146,0.808 Z" id="路径_2-2"></path>
                                <path d="M53.283,60.2 C54.258,61.378 53.24,61.6 58.606,60.7 C63.972,59.8 70.106,55.764 71.483,60.958 C72.083,66.323 56.127,70.221 51.317,70.282 C51.317,72.414 51.158,75.869 50.903,78.291 C49.952,87.342 47.733,94.216 45.193,93.949 C43.693,93.792 42.927,91.649 42.622,88.025 C36.3643363,89.2355002 29.9326637,89.2355002 23.675,88.025 C23.37,91.646 22.603,93.792 21.104,93.949 C18.564,94.217 16.345,87.342 15.394,78.291 C15.147877,75.9990973 15.019708,73.6960597 15.01,71.391 C11.978,75.401 8.904,77.691 7.167,76.606 C5.044,75.28 6.594,69.895 10.167,64.18 C11.027351,62.7925948 11.9777218,61.4630778 13.012,60.2 C4.77360226,52.9443583 0.0369692728,42.5078945 -2.10942375e-15,31.53 C-2.10942375e-15,13.082 14.063,0 33.147,0 C52.231,0 66.293,13.082 66.293,31.53 C66.2562801,42.5075241 61.5204437,52.9438368 53.283,60.2 Z" id="路径_3-2" stroke="#140900" stroke-width="2"></path>
                            </g>
                            <g id="面具备份-2-2" transform="translate(0.000000, 9.311000)">
                                <g id="椭圆形-4" transform="translate(9.893000, 0.000000)">
                                    <path d="M25.871,50.919 C39.683,50.919 51.742,36.375 51.742,20.675 C51.742,12.791 48.701,7.201 43.925,3.588 C39.189,0.007 32.747,2.412 25.871,2.412 C18.995,2.412 12.552,0.007 7.817,3.588 C3.041,7.199 0,12.791 0,20.675 C0,36.376 12.059,50.919 25.871,50.919 Z" id="路径_4-2" fill="#000000" fill-rule="nonzero"></path>
                                    <path d="M25.871,50.919 C39.683,50.919 51.742,36.375 51.742,20.675 C51.742,12.791 48.701,7.201 43.925,3.588 C39.189,0.007 32.747,2.412 25.871,2.412 C18.995,2.412 12.552,0.007 7.817,3.588 C3.041,7.199 0,12.791 0,20.675 C0,36.376 12.059,50.919 25.871,50.919 Z" id="路径_5-2" fill="#FFFFFF" fill-rule="nonzero"></path>
                                    <path d="M25.871,54.961 C39.683,54.961 51.742,40.417 51.742,24.717 C51.742,16.833 48.701,11.243 43.925,7.63 C39.189,4.049 32.747,6.454 25.871,6.454 C18.995,6.454 12.552,4.049 7.817,7.63 C3.041,11.241 0,16.833 0,24.717 C0,40.418 12.059,54.961 25.871,54.961 Z" id="路径_6-2" fill="#209B85" fill-rule="nonzero"></path>
                                    <path d="M25.871,50.919 C39.683,50.919 51.742,36.375 51.742,20.675 C51.742,12.791 48.701,7.201 43.925,3.588 C39.189,0.007 32.747,2.412 25.871,2.412 C18.995,2.412 12.552,0.007 7.817,3.588 C3.041,7.199 0,12.791 0,20.675 C0,36.376 12.059,50.919 25.871,50.919 Z" id="路径_7-2" stroke="#140900" stroke-width="2" fill="#FFFFFF" fill-rule="nonzero"></path>
                                    <g id="乙" transform="translate(6.577000, 0.808000)" fill="#000000" font-family="zihun6hao-rijichahuati" font-size="36" font-weight="normal">
                                        <text>
                                            <tspan x="-9.09494702e-13" y="36">乙</tspan>
                                        </text>
                                    </g>
                                </g>
                                <g id="路径-3" transform="translate(6.955000, 22.972000) rotate(180.000000) translate(-6.955000, -22.972000) translate(0.455000, 18.972000)">
                                    <path d="M2.806,4.265 C3.83649699,3.61187659 5.05797221,3.32739449 6.271,3.458 C8.55566667,3.458 9.92666667,3.98666667 10.384,5.044 C10.5154878,5.33364744 10.843035,5.47893739 11.146,5.382 C11.555,5.288 11.62,5.003 11.646,4.623 C11.646,3.308 10.544,1.808 6.271,1.808 C2.635,1.808 1.674,3.408 1.827,3.926 C2.02633333,4.496 2.35266667,4.609 2.806,4.265 Z" id="路径_8-2" fill="#000000" fill-rule="nonzero"></path>
                                    <path d="M2.806,4.265 C3.83649699,3.61187659 5.05797221,3.32739449 6.271,3.458 C8.55566667,3.458 9.92666667,3.98666667 10.384,5.044 C10.5154878,5.33364744 10.843035,5.47893739 11.146,5.382 C11.555,5.288 11.62,5.003 11.646,4.623 C11.646,3.308 10.544,1.808 6.271,1.808 C2.635,1.808 1.674,3.408 1.827,3.926 C2.02633333,4.496 2.35266667,4.609 2.806,4.265 Z" id="路径_9-2" fill="#FFFBDD" fill-rule="nonzero"></path>
                                    <g id="编组" transform="translate(6.480000, 3.660000) rotate(-180.000000) translate(-6.480000, -3.660000) translate(0.980000, 1.160000)" fill="#FFFBDD" fill-rule="nonzero">
                                        <path d="M1.33028791,3.21306896 C2.3607849,2.55994555 3.58226012,2.27546345 4.79528791,2.40606896 C7.07995458,2.40606896 8.45095458,2.93473563 8.90828791,3.99206896 C9.0397757,4.2817164 9.36732286,4.42700635 9.67028791,4.33006896 C10.0792879,4.23606896 10.1442879,3.95106896 10.1702879,3.57106896 C10.1702879,2.25606896 9.06828791,0.756068963 4.79528791,0.756068963 C1.15928791,0.756068963 0.19828791,2.35606896 0.35128791,2.87406896 C0.550621243,3.44406896 0.876954576,3.55706896 1.33028791,3.21306896 Z" id="路径_10-7" transform="translate(5.253144, 2.558034) rotate(180.000000) translate(-5.253144, -2.558034) "></path>
                                    </g>
                                    <g id="编组" transform="translate(6.980000, 3.660000) rotate(-180.000000) translate(-6.980000, -3.660000) translate(0.980000, 0.160000)" fill="#FFFBDD" stroke="#140900" stroke-width="2">
                                        <path d="M2.8200802,4.8482156 L2.8540802,4.8212156 C3.74362329,4.30655507 4.77486336,4.09098314 5.7960802,4.2062156 C7.7960802,4.2062156 8.8720802,4.6222156 9.1960802,5.3652156 C9.49993611,5.97652854 10.1930667,6.2883536 10.8520802,6.1102156 C11.6420802,5.9292156 11.9240802,5.4102156 11.9800806,4.5632156 C11.9810802,2.3302156 9.8900802,0.939215601 5.7960802,0.939215601 C2.3840802,0.939215601 0.109080203,2.5022156 0.590080203,4.1332156 C0.685517993,4.61006356 1.03181211,4.99777731 1.49489608,5.14625491 C1.95798004,5.2947325 2.46515889,5.18066591 2.8200802,4.8482156 Z" id="路径_11-7" transform="translate(6.253040, 3.549608) rotate(180.000000) translate(-6.253040, -3.549608) "></path>
                                    </g>
                                </g>
                                <g id="路径-4" transform="translate(57.412000, 19.758000)">
                                    <path d="M2.795,2.949 C4.14192202,3.53135801 5.60146051,3.80700687 7.068,3.756 C9.35266667,3.756 10.7236667,3.22733333 11.181,2.17 C11.3124878,1.88035256 11.640035,1.73506261 11.943,1.832 C12.352,1.926 12.417,2.211 12.443,2.591 C12.443,3.91 11.343,5.406 7.067,5.406 C3.431,5.406 1.662,3.806 1.815,3.288 C2.01233333,2.718 2.339,2.605 2.795,2.949 Z" id="路径_12-2" fill="#000000" fill-rule="nonzero"></path>
                                    <path d="M2.795,2.949 C4.14192202,3.53135801 5.60146051,3.80700687 7.068,3.756 C9.35266667,3.756 10.7236667,3.22733333 11.181,2.17 C11.3124878,1.88035256 11.640035,1.73506261 11.943,1.832 C12.352,1.926 12.417,2.211 12.443,2.591 C12.443,3.91 11.343,5.406 7.067,5.406 C3.431,5.406 1.662,3.806 1.815,3.288 C2.01233333,2.718 2.339,2.605 2.795,2.949 Z" id="路径_13-2" fill="#FFFBDD" fill-rule="nonzero"></path>
                                    <g id="编组" transform="translate(0.060000, 0.050000)" fill="#FFFBDD" stroke="#140900" stroke-width="2">
                                        <path d="M3.139,2.199 C4.3618492,2.70808505 5.68027938,2.9468693 7.004,2.899 C9.004,2.899 10.08,2.483 10.404,1.74 C10.7078559,1.12868706 11.4009865,0.816861998 12.06,0.995 C12.85,1.176 13.132,1.695 13.188,2.542 C13.188,4.775 11.098,6.166 7.004,6.166 C3.527,6.166 0.517,4.574 0.989,2.972 C1.07922373,2.51155309 1.40504915,2.13253678 1.84674094,1.97423313 C2.28843272,1.81592948 2.78083565,1.90169032 3.143,2.2 L3.139,2.199 Z" id="路径_15-7"></path>
                                    </g>
                                    <path d="M2.795,2.949 C4.14192202,3.53135801 5.60146051,3.80700687 7.068,3.756 C9.35266667,3.756 10.7236667,3.22733333 11.181,2.17 C11.3124878,1.88035256 11.640035,1.73506261 11.943,1.832 C12.352,1.926 12.417,2.211 12.443,2.591 C12.443,3.91 11.343,5.406 7.067,5.406 C3.431,5.406 1.662,3.806 1.815,3.288 C2.01233333,2.718 2.339,2.605 2.795,2.949 Z" id="路径_14-2" fill="#FFFBDD" fill-rule="nonzero"></path>
                                </g>
                            </g>
                        </g>
                    </g>
                </g>
            </g>
        </g>
        <path d="M351,348 C333.72,348 316.957,347.405 301.177,346.232 C285.935,345.099 272.246,343.477 260.491,341.41 C248.736,339.343 239.506,336.937 233.06,334.258 C226.384,331.484 223,328.537 223,325.5 C223,322.463 226.384,319.516 233.059,316.742 C239.506,314.063 248.735,311.656 260.49,309.59 C272.245,307.524 285.934,305.901 301.176,304.768 C316.957,303.595 333.72,303 351,303 C359.067,303 367.142,303.133 375,303.395 L375,347.6 C367.131,347.867 359.057,348 351,348 Z" id="减去_2" fill="url(#linearGradient-5)" fill-rule="nonzero" mask="url(#mask-2)"></path>
        <g id="Symbols-3" mask="url(#mask-2)">
            <g transform="translate(23.000000, 259.794000)" id="凶手IP备份-5-3">
                <g>
                    <g id="凶手IP-3">
                        <ellipse id="椭圆形-5" fill="#000000" fill-rule="nonzero" opacity="0.1" cx="35" cy="94.206" rx="20" ry="2"></ellipse>
                        <g id="编组-2-3">
                            <g id="形状结合-3" transform="translate(2.617000, 0.000000)">
                                <path d="M33.146,0.808 C51.453,0.808 65.484,13.223 65.484,31.529 C65.4491304,42.550221 60.5691502,52.9984399 52.14,60.099 C53.24,61.351 55.361,58.382 56.434,60.099 C62.592,57.725 67.752,52.447 70.391,57.725 C72.033,62.417 58.897,67.925 50.662,70.939 C50.817,73.577 50.47,74.652 50.097,78.203 C49.21,86.64 54.255,90.196 51.084,92.178 C49.732,93.686 43.577,90.66 43.361,87.049 C36.6264559,88.4794682 29.6665441,88.4794682 22.932,87.049 C22.716,90.66 22.042,93.035 21.017,93.142 C19.241,93.329 17.082,86.642 16.195,78.203 C15.84252,75.055728 15.7398657,71.8854822 15.888,68.722 C12.678,73.634 9.04,76.822 7.588,75.914 C6.073,74.968 7.531,69.903 10.843,64.602 C11.8243324,63.0172308 12.9294433,61.5125412 14.148,60.102 C5.71932134,53.0001737 0.84072229,42.5506827 0.808,31.529 C0.808,13.223 14.84,0.808 33.146,0.808 Z" id="路径_1-3" fill="url(#linearGradient-6)" fill-rule="nonzero"></path>
                                <path d="M33.146,0.808 C51.453,0.808 65.484,13.223 65.484,31.529 C65.4491304,42.550221 60.5691502,52.9984399 52.14,60.099 C53.3589737,61.5094477 54.464424,63.0141442 55.446,64.599 C58.758,69.899 60.216,74.965 58.701,75.911 C57.253,76.811 53.614,73.63 50.401,68.718 C50.5497373,71.8817868 50.4474168,75.0523863 50.095,78.2 C49.208,86.637 47.049,93.325 45.273,93.139 C44.248,93.031 43.573,90.657 43.358,87.046 C36.6234559,88.4764682 29.6635441,88.4764682 22.929,87.046 C22.713,90.657 22.039,93.032 21.014,93.139 C19.238,93.326 17.079,86.639 16.192,78.2 C15.83952,75.052728 15.7368657,71.8824822 15.885,68.719 C12.675,73.631 9.037,76.819 7.585,75.911 C6.07,74.965 7.528,69.9 10.84,64.599 C11.8213324,63.0142308 12.9264433,61.5095412 14.145,60.099 C5.71823831,52.9972824 0.840856752,42.5491463 0.808,31.529 C0.808,13.223 14.84,0.808 33.146,0.808 Z" id="路径_2-3"></path>
                                <path d="M53.283,60.2 C54.258,61.378 53.474,60.6 57.991,59.27 C62.508,57.94 68.457,53.86 70.334,57.848 C72.459,62.553 54.793,69.401 51.286,71.388 C51.2763484,73.6930614 51.1481792,75.9961019 50.902,78.288 C49.951,87.339 53.066,89.788 50.902,91.954 C49.002,93.533 45.862,91.526 43.221,87.594 C39.9090653,88.3360832 36.5378758,88.7831657 33.147,88.93 C29.9677009,88.9280694 26.7957782,88.6240363 23.674,88.022 C23.369,91.643 22.602,93.789 21.103,93.946 C18.563,94.214 16.344,87.339 15.393,78.288 C15.146877,75.9960973 15.018708,73.6930597 15.009,71.388 C11.977,75.398 8.903,77.688 7.166,76.603 C5.043,75.277 6.593,69.892 10.166,64.177 C11.0267834,62.7905944 11.9774866,61.4620818 13.012,60.2 C4.77360226,52.9443583 0.0369692728,42.5078945 6.43929354e-15,31.53 C6.43929354e-15,13.082 14.063,0 33.147,0 C52.231,0 66.293,13.082 66.293,31.53 C66.2562801,42.5075241 61.5204437,52.9438368 53.283,60.2 Z" id="路径_3-3" stroke="#140900" stroke-width="2"></path>
                            </g>
                            <g id="面具备份-2-3" transform="translate(0.000000, 6.090000)">
                                <g id="椭圆形-6" transform="translate(9.893000, 0.000000)">
                                    <path d="M25.871,54.14 C39.683,54.14 51.742,39.596 51.742,23.896 C51.742,16.012 48.701,10.422 43.925,6.809 C39.189,3.228 32.747,5.633 25.871,5.633 C18.995,5.633 12.552,3.228 7.817,6.809 C3.041,10.42 0,16.012 0,23.896 C0,39.597 12.059,54.14 25.871,54.14 Z" id="路径_4-3" fill="#000000" fill-rule="nonzero"></path>
                                    <path d="M25.871,54.14 C39.683,54.14 51.742,39.596 51.742,23.896 C51.742,16.012 48.701,10.422 43.925,6.809 C39.189,3.228 32.747,5.633 25.871,5.633 C18.995,5.633 12.552,3.228 7.817,6.809 C3.041,10.42 0,16.012 0,23.896 C0,39.597 12.059,54.14 25.871,54.14 Z" id="路径_5-3" fill="#FFFFFF" fill-rule="nonzero"></path>
                                    <path d="M25.871,58.182 C39.683,58.182 51.742,43.638 51.742,27.938 C51.742,20.054 48.701,14.464 43.925,10.851 C39.189,7.27 32.747,9.675 25.871,9.675 C18.995,9.675 12.552,7.27 7.817,10.851 C3.041,14.462 0,20.054 0,27.938 C0,43.639 12.059,58.182 25.871,58.182 Z" id="路径_6-3" fill="#209B85" fill-rule="nonzero"></path>
                                    <path d="M25.871,54.14 C39.683,54.14 51.742,39.596 51.742,23.896 C51.742,16.012 48.701,10.422 43.925,6.809 C39.189,3.228 32.747,5.633 25.871,5.633 C18.995,5.633 12.552,3.228 7.817,6.809 C3.041,10.42 0,16.012 0,23.896 C0,39.597 12.059,54.14 25.871,54.14 Z" id="路径_7-3" stroke="#140900" stroke-width="2" fill="#FFFFFF" fill-rule="nonzero"></path>
                                    <g id="丙" transform="translate(9.107000, 0.116000)" fill="#000000" font-family="zihun6hao-rijichahuati" font-size="36" font-weight="normal">
                                        <text>
                                            <tspan x="0" y="36">丙</tspan>
                                        </text>
                                    </g>
                                </g>
                                <g id="路径-5" transform="translate(6.955000, 26.193000) rotate(180.000000) translate(-6.955000, -26.193000) translate(0.455000, 22.193000)">
                                    <path d="M2.806,4.265 C3.83649699,3.61187659 5.05797221,3.32739449 6.271,3.458 C8.55566667,3.458 9.92666667,3.98666667 10.384,5.044 C10.5154878,5.33364744 10.843035,5.47893739 11.146,5.382 C11.555,5.288 11.62,5.003 11.646,4.623 C11.646,3.308 10.544,1.808 6.271,1.808 C2.635,1.808 1.674,3.408 1.827,3.926 C2.02633333,4.496 2.35266667,4.609 2.806,4.265 Z" id="路径_8-3" fill="#000000" fill-rule="nonzero"></path>
                                    <path d="M2.806,4.265 C3.83649699,3.61187659 5.05797221,3.32739449 6.271,3.458 C8.55566667,3.458 9.92666667,3.98666667 10.384,5.044 C10.5154878,5.33364744 10.843035,5.47893739 11.146,5.382 C11.555,5.288 11.62,5.003 11.646,4.623 C11.646,3.308 10.544,1.808 6.271,1.808 C2.635,1.808 1.674,3.408 1.827,3.926 C2.02633333,4.496 2.35266667,4.609 2.806,4.265 Z" id="路径_9-3" fill="#FFFBDD" fill-rule="nonzero"></path>
                                    <g id="编组" transform="translate(6.950000, 3.580000) rotate(-180.000000) translate(-6.950000, -3.580000) translate(1.450000, 1.080000)" fill="#FFFBDD" fill-rule="nonzero">
                                        <path d="M1.80028791,3.12306896 C2.8307849,2.46994555 4.05226012,2.18546345 5.26528791,2.31606896 C7.54995458,2.31606896 8.92095458,2.84473563 9.37828791,3.90206896 C9.5097757,4.1917164 9.83732286,4.33700635 10.1402879,4.24006896 C10.5492879,4.14606896 10.6142879,3.86106896 10.6402879,3.48106896 C10.6402879,2.16606896 9.53828791,0.666068963 5.26528791,0.666068963 C1.62928791,0.666068963 0.66828791,2.26606896 0.82128791,2.78406896 C1.02062124,3.35406896 1.34695458,3.46706896 1.80028791,3.12306896 Z" id="路径_10-8" transform="translate(5.723144, 2.468034) rotate(180.000000) translate(-5.723144, -2.468034) "></path>
                                    </g>
                                    <g id="编组" transform="translate(6.450000, 3.580000) rotate(-180.000000) translate(-6.450000, -3.580000) translate(0.450000, 0.080000)" fill="#FFFBDD" stroke="#140900" stroke-width="2">
                                        <path d="M2.2900802,4.7682156 L2.3240802,4.7412156 C3.21362329,4.22655507 4.24486336,4.01098314 5.2660802,4.1262156 C7.2660802,4.1262156 8.3420802,4.5422156 8.6660802,5.2852156 C8.96993611,5.89652854 9.66306672,6.2083536 10.3220802,6.0302156 C11.1120802,5.8492156 11.3940802,5.3302156 11.4500806,4.4832156 C11.4510802,2.2502156 9.3600802,0.859215601 5.2660802,0.859215601 C1.8540802,0.859215601 -0.420919797,2.4222156 0.0600802031,4.0532156 C0.155517993,4.53006356 0.501812114,4.91777731 0.964896076,5.06625491 C1.42798004,5.2147325 1.93515889,5.10066591 2.2900802,4.7682156 Z" id="路径_11-8" transform="translate(5.723040, 3.469608) rotate(180.000000) translate(-5.723040, -3.469608) "></path>
                                    </g>
                                </g>
                                <g id="路径-6" transform="translate(57.412000, 22.979000)">
                                    <path d="M2.795,2.949 C4.14192202,3.53135801 5.60146051,3.80700687 7.068,3.756 C9.35266667,3.756 10.7236667,3.22733333 11.181,2.17 C11.3124878,1.88035256 11.640035,1.73506261 11.943,1.832 C12.352,1.926 12.417,2.211 12.443,2.591 C12.443,3.91 11.343,5.406 7.067,5.406 C3.431,5.406 1.662,3.806 1.815,3.288 C2.01233333,2.718 2.339,2.605 2.795,2.949 Z" id="路径_12-3" fill="#000000" fill-rule="nonzero"></path>
                                    <path d="M2.795,2.949 C4.14192202,3.53135801 5.60146051,3.80700687 7.068,3.756 C9.35266667,3.756 10.7236667,3.22733333 11.181,2.17 C11.3124878,1.88035256 11.640035,1.73506261 11.943,1.832 C12.352,1.926 12.417,2.211 12.443,2.591 C12.443,3.91 11.343,5.406 7.067,5.406 C3.431,5.406 1.662,3.806 1.815,3.288 C2.01233333,2.718 2.339,2.605 2.795,2.949 Z" id="路径_13-3" fill="#FFFBDD" fill-rule="nonzero"></path>
                                    <g id="编组" transform="translate(0.590000, 0.140000)" fill="#FFFBDD" stroke="#140900" stroke-width="2">
                                        <path d="M2.609,2.109 C3.8318492,2.61808505 5.15027938,2.8568693 6.474,2.809 C8.474,2.809 9.55,2.393 9.874,1.65 C10.1778559,1.03868706 10.8709865,0.726861998 11.53,0.905 C12.32,1.086 12.602,1.605 12.658,2.452 C12.658,4.685 10.568,6.076 6.474,6.076 C2.997,6.076 -0.013,4.484 0.459,2.882 C0.549223733,2.42155309 0.875049146,2.04253678 1.31674094,1.88423313 C1.75843272,1.72592948 2.25083565,1.81169032 2.613,2.11 L2.609,2.109 Z" id="路径_15-8"></path>
                                    </g>
                                    <path d="M2.795,2.949 C4.14192202,3.53135801 5.60146051,3.80700687 7.068,3.756 C9.35266667,3.756 10.7236667,3.22733333 11.181,2.17 C11.3124878,1.88035256 11.640035,1.73506261 11.943,1.832 C12.352,1.926 12.417,2.211 12.443,2.591 C12.443,3.91 11.343,5.406 7.067,5.406 C3.431,5.406 1.662,3.806 1.815,3.288 C2.01233333,2.718 2.339,2.605 2.795,2.949 Z" id="路径_14-3" fill="#FFFBDD" fill-rule="nonzero"></path>
                                </g>
                            </g>
                        </g>
                    </g>
                </g>
            </g>
        </g>
        <g id="Symbols-4" mask="url(#mask-2)">
            <g transform="translate(244.000000, 213.000000)" id="凶手IP备份-5-4">
                <g>
                    <g id="凶手IP-4">
                        <ellipse id="椭圆形-7" fill="#000000" fill-rule="nonzero" opacity="0.1" cx="44" cy="116.5" rx="24" ry="2.5"></ellipse>
                        <g id="编组-2-4">
                            <g id="形状结合-4" transform="translate(4.000000, 0.000000)">
                                <path d="M41,1 C63.644,1 81,16.356 81,39 C80.9568282,52.6328169 74.9204943,65.5568469 64.494,74.34 C66.0017676,76.0852118 67.369037,77.9470255 68.583,79.908 C72.683,86.465 74.483,92.73 72.61,93.9 C70.819,95.019 66.318,91.079 62.346,85 C62.5298315,88.9135389 62.4031012,92.835493 61.967,96.729 C60.87,107.168 58.2,115.441 56,115.21 C54.732,115.077 53.9,112.14 53.632,107.673 C45.3019185,109.442353 36.6930815,109.442353 28.363,107.673 C28.096,112.14 27.263,115.073 25.994,115.21 C23.794,115.441 21.127,107.168 20.03,96.732 C19.5946714,92.8374283 19.4686102,88.9144859 19.653,85 C15.682,91.076 11.182,95.014 9.392,93.9 C7.519,92.729 9.321,86.465 13.419,79.908 C14.6330636,77.9470934 16.0003273,76.0852874 17.508,74.34 C7.08075999,65.5572261 1.04366914,52.6331414 1,39 C1,16.356 18.356,1 41,1 Z" id="路径_1-4" fill="url(#linearGradient-7)" fill-rule="nonzero"></path>
                                <path d="M41,1 C63.644,1 81,16.356 81,39 C80.9568282,52.6328169 74.9204943,65.5568469 64.494,74.34 C66.0017676,76.0852118 67.369037,77.9470255 68.583,79.908 C72.683,86.465 74.483,92.73 72.61,93.9 C70.819,95.019 66.318,91.079 62.346,85 C62.5298315,88.9135389 62.4031012,92.835493 61.967,96.729 C60.87,107.168 58.2,115.441 56,115.21 C54.732,115.077 53.9,112.14 53.632,107.673 C45.3019185,109.442353 36.6930815,109.442353 28.363,107.673 C28.096,112.14 27.263,115.073 25.994,115.21 C23.794,115.441 21.127,107.168 20.03,96.732 C19.5946714,92.8374283 19.4686102,88.9144859 19.653,85 C15.682,91.076 11.182,95.014 9.392,93.9 C7.519,92.729 9.321,86.465 13.419,79.908 C14.6330636,77.9470934 16.0003273,76.0852874 17.508,74.34 C7.08075999,65.5572261 1.04366914,52.6331414 1,39 C1,16.356 18.356,1 41,1 Z" id="路径_2-4"></path>
                                <path d="M65.907,74.457 C67.188429,76.0184217 68.3659614,77.6622903 69.432,79.378 C73.849,86.447 75.766,93.108 73.141,94.748 C70.992,96.091 67.189,93.256 63.441,88.296 C63.4292658,91.1492627 63.2707229,94.0000316 62.966,96.837 C61.789,108.037 59.045,116.537 55.903,116.204 C54.048,116.01 53.103,113.355 52.723,108.877 C44.982743,110.374272 37.027257,110.374272 29.287,108.877 C28.909,113.356 27.961,116.01 26.106,116.204 C22.964,116.535 20.22,108.032 19.043,96.837 C18.7384125,94.0006896 18.5798698,91.1505934 18.568,88.298 C14.818,93.258 11.015,96.091 8.868,94.749 C6.243,93.108 8.159,86.449 12.577,79.379 C13.6428963,77.6637579 14.8200869,76.0202341 16.101,74.459 C5.90936635,65.4862938 0.0482907993,52.5785316 -3.21964677e-15,39 C-3.21964677e-15,16.182 17.4,0 41,0 C64.6,0 82,16.182 82,39 C81.9529065,52.5765201 76.0949313,65.4831395 65.907,74.457 L65.907,74.457 Z" id="路径_3-4" stroke="#140900" stroke-width="2"></path>
                            </g>
                            <g id="面具备份-2-4" transform="translate(0.000000, 13.000000)">
                                <g id="椭圆形-8" transform="translate(13.000000, 0.000000)" fill-rule="nonzero">
                                    <path d="M32,61.5 C49.084,61.5 64,43.511 64,24.09 C64,14.338 60.239,7.423 54.331,2.955 C48.474,-1.475 40.506,1.5 32,1.5 C23.494,1.5 15.526,-1.475 9.669,2.955 C3.761,7.423 0,14.338 0,24.09 C0,43.511 14.916,61.5 32,61.5 Z" id="路径_4-4" fill="#000000"></path>
                                    <path d="M32,61.5 C49.084,61.5 64,43.511 64,24.09 C64,14.338 60.239,7.423 54.331,2.955 C48.474,-1.475 40.506,1.5 32,1.5 C23.494,1.5 15.526,-1.475 9.669,2.955 C3.761,7.423 0,14.338 0,24.09 C0,43.511 14.916,61.5 32,61.5 Z" id="路径_5-4" fill="#FFFFFF"></path>
                                    <path d="M32,66.5 C49.084,66.5 64,48.511 64,29.09 C64,19.338 60.239,12.423 54.331,7.955 C48.474,3.525 40.506,6.5 32,6.5 C23.494,6.5 15.526,3.525 9.669,7.955 C3.761,12.423 0,19.338 0,29.09 C0,48.511 14.916,66.5 32,66.5 Z" id="路径_6-4" fill="#209B85"></path>
                                    <path d="M32,61.5 C49.084,61.5 64,43.511 64,24.09 C64,14.338 60.239,7.423 54.331,2.955 C48.474,-1.475 40.506,1.5 32,1.5 C23.494,1.5 15.526,-1.475 9.669,2.955 C3.761,7.423 0,14.338 0,24.09 C0,43.511 14.916,61.5 32,61.5 Z" id="路径_7-4" stroke="#140900" stroke-width="2" fill="#FFFFFF"></path>
                                </g>
                                <path d="M36.467,35 L36.567,34.988 C37.1217157,35.018091 37.6657543,34.8271561 38.08,34.457 L38.08,34.457 L45.4,25.962 C45.6363107,25.6723321 45.9845893,25.4967386 46.358,25.479 C46.6613831,25.4791808 46.9520433,25.6009195 47.165,25.817 C48.7982563,27.0080245 50.3165351,28.3491987 51.7,29.823 L51.7,29.823 L52.456,30.499 L53.056,31.223 C53.3812072,31.5082509 53.6248414,31.8747375 53.762,32.285 L53.762,32.285 L53.812,32.43 C53.9579226,32.9590248 54.3254569,33.399118 54.82,33.637 C55.1634886,33.8149671 55.5423622,33.9140414 55.929,33.927 C56.0997039,33.9186492 56.2682154,33.8849469 56.429,33.827 C56.9714248,33.6808554 57.439263,33.3364894 57.74,32.862 C57.9037865,32.5673206 57.9930445,32.2370661 58,31.9 C57.9892041,31.7037783 57.9556458,31.5094756 57.9,31.321 C57.6608719,30.6013432 57.3215364,29.9189692 56.892,29.294 L56.892,29.294 L56.741,29.101 L54.975,27.12 C53.4703616,25.6183988 51.8703688,24.2154825 50.185,22.92 L50.185,22.92 L50.135,22.872 C49.7654505,22.5576451 49.5457534,22.1019099 49.53,21.617 C49.5404785,21.2656742 49.6643078,20.9271606 49.883,20.652 L49.883,20.652 L53.362,16.405 C53.7653333,15.9543333 54.236,15.359 54.774,14.619 L54.774,14.619 L55.174,14.088 C55.3524894,13.7267078 55.4546131,13.3325104 55.474,12.93 C55.4800642,12.7836112 55.4631936,12.6371747 55.424,12.496 C55.2739941,11.9706062 54.909493,11.5327693 54.42,11.29 C54.0765114,11.1120329 53.6976378,11.0129586 53.311,11 C53.1403016,11.0083951 52.9717966,11.0420961 52.811,11.1 C52.105,11.3573333 51.6846667,11.663 51.55,12.017 L51.55,12.017 L51.05,12.693 L46.411,18.293 C46.1567432,18.6540143 45.7435571,18.8697354 45.302,18.872 C44.9642788,18.8521596 44.6360258,18.7527928 44.344,18.582 L44.344,18.582 L37.529,13.8 L37.129,13.607 C36.7690342,13.4244037 36.3725446,13.3252813 35.969,13.317 C35.8009255,13.3101693 35.6327053,13.3263184 35.469,13.365 C34.8919638,13.4008378 34.3939682,13.7822392 34.209,14.33 C34.0660445,14.6652884 33.9977975,15.0276799 34.009,15.392 C34.0013819,15.5545955 34.0182367,15.7174129 34.059,15.875 C34.1262114,16.4098839 34.4717085,16.8691515 34.967,17.082 L34.967,17.082 L35.567,17.516 L41.517,21.57 C41.8722379,21.8064123 42.1245501,22.1687984 42.223,22.584 C42.2652179,23.0246686 42.1200344,23.4627597 41.823,23.791 C41.423,24.2736667 41.2046667,24.531 41.168,24.563 L41.168,24.563 L35.017,31.513 C34.6657293,31.9143313 34.4689618,32.4276995 34.462,32.961 C34.4506796,33.5131897 34.6489896,34.0491627 35.017,34.461 C35.4628507,34.8098627 36.0139061,34.9970734 36.58,34.992 L36.467,35 Z M32.415,41 L38.933,40.568 L45.1,40.376 L59.39,40.136 C60.5617611,40.175887 61.6453505,39.5162255 62.148,38.457 C62.5650922,37.4218493 62.7533958,36.3087429 62.7,35.194 L62.7,35.194 L62.65,30.252 L62.7,27.133 L62.75,26.461 C62.7306895,26.2834304 62.7477011,26.1037884 62.8,25.933 L62.8,25.933 L62.9,25.405 C62.9519027,25.2330294 62.9854235,25.0560399 63,24.877 C62.9863089,24.5060072 62.8834032,24.1437791 62.7,23.821 C62.4437656,23.3413918 61.9821508,23.0054039 61.447,22.909 C61.265367,22.872456 61.0802145,22.8563557 60.895,22.861 C60.5164729,22.8708629 60.1432347,22.9522967 59.795,23.101 C59.3237651,23.350449 58.9782491,23.7855164 58.842,24.301 C58.6106542,25.0303607 58.4922841,25.7908292 58.491,26.556 L58.491,26.556 L58.441,28.331 L58.391,29.147 C58.391,32.4416667 58.4076667,34.265 58.441,34.617 L58.441,34.617 L58.441,35 C58.4803511,35.3046809 58.3683347,35.6093653 58.141,35.816 C57.9298003,36.0301871 57.6418001,36.1511472 57.341,36.152 L57.341,36.152 L40.193,36.44 C39.892199,36.4318971 39.5912328,36.4479487 39.293,36.488 L39.293,36.488 L38.593,36.588 L34.883,36.732 L34.583,36.78 L32.477,36.972 L32.026,36.684 L31.775,36.204 C31.5691799,35.6807148 31.4346417,35.1321352 31.375,34.573 C31.2740849,33.7934139 31.2239792,33.0080898 31.225,32.222 C31.2205334,31.2587129 31.2873828,30.2964167 31.425,29.343 L31.425,29.343 L31.676,27.088 L32.228,24.545 C32.2670669,24.4044835 32.2839371,24.2587253 32.278,24.113 C32.2896613,23.7085917 32.1855795,23.3092648 31.978,22.962 C31.7218803,22.482292 31.2602105,22.1462641 30.725,22.05 C30.5388694,22.0117214 30.3489586,21.9949448 30.159,22 C29.7943636,21.9991216 29.434324,22.0813698 29.106,22.24 C28.6149834,22.4767803 28.2503547,22.9143348 28.106,23.44 C27.9726667,24.048 27.806,24.9436667 27.606,26.127 C27.2438651,28.2840334 27.0433075,30.4650974 27.006,32.652 C26.9420012,34.6190204 27.3367505,36.5739366 28.159,38.362 C28.5846146,39.3131591 29.3550763,40.0675398 30.315,40.473 C30.9739922,40.7837723 31.6873561,40.9627926 32.415,41 Z" id="凶" fill="#140900" fill-rule="nonzero"></path>
                                <g id="路径-7" transform="translate(8.664000, 27.500000) rotate(180.000000) translate(-8.664000, -27.500000) translate(0.164000, 24.000000)">
                                    <path d="M3.229,4.4 C4.033,3.718 5.46166667,3.38466667 7.515,3.4 C10.341,3.4 12.0366667,4.054 12.602,5.362 C12.7648454,5.72031378 13.1701474,5.89997043 13.545,5.78 C14.051,5.664 14.132,5.311 14.164,4.841 C14.164,3.21 12.801,1.359 7.515,1.359 C3.015,1.359 1.829,3.332 2.015,3.979 C2.26433333,4.68233333 2.669,4.82266667 3.229,4.4 Z" id="路径_8-4" fill="#000000" fill-rule="nonzero"></path>
                                    <path d="M3.229,4.4 C4.033,3.718 5.46166667,3.38466667 7.515,3.4 C10.341,3.4 12.0366667,4.054 12.602,5.362 C12.7648454,5.72031378 13.1701474,5.89997043 13.545,5.78 C14.051,5.664 14.132,5.311 14.164,4.841 C14.164,3.21 12.801,1.359 7.515,1.359 C3.015,1.359 1.829,3.332 2.015,3.979 C2.26433333,4.68233333 2.669,4.82266667 3.229,4.4 Z" id="路径_9-4" fill="#FFFBDD" fill-rule="nonzero"></path>
                                    <g id="编组" transform="translate(7.660000, 3.500000) rotate(-180.000000) translate(-7.660000, -3.500000) translate(1.160000, 1.000000)" fill="#FFFBDD" fill-rule="nonzero">
                                        <path d="M1.22834674,3.2239382 C2.03234674,2.5419382 3.4610134,2.20860486 5.51434674,2.2239382 C8.34034674,2.2239382 10.0360134,2.8779382 10.6013467,4.1859382 C10.7641921,4.54425198 11.1694941,4.72390863 11.5443467,4.6039382 C12.0503467,4.4879382 12.1313467,4.1349382 12.1633467,3.6649382 C12.1633467,2.0339382 10.8003467,0.182938197 5.51434674,0.182938197 C1.01434674,0.182938197 -0.171653262,2.1559382 0.014346738,2.8029382 C0.263680071,3.50627153 0.668346738,3.64660486 1.22834674,3.2239382 Z" id="路径_10-9" transform="translate(6.079673, 2.411969) rotate(180.000000) translate(-6.079673, -2.411969) "></path>
                                    </g>
                                    <g id="编组" transform="translate(8.160000, 3.500000) rotate(-180.000000) translate(-8.160000, -3.500000) translate(0.160000, 0.000000)" fill="#FFFBDD" stroke="#140900" stroke-width="2">
                                        <path d="M3.82604936,5.01939352 L3.86804936,4.98539352 C4.44904936,4.49239352 5.66304936,4.21039352 7.50704936,4.22539352 C9.97704936,4.22539352 11.3070494,4.74039352 11.7120494,5.65939352 C12.0879563,6.41526951 12.9451261,6.80074479 13.7600494,6.58039352 C14.7370494,6.35639352 15.0850494,5.71239352 15.1600494,4.66739352 C15.1600494,1.90639352 12.5750494,0.185393521 7.51104936,0.185393521 C3.29004936,0.185393521 0.477049358,2.11839352 1.07104936,4.13539352 C1.1902367,4.72360321 1.61799482,5.20148163 2.18946038,5.38484844 C2.76092593,5.56821524 3.38687133,5.42843988 3.82604936,5.01939352 Z" id="路径_11-9" transform="translate(8.076025, 3.413697) rotate(180.000000) translate(-8.076025, -3.413697) "></path>
                                    </g>
                                </g>
                                <g id="路径-8" transform="translate(73.000000, 24.000000)">
                                    <path d="M2.229,2.6 C3.89505573,3.32115539 5.70064859,3.66273557 7.515,3.6 C10.341,3.6 12.0366667,2.946 12.602,1.638 C12.7648454,1.27968622 13.1701474,1.10002957 13.545,1.22 C14.051,1.336 14.132,1.689 14.164,2.159 C14.164,3.79 12.801,5.641 7.515,5.641 C3.015,5.641 0.829,3.668 1.015,3.021 C1.26433333,2.31766667 1.669,2.17733333 2.229,2.6 Z" id="路径_12-4" fill="#000000" fill-rule="nonzero"></path>
                                    <path d="M2.229,2.6 C3.89505573,3.32115539 5.70064859,3.66273557 7.515,3.6 C10.341,3.6 12.0366667,2.946 12.602,1.638 C12.7648454,1.27968622 13.1701474,1.10002957 13.545,1.22 C14.051,1.336 14.132,1.689 14.164,2.159 C14.164,3.79 12.801,5.641 7.515,5.641 C3.015,5.641 0.829,3.668 1.015,3.021 C1.26433333,2.31766667 1.669,2.17733333 2.229,2.6 Z" id="路径_13-4" fill="#FFFBDD" fill-rule="nonzero"></path>
                                    <g id="编组" fill="#FFFBDD" stroke="#140900" stroke-width="2">
                                        <path d="M2.734,1.74 C4.24665082,2.36978704 5.87755082,2.66519791 7.515,2.606 C9.985,2.606 11.315,2.091 11.72,1.172 C12.095907,0.41612401 12.9530768,0.0306487347 13.768,0.251 C14.745,0.475 15.094,1.119 15.168,2.164 C15.168,4.925 12.583,6.646 7.519,6.646 C3.219,6.646 -0.505,4.677 0.079,2.696 C0.19031023,2.12863627 0.590973164,1.66118832 1.13463484,1.46440532 C1.67829652,1.26762231 2.28533061,1.37032569 2.734,1.735 L2.734,1.74 Z" id="路径_15-9"></path>
                                    </g>
                                    <path d="M2.229,2.6 C3.89505573,3.32115539 5.70064859,3.66273557 7.515,3.6 C10.341,3.6 12.0366667,2.946 12.602,1.638 C12.7648454,1.27968622 13.1701474,1.10002957 13.545,1.22 C14.051,1.336 14.132,1.689 14.164,2.159 C14.164,3.79 12.801,5.641 7.515,5.641 C3.015,5.641 0.829,3.668 1.015,3.021 C1.26433333,2.31766667 1.669,2.17733333 2.229,2.6 Z" id="路径_14-4" fill="#FFFBDD" fill-rule="nonzero"></path>
                                </g>
                            </g>
                        </g>
                    </g>
                </g>
            </g>
        </g>
        <g id="Symbols-5" mask="url(#mask-2)">
            <g transform="translate(151.337879, 373.636786) rotate(82.000000) translate(-151.337879, -373.636786) translate(113.837879, 322.636786)" id="凶手IP备份-5-5">
                <g>
                    <g id="凶手IP-5">
                        <g id="编组-2-5">
                            <g id="形状结合-5" transform="translate(3.615000, 0.000000)">
                                <ellipse id="椭圆_6" fill="#CC0909" fill-rule="nonzero" transform="translate(49.925924, 65.209455) rotate(-82.000000) translate(-49.925924, -65.209455) " cx="49.9259237" cy="65.2094549" rx="35.5" ry="8.5"></ellipse>
                                <ellipse id="椭圆_8" fill="#CC0909" fill-rule="nonzero" transform="translate(58.132606, 35.562270) rotate(-82.000000) translate(-58.132606, -35.562270) " cx="58.1326061" cy="35.5622696" rx="25" ry="8.5"></ellipse>
                                <ellipse id="椭圆_9" fill="#CC0909" fill-rule="nonzero" transform="translate(63.070402, 61.502006) rotate(-82.000000) translate(-63.070402, -61.502006) " cx="63.0704016" cy="61.5020059" rx="5" ry="2"></ellipse>
                                <path d="M32.313,0.808 C50.148,0.808 63.819,13.208 63.819,31.501 C63.8153033,42.4474764 59.0745451,52.8567225 50.819,60.045 C52.0088685,61.4583241 53.0858494,62.9629543 54.04,64.545 C57.267,69.845 58.687,74.901 57.211,75.845 C55.801,76.745 52.255,73.567 49.127,68.659 C49.2713268,71.8200121 49.1710279,74.987452 48.827,78.133 C47.963,86.562 45.86,93.244 44.127,93.058 C43.127,92.951 42.472,90.578 42.262,86.97 C35.7055983,88.3987241 28.9184017,88.3987241 22.362,86.97 C22.151,90.578 21.495,92.95 20.496,93.058 C18.766,93.245 16.662,86.558 15.796,78.133 C15.4522862,74.9880992 15.3519879,71.8213482 15.496,68.661 C12.368,73.568 8.824,76.749 7.414,75.846 C5.938,74.9 7.358,69.84 10.586,64.546 C11.5399063,62.9640387 12.616548,61.4594153 13.806,60.046 C5.55071925,52.8572846 0.810640883,42.4475649 0.808,31.501 C0.808,13.208 14.478,0.808 32.313,0.808 Z" id="路径_1-5" fill="#A0A0A0" fill-rule="nonzero"></path>
                                <path d="M32.313,0.808 C50.148,0.808 63.819,13.208 63.819,31.501 C63.8153033,42.4474764 59.0745451,52.8567225 50.819,60.045 C52.0088685,61.4583241 53.0858494,62.9629543 54.04,64.545 C57.267,69.845 58.687,74.901 57.211,75.845 C55.801,76.745 52.255,73.567 49.127,68.659 C49.2713268,71.8200121 49.1710279,74.987452 48.827,78.133 C47.963,86.562 45.86,93.244 44.127,93.058 C43.127,92.951 42.472,90.578 42.262,86.97 C35.7055983,88.3987241 28.9184017,88.3987241 22.362,86.97 C22.151,90.578 21.495,92.95 20.496,93.058 C18.766,93.245 16.662,86.558 15.796,78.133 C15.4522862,74.9880992 15.3519879,71.8213482 15.496,68.661 C12.368,73.568 8.824,76.749 7.414,75.846 C5.938,74.9 7.358,69.84 10.586,64.546 C11.5399063,62.9640387 12.616548,61.4594153 13.806,60.046 C5.55071925,52.8572846 0.810640883,42.4475649 0.808,31.501 C0.808,13.208 14.478,0.808 32.313,0.808 Z" id="路径_2-5"></path>
                                <path d="M51.943,60.139 C52.9542726,61.4019672 53.8822357,62.729442 54.721,64.113 C58.202,69.823 59.713,75.203 57.644,76.528 C55.95,77.613 52.953,75.328 49.996,71.317 C49.9869313,73.621811 49.8621074,75.924712 49.622,78.217 C48.695,87.259 46.532,94.127 44.055,93.86 C42.593,93.703 41.846,91.56 41.549,87.942 C35.4513948,89.1514528 29.1756052,89.1514528 23.078,87.942 C22.778,91.56 22.033,93.703 20.571,93.86 C18.095,94.127 15.932,87.26 15.004,78.217 C14.7639429,75.924708 14.6391191,73.6218095 14.63,71.317 C11.675,75.323 8.678,77.612 6.984,76.527 C4.915,75.202 6.426,69.822 9.907,64.112 C10.7455555,62.7285446 11.673179,61.4010776 12.684,60.138 C4.61493208,52.801856 0.0102788421,42.4054464 -3.21964677e-15,31.5 C-3.21964677e-15,13.07 13.71,0 32.313,0 C50.916,0 64.626,13.07 64.626,31.5 C64.6160101,42.4055881 60.011749,52.802295 51.943,60.139 Z" id="路径_3-5" stroke="#140900" stroke-width="2"></path>
                                <g id="路径_19" transform="translate(44.646117, 75.632473) rotate(-89.000000) translate(-44.646117, -75.632473) translate(36.146117, 74.132473)" fill-rule="nonzero">
                                    <path d="M9.96592331,2.293823 C6.92244291,2.293823 4.17032433,2.03542638 1.75881231,1.52448499 C3.56841063,0.884170294 4.70383263,0.50000298 6.44122362,0.50000298 C6.8894639,0.50000298 7.36883354,0.525152981 7.9067235,0.576883018 C8.73003387,0.655083001 9.9519434,0.857023001 11.4409637,1.16091299 C12.5615244,1.38962913 13.577919,1.77024043 14.347352,2.11364961 C13.2672453,2.20282197 11.7322769,2.293823 9.96592331,2.293823 Z" id="路径" fill="#FCFCFC"></path>
                                    <path d="M6.44121361,1.0000031 C5.43449593,1.0000031 4.65342426,1.13076854 3.78683662,1.37799811 C5.67370224,1.65441263 7.74012852,1.793823 9.96592331,1.793823 C10.6218843,1.793823 11.2454681,1.78115797 11.825201,1.76067424 C11.6664467,1.72110581 11.5047646,1.68424404 11.3409739,1.65081298 C9.86906433,1.35041308 8.6653738,1.1511929 7.85885334,1.07459307 C7.33703327,1.0244031 6.8733139,1.0000031 6.44121361,1.0000031 M6.44121552,4.76837158e-07 C6.89937973,4.76837158e-07 7.39678192,0.0255310535 7.95459366,0.0791831017 C8.7861042,0.158163071 9.99574375,0.355653048 11.5409431,0.671013117 C14.0799141,1.18923306 16.0700836,2.43944311 16.0700836,2.43944311 C16.0700836,2.43944311 13.4903488,2.79382372 9.96592522,2.79382372 C6.9898262,2.79382372 3.34027481,2.54124737 3.81469727e-06,1.60931301 C2.8447504,0.643124819 4.14366817,4.76837158e-07 6.44121552,4.76837158e-07 Z" id="形状" fill="#CC0909"></path>
                                </g>
                            </g>
                            <g id="面具备份-2-5" transform="translate(0.000000, 10.922000)">
                                <g id="椭圆形-9" transform="translate(10.885000, 0.000000)">
                                    <path d="M25.044,49.251 C38.414,49.251 50.088,34.721 50.088,19.035 C50.088,11.158 47.145,5.573 42.521,1.964 C37.936,-1.614 31.7,0.789 25.044,0.789 C18.388,0.789 12.151,-1.611 7.567,1.964 C2.943,5.577 0,11.159 0,19.035 C0,34.721 11.674,49.251 25.044,49.251 Z" id="路径_4-5" fill="#000000" fill-rule="nonzero"></path>
                                    <path d="M25.044,49.251 C38.414,49.251 50.088,34.721 50.088,19.035 C50.088,11.158 47.145,5.573 42.521,1.964 C37.936,-1.614 31.7,0.789 25.044,0.789 C18.388,0.789 12.151,-1.611 7.567,1.964 C2.943,5.577 0,11.159 0,19.035 C0,34.721 11.674,49.251 25.044,49.251 Z" id="路径_5-5" fill="#FFFFFF" fill-rule="nonzero"></path>
                                    <path d="M25.044,53.29 C38.414,53.29 50.088,38.76 50.088,23.074 C50.088,15.197 47.145,9.612 42.521,6.003 C37.936,2.425 31.7,4.828 25.044,4.828 C18.388,4.828 12.151,2.428 7.567,6.003 C2.943,9.616 0,15.198 0,23.074 C0,38.76 11.674,53.29 25.044,53.29 Z" id="路径_6-5" fill="#616161" fill-rule="nonzero" opacity="0.08"></path>
                                    <path d="M25.044,49.251 C38.414,49.251 50.088,34.721 50.088,19.035 C50.088,11.158 47.145,5.573 42.521,1.964 C37.936,-1.614 31.7,0.789 25.044,0.789 C18.388,0.789 12.151,-1.611 7.567,1.964 C2.943,5.577 0,11.159 0,19.035 C0,34.721 11.674,49.251 25.044,49.251 Z" id="路径_7-5" stroke="#140900" stroke-width="2" fill="#FFFFFF" fill-rule="nonzero"></path>
                                    <g id="椭圆_5" transform="translate(26.155951, 39.056880) rotate(-92.000000) translate(-26.155951, -39.056880) translate(23.155951, 33.556880)">
                                        <ellipse id="椭圆形" fill="#E89090" fill-rule="nonzero" cx="2.827" cy="5.25" rx="2.827" ry="5.25"></ellipse>
                                        <ellipse id="椭圆形" stroke="#140900" cx="2.827" cy="5.25" rx="2.327" ry="4.75"></ellipse>
                                    </g>
                                    <path d="M32.5801406,48.0946004 L32.5801406,48.0946004 C32.5801406,48.0946004 31.1549717,47.4945293 31.6160263,45.4362854 C32.077081,43.3780416 33.0892009,42.2359062 32.0230746,40.9787573 C30.9569483,39.7216084 30.4808919,39.6475996 30.2098597,38.4494576 C29.9388276,37.2513157 31.0839633,35.5931192 31.0839633,35.5931192 C31.0839633,35.5931192 30.701918,38.5304672 32.4031196,39.4795797 C34.1043212,40.4286921 35.6695066,41.448813 35.5244894,44.8562167 C35.3794722,48.2636204 35.968542,47.9345814 36.2525757,48.4636441" id="路径_18" fill="#E89090" fill-rule="nonzero" opacity="0.45" transform="translate(33.210466, 42.028382) rotate(125.024873) translate(-33.210466, -42.028382) "></path>
                                </g>
                                <path d="M23.706,19.153 L23.741,19.153 C23.9290931,19.1633277 24.1135971,19.0985895 24.254,18.973 L24.254,18.973 L26.732,16.094 C26.8120771,15.9955972 26.930272,15.9359543 27.057,15.93 C27.1596957,15.9303886 27.2579799,15.9717903 27.33,16.045 C27.8843695,16.4470307 28.3999455,16.900001 28.87,17.398 L28.87,17.398 L29.126,17.627 L29.331,17.872 C29.4411268,17.9687303 29.5236021,18.0929608 29.57,18.232 L29.57,18.232 L29.587,18.281 C29.6364456,18.4603987 29.7611873,18.6095781 29.929,18.69 C30.0453025,18.7509694 30.1737754,18.7851378 30.305,18.79 C30.363329,18.7876086 30.4209698,18.776485 30.476,18.757 C30.6597181,18.707428 30.818156,18.5907406 30.92,18.43 C30.9746083,18.3295754 31.0037916,18.2173053 31.005,18.103 C31.0015971,18.0352254 30.9901843,17.9680918 30.971,17.903 C30.8898417,17.6590699 30.7747094,17.4277955 30.629,17.216 L30.629,17.216 L30.578,17.151 L29.978,16.48 C29.4678464,15.9712203 28.9253854,15.4958989 28.354,15.057 L28.354,15.057 L28.337,15.041 C28.2118285,14.9345521 28.1373886,14.7802255 28.132,14.616 C28.1356598,14.4969055 28.1777564,14.3821921 28.252,14.289 L28.252,14.289 L29.431,12.849 C29.5676667,12.6963333 29.7273333,12.4946667 29.91,12.244 L29.91,12.244 L30.047,12.064 C30.1069852,11.9412636 30.1410268,11.8074799 30.147,11.671 C30.1490312,11.6214134 30.1432952,11.5718142 30.13,11.524 C30.0788121,11.34552 29.9546,11.196974 29.788,11.115 C29.6716975,11.0540306 29.5432246,11.0198622 29.412,11.015 C29.3536727,11.0174064 29.2960342,11.0285296 29.241,11.048 C29.0016667,11.1353333 28.8593333,11.239 28.814,11.359 L28.814,11.359 L28.643,11.588 L27.07,13.488 C26.984585,13.611774 26.8443763,13.6863531 26.694,13.688 C26.5792917,13.6807891 26.4679206,13.6465211 26.369,13.588 L26.369,13.588 L24.07,11.967 L23.933,11.902 C23.8111893,11.8395307 23.6768541,11.8053487 23.54,11.802 C23.4825356,11.7994517 23.4249942,11.8048357 23.369,11.818 C23.1734321,11.8300768 23.0046374,11.9593411 22.942,12.145 C22.8934651,12.2586398 22.8702607,12.3814862 22.874,12.505 C22.8714092,12.5602099 22.87714,12.6154954 22.891,12.669 C22.913824,12.8503255 23.0310356,13.0059734 23.199,13.078 L23.199,13.078 L23.404,13.225 L25.421,14.599 C25.5413675,14.6792503 25.6267872,14.8021974 25.66,14.943 C25.6738756,15.0925322 25.6241458,15.2409957 25.523,15.352 C25.3863333,15.5153333 25.3123333,15.6026667 25.301,15.614 L25.301,15.614 L23.216,17.97 C23.0969146,18.106088 23.0302565,18.2801791 23.028,18.461 C23.0244662,18.6476647 23.0916203,18.8287667 23.216,18.968 C23.3671256,19.0863982 23.5540272,19.1498742 23.746,19.148 L23.706,19.153 Z" id="凶-2" fill="#140900" fill-rule="nonzero"></path>
                                <path d="M41.803,16.388 L41.838,16.388 C42.0260931,16.3983277 42.2105971,16.3335895 42.351,16.208 L42.351,16.208 L44.829,13.329 C44.9090771,13.2305972 45.027272,13.1709543 45.154,13.165 C45.2566957,13.1653886 45.3549799,13.2067903 45.427,13.28 C45.9813695,13.6820307 46.4969455,14.135001 46.967,14.633 L46.967,14.633 L47.223,14.862 L47.428,15.107 C47.5381268,15.2037303 47.6206021,15.3279608 47.667,15.467 L47.667,15.467 L47.684,15.516 C47.7334456,15.6953987 47.8581873,15.8445781 48.026,15.925 C48.1423025,15.9859694 48.2707754,16.0201378 48.402,16.025 C48.460329,16.0226086 48.5179698,16.011485 48.573,15.992 C48.7567181,15.942428 48.915156,15.8257406 49.017,15.665 C49.0716083,15.5645754 49.1007916,15.4523053 49.102,15.338 C49.0985971,15.2702254 49.0871843,15.2030918 49.068,15.138 C48.9868417,14.8940699 48.8717094,14.6627955 48.726,14.451 L48.726,14.451 L48.675,14.386 L48.075,13.715 C47.5648464,13.2062203 47.0223854,12.7308989 46.451,12.292 L46.451,12.292 L46.434,12.276 C46.3088285,12.1695521 46.2343886,12.0152255 46.229,11.851 C46.2326598,11.7319055 46.2747564,11.6171921 46.349,11.524 L46.349,11.524 L47.528,10.084 C47.6646667,9.93133333 47.8243333,9.72966667 48.007,9.479 L48.007,9.479 L48.144,9.299 C48.2039852,9.1762636 48.2380268,9.04247992 48.244,8.906 C48.2460312,8.8564134 48.2402952,8.80681417 48.227,8.759 C48.1758121,8.58052001 48.0516,8.431974 47.885,8.35 C47.7686975,8.28903059 47.6402246,8.25486225 47.509,8.25 C47.4506727,8.25240638 47.3930342,8.26352961 47.338,8.283 C47.0986667,8.37033333 46.9563333,8.474 46.911,8.594 L46.911,8.594 L46.74,8.823 L45.167,10.723 C45.081585,10.846774 44.9413763,10.9213531 44.791,10.923 C44.6762917,10.9157891 44.5649206,10.8815211 44.466,10.823 L44.466,10.823 L42.167,9.202 L42.03,9.137 C41.9081893,9.07453067 41.7738541,9.0403487 41.637,9.037 C41.5795356,9.03445172 41.5219942,9.03983571 41.466,9.053 C41.2704321,9.06507678 41.1016374,9.19434115 41.039,9.38 C40.9904651,9.49363977 40.9672607,9.61648622 40.971,9.74 C40.9684092,9.79520989 40.97414,9.85049537 40.988,9.904 C41.010824,10.0853255 41.1280356,10.2409734 41.296,10.313 L41.296,10.313 L41.501,10.46 L43.518,11.834 C43.6383675,11.9142503 43.7237872,12.0371974 43.757,12.178 C43.7708756,12.3275322 43.7211458,12.4759957 43.62,12.587 C43.4833333,12.7503333 43.4093333,12.8376667 43.398,12.849 L43.398,12.849 L41.313,15.205 C41.1939146,15.341088 41.1272565,15.5151791 41.125,15.696 C41.1214662,15.8826647 41.1886203,16.0637667 41.313,16.203 C41.4641256,16.3213982 41.6510272,16.3848742 41.843,16.383 L41.803,16.388 Z" id="凶-3" fill="#140900" fill-rule="nonzero"></path>
                                <g id="路径-9" transform="translate(7.944000, 21.828000) rotate(180.000000) translate(-7.944000, -21.828000) translate(0.444000, 17.328000)">
                                    <path d="M3.804,5.262 C4.83363185,4.60952288 6.05405542,4.32539192 7.266,4.456 C9.54866667,4.456 10.9183333,4.98433333 11.375,6.041 C11.5064878,6.33064744 11.834035,6.47593739 12.137,6.379 C12.546,6.285 12.611,6.001 12.637,5.621 C12.636,4.308 11.535,2.808 7.266,2.808 C3.633,2.808 2.673,4.402 2.826,4.924 C3.02533333,5.49333333 3.35133333,5.606 3.804,5.262 Z" id="路径_8-5" fill="#000000" fill-rule="nonzero"></path>
                                    <path d="M3.804,5.262 C4.83363185,4.60952288 6.05405542,4.32539192 7.266,4.456 C9.54866667,4.456 10.9183333,4.98433333 11.375,6.041 C11.5064878,6.33064744 11.834035,6.47593739 12.137,6.379 C12.546,6.285 12.611,6.001 12.637,5.621 C12.636,4.308 11.535,2.808 7.266,2.808 C3.633,2.808 2.673,4.402 2.826,4.924 C3.02533333,5.49333333 3.35133333,5.606 3.804,5.262 Z" id="路径_9-5" fill="#FFFBDD" fill-rule="nonzero"></path>
                                    <g id="编组" transform="translate(7.845000, 3.930000) rotate(98.049062) translate(-7.845000, -3.930000) translate(4.845450, -1.569175)" fill="#FFFBDD" fill-rule="nonzero">
                                        <path d="M-0.550559808,6.24698293 C0.478917584,5.5946037 1.69915808,5.31051535 2.91092085,5.44110384 C5.19324509,5.44110384 6.5627063,5.96935792 7.01930446,7.02586607 C7.15077252,7.31547007 7.47827055,7.46073822 7.78119015,7.36381537 C8.19012879,7.26982947 8.25511904,6.98587208 8.28111514,6.60592908 C8.28011529,5.29312604 7.17928045,3.79335106 2.91092085,3.79335106 C-0.721534156,3.79335106 -1.68139015,5.38711194 -1.5284131,5.90903364 C-1.32910967,6.47828156 -1.00315857,6.59093133 -0.550559808,6.24698293 Z" id="路径_10-10" transform="translate(3.368702, 5.593546) rotate(-98.000000) translate(-3.368702, -5.593546) "></path>
                                    </g>
                                    <g id="编组" transform="translate(7.775000, 4.425000) rotate(98.049062) translate(-7.775000, -4.425000) translate(4.275525, -2.074025)" fill="#FFFBDD" stroke="#140900" stroke-width="1.99969998">
                                        <path d="M-0.0550207739,7.88562489 L-0.0210258743,7.85862894 C0.867644605,7.34502595 1.89756746,7.12986003 2.91753324,7.24472105 C4.91723322,7.24472105 5.99007226,7.66065864 6.3170232,8.40254734 C6.62042196,9.01307247 7.31267231,9.32445957 7.97077509,9.14643573 C8.75965673,8.96546288 9.04161442,8.44654074 9.09760602,7.60066765 C9.09560632,5.37100217 7.00791955,3.98121069 2.91753324,3.98121069 C-0.490955369,3.98121069 -2.76261454,5.54197652 -2.28268655,7.171732 C-2.18712916,7.64793808 -1.84115581,8.03504063 -1.37862714,8.18326571 C-0.91609847,8.33149079 -0.409569223,8.217587 -0.0550207739,7.88562489 Z" id="路径_11-10" transform="translate(3.375512, 6.588712) rotate(-98.000000) translate(-3.375512, -6.588712) "></path>
                                    </g>
                                </g>
                                <g id="路径-10" transform="translate(55.753000, 17.119000)">
                                    <path d="M3.788,3.947 C5.13365341,4.52881677 6.59184479,4.80412768 8.057,4.753 C10.3396667,4.753 11.7093333,4.22466667 12.166,3.168 C12.2974878,2.87835256 12.625035,2.73306261 12.928,2.83 C13.337,2.924 13.402,3.208 13.428,3.588 C13.428,4.906 12.328,6.401 8.057,6.401 C4.424,6.401 2.657,4.807 2.81,4.285 C3.00933333,3.71633333 3.33533333,3.60366667 3.788,3.947 Z" id="路径_12-5" fill="#000000" fill-rule="nonzero"></path>
                                    <path d="M3.788,3.947 C5.13365341,4.52881677 6.59184479,4.80412768 8.057,4.753 C10.3396667,4.753 11.7093333,4.22466667 12.166,3.168 C12.2974878,2.87835256 12.625035,2.73306261 12.928,2.83 C13.337,2.924 13.402,3.208 13.428,3.588 C13.428,4.906 12.328,6.401 8.057,6.401 C4.424,6.401 2.657,4.807 2.81,4.285 C3.00933333,3.71633333 3.33533333,3.60366667 3.788,3.947 Z" id="路径_13-5" fill="#FFFBDD" fill-rule="nonzero"></path>
                                    <g id="编组" transform="translate(7.910000, 5.130000) rotate(-81.950938) translate(-7.910000, -5.130000) translate(3.910600, -1.868950)" fill="#FFFBDD" stroke="#140900" stroke-width="1.99969998">
                                        <path d="M0.266161999,5.84339586 C1.48751209,6.35210998 2.8043788,6.59085815 4.12658281,6.54329086 C6.12628278,6.54329086 7.19912182,6.12735326 7.52607277,5.38546457 C7.82947153,4.77493943 8.52172188,4.46355234 9.17982465,4.64157618 C9.96870629,4.82254902 10.250664,5.34147117 10.3066556,6.18734426 C10.3066556,8.41700973 8.21896881,9.80680122 4.12958236,9.80680122 C0.656103495,9.80680122 -2.35044542,8.21703974 -1.87851623,6.6162799 C-1.78881312,6.15706433 -1.46437291,5.77878131 -1.02418358,5.6201656 C-0.583994246,5.46154989 -0.0928352535,5.54594381 0.269161549,5.84239601 L0.266161999,5.84339586 Z" id="路径_15-10" transform="translate(4.189567, 7.199300) rotate(82.000000) translate(-4.189567, -7.199300) "></path>
                                    </g>
                                    <path d="M3.788,3.947 C5.13365341,4.52881677 6.59184479,4.80412768 8.057,4.753 C10.3396667,4.753 11.7093333,4.22466667 12.166,3.168 C12.2974878,2.87835256 12.625035,2.73306261 12.928,2.83 C13.337,2.924 13.402,3.208 13.428,3.588 C13.428,4.906 12.328,6.401 8.057,6.401 C4.424,6.401 2.657,4.807 2.81,4.285 C3.00933333,3.71633333 3.33533333,3.60366667 3.788,3.947 Z" id="路径_14-5" fill="#FFFBDD" fill-rule="nonzero"></path>
                                </g>
                            </g>
                        </g>
                    </g>
                </g>
            </g>
        </g>
        <g id="编组" mask="url(#mask-2)">
            <g transform="translate(336.000000, 308.000000)" id="路径-2">
                <g transform="translate(0.870674, 0.882308)">
                    <mask id="mask-9" fill="white">
                        <use xlink:href="#path-8"></use>
                    </mask>
                    <use id="蒙版" fill="#3E464B" fill-rule="nonzero" transform="translate(15.899818, 16.624500) rotate(41.000000) translate(-15.899818, -16.624500) " xlink:href="#path-8"></use>
                </g>
            </g>
        </g>
        <g id="蒙版组_2-Clipped" mask="url(#mask-2)">
            <g transform="translate(194.000000, -73.000000)">
                <mask id="mask-11" fill="white">
                    <use xlink:href="#path-10"></use>
                </mask>
                <g id="矩形_6" stroke="none" fill="none"></g>
            </g>
        </g>
        <polygon id="路径_26" fill="url(#linearGradient-12)" fill-rule="nonzero" filter="url(#filter-13)" mask="url(#mask-2)" points="322.479 -91 454.965 -91 563.009 336.406 223 336.406"></polygon>
    </g>
</svg>