<?xml version="1.0" encoding="UTF-8"?>
<svg width="12px" height="12px" viewBox="0 0 12 12" version="1.1" xmlns="http://www.w3.org/2000/svg" xmlns:xlink="http://www.w3.org/1999/xlink">
    <!-- Generator: Sketch 61.2 (89653) - https://sketch.com -->
    <title>形状结合@2x</title>
    <desc>Created with Sketch.</desc>
    <g id="谁是凶手" stroke="none" stroke-width="1" fill="none" fill-rule="evenodd">
        <g id="萌新引导页面6" transform="translate(-20.000000, -738.000000)" fill="#7A7A7A" fill-rule="nonzero">
            <g id="引导" transform="translate(0.000000, 507.000000)">
                <path d="M26,231 C29.3136364,231 32,233.686364 32,237 C32,240.313636 29.3136364,243 26,243 C22.6863636,243 20,240.313636 20,237 C20,233.686364 22.6863636,231 26,231 Z M26,232.090909 C23.288784,232.090909 21.0909091,234.288784 21.0909091,237 C21.0909091,239.711216 23.288784,241.909091 26,241.909091 C28.711216,241.909091 30.9090909,239.711216 30.9090909,237 C30.9090909,234.288784 28.711216,232.090909 26,232.090909 Z M26,236.5 C26.2761424,236.5 26.5,236.723858 26.5,237 L26.5,240.5 C26.5,240.776142 26.2761424,241 26,241 C25.7238576,241 25.5,240.776142 25.5,240.5 L25.5,237 C25.5,236.723858 25.7238576,236.5 26,236.5 Z M26,233.999455 C26.45202,233.999605 26.8183324,234.366162 26.8181819,234.818182 C26.8180844,235.110587 26.6619978,235.380729 26.4087184,235.526848 C26.1554389,235.672966 25.8434458,235.672862 25.5902638,235.526575 C25.3370818,235.380288 25.1811753,235.110042 25.1812727,234.817636 C25.1814234,234.365616 25.5479801,233.999304 26,233.999455 Z" id="形状结合"></path>
            </g>
        </g>
    </g>
</svg>