<?xml version="1.0" encoding="UTF-8"?>
<svg width="32px" height="32px" viewBox="0 0 32 32" version="1.1" xmlns="http://www.w3.org/2000/svg" xmlns:xlink="http://www.w3.org/1999/xlink">
    <!-- Generator: Sketch 61.2 (89653) - https://sketch.com -->
    <title>声音@2x</title>
    <desc>Created with Sketch.</desc>
    <g id="声音" stroke="none" stroke-width="1" fill="none" fill-rule="evenodd">
        <path d="M18,8 L18,24 L17,24 C14.0393493,24 11.4543312,22.3917256 10.0709285,20.0011597 L8,20 C6.8954305,20 6,19.1045695 6,18 L6,14 C6,12.8954305 6.8954305,12 8,12 L10.0703501,11.99984 C11.4536106,9.60872276 14.0389366,8 17,8 L18,8 Z" id="形状结合" stroke="#FFFFFF" stroke-width="2" stroke-linejoin="round"></path>
        <path d="M22.2064208,19 C22.5112401,18.8942135 22.7940168,18.7339233 23.0452733,18.5295401 C23.7497395,17.9564958 24.2064208,17.0368294 24.2064208,16 C24.2064208,14.9631706 23.7497395,14.0435042 23.0452733,13.4704599 C22.7940168,13.2660767 22.5112401,13.1057865 22.2064208,13" id="路径" stroke="#FFFFFF" stroke-width="2" stroke-linecap="round"></path>
        <path d="M24.5,22 C24.8428295,21.8271062 25.1688082,21.6255977 25.4748103,21.3986056 C27.1235112,20.1756006 28.1923077,18.2128263 28.1923077,16 C28.1923077,13.7871737 27.1235112,11.8243994 25.4748103,10.6013944 C25.1688082,10.3744023 24.8428295,10.1728938 24.5,10" id="路径" stroke="#FFFFFF" stroke-width="2" stroke-linecap="round"></path>
    </g>
</svg>