<?xml version="1.0" encoding="UTF-8"?>
<svg width="32px" height="32px" viewBox="0 0 32 32" version="1.1" xmlns="http://www.w3.org/2000/svg" xmlns:xlink="http://www.w3.org/1999/xlink">
    <!-- Generator: Sketch 61.2 (89653) - https://sketch.com -->
    <title>声音备份@2x</title>
    <desc>Created with Sketch.</desc>
    <g id="声音备份" stroke="none" stroke-width="1" fill="none" fill-rule="evenodd">
        <g id="编组" transform="translate(6.000000, 8.000000)" stroke="#7A7A7A" stroke-width="2">
            <path d="M12,0 L12,16 L11,16 C8.0393493,16 5.45433121,14.3917256 4.07092854,12.0011597 L2,12 C0.8954305,12 1.3527075e-16,11.1045695 0,10 L0,6 C-1.3527075e-16,4.8954305 0.8954305,4 2,4 L4.07035011,3.99984002 C5.45361056,1.60872276 8.03893661,5.4393852e-16 11,0 L12,0 Z" id="形状结合" stroke-linejoin="round"></path>
            <path d="M16.2064208,11 C16.5112401,10.8942135 16.7940168,10.7339233 17.0452733,10.5295401 C17.7497395,9.95649577 18.2064208,9.03682938 18.2064208,8 C18.2064208,6.96317062 17.7497395,6.04350423 17.0452733,5.47045993 C16.7940168,5.26607666 16.5112401,5.10578647 16.2064208,5" id="路径" stroke-linecap="round"></path>
            <path d="M18.5,14 C18.8428295,13.8271062 19.1688082,13.6255977 19.4748103,13.3986056 C21.1235112,12.1756006 22.1923077,10.2128263 22.1923077,8 C22.1923077,5.78717365 21.1235112,3.8243994 19.4748103,2.6013944 C19.1688082,2.37440227 18.8428295,2.17289378 18.5,2" id="路径" stroke-linecap="round"></path>
        </g>
    </g>
</svg>