<svg xmlns="http://www.w3.org/2000/svg" width="40" height="40" viewBox="0 0 40 40"><title>icon/btn/聊天@2x</title><path fill="#FFA125" fill-rule="nonzero" d="M30.25 5C32.872 5 35 7.127 35 9.75v23.28c0 .786-.638 1.425-1.425 1.425-.874 0-1.674-.493-2.067-1.273l-1.276-2.529-19.936.001c-2.624 0-4.75-2.127-4.75-4.75V9.75C5.545 7.127 7.671 5 10.295 5H30.25zM15.363 15.31c-1.356 0-2.455 1.098-2.455 2.454 0 1.355 1.099 2.454 2.455 2.454 1.355 0 2.454-1.099 2.454-2.454 0-1.356-1.099-2.455-2.454-2.455zm9.818 0c-1.356 0-2.455 1.098-2.455 2.454 0 1.355 1.1 2.454 2.455 2.454s2.454-1.099 2.454-2.454c0-1.356-1.099-2.455-2.454-2.455z"/></svg>