<svg xmlns="http://www.w3.org/2000/svg" width="24" height="24" viewBox="0 0 24 24"><title>ic_profile_comment</title><g fill="none" fill-rule="evenodd"><path fill="#60C8FF" d="M14.44 20.993h4.08l2.71-9.15-1.03-2.776-3.117-.885-.09 1.64a14.48 14.48 0 0 1-6.305 11.17h3.753z"/><path stroke="#313131" stroke-linejoin="round" stroke-width="2.4" d="M12.678 1.8c.734 0 1.404.245 1.953.704a3.217 3.217 0 0 1 1.065 1.752 8.978 8.978 0 0 1 .102 3.156h0l2.58.092a3.168 3.168 0 0 1 2.55 1.506c.244.409.409.905.46 1.43.043.468-.039.894-.137 1.307l-.404 1.868h0l-.567 2.652c-.175.8-.226 1.037-.274 1.277-.092.457-.198.878-.412 1.257a3.251 3.251 0 0 1-.997 1.069c-.53.335-1.051.496-1.575.515h0-9.569l-4.007.02L2.737 9.06l4.089-.82c.856-.12 1.529-.485 2.01-1.039.471-.544.758-1.258.785-2.041-.018-1.103.323-1.84.86-2.405a3.016 3.016 0 0 1 2.197-.954z"/><path stroke="#313131" stroke-linecap="round" stroke-linejoin="round" stroke-width="2.4" d="M7.6 20.25V11.1"/></g></svg>