<svg xmlns="http://www.w3.org/2000/svg" width="24" height="24" viewBox="0 0 24 24"><title>ic_titlebar_supercharge</title><g fill="none" fill-rule="evenodd"><path stroke="#202020" stroke-linecap="round" stroke-linejoin="round" stroke-width="2" d="M2.1 12.4L12 2.5l9.9 9.9"/><path fill="#202020" d="M11.535 15.745l-.417.219a.492.492 0 0 1-.713-.519l.08-.463a1 1 0 0 0-.288-.885l-.337-.329a.492.492 0 0 1 .273-.838l.465-.068a1 1 0 0 0 .753-.547l.208-.422a.492.492 0 0 1 .882 0l.208.422a1 1 0 0 0 .753.547l.465.068a.492.492 0 0 1 .273.838l-.337.329a1 1 0 0 0-.288.885l.08.463a.492.492 0 0 1-.713.519l-.417-.22a1 1 0 0 0-.93 0z"/><path stroke="#202020" stroke-linecap="round" stroke-linejoin="round" stroke-width="2" d="M19.5 15v4a2 2 0 0 1-2 2h-11a2 2 0 0 1-2-2v-4h0"/></g></svg>