<svg xmlns="http://www.w3.org/2000/svg" width="16" height="16" viewBox="0 0 16 16"><title>ic_trend_sayhi_small</title><g fill="none" fill-rule="evenodd"><path fill="#2ECEFE" fill-rule="nonzero" d="M7.78 1.4C4.254 1.4 1.4 4.309 1.4 7.89l.004.236c.115 3.272 2.617 5.948 5.816 6.231l.108.008.043.01.048.005 5.397.002.151-.008c.838-.096 1.449-.778 1.449-1.592l-.008-.154a1.6 1.6 0 0 0-.173-.585l-.7-1.347.13-.29a6.57 6.57 0 0 0 .496-2.515c0-3.582-2.854-6.491-6.38-6.491zm0 1.2c2.859 0 5.18 2.366 5.18 5.29 0 .897-.217 1.76-.628 2.53a.6.6 0 0 0-.003.558l.842 1.619a.4.4 0 0 1-.308.582l-.082.004-5.215-.002-.054-.006C4.77 13.032 2.6 10.713 2.6 7.89 2.6 4.966 4.922 2.6 7.78 2.6z"/><circle cx="5.436" cy="6.745" r="1" fill="#2DC6FF"/><circle cx="8.709" cy="6.745" r="1" fill="#2DC6FF"/></g></svg>