<svg xmlns="http://www.w3.org/2000/svg" width="24" height="24" viewBox="0 0 24 24"><title>ic_profile_question</title><g fill="none" fill-rule="evenodd"><path fill="#60C8FF" fill-rule="nonzero" d="M20.691 8.92h-5a3 3 0 0 1-3-3v-5l8 8z"/><path stroke="#313131" stroke-linejoin="round" stroke-width="2.4" d="M15.062 1.8L19.7 7.244v10.727c0 .883-.346 1.682-.898 2.262-.573.6-1.365.967-2.236.967h0-9.132c-.87 0-1.663-.366-2.236-.967A3.272 3.272 0 0 1 4.3 17.97h0V5.03c0-.883.346-1.682.898-2.262A3.078 3.078 0 0 1 7.434 1.8h7.628z"/><path stroke="#313131" stroke-linecap="round" stroke-linejoin="round" stroke-width="2.4" d="M9 12.5h6M9 16.5h4"/></g></svg>