<?xml version="1.0" encoding="UTF-8"?>
<svg width="24px" height="24px" viewBox="0 0 24 24" version="1.1" xmlns="http://www.w3.org/2000/svg" xmlns:xlink="http://www.w3.org/1999/xlink">
    <title>ic_groupchat</title>
    <g id="ic_groupchat" stroke="none" stroke-width="1" fill="none" fill-rule="evenodd">
        <path d="M12,2 C6.4771525,2 2,6.4771525 2,12 C2,17.5228475 6.4771525,22 12,22 L19.3237052,22 C20.2073611,22 20.9237062,21.2836565 20.9237062,20.4 C20.9237062,19.9317985 20.718842,19.4899031 20.3679056,19.1876928 L20.2320361,19.0825225 C19.8565744,18.8065448 19.7759267,18.2784489 20.0519044,17.9029873 L20.2750229,17.5877677 C21.4259423,15.894325 22,14.0283878 22,12 C22,6.4771525 17.5228475,2 12,2 Z M12,4 C16.418278,4 20,7.581722 20,12 C20,13.6274862 19.5464239,15.1018057 18.6314336,16.4483532 L18.4296803,16.7333494 L18.3250527,16.8858735 C17.7314437,17.8152028 17.751286,18.9903335 18.3108226,19.8965325 L18.38,20 L12,20 C7.581722,20 4,16.418278 4,12 C4,7.581722 7.581722,4 12,4 Z" id="face" fill="#313131" fill-rule="nonzero" transform="translate(12.000000, 12.000000) scale(-1, 1) translate(-12.000000, -12.000000) "></path>
        <path d="M12,6 C10.0670034,6 8.5,7.56700338 8.5,9.5 C8.5,11.4329966 10.0670034,13 12,13 C12.5127021,13 13.0116535,12.8890452 13.4683883,12.6777428 C14.1032036,12.3840536 14.6365288,11.9054386 14.9976775,11.3073553 C15.3244644,10.7661772 15.5,10.1447513 15.5,9.5 C15.5,7.56700338 13.9329966,6 12,6 Z M12,8 C12.8284271,8 13.5,8.67157288 13.5,9.5 C13.5,9.7777698 13.4253212,10.0421457 13.2856016,10.2735294 C13.1304123,10.5305319 12.9006231,10.7367486 12.6286282,10.8625836 C12.4337774,10.9527288 12.2212038,11 12,11 C11.1715729,11 10.5,10.3284271 10.5,9.5 C10.5,8.67157288 11.1715729,8 12,8 Z" id="head" fill="#313131" fill-rule="nonzero"></path>
        <path d="M11.9870866,14 C12.5845535,14 13.1705909,14.1001133 13.7286766,14.2943377 C14.186901,14.4538085 14.6226715,14.6755049 15.0265245,14.9529729 C15.496728,15.2760272 15.9198389,15.6720795 16.28217,16.1269349 C16.6262793,16.5589155 16.5550456,17.1880607 16.1230651,17.53217 C15.6910845,17.8762793 15.0619393,17.8050456 14.71783,17.3730651 C14.477784,17.0717213 14.1998358,16.8115483 13.8939683,16.6014014 C13.6358994,16.4240946 13.3597244,16.2835918 13.0713103,16.1832182 C12.723485,16.0621684 12.3595672,16 11.9870866,16 C10.9461804,16 9.97085442,16.4908464 9.27702567,17.3473188 C8.92937959,17.7764583 8.29967052,17.8425217 7.87053109,17.4948756 C7.44139166,17.1472295 7.37532825,16.5175205 7.72297433,16.088381 C8.78715734,14.7747379 10.3265838,14 11.9870866,14 Z" id="路径" fill="#313131" fill-rule="nonzero"></path>
    </g>
</svg>