<svg xmlns="http://www.w3.org/2000/svg" xmlns:xlink="http://www.w3.org/1999/xlink" width="24" height="24" viewBox="0 0 24 24"><title>ic_profile_god</title><defs><path id="a" d="M10.2.693l5.394 3.114a2.4 2.4 0 0 1 1.2 2.079v6.228a2.4 2.4 0 0 1-1.2 2.079L10.2 17.307a2.4 2.4 0 0 1-2.4 0l-5.394-3.114a2.4 2.4 0 0 1-1.2-2.079V5.886a2.4 2.4 0 0 1 1.2-2.079L7.8.693a2.4 2.4 0 0 1 2.4 0z"/></defs><g fill="none" fill-rule="evenodd" transform="translate(3 3)"><mask id="b" fill="#fff"><use xlink:href="#a"/></mask><path stroke="#313131" stroke-width="2.4" d="M7.2-.346a3.6 3.6 0 0 1 3.6 0h0l5.394 3.114a3.598 3.598 0 0 1 1.8 3.118h0v6.228a3.598 3.598 0 0 1-1.8 3.118h0L10.8 18.346a3.6 3.6 0 0 1-3.6 0h0l-5.394-3.114a3.6 3.6 0 0 1-1.8-3.118h0V5.886a3.598 3.598 0 0 1 1.8-3.118h0z"/><path fill="#60C8FF" d="M12.67 18.653L8.83 20.15a.8.8 0 0 1-1.089-.791l.237-4.114a.8.8 0 0 0-.18-.552l-2.609-3.19a.8.8 0 0 1 .416-1.28L9.59 9.177a.8.8 0 0 0 .47-.341l2.227-3.467a.8.8 0 0 1 1.346 0l2.227 3.467a.8.8 0 0 0 .47.341l3.985 1.047a.8.8 0 0 1 .416 1.28l-2.61 3.189a.8.8 0 0 0-.179.552l.237 4.114a.8.8 0 0 1-1.09.791l-3.839-1.496a.8.8 0 0 0-.58 0z" mask="url(#b)"/><path stroke="#313131" stroke-linecap="round" stroke-width="2.4" d="M13.988 7.367v3.266a2.16 2.16 0 0 1-1.08 1.87l-2.828 1.633a2.16 2.16 0 0 1-2.16 0l-2.828-1.632" mask="url(#b)"/></g></svg>