<svg xmlns="http://www.w3.org/2000/svg" width="24" height="24" viewBox="0 0 24 24"><title>ic_profile_invite</title><g fill="none" fill-rule="evenodd"><path fill="#60C8FF" d="M10.327 2c3.273 2.75 4.091 5.416 2.455 8l1.374 2.34c2.76 4.597 1.933 7.664-2.482 9.2.856.588 1.352.894 1.49.92.206.036 7.539-.92 7.539-.92v-2.943L17.614 12l-2.867-1.814 1.95-3.386-1.672-5.23-4.698.43z"/><g stroke="#313131" stroke-width="2.4" transform="translate(1.5 1)"><circle cx="10.84" cy="5.5" r="4.3"/><path d="M10.84 10.367c2.468 0 4.706.898 6.325 2.363 1.573 1.425 2.558 3.39 2.558 5.566 0 .632-.075 1.13-.253 1.515-.136.29-.338.492-.597.629-1.074.567-2.75.375-4.702.258-1.045-.063-2.165-.13-3.33-.13-1.167 0-2.287.067-3.332.13-1.951.117-3.627.309-4.702-.258a1.314 1.314 0 0 1-.596-.63c-.179-.384-.254-.882-.254-1.514 0-2.177.985-4.141 2.559-5.566 1.618-1.465 3.856-2.363 6.324-2.363z"/><path stroke-linecap="round" stroke-linejoin="round" d="M6.44 16.042c3.024 2.073 6.015 2.073 8.973 0"/></g></g></svg>