<?xml version="1.0" encoding="UTF-8"?>
<svg width="24px" height="24px" viewBox="0 0 24 24" version="1.1" xmlns="http://www.w3.org/2000/svg" xmlns:xlink="http://www.w3.org/1999/xlink">
    <title>背包</title>
    <defs>
        <path d="M7,0 C10.8659932,-7.10171439e-16 14,3.13400675 14,7 L14,13 C14,13.5522847 13.5522847,14 13,14 L1,14 C0.44771525,14 9.37667865e-16,13.5522847 0,13 L0,7 C-4.73447626e-16,3.13400675 3.13400675,7.10171439e-16 7,0 Z" id="path-1"></path>
    </defs>
    <g id="背包" stroke="none" stroke-width="1" fill="none" fill-rule="evenodd">
        <g id="矩形-2" transform="translate(5.000000, 6.000000)">
            <mask id="mask-2" fill="white">
                <use xlink:href="#path-1"></use>
            </mask>
            <path stroke="#313131" stroke-width="2.4" d="M7,-1.2 C9.26436747,-1.2 11.3143675,-0.282183737 12.7982756,1.20172439 C14.2821837,2.68563253 15.2,4.73563253 15.2,7 L15.2,7 L15.2,13 C15.2,13.6075132 14.9537566,14.1575132 14.5556349,14.5556349 C14.1575132,14.9537566 13.6075132,15.2 13,15.2 L13,15.2 L1,15.2 C0.392486775,15.2 -0.157513225,14.9537566 -0.555634919,14.5556349 C-0.953756612,14.1575132 -1.2,13.6075132 -1.2,13 L-1.2,13 L-1.2,7 C-1.2,4.73563253 -0.282183737,2.68563253 1.20172439,1.20172439 C2.68563253,-0.282183737 4.73563253,-1.2 7,-1.2 Z"></path>
            <circle id="椭圆形" fill="#51FCB6" mask="url(#mask-2)" cx="13" cy="15" r="10"></circle>
        </g>
        <path d="M16,12 L16,14 C16,14.8284271 15.6642136,15.5784271 15.1213203,16.1213203 C14.5784271,16.6642136 13.8284271,17 13,17 L13,17 L11,17 C10.1715729,17 9.42157288,16.6642136 8.87867966,16.1213203 C8.33578644,15.5784271 8,14.8284271 8,14 L8,14 L8,12 L16,12 Z" id="矩形" stroke="#313131" stroke-width="2" stroke-linejoin="round"></path>
        <path d="M9,4.97713588 C9,3.32028163 10.3431458,2 12,2 C13.6568542,2 15,3.32028163 15,4.97713588" id="形状" stroke="#313131" stroke-width="2" stroke-linecap="round" stroke-linejoin="round"></path>
        <rect id="矩形" fill="#313131" x="1.67928177" y="12" width="2" height="5" rx="1"></rect>
        <rect id="矩形备份" fill="#313131" x="20" y="12" width="2" height="5" rx="1"></rect>
    </g>
</svg>