<?xml version="1.0" encoding="UTF-8"?>
<svg width="32px" height="32px" viewBox="0 0 32 32" version="1.1" xmlns="http://www.w3.org/2000/svg" xmlns:xlink="http://www.w3.org/1999/xlink">
    <defs>
        <linearGradient x1="14.5969661%" y1="0%" x2="85.4030339%" y2="100%" id="linearGradient-1">
            <stop stop-color="#1DEAB5" offset="0%"></stop>
            <stop stop-color="#1EBDEF" offset="100%"></stop>
        </linearGradient>
        <path d="M14.3333333,0.333333333 C15.2538079,0.333333333 16,1.07952542 16,2 C16,2.92047458 15.2538079,3.66666667 14.3333333,3.66666667 L13.333,3.66633333 L13.3339463,4.74320199 C18.9620363,5.3933096 23.3524809,10.1066825 23.4963585,15.8743992 L23.5,16.1666667 C23.5,22.5179413 18.3512746,27.6666667 12,27.6666667 C5.64872538,27.6666667 0.5,22.5179413 0.5,16.1666667 C0.5,10.2665811 4.94318672,5.40425741 10.6660537,4.74320199 L10.666,3.66633333 L9.66666667,3.66666667 C8.74619208,3.66666667 8,2.92047458 8,2 C8,1.07952542 8.74619208,0.333333333 9.66666667,0.333333333 L14.3333333,0.333333333 Z" id="path-2"></path>
        <linearGradient x1="17.5842215%" y1="32.4157785%" x2="82.4157785%" y2="32.4157785%" id="linearGradient-4">
            <stop stop-color="#00C8E6" offset="0%"></stop>
            <stop stop-color="#B6ECFF" stop-opacity="0" offset="100%"></stop>
        </linearGradient>
        <linearGradient x1="17.5842215%" y1="32.4157785%" x2="82.4157785%" y2="32.4157785%" id="linearGradient-5">
            <stop stop-color="#33FFB1" offset="0%"></stop>
            <stop stop-color="#B6ECFF" stop-opacity="0" offset="100%"></stop>
        </linearGradient>
        <linearGradient x1="50%" y1="64.8315569%" x2="50%" y2="5.55111512e-15%" id="linearGradient-6">
            <stop stop-color="#00E6D4" offset="0%"></stop>
            <stop stop-color="#B6ECFF" stop-opacity="0" offset="100%"></stop>
        </linearGradient>
    </defs>
    <g id="ic_sidebar_clock32" stroke="none" stroke-width="1" fill="none" fill-rule="evenodd">
        <g id="ic_sidebar_clock" transform="translate(4.000000, 1.666667)">
            <mask id="mask-3" fill="white">
                <use xlink:href="#path-2"></use>
            </mask>
            <use id="形状结合" fill="url(#linearGradient-1)" fill-rule="nonzero" xlink:href="#path-2"></use>
            <path d="M19,13.8333333 L19,23.8333333 L3.42843753,23.8335335 C1.60734463,21.798943 0.5,19.1121219 0.5,16.1666667 C0.5,15.3666551 0.581690304,14.5857233 0.737184444,13.8317577 L19,13.8333333 Z" id="蒙版" fill="url(#linearGradient-4)" opacity="0.800000012" mask="url(#mask-3)"></path>
            <path d="M15.6213203,12.0049062 L15.6213203,16.0049062 L0.502320344,16.0039096 L0.50381383,15.8675721 C0.538530332,14.5077389 0.809297583,13.2065951 1.27666585,12.0035904 L15.6213203,12.0049062 Z" id="形状结合" fill="url(#linearGradient-5)" opacity="0.400000006" mask="url(#mask-3)"></path>
            <path d="M23.4963585,15.8743992 L23.5,16.1666667 C23.5,21.8357027 19.3979931,26.5466637 14.0001977,27.4933314 L14,11.3333333 L22.4380819,11.3334505 C23.0810374,12.7196798 23.4559747,14.2555077 23.4963585,15.8743992 Z" id="形状结合" fill="url(#linearGradient-6)" opacity="0.5" mask="url(#mask-3)"></path>
            <path d="M11.3333333,10.3333333 C12.069713,10.3333333 12.6666667,10.930287 12.6666667,11.6666667 L12.666,15.6663333 L16.6666667,15.6666667 C17.4030463,15.6666667 18,16.2636203 18,17 C18,17.7363797 17.4030463,18.3333333 16.6666667,18.3333333 L11.3515786,18.333211 C11.3455065,18.3332925 11.3394247,18.3333333 11.3333333,18.3333333 C10.5969537,18.3333333 10,17.7363797 10,17 L10,11.6666667 C10,10.930287 10.5969537,10.3333333 11.3333333,10.3333333 Z" id="3" fill="#ABFFBC" mask="url(#mask-3)"></path>
        </g>
    </g>
</svg>