<?xml version="1.0" encoding="UTF-8"?>
<svg width="24px" height="24px" viewBox="0 0 24 24" version="1.1" xmlns="http://www.w3.org/2000/svg" xmlns:xlink="http://www.w3.org/1999/xlink">
    <title>ic_createroom</title>
    <g id="ic_createroom" stroke="none" stroke-width="1" fill="none" fill-rule="evenodd">
        <path d="M14.0348403,2.21854117 C14.0936011,2.27278189 14.1501696,2.32935041 14.2044103,2.3881112 L20.9016367,9.64343979 C21.6508442,10.4550813 21.6002315,11.7203994 20.7885901,12.4696069 C20.5618855,12.6788727 20.2919187,12.8310316 20.0009751,12.9173704 L20.0009702,12.9239365 L15,12.9240548 C12.3112453,12.9240548 10.1181819,15.0463615 10.0046195,17.7071652 L10,17.9240548 L10,18 C10,19.6361819 10.785903,21.0888064 12.000811,22.0009752 L7,22 C5.34314575,22 4,20.6568542 4,19 L4.00022196,12.918269 C3.17219168,12.673578 2.56797016,11.9073507 2.56797016,11 C2.56797016,10.49722 2.75733757,10.0128843 3.09836327,9.64343979 L9.79558967,2.3881112 C10.9194009,1.17064899 12.8173781,1.0947299 14.0348403,2.21854117 Z" id="形状结合" fill="#313131"></path>
        <g id="编组" transform="translate(12.000000, 13.000000)" fill="#313131">
            <rect id="矩形" x="0" y="3" width="9" height="3" rx="1.5"></rect>
            <rect id="矩形" transform="translate(4.500000, 4.500000) rotate(-270.000000) translate(-4.500000, -4.500000) " x="2.84217094e-14" y="3" width="9" height="3" rx="1.5"></rect>
        </g>
    </g>
</svg>