<?xml version="1.0" encoding="UTF-8"?>
<svg width="24px" height="24px" viewBox="0 0 24 24" version="1.1" xmlns="http://www.w3.org/2000/svg" xmlns:xlink="http://www.w3.org/1999/xlink">
    <!-- Generator: Sketch 64 (93537) - https://sketch.com -->
    <title>消息备份</title>
    <desc>Created with Sketch.</desc>
    <g id="消息" stroke="none" stroke-width="1" fill="none" fill-rule="evenodd">
        <g transform="translate(-331.000000, -54.000000)" fill-rule="nonzero" id="编组-3">
            <g>
                <g id="标题" transform="translate(0.000000, 44.000000)">
                    <g id="icon-找队友" transform="translate(331.000000, 10.000000)">
                        <circle id="椭圆形" stroke="#000000" stroke-width="2" cx="12" cy="12" r="10"></circle>
                        <path d="M12,7 C12.5522847,7 13,7.44771525 13,8 L13,10.75 L16,10.75 C16.5522847,10.75 17,11.1977153 17,11.75 C17,12.3022847 16.5522847,12.75 16,12.75 L13,12.75 L13,16 C13,16.5522847 12.5522847,17 12,17 C11.4477153,17 11,16.5522847 11,16 L11,12.75 L8,12.75 C7.44771525,12.75 7,12.3022847 7,11.75 C7,11.1977153 7.44771525,10.75 8,10.75 L11,10.75 L11,8 C11,7.44771525 11.4477153,7 12,7 Z" id="形状结合" fill="#000000"></path>
                    </g>
                </g>
            </g>
        </g>
    </g>
</svg>