<svg xmlns="http://www.w3.org/2000/svg" width="48" height="48" viewBox="0 0 48 48"><title>ic_qq_hp</title><g fill="none" fill-rule="evenodd"><circle cx="24" cy="24" r="24" fill="#2DC6FF"/><path fill="#FFF" d="M33.31 26.899c-.213-.683-.502-1.478-.796-2.243l-1.07-2.67c.001-.032.014-.558.014-.829C31.458 16.59 29.302 12 24 12s-7.459 4.59-7.459 9.157c0 .271.014.797.014.828l-1.07 2.671c-.293.765-.582 1.56-.794 2.243-1.011 3.254-.684 4.601-.434 4.631.535.065 2.084-2.45 2.084-2.45 0 1.457.75 3.356 2.371 4.729-.607.187-1.35.474-1.828.827-.43.318-.376.64-.298.771.34.574 5.83.367 7.414.188 1.586.179 7.076.386 7.416-.188.077-.13.13-.453-.299-.77-.478-.354-1.222-.641-1.829-.829 1.622-1.372 2.371-3.271 2.371-4.727 0 0 1.55 2.514 2.084 2.45.25-.03.577-1.378-.434-4.632"/></g></svg>