<svg xmlns="http://www.w3.org/2000/svg" width="20" height="20" viewBox="0 0 20 20"><title>ic_filter</title><path fill="#A6A6A6" fill-rule="nonzero" d="M4.75 3.25a2.75 2.75 0 0 0-1.948 4.69l.138.13L6.6 11.27l-.001 5.173c0 .38.282.694.648.744l.102.006a.75.75 0 0 0 .743-.648l.007-.102v-5.513a.75.75 0 0 0-.18-.488l-.076-.076L3.927 6.94a1.25 1.25 0 0 1 .69-2.184l.134-.007h10.475a1.25 1.25 0 0 1 .928 2.087l-.093.093-3.834 3.443a.75.75 0 0 0-.242.453l-.007.105v3.437a.75.75 0 0 0 1.493.102l.007-.102v-3.104l3.585-3.218a2.75 2.75 0 0 0 .906-1.852L17.976 6a2.75 2.75 0 0 0-2.583-2.745l-.167-.005H4.75z"/></svg>