<svg xmlns="http://www.w3.org/2000/svg" xmlns:xlink="http://www.w3.org/1999/xlink" width="48" height="48" viewBox="0 0 48 48"><title>ic_tab_chat_selected</title><defs><path id="b" d="M41.043 41.577c.354.25.565.656.565 1.09 0 .736-.597 1.333-1.333 1.333H24C12.954 44 4 35.046 4 24S12.954 4 24 4s20 8.954 20 20c0 4.835-1.618 9.173-4.853 13.014-.625.743-.627 1.828-.004 2.572.888 1.06 1.52 1.723 1.9 1.99z"/><filter id="a" width="125%" height="125%" x="-12.5%" y="-10%" filterUnits="objectBoundingBox"><feOffset dy="1" in="SourceAlpha" result="shadowOffsetOuter1"/><feGaussianBlur in="shadowOffsetOuter1" result="shadowBlurOuter1" stdDeviation="1.5"/><feColorMatrix in="shadowBlurOuter1" values="0 0 0 0 1 0 0 0 0 0.290196078 0 0 0 0 0.509803922 0 0 0 0.2 0"/></filter></defs><g fill="none" fill-rule="evenodd" transform="matrix(-1 0 0 1 48 0)"><use fill="#000" filter="url(#a)" xlink:href="#b"/><use fill="#FF4A82" xlink:href="#b"/><circle cx="31.5" cy="20.5" r="3.5" fill="#FFF"/><circle cx="16.5" cy="20.5" r="3.5" fill="#FFF"/><circle cx="13.3" cy="25.5" r="3.5" fill="#FFF" opacity=".2"/><circle cx="34.7" cy="25.5" r="3.5" fill="#FFF" opacity=".2"/></g></svg>