<svg xmlns="http://www.w3.org/2000/svg" xmlns:xlink="http://www.w3.org/1999/xlink" width="48" height="48" viewBox="0 0 48 48"><title>ic_tab_discover_selected</title><defs><path id="b" d="M24 42C13.401 42 6.206 36.43 2.416 25.288c-.285-.835-.285-1.741 0-2.576C6.206 11.57 13.4 6 24 6s17.794 5.57 21.584 16.712c.285.835.285 1.741 0 2.576C41.794 36.43 34.6 42 24 42z"/><filter id="a" width="121.8%" height="127.8%" x="-10.9%" y="-11.1%" filterUnits="objectBoundingBox"><feOffset dy="1" in="SourceAlpha" result="shadowOffsetOuter1"/><feGaussianBlur in="shadowOffsetOuter1" result="shadowBlurOuter1" stdDeviation="1.5"/><feColorMatrix in="shadowBlurOuter1" values="0 0 0 0 0.552941176 0 0 0 0 0.380392157 0 0 0 0 0.968627451 0 0 0 0.2 0"/></filter><circle id="d" cx="24" cy="24" r="14"/><filter id="c" width="135.7%" height="135.7%" x="-17.9%" y="-14.3%" filterUnits="objectBoundingBox"><feOffset dy="1" in="SourceAlpha" result="shadowOffsetOuter1"/><feGaussianBlur in="shadowOffsetOuter1" result="shadowBlurOuter1" stdDeviation="1.5"/><feColorMatrix in="shadowBlurOuter1" values="0 0 0 0 0.152941176 0 0 0 0 0.709803922 0 0 0 0 1 0 0 0 0.2 0"/></filter><circle id="f" cx="24" cy="24" r="10"/><filter id="e" width="150%" height="150%" x="-25%" y="-20%" filterUnits="objectBoundingBox"><feOffset dy="1" in="SourceAlpha" result="shadowOffsetOuter1"/><feGaussianBlur in="shadowOffsetOuter1" result="shadowBlurOuter1" stdDeviation="1.5"/><feColorMatrix in="shadowBlurOuter1" values="0 0 0 0 0.152941176 0 0 0 0 0.709803922 0 0 0 0 1 0 0 0 0.2 0"/></filter></defs><g fill="none" fill-rule="evenodd"><use fill="#000" filter="url(#a)" xlink:href="#b"/><use fill="#8D61F7" xlink:href="#b"/><g opacity=".2"><use fill="#000" filter="url(#c)" xlink:href="#d"/><use fill="#FFF" xlink:href="#d"/></g><use fill="#000" filter="url(#e)" xlink:href="#f"/><use fill="#FFF" xlink:href="#f"/><path fill="#8D61F7" d="M24 18c.796 0 1.556.155 2.251.437C26.087 18.929 26 19.454 26 20c0 2.396 1.685 4.398 3.934 4.886C29.507 27.78 27.013 30 24 30c-3.314 0-6-2.686-6-6s2.686-6 6-6z"/></g></svg>