<?xml version="1.0" encoding="UTF-8"?>
<svg width="40px" height="40px" viewBox="0 0 40 40" version="1.1" xmlns="http://www.w3.org/2000/svg" xmlns:xlink="http://www.w3.org/1999/xlink">
    <title>ic_tabbar_message_default</title>
    <g id="ic_tabbar_message_default" stroke="none" stroke-width="1" fill="none" fill-rule="evenodd" opacity="0.400000006">
        <g id="编组-18" transform="translate(3.000000, 3.000000)">
            <g id="编组-23">
                <g id="编组-16备份-3">
                    <rect id="矩形" x="0" y="0" width="34" height="34"></rect>
                </g>
                <g id="编组-9" transform="translate(5.250000, 4.250000)">
                    <path d="M3,2 L14.420312,2 C16.629451,2 18.420312,3.790861 18.420312,6 L18.420312,16.041162 C18.420312,16.2378103 18.4782915,16.4300939 18.586999,16.5939635 L21.4398117,20.8943971 C22.0504193,21.8148493 21.7992407,23.0560184 20.8787885,23.666626 C20.5510494,23.8840409 20.1664822,24 19.7731857,24 L3,24 C0.790861001,24 -1,22.209139 -1,20 L-1,6 C-1,3.790861 0.790861001,2 3,2 Z" id="矩形" stroke="#313131" stroke-width="3" stroke-linejoin="round" transform="translate(11.250000, 13.000000) scale(-1, 1) rotate(-270.000000) translate(-11.250000, -13.000000) "></path>
                    <rect id="矩形" fill="#313131" transform="translate(9.250000, 7.750000) rotate(-90.000000) translate(-9.250000, -7.750000) " x="7.25" y="2.75" width="4" height="10" rx="2"></rect>
                </g>
            </g>
        </g>
    </g>
</svg>