<?xml version="1.0" encoding="UTF-8"?>
<svg width="32px" height="32px" viewBox="0 0 32 32" version="1.1" xmlns="http://www.w3.org/2000/svg" xmlns:xlink="http://www.w3.org/1999/xlink">
    <!-- Generator: Sketch 63.1 (92452) - https://sketch.com -->
    <title>ic_tabbar_hall_default</title>
    <desc>Created with Sketch.</desc>
    <g id="ic_tabbar_hall_default" stroke="none" stroke-width="1" fill="none" fill-rule="evenodd">
        <path d="M10.232233,4.29289322 L13.939,8 L18.06,8 L21.767767,4.29289322 C22.1282509,3.93240926 22.695482,3.90467972 23.0877732,4.20970461 L23.1819805,4.29289322 C23.5725048,4.68341751 23.5725048,5.31658249 23.1819805,5.70710678 L23.1819805,5.70710678 L20.888,8 L24.5,8 C26.709139,8 28.5,9.790861 28.5,12 L28.5,23 C28.5,25.209139 26.709139,27 24.5,27 L7.5,27 C5.290861,27 3.5,25.209139 3.5,23 L3.5,12 C3.5,9.790861 5.290861,8 7.5,8 L11.111,8 L8.81801948,5.70710678 C8.42749519,5.31658249 8.42749519,4.68341751 8.81801948,4.29289322 C9.20854378,3.90236893 9.84170876,3.90236893 10.232233,4.29289322 Z M15.633642,13.2228829 C15.4554557,13.3073831 15.3119577,13.4508812 15.2274575,13.6290674 L14.5543688,15.0484158 C14.4921924,15.1795276 14.3688948,15.2711432 14.2254185,15.2928402 L12.7274575,15.5193679 C12.2412397,15.5928958 11.9066883,16.0466593 11.9802162,16.5328771 C12.0083233,16.7187411 12.0945332,16.8909412 12.2264969,17.0248107 L13.3441275,18.1585818 C13.4420651,18.2579337 13.4865804,18.398133 13.4638948,18.5357846 L13.1962251,20.1599524 C13.1191531,20.6276101 13.4357854,21.0692008 13.9034431,21.1462727 C14.0925951,21.1774458 14.2867383,21.1443891 14.454915,21.0523739 L15.7906013,20.321575 C15.9210743,20.2501888 16.0789257,20.2501888 16.2093987,20.321575 L17.545085,21.0523739 C17.9608838,21.2798715 18.4823786,21.1272232 18.7098761,20.7114243 C18.8018913,20.5432476 18.8349479,20.3491044 18.8037749,20.1599524 L18.5361052,18.5357846 C18.5134196,18.398133 18.5579349,18.2579337 18.6558725,18.1585818 L19.7735031,17.0248107 C20.1187183,16.6746099 20.1146768,16.1108639 19.7644761,15.7656487 C19.6306066,15.633685 19.4584065,15.547475 19.2725425,15.5193679 L17.7745815,15.2928402 C17.6311052,15.2711432 17.5078076,15.1795276 17.4456312,15.0484158 L16.7725425,13.6290674 C16.5702085,13.202404 16.0603054,13.020549 15.633642,13.2228829 Z" id="形状结合" fill="#D2D2D2"></path>
    </g>
</svg>