<svg xmlns="http://www.w3.org/2000/svg" xmlns:xlink="http://www.w3.org/1999/xlink" width="48" height="48" viewBox="0 0 48 48"><title>ic_tab_square_selected</title><defs><circle id="b" cx="24" cy="24" r="20"/><filter id="a" width="125%" height="125%" x="-12.5%" y="-10%" filterUnits="objectBoundingBox"><feOffset dy="1" in="SourceAlpha" result="shadowOffsetOuter1"/><feGaussianBlur in="shadowOffsetOuter1" result="shadowBlurOuter1" stdDeviation="1.5"/><feColorMatrix in="shadowBlurOuter1" values="0 0 0 0 0.152941176 0 0 0 0 0.709803922 0 0 0 0 1 0 0 0 0.2 0"/></filter></defs><g fill="none" fill-rule="evenodd"><use fill="#000" filter="url(#a)" xlink:href="#b"/><use fill="#27B5FF" xlink:href="#b"/><circle cx="24" cy="24" r="10" fill="#FFF" opacity=".2"/><path fill="#FFF" d="M16.163 14.399l10.272 4.22c1.336.549 2.397 1.61 2.946 2.946l4.22 10.273c.283.69-.046 1.48-.737 1.763-.329.135-.698.135-1.027 0l-10.272-4.22c-1.336-.549-2.397-1.61-2.946-2.946l-4.22-10.273c-.283-.69.046-1.48.737-1.763.329-.135.698-.135 1.027 0z"/><circle cx="24" cy="24" r="2.625" fill="#27B5FF"/></g></svg>