<?xml version="1.0" encoding="UTF-8"?>
<svg width="30px" height="39px" viewBox="0 0 30 39" version="1.1" xmlns="http://www.w3.org/2000/svg" xmlns:xlink="http://www.w3.org/1999/xlink">
    <title>5</title>
    <g id="页面-1" stroke="none" stroke-width="1" fill="none" fill-rule="evenodd">
        <g id="星星数字" transform="translate(-429.000000, -25.000000)" fill="#FDA900" fill-rule="nonzero">
            <g id="5" transform="translate(401.000000, 4.000000)">
                <path d="M20.246,58.83 C20.882,58.83 21.5533333,58.5826667 22.26,58.088 L22.26,58.088 L24.327,56.657 C25.3163333,55.9856667 25.811,55.1906667 25.811,54.272 C25.811,53.6006667 25.546,52.9116667 25.016,52.205 L25.016,52.205 L18.921,44.255 L23.585,38.001 C24.0796667,37.2943333 24.327,36.6406667 24.327,36.04 C24.327,35.0506667 23.744,34.238 22.578,33.602 L22.578,33.602 L21.359,32.966 C20.7583333,32.648 20.193,32.489 19.663,32.489 C18.6383333,32.489 17.755,33.0013333 17.013,34.026 L17.013,34.026 L14.098,37.948 L10.812,33.708 C10.07,32.7186667 9.20433333,32.224 8.215,32.224 C7.685,32.224 7.102,32.383 6.466,32.701 L6.466,32.701 L4.929,33.496 C3.72766667,34.132 3.127,34.927 3.127,35.881 C3.127,36.4816667 3.37433333,37.1353333 3.869,37.842 L3.869,37.842 L8.904,44.891 L2.968,52.894 C2.438,53.5653333 2.173,54.2366667 2.173,54.908 C2.173,55.8266667 2.68533333,56.6393333 3.71,57.346 L3.71,57.346 L4.823,58.088 C5.52966667,58.5826667 6.201,58.83 6.837,58.83 C7.75566667,58.83 8.55066667,58.353 9.222,57.399 L9.222,57.399 L13.621,51.463 L17.808,57.346 C18.5146667,58.3353333 19.3273333,58.83 20.246,58.83 Z M35.517,59.678 L50.887,59.625 C51.9116667,59.625 52.6978333,59.3511667 53.2455,58.8035 C53.7931667,58.2558333 54.067,57.4696667 54.067,56.445 L54.067,56.445 L54.067,41.234 C54.067,40.2446667 53.8108333,39.4673333 53.2985,38.902 C52.7861667,38.3366667 52.0353333,38.001 51.046,37.895 L51.046,37.895 L40.34,36.782 L40.075,31.058 L49.88,31.588 C50.9046667,31.6586667 51.7085,31.429 52.2915,30.899 C52.8745,30.369 53.1836667,29.574 53.219,28.514 L53.219,28.514 L53.272,26.871 C53.3073333,25.8463333 53.0423333,25.0513333 52.477,24.486 C51.9116667,23.9206667 51.1166667,23.6556667 50.092,23.691 L50.092,23.691 L39.704,24.009 C39.6333333,23.055 39.3506667,22.4101667 38.856,22.0745 C38.3613333,21.7388333 37.584,21.571 36.524,21.571 L36.524,21.571 L35.57,21.571 C34.5453333,21.571 33.7591667,21.8448333 33.2115,22.3925 C32.6638333,22.9401667 32.39,23.7263333 32.39,24.751 L32.39,24.751 L32.39,39.644 C32.39,41.5873333 33.3616667,42.718 35.305,43.036 L35.305,43.036 L46.488,44.944 L46.17,51.781 L35.835,50.933 C34.8103333,50.8623333 34.0065,51.0831667 33.4235,51.5955 C32.8405,52.1078333 32.5313333,52.8763333 32.496,53.901 L32.496,53.901 L32.39,56.445 C32.3546667,57.4696667 32.6108333,58.2646667 33.1585,58.83 C33.7061667,59.3953333 34.4923333,59.678 35.517,59.678 L35.517,59.678 Z" id="x5"></path>
            </g>
        </g>
    </g>
</svg>