<?xml version="1.0" encoding="UTF-8"?>
<svg width="30px" height="39px" viewBox="0 0 30 39" version="1.1" xmlns="http://www.w3.org/2000/svg" xmlns:xlink="http://www.w3.org/1999/xlink">
    <title>9</title>
    <g id="页面-1" stroke="none" stroke-width="1" fill="none" fill-rule="evenodd">
        <g id="星星数字" transform="translate(-89.000000, -25.000000)" fill="#FDA900" fill-rule="nonzero">
            <g id="9" transform="translate(88.000000, 4.000000)">
                <path d="M8.215,59.36 L24.698,59.307 C26.7826667,59.307 27.825,58.247 27.825,56.127 L27.825,56.127 L27.56,24.963 C27.56,23.9736667 27.2773333,23.1963333 26.712,22.631 C26.1466667,22.0656667 25.3516667,21.783 24.327,21.783 L24.327,21.783 L7.102,21.783 C6.07733333,21.783 5.29116667,22.0568333 4.7435,22.6045 C4.19583333,23.1521667 3.922,23.9383333 3.922,24.963 L3.922,24.963 L3.922,41.075 C3.922,42.0643333 4.187,42.8328333 4.717,43.3805 C5.247,43.9281667 6.02433333,44.2196667 7.049,44.255 L7.049,44.255 L19.398,44.52 L19.345,52.046 L8.48,51.41 C7.45533333,51.3393333 6.6515,51.569 6.0685,52.099 C5.4855,52.629 5.17633333,53.424 5.141,54.484 L5.141,54.484 L5.088,56.127 C5.05266667,57.187 5.30883333,57.9908333 5.8565,58.5385 C6.40416667,59.0861667 7.19033333,59.36 8.215,59.36 L8.215,59.36 Z M11.766,37.365 L11.713,29.309 L19.61,29.15 L19.504,37.206 L11.766,37.365 Z"></path>
            </g>
        </g>
    </g>
</svg>