<?xml version="1.0" encoding="UTF-8"?>
<svg width="30px" height="39px" viewBox="0 0 30 39" version="1.1" xmlns="http://www.w3.org/2000/svg" xmlns:xlink="http://www.w3.org/1999/xlink">
    <title>6</title>
    <g id="页面-1" stroke="none" stroke-width="1" fill="none" fill-rule="evenodd">
        <g id="星星数字" transform="translate(-344.000000, -25.000000)" fill="#FDA900" fill-rule="nonzero">
            <g id="6" transform="translate(316.000000, 4.000000)">
                <path d="M20.246,58.83 C20.882,58.83 21.5533333,58.5826667 22.26,58.088 L22.26,58.088 L24.327,56.657 C25.3163333,55.9856667 25.811,55.1906667 25.811,54.272 C25.811,53.6006667 25.546,52.9116667 25.016,52.205 L25.016,52.205 L18.921,44.255 L23.585,38.001 C24.0796667,37.2943333 24.327,36.6406667 24.327,36.04 C24.327,35.0506667 23.744,34.238 22.578,33.602 L22.578,33.602 L21.359,32.966 C20.7583333,32.648 20.193,32.489 19.663,32.489 C18.6383333,32.489 17.755,33.0013333 17.013,34.026 L17.013,34.026 L14.098,37.948 L10.812,33.708 C10.07,32.7186667 9.20433333,32.224 8.215,32.224 C7.685,32.224 7.102,32.383 6.466,32.701 L6.466,32.701 L4.929,33.496 C3.72766667,34.132 3.127,34.927 3.127,35.881 C3.127,36.4816667 3.37433333,37.1353333 3.869,37.842 L3.869,37.842 L8.904,44.891 L2.968,52.894 C2.438,53.5653333 2.173,54.2366667 2.173,54.908 C2.173,55.8266667 2.68533333,56.6393333 3.71,57.346 L3.71,57.346 L4.823,58.088 C5.52966667,58.5826667 6.201,58.83 6.837,58.83 C7.75566667,58.83 8.55066667,58.353 9.222,57.399 L9.222,57.399 L13.621,51.463 L17.808,57.346 C18.5146667,58.3353333 19.3273333,58.83 20.246,58.83 Z M51.576,59.413 C52.6006667,59.413 53.3868333,59.1391667 53.9345,58.5915 C54.4821667,58.0438333 54.756,57.2576667 54.756,56.233 L54.756,56.233 L54.756,40.121 C54.756,39.1316667 54.491,38.3631667 53.961,37.8155 C53.431,37.2678333 52.6536667,36.9763333 51.629,36.941 L51.629,36.941 L39.333,36.676 L39.386,29.15 L50.251,29.786 C51.2756667,29.8566667 52.0795,29.627 52.6625,29.097 C53.2455,28.567 53.5546667,27.772 53.59,26.712 L53.59,26.712 L53.643,25.122 C53.6783333,24.062 53.4221667,23.2581667 52.8745,22.7105 C52.3268333,22.1628333 51.5406667,21.889 50.516,21.889 L50.516,21.889 L33.98,21.942 C31.8953333,21.942 30.853,23.002 30.853,25.122 L30.853,25.122 L31.171,56.233 C31.171,57.2223333 31.4536667,57.9996667 32.019,58.565 C32.5843333,59.1303333 33.3793333,59.413 34.404,59.413 L34.404,59.413 L51.576,59.413 Z M39.121,52.046 L39.227,43.99 L46.965,43.831 L46.965,51.887 L39.121,52.046 Z" id="x6"></path>
            </g>
        </g>
    </g>
</svg>