<?xml version="1.0" encoding="UTF-8"?>
<svg width="30px" height="39px" viewBox="0 0 30 39" version="1.1" xmlns="http://www.w3.org/2000/svg" xmlns:xlink="http://www.w3.org/1999/xlink">
    <title>1</title>
    <g id="页面-1" stroke="none" stroke-width="1" fill="none" fill-rule="evenodd">
        <g id="星星数字" transform="translate(-769.000000, -25.000000)" fill="#FDA900" fill-rule="nonzero">
            <g id="1" transform="translate(741.000000, 4.000000)">
                <path d="M20.246,58.83 C20.882,58.83 21.5533333,58.5826667 22.26,58.088 L22.26,58.088 L24.327,56.657 C25.3163333,55.9856667 25.811,55.1906667 25.811,54.272 C25.811,53.6006667 25.546,52.9116667 25.016,52.205 L25.016,52.205 L18.921,44.255 L23.585,38.001 C24.0796667,37.2943333 24.327,36.6406667 24.327,36.04 C24.327,35.0506667 23.744,34.238 22.578,33.602 L22.578,33.602 L21.359,32.966 C20.7583333,32.648 20.193,32.489 19.663,32.489 C18.6383333,32.489 17.755,33.0013333 17.013,34.026 L17.013,34.026 L14.098,37.948 L10.812,33.708 C10.07,32.7186667 9.20433333,32.224 8.215,32.224 C7.685,32.224 7.102,32.383 6.466,32.701 L6.466,32.701 L4.929,33.496 C3.72766667,34.132 3.127,34.927 3.127,35.881 C3.127,36.4816667 3.37433333,37.1353333 3.869,37.842 L3.869,37.842 L8.904,44.891 L2.968,52.894 C2.438,53.5653333 2.173,54.2366667 2.173,54.908 C2.173,55.8266667 2.68533333,56.6393333 3.71,57.346 L3.71,57.346 L4.823,58.088 C5.52966667,58.5826667 6.201,58.83 6.837,58.83 C7.75566667,58.83 8.55066667,58.353 9.222,57.399 L9.222,57.399 L13.621,51.463 L17.808,57.346 C18.5146667,58.3353333 19.3273333,58.83 20.246,58.83 Z M49.827,59.254 C50.8516667,59.254 51.629,59.0066667 52.159,58.512 C52.689,58.0173333 52.954,57.293 52.954,56.339 C52.954,55.3143333 52.6536667,54.537 52.053,54.007 C51.4523333,53.477 50.622,53.2473333 49.562,53.318 L49.562,53.318 L47.919,53.424 L48.131,25.281 C48.131,24.2563333 47.8571667,23.4701667 47.3095,22.9225 C46.7618333,22.3748333 45.9756667,22.101 44.951,22.101 L44.951,22.101 L38.008,22.101 C36.9833333,22.101 36.1971667,22.3748333 35.6495,22.9225 C35.1018333,23.4701667 34.8456667,24.274 34.881,25.334 L34.881,25.334 L34.934,26.871 C34.9693333,27.931 35.2873333,28.7171667 35.888,29.2295 C36.4886667,29.7418333 37.3013333,29.945 38.326,29.839 L38.326,29.839 L39.174,29.733 L39.545,53.954 L37.107,54.113 C36.1176667,54.1483333 35.358,54.3956667 34.828,54.855 C34.298,55.3143333 34.033,55.9503333 34.033,56.763 C34.033,57.5403333 34.3068333,58.141 34.8545,58.565 C35.4021667,58.989 36.1883333,59.201 37.213,59.201 L37.213,59.201 L39.598,59.201 L39.598,59.254 L49.827,59.254 Z" id="x1"></path>
            </g>
        </g>
    </g>
</svg>