<?xml version="1.0" encoding="UTF-8"?>
<svg width="30px" height="39px" viewBox="0 0 30 39" version="1.1" xmlns="http://www.w3.org/2000/svg" xmlns:xlink="http://www.w3.org/1999/xlink">
    <title>2</title>
    <g id="页面-1" stroke="none" stroke-width="1" fill="none" fill-rule="evenodd">
        <g id="星星数字" transform="translate(-684.000000, -25.000000)" fill="#FDA900" fill-rule="nonzero">
            <g id="2" transform="translate(656.000000, 4.000000)">
                <path d="M20.246,58.83 C20.882,58.83 21.5533333,58.5826667 22.26,58.088 L22.26,58.088 L24.327,56.657 C25.3163333,55.9856667 25.811,55.1906667 25.811,54.272 C25.811,53.6006667 25.546,52.9116667 25.016,52.205 L25.016,52.205 L18.921,44.255 L23.585,38.001 C24.0796667,37.2943333 24.327,36.6406667 24.327,36.04 C24.327,35.0506667 23.744,34.238 22.578,33.602 L22.578,33.602 L21.359,32.966 C20.7583333,32.648 20.193,32.489 19.663,32.489 C18.6383333,32.489 17.755,33.0013333 17.013,34.026 L17.013,34.026 L14.098,37.948 L10.812,33.708 C10.07,32.7186667 9.20433333,32.224 8.215,32.224 C7.685,32.224 7.102,32.383 6.466,32.701 L6.466,32.701 L4.929,33.496 C3.72766667,34.132 3.127,34.927 3.127,35.881 C3.127,36.4816667 3.37433333,37.1353333 3.869,37.842 L3.869,37.842 L8.904,44.891 L2.968,52.894 C2.438,53.5653333 2.173,54.2366667 2.173,54.908 C2.173,55.8266667 2.68533333,56.6393333 3.71,57.346 L3.71,57.346 L4.823,58.088 C5.52966667,58.5826667 6.201,58.83 6.837,58.83 C7.75566667,58.83 8.55066667,58.353 9.222,57.399 L9.222,57.399 L13.621,51.463 L17.808,57.346 C18.5146667,58.3353333 19.3273333,58.83 20.246,58.83 Z M52.53,59.625 C53.5546667,59.625 54.3408333,59.3511667 54.8885,58.8035 C55.4361667,58.2558333 55.6923333,57.452 55.657,56.392 L55.657,56.392 L55.604,54.431 C55.5686667,53.4063333 55.2595,52.629 54.6765,52.099 C54.0935,51.569 53.2896667,51.3393333 52.265,51.41 L52.265,51.41 L40.923,52.364 L54.12,31.429 C54.5086667,30.793 54.7913333,30.1746667 54.968,29.574 C55.1446667,28.9733333 55.233,28.2843333 55.233,27.507 L55.233,27.507 L55.233,25.334 C55.233,24.3093333 54.9591667,23.5231667 54.4115,22.9755 C53.8638333,22.4278333 53.0776667,22.154 52.053,22.154 L52.053,22.154 L33.927,22.101 C32.9023333,22.101 32.1161667,22.3748333 31.5685,22.9225 C31.0208333,23.4701667 30.7646667,24.274 30.8,25.334 L30.8,25.334 L30.959,29.68 L31.065,32.065 C31.1356667,33.655 32.1956667,34.45 34.245,34.45 L34.245,34.45 L35.835,34.45 C36.8596667,34.45 37.6458333,34.1761667 38.1935,33.6285 C38.7411667,33.0808333 38.9973333,32.277 38.962,31.217 L38.962,31.217 L38.962,30.581 L45.428,30.21 L31.807,51.463 C31.383,52.099 31.0826667,52.7173333 30.906,53.318 C30.7293333,53.9186667 30.641,54.6076667 30.641,55.385 L30.641,55.385 L30.641,56.445 C30.641,57.4696667 30.9148333,58.247 31.4625,58.777 C32.0101667,59.307 32.7963333,59.572 33.821,59.572 L33.821,59.572 L52.53,59.625 Z" id="x2"></path>
            </g>
        </g>
    </g>
</svg>