<?xml version="1.0" encoding="UTF-8"?>
<svg width="30px" height="39px" viewBox="0 0 30 39" version="1.1" xmlns="http://www.w3.org/2000/svg" xmlns:xlink="http://www.w3.org/1999/xlink">
    <title>4</title>
    <g id="页面-1" stroke="none" stroke-width="1" fill="none" fill-rule="evenodd">
        <g id="星星数字" transform="translate(-514.000000, -25.000000)" fill="#FDA900" fill-rule="nonzero">
            <g id="4" transform="translate(486.000000, 4.000000)">
                <path d="M20.246,58.83 C20.882,58.83 21.5533333,58.5826667 22.26,58.088 L22.26,58.088 L24.327,56.657 C25.3163333,55.9856667 25.811,55.1906667 25.811,54.272 C25.811,53.6006667 25.546,52.9116667 25.016,52.205 L25.016,52.205 L18.921,44.255 L23.585,38.001 C24.0796667,37.2943333 24.327,36.6406667 24.327,36.04 C24.327,35.0506667 23.744,34.238 22.578,33.602 L22.578,33.602 L21.359,32.966 C20.7583333,32.648 20.193,32.489 19.663,32.489 C18.6383333,32.489 17.755,33.0013333 17.013,34.026 L17.013,34.026 L14.098,37.948 L10.812,33.708 C10.07,32.7186667 9.20433333,32.224 8.215,32.224 C7.685,32.224 7.102,32.383 6.466,32.701 L6.466,32.701 L4.929,33.496 C3.72766667,34.132 3.127,34.927 3.127,35.881 C3.127,36.4816667 3.37433333,37.1353333 3.869,37.842 L3.869,37.842 L8.904,44.891 L2.968,52.894 C2.438,53.5653333 2.173,54.2366667 2.173,54.908 C2.173,55.8266667 2.68533333,56.6393333 3.71,57.346 L3.71,57.346 L4.823,58.088 C5.52966667,58.5826667 6.201,58.83 6.837,58.83 C7.75566667,58.83 8.55066667,58.353 9.222,57.399 L9.222,57.399 L13.621,51.463 L17.808,57.346 C18.5146667,58.3353333 19.3273333,58.83 20.246,58.83 Z M48.396,59.784 C49.4206667,59.784 50.2068333,59.5101667 50.7545,58.9625 C51.3021667,58.4148333 51.576,57.6286667 51.576,56.604 L51.576,56.604 L51.629,50.615 L54.756,50.615 C55.7806667,50.615 56.5491667,50.3411667 57.0615,49.7935 C57.5738333,49.2458333 57.8123333,48.442 57.777,47.382 L57.777,47.382 L57.671,44.891 C57.6356667,43.8663333 57.3265,43.0978333 56.7435,42.5855 C56.1605,42.0731667 55.3566667,41.8523333 54.332,41.923 L54.332,41.923 L51.735,42.135 L51.841,31.323 C51.841,29.203 50.781,28.143 48.661,28.143 L48.661,28.143 L46.541,28.143 C45.5163333,28.143 44.7213333,28.4168333 44.156,28.9645 C43.5906667,29.5121667 43.3256667,30.316 43.361,31.376 L43.361,31.376 L43.573,42.824 L37.584,43.301 L43.202,27.348 C43.3786667,26.818 43.467,26.3586667 43.467,25.97 C43.467,24.698 42.7426667,23.797 41.294,23.267 L41.294,23.267 L38.538,22.26 C38.1493333,22.0833333 37.69,21.995 37.16,21.995 C35.8526667,21.995 34.987,22.7723333 34.563,24.327 L34.563,24.327 L29.316,42.135 C28.9626667,43.3363333 28.786,44.626 28.786,46.004 L28.786,46.004 L28.786,47.435 C28.786,48.4596667 29.0598333,49.2458333 29.6075,49.7935 C30.1551667,50.3411667 30.9413333,50.615 31.966,50.615 L31.966,50.615 L43.679,50.615 L43.785,56.657 C43.8203333,57.6816667 44.1118333,58.459 44.6595,58.989 C45.2071667,59.519 45.9756667,59.784 46.965,59.784 L46.965,59.784 L48.396,59.784 Z" id="x4"></path>
            </g>
        </g>
    </g>
</svg>