<?xml version="1.0" encoding="UTF-8"?>
<svg width="30px" height="39px" viewBox="0 0 30 39" version="1.1" xmlns="http://www.w3.org/2000/svg" xmlns:xlink="http://www.w3.org/1999/xlink">
    <title>7</title>
    <g id="页面-1" stroke="none" stroke-width="1" fill="none" fill-rule="evenodd">
        <g id="星星数字" transform="translate(-259.000000, -25.000000)" fill="#FDA900" fill-rule="nonzero">
            <g id="7" transform="translate(231.000000, 4.000000)">
                <path d="M20.246,58.83 C20.882,58.83 21.5533333,58.5826667 22.26,58.088 L22.26,58.088 L24.327,56.657 C25.3163333,55.9856667 25.811,55.1906667 25.811,54.272 C25.811,53.6006667 25.546,52.9116667 25.016,52.205 L25.016,52.205 L18.921,44.255 L23.585,38.001 C24.0796667,37.2943333 24.327,36.6406667 24.327,36.04 C24.327,35.0506667 23.744,34.238 22.578,33.602 L22.578,33.602 L21.359,32.966 C20.7583333,32.648 20.193,32.489 19.663,32.489 C18.6383333,32.489 17.755,33.0013333 17.013,34.026 L17.013,34.026 L14.098,37.948 L10.812,33.708 C10.07,32.7186667 9.20433333,32.224 8.215,32.224 C7.685,32.224 7.102,32.383 6.466,32.701 L6.466,32.701 L4.929,33.496 C3.72766667,34.132 3.127,34.927 3.127,35.881 C3.127,36.4816667 3.37433333,37.1353333 3.869,37.842 L3.869,37.842 L8.904,44.891 L2.968,52.894 C2.438,53.5653333 2.173,54.2366667 2.173,54.908 C2.173,55.8266667 2.68533333,56.6393333 3.71,57.346 L3.71,57.346 L4.823,58.088 C5.52966667,58.5826667 6.201,58.83 6.837,58.83 C7.75566667,58.83 8.55066667,58.353 9.222,57.399 L9.222,57.399 L13.621,51.463 L17.808,57.346 C18.5146667,58.3353333 19.3273333,58.83 20.246,58.83 Z M44.792,59.572 C46.7,59.572 47.8483333,58.618 48.237,56.71 L48.237,56.71 L53.431,28.779 L53.484,28.779 L53.802,26.977 L54.12,25.44 C54.1553333,25.2633333 54.173,25.016 54.173,24.698 C54.173,23.8853333 53.9168333,23.2493333 53.4045,22.79 C52.8921667,22.3306667 52.159,22.101 51.205,22.101 L51.205,22.101 L34.775,22.048 C33.7503333,22.048 32.9641667,22.3218333 32.4165,22.8695 C31.8688333,23.4171667 31.6126667,24.221 31.648,25.281 L31.648,25.281 L31.701,26.871 C31.7363333,27.931 32.0366667,28.7171667 32.602,29.2295 C33.1673333,29.7418333 33.98,29.9626667 35.04,29.892 L35.04,29.892 L44.792,29.309 L40.446,56.127 C40.4106667,56.3036667 40.393,56.5686667 40.393,56.922 C40.393,57.7346667 40.6491667,58.3795 41.1615,58.8565 C41.6738333,59.3335 42.407,59.572 43.361,59.572 L43.361,59.572 L44.792,59.572 Z" id="x7"></path>
            </g>
        </g>
    </g>
</svg>