<?xml version="1.0" encoding="UTF-8"?>
<svg width="30px" height="39px" viewBox="0 0 30 39" version="1.1" xmlns="http://www.w3.org/2000/svg" xmlns:xlink="http://www.w3.org/1999/xlink">
    <title>3</title>
    <g id="页面-1" stroke="none" stroke-width="1" fill="none" fill-rule="evenodd">
        <g id="星星数字" transform="translate(-599.000000, -25.000000)" fill="#FDA900" fill-rule="nonzero">
            <g id="3" transform="translate(571.000000, 4.000000)">
                <path d="M20.246,58.83 C20.882,58.83 21.5533333,58.5826667 22.26,58.088 L22.26,58.088 L24.327,56.657 C25.3163333,55.9856667 25.811,55.1906667 25.811,54.272 C25.811,53.6006667 25.546,52.9116667 25.016,52.205 L25.016,52.205 L18.921,44.255 L23.585,38.001 C24.0796667,37.2943333 24.327,36.6406667 24.327,36.04 C24.327,35.0506667 23.744,34.238 22.578,33.602 L22.578,33.602 L21.359,32.966 C20.7583333,32.648 20.193,32.489 19.663,32.489 C18.6383333,32.489 17.755,33.0013333 17.013,34.026 L17.013,34.026 L14.098,37.948 L10.812,33.708 C10.07,32.7186667 9.20433333,32.224 8.215,32.224 C7.685,32.224 7.102,32.383 6.466,32.701 L6.466,32.701 L4.929,33.496 C3.72766667,34.132 3.127,34.927 3.127,35.881 C3.127,36.4816667 3.37433333,37.1353333 3.869,37.842 L3.869,37.842 L8.904,44.891 L2.968,52.894 C2.438,53.5653333 2.173,54.2366667 2.173,54.908 C2.173,55.8266667 2.68533333,56.6393333 3.71,57.346 L3.71,57.346 L4.823,58.088 C5.52966667,58.5826667 6.201,58.83 6.837,58.83 C7.75566667,58.83 8.55066667,58.353 9.222,57.399 L9.222,57.399 L13.621,51.463 L17.808,57.346 C18.5146667,58.3353333 19.3273333,58.83 20.246,58.83 Z M34.563,59.466 L51.682,59.413 C52.7066667,59.413 53.4928333,59.1391667 54.0405,58.5915 C54.5881667,58.0438333 54.862,57.2576667 54.862,56.233 L54.862,56.233 L54.862,54.166 L55.021,44.255 L55.074,44.255 L55.074,42.347 L55.127,39.379 L55.074,39.379 L55.074,38.584 C55.074,38.0893333 54.014,37.842 51.894,37.842 L51.894,37.842 L46.435,37.842 L53.06,31.005 C53.6253333,30.4043333 54.0316667,29.7948333 54.279,29.1765 C54.5263333,28.5581667 54.65,27.8603333 54.65,27.083 L54.65,27.083 L54.65,25.069 C54.65,24.0443333 54.3761667,23.2581667 53.8285,22.7105 C53.2808333,22.1628333 52.4946667,21.889 51.47,21.889 L51.47,21.889 L34.404,21.836 C33.3793333,21.836 32.5931667,22.1186667 32.0455,22.684 C31.4978333,23.2493333 31.2416667,24.0443333 31.277,25.069 L31.277,25.069 L31.383,27.56 C31.4183333,28.62 31.7186667,29.4061667 32.284,29.9185 C32.8493333,30.4308333 33.662,30.6516667 34.722,30.581 L34.722,30.581 L44.315,29.998 L36.1,36.305 C35.4286667,36.7996667 34.9428333,37.3561667 34.6425,37.9745 C34.3421667,38.5928333 34.2096667,39.3436667 34.245,40.227 L34.245,40.227 L34.351,42.453 C34.4216667,43.513 34.7396667,44.2991667 35.305,44.8115 C35.8703333,45.3238333 36.6653333,45.5446667 37.69,45.474 L37.69,45.474 L46.276,44.891 L46.541,51.993 L34.828,51.198 C33.8033333,51.1273333 32.9995,51.3481667 32.4165,51.8605 C31.8335,52.3728333 31.5243333,53.159 31.489,54.219 L31.489,54.219 L31.436,56.233 C31.4006667,57.293 31.6568333,58.0968333 32.2045,58.6445 C32.7521667,59.1921667 33.5383333,59.466 34.563,59.466 L34.563,59.466 Z" id="x3"></path>
            </g>
        </g>
    </g>
</svg>