<?xml version="1.0" encoding="UTF-8"?>
<svg width="24px" height="24px" viewBox="0 0 24 24" version="1.1" xmlns="http://www.w3.org/2000/svg" xmlns:xlink="http://www.w3.org/1999/xlink">
    <title>ic_addfriend</title>
    <g id="ic_addfriend" stroke="none" stroke-width="1" fill="none" fill-rule="evenodd">
        <g id="1" transform="translate(2.500000, 4.000000)" fill="#313131">
            <g id="2" fill-rule="nonzero">
                <path d="M7.5,-1 C4.38353605,-1 1.85714286,1.5263932 1.85714286,4.64285714 C1.85714286,7.75932109 4.38353605,10.2857143 7.5,10.2857143 C8.32723324,10.2857143 9.13112388,10.1069484 9.86710961,9.76645403 C10.8905579,9.29296878 11.7509321,8.52085452 12.3333685,7.55630591 C12.8600868,6.68402987 13.1428571,5.68297456 13.1428571,4.64285714 C13.1428571,1.5263932 10.6164639,-1 7.5,-1 Z M7.5,1 C9.51189445,1 11.1428571,2.6309627 11.1428571,4.64285714 C11.1428571,5.31599311 10.9609435,5.95999832 10.6212926,6.52247994 C10.2448156,7.14594786 9.68797747,7.64566376 9.02734948,7.95129482 C8.55324777,8.1706319 8.03573491,8.28571429 7.5,8.28571429 C5.48810555,8.28571429 3.85714286,6.65475159 3.85714286,4.64285714 C3.85714286,2.6309627 5.48810555,1 7.5,1 Z" id="head"></path>
                <path d="M7.47601804,11.0714286 C8.48917665,11.0714286 9.48233776,11.2410911 10.428671,11.5704331 C11.2068833,11.8412657 11.9477733,12.2181904 12.635307,12.6905619 C13.4381124,13.242131 14.1616772,13.9194226 14.78217,14.6983635 C15.1262793,15.1303441 15.0550456,15.7594892 14.6230651,16.1035986 C14.1910845,16.4477079 13.5619393,16.3764742 13.21783,15.9444936 C12.7196223,15.3190644 12.1412202,14.7776521 11.5027509,14.3389904 C10.9610012,13.9667801 10.3797067,13.671049 9.77130467,13.4593136 C9.03523187,13.2031462 8.26419038,13.0714286 7.47601804,13.0714286 C5.27736509,13.0714286 3.22428803,14.1046683 1.77702567,15.8911902 C1.42937959,16.3203297 0.799670521,16.3863931 0.370531092,16.038747 C-0.0586083363,15.6911009 -0.12467175,15.0613918 0.222974328,14.6322524 C2.04059095,12.3885597 4.65776847,11.0714286 7.47601804,11.0714286 Z" id="路径"></path>
            </g>
            <path d="M17,6 C17.5522847,6 18,6.44771525 18,7 L18,8 L19,8 C19.5522847,8 20,8.44771525 20,9 C20,9.55228475 19.5522847,10 19,10 L17.999,10 L18,11 C18,11.5522847 17.5522847,12 17,12 C16.4477153,12 16,11.5522847 16,11 L15.999,10 L15,10 C14.4477153,10 14,9.55228475 14,9 C14,8.44771525 14.4477153,8 15,8 L16,8 L16,7 C16,6.44771525 16.4477153,6 17,6 Z"></path>
        </g>
    </g>
</svg>