<?xml version="1.0" encoding="UTF-8"?>
<svg width="24px" height="24px" viewBox="0 0 24 24" version="1.1" xmlns="http://www.w3.org/2000/svg" xmlns:xlink="http://www.w3.org/1999/xlink">
    <title>ic_mygroup</title>
    <g id="ic_mygroup" stroke="none" stroke-width="1" fill="none" fill-rule="evenodd">
        <path d="M10,3 C6.88353605,3 4.35714286,5.5263932 4.35714286,8.64285714 C4.35714286,11.7593211 6.88353605,14.2857143 10,14.2857143 C10.8272332,14.2857143 11.6311239,14.1069484 12.3671096,13.766454 C13.3905579,13.2929688 14.2509321,12.5208545 14.8333685,11.5563059 C15.3600868,10.6840299 15.6428571,9.68297456 15.6428571,8.64285714 C15.6428571,5.5263932 13.1164639,3 10,3 Z M10,5 C12.0118944,5 13.6428571,6.6309627 13.6428571,8.64285714 C13.6428571,9.31599311 13.4609435,9.95999832 13.1212926,10.5224799 C12.7448156,11.1459479 12.1879775,11.6456638 11.5273495,11.9512948 C11.0532478,12.1706319 10.5357349,12.2857143 10,12.2857143 C7.98810555,12.2857143 6.35714286,10.6547516 6.35714286,8.64285714 C6.35714286,6.6309627 7.98810555,5 10,5 Z" id="head" fill="#313131" fill-rule="nonzero"></path>
        <path d="M9.97601804,15.0714286 C10.9891767,15.0714286 11.9823378,15.2410911 12.928671,15.5704331 C13.7068833,15.8412657 14.4477733,16.2181904 15.135307,16.6905619 C15.9381124,17.242131 16.6616772,17.9194226 17.28217,18.6983635 C17.6262793,19.1303441 17.5550456,19.7594892 17.1230651,20.1035986 C16.6910845,20.4477079 16.0619393,20.3764742 15.71783,19.9444936 C15.2196223,19.3190644 14.6412202,18.7776521 14.0027509,18.3389904 C13.4610012,17.9667801 12.8797067,17.671049 12.2713047,17.4593136 C11.5352319,17.2031462 10.7641904,17.0714286 9.97601804,17.0714286 C7.77736509,17.0714286 5.72428803,18.1046683 4.27702567,19.8911902 C3.92937959,20.3203297 3.29967052,20.3863931 2.87053109,20.038747 C2.44139166,19.6911009 2.37532825,19.0613918 2.72297433,18.6322524 C4.54059095,16.3885597 7.15776847,15.0714286 9.97601804,15.0714286 Z" id="路径" fill="#313131" fill-rule="nonzero"></path>
        <path d="M17.5,5 C19.709139,5 21.5,6.790861 21.5,9 C21.5,9.73700336 21.299443,10.4470095 20.9260054,11.0654438 C20.5132229,11.7490356 19.9035863,12.2961338 19.1780899,12.6317754 C18.6561966,12.8732226 18.0860927,13 17.5,13 C16.9477153,13 16.5,12.5522847 16.5,12 C16.5,11.4871642 16.8860402,11.0644928 17.3833789,11.0067277 L17.5,11 C17.7945944,11 18.0783205,10.9369062 18.3383298,10.8166162 C18.7010058,10.6488288 19.0071064,10.374129 19.2139295,10.0316178 C19.4002997,9.72297795 19.5,9.3700219 19.5,9 C19.5,7.8954305 18.6045695,7 17.5,7 C16.9477153,7 16.5,6.55228475 16.5,6 C16.5,5.44771525 16.9477153,5 17.5,5 Z" id="路径" fill="#313131" fill-rule="nonzero"></path>
        <path d="M17,14 C17.6667488,14 18.3206402,14.1117048 18.9434338,14.3284488 C19.4549895,14.5064799 19.9416132,14.7540477 20.3927463,15.0639996 C20.9183835,15.4251397 21.3915701,15.8680652 21.7969281,16.3769349 C22.1410375,16.8089155 22.0698038,17.4380607 21.6378232,17.78217 C21.2058426,18.1262793 20.5766975,18.0550456 20.2325881,17.6230651 C19.9495151,17.267707 19.6214913,16.9606608 19.2601902,16.7124281 C18.9548411,16.5026375 18.6278129,16.3362632 18.2860675,16.2173293 C17.8735343,16.0737599 17.4417625,16 17,16 C16.4477153,16 16,15.5522847 16,15 C16,14.4477153 16.4477153,14 17,14 Z" id="路径" fill="#313131" fill-rule="nonzero"></path>
    </g>
</svg>