<?xml version="1.0" encoding="UTF-8"?>
<svg width="24px" height="24px" viewBox="0 0 24 24" version="1.1" xmlns="http://www.w3.org/2000/svg" xmlns:xlink="http://www.w3.org/1999/xlink">
    <title>ic_myroom</title>
    <g id="ic_myroom" stroke="none" stroke-width="1" fill="none" fill-rule="evenodd">
        <g id="1" transform="translate(0.000000, 2.000000)" fill="#313131">
            <path d="M11.5364745,9.47744045 L11.1724028,10.2451618 C11.1102264,10.3762737 10.9869288,10.4678892 10.8434524,10.4895863 L10.0364745,10.6116208 C9.74474382,10.6557375 9.54401301,10.9279956 9.5881297,11.2197263 C9.60499397,11.3312446 9.65671995,11.4345647 9.73589814,11.5148864 L10.3441275,12.1318996 C10.4420651,12.2312516 10.4865804,12.3714509 10.4638948,12.5091024 L10.3177351,13.3959715 C10.2714919,13.6765661 10.4614713,13.9415205 10.7420659,13.9877636 C10.8555571,14.0064675 10.972043,13.9866335 11.072949,13.9314244 L11.7906013,13.5387726 C11.9210743,13.4673864 12.0789257,13.4673864 12.2093987,13.5387726 L12.927051,13.9314244 C13.1765303,14.0679229 13.4894271,13.9763339 13.6259257,13.7268546 C13.6811348,13.6259485 13.7009688,13.5094626 13.6822649,13.3959715 L13.5361052,12.5091024 C13.5134196,12.3714509 13.5579349,12.2312516 13.6558725,12.1318996 L14.2641019,11.5148864 C14.471231,11.304766 14.4688061,10.9665183 14.2586856,10.7593892 C14.178364,10.680211 14.0750439,10.628485 13.9635255,10.6116208 L13.1565476,10.4895863 C13.0130712,10.4678892 12.8897736,10.3762737 12.8275972,10.2451618 L12.4635255,9.47744045 C12.3421251,9.22144239 12.0361833,9.1123294 11.7801852,9.23372976 C11.6732734,9.28442986 11.5871746,9.37052869 11.5364745,9.47744045 Z" id="路径"></path>
            <path d="M9.96043769,1.02717825 L1.90480119,8.49520441 C1.4701082,8.89818915 1.22691158,9.46675562 1.2357197,10.059442 L1.24318701,10.208653 C1.33585724,11.2923462 2.25289359,12.135204 3.35720312,12.1187925 L3.776,12.112 L4.65729651,17.3576399 C4.89982557,18.8026525 6.15068985,19.8610693 7.61591404,19.8610693 L16.384086,19.8610693 L16.5660651,19.8556053 C17.9517983,19.7721968 19.1102798,18.7424437 19.3427035,17.3576399 L20.223,12.112 L20.6427969,12.1187925 C21.2354885,12.1276006 21.8040497,11.884404 22.2070344,11.449711 C22.9920164,10.602964 22.9419458,9.28018632 22.0951988,8.49520441 L14.0395623,1.02717825 C12.8890273,-0.0394321695 11.1109727,-0.0394321695 9.96043769,1.02717825 Z M12.6798541,2.49387304 L20.7354889,9.9618992 C20.7722045,9.995935 20.7743755,10.0532889 20.7403397,10.0900028 C20.7228668,10.1088505 20.6982144,10.1193952 20.6725163,10.1190133 L19.393867,10.1000108 C18.8998877,10.0926696 18.4745757,10.4471579 18.3928014,10.9343769 L17.3702918,17.0265928 C17.2894488,17.5082637 16.872494,17.8610693 16.384086,17.8610693 L7.61591404,17.8610693 C7.12750598,17.8610693 6.71055122,17.5082637 6.6297082,17.0265928 L5.60719856,10.9343769 C5.52542435,10.4471579 5.10011227,10.0926696 4.60613299,10.1000108 L3.32748367,10.1190133 C3.2774258,10.1197572 3.23624281,10.0797804 3.23548886,10.0297225 C3.23511697,10.0040244 3.24566166,9.9793721 3.26450939,9.9618992 L11.3201459,2.49387304 C11.7036576,2.13833623 12.2963424,2.13833623 12.6798541,2.49387304 Z" id="路径" fill-rule="nonzero"></path>
        </g>
    </g>
</svg>