<svg xmlns="http://www.w3.org/2000/svg" width="20" height="20" viewBox="0 0 20 20"><title>ic_trend_like_default</title><path fill="none" fill-rule="evenodd" stroke="#ADADAD" stroke-width="1.5" d="M13.997 1.753a5.503 5.503 0 0 0-3.996 1.545 5.533 5.533 0 0 0-4-1.545 5.43 5.43 0 0 0-3.94 1.851A5.291 5.291 0 0 0 .757 7.378a5.686 5.686 0 0 0 1.683 3.759l6.86 6.825a.98.98 0 0 0 .701.288.991.991 0 0 0 .702-.288l6.86-6.825a5.685 5.685 0 0 0 1.682-3.759 5.29 5.29 0 0 0-1.308-3.774 5.441 5.441 0 0 0-3.939-1.851z"/></svg>