<svg xmlns="http://www.w3.org/2000/svg" width="20" height="20" viewBox="0 0 20 20"><title>ic_trend_like_done</title><defs><linearGradient id="a" x1="0%" x2="100%" y1="9.5%" y2="76.996%"><stop offset="0%" stop-color="#FF8D8D"/><stop offset="100%" stop-color="#FF6CD2"/></linearGradient></defs><path fill="url(#a)" fill-rule="evenodd" d="M10 19c-.467 0-.902-.18-1.23-.507L1.91 11.67C-.47 9.302-.648 5.542 1.5 3.108a6.174 6.174 0 0 1 4.48-2.105A6.285 6.285 0 0 1 10 2.307a6.254 6.254 0 0 1 4.021-1.304A6.184 6.184 0 0 1 18.5 3.108c2.15 2.434 1.97 6.194-.409 8.56l-6.86 6.827c-.33.326-.765.505-1.23.505z"/></svg>