<?xml version="1.0" encoding="UTF-8"?>
<svg width="32px" height="32px" viewBox="0 0 32 32" version="1.1" xmlns="http://www.w3.org/2000/svg" xmlns:xlink="http://www.w3.org/1999/xlink">
    <!-- Generator: Sketch 63.1 (92452) - https://sketch.com -->
    <title>矩形</title>
    <desc>Created with Sketch.</desc>
    <g id="首页" stroke="none" stroke-width="1" fill="none" fill-rule="evenodd">
        <g id="首页-定稿备份-4" transform="translate(-38.000000, -122.000000)" fill="#FFFFFF">
            <g id="快速开黑" transform="translate(20.000000, 108.000000)">
                <g id="编组-3" transform="translate(18.000000, 14.000000)">
                    <g id="icon-快速开黑" transform="translate(5.333333, 0.333333)">
                        <path d="M9.20431637,20.356463 L3.69455659,20.356463 C2.97517214,20.356463 2.4788859,19.6540298 2.73486934,18.9985089 L8.20985901,4.97844659 C8.361492,4.59011877 8.74312108,4.33333333 9.16906501,4.33333333 L18.4075286,4.33333333 C19.1366182,4.33333333 19.6333456,5.05380371 19.3582726,5.71253289 L16.1704908,13.3462948 L22.1716441,13.3462948 C23.0542516,13.3462948 23.525152,14.3612683 22.9430434,15.008377 L8.22959015,31.3649795 C7.51445672,32.1603375 6.18833979,31.4712072 6.46577883,30.448565 L9.20431637,20.356463 Z" id="Fill-1备份" opacity="0.300000012"></path>
                        <path d="M6.53764971,16.0231296 L1.02788992,16.0231296 C0.308505473,16.0231296 -0.187780764,15.3206964 0.0682026745,14.6651756 L5.54319234,0.645113257 C5.69482534,0.256785438 6.07645441,0 6.50239834,0 L15.7408619,0 C16.4699515,0 16.9666789,0.720470373 16.691606,1.37919956 L13.5038241,9.01296151 L19.5049775,9.01296151 C20.3875849,9.01296151 20.8584854,10.027935 20.2763767,10.6750437 L5.56292348,27.0316462 C4.84779005,27.8270041 3.52167312,27.1378739 3.79911217,26.1152316 L6.53764971,16.0231296 Z" id="Fill-1"></path>
                    </g>
                </g>
            </g>
        </g>
    </g>
</svg>