<?xml version="1.0" encoding="UTF-8"?>
<svg width="32px" height="32px" viewBox="0 0 32 32" version="1.1" xmlns="http://www.w3.org/2000/svg" xmlns:xlink="http://www.w3.org/1999/xlink">
    <!-- Generator: Sketch 63.1 (92452) - https://sketch.com -->
    <title>矩形</title>
    <desc>Created with Sketch.</desc>
    <g id="首页" stroke="none" stroke-width="1" fill="none" fill-rule="evenodd">
        <g id="首页-定稿备份-4" transform="translate(-210.000000, -122.000000)" fill="#FFFFFF" fill-rule="nonzero">
            <g id="匹配聊天" transform="translate(193.000000, 108.000000)">
                <g id="编组-4" transform="translate(17.000000, 14.000000)">
                    <g id="icon-匹配聊天" transform="translate(5.333333, 0.333333)">
                        <g id="编组-2">
                            <path d="M12.1207407,4.66666667 L15.9992593,4.66666667 C19.7478409,4.66666667 22.7866667,7.70549247 22.7866667,11.4540741 L22.7866667,31.8162963 L22.7866667,31.8162963 L12.1207407,31.8162963 C8.37215914,31.8162963 5.33333333,28.7774705 5.33333333,25.0288889 L5.33333333,11.4540741 C5.33333333,7.70549247 8.37215914,4.66666667 12.1207407,4.66666667 Z" id="矩形备份-2" opacity="0.300000012"></path>
                            <path d="M13.2125926,-7.97584221e-13 C16.9611742,-7.98272824e-13 20,3.03882581 20,6.78740741 L20,27.1496296 L6.78740741,27.1496296 C3.03882581,27.1496296 -1.31728799e-15,24.1108038 0,20.3622222 L0,6.78740741 C-2.23542569e-15,3.03882581 3.03882581,-7.96895618e-13 6.78740741,-7.97584221e-13 L13.2125926,-7.97584221e-13 Z M10.2676466,11.4012363 L10.256401,11.4122595 L9.99887543,11.6657936 L9.74134988,11.4111572 C8.73823724,10.4223743 7.10649236,10.417965 6.09888146,11.4023386 L6.08988493,11.4111572 C5.08114947,12.4043494 5.08114947,14.0104326 6.08988493,15.0047272 L9.58278611,18.4957812 C9.80882382,18.7206549 10.1776814,18.7239618 10.4082174,18.5034974 L10.4160893,18.4957812 L13.9101151,15.0047272 C14.9188505,14.011535 14.9188505,12.4054517 13.9101151,11.4111572 C12.9070024,10.4223743 11.2752575,10.417965 10.2676466,11.4012363 Z" id="形状结合"></path>
                        </g>
                    </g>
                </g>
            </g>
        </g>
    </g>
</svg>