<svg xmlns="http://www.w3.org/2000/svg" width="32" height="32" viewBox="0 0 32 32"><title>最新消息</title><g fill="none" fill-rule="evenodd"><path stroke="#FFF" stroke-width="2" d="M21 10a2.99 2.99 0 0 1 2.121.879A2.99 2.99 0 0 1 24 13h0v5a2.99 2.99 0 0 1-.879 2.121A2.99 2.99 0 0 1 21 21h0-2.586L16 23.414 13.586 21H11a2.99 2.99 0 0 1-2.121-.879A2.99 2.99 0 0 1 8 18h0v-5c0-.828.336-1.578.879-2.121A2.99 2.99 0 0 1 11 10h0z"/><rect width="10" height="2" x="11" y="13" fill="#FFF" rx="1"/><rect width="6" height="2" x="11" y="16" fill="#FFF" rx="1"/></g></svg>