<svg xmlns="http://www.w3.org/2000/svg" xmlns:xlink="http://www.w3.org/1999/xlink" width="32" height="32" viewBox="0 0 32 32"><title>礼物</title><defs><linearGradient id="b" x1="50%" x2="50%" y1="0%" y2="100%"><stop offset="0%" stop-color="#FFC29A"/><stop offset="100%" stop-color="#E33E3E"/></linearGradient><circle id="a" cx="16" cy="16" r="16"/><filter id="c" width="280%" height="325%" x="-90%" y="-112.5%" filterUnits="objectBoundingBox"><feGaussianBlur in="SourceGraphic" stdDeviation="5.647"/></filter><linearGradient id="e" x1="100%" x2="9.547%" y1="-.562%" y2="81.189%"><stop offset="0%" stop-color="#EAC96E"/><stop offset="100%" stop-color="#F6BC64"/></linearGradient><filter id="f" width="433.3%" height="463.6%" x="-166.7%" y="-181.8%" filterUnits="objectBoundingBox"><feGaussianBlur in="SourceGraphic" stdDeviation="6.275"/></filter><linearGradient id="g" x1="89.738%" x2="19.362%" y1="30.108%" y2="69.804%"><stop offset="0%" stop-color="#FFE4A0"/><stop offset="100%" stop-color="#F76394"/></linearGradient><filter id="h" width="385.7%" height="600%" x="-142.9%" y="-250%" filterUnits="objectBoundingBox"><feGaussianBlur in="SourceGraphic" stdDeviation="6.275"/></filter><linearGradient id="j" x1="89.738%" x2="19.362%" y1="30.108%" y2="69.804%"><stop offset="0%" stop-color="#FFEFC7"/><stop offset="100%" stop-color="#FFE48C"/></linearGradient><path id="i" d="M3.765 7.53a3.765 3.765 0 1 1 2.824-6.254A3.765 3.765 0 1 1 9.412 7.53H3.765zm5.647-5.02l-.094.003c-.65.048-1.161.59-1.161 1.252V5.02h1.255l.093-.004a1.255 1.255 0 0 0-.093-2.506zm-5.647 0a1.255 1.255 0 0 0-.094 2.506l.094.004H5.02V3.765c0-.662-.512-1.204-1.162-1.252l-.093-.003z"/><filter id="k" width="175%" height="700%" x="-37.5%" y="-300%" filterUnits="objectBoundingBox"><feGaussianBlur in="SourceGraphic" stdDeviation="1.882"/></filter><linearGradient id="n" x1="64.74%" x2="27.96%" y1="34.964%" y2="65.036%"><stop offset="0%" stop-color="#FFD1B1"/><stop offset="99.929%" stop-color="#FFE18B"/></linearGradient><path id="m" d="M0 0h19.451v6.902a3.765 3.765 0 0 1-3.765 3.765H3.765A3.765 3.765 0 0 1 0 6.902V0z"/><linearGradient id="o" x1="50%" x2="50%" y1="0%" y2="100%"><stop offset="0%" stop-color="#FFF"/><stop offset="100%" stop-color="#FFF"/></linearGradient><filter id="q" width="190%" height="400%" x="-45%" y="-150%" filterUnits="objectBoundingBox"><feGaussianBlur in="SourceGraphic" stdDeviation="2.824"/></filter><linearGradient id="r" x1="50%" x2="50%" y1="0%" y2="100%"><stop offset="0%" stop-color="#E76042"/><stop offset="100%" stop-color="#FD8253" stop-opacity="0"/></linearGradient><linearGradient id="t" x1="94.81%" x2="4.124%" y1="48.941%" y2="53.478%"><stop offset="0%" stop-color="#FF8C6D"/><stop offset="100%" stop-color="#FFDCA9"/></linearGradient><rect id="s" width="20.706" height="6.588" x="0" y="0" rx="1.882"/><linearGradient id="u" x1="100%" x2="0%" y1="50.413%" y2="50%"><stop offset="0%" stop-color="#FFF" stop-opacity=".704"/><stop offset="100%" stop-color="#FFF" stop-opacity=".264"/></linearGradient><linearGradient id="w" x1="50%" x2="50%" y1="0%" y2="100%"><stop offset="0%" stop-color="#FFFEFD"/><stop offset="100%" stop-color="#FFEDAE"/></linearGradient></defs><g fill="none" fill-rule="evenodd"><mask id="d" fill="#fff"><use xlink:href="#a"/></mask><use fill="url(#b)" xlink:href="#a"/><ellipse cx="16" cy="17.412" fill="#B521CD" filter="url(#c)" mask="url(#d)" rx="9.412" ry="7.529"/><g mask="url(#d)"><g transform="translate(2.824 2.824)"><ellipse cx="13.176" cy="17.412" fill="url(#e)" filter="url(#f)" rx="5.647" ry="5.176"/><path fill="url(#g)" d="M7.53 7.53a3.765 3.765 0 1 1 2.824-6.254 3.765 3.765 0 1 1 2.823 6.254H7.528zm5.646-5.02l-.093.003c-.65.048-1.161.59-1.161 1.252V5.02h1.254l.094-.004a1.255 1.255 0 0 0-.094-2.506zm-5.647 0a1.255 1.255 0 0 0-.093 2.506l.093.004h1.255V3.765c0-.662-.512-1.204-1.16-1.252l-.095-.003z" filter="url(#h)" transform="translate(2.824 1.882)"/><g transform="translate(6.588 1.882)"><mask id="l" fill="#fff"><use xlink:href="#i"/></mask><use fill="url(#j)" xlink:href="#i"/><path fill="#FF817E" d="M-.941 4.706h15.059v1.882H-.941z" filter="url(#k)" mask="url(#l)"/></g><g transform="translate(3.451 13.176)"><mask id="p" fill="#fff"><use xlink:href="#m"/></mask><use fill="url(#n)" xlink:href="#m"/><path fill="url(#o)" d="M7.529.314h4.392v10.353H7.529z" mask="url(#p)"/><ellipse cx="9.725" cy="10.353" fill="#FFCA8B" filter="url(#q)" mask="url(#p)" rx="9.412" ry="2.824"/></g><path fill="url(#r)" d="M.627 11.294h19.451v3.765H.627z" transform="translate(2.824 1.882)"/><g transform="translate(2.824 7.53)"><mask id="v" fill="#fff"><use xlink:href="#s"/></mask><use fill="url(#t)" xlink:href="#s"/><path fill="url(#u)" d="M0-.941h20.706V.941H0z" mask="url(#v)"/></g><path fill="url(#w)" d="M8.157 5.647h4.392v6.588H8.157z" transform="translate(2.824 1.882)"/></g></g></g></svg>