<svg xmlns="http://www.w3.org/2000/svg" width="48" height="48" viewBox="0 0 48 48"><title>红包相册</title><g fill="#FFF" fill-rule="evenodd" transform="translate(13 14)"><path fill-rule="nonzero" d="M17 0a5 5 0 0 1 5 5v10a5 5 0 0 1-5 5H5a5 5 0 0 1-5-5V5a5 5 0 0 1 5-5zm-3.312 10.044L5.731 18H17c1.297 0 2.4-.822 2.82-1.974l-6.132-5.982zM17 2H5a3 3 0 0 0-3 3v10c0 1.06.55 1.99 1.379 2.524l8.895-8.895a2 2 0 0 1 2.683-.131l.128.114L20 13.408V5a3 3 0 0 0-2.824-2.995L17 2z"/><circle cx="7" cy="6.5" r="2"/></g></svg>