<svg xmlns="http://www.w3.org/2000/svg" width="32" height="32" viewBox="0 0 32 32"><title>base</title><g fill="#FFF" fill-rule="evenodd" transform="translate(8 7)"><path fill-rule="nonzero" d="M1.865 11.5A7.084 7.084 0 0 0 8 15c.797 0 1.571-.13 2.296-.375l1.538 1.538A9.127 9.127 0 0 1 9 16.947V18a1 1 0 0 1-2 0v-1.053a9.072 9.072 0 0 1-6.863-4.44A1 1 0 1 1 1.865 11.5zM2 6.327l2.015 2.017a4.001 4.001 0 0 0 3.641 3.641l1.83 1.83a6 6 0 0 1-7.483-5.59L2.001 8V6.327zm13.504 4.81a1 1 0 0 1 .361 1.367 8.998 8.998 0 0 1-.835 1.198l-1.422-1.423c.193-.247.37-.508.529-.781a1 1 0 0 1 1.367-.361zM8 0a6 6 0 0 1 5.996 5.775L14 6v2a5.973 5.973 0 0 1-1.146 3.527l-1.44-1.44c.339-.555.547-1.198.581-1.887L12 8V6a4 4 0 0 0-7.145-2.472l-1.42-1.42A5.987 5.987 0 0 1 8 0zm1 5a1 1 0 1 1 0 2h-.672L6.476 5.148A.995.995 0 0 1 7 5h2z"/><rect width="2" height="19" x="7" rx="1" transform="scale(-1 1) rotate(45 0 -9.814)"/></g></svg>