<?xml version="1.0" encoding="UTF-8"?>
<svg width="24px" height="24px" viewBox="0 0 24 24" version="1.1" xmlns="http://www.w3.org/2000/svg" xmlns:xlink="http://www.w3.org/1999/xlink">
    <title>ic_love</title>
    <g id="ic_love" stroke="none" stroke-width="1" fill="none" fill-rule="evenodd">
        <path d="M16.3942541,3.40287806 C15.0002664,3.35917503 13.6413398,3.810215 12.5548244,4.66055751 C12.3593922,4.81350913 12.1743824,4.97812033 12.000665,5.15318897 C11.8267685,4.97843106 11.6416034,4.81381905 11.4460228,4.6610067 C10.3572049,3.81028377 8.99161821,3.36122934 7.60409566,3.40294255 C5.94521847,3.45452899 4.4274321,4.17701826 3.32703297,5.43460815 C2.3026293,6.60718551 1.83650545,8.10061678 1.90693326,9.58423732 C1.97769894,11.0749753 2.58941396,12.556921 3.72485837,13.7046958 L10.5822,19.9818857 C10.9834786,20.3492148 11.4918111,20.5328806 12.0001443,20.5328827 C12.5084775,20.5328847 13.0168115,20.349223 13.4180929,19.981897 L20.2755507,13.7047019 C21.4110216,12.5568321 22.0227386,11.0747342 22.0931422,9.58386833 C22.1631929,8.10047565 21.6965675,6.6073268 20.6708615,5.43441094 C19.5723963,4.17863744 18.0522601,3.45653503 16.3942541,3.40287806 Z" id="路径" stroke="#CBCBCB" stroke-width="1.8"></path>
    </g>
</svg>