<?xml version="1.0" encoding="UTF-8"?>
<svg width="19px" height="19px" viewBox="0 0 19 19" version="1.1" xmlns="http://www.w3.org/2000/svg" xmlns:xlink="http://www.w3.org/1999/xlink">
    <title>警长</title>
    <defs>
        <path d="M11.6467378,1.90133044 L11.8947341,2.02523818 L11.9360109,2.31461457 C12.1343873,3.93728379 13.3954263,4.07834329 13.5326024,4.08703178 L13.9156419,4.08752601 L13.9549039,4.45953339 C13.9549039,4.48262753 14.0289518,5.21065215 13.9692692,6.31355881 L10.8700744,8.51183109 L13.5489584,9.17955466 C12.8759888,11.9102923 11.2255564,15.1065136 7.27414004,16.6658544 L7.19150904,16.7072345 L6.77822491,16.7072345 L6.69559391,16.6658544 C4.8998073,15.9574674 3.57941252,14.910583 2.61063925,13.7227869 L3.98222328,10.482805 L1.08187028,11.1632243 C-0.322929696,7.85741035 0.0332829434,4.50947975 0.0582249082,4.45953339 L0.0995791517,4.08752601 L0.471509041,4.08752601 C0.636874355,4.08752601 1.91387066,3.96361826 2.07923598,2.35589132 L2.12051273,2.06661826 L2.36850904,1.94260719 C5.91453856,0.580861801 6.61497768,0.334983572 6.78034299,0.252352576 L6.86297399,0.210972502 L7.01042791,0.211412093 C7.12947583,0.217859429 7.40051155,0.318867689 11.6467378,1.90133044 Z" id="path-1"></path>
        <polygon id="path-3" points="6.98698155 3.85677491 5.58388192 6.78499631 2.40988561 7.27879336 4.72006642 9.58907749 4.18491513 12.8478229 7.03037638 11.3228303 9.87583764 12.8478229 9.3405572 9.58907749 11.6467343 7.27879336 8.47061993 6.78499631"></polygon>
        <filter x="-5.4%" y="-5.6%" width="110.8%" height="111.1%" filterUnits="objectBoundingBox" id="filter-4">
            <feOffset dx="-1" dy="0" in="SourceAlpha" result="shadowOffsetInner1"></feOffset>
            <feComposite in="shadowOffsetInner1" in2="SourceAlpha" operator="arithmetic" k2="-1" k3="1" result="shadowInnerInner1"></feComposite>
            <feColorMatrix values="0 0 0 0 0.436282835   0 0 0 0 0.436282835   0 0 0 0 0.436282835  0 0 0 1 0" type="matrix" in="shadowInnerInner1"></feColorMatrix>
        </filter>
    </defs>
    <g id="页面-1" stroke="none" stroke-width="1" fill="none" fill-rule="evenodd">
        <g id="弹窗-复盘展开2" transform="translate(-233.000000, -1313.000000)">
            <g id="撕毁警徽" transform="translate(50.000000, 1290.000000)">
                <g id="警长" transform="translate(183.000000, 21.000000)">
                    <g id="gongandunpai-2" transform="translate(9.879039, 11.014852) rotate(-14.000000) translate(-9.879039, -11.014852) translate(2.879039, 2.014852)">
                        <g id="路径-4" transform="translate(-0.000004, 0.798326)">
                            <mask id="mask-2" fill="white">
                                <use xlink:href="#path-1"></use>
                            </mask>
                            <path stroke="#545454" d="M6.55684798,-0.194916897 C6.4769684,-0.155002062 6.26496356,-0.0769618857 5.63496184,0.161631628 C4.98293003,0.408568353 3.91041036,0.814235482 1.58186005,2.30473293 C1.53760863,2.73495734 1.39834724,3.03124524 1.21650142,3.22710594 C0.83724196,3.63559498 0.338996158,3.69542135 -0.389100463,4.23615028 C-0.416447662,4.29091313 -0.913967834,8.08802794 0.793588277,11.7444298 L3.13801338,11.1944305 L2.03461991,13.8008876 C3.07303867,15.148309 4.47170221,16.3515205 7.45767964,17.1309493 C11.8295328,15.4056922 13.5205261,11.7715847 14.1456286,8.81297942 L12.0471597,8.28992685 L14.4534049,6.58316675 C14.5437804,5.29183019 14.4592907,4.44586352 13.5642082,3.5880317 C13.5024491,3.58411999 13.1159139,3.53386187 12.8142247,3.19894887 C12.6019686,2.96331793 12.4368351,2.60712927 11.8213442,1.4328087 C7.37569776,-0.223972972 7.09526038,-0.281194467 6.55684798,-0.194916897 Z"></path>
                            <path d="M7.0745154,-2.27373675e-13 L7.07376591,0.15166333 C8.90814752,2.57965497 9.81800438,5.27772168 9.80333649,8.24586345 C9.78866859,11.2140052 8.85025923,14.293719 6.98810841,17.4850047 L12.0765472,14.6982822 L15.5500893,7.63105369 L16.3752479,3.30958235 L11.6135107,0.0611206592" fill="#F6F6F6" fill-rule="nonzero" mask="url(#mask-2)"></path>
                            <path d="M0.196547607,3.68159669 C0.629193884,6.90123357 1.30842202,9.38454906 2.234232,11.1315431 C3.16004199,12.8785372 4.90466908,14.969012 7.46811328,17.4029676 L0.558512804,15.6802107 L-1.39992222,11.4102702 L0.196547607,3.68159669 Z" id="路径-5" fill="#C1C1C1" fill-rule="nonzero" mask="url(#mask-2)"></path>
                        </g>
                        <g id="路径" fill-rule="nonzero">
                            <use fill="#A2A2A2" xlink:href="#path-3"></use>
                            <use fill="black" fill-opacity="1" filter="url(#filter-4)" xlink:href="#path-3"></use>
                        </g>
                    </g>
                </g>
            </g>
        </g>
    </g>
</svg>