<?xml version="1.0" encoding="UTF-8"?>
<svg width="19px" height="19px" viewBox="0 0 19 19" version="1.1" xmlns="http://www.w3.org/2000/svg" xmlns:xlink="http://www.w3.org/1999/xlink">
    <title>警长</title>
    <defs>
        <path d="M13.9549039,4.45953339 C13.9549039,4.54219021 14.9034685,13.6551053 7.27414004,16.6658544 L7.19150904,16.7072345 L6.77822491,16.7072345 L6.69559391,16.6658544 C-0.93159059,13.6571459 0.0169481554,4.54219021 0.0582249082,4.45953339 L0.0995791517,4.08752601 L0.471509041,4.08752601 C0.636874355,4.08752601 1.91387066,3.96361826 2.07923598,2.35589132 L2.12051273,2.06661826 L2.36850904,1.94260719 C5.91453856,0.580861801 6.61497768,0.334983572 6.78034299,0.252352576 L6.86297399,0.210972502 L6.98698506,0.210972502 C7.11099613,0.210972502 7.11099613,0.210972502 11.6467378,1.90133044 L11.8947341,2.02523818 L11.9360109,2.31461457 C12.142653,4.00489501 13.5023577,4.08752601 13.5437378,4.08752601 L13.9156419,4.08752601 L13.9549039,4.45953339 Z" id="path-1"></path>
        <polygon id="path-3" points="6.98698155 3.85677491 5.58388192 6.78499631 2.40988561 7.27879336 4.72006642 9.58907749 4.18491513 12.8478229 7.03037638 11.3228303 9.87583764 12.8478229 9.3405572 9.58907749 11.6467343 7.27879336 8.47061993 6.78499631"></polygon>
        <filter x="-5.4%" y="-5.6%" width="110.8%" height="111.1%" filterUnits="objectBoundingBox" id="filter-4">
            <feOffset dx="-1" dy="0" in="SourceAlpha" result="shadowOffsetInner1"></feOffset>
            <feComposite in="shadowOffsetInner1" in2="SourceAlpha" operator="arithmetic" k2="-1" k3="1" result="shadowInnerInner1"></feComposite>
            <feColorMatrix values="0 0 0 0 1   0 0 0 0 0.591018357   0 0 0 0 0  0 0 0 1 0" type="matrix" in="shadowInnerInner1"></feColorMatrix>
        </filter>
    </defs>
    <g id="页面-1" stroke="none" stroke-width="1" fill="none" fill-rule="evenodd">
        <g id="弹窗-复盘展开1" transform="translate(-233.000000, -1250.000000)">
            <g id="警长竞选" transform="translate(50.000000, 956.000000)">
                <g id="放逐" transform="translate(4.000000, 282.000000)">
                    <g id="警长" transform="translate(179.000000, 10.000000)">
                        <g id="gongandunpai-2" transform="translate(9.879039, 11.014852) rotate(-14.000000) translate(-9.879039, -11.014852) translate(2.879039, 2.014852)">
                            <g id="路径-4" transform="translate(-0.000004, 0.798326)">
                                <mask id="mask-2" fill="white">
                                    <use xlink:href="#path-1"></use>
                                </mask>
                                <path stroke="#545454" d="M11.8213442,1.4328087 C7.00575591,-0.361841083 7.02048588,-0.281667084 6.37315453,-0.116250092 C5.9612188,0.0562825689 4.87315541,0.51187503 1.58186005,2.30473293 C1.54146001,2.69751316 1.42171795,2.97852575 1.25157996,3.18328582 C0.987641729,3.50093392 0.622683718,3.64287562 0.320649181,3.77403248 C0.153171363,3.84675882 -0.00186491822,3.91611857 -0.389100463,4.23615028 C-0.418064346,4.29415055 -0.972750466,8.5641306 1.29419849,12.3988634 C2.41639312,14.297149 4.21771493,16.0777376 7.45767964,17.1309493 C10.2738866,16.0195942 11.9763646,14.1158584 12.9820828,12.0944752 C13.6714495,10.7089238 14.0311807,9.26734561 14.1949859,7.98983433 C14.4918885,5.67430045 14.0877076,3.95019702 13.5642082,3.5880317 C13.5002264,3.58397921 13.1065212,3.51619732 12.7420616,3.09379169 C12.5015772,2.81507227 12.2797858,2.39776582 11.8213442,1.4328087 Z"></path>
                                <path d="M7.0745154,-4.54747351e-13 L7.07376591,0.15166333 C8.90814752,2.57965497 9.81800438,5.27772168 9.80333649,8.24586345 C9.78866859,11.2140052 8.85025923,14.293719 6.98810841,17.4850047 L12.0765472,14.6982822 L15.5500893,7.63105369 L16.3752479,3.30958235 L11.6135107,0.0611206592" fill="#F6F6F6" fill-rule="nonzero" mask="url(#mask-2)"></path>
                                <path d="M0.196547607,3.68159669 C0.629193884,6.90123357 1.30842202,9.38454906 2.234232,11.1315431 C3.16004199,12.8785372 4.90466908,14.969012 7.46811328,17.4029676 L0.558512804,15.6802107 L-1.39992222,11.4102702 L0.196547607,3.68159669 Z" id="路径-5" fill="#C1C1C1" fill-rule="nonzero" mask="url(#mask-2)"></path>
                            </g>
                            <g id="路径" fill-rule="nonzero">
                                <use fill="#FFC40A" xlink:href="#path-3"></use>
                                <use fill="black" fill-opacity="1" filter="url(#filter-4)" xlink:href="#path-3"></use>
                            </g>
                        </g>
                    </g>
                </g>
            </g>
        </g>
    </g>
</svg>