<?xml version="1.0" encoding="UTF-8"?>
<svg width="80px" height="80px" viewBox="0 0 80 80" version="1.1" xmlns="http://www.w3.org/2000/svg" xmlns:xlink="http://www.w3.org/1999/xlink">
    <title>编组 2</title>
    <defs>
        <linearGradient x1="96.9099761%" y1="31.4026706%" x2="-56.3104552%" y2="50%" id="linearGradient-1">
            <stop stop-color="#B281F5" offset="0%"></stop>
            <stop stop-color="#B281F5" offset="0%"></stop>
            <stop stop-color="#B281F5" offset="0%"></stop>
            <stop stop-color="#7963FF" offset="100%"></stop>
        </linearGradient>
    </defs>
    <g id="匹配聊天" stroke="none" stroke-width="1" fill="none" fill-rule="evenodd">
        <g id="镇楼音录制3" transform="translate(-147.000000, -645.000000)">
            <g id="编组-13" transform="translate(63.000000, 605.000000)">
                <g id="编组-2" transform="translate(84.000000, 40.000000)">
                    <circle id="椭圆形" fill="#FFFFFF" cx="40" cy="40" r="40"></circle>
                    <path d="M29,28 C30.1045695,28 31,28.8954305 31,30 L31,40.999 L51,41 C52.1045695,41 53,41.8954305 53,43 C53,44.1045695 52.1045695,45 51,45 L29.0252355,44.9998441 C29.0168361,44.9999479 29.0084241,45 29,45 C27.8954305,45 27,44.1045695 27,43 L27,30 C27,28.8954305 27.8954305,28 29,28 Z" id="形状结合" fill="url(#linearGradient-1)" transform="translate(40.000000, 36.500000) rotate(-45.000000) translate(-40.000000, -36.500000) "></path>
                </g>
            </g>
        </g>
    </g>
</svg>