<?xml version="1.0" encoding="UTF-8"?>
<svg width="80px" height="80px" viewBox="0 0 80 80" version="1.1" xmlns="http://www.w3.org/2000/svg" xmlns:xlink="http://www.w3.org/1999/xlink">
    <title>编组 11</title>
    <defs>
        <linearGradient x1="80.4408101%" y1="6.49898033%" x2="20.5753787%" y2="100%" id="linearGradient-1">
            <stop stop-color="#B281F5" offset="0%"></stop>
            <stop stop-color="#7963FF" offset="100%"></stop>
        </linearGradient>
    </defs>
    <g id="匹配聊天" stroke="none" stroke-width="1" fill="none" fill-rule="evenodd">
        <g id="镇楼音录制" transform="translate(-147.000000, -645.000000)">
            <g id="编组" transform="translate(84.000000, 605.000000)">
                <g id="编组-10" transform="translate(59.000000, 36.000000)">
                    <g id="编组-2" transform="translate(4.000000, 4.000000)">
                        <g id="编组-11">
                            <circle id="椭圆形" fill="#FFFFFF" cx="40" cy="40" r="40"></circle>
                            <g id="语音" transform="translate(22.000000, 20.000000)" fill-rule="nonzero">
                                <rect id="矩形" fill="#000000" opacity="0" x="0" y="0" width="36" height="36"></rect>
                                <path d="M31.4259656,16.3148491 C31.8454524,16.6550134 32.0601897,17.2123039 31.9852814,17.7716622 C31.2793346,24.331489 25.7117077,29.2782715 19.0007777,29.9275476 L19,33 L23.4993542,33 C24.0356497,33 24.5306123,33.286 24.7992767,33.75 C25.0669078,34.214 25.0669078,34.786 24.7992767,35.25 C24.5306122,35.714 24.0356497,36 23.4993542,36 L11.4993542,36 C10.6716611,36 10,35.328 10,34.5 C10,33.672 10.6716611,33 11.4993542,33 L16,33 L16.0004506,29.9282376 C9.28730867,29.2818441 3.71685185,24.3346661 3.00972877,17.7706282 C2.91784117,16.9207345 3.48714474,16.1525215 4.28217211,16.0522299 C5.07719952,15.9550401 5.79631978,16.5640272 5.88820737,17.413921 C6.44352801,22.5608446 11.2646301,26.8981979 17.4970057,26.8981979 C23.7313788,26.8981979 28.5514821,22.5608446 29.1068028,17.4149549 C29.1485115,16.8592987 29.4753913,16.3696859 29.9627556,16.1328767 C30.4447855,15.9041587 31.0099828,15.9744495 31.4259656,16.3148491 Z M17.5,0 C22.1940299,0 26,4.02999999 26,9 L26,15 C26,19.97 22.1940299,24 17.5,24 C12.8059701,24 9,19.97 9,15 L9,9 C9,4.02999999 12.8059701,0 17.5,0 Z" id="形状结合" fill="url(#linearGradient-1)"></path>
                            </g>
                        </g>
                    </g>
                </g>
            </g>
        </g>
    </g>
</svg>