<?xml version="1.0" encoding="UTF-8"?>
<svg width="19px" height="19px" viewBox="0 0 19 19" version="1.1" xmlns="http://www.w3.org/2000/svg" xmlns:xlink="http://www.w3.org/1999/xlink">
    <title>X</title>
    <g id="匹配聊天" stroke="none" stroke-width="1" fill="none" fill-rule="evenodd">
        <g id="交友卡写入" transform="translate(-20.000000, -59.000000)" fill="#FFFFFF" fill-rule="nonzero">
            <g id="标题栏" transform="translate(0.000000, 44.000000)">
                <g id="X" transform="translate(14.828427, 9.171573)">
                    <g id="编组" transform="translate(0.000000, -0.000000)">
                        <path d="M15,5 C15.5522847,5 16,5.44771525 16,6 L15.999,13.757 L24,13.7573593 C24.5522847,13.7573593 25,14.2050746 25,14.7573593 C25,15.3096441 24.5522847,15.7573593 24,15.7573593 L15.999,15.757 L16,24 C16,24.5522847 15.5522847,25 15,25 C14.4477153,25 14,24.5522847 14,24 L13.999,15.757 L6,15.7573593 C5.44771525,15.7573593 5,15.3096441 5,14.7573593 C5,14.2050746 5.44771525,13.7573593 6,13.7573593 L13.999,13.757 L14,6 C14,5.44771525 14.4477153,5 15,5 Z" id="形状结合" transform="translate(15.000000, 15.000000) rotate(45.000000) translate(-15.000000, -15.000000) "></path>
                    </g>
                </g>
            </g>
        </g>
    </g>
</svg>