<?xml version="1.0" encoding="UTF-8"?>
<svg width="60px" height="60px" viewBox="0 0 60 60" version="1.1" xmlns="http://www.w3.org/2000/svg" xmlns:xlink="http://www.w3.org/1999/xlink">
    <title>编组 9</title>
    <g id="匹配聊天" stroke="none" stroke-width="1" fill="none" fill-rule="evenodd">
        <g id="镇楼音录制" transform="translate(-295.000000, -358.000000)">
            <g id="编组-12" transform="translate(20.000000, 158.000000)">
                <g id="编组-9" transform="translate(275.000000, 200.000000)">
                    <g id="编组-10">
                        <path d="M60,0 L60,0 L60,0 L60,48 C60,54.627417 54.627417,60 48,60 L0,60 L0,60 C-4.05812251e-15,26.862915 26.862915,6.08718376e-15 60,0 Z" id="矩形" fill="#F6F7F9"></path>
                        <text id="换一个" font-family="PingFangSC-Semibold, PingFang SC" font-size="11" font-weight="500" fill="#202020" fill-opacity="0.703288899">
                            <tspan x="19" y="48">换一个</tspan>
                        </text>
                        <g id="编组-3" transform="translate(24.000000, 12.000000)" fill-rule="nonzero">
                            <g id="编组-6">
                                <g id="编组-7">
                                    <g id="换一换">
                                        <rect id="矩形" fill="#000000" opacity="0" x="0" y="0" width="24" height="24"></rect>
                                        <path d="M4.81875,9.159375 L6.83671875,11.690625 C7.1671875,12.1054688 7.09921875,12.7101563 6.684375,13.040625 C6.26953125,13.3710938 5.66484375,13.303125 5.334375,12.8882813 L4.60555317,11.9747413 C4.59771882,12.1126158 4.59375,12.2515386 4.59375,12.3914063 C4.59375,16.3875 7.8328125,19.6265625 11.8289063,19.6265625 C13.5914063,19.6265625 15.20625,18.9960938 16.4625,17.9484375 L16.4625,17.9484375 L16.4777512,17.9677188 L16.5714844,17.9057709 C16.8310006,17.7559392 17.1432101,17.7372102 17.4158996,17.849584 L17.5300781,17.9057709 C17.8266681,18.0770072 18.009375,18.3934649 18.009375,18.7359375 C18.009375,19.1075157 17.7979572,19.4297146 17.4888504,19.5888053 C15.9319237,20.8155056 13.9660682,21.5484375 11.8289063,21.5484375 C6.7734375,21.5484375 2.67421875,17.4492188 2.67421875,12.39375 C2.67421875,12.2956797 2.67577273,12.1979595 2.67885532,12.100615 L2.1328125,12.5367188 C1.71796875,12.8671875 1.115625,12.7992188 0.78515625,12.384375 C0.4546875,11.9695313 0.52265625,11.3648438 0.9375,11.034375 L3.38864134,9.07841213 C3.4137161,9.05343854 3.44042445,9.02959567 3.46875,9.00703125 C3.88359375,8.6765625 4.48828125,8.74453125 4.81875,9.159375 Z M11.8289063,3.23671875 C16.6988656,3.23671875 20.6814662,7.04061718 20.9671902,11.8388962 L21.5578125,11.2875 C21.946875,10.9265625 22.5539063,10.9476563 22.9148438,11.334375 C23.2757813,11.7210938 23.2546875,12.3304688 22.8679688,12.6914063 L20.5007813,14.8992188 C20.1980037,15.1818111 19.7587391,15.2302203 19.4090832,15.0523203 C19.2998042,15.0014301 19.198123,14.9293505 19.1109375,14.8359375 L16.903125,12.46875 C16.5398438,12.0796875 16.5609375,11.4726563 16.95,11.1117188 C17.3367188,10.7507813 17.9460938,10.771875 18.3070313,11.1585938 L19.0512856,11.9554505 C18.8270525,8.16126249 15.6794179,5.15390625 11.8289063,5.15390625 C10.1460938,5.15390625 8.596875,5.73046875 7.36875,6.69375 L7.42611004,6.65203884 C7.25069359,6.84605936 6.9970054,6.96796875 6.71484375,6.96796875 C6.18542704,6.96796875 5.75625,6.53879171 5.75625,6.009375 C5.75625,5.6813477 5.92101356,5.391803 6.17229682,5.21898474 L6.159375,5.203125 C7.71796875,3.97265625 9.68671875,3.23671875 11.8289063,3.23671875 Z" id="形状结合" fill-opacity="0.703288899" fill="#202020"></path>
                                    </g>
                                </g>
                            </g>
                        </g>
                    </g>
                </g>
            </g>
        </g>
    </g>
</svg>