<?xml version="1.0" encoding="UTF-8"?>
<svg width="80px" height="80px" viewBox="0 0 80 80" version="1.1" xmlns="http://www.w3.org/2000/svg" xmlns:xlink="http://www.w3.org/1999/xlink">
    <title>编组 12</title>
    <defs>
        <linearGradient x1="17.3166192%" y1="-22.2076152%" x2="110.444961%" y2="113.966113%" id="linearGradient-1">
            <stop stop-color="#B281F5" offset="0%"></stop>
            <stop stop-color="#7963FF" offset="100%"></stop>
        </linearGradient>
    </defs>
    <g id="匹配聊天" stroke="none" stroke-width="1" fill="none" fill-rule="evenodd">
        <g id="交友卡写入" transform="translate(-148.000000, -697.000000)">
            <g id="编组-12" transform="translate(148.000000, 697.000000)">
                <circle id="椭圆形备份" fill="#FFFFFF" cx="40" cy="40" r="40"></circle>
                <path d="M42.5301623,29.3798069 L42.6590187,29.4815231 L51.5858372,37.1330818 C53.2631405,38.5707704 53.4573867,41.0959703 52.0196981,42.7732737 C51.9308322,42.8769505 51.836745,42.9759747 51.7378156,43.0699672 L51.5858372,43.2071346 L42.6590187,50.8586933 C41.820367,51.5775376 40.557767,51.4804146 39.8389227,50.6417629 C39.1560206,49.8450438 39.2095291,48.6657113 39.9356262,47.9334508 L40.0558532,47.8216669 L46.648,42.17 L29,42.1701082 C27.8954305,42.1701082 27,41.2746777 27,40.1701082 C27,39.0655387 27.8954305,38.1701082 29,38.1701082 L46.649,38.17 L40.0558532,32.5185495 C39.2172015,31.7997052 39.1200784,30.5371052 39.8389227,29.6984535 C40.5218248,28.9017344 41.6954664,28.7742449 42.5301623,29.3798069 Z" id="形状结合" fill="url(#linearGradient-1)" fill-rule="nonzero"></path>
            </g>
        </g>
    </g>
</svg>