<svg xmlns="http://www.w3.org/2000/svg" width="16" height="16" viewBox="0 0 16 16"><title>btn/room/notice备份 2@2x</title><path fill="#FFF" fill-rule="nonzero" d="M4.81 4.141l7.05 7.425c.186.195.186.512 0 .707-.184.195-.485.195-.67 0l-.963-1.014c-.498.372-1.084.62-1.716.701v.565c0 .262-.213.475-.475.475s-.475-.213-.475-.475v-.565C5.7 11.72 4.237 10.04 4.237 8v-.525c0-.262.213-.475.475-.475s.475.213.475.475V8c0 1.66 1.272 3 2.849 3 .556 0 1.074-.167 1.512-.455l-.701-.738c-.246.124-.521.193-.811.193-1.045 0-1.9-.9-1.9-2V6.951L4.139 4.848c-.185-.195-.185-.511 0-.707.185-.195.486-.195.672 0zM11.36 7c.262 0 .474.213.474.475V8c0 .62-.135 1.206-.375 1.728l-.724-.763c.097-.303.15-.627.15-.965v-.525c0-.262.212-.475.474-.475zM8.035 3c.532 0 1.006.22 1.348.58.342.36.551.86.551 1.42v3l-.005.119-3.66-3.854C6.55 3.525 7.237 3 8.036 3z"/></svg>