<?xml version="1.0" encoding="UTF-8"?>
<svg width="20px" height="20px" viewBox="0 0 20 20" version="1.1" xmlns="http://www.w3.org/2000/svg" xmlns:xlink="http://www.w3.org/1999/xlink">
    <title>编组 26</title>
    <g id="云游戏房间" stroke="none" stroke-width="1" fill="none" fill-rule="evenodd" opacity="0.800000012">
        <g id="和平精英" transform="translate(-299.000000, -436.000000)">
            <g id="编组-27" transform="translate(290.000000, 434.000000)">
                <g id="编组-26" transform="translate(19.000000, 12.000000) rotate(-90.000000) translate(-19.000000, -12.000000) translate(9.000000, 2.000000)">
                    <rect id="矩形" stroke="#FFFFFF" stroke-width="1.55555556" transform="translate(10.000000, 10.000000) rotate(-270.000000) translate(-10.000000, -10.000000) " x="1.44444444" y="1.44444444" width="17.1111111" height="17.1111111" rx="4.66666667"></rect>
                    <g id="展开" transform="translate(9.722222, 10.277778) rotate(-270.000000) translate(-9.722222, -10.277778) translate(3.222222, 3.777778)" fill-rule="nonzero">
                        <rect id="矩形" fill="#000000" opacity="0" x="0" y="0" width="12.4444444" height="12.4444444"></rect>
                        <path d="M6.13958333,7.23454861 C6.13958333,7.28923611 6.11770833,7.33784722 6.07517361,7.37916667 L3.97395833,9.48159722 L4.88541667,10.3930556 C4.965625,10.4732639 5.00572917,10.5680556 5.00572917,10.6774306 C5.00572917,10.7868056 4.965625,10.8828125 4.88541667,10.9618056 C4.80520833,11.0420139 4.70920139,11.0821181 4.60104167,11.0821181 L1.76579861,11.0821181 C1.65642361,11.0821181 1.56041667,11.0420139 1.48142361,10.9618056 C1.40121528,10.8815972 1.36111111,10.7855903 1.36111111,10.6774306 L1.36111111,7.84340278 C1.36111111,7.73402778 1.40121528,7.63802083 1.48142361,7.55902778 C1.56163194,7.47881944 1.65642361,7.43871528 1.76579861,7.43871528 C1.87517361,7.43871528 1.97118056,7.47881944 2.05017361,7.55902778 L2.96163194,8.47048611 L5.06284722,6.36805556 C5.10538194,6.32552083 5.15277778,6.30364583 5.20746528,6.30364583 C5.26215278,6.30364583 5.31076389,6.32552083 5.35208333,6.36805556 L6.07395833,7.08993056 C6.11770833,7.13246528 6.13958333,7.17986111 6.13958333,7.23454861 Z M11.0833333,1.76579861 L11.0833333,4.60104167 C11.0833333,4.71041667 11.0432292,4.80642361 10.9630208,4.88541667 C10.8828125,4.965625 10.7868056,5.00572917 10.6786458,5.00572917 C10.5692708,5.00572917 10.4732639,4.965625 10.3942708,4.88541667 L9.4828125,3.97395833 L7.38038194,6.07638889 C7.33784722,6.11892361 7.29045139,6.14079861 7.23576389,6.14079861 C7.18107639,6.14079861 7.13246528,6.11892361 7.09114583,6.07638889 L6.36805556,5.35451389 C6.32552083,5.31197917 6.30364583,5.26458333 6.30364583,5.20989583 C6.30364583,5.15520833 6.32552083,5.10659722 6.36805556,5.06527778 L8.47048611,2.96284722 L7.55902778,2.05138889 C7.47881944,1.97118056 7.43871528,1.87638889 7.43871528,1.76701389 C7.43871528,1.65763889 7.47881944,1.56163194 7.55902778,1.48263889 C7.63923611,1.40243056 7.73402778,1.36232639 7.84340278,1.36232639 L10.6786458,1.36232639 C10.7880208,1.36232639 10.8840278,1.40243056 10.9630208,1.48263889 C11.0420139,1.56041667 11.0833333,1.65642361 11.0833333,1.76579861 L11.0833333,1.76579861 Z" id="形状" fill="#FFFFFF"></path>
                    </g>
                </g>
            </g>
        </g>
    </g>
</svg>