<?xml version="1.0" encoding="UTF-8"?>
<svg width="31px" height="31px" viewBox="0 0 31 31" version="1.1" xmlns="http://www.w3.org/2000/svg" xmlns:xlink="http://www.w3.org/1999/xlink">
    <!-- Generator: Sketch 63 (92445) - https://sketch.com -->
    <title>椭圆形@3x</title>
    <desc>Created with Sketch.</desc>
    <g id="椭圆形" stroke="none" stroke-width="1" fill="none" fill-rule="evenodd">
        <circle fill-opacity="0.321323208" fill="#000000" cx="15.5" cy="15.5" r="15.5"></circle>
        <path d="M12.6002121,10.8603394 L15.5,13.76 L18.3997879,10.8603394 C18.8482103,10.411917 19.5566724,10.3820222 20.0397667,10.770655 L20.1396606,10.8603394 C20.6201131,11.340792 20.6201131,12.1197596 20.1396606,12.6002121 L20.1396606,12.6002121 L17.24,15.5 L20.1396606,18.3997879 C20.6201131,18.8802404 20.6201131,19.659208 20.1396606,20.1396606 C19.659208,20.6201131 18.8802404,20.6201131 18.3997879,20.1396606 L15.5,17.24 L12.6002121,20.1396606 C12.1517897,20.588083 11.4433276,20.6179778 10.9602333,20.229345 L10.8603394,20.1396606 C10.3798869,19.659208 10.3798869,18.8802404 10.8603394,18.3997879 L10.8603394,18.3997879 L13.76,15.5 L10.8603394,12.6002121 C10.3798869,12.1197596 10.3798869,11.340792 10.8603394,10.8603394 C11.340792,10.3798869 12.1197596,10.3798869 12.6002121,10.8603394 Z" id="形状结合" fill="#FFFFFF"></path>
    </g>
</svg>