<svg xmlns="http://www.w3.org/2000/svg" width="24" height="24" viewBox="0 0 24 24"><title>ic_room_biaoqing</title><path fill="#FFF" fill-rule="nonzero" d="M12 2c5.523 0 10 4.477 10 10s-4.477 10-10 10S2 17.523 2 12 6.477 2 12 2zM8.667 13.81c0 1.301 1.492 2.357 3.333 2.357 1.84 0 3.333-1.056 3.333-2.357 0-1.302-6.666-1.302-6.666 0zm.416-5.56c-.69 0-1.25.746-1.25 1.667 0 .92.56 1.666 1.25 1.666s1.25-.746 1.25-1.666c0-.92-.56-1.667-1.25-1.667zm5.834 0c-.69 0-1.25.746-1.25 1.667 0 .92.56 1.666 1.25 1.666s1.25-.746 1.25-1.666c0-.92-.56-1.667-1.25-1.667z"/></svg>