<svg xmlns="http://www.w3.org/2000/svg" width="32" height="32" viewBox="0 0 32 32"><title>ic_room_shangmai</title><g fill="none" fill-rule="evenodd"><g stroke="#FFF" stroke-width="2" transform="rotate(45 6.257 27.107)"><circle cx="6" cy="6" r="6" fill="#FFF"/><path stroke-linecap="square" d="M.5 6h11"/></g><path fill="#FFF" fill-rule="nonzero" d="M15.748 12.096l.518 1.52c.576 1.686 2.022 2.953 3.777 3.293l1.849.357-1.332 1.332-6.12 6.12c-1.563 1.562-4.095 1.562-5.658 0-1.562-1.563-1.562-4.095 0-5.657l6.966-6.965zm-.212 5.611c-.391-.39-1.024-.39-1.415 0l-1.414 1.414c-.39.39-.39 1.024 0 1.415.39.39 1.024.39 1.414 0l1.415-1.415c.39-.39.39-1.023 0-1.414z"/><path stroke="#FFF" stroke-linecap="round" stroke-width="2" d="M3 24c.82 1.107 2.135 1.825 3.619 1.825.945 0 1.822-.292 2.546-.79.222-.152.429-.324.62-.512"/></g></svg>