<svg xmlns="http://www.w3.org/2000/svg" width="24" height="24" viewBox="0 0 24 24"><title>ic_room_liwu</title><defs><linearGradient id="a" x1="0%" x2="133.984%" y1="30.469%" y2="82.581%"><stop offset="0%" stop-color="#FF578E"/><stop offset="100%" stop-color="#FE2C55"/></linearGradient><linearGradient id="b" x1="50%" x2="50%" y1="0%" y2="100%"><stop offset="0%" stop-color="#FF4581"/><stop offset="100%" stop-color="#E5274C"/></linearGradient><linearGradient id="c" x1="-7.872%" x2="97.387%" y1="50%" y2="51.107%"><stop offset="0%" stop-color="#CD1F58" stop-opacity=".8"/><stop offset="100%" stop-color="#B7092B"/></linearGradient><linearGradient id="d" x1="50%" x2="50%" y1="115.526%" y2="-13.884%"><stop offset="0%" stop-color="#FFA6C3"/><stop offset="100%" stop-color="#FF5F7E"/></linearGradient></defs><g fill="none" fill-rule="evenodd" transform="translate(2 2)"><path fill="url(#a)" d="M2 10h16v7c0 1.657-1.343 3-3 3H5c-1.657 0-3-1.343-3-3v-7z"/><rect width="20" height="4" y="6" fill="url(#b)" rx="1.5"/><path fill="#FFFDE9" d="M8 17l2.013-1.049L12 17V6H8z"/><path fill="#FFD2EB" d="M8 17l2.013-1.065L12 17v-7H8z"/><path fill="url(#c)" fill-opacity=".3" d="M7.733 12.094c3.033 0 7.601.393 10.267.906v-3H2v2.52c1.777-.342 3.688-.484 5.733-.426z"/><path fill="url(#d)" fill-rule="nonzero" d="M2.75 5.5C1.231 5.5 0 4.269 0 2.75S1.231 0 2.75 0h.5C4.408 0 5.425.606 6 1.519 6.576.606 7.593 0 8.75 0h.5C10.769 0 12 1.231 12 2.75S10.769 5.5 9.25 5.5h-6.5zm.5-4h-.5c-.69 0-1.25.56-1.25 1.25S2.06 4 2.75 4H5v-.75c0-.966-.784-1.75-1.75-1.75zm6 0h-.5C7.784 1.5 7 2.284 7 3.25V4h2.25c.69 0 1.25-.56 1.25-1.25S9.94 1.5 9.25 1.5z" transform="translate(4 .5)"/></g></svg>