<svg xmlns="http://www.w3.org/2000/svg" width="42" height="42" viewBox="0 0 42 42"><title>板凳</title><defs><linearGradient id="a" x1="50%" x2="50%" y1="0%" y2="100%"><stop offset="0%" stop-color="#FFFBC0"/><stop offset="100%" stop-color="#FF69EC"/></linearGradient><linearGradient id="b" x1="50%" x2="50%" y1="16.038%" y2="76.486%"><stop offset="0%" stop-color="#FFF7C1"/><stop offset="100%" stop-color="#FF75E8"/></linearGradient></defs><g fill="none" fill-rule="nonzero"><path fill="url(#a)" d="M5.7 19.497c.126-2.652-2.464-6.946-2.464-6.946l-.252-1.579C1.53-2.289 25.528-2.1 30.58 4.152c1.2 1.516 1.895 4.231 1.895 6.82 0 .758-.19 1.516-.19 1.516s-3.22 4.041-2.968 7.073c.127-.064-12.503-5.431-23.618-.064z" transform="translate(3 6)"/><path fill="url(#b)" d="M6.015 18.803C7.594 11.856.585 10.34.079 15.898c-.379 4.105 1.768 8.904 2.968 10.988.19.063.379.126.631.19h.758v1.326c0 .568.695 1.073 1.516 1.073.82 0 1.515-.505 1.515-1.073v-1.327h20.777v1.327c0 .568.694 1.073 1.515 1.073s1.516-.505 1.516-1.073v-1.327h.694c.253-.126.443-.315.758-.442 1.263-2.778 3.726-7.451 2.779-11.809-.632-2.905-4.863-3.536-5.747 0-.379 1.58-.442 2.021-.442 4.168-.19.063-10.735-6.252-23.302-.19z" transform="translate(3 6)"/></g></svg>