<?xml version="1.0" encoding="UTF-8"?>
<svg width="24px" height="24px" viewBox="0 0 24 24" version="1.1" xmlns="http://www.w3.org/2000/svg" xmlns:xlink="http://www.w3.org/1999/xlink">
    <title>ic_titlebar_close_w_right</title>
    <g id="ic_titlebar_close_w_right" stroke="none" stroke-width="1" fill="none" fill-rule="evenodd" opacity="0.600000024">
        <path d="M15,2 C16.1045695,2 17,2.8954305 17,4 L17,10 L23,10 C24.1045695,10 25,10.8954305 25,12 C25,13.1045695 24.1045695,14 23,14 L17,14 L17,20 C17,21.1045695 16.1045695,22 15,22 C13.8954305,22 13,21.1045695 13,20 L13,13.999 L7,14 C5.8954305,14 5,13.1045695 5,12 C5,10.8954305 5.8954305,10 7,10 L13,9.999 L13,4 C13,2.8954305 13.8954305,2 15,2 Z" id="形状结合" fill="#FFFFFF" fill-rule="nonzero" transform="translate(15.000000, 12.000000) rotate(-315.000000) translate(-15.000000, -12.000000) "></path>
    </g>
</svg>