<svg xmlns="http://www.w3.org/2000/svg" width="20" height="20" viewBox="0 0 20 20"><title>checkbox_selected备份 5</title><path fill="#313131" fill-rule="nonzero" d="M9.5 0a4 4 0 0 1 4 4h4a1 1 0 0 1 0 2H17v9a4 4 0 0 1-3.8 3.995L13 19H6a4 4 0 0 1-4-4V6h-.5a1 1 0 1 1 0-2h4a4 4 0 0 1 4-4zM15 6H4v9a2 2 0 0 0 1.85 1.995L6 17h7a2 2 0 0 0 2-2V6zM7.5 8a1 1 0 0 1 1 1v4a1 1 0 0 1-2 0V9a1 1 0 0 1 1-1zm4 0a1 1 0 0 1 1 1v4a1 1 0 0 1-2 0V9a1 1 0 0 1 1-1zm-2-6a2 2 0 0 0-2 2h4a2 2 0 0 0-1.85-1.995z" opacity=".4"/></svg>