<?xml version="1.0" encoding="UTF-8"?>
<svg width="32px" height="32px" viewBox="0 0 32 32" version="1.1" xmlns="http://www.w3.org/2000/svg" xmlns:xlink="http://www.w3.org/1999/xlink">
    <!-- Generator: Sketch 63.1 (92452) - https://sketch.com -->
    <title>ic_room_yizi2备份 3</title>
    <desc>Created with Sketch.</desc>
    <g id="ic_room_yizi2备份-3" stroke="none" stroke-width="1" fill="none" fill-rule="evenodd" opacity="0.900000036">
        <path d="M25.625,13.2 C26.3843915,13.2 27,13.8156085 27,14.575 L27,16 C27,21.712 22.765,26.416 17.375,27.088 L17.375,28.625 C17.375,29.3843915 16.7593915,30 16,30 C15.2406085,30 14.625,29.3843915 14.625,28.625 L14.625,27.088 C9.235,26.416 5,21.712 5,16 L5,14.575 C5,13.8156085 5.61560847,13.2 6.375,13.2 C7.13439153,13.2 7.75,13.8156085 7.75,14.575 L7.75,16 C7.75,20.648 11.435,24.4 16,24.4 C20.565,24.4 24.25,20.648 24.25,16 L24.25,14.575 C24.25,13.8156085 24.8656085,13.2 25.625,13.2 Z M16,3 C17.54,3 18.915,3.616 19.905,4.624 C20.895,5.632 21.5,7.032 21.5,8.6 L21.5,16 C21.5,19.08 19.025,21.6 16,21.6 C12.975,21.6 10.5,19.08 10.5,16 L10.5,8.6 C10.5,5.52 12.975,3 16,3 Z" id="形状结合" fill="#FFFFFF" fill-rule="nonzero"></path>
    </g>
</svg>