<svg xmlns="http://www.w3.org/2000/svg" width="24" height="24" viewBox="0 0 24 24"><title>ic_editshiled</title><g fill="#0BF" fill-rule="evenodd"><path fill-rule="nonzero" d="M11 1.923L3.773 6.095a2 2 0 0 0-1 1.732v8.346a2 2 0 0 0 1 1.732L11 22.077a2 2 0 0 0 2 0l7.227-4.172a2 2 0 0 0 1-1.732V7.827a2 2 0 0 0-1-1.732L13 1.923a2 2 0 0 0-2 0zM4.773 7.827L12 3.655l7.227 4.172v8.346L12 20.345l-7.227-4.172V7.827z"/><path d="M15.182 9.318a1 1 0 0 1 0 1.414l-3.452 3.452c-.52.52-1.154.912-1.851 1.144a.559.559 0 0 1-.707-.707 4.736 4.736 0 0 1 1.144-1.85l3.452-3.453a1 1 0 0 1 1.414 0z"/></g></svg>