<?xml version="1.0" encoding="UTF-8"?>
<svg width="16px" height="16px" viewBox="0 0 16 16" version="1.1" xmlns="http://www.w3.org/2000/svg" xmlns:xlink="http://www.w3.org/1999/xlink">
    <title>房间</title>
    <g id="房间" stroke="none" stroke-width="1" fill="none" fill-rule="evenodd">
        <g id="编组-8">
            <rect id="矩形" x="0" y="0" width="16" height="16"></rect>
            <path d="M8.69863504,4.26266724 L12.812607,7.92226503 C13.0294837,8.1151884 13.0489016,8.44739696 12.8559783,8.66427362 C12.7562448,8.77638991 12.6133444,8.84052979 12.4632883,8.84052979 L11.7194703,8.84052979 L11.7194703,11.9488503 C11.7194703,12.5293843 11.2488545,13 10.6683206,13 L5.33167485,13 C4.75114092,13 4.28052518,12.5293843 4.28052518,11.9488503 L4.28052518,8.84052979 L3.5367071,8.84052979 C3.24644014,8.84052979 3.01113227,8.60522192 3.01113227,8.31495496 C3.01113227,8.16489891 3.07527215,8.02199846 3.18738844,7.92226503 L7.30136039,4.26266724 C7.69971731,3.90830749 8.30027812,3.90830749 8.69863504,4.26266724 Z M8.00585383,10.2997391 L7.98274028,10.2997391 C7.40220635,10.2997391 6.93159062,10.7703548 6.93159062,11.3508888 L6.93159062,11.3508888 L6.93159062,13 L9.0570035,13 L9.0570035,11.3508888 C9.0570035,10.7703548 8.58638776,10.2997391 8.00585383,10.2997391 L8.00585383,10.2997391 Z" id="形状结合" fill="#FFFFFF"></path>
        </g>
    </g>
</svg>