<?xml version="1.0" encoding="UTF-8"?>
<svg width="70px" height="26px" viewBox="0 0 70 26" version="1.1" xmlns="http://www.w3.org/2000/svg" xmlns:xlink="http://www.w3.org/1999/xlink">
    <title>正在玩</title>
    <defs>
        <linearGradient x1="96.9099761%" y1="43.9986348%" x2="4.65599388%" y2="56.8979592%" id="linearGradient-1">
            <stop stop-color="#B281F5" offset="0%"></stop>
            <stop stop-color="#7963FF" offset="100%"></stop>
        </linearGradient>
    </defs>
    <g id="云游戏房间" stroke="none" stroke-width="1" fill="none" fill-rule="evenodd">
        <g id="选游戏" transform="translate(-193.000000, -376.000000)">
            <g id="正在玩" transform="translate(193.000000, 376.000000)">
                <path d="M12,0 L70,0 L70,0 L70,14 C70,20.627417 64.627417,26 58,26 L0,26 L0,26 L0,12 C-8.11624501e-16,5.372583 5.372583,1.21743675e-15 12,0 Z" id="矩形" fill="url(#linearGradient-1)"></path>
                <g id="编组-8" transform="translate(5.000000, 6.000000)" fill="#FFFFFF">
                    <path d="M9.54545455,9.85878046e-13 C11.5412405,9.85878046e-13 13.3956219,0.362400452 15.1085988,1.08720136 C16.7540013,1.78341634 17.8727712,3.34031002 18.0078421,5.121832 L18.4545455,11.0136381 C18.5476083,12.2410928 17.6280019,13.3115838 16.4005472,13.4046466 C15.7019325,13.457614 15.0190704,13.1790116 14.5568922,12.6524574 C12.8313101,10.6864772 11.2668915,9.70348706 9.86363636,9.70348706 C8.41868876,9.70348706 6.73450563,10.7457567 4.811087,12.830296 C3.90843358,13.8086559 2.38356805,13.8699558 1.40525096,12.9672559 C0.863901331,12.4677489 0.580676788,11.7481213 0.636363636,11.0136381 L1.08306755,5.12182425 C1.21814286,3.3403002 2.3369152,1.78340481 3.98232293,1.08719602 C5.69529633,0.362398672 7.54967354,9.85878046e-13 9.54545455,9.85878046e-13 Z M6.36363636,2.38636364 C4.75280584,2.38636364 3.4469697,3.69219978 3.4469697,5.3030303 C3.4469697,6.91386082 4.75280584,8.21969697 6.36363636,8.21969697 C7.97446688,8.21969697 9.28030303,6.91386082 9.28030303,5.3030303 C9.28030303,3.69219978 7.97446688,2.38636364 6.36363636,2.38636364 Z M13.5227273,2.12121212 C13.0834099,2.12121212 12.7272727,2.47734925 12.7272727,2.91666667 L12.7272727,2.91666667 L12.7272121,4.24221212 L11.6666667,4.24242424 C11.2273493,4.24242424 10.8712121,4.59856137 10.8712121,5.03787879 C10.8712121,5.4771962 11.2273493,5.83333333 11.6666667,5.83333333 L11.6666667,5.83333333 L12.7272121,5.83321212 L12.7272727,7.15909091 C12.7272727,7.59840832 13.0834099,7.95454545 13.5227273,7.95454545 C13.9620447,7.95454545 14.3181818,7.59840832 14.3181818,7.15909091 L14.3181818,7.15909091 L14.3172121,5.83321212 L15.3787879,5.83333333 C15.8181053,5.83333333 16.1742424,5.4771962 16.1742424,5.03787879 C16.1742424,4.59856137 15.8181053,4.24242424 15.3787879,4.24242424 L15.3787879,4.24242424 L14.3172121,4.24221212 L14.3181818,2.91666667 C14.3181818,2.47734925 13.9620447,2.12121212 13.5227273,2.12121212 Z M6.36363636,3.97727273 C7.09583205,3.97727273 7.68939394,4.57083461 7.68939394,5.3030303 C7.68939394,6.03522599 7.09583205,6.62878788 6.36363636,6.62878788 C5.63144067,6.62878788 5.03787879,6.03522599 5.03787879,5.3030303 C5.03787879,4.57083461 5.63144067,3.97727273 6.36363636,3.97727273 Z" id="形状结合"></path>
                </g>
            </g>
        </g>
    </g>
</svg>