<svg xmlns="http://www.w3.org/2000/svg" width="60" height="60" viewBox="0 0 60 60"><title>ic_videochat_answer</title><g fill="none" fill-rule="evenodd"><circle cx="30" cy="30" r="29.25" stroke="#FFF" stroke-width="1.5"/><path fill="#FFF" fill-rule="nonzero" d="M33.26 20c.76 0 1.454.43 1.792 1.11l.672 1.354c.17.34.516.555.896.555H39c1.657 0 3 1.343 3 3v10.504c0 1.657-1.343 3-3 3H21c-1.657 0-3-1.343-3-3V26.021c.001-1.656 1.344-3 3-3.001l2.39-.001c.375 0 .718-.21.889-.542l.717-1.392c.342-.666 1.029-1.085 1.778-1.085zm1.183 7.458c-.362-.315-.91-.278-1.225.085-.315.362-.277.91.085 1.225.612.532.961 1.295.961 2.11 0 1.543-1.252 2.795-2.796 2.795h-2.935c-.773 0-1.16.936-.614 1.483l1.344 1.344c.34.34.89.34 1.229 0 .296-.296.333-.752.113-1.09h.862c2.503 0 4.533-2.03 4.533-4.533 0-1.318-.567-2.558-1.557-3.42zm-3.71-2.204c-.338-.339-.888-.339-1.228 0-.296.297-.333.753-.113 1.09h-.859C26.03 26.342 24 28.372 24 30.876c0 1.318.567 2.558 1.556 3.42.363.314.91.277 1.226-.086.315-.36.278-.91-.086-1.224-.611-.533-.96-1.295-.96-2.109 0-1.544 1.252-2.796 2.796-2.796h2.931c.774 0 1.162-.936.615-1.483z"/></g></svg>