<svg xmlns="http://www.w3.org/2000/svg" width="60" height="60" viewBox="0 0 60 60"><title>ic_videochat_hangup</title><g fill="none" fill-rule="evenodd"><circle cx="30" cy="30" r="30" fill="#FF5353"/><path fill="#FFF" d="M24.486 31.575s.027.595-.037 1.621c-.062 1.029-.496 1.347-.79 1.574-.292.232-3.185.964-4.996.861-1.817-.09-1.69-.537-1.64-3.71.048-3.166 1.428-4.243 3.43-5.752 2-1.505 7.424-2.645 12.68-1.97 5.256.673 7.002 2.462 8.317 4.038 1.319 1.575 1.607 3.935 1.541 5.385-.062 1.452.06 2.209-3.547 1.94-3.605-.268-3.79-1.732-3.946-1.967-.158-.233-.146-2.581-.146-2.581s.363-1.502-1.327-2.04c-1.687-.535-5.437-.526-7.276-.29-1.84.242-2.17 1.465-2.17 1.465l-.093 1.426z"/></g></svg>