<svg xmlns="http://www.w3.org/2000/svg" width="60" height="60" viewBox="0 0 60 60"><title>ic_videochat_answer</title><g fill="none" fill-rule="evenodd"><circle cx="30" cy="30" r="30" fill="#00D747"/><path fill="#FFF" d="M33 21c1.657 0 3 1.343 3 3v12c0 1.657-1.343 3-3 3H20c-1.657 0-3-1.343-3-3V24c0-1.657 1.343-3 3-3h13zm9.786 3.878c.14.233.214.5.214.771v8.702c0 .828-.672 1.5-1.5 1.5-.272 0-.539-.074-.772-.214L38 34v-8l2.728-1.637c.71-.426 1.632-.196 2.058.515zM20.5 23c-.828 0-1.5.672-1.5 1.5s.672 1.5 1.5 1.5 1.5-.672 1.5-1.5-.672-1.5-1.5-1.5z"/></g></svg>