<?xml version="1.0" encoding="UTF-8"?>
<svg width="24px" height="24px" viewBox="0 0 24 24" version="1.1" xmlns="http://www.w3.org/2000/svg" xmlns:xlink="http://www.w3.org/1999/xlink">
    <!-- Generator: Sketch 61.2 (89653) - https://sketch.com -->
    <title>形状结合</title>
    <desc>Created with Sketch.</desc>
    <g id="形状结合" stroke="none" stroke-width="1" fill="none" fill-rule="evenodd" fill-opacity="0.40073208">
        <path d="M8.78928859,7.71966991 L12.002,10.932 L15.2159592,7.71966991 C15.4822257,7.45340335 15.8988894,7.4291973 16.1925009,7.64705176 L16.2766194,7.71966991 L16.2855779,7.72862842 C16.5784711,8.02152164 16.5784711,8.49639537 16.2855779,8.78928859 L16.2855779,8.78928859 L13.072,12.002 L16.2855779,15.2159592 C16.5784711,15.5088524 16.5784711,15.9837261 16.2855779,16.2766194 L16.2766194,16.2855779 C15.9837261,16.5784711 15.5088524,16.5784711 15.2159592,16.2855779 L12.002,13.072 L8.78928859,16.2855779 C8.52302203,16.5518444 8.10635835,16.5760505 7.81274685,16.358196 L7.72862842,16.2855779 L7.71966991,16.2766194 C7.4267767,15.9837261 7.4267767,15.5088524 7.71966991,15.2159592 L7.71966991,15.2159592 L10.932,12.002 L7.71966991,8.78928859 C7.4267767,8.49639537 7.4267767,8.02152164 7.71966991,7.72862842 L7.72862842,7.71966991 C8.02152164,7.4267767 8.49639537,7.4267767 8.78928859,7.71966991 Z" fill="#202020"></path>
    </g>
</svg>