<?xml version="1.0" encoding="UTF-8"?>
<svg width="16px" height="16px" viewBox="0 0 16 16" version="1.1" xmlns="http://www.w3.org/2000/svg" xmlns:xlink="http://www.w3.org/1999/xlink">
    <!-- Generator: Sketch 62 (91390) - https://sketch.com -->
    <title>icon/16/ID@2x</title>
    <desc>Created with Sketch.</desc>
    <g id="icon/16/ID" stroke="none" stroke-width="1" fill="none" fill-rule="evenodd" fill-opacity="0.404747596">
        <g transform="translate(1.000000, 1.000000)" fill="#202020" id="合并形状">
            <path d="M12,0 C13.1045695,-2.02906125e-16 14,0.8954305 14,2 L14,12 C14,13.1045695 13.1045695,14 12,14 L2,14 C0.8954305,14 1.3527075e-16,13.1045695 0,12 L0,2 C-1.3527075e-16,0.8954305 0.8954305,2.02906125e-16 2,0 L12,0 Z M4.23,3.5 L3,3.5 L3,10.5 L4.23,10.5 L4.23,3.5 Z M8.71,3.5 L6.1,3.5 L6.1,10.5 L8.71,10.5 C9.2566694,10.5 9.75833105,10.4100009 10.215,10.23 C10.671669,10.0499991 11.0649984,9.8033349 11.395,9.49 C11.7250017,9.1766651 11.9799991,8.8066688 12.16,8.38 C12.3400009,7.9533312 12.43,7.4933358 12.43,7 L12.43,7 L12.43,6.98 C12.43,6.4866642 12.3400009,6.02833545 12.16,5.605 C11.9799991,5.18166455 11.7250017,4.8133349 11.395,4.5 C11.0649984,4.1866651 10.671669,3.94166755 10.215,3.765 C9.75833105,3.58833245 9.2566694,3.5 8.71,3.5 L8.71,3.5 Z M8.71,4.62 C9.0766685,4.62 9.4099985,4.6799994 9.71,4.8 C10.0100015,4.9200006 10.264999,5.08499895 10.475,5.295 C10.6850011,5.50500105 10.8483328,5.7566652 10.965,6.05 C11.0816673,6.3433348 11.14,6.6599983 11.14,7 L11.14,7 L11.14,7.02 C11.14,7.3600017 11.0816673,7.67499855 10.965,7.965 C10.8483328,8.25500145 10.6850011,8.50499895 10.475,8.715 C10.264999,8.92500105 10.0100015,9.08833275 9.71,9.205 C9.4099985,9.32166725 9.0766685,9.38 8.71,9.38 L8.71,9.38 L7.33,9.38 L7.33,4.62 Z"></path>
        </g>
    </g>
</svg>