<svg xmlns="http://www.w3.org/2000/svg" width="24" height="24" viewBox="0 0 24 24"><title>ic_room_bimai</title><g fill="none" fill-rule="evenodd"><path fill="#FFF" fill-rule="nonzero" d="M4.5 3.575l3.499 3.499 7.251 7.25v.001l1.668 1.668 1.176 1.175h-.001l1.256 1.257c.39.39.39 1.023 0 1.414-.39.39-1.023.39-1.414 0l-1.32-1.32c-1.05.743-2.284 1.238-3.615 1.401V21c0 .552-.448 1-1 1s-1-.448-1-1v-1.08c-3.92-.48-7-3.84-7-7.92v-1c0-.552.448-1 1-1s1 .448 1 1v1c0 3.32 2.68 6 6 6 1.171 0 2.263-.334 3.185-.911l-1.475-1.475c-.52.247-1.1.386-1.71.386-2.2 0-4-1.8-4-4V9.903L3.086 4.99c-.39-.39-.39-1.024 0-1.415.39-.39 1.023-.39 1.414 0zM19 10c.552 0 1 .448 1 1v1c0 1.24-.284 2.412-.79 3.458l-1.526-1.526c.205-.606.316-1.256.316-1.932v-1c0-.552.448-1 1-1zm-7-8c1.12 0 2.12.44 2.84 1.16C15.56 3.88 16 4.88 16 6v6c0 .08-.002.16-.007.24L8.282 4.53C8.87 3.05 10.319 2 12 2z"/></g></svg>