<svg xmlns="http://www.w3.org/2000/svg" width="24" height="24" viewBox="0 0 24 24"><title>icon/nav/ic_nav_renqi@2x</title><g fill="none" fill-rule="evenodd"><path d="M0 0h24v24H0z"/><path stroke="#FFF" stroke-width="2" d="M16.454 5.635c-.613-.907-1.313-1.753-2.1-2.51-.306-.3-.823-.018-.735.405.166.828.341 1.92.341 2.898 0 1.815-1.181 3.286-2.984 3.286-1.347 0-2.45-.819-2.931-1.99-.088-.177-.122-.282-.175-.476-.096-.37-.577-.485-.788-.159-.157.238-.306.476-.446.731C5.595 9.618 5 11.714 5 13.952 5 17.846 8.133 21 12 21s7-3.154 7-7.048c0-3.075-.945-5.929-2.546-8.317z"/></g></svg>