<svg xmlns="http://www.w3.org/2000/svg" width="28" height="28" viewBox="0 0 28 28"><title>ic_erfan2</title><g fill="none" fill-rule="evenodd"><g opacity=".8"><path fill="#FFF" fill-rule="nonzero" d="M14.249 13.066l1.5 1.626L15.75 22a1.25 1.25 0 0 0 2.5 0l-.001-4.6 1.501 1.627V22a2.75 2.75 0 1 1-5.5 0l-.001-8.934zM6.171 4.31L7.53 5.783a4.238 4.238 0 0 0-3.631 1.311l-.15.167v5.477l.15.168a4.237 4.237 0 0 0 2.863 1.337L7 14.25c.289 0 .573-.029.851-.085a.75.75 0 0 1 .9.735L8.75 20a1.25 1.25 0 0 0 2.5 0V10c0-.063-.001-.126-.004-.189l1.503 1.63L12.75 20a2.75 2.75 0 0 1-2.582 2.745L10 22.75A2.75 2.75 0 0 1 7.25 20v-4.257L7 15.75a5.74 5.74 0 0 1-4.443-2.1l-.158-.2a.75.75 0 0 1-.15-.45V7a.75.75 0 0 1 .15-.45 5.743 5.743 0 0 1 3.772-2.24zM20 16.25l.238-.007a4.237 4.237 0 0 0 2.864-1.337l.15-.17V9.263l-.15-.169A4.25 4.25 0 0 0 15.75 12l-.001.48-1.405-1.522a5.752 5.752 0 0 1 10.258-2.406.75.75 0 0 1 .15.45v5.996a.75.75 0 0 1-.15.45l-.159.202a5.74 5.74 0 0 1-3.858 2.07l-1.436-1.555c.278.056.562.085.851.085zM8.289 4.395a5.756 5.756 0 0 1 4.4 4.769z"/><path stroke="#FFF" stroke-linecap="round" stroke-linejoin="round" stroke-width="1.5" d="M3.5 2.5l19.05 20.645"/></g></g></svg>