<?xml version="1.0" encoding="UTF-8"?>
<svg width="44px" height="44px" viewBox="0 0 44 44" version="1.1" xmlns="http://www.w3.org/2000/svg" xmlns:xlink="http://www.w3.org/1999/xlink">
    <!-- Generator: Sketch 63 (92445) - https://sketch.com -->
    <title>Close Button备份 2</title>
    <desc>Created with Sketch.</desc>
    <defs>
        <path d="M11.6659031,11.6626768 C12.1099039,11.218716 12.1099039,10.4700762 11.674609,10.0348205 L7.64377829,6.00435256 L11.674609,1.96517954 C12.1099039,1.52992383 12.1099039,0.781284004 11.6659031,0.337323177 C11.2219023,-0.115342764 10.4731951,-0.10663765 10.0379002,0.328618063 L5.9983636,4.35908596 L1.95882701,0.319912949 C1.54094392,-0.0979325354 0.774824907,-0.115342764 0.330824117,0.328618063 C-0.113176672,0.77257889 -0.104470774,1.53862894 0.32211822,1.96517954 L4.36165481,6.00435256 L0.32211822,10.0435256 C-0.104470774,10.4613711 -0.113176672,11.2274211 0.330824117,11.6713819 C0.774824907,12.1153428 1.54094392,12.0979325 1.95882701,11.6800871 L5.9983636,7.64091404 L10.0379002,11.6713819 C10.4731951,12.1066376 11.2219023,12.1153428 11.6659031,11.6626768 Z" id="path-1"></path>
    </defs>
    <g id="Close-Button备份-2" stroke="none" stroke-width="1" fill="none" fill-rule="evenodd">
        <g id="Close-Button">
            <rect id="Links-to" x="0" y="0" width="44" height="44"></rect>
            <g id="位图" transform="translate(16.000000, 16.000000)">
                <mask id="mask-2" fill="white">
                    <use xlink:href="#path-1"></use>
                </mask>
                <use id="蒙版" fill="#303030" fill-rule="nonzero" xlink:href="#path-1"></use>
            </g>
        </g>
    </g>
</svg>