<svg xmlns="http://www.w3.org/2000/svg" width="56" height="56" viewBox="0 0 56 56"><title>1备份 2</title><g fill="none" fill-rule="evenodd"><rect width="55.5" height="55.5" x=".25" y=".25" stroke="#FFF" stroke-opacity=".2" stroke-width=".5" rx="27.75"/><path fill="#FFF" fill-rule="nonzero" d="M28.249 27.066l1.5 1.626L29.75 36a1.25 1.25 0 0 0 2.5 0l-.001-4.6 1.501 1.627V36a2.75 2.75 0 1 1-5.5 0l-.001-8.934zm-8.078-8.756l1.359 1.473a4.238 4.238 0 0 0-3.631 1.311l-.15.167v5.477l.15.168a4.237 4.237 0 0 0 2.863 1.337l.238.007c.289 0 .573-.029.851-.085a.75.75 0 0 1 .9.735L22.75 34a1.25 1.25 0 0 0 2.5 0V24c0-.063-.001-.126-.004-.189l1.503 1.63L26.75 34a2.75 2.75 0 0 1-2.582 2.745L24 36.75A2.75 2.75 0 0 1 21.25 34v-4.257l-.25.007a5.74 5.74 0 0 1-4.443-2.1l-.158-.2a.75.75 0 0 1-.15-.45v-6a.75.75 0 0 1 .15-.45 5.743 5.743 0 0 1 3.772-2.24zM34 30.25l.238-.007a4.237 4.237 0 0 0 2.864-1.337l.15-.17v-5.473l-.15-.169A4.25 4.25 0 0 0 29.75 26l-.001.48-1.405-1.522a5.752 5.752 0 0 1 10.258-2.406.75.75 0 0 1 .15.45v5.996a.75.75 0 0 1-.15.45l-.159.202a5.74 5.74 0 0 1-3.858 2.07l-1.436-1.555c.278.056.562.085.851.085zM22.289 18.395a5.756 5.756 0 0 1 4.4 4.769z"/><path stroke="#FFF" stroke-linecap="round" stroke-linejoin="round" stroke-width="1.5" d="M17.5 16.5l19.05 20.645"/></g></svg>