<svg xmlns="http://www.w3.org/2000/svg" width="32" height="32" viewBox="0 0 32 32"><title>ic_room_yizi</title><g fill="#FFF" fill-rule="evenodd"><path d="M16.29 5c4.289 0 7.35 1.05 9.555 2.746 1.525 1.173 1.751 2.655 1.746 4.313-.17-.019-.344-.028-.52-.028h-.43c-.21 0-.42.018-.628.052-2.082.347-3.489 2.316-3.142 4.398l.058.348c-2.209-.701-3.797-1.048-6.64-1.048-2.841 0-4.43.347-6.639 1.048l.058-.348c.035-.207.052-.418.052-.628 0-2.11-1.711-3.822-3.822-3.822h-.48l-.086.002c-.13.004-.258.012-.385.026-.004-1.658.223-3.14 1.747-4.313C8.94 6.049 12.001 5 16.29 5z"/><path d="M5.938 13.438c1.334 0 2.416 1.08 2.416 2.415 0 .133-.011.266-.033.397l-.306 1.834c-.042.255.13.497.386.54.098.016.198 0 .287-.044 1.846-.928 4.38-1.392 7.602-1.392 3.364 0 5.98.506 7.843 1.518.226-.139.371-.182.434-.298.025-.047.034-.1.026-.153l-.335-2.005c-.219-1.316.67-2.56 1.986-2.78.131-.022.264-.033.397-.033h.43c1.938 0 3.51 1.572 3.51 3.51 0 .034 0 .068-.002.102-.024.826-.1 1.653-.227 2.482-.247 1.604-.879 3.202-1.897 4.796-.516.808-1.41 1.298-2.37 1.298h-.108v.469c0 .776-.63 1.406-1.406 1.406h-.313c-.776 0-1.406-.63-1.406-1.406v-.47H10.039v.47c0 .776-.629 1.406-1.406 1.406h-.312c-.777 0-1.406-.63-1.406-1.406l-.001-.47-.416.001c-.961 0-1.855-.49-2.372-1.301-1.02-1.603-1.654-3.2-1.899-4.793-.127-.828-.202-1.657-.226-2.487-.054-1.937 1.473-3.551 3.41-3.605l.049-.001h.478z"/></g></svg>