<svg xmlns="http://www.w3.org/2000/svg" xmlns:xlink="http://www.w3.org/1999/xlink" width="215" height="176" viewBox="0 0 215 176"><title>空页面-无内容</title><defs><linearGradient id="b" x1="49.387%" x2="49.387%" y1="4.169%" y2="68.712%"><stop offset="0%" stop-color="#B59CFF"/><stop offset="100%" stop-color="#9974FA" stop-opacity="0"/></linearGradient><ellipse id="a" cx="90" cy="37.5" rx="90" ry="37.5"/><linearGradient id="c" x1="50%" x2="50%" y1="7.63%" y2="100%"><stop offset="0%" stop-color="#B59CFF"/><stop offset="100%" stop-color="#B59CFF" stop-opacity="0"/></linearGradient><linearGradient id="d" x1="0%" x2="66.961%" y1="51.719%" y2="47.683%"><stop offset="0%" stop-color="#BAA3FD" stop-opacity="0"/><stop offset="100%" stop-color="#B39BFC"/></linearGradient><path id="e" d="M19.346 0l1.618 33.209c.024.096.036.193.036.291 0 1.933-4.701 3.5-10.5 3.5S0 35.433 0 33.5l.004.09H0l.003-.016L0 33.5c0-.193.047-.383.137-.567L5.268 8.46 19.346 0z"/><linearGradient id="f" x1="47.097%" x2="91.849%" y1="93.378%" y2="50%"><stop offset="0%" stop-color="#C4B0FF"/><stop offset="100%" stop-color="#B097FB"/></linearGradient><linearGradient id="i" x1="8.1%" x2="100%" y1="64.972%" y2="58.221%"><stop offset="0%" stop-color="#CFBEFF"/><stop offset="100%" stop-color="#C4B0FF"/></linearGradient><ellipse id="h" cx="63.286" cy="62.708" rx="49" ry="39.841"/><linearGradient id="j" x1="100%" x2="3.245%" y1="54.171%" y2="57.103%"><stop offset="0%" stop-color="#E1D6FF"/><stop offset="100%" stop-color="#E3D9FF"/></linearGradient><linearGradient id="l" x1="5.396%" x2="98.689%" y1="57.377%" y2="46.472%"><stop offset="0%" stop-color="#CFBEFF"/><stop offset="100%" stop-color="#AB8FFF"/></linearGradient><linearGradient id="m" x1="5.302%" x2="93.419%" y1="50%" y2="50.87%"><stop offset="0%" stop-color="#C3AFFF"/><stop offset="100%" stop-color="#AD92FF"/></linearGradient><linearGradient id="n" x1="79.627%" x2="0%" y1="60.205%" y2="60.205%"><stop offset="0%" stop-color="#CBB9FF"/><stop offset="100%" stop-color="#DCD0FF"/></linearGradient><linearGradient id="o" x1="14.455%" x2="89.397%" y1="31.239%" y2="54.993%"><stop offset="0%" stop-color="#C5B1FF"/><stop offset="100%" stop-color="#C4B0FF"/></linearGradient></defs><g fill="none" fill-rule="evenodd"><use fill="url(#b)" fill-rule="nonzero" transform="translate(20 120)" xlink:href="#a"/><g transform="translate(39.86 .309)"><path fill="url(#c)" fill-rule="nonzero" d="M43.14 122.691h67v37h-67z"/><ellipse cx="76.64" cy="122.691" fill="#C4B0FF" fill-rule="nonzero" rx="33.5" ry="9"/><path fill="url(#d)" fill-rule="nonzero" d="M65.138 129.206c9.113 0 22.809-4.206 22.809-8.448 0-4.241-6.194-5.067-15.307-5.067-9.112 0-21.637 3.72-21.637 6.757 0 3.038 5.022 6.758 14.135 6.758z" opacity=".788"/><g transform="translate(66.14 86.691)"><mask id="g" fill="#fff"><use xlink:href="#e"/></mask><use fill="#CBB9FF" fill-rule="nonzero" xlink:href="#e"/><ellipse cx="6" cy="9.5" fill="url(#f)" fill-rule="nonzero" mask="url(#g)" rx="14" ry="12.5"/></g><mask id="k" fill="#fff"><use xlink:href="#h"/></mask><use fill="url(#i)" fill-rule="nonzero" transform="rotate(-40 63.286 62.708)" xlink:href="#h"/><ellipse cx="59.872" cy="59.075" fill="url(#j)" fill-rule="nonzero" mask="url(#k)" rx="47.5" ry="31.971" transform="rotate(-40 59.872 59.075)"/><ellipse cx="58.106" cy="56.658" fill="url(#l)" fill-rule="nonzero" rx="46.5" ry="31.912" transform="rotate(-40 58.106 56.658)"/><path fill="url(#m)" fill-rule="nonzero" d="M38.378 74.288l33.975-1.729a3.326 3.326 0 0 1 3.495 3.322 3.218 3.218 0 0 1-3.488 3.207l-32.14-2.7a3.5 3.5 0 0 1-2.179-1.01l-.06-.059a.605.605 0 0 1 .397-1.031z" transform="rotate(-60 56.432 75.881)"/><path fill="url(#n)" fill-rule="nonzero" d="M44.819 21.18l.565.124 4.29 49.87c-1.175 1.585-2.792 2.377-4.851 2.377-2.06 0-3.776-.792-5.15-2.376l4.309-50.084.837.09z" transform="rotate(-50 44.674 47.321)"/><circle cx="26.14" cy="31.691" r="6" fill="url(#o)" fill-rule="nonzero"/></g><rect width="3" height="23" x="50" y="116" fill="#B59CFF" fill-rule="nonzero" rx="1.5"/><rect width="3" height="19" x="169" y="117" fill="#B59CFF" fill-rule="nonzero" rx="1.5"/><path fill="#B59CFF" fill-rule="nonzero" d="M55.686 119.563a1 1 0 011.123.86c.27 2.033.02 3.558-.857 4.55-.742.84-1.876 1.141-3.362.992l-.215-.025-.28 2.523-.857.036c-2.423.102-4.122-.283-5.098-1.288-1-1.029-1.29-3.21-1.074-6.718a1 1 0 011.996.123c-.181 2.941.057 4.733.512 5.201.379.39 1.202.64 2.47.69l.255.006.332-2.98 1.097.258c1.503.352 2.384.244 2.726-.143.413-.467.574-1.446.372-2.962a1 1 0 01.86-1.123zM166.199 120.008a1 1 0 00-1.116.869c-.221 1.776-.017 3.112.718 3.999.638.77 1.72 1.07 3.25 1.008l.24-.013-.001 2.002.925.07c1.701.127 3.002-.221 3.831-1.132.84-.923 1.076-2.814.9-5.869a1 1 0 00-1.997.116c.144 2.505-.047 4.038-.382 4.406-.23.253-.622.422-1.198.481l-.078.006-.001-2.343-1.142.163c-1.64.235-2.58.102-2.807-.17-.307-.372-.433-1.195-.274-2.478a1 1 0 00-.868-1.115z"/><rect width="3" height="11" x="74" y="115" fill="#B59CFF" fill-rule="nonzero" rx="1.5"/><path fill="#B59CFF" fill-rule="nonzero" d="M78.56 117.527l.198-.142c.315-.215.408-.194 1.007-.057a1 1 0 0 1 .527.919l-.011.105.01.306c.06 1.357-.286 2.083-1.24 2.55-.904.441-2.03.54-3.374.335a1 1 0 1 1 .303-1.977c.884.136 1.567.095 2.053-.094l.218-.097a.02.02 0 0 1 .007-.002l.009-.018c.017-.06.03-.177.032-.359l-.017-.67.001-.096.006-.087c.003-.04.005-.056.014-.097l.03-.129c.038-.125.038-.125.227-.39z"/></g></svg>