<svg xmlns="http://www.w3.org/2000/svg" width="40" height="40" viewBox="0 0 40 40"><title>icon/btn/聊天@2x</title><path fill="#00BF8F" fill-rule="nonzero" d="M35 27.63v5.4c0 .786-.638 1.425-1.425 1.425-.874 0-1.674-.493-2.067-1.273l-1.275-2.528H10.296c-2.624 0-4.75-2.127-4.75-4.75V9.75C5.545 7.127 7.671 5 10.295 5H30.25C32.873 5 35 7.127 35 9.75v17.88zm-19.636-7.412c1.355 0 2.454-1.099 2.454-2.454 0-1.356-1.099-2.455-2.454-2.455-1.356 0-2.455 1.099-2.455 2.455 0 1.355 1.099 2.454 2.455 2.454zm9.818 0c1.355 0 2.454-1.099 2.454-2.454 0-1.356-1.099-2.455-2.454-2.455-1.356 0-2.455 1.099-2.455 2.455 0 1.355 1.1 2.454 2.455 2.454z"/></svg>