<?xml version="1.0" encoding="UTF-8"?>
<svg width="26px" height="26px" viewBox="0 0 26 26" version="1.1" xmlns="http://www.w3.org/2000/svg" xmlns:xlink="http://www.w3.org/1999/xlink">
    <title>加</title>
    <g id="礼物面板" stroke="none" stroke-width="1" fill="none" fill-rule="evenodd">
        <g id="礼物面板-商城备份" transform="translate(-249.000000, -733.000000)">
            <g id="加" transform="translate(249.000000, 733.000000)">
                <path d="M22,0 C24.209139,0 26,1.790861 26,4 L26,22 C26,24.209139 24.209139,26 22,26 L4,26 C1.790861,26 0,24.209139 0,22 L0,4 C0,1.790861 1.790861,0 4,0 L22,0 Z M22,1 L4,1 C2.40231912,1 1.09633912,2.24891996 1.00509269,3.82372721 L1,4 L1,22 C1,23.5976809 2.24891996,24.9036609 3.82372721,24.9949073 L4,25 L22,25 C23.5976809,25 24.9036609,23.75108 24.9949073,22.1762728 L25,22 L25,4 C25,2.40231912 23.75108,1.09633912 22.1762728,1.00509269 L22,1 Z M13,6 C13.5522847,6 14,6.44771525 14,7 L14,12 L19,12 C19.5522847,12 20,12.4477153 20,13 C20,13.5522847 19.5522847,14 19,14 L14,14 L14,19 C14,19.5522847 13.5522847,20 13,20 C12.4477153,20 12,19.5522847 12,19 L12,14 L7,14 C6.44771525,14 6,13.5522847 6,13 C6,12.4477153 6.44771525,12 7,12 L12,12 L12,7 C12,6.44771525 12.4477153,6 13,6 Z" id="形状结合" fill="#FFFFFF" fill-rule="nonzero"></path>
                <g id="编组-14" opacity="0.400000006" transform="translate(6.000000, 6.000000)"></g>
            </g>
        </g>
    </g>
</svg>