<?xml version="1.0" encoding="UTF-8"?>
<svg width="14px" height="14px" viewBox="0 0 14 14" version="1.1" xmlns="http://www.w3.org/2000/svg" xmlns:xlink="http://www.w3.org/1999/xlink">
    <!-- Generator: Sketch 63.1 (92452) - https://sketch.com -->
    <title>删除</title>
    <desc>Created with Sketch.</desc>
    <g id="页面-" stroke="none" stroke-width="1" fill="none" fill-rule="evenodd">
        <g id="个人-添加交友卡录音完毕" transform="translate(-55.000000, -611.000000)" fill="#FFFFFF" fill-rule="nonzero">
            <g id="删除" transform="translate(53.000000, 609.000000)">
                <path d="M9,3 C9.55228475,3 10,3.44771525 10,4 L10,8 L14,8 C14.5522847,8 15,8.44771525 15,9 C15,9.55228475 14.5522847,10 14,10 L10,10 L10,14 C10,14.5522847 9.55228475,15 9,15 C8.44771525,15 8,14.5522847 8,14 L8,10 L4,10 C3.44771525,10 3,9.55228475 3,9 C3,8.44771525 3.44771525,8 4,8 L8,8 L8,4 C8,3.44771525 8.44771525,3 9,3 Z" id="形状结合" transform="translate(9.000000, 9.000000) rotate(44.000000) translate(-9.000000, -9.000000) "></path>
            </g>
        </g>
    </g>
</svg>