<svg xmlns="http://www.w3.org/2000/svg" xmlns:xlink="http://www.w3.org/1999/xlink" width="24" height="24" viewBox="0 0 24 24"><title>ic_fire</title><defs><linearGradient id="b" x1="50%" x2="50%" y1="0%" y2="100%"><stop offset="0%" stop-color="#FAD961"/><stop offset="100%" stop-color="#F76B1C"/></linearGradient><path id="a" d="M4.034 15.64c-.375-3.297 2.493-7.795 2.493-7.795l.499 2.436s1.84-1.996 2.99-4.385c.762-1.58.5-3.896.5-3.896s1.587 1.006 2.991 2.435C15.39 6.35 16.374 9.4 16.374 9.4c.24-.657.366-1.175.378-1.556.016-.506-.068-1.318-.252-2.436 0 0 3.727 5.04 3.489 8.769-.259 4.053-2.811 7.583-8.328 7.337-5.516-.245-7.254-2.594-7.627-5.874z"/><linearGradient id="c" x1="46.262%" x2="38.415%" y1="0%" y2="100%"><stop offset="0%" stop-color="#FCF53C"/><stop offset="100%" stop-color="#F77623"/></linearGradient><linearGradient id="e" x1="50%" x2="57.112%" y1="11.655%" y2="90.227%"><stop offset="0%" stop-color="#FF5B16"/><stop offset="100%" stop-color="#F77B26"/></linearGradient><linearGradient id="f" x1="50%" x2="50.913%" y1="11.655%" y2="96.417%"><stop offset="0%" stop-color="#FF5B16"/><stop offset="100%" stop-color="#F77B26"/></linearGradient></defs><g fill="none" fill-rule="evenodd"><mask id="d" fill="#fff"><use xlink:href="#a"/></mask><use fill="url(#b)" xlink:href="#a"/><path fill="url(#c)" d="M16.5 5.41c1.08 2.015 1.62 4.387 1.62 7.117 0 2.73-.952 5.331-2.856 7.805l9.19-.203-5.013-12.82-2.941-1.9z" mask="url(#d)"/><path fill="#F77623" d="M10.515 2c1.498 4.972 2.106 8.908 1.825 11.81-.281 2.902-1.737 5.475-4.367 7.717l-5.89-3.545 1.61-12.724L10.515 2z" mask="url(#d)" opacity=".659"/><path fill="url(#e)" d="M7.039 6.696c-.633.868-1.031 2.909-1.194 6.121-.162 3.213 1.133 5.658 3.886 7.338C8.311 21.872 7.09 22.487 6.07 22c-1.02-.487-2.044-2.173-3.07-5.06l.633-7.022L7.04 6.696z" mask="url(#d)" opacity=".779"/><path fill="url(#f)" d="M16.257 7.696c.35-.305.39.263.117 1.705-.273 1.441-.717 2.598-1.332 3.47.534-.938.764-2.095.69-3.47-.075-1.376-.353-2.508-.836-3.398l1.361 1.693z" mask="url(#d)" opacity=".245"/></g></svg>