<?xml version="1.0" encoding="UTF-8"?>
<svg width="16px" height="16px" viewBox="0 0 16 16" version="1.1" xmlns="http://www.w3.org/2000/svg" xmlns:xlink="http://www.w3.org/1999/xlink">
    <title>1</title>
    <g id="1" stroke="none" stroke-width="1" fill="none" fill-rule="evenodd">
        <g id="编组-16">
            <rect id="矩形" x="0" y="0" width="16" height="16"></rect>
            <g id="编组-17" transform="translate(3.000000, 3.000000)">
                <path d="M7,3 C8.1045695,3 9,3.8954305 9,5 L9,8 C9,9.1045695 8.1045695,10 7,10 L2,10 C0.8954305,10 1.3527075e-16,9.1045695 0,8 L0,5 C-1.3527075e-16,3.8954305 0.8954305,3 2,3 L7,3 Z M4.5245654,4 C3.83420946,4 3.2745654,4.55964406 3.2745654,5.25 C3.2745654,5.69403962 3.50609643,6.08400227 3.85501936,6.3057488 L3.85521403,7.3414375 C3.85521403,7.70042259 4.14622894,7.9914375 4.50521403,7.9914375 C4.86419912,7.9914375 5.15521403,7.70042259 5.15521403,7.3414375 L5.15521403,7.3414375 L5.15613842,6.3289432 C5.52613647,6.11189236 5.7745654,5.70995802 5.7745654,5.25 C5.7745654,4.55964406 5.21492133,4 4.5245654,4 Z" id="形状结合" fill="#FFFFFF"></path>
                <path d="M2,3.58647936 L2,2.58898821 C2,1.20827634 3.11928813,0.08898821 4.5,0.08898821 C5.88071187,0.08898821 7,1.20827634 7,2.58898821 L7,3.58647936" id="路径" stroke="#FFFFFF" stroke-width="1.3"></path>
            </g>
        </g>
    </g>
</svg>