<?xml version="1.0" encoding="UTF-8"?>
<svg width="26px" height="26px" viewBox="0 0 26 26" version="1.1" xmlns="http://www.w3.org/2000/svg" xmlns:xlink="http://www.w3.org/1999/xlink">
    <title>减</title>
    <g id="礼物面板" stroke="none" stroke-width="1" fill="none" fill-rule="evenodd">
        <g id="礼物面板-商城备份" transform="translate(-198.000000, -733.000000)" fill="#FFFFFF" fill-rule="nonzero">
            <g id="减" transform="translate(198.000000, 733.000000)">
                <path d="M22,0 C24.209139,0 26,1.790861 26,4 L26,22 C26,24.209139 24.209139,26 22,26 L4,26 C1.790861,26 0,24.209139 0,22 L0,4 C0,1.790861 1.790861,0 4,0 L22,0 Z M22,1 L4,1 C2.40231912,1 1.09633912,2.24891996 1.00509269,3.82372721 L1,4 L1,22 C1,23.5976809 2.24891996,24.9036609 3.82372721,24.9949073 L4,25 L22,25 C23.5976809,25 24.9036609,23.75108 24.9949073,22.1762728 L25,22 L25,4 C25,2.40231912 23.75108,1.09633912 22.1762728,1.00509269 L22,1 Z M18,12 C18.5522847,12 19,12.4477153 19,13 C19,13.5522847 18.5522847,14 18,14 L9,14 C8.44771525,14 8,13.5522847 8,13 C8,12.4477153 8.44771525,12 9,12 L18,12 Z" id="形状结合"></path>
            </g>
        </g>
    </g>
</svg>