<?xml version="1.0" encoding="UTF-8"?>
<svg width="9px" height="10px" viewBox="0 0 9 10" version="1.1" xmlns="http://www.w3.org/2000/svg" xmlns:xlink="http://www.w3.org/1999/xlink">
    <title>list</title>
    <g id="派对房间" stroke="none" stroke-width="1" fill="none" fill-rule="evenodd" fill-opacity="0.4">
        <g id="派对页面备份" transform="translate(-255.000000, -318.000000)" fill="#202020">
            <g id="编组-29" transform="translate(0.000000, 242.000000)">
                <g id="房间" transform="translate(20.000000, 53.000000)">
                    <g id="编组" transform="translate(235.000000, 19.000000)">
                        <g id="人数" transform="translate(0.000000, 4.000000)">
                            <path d="M6.1331657,5.02072711 L6.1331657,4.83777466 C6.8215755,4.35214588 7.26954297,3.5626881 7.26954297,2.67089503 C7.26954297,1.19562207 6.04479616,0 4.53358632,0 C3.02237648,0 1.79762967,1.19562207 1.79762967,2.67089503 C1.79762967,3.5626881 2.24558274,4.35214588 2.93400694,4.83777466 L2.93400694,4.99541037 C1.2223853,5.64324341 0,7.32103623 0,9.28309064 C0,9.67893706 0.409031308,10 0.913574291,10 L8.08642483,10 C8.59096781,10 9,9.67893706 9,9.28309064 C9.00117988,7.34639514 7.81058861,5.68701705 6.1331657,5.02072711 Z" id="Fill-1"></path>
                        </g>
                    </g>
                </g>
            </g>
        </g>
    </g>
</svg>