<svg xmlns="http://www.w3.org/2000/svg" width="24" height="24" viewBox="0 0 24 24"><title>ic_navbar_people</title><g fill="#FFF" fill-rule="nonzero"><path d="M12 1C5.928 1 1 5.928 1 12s4.928 11 11 11 11-4.928 11-11S18.072 1 12 1zm0 20c-4.961 0-9-4.039-9-9s4.039-9 9-9 9 4.039 9 9-4.039 9-9 9z"/><path d="M12 15c2.048 0 5.66.788 7.232 2.355-.395.533-.846 1.019-1.345 1.451C17.271 18.078 14.468 17 12 17c-2.465 0-5.263 1.075-5.884 1.81-.5-.434-.952-.921-1.347-1.453C6.339 15.788 9.952 15 12 15zm0-9c2.21 0 4 1.79 4 4s-1.79 4-4 4-4-1.79-4-4 1.79-4 4-4zm0 2c-1.1 0-2 .9-2 2s.9 2 2 2 2-.9 2-2-.9-2-2-2z"/></g></svg>