<?xml version="1.0" encoding="UTF-8"?>
<svg width="16px" height="16px" viewBox="0 0 16 16" version="1.1" xmlns="http://www.w3.org/2000/svg" xmlns:xlink="http://www.w3.org/1999/xlink">
    <!-- Generator: Sketch 63 (92445) - https://sketch.com -->
    <title>ic_id@2x</title>
    <desc>Created with Sketch.</desc>
    <g id="ic_id" stroke="none" stroke-width="1" fill="none" fill-rule="evenodd">
        <g fill="#FFFFFF" fill-rule="nonzero" id="形状结合">
            <path d="M8,0 C12.418278,0 16,3.581722 16,8 C16,12.418278 12.418278,16 8,16 C3.581722,16 0,12.418278 0,8 C0,3.581722 3.581722,0 8,0 Z M6.18230097,4 L3.53012706,4 L2,12 L4.65217391,12 L6.18230097,4 Z M11.2692575,4 L7.74751837,4 L6.2173913,12 L9.65217391,12 C12.4637681,12 14.150167,10.6086957 14.7113706,7.82608696 C15.1647078,5.30434783 14.0173367,4.02898551 11.2692575,4 Z M12.034249,7.95652174 C11.7515081,9.43478261 10.9897213,10.1594203 9.74888839,10.1304348 L9.183671,10.1304348 L9.99862998,5.86956522 L10.5203691,5.86956522 C11.8703343,5.7826087 12.3749609,6.47826087 12.034249,7.95652174 Z"></path>
        </g>
    </g>
</svg>