<?xml version="1.0" encoding="UTF-8"?>
<svg width="12px" height="12px" viewBox="0 0 12 12" version="1.1" xmlns="http://www.w3.org/2000/svg" xmlns:xlink="http://www.w3.org/1999/xlink">
    <title>ic_male</title>
    <g id="ic_male" stroke="none" stroke-width="1" fill="none" fill-rule="evenodd">
        <g id="ic">
            <g transform="translate(6.750000, 5.799038) rotate(-510.000000) translate(-6.750000, -5.799038) translate(3.250000, 0.799038)">
                <path d="M3.65668757,0.8 C3.06758384,0.8 2.5342505,1.03878147 2.1481931,1.42483887 C1.7621357,1.81089627 1.52335424,2.3442296 1.52335424,2.93333333 C1.52335424,3.52243707 1.7621357,4.0557704 2.1481931,4.4418278 C2.5342505,4.8278852 3.06758384,5.06666667 3.65668757,5.06666667 C4.2457913,5.06666667 4.77912463,4.8278852 5.16518203,4.4418278 C5.55123943,4.0557704 5.7900209,3.52243707 5.7900209,2.93333333 C5.7900209,2.3442296 5.55123943,1.81089627 5.16518203,1.42483887 C4.77912463,1.03878147 4.2457913,0.8 3.65668757,0.8 Z" id="椭圆形" stroke="#FFFFFF" stroke-width="1.6"></path>
                <path d="M3.42242209,5.69371409 L5.11947836,7.39077036 L5.11947836,7.39077036 C5.43189779,7.7031898 5.43189779,8.20972178 5.11947836,8.52214121 L3.42242209,10.2191975 C3.11000265,10.5316169 2.60347067,10.5316169 2.29105124,10.2191975 C1.9786318,9.90677805 1.9786318,9.40024607 2.29105124,9.08782664 L3.42273666,7.95639951 L2.29105124,6.82508494 C1.9786318,6.5126655 1.9786318,6.00613352 2.29105124,5.69371409 C2.60347067,5.38129465 3.11000265,5.38129465 3.42242209,5.69371409 Z" id="形状结合" fill="#FFFFFF" transform="translate(3.705265, 7.956456) rotate(-270.000000) translate(-3.705265, -7.956456) "></path>
                <rect id="矩形" fill="#FFFFFF" transform="translate(3.656737, 6.423122) rotate(-540.000000) translate(-3.656737, -6.423122) " x="2.85673666" y="4.55645579" width="1.6" height="3.73333333" rx="0.8"></rect>
            </g>
        </g>
    </g>
</svg>