<?xml version="1.0" encoding="UTF-8"?>
<svg width="168px" height="168px" viewBox="0 0 168 168" version="1.1" xmlns="http://www.w3.org/2000/svg" xmlns:xlink="http://www.w3.org/1999/xlink">
    <title>头像女</title>
    <defs>
        <circle id="path-1" cx="84" cy="84" r="84"></circle>
        <path d="M36.0758849,0.182950187 C37.49934,0.131477462 39.7819136,1.44141271 41.2434538,3.15094724 C41.2875694,3.20131656 41.3296742,3.25138173 41.3697829,3.30111668 C55.1430382,4.85180945 65.2528359,9.97737186 65.2528359,16.0612486 C65.2528359,23.3742358 50.645491,29.3025833 32.626418,29.3025833 C14.6073449,29.3025833 0,23.3742358 0,16.0612486 C0,9.95358263 10.1890151,4.81174005 24.044916,3.28270765 C24.0882685,3.23999803 24.1352105,3.19558932 24.1846811,3.15094724 C25.6462212,1.71639943 27.9287948,0.47755234 29.3522499,0.426079615 L36.0758849,0.182950187 Z" id="path-3"></path>
        <path d="M72.6076701,0.456651349 C74.1037776,-0.333690275 75.9573063,0.232964701 76.7557199,1.72478013 L76.7557199,1.72478013 L76.7634374,1.73929412 C77.5482812,3.22499446 76.9801248,5.06563421 75.4944245,5.85047809 L75.4944245,5.85047809 L67.5422778,10.0516274 L76.8016806,12.8358028 C76.8107514,12.8385298 76.8198094,12.8412992 76.8288542,12.844111 C78.4302291,13.3419278 79.3248396,15.0436589 78.8270228,16.6450337 C78.323154,18.2658768 76.6074638,19.1780976 74.9819764,18.6894188 L74.9819764,18.6894188 L59.2109965,13.9481061 L59.1838228,13.9397979 C59.1464234,13.9281716 59.1094095,13.9158887 59.073551,13.9028573 C58.1141518,13.7848255 57.2254592,13.2175151 56.7349692,12.3010472 L56.7349692,12.3010472 L56.7272517,12.2865332 C55.9424079,10.8008328 56.5105643,8.96019309 57.9962646,8.17534922 L57.9962646,8.17534922 Z M6.54049263,1.24088753 C10.0387619,1.24088753 12.8746695,4.0767951 12.8746695,7.57506438 L12.8746695,12.0238562 C12.8746695,15.5221255 10.0387619,18.3580331 6.54049263,18.3580331 C3.04222336,18.3580331 0.206315789,15.5221255 0.206315789,12.0238562 L0.206315789,7.57506438 C0.206315789,4.0767951 3.04222336,1.24088753 6.54049263,1.24088753 Z" id="path-5"></path>
    </defs>
    <g id="头像女" stroke="none" stroke-width="1" fill="none" fill-rule="evenodd">
        <rect fill="#FFD6DB" x="0" y="0" width="168" height="168"></rect>
        <g id="默认头像女">
            <g id="鸭备份">
                <g id="编组">
                    <g id="编组-2">
                        <mask id="mask-2" fill="white">
                            <use xlink:href="#path-1"></use>
                        </mask>
                        <use id="蒙版" fill="#FFD6DB" xlink:href="#path-1"></use>
                        <ellipse id="椭圆形" fill="#FFFFFF" mask="url(#mask-2)" cx="84" cy="147.7" rx="56" ry="52.5"></ellipse>
                        <path d="M100.399817,29.2176598 C99.4076104,30.7551742 98.7735864,32.0033228 98.497745,32.9621057 C100.199286,33.4337616 101.868196,33.9841435 103.500729,34.6081135 C104.313473,34.3340532 105.224311,33.9800053 106.231548,33.5480788 C130.930293,25.003591 136.813609,29.8400573 123.881497,48.0574777 C133.741485,58.2246709 139.812653,72.0891702 139.812653,87.3716667 C139.812653,118.557346 114.531665,143.838333 83.3459859,143.838333 C52.160307,143.838333 26.8793192,118.557346 26.8793192,87.3716667 C26.8793192,69.5197 35.1636183,53.602635 48.09756,43.2551282 C50.3080462,40.5126116 53.154233,37.3493182 56.637672,33.7662939 C69.1292796,20.9175739 76.9161167,20.0870689 74.7287212,25.8137749 C73.6220304,28.7111443 73.0627432,30.6553544 72.9363479,31.8638396 C74.4371016,31.582833 75.9588838,31.3624921 77.4990177,31.204052 C78.1934962,30.6415918 78.9396598,30.0047786 79.7186647,29.3319623 C85.1325985,24.6560193 112.289842,6.89850496 100.399817,29.2176598 Z" id="形状结合" fill="#FFFFFF" mask="url(#mask-2)"></path>
                    </g>
                </g>
            </g>
            <g id="编组-16" transform="translate(48.720000, 64.840000)">
                <g id="编组-15" transform="translate(1.000000, 8.400000)">
                    <g id="编组-9" transform="translate(0.396667, 0.105000)">
                        <g id="编组-6" transform="translate(34.636316, 18.153006) rotate(2.000000) translate(-34.636316, -18.153006) translate(1.136316, 2.153006)">
                            <g id="椭圆形-2" transform="translate(33.716951, 15.856213) rotate(-1.000000) translate(-33.716951, -15.856213) translate(0.716951, 0.856213)">
                                <mask id="mask-4" fill="white">
                                    <use xlink:href="#path-3"></use>
                                </mask>
                                <use id="形状结合" fill="#FFBD3E" fill-rule="nonzero" xlink:href="#path-3"></use>
                                <path d="M32.626418,15.2336652 C65.4303715,15.2336652 92.0232301,28.2910128 92.0232301,12.7509149 C92.0232301,-2.78918295 65.4303715,-15.3869214 32.626418,-15.3869214 C-0.177535596,-15.3869214 -26.7703942,-2.78918295 -26.7703942,12.7509149 C-26.7703942,28.2910128 -0.177535596,15.2336652 32.626418,15.2336652 Z" id="椭圆形" fill="#F7E88A" fill-rule="nonzero" mask="url(#mask-4)"></path>
                            </g>
                        </g>
                    </g>
                </g>
                <mask id="mask-6" fill="white">
                    <use xlink:href="#path-5"></use>
                </mask>
                <use id="形状结合" fill="#1C1C1C" xlink:href="#path-5"></use>
            </g>
        </g>
    </g>
</svg>