<?xml version="1.0" encoding="UTF-8"?>
<svg width="26px" height="12px" viewBox="0 0 26 12" version="1.1" xmlns="http://www.w3.org/2000/svg" xmlns:xlink="http://www.w3.org/1999/xlink">
    <title>ic_uid</title>
    <defs>
        <path d="M2,0 L24,0 C25.1045695,-2.02906125e-16 26,0.8954305 26,2 L26,10 C26,11.1045695 25.1045695,12 24,12 L2,12 C0.8954305,12 1.3527075e-16,11.1045695 0,10 L0,2 C-1.3527075e-16,0.8954305 0.8954305,2.02906125e-16 2,0 Z" id="path-1"></path>
    </defs>
    <g id="ic_uid" stroke="none" stroke-width="1" fill="none" fill-rule="evenodd">
        <g id="ic_id">
            <g id="矩形">
                <use fill="#51FCB6" xlink:href="#path-1"></use>
                <use fill-opacity="0.2" fill="#FFFFFF" xlink:href="#path-1"></use>
            </g>
            <path d="M5.78321055,10.159375 C6.45768972,10.159375 7.05531192,10.0700521 7.57607715,9.89140625 C7.95065648,9.76380208 8.33050668,9.54231771 8.71562775,9.22695313 C9.10074882,8.91158854 9.413709,8.54335938 9.6545083,8.12226563 C9.8953076,7.70117188 10.0681254,7.25364583 10.1729618,6.7796875 L11.2301959,2 L8.75832085,2 L7.6756841,6.89453125 C7.57729923,7.33932292 7.38006893,7.68294271 7.0839932,7.92539063 C6.78791747,8.16783854 6.42659835,8.2890625 6.00003585,8.2890625 C5.56982752,8.2890625 5.26071652,8.16601563 5.07270285,7.91992188 C4.88468918,7.67382812 4.83906835,7.33203125 4.93584035,6.89453125 L6.0184771,2 L3.5466021,2 L2.489368,6.7796875 C2.4022732,7.1734375 2.37883797,7.62552083 2.4190623,8.1359375 C2.44369427,8.453125 2.55146211,8.76119792 2.74236582,9.06015625 C2.93326954,9.35911458 3.16572617,9.58971354 3.43973572,9.75195313 C3.71374527,9.91419271 4.07530076,10.0226563 4.52440217,10.0773438 C4.97350359,10.1320313 5.39310638,10.159375 5.78321055,10.159375 Z M13.6787239,10.0171875 L15.4520709,2 L12.9692584,2 L11.1959114,10.0171875 L13.6787239,10.0171875 Z M19.1693489,10.0171875 C19.6104948,10.0171875 20.1188109,9.94427083 20.6942974,9.7984375 C21.1150798,9.69270833 21.5339296,9.48033854 21.9508467,9.16132813 C22.3677638,8.84231771 22.7259649,8.44674479 23.0254501,7.97460938 C23.3249353,7.50247396 23.5694338,6.83802083 23.7589457,5.98125 C23.8799107,5.434375 23.9287992,4.91666667 23.9056113,4.428125 C23.8824233,3.93958333 23.7657209,3.51119792 23.555504,3.14296875 C23.3452871,2.77473958 23.0386451,2.4921875 22.6355779,2.2953125 C22.2325107,2.0984375 21.6682167,2 20.9426959,2 L17.2622271,2 L15.4888802,10.0171875 L19.1693489,10.0171875 Z M18.3690374,8.19609375 L19.3379671,3.815625 L19.9559358,3.815625 C20.5976025,3.815625 21.0223008,3.97239583 21.2300309,4.2859375 C21.437761,4.59947917 21.4476765,5.18098958 21.2597776,6.03046875 C21.1178453,6.67213542 20.9532475,7.13606771 20.7659841,7.42226563 C20.5787208,7.70846354 20.3630128,7.90898437 20.1188601,8.02382813 C19.8747075,8.13867188 19.493777,8.19609375 18.9760686,8.19609375 L18.3690374,8.19609375 Z" id="UID" fill="#202020" fill-rule="nonzero"></path>
        </g>
    </g>
</svg>