<?xml version="1.0" encoding="UTF-8"?>
<svg width="24px" height="24px" viewBox="0 0 24 24" version="1.1" xmlns="http://www.w3.org/2000/svg" xmlns:xlink="http://www.w3.org/1999/xlink">
    <title>矩形</title>
    <g id="商城&amp;背包面板" stroke="none" stroke-width="1" fill="none" fill-rule="evenodd">
        <g id="商城" transform="translate(-301.000000, -54.000000)" fill="#FFFFFF">
            <g id="编组-10" transform="translate(297.000000, 53.000000)">
                <g id="编组-6" transform="translate(4.000000, 1.000000)">
                    <path d="M12,3 C13.9739226,3 15.5916337,4.52512259 15.739051,6.46128544 C17.6981812,7.702072 19,9.88966228 19,12.3813086 L19.0010775,13.6494968 C19.5523456,13.9688468 19.9370409,14.5438601 19.9929628,15.2123363 L20,15.3813086 L20,16.3813086 C20,17.1211461 19.5982846,17.767158 19.0010775,18.1131205 L19,18.3813086 C19,19.4858781 18.1045695,20.3813086 17,20.3813086 L7,20.3813086 C5.8954305,20.3813086 5,19.4858781 5,18.3813086 L4.99992752,18.1137023 C4.40216612,17.7678826 4,17.1215611 4,16.3813086 L4,15.3813086 C4,14.6410562 4.40216612,13.9947347 4.99992752,13.648915 L5,12.3813086 C5,9.88966228 6.30181883,7.702072 8.26239487,6.46159944 C8.40836627,4.52512259 10.0260774,3 12,3 Z M15,13.3813086 L9,13.3813086 C8.44771525,13.3813086 8,13.8290239 8,14.3813086 L8,14.3813086 L8,15.8813086 C8,17.2620205 9.11928813,18.3813086 10.5,18.3813086 L10.5,18.3813086 L13.5,18.3813086 C14.8807119,18.3813086 16,17.2620205 16,15.8813086 L16,15.8813086 L16,14.3813086 C16,13.8290239 15.5522847,13.3813086 15,13.3813086 L15,13.3813086 Z M12,4.5 C11.151596,4.5 10.4128656,4.96956816 10.0295241,5.66298901 C10.6548047,5.47942952 11.3159437,5.38130864 12,5.38130864 C12.6840563,5.38130864 13.3451953,5.47942952 13.9701102,5.66236464 C13.6382466,5.06196195 13.0390126,4.62912582 12.3327511,4.52443439 L12.1540488,4.50519081 L12,4.5 Z" id="形状结合"></path>
                </g>
            </g>
        </g>
    </g>
</svg>