<?xml version="1.0" encoding="UTF-8"?>
<svg width="40px" height="26px" viewBox="0 0 40 26" version="1.1" xmlns="http://www.w3.org/2000/svg" xmlns:xlink="http://www.w3.org/1999/xlink">
    <title>çŸ©å½¢</title>
    <g id="é¦–é¡µðŸ " stroke="none" stroke-width="1" fill="none" fill-rule="evenodd">
        <g id="äº¤æ¢ç­›é€‰ç±»åˆ«" transform="translate(-335.000000, -106.000000)" fill="#202020">
            <g id="ç¼–ç»„-10" transform="translate(20.000000, 106.000000)">
                <g id="ç¼–ç»„-4" transform="translate(285.000000, 0.000000)">
                    <g id="ç¼–ç»„-15" transform="translate(30.000000, 0.000000)">
                        <path d="M17.1662638,7.26242653 C17.5567881,7.65295082 17.5567881,8.2861158 17.1662638,8.67664009 L12.1566397,13.6845333 L17.1536008,18.681349 C17.5441251,19.0718733 17.5441251,19.7050382 17.1536008,20.0955625 C16.7630765,20.4860868 16.1299115,20.4860868 15.7393872,20.0955625 L10.0825329,14.4387083 C9.84116543,14.1973408 9.74897756,13.8632849 9.80596936,13.5511146 C9.82236791,13.3209061 9.91906207,13.0954147 10.095196,12.9192808 L15.7520502,7.26242653 C16.1425745,6.87190224 16.7757395,6.87190224 17.1662638,7.26242653 Z" id="å½¢çŠ¶ç»“åˆ" transform="translate(13.624398, 13.678995) scale(-1, -1) rotate(-450.000000) translate(-13.624398, -13.678995) "></path>
                    </g>
                </g>
            </g>
        </g>
    </g>
</svg>