<?xml version="1.0" encoding="UTF-8"?>
<svg width="12px" height="12px" viewBox="0 0 12 12" version="1.1" xmlns="http://www.w3.org/2000/svg" xmlns:xlink="http://www.w3.org/1999/xlink">
    <title>濫뮎궜某낻</title>
    <g id="扶뒬못游" stroke="none" stroke-width="1" fill="none" fill-rule="evenodd">
        <g id="扶뒬못啖벉꼭" transform="translate(-289.000000, -66.000000)" fill="#202020">
            <g id="模뒪즧-8" transform="translate(289.000000, 63.000000)">
                <g id="模뒪즧-7" transform="translate(0.000000, 3.000000)">
                    <path d="M6,0 C6.55228475,3.38176876e-17 7,0.44771525 7,1 L7,5 L11,5 C11.5522847,5 12,5.44771525 12,6 C12,6.55228475 11.5522847,7 11,7 L6.999,7 L7,11 C7,11.5522847 6.55228475,12 6,12 C5.44771525,12 5,11.5522847 5,11 L4.999,7 L1,7 C0.44771525,7 6.76353751e-17,6.55228475 0,6 C-6.76353751e-17,5.44771525 0.44771525,5 1,5 L5,5 L5,1 C5,0.44771525 5.44771525,-3.38176876e-17 6,0 Z" id="濫뮎궜某낻"></path>
                </g>
            </g>
        </g>
    </g>
</svg>