<?xml version="1.0" encoding="UTF-8"?>
<svg width="8px" height="8px" viewBox="0 0 8 8" version="1.1" xmlns="http://www.w3.org/2000/svg" xmlns:xlink="http://www.w3.org/1999/xlink">
    <!-- Generator: Sketch 63.1 (92452) - https://sketch.com -->
    <title>路径</title>
    <desc>Created with Sketch.</desc>
    <g id="页面-" stroke="none" stroke-width="1" fill="none" fill-rule="evenodd">
        <g id="房间-填写段位" transform="translate(-29.000000, -414.000000)" fill="#D8D8D8" fill-rule="nonzero">
            <g id="标签-填写段位" transform="translate(26.000000, 412.000000)">
                <g id="标签-王者荣耀">
                    <g id="标签">
                        <g id="灰" transform="translate(3.000000, 2.000000)">
                            <path d="M4,1 C4.27614237,1 4.5,1.22385763 4.5,1.5 L4.5,3.5 L6.5,3.5 C6.77614237,3.5 7,3.72385763 7,4 C7,4.27614237 6.77614237,4.5 6.5,4.5 L4.5,4.5 L4.5,6.5 C4.5,6.77614237 4.27614237,7 4,7 C3.72385763,7 3.5,6.77614237 3.5,6.5 L3.5,4.5 L1.5,4.5 C1.22385763,4.5 1,4.27614237 1,4 C1,3.72385763 1.22385763,3.5 1.5,3.5 L3.5,3.5 L3.5,1.5 C3.5,1.22385763 3.72385763,1 4,1 Z" id="形状结合"></path>
                        </g>
                    </g>
                </g>
            </g>
        </g>
    </g>
</svg>