<?xml version="1.0" encoding="UTF-8"?>
<svg width="46px" height="46px" viewBox="0 0 46 46" version="1.1" xmlns="http://www.w3.org/2000/svg" xmlns:xlink="http://www.w3.org/1999/xlink">
    <!-- Generator: Sketch 63.1 (92452) - https://sketch.com -->
    <title>弹窗</title>
    <desc>Created with Sketch.</desc>
    <defs>
        <linearGradient x1="33.6843092%" y1="100%" x2="100%" y2="0%" id="linearGradient-1">
            <stop stop-color="#FFFFFF" offset="0%"></stop>
            <stop stop-color="#FFFFFF" stop-opacity="0.601125437" offset="100%"></stop>
        </linearGradient>
    </defs>
    <g id="页面-" stroke="none" stroke-width="1" fill="none" fill-rule="evenodd">
        <g id="房间-弹窗1" transform="translate(-117.000000, -555.000000)">
            <g id="弹窗" transform="translate(0.000000, 343.000000)">
                <g id="聊天" transform="translate(117.000000, 212.000000)">
                    <circle id="椭圆形备份-4" fill="#CF9AFF" fill-rule="nonzero" cx="23" cy="23" r="23"></circle>
                    <path d="M22.9999516,14 C27.9704707,14 32,18.0295291 32,22.9999425 C32,27.9704614 27.9704707,32 22.9999516,32 C21.3719927,32.0023635 19.7739868,31.5612152 18.377874,30.723769 C18.237179,30.6404226 18.096194,30.5577353 17.9548662,30.4755489 L15.7524995,31.0763238 C15.2485447,31.2136174 14.7863817,30.7512699 14.9238863,30.2473942 L15.5237383,28.0475852 C15.2914703,27.6534231 15.1394639,27.38904 15.0638693,27.2479232 C14.363374,25.9417223 13.997952,24.4821703 14,22.9999425 C14,18.0295291 18.0295379,14 22.9999516,14 Z M20.8438328,25.5964976 C20.6584192,25.4423027 20.4047411,25.3987442 20.1785639,25.4822752 C19.9522813,25.5657799 19.7878031,25.7636388 19.7470132,26.0013647 C19.7062233,26.2390907 19.7953178,26.4804026 19.980705,26.6345975 C20.8283817,27.3405245 21.8969621,27.7264601 22.9999516,27.7250139 C24.1173639,27.7250139 25.1766895,27.3350665 26.0185653,26.6350985 C26.206853,26.4817473 26.298426,26.2391962 26.258137,25.99973 C26.2178744,25.7602374 26.052157,25.5609547 25.8241078,25.4775291 C25.5960849,25.394209 25.3408512,25.4398241 25.1556749,25.5968931 C24.5506812,26.1010588 23.7875639,26.3764898 22.9999516,26.3749341 C22.2122338,26.3764898 21.4489319,26.1008479 20.8438328,25.5964976 Z" id="Fill-1" fill="url(#linearGradient-1)"></path>
                </g>
            </g>
        </g>
    </g>
</svg>