<?xml version="1.0" encoding="UTF-8"?>
<svg width="46px" height="46px" viewBox="0 0 46 46" version="1.1" xmlns="http://www.w3.org/2000/svg" xmlns:xlink="http://www.w3.org/1999/xlink">
    <!-- Generator: Sketch 63.1 (92452) - https://sketch.com -->
    <title>弹窗</title>
    <desc>Created with Sketch.</desc>
    <defs>
        <linearGradient x1="81.3232085%" y1="-9.46347835%" x2="50%" y2="100%" id="linearGradient-1">
            <stop stop-color="#FF8989" offset="0%"></stop>
            <stop stop-color="#FF5858" offset="100%"></stop>
        </linearGradient>
        <linearGradient x1="40.4589905%" y1="100%" x2="79.2387543%" y2="0%" id="linearGradient-2">
            <stop stop-color="#FFFFFF" offset="0%"></stop>
            <stop stop-color="#FFFFFF" stop-opacity="0.601125437" offset="100%"></stop>
        </linearGradient>
        <linearGradient x1="41.4336653%" y1="78.9469889%" x2="74.8912619%" y2="0%" id="linearGradient-3">
            <stop stop-color="#FFFFFF" offset="0%"></stop>
            <stop stop-color="#FFFFFF" stop-opacity="0.608642678" offset="63.9752994%"></stop>
            <stop stop-color="#FFFFFF" stop-opacity="0.601125437" offset="100%"></stop>
        </linearGradient>
        <linearGradient x1="37.7103203%" y1="72.5375676%" x2="100%" y2="33.1870108%" id="linearGradient-4">
            <stop stop-color="#FFFFFF" offset="0%"></stop>
            <stop stop-color="#FFFFFF" stop-opacity="0.7" offset="100%"></stop>
        </linearGradient>
    </defs>
    <g id="页面-" stroke="none" stroke-width="1" fill="none" fill-rule="evenodd">
        <g id="房间-弹窗1" transform="translate(-20.000000, -633.000000)">
            <g id="弹窗" transform="translate(0.000000, 343.000000)">
                <g id="禁麦" transform="translate(20.000000, 290.000000)">
                    <circle id="椭圆形备份-7" fill="url(#linearGradient-1)" fill-rule="nonzero" cx="23" cy="23" r="23"></circle>
                    <g id="话筒（禁止）" transform="translate(17.000000, 15.000000)">
                        <path d="M7,14 L7,16 C7,16.5522847 6.55228475,17 6,17 C5.44771525,17 5,16.5522847 5,16 L5,14 L7,14 Z M2.59158398,1.25832568 L12.2333981,12.7489923 C12.5883999,13.172067 12.533216,13.8028226 12.1101413,14.1578244 C11.6870666,14.5128262 11.056311,14.4576422 10.7013092,14.0345675 L1.05949509,2.5439009 C0.704493299,2.12082623 0.759677263,1.49007064 1.18275193,1.13506884 C1.60582659,0.780067049 2.23658219,0.835251013 2.59158398,1.25832568 Z M2.49903897,5.747 L7.16065282,11.3029627 C6.79744484,11.4305887 6.40682836,11.5 6,11.5 C4.06700338,11.5 2.5,9.93299662 2.5,8 L2.49903897,5.747 Z M6,0.5 C7.93299662,0.5 9.5,2.06700338 9.5,4 L9.49903897,7.867 L3.9024794,1.19788303 C4.4870164,0.759626441 5.2131887,0.5 6,0.5 Z" id="形状结合" fill="url(#linearGradient-3)"></path>
                        <path d="M12,8 C12,8.56980477 11.9205714,9.12105801 11.7721824,9.64329168 M8.34404676,13.524855 C7.62392843,13.8307664 6.83172753,14 6,14 C2.6862915,14 0,11.3137085 0,8" id="形状" stroke="url(#linearGradient-4)" stroke-width="1.5" stroke-linecap="round" fill-rule="nonzero"></path>
                    </g>
                </g>
            </g>
        </g>
    </g>
</svg>