<?xml version="1.0" encoding="UTF-8"?>
<svg width="46px" height="46px" viewBox="0 0 46 46" version="1.1" xmlns="http://www.w3.org/2000/svg" xmlns:xlink="http://www.w3.org/1999/xlink">
    <!-- Generator: Sketch 63.1 (92452) - https://sketch.com -->
    <title>编组</title>
    <desc>Created with Sketch.</desc>
    <defs>
        <linearGradient x1="33.6843092%" y1="99.2352777%" x2="100%" y2="0.764722266%" id="linearGradient-1">
            <stop stop-color="#FFFFFF" offset="0%"></stop>
            <stop stop-color="#FFFFFF" stop-opacity="0.601125437" offset="100%"></stop>
        </linearGradient>
    </defs>
    <g id="页面-" stroke="none" stroke-width="1" fill="none" fill-rule="evenodd">
        <g id="房间-弹窗1" transform="translate(-213.000000, -555.000000)">
            <g id="弹窗" transform="translate(0.000000, 343.000000)">
                <g id="打赏" transform="translate(213.000000, 212.000000)">
                    <circle id="椭圆形备份-5" fill="#63ABFF" fill-rule="nonzero" cx="23" cy="23" r="23"></circle>
                    <path d="M30.153,23.9999949 L30.1537616,29.3233515 C30.1537616,30.7255679 29.0173257,31.8618145 27.6152986,31.8618145 L18.3845932,31.8618145 C16.9826743,31.8618145 15.8461303,30.7255679 15.8461303,29.3233515 L15.846,23.9999949 L30.153,23.9999949 Z M25.6860376,14 C26.4727239,13.9983014 27.2000234,14.418201 27.5918522,15.1004195 C27.9837621,15.7825299 27.979949,16.622329 27.5821166,17.3010589 L27.1694917,18.0157022 L30.3845752,18.0157022 C31.2551495,18.0157022 31.9691437,18.705601 31.9990264,19.5757426 L32,19.6311 L32,21.4772303 C32,22.1814511 31.5493726,22.7803733 30.9208056,23.0014953 L15.0768567,23.0006401 C14.467519,22.785227 14.0243746,22.2143745 14.0009465,21.5328852 L14,19.6313164 C14,18.7392157 14.7231889,18.0159186 15.6153978,18.0159186 L18.6901001,18.0157022 L18.2775833,17.3010589 C17.8796428,16.622329 17.8759379,15.7825299 18.2677396,15.1004195 C18.6595683,14.418201 19.3868678,13.9983014 20.1735542,14 C20.9603487,14.0016818 21.6857552,14.4248807 22.0746092,15.1087759 L22.92985,16.5895797 L23.7850908,15.1087759 C24.1738366,14.4248807 24.8993513,14.0016818 25.6860376,14 Z M19.7724496,15.505229 C19.5866359,15.6123471 19.4513117,15.788858 19.3959543,15.9957924 C19.3404888,16.202754 19.3696684,16.42321 19.4768676,16.6086992 L20.2889204,18.0157022 L22.1064119,18.0157022 L22.1303992,17.9741909 L20.8755142,15.8010004 C20.6525161,15.4147966 20.1587615,15.2823391 19.7724496,15.505229 Z M24.9844021,15.8010004 L23.7292196,17.9743802 L23.7529905,18.0157022 L25.5707795,18.0157022 L26.3830217,16.6086992 C26.5971496,16.237829 26.4845418,15.7642487 26.1264359,15.5294056 L26.0874667,15.505229 C25.7011547,15.2823391 25.207292,15.4147966 24.9844021,15.8010004 Z" id="形状结合" fill="url(#linearGradient-1)"></path>
                </g>
            </g>
        </g>
    </g>
</svg>