<?xml version="1.0" encoding="UTF-8"?>
<svg width="24px" height="24px" viewBox="0 0 24 24" version="1.1" xmlns="http://www.w3.org/2000/svg" xmlns:xlink="http://www.w3.org/1999/xlink">
    <title>矩形</title>
    <g id="商城&amp;背包面板" stroke="none" stroke-width="1" fill="none" fill-rule="evenodd">
        <g id="我的背包" transform="translate(-273.000000, -54.000000)" fill-rule="nonzero">
            <g id="编组-10" transform="translate(269.000000, 53.000000)">
                <g id="编组-6" transform="translate(4.000000, 1.000000)">
                    <g id="商店" transform="translate(3.000000, 3.000000)">
                        <rect id="矩形" fill="#000000" opacity="0" x="0" y="0" width="18" height="18"></rect>
                        <path d="M17.1666,4.8375 L15.8343,2.22629999 C15.5196498,1.60933421 14.8855688,1.22099999 14.193,1.22099999 L3.807,1.22099999 C3.11443121,1.22099999 2.48035021,1.60933421 2.16570001,2.22629999 L0.8334,4.8375 C0.0939000059,6.53279999 1.18859999,8.53619999 3.0321,8.6859 C4.06184443,8.7713485 5.05777049,8.29545475 5.63819999,7.44060001 C5.74928942,7.27588493 5.93497458,7.17714826 6.13364999,7.17714826 C6.3323254,7.17714826 6.51801057,7.27588493 6.62909999,7.44060001 C7.14479999,8.1981 8.01419999,8.69550001 9,8.69549999 C9.98580001,8.69549998 10.8549,8.1981 11.3709,7.44060001 C11.4819894,7.27588493 11.6676746,7.17714826 11.86635,7.17714826 C12.0650254,7.17714826 12.2507106,7.27588493 12.3618,7.44060001 C12.9422295,8.29545475 13.9381556,8.7713485 14.9679,8.6859 C16.8114,8.53619999 17.9061,6.53279999 17.1666,4.8375 Z M15.234,9.864 C15.0676844,9.88452513 14.9002771,9.89494426 14.7327,9.89519999 C13.83231,9.8954981 12.957316,9.59676342 12.2451,9.0459 C12.022577,8.87157332 11.709823,8.87157332 11.4873,9.0459 C10.7751216,9.59661944 9.90027215,9.89534081 9,9.89519999 C8.09961003,9.8954981 7.22461604,9.59676342 6.5124,9.0459 C6.28987699,8.87157332 5.97712301,8.87157332 5.7546,9.0459 C4.90695921,9.70129561 3.83483632,9.99552563 2.77140001,9.86459999 C2.6012849,9.84313437 2.43015656,9.89588648 2.30165169,10.0094049 C2.17314682,10.1229232 2.09968553,10.2862362 2.099999,10.4577 L2.099999,15.5628 C2.099999,16.2345 2.63010001,16.779 3.2841,16.779 L14.7162,16.779 C15.3702,16.779 15.9003,16.2345 15.9003,15.5628 L15.9003,10.4595 C15.9,10.1016 15.5886,9.81839999 15.234,9.864 L15.234,9.864 Z M12.7443,14.394 L5.25540001,14.394 C4.92540001,14.394 4.65539999,14.124 4.65539999,13.794 C4.65539999,13.464 4.92539999,13.194 5.25540001,13.194 L12.7443,13.194 C13.0743,13.194 13.3443,13.464 13.3443,13.794 C13.3443,14.124 13.0743,14.394 12.7443,14.394 L12.7443,14.394 Z" id="形状" fill="#FFFFFF"></path>
                    </g>
                </g>
            </g>
        </g>
    </g>
</svg>