<svg xmlns="http://www.w3.org/2000/svg" width="50" height="10" viewBox="0 0 50 10"><title>add</title><defs><linearGradient id="a" x1="100%" x2="-127.526%" y1="49.726%" y2="50.591%"><stop offset="0%" stop-color="#FFF" stop-opacity=".4"/><stop offset="100%" stop-color="#5F5F5F" stop-opacity=".4"/></linearGradient><linearGradient id="b" x1="100%" x2="-59.565%" y1="48.987%" y2="51.353%"><stop offset="0%" stop-color="#FFF" stop-opacity=".4"/><stop offset="100%" stop-color="#5F5F5F" stop-opacity=".4"/></linearGradient><linearGradient id="c" x1="100%" x2="-59.565%" y1="49.895%" y2="50.14%"><stop offset="0%" stop-color="#FFF" stop-opacity=".4"/><stop offset="100%" stop-color="#5F5F5F" stop-opacity=".4"/></linearGradient></defs><g fill="none" fill-rule="nonzero"><path fill="url(#a)" d="M33.5 6.5v1H8.236a3.118 3.118 0 0 0-2.69 1.541l-.099.183-.223.447-.895-.447.224-.448a4.118 4.118 0 0 1 3.471-2.27l.212-.006H33.5z"/><path fill="url(#b)" d="M15.5.5v1H4.236a3.118 3.118 0 0 0-2.69 1.541l-.099.183-.223.447-.895-.447.224-.448A4.118 4.118 0 0 1 4.024.506L4.236.5H15.5z"/><path fill="url(#c)" d="M49.5 3.5v1H6.236a3.118 3.118 0 0 0-2.69 1.541l-.099.183-.223.447-.895-.447.224-.448a4.118 4.118 0 0 1 3.471-2.27l.212-.006H49.5z"/></g></svg>