<svg xmlns="http://www.w3.org/2000/svg" width="48" height="48" viewBox="0 0 48 48"><title>ic_roomtip</title><defs><linearGradient id="a" x1="98.447%" x2="13.677%" y1="20.553%" y2="77.654%"><stop offset="0%" stop-color="#D9DDE6"/><stop offset="100%" stop-color="#BFC2C8"/></linearGradient><linearGradient id="b" x1="50%" x2="50%" y1="0%" y2="163.886%"><stop offset="0%" stop-color="#FFF"/><stop offset="100%" stop-color="#FFF"/></linearGradient><linearGradient id="c" x1="98.447%" x2="13.677%" y1="12.177%" y2="85.52%"><stop offset="0%" stop-color="#D9DDE6"/><stop offset="100%" stop-color="#BFC2C8"/></linearGradient></defs><g fill="none" fill-rule="nonzero"><path fill="url(#a)" d="M25.952 13.71L40.53 26.51a1.397 1.397 0 0 1-.922 2.447l-3.199.001C36.36 41.572 35.151 43 23.98 43h-.34c-10.856-.03-12.04-1.557-12.09-14.043H8.392a1.397 1.397 0 0 1-.915-2.455L22.28 13.697a2.795 2.795 0 0 1 3.672.014z"/><path fill="url(#b)" d="M23.693 34.161l-2.038 1.072a.659.659 0 0 1-.956-.694l.39-2.27a.659.659 0 0 0-.19-.584l-1.65-1.607a.659.659 0 0 1 .366-1.124l2.279-.331a.659.659 0 0 0 .496-.36l1.02-2.066a.659.659 0 0 1 1.18 0l1.02 2.065c.096.195.282.33.496.36l2.28.332a.659.659 0 0 1 .365 1.124l-1.65 1.607a.659.659 0 0 0-.19.583l.39 2.27a.659.659 0 0 1-.956.695l-2.038-1.072a.659.659 0 0 0-.614 0z"/><path fill="url(#c)" d="M23.745 9.634l-1.7.893a.549.549 0 0 1-.796-.578l.325-1.892a.549.549 0 0 0-.158-.486l-1.375-1.34a.549.549 0 0 1 .304-.936l1.9-.276a.549.549 0 0 0 .413-.3l.85-1.722a.549.549 0 0 1 .984 0l.85 1.722c.08.162.234.274.413.3l1.9.276a.549.549 0 0 1 .304.936l-1.375 1.34a.549.549 0 0 0-.158.486l.325 1.892a.549.549 0 0 1-.797.578l-1.699-.893a.549.549 0 0 0-.51 0z"/><path fill="url(#c)" d="M13.796 15.107l-1.36.715a.44.44 0 0 1-.637-.463l.26-1.513a.44.44 0 0 0-.126-.39l-1.1-1.07a.44.44 0 0 1 .243-.75l1.52-.22a.44.44 0 0 0 .33-.241l.68-1.377a.44.44 0 0 1 .788 0l.68 1.377a.44.44 0 0 0 .33.24l1.52.221a.44.44 0 0 1 .243.75l-1.1 1.07a.44.44 0 0 0-.126.39l.26 1.513a.44.44 0 0 1-.637.463l-1.36-.715a.44.44 0 0 0-.408 0z" transform="rotate(-32 14 13)"/><path fill="url(#c)" d="M5.847 21.58l-1.02.536a.33.33 0 0 1-.478-.347l.195-1.135a.33.33 0 0 0-.095-.291l-.824-.804a.33.33 0 0 1 .182-.562l1.14-.166a.33.33 0 0 0 .248-.18l.51-1.033a.33.33 0 0 1 .59 0l.51 1.033a.33.33 0 0 0 .248.18l1.14.166a.33.33 0 0 1 .182.562l-.824.804a.33.33 0 0 0-.095.291l.195 1.135a.33.33 0 0 1-.478.347l-1.02-.535a.33.33 0 0 0-.306 0z" transform="rotate(-45 6 20)"/><path fill="url(#c)" d="M41.847 21.58l-1.02.536a.33.33 0 0 1-.478-.347l.195-1.135a.33.33 0 0 0-.095-.291l-.824-.804a.33.33 0 0 1 .182-.562l1.14-.166a.33.33 0 0 0 .248-.18l.51-1.033a.33.33 0 0 1 .59 0l.51 1.033a.33.33 0 0 0 .248.18l1.14.166a.33.33 0 0 1 .182.562l-.824.804a.33.33 0 0 0-.095.291l.195 1.135a.33.33 0 0 1-.478.347l-1.02-.535a.33.33 0 0 0-.306 0z" transform="rotate(45 42 20)"/><path fill="url(#c)" d="M33.796 15.107l-1.36.715a.44.44 0 0 1-.637-.463l.26-1.513a.44.44 0 0 0-.126-.39l-1.1-1.07a.44.44 0 0 1 .243-.75l1.52-.22a.44.44 0 0 0 .33-.241l.68-1.377a.44.44 0 0 1 .788 0l.68 1.377a.44.44 0 0 0 .33.24l1.52.221a.44.44 0 0 1 .243.75l-1.1 1.07a.44.44 0 0 0-.126.39l.26 1.513a.44.44 0 0 1-.637.463l-1.36-.715a.44.44 0 0 0-.408 0z" transform="rotate(32 34 13)"/></g></svg>