<svg xmlns="http://www.w3.org/2000/svg" width="48" height="48" viewBox="0 0 48 48"><title>ic_kickout</title><defs><linearGradient id="a" x1="90.5%" x2="26.223%" y1="54.645%" y2="74.067%"><stop offset="0%" stop-color="#BFC2C8"/><stop offset="100%" stop-color="#D9DDE6"/></linearGradient><linearGradient id="b" x1="78.728%" x2="39.469%" y1="-68.414%" y2="85.52%"><stop offset="0%" stop-color="#BFC2C8"/><stop offset="100%" stop-color="#D9DDE6"/></linearGradient><linearGradient id="c" x1="137.769%" x2="27.43%" y1="-68.414%" y2="66.909%"><stop offset="0%" stop-color="#BFC2C8"/><stop offset="100%" stop-color="#D9DDE6"/></linearGradient><linearGradient id="d" x1="50%" x2="50%" y1="0%" y2="163.886%"><stop offset="0%" stop-color="#FFF"/><stop offset="100%" stop-color="#FFF"/></linearGradient></defs><g fill="none" fill-rule="nonzero"><path fill="url(#a)" d="M11.5 7H31a4 4 0 0 1 4 4v22a4 4 0 0 1-4 4H12a4 4 0 0 1-4-4V10.5A3.5 3.5 0 0 1 11.5 7z"/><path fill="url(#b)" d="M12.182 7.792l15 6.429A3 3 0 0 1 29 16.978V40.45a3 3 0 0 1-4.182 2.758l-15-6.429A3 3 0 0 1 8 34.022V10.55a3 3 0 0 1 4.182-2.758z"/><path fill="url(#c)" d="M37.048 26.741l-1.56-5.241-3.152.03a1.001 1.001 0 0 1-.741-1.684l5.667-6.066a1.001 1.001 0 0 1 1.46-.003l5.688 6.035a1.001 1.001 0 0 1-.73 1.688h-3.187l-1.524 5.236a1.001 1.001 0 0 1-1.921.005z" transform="rotate(90 38 21.5)"/><path fill="url(#d)" d="M7 .69c.647 0 1.18.491 1.244 1.122l.006.127v3.75H12a1.25 1.25 0 0 1 .128 2.494L12 8.189H8.25v3.75a1.25 1.25 0 0 1-2.494.128l-.006-.128V8.19H2a1.25 1.25 0 0 1-.128-2.493L2 5.689h3.75V1.94c0-.69.56-1.25 1.25-1.25z" transform="rotate(45 -9.478 29.675)"/></g></svg>