<svg xmlns="http://www.w3.org/2000/svg" width="48" height="48" viewBox="0 0 48 48"><title>ic_grouptip</title><defs><linearGradient id="a" x1="77.251%" x2="29.569%" y1="12.177%" y2="85.52%"><stop offset="0%" stop-color="#D9DDE6"/><stop offset="100%" stop-color="#BFC2C8"/></linearGradient><linearGradient id="b" x1="66.21%" x2="37.846%" y1="12.177%" y2="85.52%"><stop offset="0%" stop-color="#D9DDE6"/><stop offset="100%" stop-color="#BFC2C8"/></linearGradient></defs><g fill="none" fill-rule="evenodd"><g fill-rule="nonzero"><path fill="url(#a)" d="M20 0c4.386 0 7.941 3.597 7.941 8.034a8.05 8.05 0 0 1-3.704 6.796c3.257 1.495 6.351 4.551 6.351 8.741 0 4.24-6.909 4.664-10.588 4.664-3.68 0-10.588-.425-10.588-4.664 0-4.19 3.094-7.247 6.351-8.742a8.045 8.045 0 0 1-3.704-6.795C12.059 3.597 15.614 0 20 0z" transform="translate(4 18)"/><path fill="url(#b)" d="M3.328 0a6.47 6.47 0 0 1 4.148 11.437c2.632 1.213 5.258 3.575 5.258 6.87 0 3.274-3.881 3.66-7.495 3.706a8.987 8.987 0 0 0-4.486-7.776A9.958 9.958 0 0 0 2.936 8 9.969 9.969 0 0 0 0 .922 6.425 6.425 0 0 1 3.328 0z" transform="matrix(-1 0 0 1 16.734 18)"/><path fill="url(#b)" d="M30.388 0a6.47 6.47 0 0 1 4.148 11.437c2.632 1.213 5.258 3.575 5.258 6.87 0 3.274-3.881 3.66-7.495 3.706a8.987 8.987 0 0 0-4.486-7.776A9.958 9.958 0 0 0 29.996 8 9.969 9.969 0 0 0 27.06.922 6.425 6.425 0 0 1 30.388 0z" transform="translate(4 18)"/></g><path stroke="#CCD0D7" stroke-linecap="round" stroke-linejoin="round" stroke-width="2" d="M34 15c0-5.523-4.477-10-10-10S14 9.477 14 15"/></g></svg>