<svg xmlns="http://www.w3.org/2000/svg" width="48" height="48" viewBox="0 0 48 48"><title>ic_roomquiet</title><defs><linearGradient id="a" x1="98.447%" x2="13.677%" y1="19.893%" y2="78.274%"><stop offset="0%" stop-color="#D9DDE6"/><stop offset="100%" stop-color="#BFC2C8"/></linearGradient><linearGradient id="b" x1="98.447%" x2="13.677%" y1="12.177%" y2="85.52%"><stop offset="0%" stop-color="#D9DDE6"/><stop offset="100%" stop-color="#BFC2C8"/></linearGradient><linearGradient id="c" x1="50%" x2="50%" y1="0%" y2="163.886%"><stop offset="0%" stop-color="#FFF"/><stop offset="100%" stop-color="#FFF"/></linearGradient></defs><g fill="none" fill-rule="evenodd"><path fill="url(#a)" fill-rule="nonzero" d="M24.638 8.768l15.848 14.116a1.519 1.519 0 0 1-1.01 2.653h-.236A9.987 9.987 0 0 0 36 25c-5.523 0-10 4.477-10 10 0 2.163.687 4.166 1.854 5.802-1.5.15-3.275.198-5.376.198-12.123 0-13.434-1.572-13.49-15.461l-3.464-.002a1.519 1.519 0 0 1-1.002-2.66L20.614 8.753a3.038 3.038 0 0 1 4.024.015z"/><circle cx="36" cy="35" r="8" fill="url(#b)" fill-rule="nonzero"/><path fill="url(#c)" fill-rule="nonzero" d="M40.512 32.072a1.011 1.011 0 0 0-.64.664l-.025.116c-.265 1.6-1.9 2.815-3.847 2.815-1.88 0-3.469-1.133-3.816-2.66l-.032-.165c-.048-.345-.307-.64-.663-.77a1.183 1.183 0 0 0-1.035.108c-.32.206-.496.557-.445.917l.04.23c.2.993.729 1.907 1.515 2.634l.147.13-1.012.875c-.416.414-.389 1.016.034 1.378l.094.072c.39.265.94.26 1.327-.023l1.414-1.204c.375.142.766.25 1.166.324l.189.03v1.486c0 .549.494.971 1.077.971l.116-.006c.531-.05.96-.453.96-.965v-1.486l.19-.03c.4-.073.79-.182 1.167-.325l1.387 1.184c.446.328 1.055.308 1.448-.028l.084-.081a.902.902 0 0 0-.026-1.274l-1.043-.897.148-.13c.849-.783 1.4-1.782 1.56-2.861a.938.938 0 0 0-.444-.92 1.18 1.18 0 0 0-.905-.148l-.13.039z"/></g></svg>