<svg xmlns="http://www.w3.org/2000/svg" xmlns:xlink="http://www.w3.org/1999/xlink" width="48" height="48" viewBox="0 0 48 48"><title>ic_welcomtip</title><defs><linearGradient id="b" x1="95.986%" x2="15.522%" y1="12.177%" y2="85.52%"><stop offset="0%" stop-color="#D9DDE6"/><stop offset="100%" stop-color="#BFC2C8"/></linearGradient><path id="a" d="M20.285 25.536l11.991 24.615A1.286 1.286 0 0 1 31.12 52H4.056a1.286 1.286 0 0 1-1.155-1.849l11.99-24.615a3 3 0 0 1 5.394 0z"/><linearGradient id="c" x1="50%" x2="50%" y1="0%" y2="163.886%"><stop offset="0%" stop-color="#FFF"/><stop offset="100%" stop-color="#FFF"/></linearGradient><linearGradient id="e" x1="98.447%" x2="13.677%" y1="12.177%" y2="85.52%"><stop offset="0%" stop-color="#D9DDE6"/><stop offset="100%" stop-color="#BFC2C8"/></linearGradient><linearGradient id="f" x1="75.625%" x2="30.788%" y1="12.177%" y2="85.52%"><stop offset="0%" stop-color="#D9DDE6"/><stop offset="100%" stop-color="#BFC2C8"/></linearGradient><linearGradient id="g" x1="55.383%" x2="45.964%" y1="12.177%" y2="85.52%"><stop offset="0%" stop-color="#D9DDE6"/><stop offset="100%" stop-color="#BFC2C8"/></linearGradient></defs><g fill="none" fill-rule="evenodd" transform="rotate(45 15.846 31.376)"><mask id="d" fill="#fff"><use xlink:href="#a"/></mask><use fill="url(#b)" fill-rule="nonzero" transform="matrix(1 0 0 -1 0 72)" xlink:href="#a"/><path fill="url(#c)" fill-rule="nonzero" d="M3.588 24h28v2h-28z" mask="url(#d)"/><g fill-rule="nonzero"><path fill="url(#e)" d="M13.495 1.331a3 3 0 110 6 3 3 0 010-6zm0 2a1 1 0 100 2 1 1 0 000-2zM22.053 7.495a3 3 0 110 6 3 3 0 010-6zm0 2a1 1 0 100 2 1 1 0 000-2zM24.882.01a2 2 0 110 4 2 2 0 010-4zm0 1.333a.667.667 0 100 1.334.667.667 0 000-1.334z"/><path fill="url(#f)" d="M1.952 6.366a7 7 0 0 1 6.996 6.76l.004.24v3a1 1 0 0 1-1.993.117l-.007-.117v-3a5 5 0 0 0-5-5 1 1 0 1 1 0-2z"/><path fill="url(#e)" d="M28.182 9.134a7 7 0 0 1 6.996 6.76l.004.24a1 1 0 0 1-1.993.117l-.007-.117a5 5 0 0 0-5-5 1 1 0 1 1 0-2z" transform="matrix(-1 0 0 1 62.364 0)"/><path fill="url(#g)" d="M14.781 11.059a1 1 0 0 1 1 1v4a1 1 0 1 1-2 0v-4a1 1 0 0 1 1-1z"/></g></g></svg>