<svg xmlns="http://www.w3.org/2000/svg" width="48" height="48" viewBox="0 0 48 48"><title>ic_enterquiet</title><defs><linearGradient id="a" x1="50%" x2="50%" y1="0%" y2="163.886%"><stop offset="0%" stop-color="#FFF"/><stop offset="100%" stop-color="#FFF"/></linearGradient><linearGradient id="b" x1="70.864%" x2="34.357%" y1="12.177%" y2="85.52%"><stop offset="0%" stop-color="#D9DDE6"/><stop offset="100%" stop-color="#BFC2C8"/></linearGradient><linearGradient id="c" x1="98.447%" x2="13.677%" y1="12.177%" y2="85.52%"><stop offset="0%" stop-color="#D9DDE6"/><stop offset="100%" stop-color="#BFC2C8"/></linearGradient><linearGradient id="d" x1="50%" x2="50%" y1="0%" y2="163.886%"><stop offset="0%" stop-color="#FFF"/><stop offset="100%" stop-color="#FFF"/></linearGradient></defs><g fill="none" fill-rule="nonzero"><path fill="url(#a)" d="M9.734 5.187L7.442.839a.5.5 0 0 0-.884 0L4.266 5.187a.5.5 0 0 1-.732.174l-2.48-1.764a.5.5 0 0 0-.778.514l1.638 7.496a.5.5 0 0 0 .489.393h9.194a.5.5 0 0 0 .489-.393l1.638-7.496a.5.5 0 0 0-.779-.514l-2.48 1.764a.5.5 0 0 1-.731-.174z" transform="translate(17 13)"/><path fill="url(#b)" d="M21.5 7c5.592 0 10.125 4.586 10.125 10.243 0 3.648-1.884 6.85-4.722 8.665.888.408 1.767.907 2.6 1.491A9.975 9.975 0 0 0 26 35a9.972 9.972 0 0 0 3.144 7.28c-2.597.61-5.536.72-7.644.72C16.81 43 8 42.458 8 37.053c0-5.342 3.945-9.24 8.097-11.146a10.26 10.26 0 0 1-4.722-8.664C11.375 11.586 15.908 7 21.5 7z"/><circle cx="36" cy="35" r="8" fill="url(#c)"/><path fill="url(#d)" d="M40.512 32.072a1.011 1.011 0 0 0-.64.664l-.025.116c-.265 1.6-1.9 2.815-3.847 2.815-1.88 0-3.469-1.133-3.816-2.66l-.032-.165c-.048-.345-.307-.64-.663-.77a1.183 1.183 0 0 0-1.035.108c-.32.206-.496.557-.445.917l.04.23c.2.993.729 1.907 1.515 2.634l.147.13-1.012.875c-.416.414-.389 1.016.034 1.378l.094.072c.39.265.94.26 1.327-.023l1.414-1.204c.375.142.766.25 1.166.324l.189.03v1.486c0 .549.494.971 1.077.971l.116-.006c.531-.05.96-.453.96-.965v-1.486l.19-.03c.4-.073.79-.182 1.167-.325l1.387 1.184c.446.328 1.055.308 1.448-.028l.084-.081a.902.902 0 0 0-.026-1.274l-1.043-.897.148-.13c.849-.783 1.4-1.782 1.56-2.861a.938.938 0 0 0-.444-.92 1.18 1.18 0 0 0-.905-.148l-.13.039z"/></g></svg>