<svg xmlns="http://www.w3.org/2000/svg" width="48" height="48" viewBox="0 0 48 48"><title>ic_speedtip</title><defs><linearGradient id="a" x1="98.447%" x2="13.677%" y1="42.341%" y2="57.193%"><stop offset="0%" stop-color="#D9DDE6"/><stop offset="100%" stop-color="#BFC2C8"/></linearGradient><linearGradient id="b" x1="98.447%" x2="13.677%" y1="23.449%" y2="74.934%"><stop offset="0%" stop-color="#D9DDE6"/><stop offset="100%" stop-color="#BFC2C8"/></linearGradient><linearGradient id="c" x1="50%" x2="50%" y1="0%" y2="163.886%"><stop offset="0%" stop-color="#FFF"/><stop offset="100%" stop-color="#FFF"/></linearGradient></defs><g fill="none" fill-rule="nonzero"><path fill="url(#a)" d="M19 31a1 1 0 0 1 1 1v7a1 1 0 0 1-2 0v-7a1 1 0 0 1 1-1zm7 0c1.657 0 3 1.36 3 3.038 0 1.677-1.343 3.037-3 3.037h-2V39a1 1 0 0 1-.883.993L23 40a1 1 0 0 1-.993-.883L22 39v-7a1 1 0 0 1 .883-.993L23 31h3zm-9.649.065c.48.182.74.698.62 1.19l-.034.113-3 6.975c-.31.834-1.434.874-1.82.12l-.053-.12-3-6.975a1.016 1.016 0 0 1 .585-1.303.995.995 0 0 1 1.24.484l.048.108L13 36.103l2.064-4.446a.996.996 0 0 1 1.287-.592zM26 33.025h-2v2.025h2c.552 0 1-.453 1-1.012 0-.52-.386-.947-.883-1.006L26 33.025z" transform="translate(5 4)"/><path fill="url(#b)" d="M19 0C8.784 0 .5 8.09.5 18.075c0 4.602 1.76 8.8 4.65 11.989.09.096.173.193.264.282a2.11 2.11 0 0 0 3.064-.008c2.61-2.777 6.36-4.513 10.522-4.513 4.163 0 7.912 1.744 10.522 4.513a2.11 2.11 0 0 0 3.064.008l.264-.282c2.89-3.19 4.65-7.387 4.65-11.989C37.5 8.09 29.216 0 19 0z" transform="translate(5 4)"/><path fill="url(#c)" d="M24.448 13.023c.362.25.442.743.185 1.094l-3.817 5.899a2.457 2.457 0 0 1-.562.547 2.465 2.465 0 0 1-3.375-.547c-.78-1.055-.523-2.524.562-3.282l6.067-3.71a.841.841 0 0 1 .94 0zM7.59 17.398c.619 0 1.125.493 1.125 1.094 0 .602-.506 1.094-1.125 1.094H4.696c-.618 0-1.125-.492-1.125-1.094 0-.601.507-1.094 1.125-1.094H7.59zm25.715 0c.618 0 1.125.493 1.125 1.094 0 .602-.507 1.094-1.125 1.094H30.41c-.619 0-1.125-.492-1.125-1.094 0-.601.506-1.094 1.125-1.094h2.893zM9.679 7.891l2.049 1.992a1.073 1.073 0 0 1 0 1.539 1.158 1.158 0 0 1-1.591 0l-2.05-1.985a1.082 1.082 0 0 1 0-1.546 1.158 1.158 0 0 1 1.592 0zm20.233-.008a1.082 1.082 0 0 1 0 1.547l-2.049 1.992a1.158 1.158 0 0 1-1.59 0 1.082 1.082 0 0 1 0-1.547l2.048-1.992a1.158 1.158 0 0 1 1.591 0zM19 3.493c.619 0 1.125.491 1.125 1.093v2.812c0 .602-.506 1.094-1.125 1.094S17.875 8 17.875 7.398V4.586c0-.602.506-1.094 1.125-1.094z" transform="translate(5 4)"/></g></svg>