<svg xmlns="http://www.w3.org/2000/svg" width="48" height="48" viewBox="0 0 48 48"><title>ic_hidetip</title><defs><linearGradient id="a" x1="98.447%" x2="13.677%" y1="20.551%" y2="77.656%"><stop offset="0%" stop-color="#D9DDE6"/><stop offset="100%" stop-color="#BFC2C8"/></linearGradient><linearGradient id="b" x1="98.447%" x2="13.677%" y1="12.177%" y2="85.52%"><stop offset="0%" stop-color="#D9DDE6"/><stop offset="100%" stop-color="#BFC2C8"/></linearGradient><linearGradient id="c" x1="50%" x2="50%" y1="0%" y2="163.886%"><stop offset="0%" stop-color="#FFF"/><stop offset="100%" stop-color="#FFF"/></linearGradient><linearGradient id="d" x1="50%" x2="50%" y1="0%" y2="163.886%"><stop offset="0%" stop-color="#FFF"/><stop offset="100%" stop-color="#FFF"/></linearGradient></defs><g fill="none" fill-rule="nonzero"><path fill="url(#a)" d="M24.888 34c0 1.822.488 3.53 1.339 5.001L11.666 39c-.92 0-1.667-.895-1.667-2v-4c0-1.105.746-2 1.667-2h13.68a9.996 9.996 0 0 0-.458 3zM38.11 20c1.044 0 1.89.895 1.89 2v3.403A9.954 9.954 0 0 0 34.888 24a9.985 9.985 0 0 0-8 4h-19C6.847 28 6 27.105 6 26v-4c0-1.105.846-2 1.889-2H38.11zm0-11c1.044 0 1.89.895 1.89 2v4c0 1.105-.846 2-1.89 2H7.89C6.846 17 6 16.105 6 15v-4c0-1.105.846-2 1.889-2H38.11z"/><circle cx="35" cy="34" r="8" fill="url(#b)"/><path fill="url(#c)" d="M39.512 31.072a1.011 1.011 0 0 0-.64.664l-.025.116c-.265 1.6-1.9 2.815-3.847 2.815-1.88 0-3.469-1.133-3.816-2.66l-.032-.165c-.048-.345-.307-.64-.663-.77a1.183 1.183 0 0 0-1.035.108c-.32.206-.496.557-.445.917l.04.23c.2.993.729 1.907 1.515 2.634l.147.13-1.012.875c-.416.414-.389 1.016.034 1.378l.094.072c.39.265.94.26 1.327-.023l1.414-1.204c.375.142.766.25 1.166.324l.189.03v1.486c0 .549.494.971 1.077.971l.116-.006c.531-.05.96-.453.96-.965v-1.486l.19-.03c.4-.073.79-.182 1.167-.325l1.387 1.184c.446.328 1.055.308 1.448-.028l.084-.081a.902.902 0 0 0-.026-1.274l-1.043-.897.148-.13c.849-.783 1.4-1.782 1.56-2.861a.938.938 0 0 0-.444-.92 1.18 1.18 0 0 0-.905-.148l-.13.039z"/><path fill="url(#d)" d="M9.535 14.245l-.123.064a.328.328 0 01-.475-.345l.023-.137a1 1 0 00-.288-.885l-.099-.097a.328.328 0 01.182-.559l.137-.02a1 1 0 00.753-.546l.061-.125a.328.328 0 01.588 0l.061.125a1 1 0 00.753.547l.137.02a.328.328 0 01.182.558l-.1.097a1 1 0 00-.287.885l.023.137a.328.328 0 01-.475.345l-.123-.064a1 1 0 00-.93 0zM9.535 25.245l-.123.064a.328.328 0 01-.475-.345l.023-.137a1 1 0 00-.288-.885l-.099-.097a.328.328 0 01.182-.559l.137-.02a1 1 0 00.753-.546l.061-.125a.328.328 0 01.588 0l.061.125a1 1 0 00.753.547l.137.02a.328.328 0 01.182.558l-.1.097a1 1 0 00-.287.885l.023.137a.328.328 0 01-.475.345l-.123-.064a1 1 0 00-.93 0zM13.535 36.245l-.123.064a.328.328 0 01-.475-.345l.023-.137a1 1 0 00-.288-.885l-.099-.097a.328.328 0 01.182-.559l.137-.02a1 1 0 00.753-.546l.061-.125a.328.328 0 01.588 0l.061.125a1 1 0 00.753.547l.137.02a.328.328 0 01.182.558l-.1.097a1 1 0 00-.287.885l.023.137a.328.328 0 01-.475.345l-.123-.064a1 1 0 00-.93 0z"/></g></svg>