<svg xmlns="http://www.w3.org/2000/svg" width="48" height="48" viewBox="0 0 48 48"><title>ic_globalnotice</title><defs><linearGradient id="a" x1="71.369%" x2="33.979%" y1="12.177%" y2="85.52%"><stop offset="0%" stop-color="#D9DDE6"/><stop offset="100%" stop-color="#BFC2C8"/></linearGradient><linearGradient id="b" x1="59.57%" x2="42.825%" y1="12.177%" y2="85.52%"><stop offset="0%" stop-color="#BFC2C8"/><stop offset="100%" stop-color="#D9DDE6"/></linearGradient><linearGradient id="c" x1="98.447%" x2="13.677%" y1="14.661%" y2="83.187%"><stop offset="0%" stop-color="#D9DDE6"/><stop offset="100%" stop-color="#BFC2C8"/></linearGradient></defs><g fill="none" fill-rule="nonzero"><path fill="url(#a)" d="M36.448 4.906c6.433 2.342 9.783 9.382 7.472 15.732a1.25 1.25 0 0 1-2.35-.855c1.836-5.044-.834-10.655-5.977-12.527a1.25 1.25 0 1 1 .855-2.35zm-1.164 5.452c3.386 1.233 5.152 4.944 3.932 8.297a1.25 1.25 0 0 1-2.35-.856c.746-2.046-.34-4.328-2.437-5.091a1.25 1.25 0 1 1 .855-2.35z"/><rect width="8" height="18" x="12" y="25" fill="url(#b)" rx="4" transform="rotate(-15 16 34)"/><path fill="url(#c)" d="M33.688 11.888c.204.436.31.91.31 1.391v22.446a3.275 3.275 0 0 1-4.132 3.162v-28.77a3.276 3.276 0 0 1 3.822 1.771zm-5.822-.887v27.001l-14.93-7H10.5a6.5 6.5 0 0 1 0-13h2.44l14.927-7z" transform="rotate(-30 18.998 24.502)"/></g></svg>