<svg xmlns="http://www.w3.org/2000/svg" width="48" height="48" viewBox="0 0 48 48"><title>ic_entrywelcome</title><defs><linearGradient id="a" x1="98.447%" x2="13.677%" y1="47.875%" y2="51.996%"><stop offset="0%" stop-color="#D9DDE6"/><stop offset="100%" stop-color="#BFC2C8"/></linearGradient><linearGradient id="b" x1="98.447%" x2="13.677%" y1="12.541%" y2="85.178%"><stop offset="0%" stop-color="#D9DDE6"/><stop offset="100%" stop-color="#BFC2C8"/></linearGradient><linearGradient id="c" x1="98.447%" x2="13.677%" y1="12.465%" y2="85.249%"><stop offset="0%" stop-color="#D9DDE6"/><stop offset="100%" stop-color="#BFC2C8"/></linearGradient><linearGradient id="d" x1="87.623%" x2="21.793%" y1="12.177%" y2="85.52%"><stop offset="0%" stop-color="#D9DDE6"/><stop offset="100%" stop-color="#BFC2C8"/></linearGradient><linearGradient id="e" x1="98.447%" x2="-70.628%" y1="12.391%" y2="173.284%"><stop offset="0%" stop-color="#D9DDE6"/><stop offset="100%" stop-color="#BFC2C8"/></linearGradient><linearGradient id="f" x1="98.447%" x2="-70.628%" y1="12.541%" y2="172.792%"><stop offset="0%" stop-color="#D9DDE6"/><stop offset="100%" stop-color="#BFC2C8"/></linearGradient></defs><g fill="none" fill-rule="nonzero"><path fill="url(#a)" d="M40 39.348v1.306a2 2 0 0 1-2 2H10a2 2 0 0 1-2-2v-1.306a2 2 0 0 1 1.22-1.842c3.844-1.625 8.77-2.438 14.78-2.438s10.936.813 14.78 2.438A2 2 0 0 1 40 39.348z"/><path fill="url(#b)" d="M14.941 20.71a1.25 1.25 0 0 1 0 2.5c-4.51 0-8.162 3.63-8.162 8.105a1.25 1.25 0 0 1-2.5 0c0-5.859 4.776-10.605 10.662-10.605z" transform="rotate(90 10.235 26.637)"/><path fill="url(#c)" d="M10.235 25.895a1.25 1.25 0 0 1 .128 2.494l-.128.006c-1.91 0-3.455 1.536-3.455 3.428a1.25 1.25 0 0 1-2.5 0c0-3.276 2.667-5.928 5.955-5.928z" transform="rotate(90 7.882 29.484)"/><path fill="url(#d)" d="M22.116 30.482L19 20l-5.493.058a2 2 0 0 1-1.527-3.316L22.501 4.714a2 2 0 0 1 3.005-.007l10.562 11.97a2 2 0 0 1-1.5 3.323H29l-3.046 10.47a2 2 0 0 1-3.838.012z"/><path fill="url(#e)" d="M39.294 28.234a1.25 1.25 0 0 1 .128 2.493l-.128.007c-.57 0-1.037.426-1.096.97l-.007.119a1.25 1.25 0 0 1-2.5 0 3.595 3.595 0 0 1 3.603-3.59z"/><path fill="url(#f)" d="M41.294 22.387a1.25 1.25 0 0 1 0 2.5c-4.51 0-8.163 3.63-8.163 8.105a1.25 1.25 0 0 1-2.5 0c0-5.859 4.776-10.604 10.663-10.604z"/></g></svg>