<svg xmlns="http://www.w3.org/2000/svg" width="48" height="48" viewBox="0 0 48 48"><title>ic_servicetip</title><defs><linearGradient id="a" x1="98.447%" x2="13.677%" y1="12.177%" y2="85.52%"><stop offset="0%" stop-color="#D9DDE6"/><stop offset="100%" stop-color="#BFC2C8"/></linearGradient><linearGradient id="b" x1="50%" x2="50%" y1="0%" y2="163.886%"><stop offset="0%" stop-color="#FFF"/><stop offset="100%" stop-color="#FFF"/></linearGradient></defs><g fill="none" fill-rule="evenodd"><path fill="url(#a)" fill-rule="nonzero" d="M21.508 36.08l-9.897 2.7a1.87 1.87 0 0 1-2.36-1.714l-.49-10.247a1.87 1.87 0 0 0-.305-.936L2.83 17.305a1.87 1.87 0 0 1 .901-2.774l9.595-3.633a1.87 1.87 0 0 0 .796-.579l6.42-8.002a1.87 1.87 0 0 1 2.916 0l6.42 8.002c.21.26.484.46.796.579l9.595 3.633a1.87 1.87 0 0 1 .9 2.774l-5.625 8.578a1.87 1.87 0 0 0-.305.936l-.49 10.247a1.87 1.87 0 0 1-2.36 1.715l-9.897-2.7a1.87 1.87 0 0 0-.984 0z" transform="translate(2 3)"/><path stroke="#FFF" d="M23.605 36.784l-8.381 2.286a1.5 1.5 0 0 1-1.894-1.375l-.415-8.678a1.5 1.5 0 0 0-.244-.751L7.906 21a1.5 1.5 0 0 1 .723-2.225l8.125-3.077a1.5 1.5 0 0 0 .64-.464l5.436-6.777a1.5 1.5 0 0 1 2.34 0l5.437 6.777a1.5 1.5 0 0 0 .639.464l8.125 3.077A1.5 1.5 0 0 1 40.094 21l-4.765 7.265a1.5 1.5 0 0 0-.244.75l-.415 8.679a1.5 1.5 0 0 1-1.894 1.375l-8.381-2.286a1.5 1.5 0 0 0-.79 0z" opacity=".5"/><path fill="url(#b)" fill-rule="nonzero" d="M29 27.5a1.5 1.5 0 0 1-1.5 1.5H26a2 2 0 0 1-2-2v-1.6a2 2 0 0 1 2-2h1.499l.001-1.306c0-3.073-2.462-5.567-5.5-5.567-2.988 0-5.418 2.411-5.498 5.414l-.002.153-.001 1.306H18a2 2 0 0 1 2 2V27a2 2 0 0 1-2 2h-1.5a1.5 1.5 0 0 1-1.5-1.5v-5.406C15 18.175 18.135 15 22 15c3.81 0 6.909 3.084 6.998 6.924l.002.17z" transform="translate(2 3)"/></g></svg>