<?xml version="1.0" encoding="UTF-8"?>
<svg width="48px" height="48px" viewBox="0 0 48 48" version="1.1" xmlns="http://www.w3.org/2000/svg">
    <g id="伴伴" stroke="none" stroke-width="1" fill="none" fill-rule="evenodd">
        <g id="登录_已有手机下一步" transform="translate(-260.000000, -704.000000)" fill-rule="nonzero">
            <g id="info" transform="translate(43.000000, 354.000000)">
                <g id="other" transform="translate(0.000000, 317.000000)">
                    <g id="apple_logo" transform="translate(217.000000, 33.000000)">
                        <rect id="Rectangle" fill="#000000" x="0" y="0" width="48" height="48" rx="24"></rect>
                        <path d="M24.2428977,15.6923077 C25.1505682,15.6923077 26.2883522,15.0598162 26.9659091,14.2164943 C27.5795455,13.4522337 28.0269886,12.3849044 28.0269886,11.3175749 C28.0269886,11.172629 28.0142045,11.0276831 27.9886364,10.9090909 C26.9786931,10.9486216 25.7642045,11.6074669 25.0355113,12.4903196 C24.4602273,13.1623418 23.9360795,14.2164943 23.9360795,15.2970005 C23.9360795,15.4551233 23.9616478,15.6132463 23.9744318,15.6659539 C24.0383522,15.6791308 24.1406249,15.6923077 24.2428977,15.6923077 Z M21.0468751,31.6363636 C22.2869318,31.6363636 22.8366478,30.7798647 24.3835227,30.7798647 C25.955966,30.7798647 26.3011364,31.6100098 27.6818182,31.6100098 C29.0369318,31.6100098 29.9446023,30.3186731 30.8011364,29.0536901 C31.7599431,27.6042304 32.15625,26.1811247 32.1818182,26.1152401 C32.0923296,26.0888864 29.4971591,24.9952031 29.4971591,21.9249841 C29.4971591,19.2632492 31.5426136,18.0641507 31.6576704,17.9719124 C30.3025569,15.9690227 28.2443182,15.9163151 27.6818182,15.9163151 C26.1605114,15.9163151 24.9204545,16.8650523 24.1406249,16.8650523 C23.2968751,16.8650523 22.1846591,15.9690227 20.8678977,15.9690227 C18.3622159,15.9690227 15.8181818,18.1036814 15.8181818,22.1358146 C15.8181818,24.6394267 16.7642045,27.2879847 17.9275569,29.0009824 C18.9247159,30.4504421 19.794034,31.6363636 21.0468751,31.6363636 Z" id="" fill="#FFFFFF"></path>
                    </g>
                </g>
            </g>
        </g>
    </g>
</svg>