<?xml version="1.0" encoding="UTF-8"?>
<svg width="24px" height="24px" viewBox="0 0 24 24" version="1.1" xmlns="http://www.w3.org/2000/svg" xmlns:xlink="http://www.w3.org/1999/xlink">
    <title>ic_titlebar_search</title>
    <g id="ic_titlebar_search" stroke="none" stroke-width="1" fill="none" fill-rule="evenodd" opacity="0.200000003">
        <path d="M11,2.5 C15.6944204,2.5 19.5,6.30557963 19.5,11 C19.5,12.4914331 19.1158822,13.8931506 18.4411793,15.1116201 L21.767767,18.4393398 C22.5488155,19.2203884 22.5488155,20.4867184 21.767767,21.267767 C20.9867184,22.0488155 19.7203884,22.0488155 18.9393398,21.267767 L15.7327286,18.0616041 C14.3800006,18.9700042 12.7518939,19.5 11,19.5 C6.30557963,19.5 2.5,15.6944204 2.5,11 C2.5,6.30557963 6.30557963,2.5 11,2.5 Z M11,5.5 C7.96243388,5.5 5.5,7.96243388 5.5,11 C5.5,14.0375661 7.96243388,16.5 11,16.5 C14.0375661,16.5 16.5,14.0375661 16.5,11 C16.5,7.96243388 14.0375661,5.5 11,5.5 Z" id="形状结合" fill="#313131" fill-rule="nonzero"></path>
    </g>
</svg>