<?xml version="1.0" encoding="UTF-8"?>
<svg width="16px" height="16px" viewBox="0 0 16 16" version="1.1" xmlns="http://www.w3.org/2000/svg" xmlns:xlink="http://www.w3.org/1999/xlink">
    <title>我的圈子</title>
    <defs>
        <path d="M11.9553381,11.0153803 C11.9850542,11.1813278 12,11.349583 12,11.5181701 L12,11.6848368 C12,13.525786 10.5076158,15.0181701 8.66666667,15.0181701 L3.33333333,15.0181701 C1.49238417,15.0181701 6.6954046e-16,13.525786 0,11.6848368 L0,11.5181701 C-1.86205776e-16,9.99768457 1.23259708,8.76508749 2.75308263,8.76508749 C2.92392988,8.76508749 3.09440624,8.78099075 3.26230155,8.81261268 C4.39866022,9.02648925 5.31584842,9.11085598 6.01386614,9.06571286 C6.68861739,9.02207447 7.56557966,8.90363197 8.64475294,8.71038535 C10.1954545,8.43268932 11.677655,9.46467644 11.9553381,11.0153803 Z M9.624762,0.688580082 L9.624762,4.68858008 C9.624762,6.89771908 7.833901,8.68858008 5.624762,8.68858008 C3.415623,8.68858008 1.624762,6.89771908 1.624762,4.68858008 C1.624762,2.47944108 3.415623,0.688580082 5.624762,0.688580082 L9.624762,0.688580082 Z" id="path-1"></path>
        <path d="M11.9553381,11.0153803 C11.9850542,11.1813278 12,11.349583 12,11.5181701 L12,11.6848368 C12,13.525786 10.5076158,15.0181701 8.66666667,15.0181701 L3.33333333,15.0181701 C1.49238417,15.0181701 6.6954046e-16,13.525786 0,11.6848368 L0,11.5181701 C-1.86205776e-16,9.99768457 1.23259708,8.76508749 2.75308263,8.76508749 C2.92392988,8.76508749 3.09440624,8.78099075 3.26230155,8.81261268 C4.39866022,9.02648925 5.31584842,9.11085598 6.01386614,9.06571286 C6.68861739,9.02207447 7.56557966,8.90363197 8.64475294,8.71038535 C10.1954545,8.43268932 11.677655,9.46467644 11.9553381,11.0153803 Z M9.624762,0.688580082 L9.624762,4.68858008 C9.624762,6.89771908 7.833901,8.68858008 5.624762,8.68858008 C3.415623,8.68858008 1.624762,6.89771908 1.624762,4.68858008 C1.624762,2.47944108 3.415623,0.688580082 5.624762,0.688580082 L9.624762,0.688580082 Z" id="path-3"></path>
        <path d="M11.9553381,11.0153803 C11.9850542,11.1813278 12,11.349583 12,11.5181701 L12,11.6848368 C12,13.525786 10.5076158,15.0181701 8.66666667,15.0181701 L3.33333333,15.0181701 C1.49238417,15.0181701 6.6954046e-16,13.525786 0,11.6848368 L0,11.5181701 C-1.86205776e-16,9.99768457 1.23259708,8.76508749 2.75308263,8.76508749 C2.92392988,8.76508749 3.09440624,8.78099075 3.26230155,8.81261268 C4.39866022,9.02648925 5.31584842,9.11085598 6.01386614,9.06571286 C6.68861739,9.02207447 7.56557966,8.90363197 8.64475294,8.71038535 C10.1954545,8.43268932 11.677655,9.46467644 11.9553381,11.0153803 Z M9.624762,0.688580082 L9.624762,4.68858008 C9.624762,6.89771908 7.833901,8.68858008 5.624762,8.68858008 C3.415623,8.68858008 1.624762,6.89771908 1.624762,4.68858008 C1.624762,2.47944108 3.415623,0.688580082 5.624762,0.688580082 L9.624762,0.688580082 Z" id="path-5"></path>
    </defs>
    <g id="游戏圈" stroke="none" stroke-width="1" fill="none" fill-rule="evenodd">
        <g id="圈子-长" transform="translate(-20.000000, -522.000000)">
            <rect fill="#FFFFFF" x="0" y="0" width="375" height="1403"></rect>
            <g id="编组-2" transform="translate(0.000000, 511.000000)">
                <g id="我的圈子">
                    <rect id="矩形" x="0" y="0" width="375" height="38"></rect>
                    <g transform="translate(20.000000, 11.000000)" fill-rule="evenodd" id="编组" stroke-width="1">
                        <g transform="translate(1.000000, 0.000000)">
                            <g id="编组-7" transform="translate(-1.000000, 0.000000)">
                                <g id="编组-9">
                                    <rect id="矩形" fill="#FCD415" x="0" y="1" width="15" height="15" rx="7.5"></rect>
                                    <g id="编组-8" transform="translate(2.000000, 0.000000)">
                                        <g id="编组-10" transform="translate(0.000000, 0.311420)">
                                            <mask id="mask-2" fill="white">
                                                <use xlink:href="#path-1"></use>
                                            </mask>
                                            <use id="形状结合" fill="#202020" xlink:href="#path-1"></use>
                                            <path d="M5.624762,7.68858008 C6.7293315,7.68858008 7.624762,6.79314958 7.624762,5.68858008 C7.624762,4.58401058 6.7293315,5.3902162 5.624762,5.3902162 C4.5201925,5.3902162 3.624762,4.58401058 3.624762,5.68858008 C3.624762,6.79314958 4.5201925,7.68858008 5.624762,7.68858008 Z" id="椭圆形" fill="#FFFFFF" mask="url(#mask-2)"></path>
                                        </g>
                                    </g>
                                </g>
                            </g>
                        </g>
                    </g>
                    <text font-family="PingFangSC-Medium, PingFang SC" font-size="16" font-weight="400" fill="#202020">
                        <tspan x="38" y="25">我的圈子</tspan>
                    </text>
                </g>
                <g id="我的圈子">
                    <rect id="矩形" x="0" y="0" width="375" height="38"></rect>
                    <g transform="translate(20.000000, 11.000000)" id="编组">
                        <g transform="translate(1.000000, 0.000000)">
                            <g id="编组-7" transform="translate(-1.000000, 0.000000)">
                                <g id="编组-9">
                                    <rect id="矩形" fill="#FCD415" x="0" y="1" width="15" height="15" rx="7.5"></rect>
                                    <g id="编组-8" transform="translate(2.000000, 0.000000)">
                                        <g id="编组-10" transform="translate(0.000000, 0.311420)">
                                            <mask id="mask-4" fill="white">
                                                <use xlink:href="#path-3"></use>
                                            </mask>
                                            <use id="形状结合" fill="#202020" xlink:href="#path-3"></use>
                                            <path d="M5.624762,7.68858008 C6.7293315,7.68858008 7.624762,6.79314958 7.624762,5.68858008 C7.624762,4.58401058 6.7293315,5.3902162 5.624762,5.3902162 C4.5201925,5.3902162 3.624762,4.58401058 3.624762,5.68858008 C3.624762,6.79314958 4.5201925,7.68858008 5.624762,7.68858008 Z" id="椭圆形" fill="#FFFFFF" mask="url(#mask-4)"></path>
                                        </g>
                                    </g>
                                </g>
                            </g>
                        </g>
                    </g>
                    <g transform="translate(20.000000, 11.000000)" id="编组">
                        <g transform="translate(1.000000, 0.000000)">
                            <g id="编组-7" transform="translate(-1.000000, 0.000000)">
                                <g id="编组-9">
                                    <rect id="矩形" fill="#FCD415" x="0" y="1" width="15" height="15" rx="7.5"></rect>
                                    <g id="编组-8" transform="translate(2.000000, 0.000000)">
                                        <g id="编组-10" transform="translate(0.000000, 0.311420)">
                                            <mask id="mask-6" fill="white">
                                                <use xlink:href="#path-5"></use>
                                            </mask>
                                            <use id="形状结合" fill="#202020" xlink:href="#path-5"></use>
                                            <path d="M5.624762,7.68858008 C6.7293315,7.68858008 7.624762,6.79314958 7.624762,5.68858008 C7.624762,4.58401058 6.7293315,5.3902162 5.624762,5.3902162 C4.5201925,5.3902162 3.624762,4.58401058 3.624762,5.68858008 C3.624762,6.79314958 4.5201925,7.68858008 5.624762,7.68858008 Z" id="椭圆形" fill="#FFFFFF" mask="url(#mask-6)"></path>
                                        </g>
                                    </g>
                                </g>
                            </g>
                        </g>
                    </g>
                </g>
            </g>
        </g>
    </g>
</svg>