<?xml version="1.0" encoding="UTF-8"?>
<svg width="16px" height="16px" viewBox="0 0 16 16" version="1.1" xmlns="http://www.w3.org/2000/svg" xmlns:xlink="http://www.w3.org/1999/xlink">
    <title>推荐圈子</title>
    <g id="游戏圈" stroke="none" stroke-width="1" fill="none" fill-rule="evenodd">
        <g id="圈子-长" transform="translate(-20.000000, -930.000000)">
            <rect fill="#FFFFFF" x="0" y="0" width="375" height="1403"></rect>
            <g id="编组-2" transform="translate(0.000000, 511.000000)">
                <g id="推荐圈子" transform="translate(0.000000, 408.000000)">
                    <g id="编组-14备份-2">
                        <g id="编组-16">
                            <rect id="矩形" x="0" y="0" width="375" height="38"></rect>
                            <g id="编组-6" transform="translate(20.000000, 8.000000)">
                                <text id="推荐圈子" font-family="PingFangSC-Medium, PingFang SC" font-size="16" font-weight="400" fill="#202020">
                                    <tspan x="18" y="17">推荐圈子</tspan>
                                </text>
                                <g id="推荐圈子" transform="translate(0.000000, 3.000000)">
                                    <rect id="矩形" fill="#FCD415" x="0" y="1" width="15" height="15" rx="7.5"></rect>
                                    <g id="赞" stroke-width="1" transform="translate(1.000000, 1.000000)">
                                        <rect id="矩形" fill="#000000" fill-rule="nonzero" opacity="0" x="0" y="0" width="14" height="14"></rect>
                                        <path d="M13.9504803,6.40822746 C13.8771549,6.00834129 13.598627,5.67663874 13.2174505,5.53525264 C13.002315,5.46556824 12.77717,5.43179788 12.5510573,5.43529777 L9.02583972,5.43529777 C8.87256463,5.43529777 8.87256463,5.43529777 8.89255287,5.28202268 C8.96586131,4.85552938 9.02583972,4.4223779 9.11246454,3.99588462 C9.24379609,3.42931949 9.22078466,2.83790106 9.04582796,2.28325326 C8.87256463,1.77679333 8.6726412,1.28366346 8.48606149,0.783861723 C8.40032066,0.506827267 8.19849336,0.280684496 7.93295322,0.164116859 C7.42394064,-0.0700972566 6.83469242,-0.0528336717 6.34026498,0.210778873 C6.01275685,0.358421302 5.80913651,0.691625141 5.82716054,1.05042174 C5.82716054,1.60353 5.82716054,2.15663829 5.86713702,2.70974655 C5.87752888,2.88666385 5.83582323,3.06274593 5.74718024,3.21620648 C5.32068694,3.94923627 5.01415045,4.54899289 4.5676689,5.21538609 C4.43284336,5.39199214 4.28587992,5.55899232 4.12784557,5.71517416 C3.45904293,5.71517416 2.64672521,5.71517416 1.6908924,5.71517416 C1.13860286,5.71516548 0.690883727,6.16288462 0.690883727,6.71517416 L0.690883727,12.9984409 C0.690883727,13.5507256 1.13859898,13.9984409 1.69088373,13.9984409 L10.851756,13.9984409 L10.851756,13.9984409 C11.20095,14.0091014 11.549615,13.9641095 11.8846641,13.865154 C12.5318143,13.6762951 12.9888595,13.098973 13.0241853,12.4257545 C13.0533407,12.160457 13.8819024,7.06456941 13.9152247,6.84809673 C13.9374395,6.7037816 13.9491914,6.55715851 13.9504803,6.40822746 Z" id="形状" fill="#202020" fill-rule="nonzero"></path>
                                        <path d="M3,6.67427917 C3.55228475,6.67427917 4,7.12199442 4,7.67427917 L4,12 C4,12.5522847 3.55228475,13 3,13 C2.44771525,13 2,12.5522847 2,12 L2,7.67427917 C2,7.12199442 2.44771525,6.67427917 3,6.67427917 Z" id="矩形" fill="#FFFFFF"></path>
                                    </g>
                                </g>
                            </g>
                        </g>
                    </g>
                </g>
                <g id="推荐圈子" transform="translate(0.000000, 408.000000)">
                    <g id="编组-14备份-2">
                        <g id="编组-16">
                            <rect id="矩形" x="0" y="0" width="375" height="38"></rect>
                            <g id="编组-6" transform="translate(20.000000, 8.000000)">
                                <g id="推荐圈子" transform="translate(0.000000, 3.000000)">
                                    <rect id="矩形" fill="#FCD415" x="0" y="1" width="15" height="15" rx="7.5"></rect>
                                    <g id="赞" stroke-width="1" transform="translate(1.000000, 1.000000)">
                                        <rect id="矩形" fill="#000000" fill-rule="nonzero" opacity="0" x="0" y="0" width="14" height="14"></rect>
                                        <path d="M13.9504803,6.40822746 C13.8771549,6.00834129 13.598627,5.67663874 13.2174505,5.53525264 C13.002315,5.46556824 12.77717,5.43179788 12.5510573,5.43529777 L9.02583972,5.43529777 C8.87256463,5.43529777 8.87256463,5.43529777 8.89255287,5.28202268 C8.96586131,4.85552938 9.02583972,4.4223779 9.11246454,3.99588462 C9.24379609,3.42931949 9.22078466,2.83790106 9.04582796,2.28325326 C8.87256463,1.77679333 8.6726412,1.28366346 8.48606149,0.783861723 C8.40032066,0.506827267 8.19849336,0.280684496 7.93295322,0.164116859 C7.42394064,-0.0700972566 6.83469242,-0.0528336717 6.34026498,0.210778873 C6.01275685,0.358421302 5.80913651,0.691625141 5.82716054,1.05042174 C5.82716054,1.60353 5.82716054,2.15663829 5.86713702,2.70974655 C5.87752888,2.88666385 5.83582323,3.06274593 5.74718024,3.21620648 C5.32068694,3.94923627 5.01415045,4.54899289 4.5676689,5.21538609 C4.43284336,5.39199214 4.28587992,5.55899232 4.12784557,5.71517416 C3.45904293,5.71517416 2.64672521,5.71517416 1.6908924,5.71517416 C1.13860286,5.71516548 0.690883727,6.16288462 0.690883727,6.71517416 L0.690883727,12.9984409 C0.690883727,13.5507256 1.13859898,13.9984409 1.69088373,13.9984409 L10.851756,13.9984409 L10.851756,13.9984409 C11.20095,14.0091014 11.549615,13.9641095 11.8846641,13.865154 C12.5318143,13.6762951 12.9888595,13.098973 13.0241853,12.4257545 C13.0533407,12.160457 13.8819024,7.06456941 13.9152247,6.84809673 C13.9374395,6.7037816 13.9491914,6.55715851 13.9504803,6.40822746 Z" id="形状" fill="#202020" fill-rule="nonzero"></path>
                                        <path d="M3,6.67427917 C3.55228475,6.67427917 4,7.12199442 4,7.67427917 L4,12 C4,12.5522847 3.55228475,13 3,13 C2.44771525,13 2,12.5522847 2,12 L2,7.67427917 C2,7.12199442 2.44771525,6.67427917 3,6.67427917 Z" id="矩形" fill="#FFFFFF"></path>
                                    </g>
                                </g>
                                <g id="推荐圈子" transform="translate(0.000000, 3.000000)">
                                    <rect id="矩形" fill="#FCD415" x="0" y="1" width="15" height="15" rx="7.5"></rect>
                                    <g id="赞" transform="translate(1.000000, 1.000000)">
                                        <rect id="矩形" fill="#000000" fill-rule="nonzero" opacity="0" x="0" y="0" width="14" height="14"></rect>
                                        <path d="M13.9504803,6.40822746 C13.8771549,6.00834129 13.598627,5.67663874 13.2174505,5.53525264 C13.002315,5.46556824 12.77717,5.43179788 12.5510573,5.43529777 L9.02583972,5.43529777 C8.87256463,5.43529777 8.87256463,5.43529777 8.89255287,5.28202268 C8.96586131,4.85552938 9.02583972,4.4223779 9.11246454,3.99588462 C9.24379609,3.42931949 9.22078466,2.83790106 9.04582796,2.28325326 C8.87256463,1.77679333 8.6726412,1.28366346 8.48606149,0.783861723 C8.40032066,0.506827267 8.19849336,0.280684496 7.93295322,0.164116859 C7.42394064,-0.0700972566 6.83469242,-0.0528336717 6.34026498,0.210778873 C6.01275685,0.358421302 5.80913651,0.691625141 5.82716054,1.05042174 C5.82716054,1.60353 5.82716054,2.15663829 5.86713702,2.70974655 C5.87752888,2.88666385 5.83582323,3.06274593 5.74718024,3.21620648 C5.32068694,3.94923627 5.01415045,4.54899289 4.5676689,5.21538609 C4.43284336,5.39199214 4.28587992,5.55899232 4.12784557,5.71517416 C3.45904293,5.71517416 2.64672521,5.71517416 1.6908924,5.71517416 C1.13860286,5.71516548 0.690883727,6.16288462 0.690883727,6.71517416 L0.690883727,12.9984409 C0.690883727,13.5507256 1.13859898,13.9984409 1.69088373,13.9984409 L10.851756,13.9984409 L10.851756,13.9984409 C11.20095,14.0091014 11.549615,13.9641095 11.8846641,13.865154 C12.5318143,13.6762951 12.9888595,13.098973 13.0241853,12.4257545 C13.0533407,12.160457 13.8819024,7.06456941 13.9152247,6.84809673 C13.9374395,6.7037816 13.9491914,6.55715851 13.9504803,6.40822746 Z" id="形状" fill="#202020" fill-rule="nonzero"></path>
                                        <path d="M3,6.67427917 C3.55228475,6.67427917 4,7.12199442 4,7.67427917 L4,12 C4,12.5522847 3.55228475,13 3,13 C2.44771525,13 2,12.5522847 2,12 L2,7.67427917 C2,7.12199442 2.44771525,6.67427917 3,6.67427917 Z" id="矩形" fill="#FFFFFF"></path>
                                    </g>
                                </g>
                            </g>
                        </g>
                    </g>
                </g>
            </g>
        </g>
    </g>
</svg>