<?xml version="1.0" encoding="UTF-8"?>
<svg width="16px" height="16px" viewBox="0 0 16 16" version="1.1" xmlns="http://www.w3.org/2000/svg" xmlns:xlink="http://www.w3.org/1999/xlink">
    <title>约玩标签备份 3</title>
    <g id="游戏圈" stroke="none" stroke-width="1" fill="none" fill-rule="evenodd">
        <g id="圈子-长" transform="translate(-32.000000, -300.000000)">
            <rect fill="#FFFFFF" x="0" y="0" width="375" height="1403"></rect>
            <g id="编组-5备份" transform="translate(20.000000, 244.000000)">
                <rect id="矩形" stroke="#F6F7F9" fill="#FFFFFF" x="0" y="0" width="248" height="227" rx="11"></rect>
                <g id="编组-4" transform="translate(12.000000, 55.000000)" fill="#202020" fill-rule="nonzero">
                    <g id="编组-2">
                        <g>
                            <g id="编组-3">
                                <g id="话题-蓝备份-2" transform="translate(0.000000, 1.000000)">
                                    <path d="M6.48807646,1.86051691 C7.00162417,1.94974968 7.3455994,2.43839981 7.25636663,2.95194752 C7.25609622,2.95350374 7.25582191,2.95505927 7.2555437,2.95661411 L6.85576923,5.18428941 L9.98976923,5.18428941 L10.4475692,2.63184715 C10.5399768,2.11541471 11.0322937,1.77070341 11.5491836,1.86051691 C12.0627313,1.94974968 12.4067065,2.43839981 12.3174737,2.95194752 C12.3172033,2.95350374 12.316929,2.95505927 12.3166508,2.95661411 L11.9167692,5.18428941 L13.8341016,5.18514133 C14.3505592,5.18514133 14.7692308,5.60381292 14.7692308,6.1202705 C14.7692308,6.63672809 14.3505592,7.05539968 13.8341016,7.05539968 L11.5827692,7.05528941 L11.2477692,8.92528941 L12.9484078,8.92565803 C13.4648654,8.92565803 13.883537,9.34432963 13.883537,9.86078721 C13.883537,10.3772448 13.4648654,10.7959164 12.9484078,10.7959164 L10.9127692,10.7952894 L10.4536678,13.3681528 C10.3612603,13.8845853 9.8689434,14.2292966 9.35205351,14.1394831 C8.8385058,14.0502503 8.49453058,13.5616002 8.58376335,13.0480525 C8.58403375,13.0464963 8.58430806,13.0449407 8.58458627,13.0433859 L8.98576923,10.7952894 L5.85176923,10.7952894 L5.39256073,13.3681528 C5.30015318,13.8845853 4.80783628,14.2292966 4.29094639,14.1394831 C3.77739868,14.0502503 3.43342346,13.5616002 3.52265623,13.0480525 C3.52292663,13.0464963 3.52320094,13.0449407 3.52347916,13.0433859 L3.92476923,10.7952894 L2.16589841,10.7959164 C1.64944082,10.7959164 1.23076923,10.3772448 1.23076923,9.86078721 C1.23076923,9.34432963 1.64944082,8.92565803 2.16589841,8.92565803 L4.25976923,8.92528941 L4.59376923,7.05528941 L3.05159215,7.05539968 C2.53513457,7.05539968 2.11646298,6.63672809 2.11646298,6.1202705 C2.11646298,5.60381292 2.53513457,5.18514133 3.05159215,5.18514133 L4.92876923,5.18428941 L5.38646213,2.63184715 C5.47886968,2.11541471 5.97118658,1.77070341 6.48807646,1.86051691 Z M9.65476923,7.05528941 L6.52176923,7.05528941 L6.18676923,8.92528941 L9.32076923,8.92528941 L9.65476923,7.05528941 Z" id="形状结合"></path>
                                </g>
                                <g id="话题-蓝备份" transform="translate(0.000000, 1.000000)">
                                    <path d="M6.48807646,1.86051691 C7.00162417,1.94974968 7.3455994,2.43839981 7.25636663,2.95194752 C7.25609622,2.95350374 7.25582191,2.95505927 7.2555437,2.95661411 L6.85576923,5.18428941 L9.98976923,5.18428941 L10.4475692,2.63184715 C10.5399768,2.11541471 11.0322937,1.77070341 11.5491836,1.86051691 C12.0627313,1.94974968 12.4067065,2.43839981 12.3174737,2.95194752 C12.3172033,2.95350374 12.316929,2.95505927 12.3166508,2.95661411 L11.9167692,5.18428941 L13.8341016,5.18514133 C14.3505592,5.18514133 14.7692308,5.60381292 14.7692308,6.1202705 C14.7692308,6.63672809 14.3505592,7.05539968 13.8341016,7.05539968 L11.5827692,7.05528941 L11.2477692,8.92528941 L12.9484078,8.92565803 C13.4648654,8.92565803 13.883537,9.34432963 13.883537,9.86078721 C13.883537,10.3772448 13.4648654,10.7959164 12.9484078,10.7959164 L10.9127692,10.7952894 L10.4536678,13.3681528 C10.3612603,13.8845853 9.8689434,14.2292966 9.35205351,14.1394831 C8.8385058,14.0502503 8.49453058,13.5616002 8.58376335,13.0480525 C8.58403375,13.0464963 8.58430806,13.0449407 8.58458627,13.0433859 L8.98576923,10.7952894 L5.85176923,10.7952894 L5.39256073,13.3681528 C5.30015318,13.8845853 4.80783628,14.2292966 4.29094639,14.1394831 C3.77739868,14.0502503 3.43342346,13.5616002 3.52265623,13.0480525 C3.52292663,13.0464963 3.52320094,13.0449407 3.52347916,13.0433859 L3.92476923,10.7952894 L2.16589841,10.7959164 C1.64944082,10.7959164 1.23076923,10.3772448 1.23076923,9.86078721 C1.23076923,9.34432963 1.64944082,8.92565803 2.16589841,8.92565803 L4.25976923,8.92528941 L4.59376923,7.05528941 L3.05159215,7.05539968 C2.53513457,7.05539968 2.11646298,6.63672809 2.11646298,6.1202705 C2.11646298,5.60381292 2.53513457,5.18514133 3.05159215,5.18514133 L4.92876923,5.18428941 L5.38646213,2.63184715 C5.47886968,2.11541471 5.97118658,1.77070341 6.48807646,1.86051691 Z M9.65476923,7.05528941 L6.52176923,7.05528941 L6.18676923,8.92528941 L9.32076923,8.92528941 L9.65476923,7.05528941 Z" id="形状结合"></path>
                                </g>
                            </g>
                        </g>
                    </g>
                </g>
            </g>
        </g>
    </g>
</svg>