<?xml version="1.0" encoding="UTF-8"?>
<svg width="12px" height="13px" viewBox="0 0 12 13" version="1.1" xmlns="http://www.w3.org/2000/svg" xmlns:xlink="http://www.w3.org/1999/xlink">
    <title>编组 3</title>
    <g id="发现" stroke="none" stroke-width="1" fill="none" fill-rule="evenodd">
        <g id="发现页圈子" transform="translate(-22.000000, -1057.000000)" fill="#202020" fill-rule="nonzero">
            <g id="编组-5" transform="translate(0.000000, 116.000000)">
                <g id="编组-4" transform="translate(0.000000, 267.000000)">
                    <g id="推荐圈子内容板块备份" transform="translate(20.000000, 667.000000)">
                        <g id="编组-4" transform="translate(2.000000, 0.686275)">
                            <g id="编组-3" transform="translate(0.000000, 7.000000)">
                                <path d="M6,0 C9.3137085,0 12,2.6862915 12,6 C12,9.3137085 9.3137085,12 6,12 C2.6862915,12 0,9.3137085 0,6 C0,2.6862915 2.6862915,0 6,0 Z M6,4 C4.8954305,4 4,4.8954305 4,6 C4,7.1045695 4.8954305,8 6,8 C7.1045695,8 8,7.1045695 8,6 C8,4.8954305 7.1045695,4 6,4 Z" id="椭圆形"></path>
                            </g>
                        </g>
                    </g>
                </g>
            </g>
        </g>
    </g>
</svg>