<?xml version="1.0" encoding="UTF-8"?>
<svg width="24px" height="24px" viewBox="0 0 24 24" version="1.1" xmlns="http://www.w3.org/2000/svg" xmlns:xlink="http://www.w3.org/1999/xlink">
    <!-- Generator: Sketch 63.1 (92452) - https://sketch.com -->
    <title>ic_room_create@1x</title>
    <desc>Created with Sketch.</desc>
    <g id="ic_room_create" stroke="none" stroke-width="1" fill="none" fill-rule="evenodd">
        <g id="ic" transform="translate(2.000000, 2.000000)" fill="#202020" fill-rule="nonzero">
            <path d="M3,12 C3.51283584,12 3.93550716,12.3860402 3.99327227,12.8833789 L4,13 L4,17 C4,17.5128358 4.38604019,17.9355072 4.88337887,17.9932723 L5,18 L10,18 C10.5522847,18 11,18.4477153 11,19 C11,19.5128358 10.6139598,19.9355072 10.1166211,19.9932723 L10,20 L5,20 C3.40231912,20 2.09633912,18.75108 2.00509269,17.1762728 L2,17 L2,13 C2,12.4477153 2.44771525,12 3,12 Z M16,12 C16.5522847,12 17,12.4477153 17,13 L16.999,15 L19,15 C19.5522847,15 20,15.4477153 20,16 C20,16.5522847 19.5522847,17 19,17 L16.999,17 L17,19 C17,19.5522847 16.5522847,20 16,20 C15.4477153,20 15,19.5522847 15,19 L14.999,17 L13,17 C12.4477153,17 12,16.5522847 12,16 C12,15.4477153 12.4477153,15 13,15 L14.999,15 L15,13 C15,12.4477153 15.4477153,12 16,12 Z M10.6128994,0.209704612 L10.7071068,0.292893219 L19.7071068,9.29289322 C20.0976311,9.68341751 20.0976311,10.3165825 19.7071068,10.7071068 C19.3466228,11.0675907 18.7793918,11.0953203 18.3871006,10.7902954 L18.2928932,10.7071068 L10,2.415 L1.70710678,10.7071068 C1.34662282,11.0675907 0.779391764,11.0953203 0.387100557,10.7902954 L0.292893219,10.7071068 C-0.0675907428,10.3466228 -0.0953202783,9.77939176 0.209704612,9.38710056 L0.292893219,9.29289322 L9.29289322,0.292893219 C9.65337718,-0.0675907428 10.2206082,-0.0953202783 10.6128994,0.209704612 Z" id="形状结合"></path>
        </g>
    </g>
</svg>