<svg xmlns="http://www.w3.org/2000/svg" width="24" height="24" viewBox="0 0 24 24"><title>ic_createroombb</title><g fill="none" fill-rule="evenodd"><path stroke="#313131" stroke-linecap="round" stroke-linejoin="round" stroke-width="3" d="M19.404 13.5V18.2a3 3 0 01-3 3H7.596a3 3 0 01-3-3V13.5h0M2.452 10.602L4.934 8.17 9.9 3.302a3 3 0 014.2 0l4.966 4.867 2.482 2.433"/><path fill="#313131" fill-rule="nonzero" d="M12 10c.736 0 1.333.597 1.333 1.333v1.333h1.334a1.333 1.333 0 1 1 0 2.667h-1.334v1.334a1.333 1.333 0 1 1-2.666 0l-.001-1.334H9.333a1.333 1.333 0 1 1 0-2.666l1.333-.001v-1.333c0-.736.598-1.333 1.334-1.333z"/></g></svg>