<?xml version="1.0" encoding="UTF-8"?>
<svg width="24px" height="24px" viewBox="0 0 24 24" version="1.1" xmlns="http://www.w3.org/2000/svg" xmlns:xlink="http://www.w3.org/1999/xlink">
    <!-- Generator: Sketch 63.1 (92452) - https://sketch.com -->
    <title>icon/nav/close@2x</title>
    <desc>Created with Sketch.</desc>
    <g id="icon/nav/close" stroke="none" stroke-width="1" fill="none" fill-rule="evenodd" opacity="0.5">
        <g id="编组" transform="translate(7.000000, 7.000000)" fill="#888888" fill-rule="nonzero">
            <path d="M1.61289944,0.209704612 L1.70710678,0.292893219 L5.242,3.828 L8.77817459,0.292893219 L8.87238193,0.209704612 C9.26467314,-0.0953202783 9.83190419,-0.0675907428 10.1923882,0.292893219 C10.5829124,0.683417511 10.5829124,1.31658249 10.1923882,1.70710678 L10.1923882,1.70710678 L6.657,5.242 L10.1923882,8.77817459 C10.5829124,9.16869888 10.5829124,9.80186386 10.1923882,10.1923882 C9.83190419,10.5528721 9.26467314,10.5806017 8.87238193,10.2755768 L8.77817459,10.1923882 L5.242,6.657 L1.70710678,10.1923882 L1.61289944,10.2755768 C1.22060824,10.5806017 0.65337718,10.5528721 0.292893219,10.1923882 C-0.0976310729,9.80186386 -0.0976310729,9.16869888 0.292893219,8.77817459 L0.292893219,8.77817459 L3.828,5.242 L0.292893219,1.70710678 C-0.0976310729,1.31658249 -0.0976310729,0.683417511 0.292893219,0.292893219 C0.65337718,-0.0675907428 1.22060824,-0.0953202783 1.61289944,0.209704612 Z" id="形状结合"></path>
        </g>
    </g>
</svg>