<svg xmlns="http://www.w3.org/2000/svg" width="16" height="16" viewBox="0 0 16 16"><title>ic_hallsmall</title><path fill="#A6A6A6" fill-rule="evenodd" d="M8.338 2.806l4.961 4.5c.163.149.175.4.027.563-.075.084-.182.131-.294.131H12.5c-.276 0-.5.224-.5.5V12c0 .552-.448 1-1 1H9.5c-.276 0-.5-.224-.5-.5V11c0-.552-.448-1-1-1s-1 .448-1 1v1.5c0 .276-.224.5-.5.5H5c-.552 0-1-.448-1-1V8.5c0-.276-.224-.5-.5-.5H3c-.215 0-.389-.174-.389-.389 0-.109.046-.213.126-.287l4.927-4.516c.19-.174.482-.175.674-.002z"/></svg>