<?xml version="1.0" encoding="UTF-8"?>
<svg width="12px" height="12px" viewBox="0 0 12 12" version="1.1" xmlns="http://www.w3.org/2000/svg" xmlns:xlink="http://www.w3.org/1999/xlink">
    <title>🔥1</title>
    <defs>
        <linearGradient x1="50%" y1="0%" x2="50%" y2="100%" id="linearGradient-1">
            <stop stop-color="#FFC057" offset="0%"></stop>
            <stop stop-color="#FEA452" offset="100%"></stop>
        </linearGradient>
    </defs>
    <g id="🔥1" stroke="none" stroke-width="1" fill="none" fill-rule="evenodd">
        <path d="M6.46795566,0.875316358 C6.40307141,0.149935621 7.31909951,-0.292881803 7.87395282,0.225060683 C8.39429509,0.702828824 8.86580082,1.2422576 9.28507762,1.83506728 C10.3962189,3.41616826 11,5.25990123 11,7.18405035 C11,9.84738118 8.75975767,12 6,12 C3.24024233,12 1,9.84738118 1,7.18405035 C1,5.75876017 1.38937858,4.38834902 2.11046905,3.20085526 C2.20073707,3.04364384 2.2985926,2.89153962 2.41466928,2.72431274 C2.81907768,2.12523556 3.73243197,2.31286677 3.91295034,2.97527143 C3.93098094,3.03879774 3.94155533,3.07203377 3.96153064,3.11675686 L4.06368581,3.32656278 C4.31576136,3.78396988 4.7938027,4.07100527 5.35,4.07100527 C6.1399722,4.07100527 6.68888889,3.47264138 6.68888889,2.6251773 C6.68888889,2.23406076 6.63583319,1.7771599 6.54381575,1.28214929 L6.48404123,0.980792274 L6.46795566,0.875316358 Z" id="形状" fill="url(#linearGradient-1)" fill-rule="nonzero"></path>
    </g>
</svg>