<svg xmlns="http://www.w3.org/2000/svg" width="32" height="32" viewBox="0 0 32 32"><title>ic_room_chair</title><defs><linearGradient id="a" x1="0%" x2="100%" y1="19.012%" y2="80.988%"><stop offset="0%" stop-color="#60C8FF"/><stop offset="100%" stop-color="#79E2FF"/></linearGradient><linearGradient id="b" x1="50%" x2="50%" y1="0%" y2="100%"><stop offset="0%" stop-color="#1793D4"/><stop offset="100%" stop-color="#36AFEE"/></linearGradient></defs><g fill="none" fill-rule="evenodd"><path fill="url(#a)" fill-rule="nonzero" d="M3.938 8.438a2.415 2.415 0 0 1 2.383 2.812l-.296 1.773a.5.5 0 0 0 .715.53c1.842-.91 4.358-1.366 7.55-1.366 3.364 0 5.98.507 7.843 1.52.24-.19.374-.229.432-.335a.22.22 0 0 0 .024-.141l-.33-1.981a2.415 2.415 0 0 1 2.382-2.813h.43a3.51 3.51 0 0 1 3.508 3.612c-.024.826-.1 1.653-.227 2.482-.247 1.604-.879 3.202-1.897 4.796a2.813 2.813 0 0 1-2.37 1.298h-.108v.469c0 .776-.63 1.406-1.406 1.406h-.313c-.776 0-1.406-.63-1.406-1.406v-.47H8.039v.47c0 .776-.629 1.406-1.406 1.406h-.312c-.777 0-1.406-.63-1.406-1.406l-.001-.47-.416.001c-.961 0-1.855-.49-2.372-1.301-1.02-1.603-1.654-3.2-1.899-4.793a20.01 20.01 0 0 1-.226-2.487 3.508 3.508 0 0 1 3.41-3.605l.049-.001h.478zM14.29 0c4.289 0 7.35 1.05 9.555 2.746 1.525 1.173 1.751 2.655 1.746 4.313l-.258-.02-.262-.008h-.43a3.822 3.822 0 0 0-3.797 4.255l.027.195.058.348c-2.209-.701-3.797-1.048-6.64-1.048-2.683 0-4.25.31-6.276.934l-.363.114.058-.348a3.822 3.822 0 0 0-3.573-4.445l-.197-.005h-.48a5.157 5.157 0 0 0-.471.028c-.004-1.658.223-3.14 1.747-4.313C6.94 1.049 10.001 0 14.29 0z" transform="translate(2 5)"/><path fill="url(#b)" d="M14 5a1 1 0 1 1 0 2 1 1 0 0 1 0-2zm-4 0a1 1 0 1 1 0 2 1 1 0 0 1 0-2zm8 0a1 1 0 1 1 0 2 1 1 0 0 1 0-2z" opacity=".8" transform="translate(2 5)"/></g></svg>