<svg xmlns="http://www.w3.org/2000/svg" xmlns:xlink="http://www.w3.org/1999/xlink" width="62" height="74" viewBox="0 0 62 74"><title>bg1</title><defs><rect id="a" width="60" height="72" x="0" y="0" rx="8"/></defs><g fill="none" fill-rule="evenodd"><g transform="translate(1 1)"><mask id="b" fill="#fff"><use xlink:href="#a"/></mask><use fill="#645DC1" xlink:href="#a"/><use fill="#000" fill-opacity=".5" xlink:href="#a"/><path fill="#FFF" d="M36.902 38c-.573 0-1.163-.06-1.72-.09-1.32-.07-2.694.084-3.92-.39-1.227-.474-2.2-1.914-1.555-3.027-.881-.239-1.792-.376-2.707-.409 1.77-.901 3.22-2.307 4.145-4.02.136-.052.268-.11.396-.176.345-.176.636-.528 1.005-.637.147-.043.315-.059.493-.059.426 0 .908.09 1.272.105l1.886.08.072.002c.084 0 .168-.01.232-.06.075-.058.102-.155.146-.237.138-.253.443-.355.748-.355.092 0 .184.01.271.027.377.075.728.257 1.11.296.054.006.108.008.162.008.338 0 .673-.1.998-.198.323-.098.65-.198.938-.37.127-.076.247-.167.387-.216.116-.041.241-.052.364-.062 1.543-.127 3.09-.19 4.638-.19.168 0 .336 0 .504.002-2.019-.055-4.036-.166-6.048-.334-.355-.03-.755-.085-.96-.366-.172-.236-.144-.551-.2-.835-.16-.824-1.006-1.342-1.815-1.648-.345-.13-.727-.239-1.093-.239-.242 0-.477.048-.689.167-.447.253-.72.795-1.229.89-.053.01-.104.014-.155.014-.532 0-.963-.506-1.397-.85-.299-.238-.65-.414-1.022-.516-.272-1.84-1.09-3.51-2.29-4.853.077-.086.176-.171.297-.26.54-.393 1.005-.848 1.46-1.33.892-.946 1.785-2.042 3.12-2.399.605-.162 1.28-.162 1.797-.507.507-.338.748-.931 1.12-1.405.572-.73 1.307-1.04 2.188-1.04.04 0 .08 0 .121.002.214.006.372.075.53.075.122 0 .245-.04.394-.178.42-.387-.058-.754.176-1.126.078-.124.249-.172.32-.299.125-.222-.152-.472-.412-.507-.067-.009-.135-.01-.204-.01h-.185c-.134 0-.266-.007-.388-.06.453-.04.907-.082 1.36-.124.066-.005.142-.017.177-.072.043-.065 0-.151-.052-.21-.271-.306-.739-.345-1.156-.36l-1.202-.046c.63-.33 1.347-.504 2.064-.504.06 0 .118 0 .177.003-.169-.226.038-.559.307-.659.17-.064.35-.07.534-.07h.064l.064.001c.065 0 .13 0 .194-.005.335-.02.664-.126.944-.304.085-.054.166-.115.26-.15.102-.036.21-.04.319-.04h.08c.05 0 .098 0 .147-.005 1.232-.106.661-1.386.922-2.157.122-.361.569-.564.935-.564.308 0 .56.143.515.455.072-.46.547-.706 1.036-.706.294 0 .592.09.81.274.356.302.953 1.352.966 1.811.007.255-.031.532.11.748.177.272.554.328.881.39.328.06.706.213.758.53l-.437-.002c-.393 0-.785.007-1.177.02-.163.005-.34.016-.466.115-.127.1-.158.322-.018.403-.241.079-.492.163-.67.34-.068.068-.123.147-.188.218-.248.267-.828.21-.986.497-.236.43.239.994.594 1.198.672.387 2.062.405 2.438 1.06.263.458.45.956.553 1.47.015.08.033.165.094.22.058.05.133.06.213.06l.063-.001.062-.002c.048 0 .095.003.14.016.296.086.263.5.167.785.073-.062.156-.088.244-.088.238 0 .503.197.632.42.176.303.274.682.586.858.114.064.234.09.357.09.36 0 .745-.226 1.083-.406.454-.242.954-.404 1.467-.478.082-.012.169-.022.235-.07.202-.149.05-.452.046-.697-.007-.335.34-.606.687-.606.03 0 .06.002.09.006.373.053.664.376.75.73-.075-.727.504-1.464 1.25-1.589.073-.579-.354-.633-.587-1.014-.224-.367-.266-.799-.312-1.216-.097-.88.004-1.868-.543-2.636-.27-.379-.681-.647-.962-1.019-.574-.761-.457-1.932.258-2.573.39-.351.884-.49 1.391-.49.174 0 .349.017.522.046.038.007.63.134 1.025.134.246 0 .416-.05.328-.208-.053-.096-.165-.159-.278-.159-.012 0-.024 0-.036.002.044-.216.071-.48-.107-.62-.094-.072-.22-.087-.34-.099l-1.194-.124c.165-.045.336-.051.508-.051H59.241c.581-.02 1.14-.21 1.688-.4.046-.016.094-.032.131-.063.184-.153-.007-.495.166-.658.07-.066.172-.078.279-.078l.095.002.094.002c.123 0 .229-.017.27-.122.015-.041.013-.087.011-.13-.027-.599-.08-1.2.025-1.739v16.31c-.507-.545-1.177-.91-1.838-.91-.6 0-1.192.3-1.65 1.04-.16.26-.264.555-.468.786-.148.167-.375.292-.594.292-.083 0-.164-.018-.24-.058-.11-.059-.19-.156-.28-.24-.272-.255-.648-.4-1.025-.4-.047 0-.093.003-.139.007-.95.09-1.56 1.022-1.844 1.901-.143.44-.12 1.167-.37 1.53-.184.27-.816.175-.64.762.046.154.157.316.083.46-.08.153-.303.152-.465.224-.27.12-.361.454-.343.742.018.288.111.573.072.859-.036.259-.24.525-.496.541-.028 0-.055-.002-.082-.003.019.003.038.004.057.004h.025l1.02.04c.069.25.014.53-.147.739.179.012.305.182.346.35.04.168.021.345.05.515.078.48.53.847 1.019.958.071.016.15.022.233.022.105 0 .218-.01.332-.019.114-.01.23-.019.34-.019.269 0 .51.056.641.303.092.174.116.374.196.552.159.352.558.57.95.57.15 0 .298-.032.432-.1.07-.036.143-.08.22-.08.01 0 .022 0 .033.003.093.017.152.104.199.184.232.397.44.807.619 1.229.099-.004.199-.006.298-.006.77 0 1.54.117 2.272.344l-2.586-.102c-.074-.003-.149-.005-.224-.005-.252 0-.504.028-.706.166-.262.18-.343.62-.07.783l-.053-.002c-.349 0-.67.321-.644.66-.288-.061-.584-.123-.876-.123-.126 0-.252.012-.376.04-.41.092-.798.421-.8.829 0 .054.004.116-.034.156-.026.025-.06.034-.097.034-.033 0-.067-.007-.098-.014-.776-.18-1.574-.27-2.372-.27-.19 0-.379.005-.568.016.839-.112 1.985-.309 2.036-1.289.04-.755-.604-1.551-1.38-1.663-.078-.011-.157-.017-.238-.017-.723 0-1.542.435-1.906 1.026-.125.204-.1.708-.232.839-.118.116-.23.15-.343.15-.077 0-.154-.016-.235-.03-.08-.016-.165-.031-.255-.031-.053 0-.109.005-.167.019.059.078-.024.182-.106.238-.243.165-.54.255-.838.255-.04 0-.08-.002-.12-.005.63.051 1.348-.037 1.837.377-.237.831-.88.576-1.538.684-1.061.173-2.029.588-3.036.963-.84.312-1.789.738-2.01 1.58-.132.507.014 1.128-.373 1.494-.179.17-.433.237-.676.293-1.302.3-2.641.452-3.98.452-.402 0-.803-.013-1.203-.04l2.56.45c-.593.529-1.38.655-2.207.655m-24.134-3c-.15 0-.292-.04-.424-.142L12 34.2c.862-.527.678-2.205 1.458-2.888.251-.22.552-.295.873-.312.465.823 1.028 1.562 1.669 2.195-.026.074-.049.15-.066.23-.07.314-.063.65-.158.954-.085.272-.295.523-.529.523-.029 0-.058-.004-.087-.012-.106-.322-.378-.443-.68-.443-.228 0-.473.07-.676.174-.328.17-.697.379-1.036.379m1.381-6c-.803-.181-1.615-.324-2.433-.427-.371-.047-.8-.12-.981-.436-.142-.249-.074-.555-.11-.836-.144-1.145-1.834-1.496-2.276-2.568-.128-.311-.147-.677-.376-.929-.253-.276-.676-.322-1.057-.34-1.475-.07-3.075-.044-4.261-.894-.881-.63-1.378-1.646-2.181-2.368-.46-.413-1.135-.69-1.748-.69-.26 0-.509.05-.726.16V-.738c.155.006.311.044.455.107l-.264.302c.19-.046.386-.077.587-.091.047.042.09.087.13.134-.107.444.065.931.397 1.256.02.243.066.48.252.632-.013-.143-.006-.286.019-.426.115.066.241.117.375.143C-.059.842.086.364.358-.034.464-.108.578-.171.7-.22.534-.261.41-.323.315-.4c-.1-.33-.25-.883-.366-1.282-.013-.064-.031-.127-.055-.187-.05-.165-.087-.277-.102-.289l-.046.052c-.2-.195-.9-.355-1.474-.398h.022c.103 0 .203-.011.296-.05.35-.15.51-.661.884-.661h.02c.023.006.046.009.069.009.042 0 .084-.01.124-.03C-.408-4.312.296-5.444 1.213-6H3.41c.219.164.423.389.606.685.16.259.264.553.468.783.147.167.374.291.592.291.083 0 .164-.018.239-.058.11-.058.19-.155.28-.24.271-.253.647-.397 1.023-.397.046 0 .092.002.138.006.947.09 1.557 1.019 1.84 1.895.143.44.12 1.163.368 1.526.184.268.815.173.64.758-.046.154-.156.315-.083.458.08.153.302.153.464.224.27.12.36.453.342.74-.018.286-.111.571-.072.856.036.26.244.528.504.539l-1.027.041c-.068.25-.013.529.147.736-.178.013-.304.182-.345.35-.04.167-.021.343-.05.513-.078.478-.528.844-1.016.954-.072.016-.15.022-.233.022-.105 0-.218-.01-.331-.019-.114-.01-.229-.018-.34-.018-.267 0-.509.055-.639.302-.092.173-.115.372-.196.55-.158.35-.556.567-.948.567-.149 0-.297-.032-.43-.1-.07-.035-.143-.079-.219-.079l-.034.003c-.093.017-.152.104-.198.184-.232.395-.439.804-.618 1.224-.099-.003-.198-.005-.297-.005-.768 0-1.536.116-2.267.343l2.58-.102c.073-.003.148-.006.223-.006.252 0 .503.029.705.166.261.18.342.619.07.78l.053-.002c.348 0 .669.32.642.658.287-.06.583-.122.875-.122.125 0 .25.011.374.039.41.092.796.42.798.827 0 .054-.004.115.035.155.025.026.06.034.096.034.033 0 .067-.006.098-.014.774-.178 1.57-.269 2.366-.269.19 0 .378.005.567.016-.837-.111-1.98-.308-2.031-1.284-.04-.752.602-1.546 1.377-1.658.078-.011.157-.017.237-.017.721 0 1.539.434 1.901 1.022.125.204.1.707.232.836.118.116.229.15.342.15.077 0 .154-.015.235-.03.08-.016.164-.03.254-.03.053 0 .108.005.166.018-.058.078.025.182.106.237.243.165.54.254.836.254.04 0 .081-.001.121-.005-.577.048-1.294-.053-1.773.319.099.188.31.284.533.314l.047.392c.238-.041.48-.082.72-.082.092 0 .185.006.277.02.33.053.658.235.787.532.067.155.079.333.176.472.277.395 1.043.241 1.257.67.058.116.057.25.086.376.153.657.995.873 1.687.958 3.066.373 6.147.617 9.227.86-1.061-.014-2.123-.028-3.184-.028-1.12 0-2.238.016-3.356.064-.779.034-1.582.09-2.277.432-.69.338-1.207.924-1.808 1.395-.483.38-1.087.695-1.691.695-.147 0-.294-.019-.439-.06.641.18 1.542.36 2.307.692-1.93 1.282-3.363 3.214-3.957 5.468-.107.016-.214.029-.32.041l-3.317.39 3.46.392c-.083.495-.126 1.004-.126 1.522 0 1.382.306 2.695.857 3.879m47.932-7.935c-.052-.029-.107-.054-.162-.077.06-.015.113-.033.162-.053v.13M20.665 76c.456-.238-.135-.873-.636-.99-4.138-.965-8.401-1.29-12.556-2.18C4.126 72.115.772 70.979-2 69.016v-18.25c.208-.11.447-.16.697-.16.588 0 1.235.276 1.677.688.771.718 1.247 1.73 2.093 2.358 1.138.847 2.673.822 4.089.891.366.018.771.063 1.014.339.22.25.238.615.361.925.424 1.067 2.046 1.417 2.185 2.558.034.28-.032.585.105.832.173.315.585.388.941.435.785.103 1.564.245 2.335.425.216.484.473.946.764 1.382-.346.016-.671.085-.942.286-.842.624-.644 2.159-1.575 2.64l.372.602c.142.094.296.13.457.13.367 0 .766-.191 1.12-.346.218-.096.483-.16.73-.16.325 0 .619.112.734.406.031.008.063.011.094.011.252 0 .48-.23.57-.478.103-.279.096-.586.171-.872.02-.074.043-.144.072-.212 1.635 1.368 3.74 2.19 6.036 2.19 1.586 0 3.08-.392 4.392-1.085.876.033 1.748.17 2.592.406-.618 1.105.314 2.535 1.488 3.005 1.174.471 2.49.319 3.752.388.534.03 1.1.09 1.647.09.792 0 1.546-.126 2.113-.65l-2.45-.449c.383.028.767.041 1.151.041 1.282 0 2.564-.15 3.81-.449.234-.056.477-.123.648-.291.37-.363.23-.98.358-1.483.21-.836 1.12-1.26 1.923-1.57.965-.371 1.89-.783 2.907-.955.63-.107 1.246.146 1.472-.68-.468-.41-1.154-.322-1.758-.374.039.004.077.005.115.005.285 0 .57-.089.802-.253.079-.055.158-.158.102-.236.055-.014.109-.019.16-.019.086 0 .166.015.244.03.077.015.151.03.224.03.11 0 .216-.033.329-.148.126-.13.102-.63.222-.833.348-.587 1.133-1.018 1.825-1.018.077 0 .153.005.227.016.744.111 1.36.902 1.322 1.652-.049.972-1.146 1.168-1.95 1.279.182-.01.363-.016.544-.016.764 0 1.528.09 2.271.268.03.008.063.014.094.014.035 0 .068-.008.092-.034.038-.04.034-.1.034-.155.002-.404.372-.732.766-.823.118-.028.238-.04.359-.04.28 0 .564.062.84.123-.026-.337.282-.656.615-.656.017 0 .035.001.052.003-.262-.162-.184-.6.067-.778.193-.137.434-.165.675-.165.072 0 .144.003.215.006l2.476.101c-.702-.226-1.439-.342-2.176-.342-.095 0-.19.002-.285.006-.172-.419-.37-.826-.593-1.22-.045-.08-.1-.166-.19-.183-.01-.002-.022-.003-.033-.003-.073 0-.142.044-.21.08-.127.067-.27.098-.413.098-.375 0-.757-.216-.91-.565-.076-.177-.1-.376-.187-.548-.125-.245-.357-.3-.614-.3-.106 0-.216.008-.325.018-.11.01-.217.019-.319.019-.079 0-.154-.006-.222-.022-.47-.11-.901-.475-.976-.95-.027-.17-.01-.346-.048-.512-.039-.167-.16-.336-.33-.348.153-.207.206-.485.14-.733l-.977-.041c.246-.017.441-.28.475-.537.038-.284-.051-.568-.069-.853-.017-.286.07-.617.329-.737.155-.071.368-.07.444-.223.071-.143-.035-.304-.08-.456-.167-.583.438-.488.615-.756.238-.361.216-1.082.353-1.52.272-.873.857-1.797 1.766-1.887.044-.004.088-.007.132-.007.361 0 .722.144.982.396.086.084.163.181.269.24.072.04.15.057.229.057.21 0 .427-.124.569-.29.195-.229.294-.522.448-.78.438-.735 1.005-1.033 1.58-1.033.633 0 1.274.362 1.759.904v5.153c-.048.02-.1.036-.157.051.054.023.106.048.157.076v19.72c-1.636.315-3.304.5-4.962.597-1.298.076-2.597.102-3.897.102-1.328 0-2.657-.027-3.986-.053-1.33-.027-2.658-.054-3.987-.054-.485 0-.97.004-1.455.012-7.136.124-14.253 1.305-21.048 3.492" mask="url(#b)" opacity=".03"/></g><path fill="#AEA6E4" fill-rule="nonzero" d="M9 0h44c4.97 0 9 4.03 9 9v42.61c0 .539-.333 1.941-1 4.207.667 2.085 1 3.308 1 3.67V65c0 4.97-4.03 9-9 9H9c-4.97 0-9-4.03-9-9V9c0-4.97 4.03-9 9-9zm0 2C5.134 2 2 5.134 2 9v15.398L1.209 27.3 2 29.566V65c0 1.03.222 2.006.621 2.887.161.355.942.58 2.341.675-.044 1.462.222 2.344.8 2.645C6.73 71.714 7.831 72 9 72h44c3.866 0 7-3.134 7-7V9c0-1.358-.387-2.626-1.056-3.7-.263-.25-1.24-.25-2.933 0 0-1.711-.228-2.68-.684-2.904C54.6 2.14 53.816 2 53 2H9z"/></g></svg>