<svg xmlns="http://www.w3.org/2000/svg" width="62" height="74" viewBox="0 0 62 74"><title>frame</title><path fill="#00D747" fill-rule="nonzero" d="M9 0h44c4.97 0 9 4.03 9 9v42.61c0 .539-.333 1.941-1 4.207.667 2.085 1 3.308 1 3.67V65c0 4.97-4.03 9-9 9H9c-4.97 0-9-4.03-9-9V9c0-4.97 4.03-9 9-9zm0 2C5.134 2 2 5.134 2 9v15.398L1.209 27.3 2 29.566V65c0 1.03.222 2.006.621 2.887.161.355.942.58 2.341.675-.044 1.462.222 2.344.8 2.645C6.73 71.714 7.831 72 9 72h44c3.866 0 7-3.134 7-7V9c0-1.358-.387-2.626-1.056-3.7-.263-.25-1.24-.25-2.933 0 0-1.711-.228-2.68-.684-2.904C54.6 2.14 53.816 2 53 2H9z"/></svg>