<svg xmlns="http://www.w3.org/2000/svg" width="180" height="44" viewBox="0 0 180 44"><title>btn</title><g fill="none" fill-rule="evenodd"><path fill="#7068D3" d="M22 0h136c12.15 0 22 9.85 22 22s-9.85 22-22 22H22C9.85 44 0 34.15 0 22S9.85 0 22 0z"/><path fill="#FFF" d="M22 2h8l4.528 1.885L40.048 2h7.904l4.088 1.885L55.035 2H158c5.225 0 9.982 2.004 13.545 5.285.285.262-.337 1.632-1.866 4.11 3.093-.683 4.853-.683 5.28 0C176.887 14.469 178 18.105 178 22c0 11.046-8.954 20-20 20h-5.888c-.464 0-.464-.803 0-2.41-5.188 1.607-8.845 2.41-10.971 2.41H22c-4.36 0-8.393-1.395-11.679-3.762-.455-.328-.233-2.074.666-5.238-2.6 1.57-4.093 2.122-4.477 1.652C3.69 31.205 2 26.8 2 22 2 10.954 10.954 2 22 2z" opacity=".15"/></g></svg>