<svg xmlns="http://www.w3.org/2000/svg" width="24" height="12" viewBox="0 0 24 12"><title>pk</title><g fill="none" fill-rule="evenodd"><rect width="24" height="12" fill="#FF5353" rx="6"/><path fill="#FFF" fill-rule="nonzero" d="M11.885 7.68c.007-.138-.022-.228-.088-.271-.065-.043-.13-.064-.196-.064H6.246L5.406 10H4l1.047-3.313H4.57L5.572 5.03l.663-2.098-.104-.32h3.193L8.744 2l2.23.61h2.514l-1.603 5.07zm-5.29-1.439h1.453l1.37-.336-.384.336h1.9l.793-2.51H7.39l-.794 2.51zm7.414-3.294l-.094-.32h1.612l-.976 3.087 6.516-3.087-.552 1.743c.008-.138-.007-.24-.044-.304-.038-.064-.117-.074-.239-.032l-3.03 1.408.955 2.583h.415V9.15l.315.85H17.21l-1.4-3.918-1.613.751-1 3.167h-1.418l2.23-7.053z"/></g></svg>