<svg xmlns="http://www.w3.org/2000/svg" width="108" height="108" viewBox="0 0 108 108"><title>ic_vote</title><g fill="none" fill-rule="evenodd"><path fill="#73368D" d="M53.752 99.688c-12.107 0-23.523-4.695-32.143-13.221-8.628-8.534-13.46-19.923-13.606-32.07-.147-12.244 4.474-23.814 13.013-32.576C29.554 13.058 40.99 8.15 53.212 8.003c.186-.002.377-.003.563-.003 12.107 0 23.523 4.696 32.143 13.222 8.628 8.533 13.46 19.922 13.606 32.07.304 25.276-19.977 46.088-45.209 46.393-.186.002-.377.003-.563.003"/><path fill="#DCA561" d="M53.972 5.774h-.005c-.193 0-.39.002-.584.004-12.715.154-24.608 5.258-33.49 14.373C11.01 29.265 6.203 41.3 6.357 54.037c.152 12.635 5.178 24.482 14.153 33.359 8.967 8.868 20.841 13.753 33.436 13.753.193 0 .39 0 .585-.004 12.714-.153 24.608-5.257 33.49-14.372 8.882-9.115 13.69-21.15 13.536-33.886-.152-12.635-5.178-24.482-14.152-33.359-8.966-8.869-20.84-13.754-33.433-13.754m-.004 3.686c24.013-.002 43.619 19.351 43.91 43.471.292 24.3-19.135 44.236-43.392 44.528-.18.004-.362.004-.54.004-24.013 0-43.62-19.351-43.91-43.471-.293-24.3 19.135-44.235 43.391-44.528.18-.002.362-.004.54-.004"/><path fill="#387B8D" d="M53.957 10.724L17.009 74.831h73.895z"/><path stroke="#A9A7A5" stroke-width="1.063" d="M53.957 10.724L17.009 74.831h73.895z"/><path fill="#387B8D" d="M26.533 20.722l12.832 72.901L95.972 46.04z"/><path stroke="#A9A7A5" stroke-width="1.063" d="M26.533 20.722l12.832 72.901L95.972 46.04z"/><path fill="#42889A" d="M26.533 20.722l12.832 72.901L95.972 46.04z"/><path stroke="#A9A7A5" stroke-width="1.063" d="M26.533 20.722l12.832 72.901L95.972 46.04z"/><path fill="#42889A" d="M11.942 46.04l56.606 47.583L81.38 20.722z"/><path stroke="#F9CF9D" stroke-width="1.063" d="M11.942 46.04l56.606 47.583L81.38 20.722z"/><path fill="#F9CF9D" d="M53.957 9.528l-.708 1.228L16.695 74.18l-.708 1.23h75.939l-.708-1.23-36.553-63.423-.708-1.228zm0 1.638L90.51 74.589H17.404l36.553-63.423z"/><path fill="#C6B66B" d="M25.775 19.803l.246 1.397 12.694 72.122.247 1.398 1.084-.912L96.05 46.733l1.085-.912-1.331-.485L27.106 20.29l-1.331-.486zm1.05 1.255l68.699 25.048L39.52 93.18 26.826 21.058z"/><path fill="#F9CF9D" d="M25.775 19.803l.246 1.397 12.694 72.122.247 1.398 1.084-.912L96.05 46.733l1.085-.912-1.331-.485L27.106 20.29l-1.331-.486zm1.05 1.255l68.699 25.048L39.52 93.18 26.826 21.058z"/><path fill="#F9CF9D" d="M82.139 19.803l-1.331.486L12.11 45.336l-1.331.485 1.084.912 56.003 47.075 1.085.912.246-1.398L81.892 21.2l.247-1.397zm-1.052 1.255L68.393 93.18 12.39 46.106l68.697-25.048z"/><path fill="#F9CF9D" d="M86 53.057c0 17.704-14.327 32.056-32 32.056-17.673 0-32-14.352-32-32.056C22 35.352 36.327 21 54 21c17.673 0 32 14.352 32 32.057"/><path fill="#BE6A2B" d="M68.638 51.304c2.98.888 6.32-.202 8.622-2.295 2.301-2.095 3.239-5.082 3.942-8.115-1.541 1.387-3.84 1.513-5.89 1.212-2.05-.299-4.075-.949-6.144-.839-2.069.11-4.293 1.254-4.796 3.267-.755 3.021 1.286 5.883 4.266 6.77M62.413 30.615c-.66-3.044-2.773-5.35-5.045-7.478.429 2.031-.612 4.088-1.896 5.718-1.284 1.628-2.858 3.06-3.798 4.91-.939 1.85-1.062 4.35.427 5.794 2.234 2.165 5.728 1.826 7.986-.316 2.257-2.14 2.985-5.585 2.326-8.628M45.384 40.631c-.723-3.029-3.336-5.383-6.296-6.332-2.961-.95-6.012-.27-8.987.637 1.97.644 3.229 2.576 3.995 4.505.766 1.928 1.216 4.009 2.345 5.749 1.13 1.74 3.231 3.097 5.223 2.527 2.989-.856 4.443-4.056 3.72-7.086M39.232 54.08c-2.98-.887-6.32.203-8.622 2.297-2.301 2.093-3.239 5.081-3.942 8.114 1.541-1.387 3.84-1.512 5.89-1.213 2.05.3 4.075.95 6.144.84 2.069-.11 4.293-1.254 4.796-3.267.756-3.021-1.286-5.883-4.266-6.77M47.784 66.142c-2.258 2.141-2.986 5.585-2.326 8.628.659 3.044 2.773 5.35 5.044 7.477-.429-2.03.612-4.087 1.896-5.717 1.284-1.628 2.858-3.06 3.798-4.909.94-1.85 1.062-4.352-.427-5.795-2.234-2.165-5.728-1.825-7.985.316M73.775 65.945c-.766-1.929-1.217-4.01-2.346-5.75-1.13-1.74-3.23-3.097-5.223-2.527-2.989.856-4.442 4.057-3.72 7.086.723 3.03 3.336 5.382 6.297 6.332 2.96.95 6.011.27 8.986-.638-1.97-.643-3.229-2.575-3.994-4.503"/><path fill="#D5915E" d="M77.731 54.232c-1.625-1.286-3.054-2.863-4.9-3.804-1.847-.942-4.345-1.065-5.785.427-2.162 2.238-1.823 5.739.315 8 2.137 2.26 5.575 2.99 8.613 2.33 3.038-.66 5.341-2.778 7.464-5.053-2.027.43-4.081-.613-5.707-1.9M65.975 44.126c3.024-.724 5.373-3.34 6.322-6.307.948-2.966.268-6.022-.637-9.002-.643 1.973-2.57 3.234-4.496 4-1.925.769-4.003 1.22-5.74 2.35-1.736 1.132-3.091 3.237-2.522 5.233.853 2.994 4.05 4.45 7.073 3.726M42.157 25.378c1.385 1.544 1.51 3.847 1.211 5.9-.3 2.054-.948 4.082-.839 6.154.11 2.073 1.252 4.301 3.262 4.805 3.016.756 5.872-1.287 6.759-4.273.886-2.985-.203-6.332-2.293-8.637-2.09-2.306-5.072-3.245-8.1-3.95M40.825 54.53c2.16-2.238 1.822-5.739-.316-8-2.137-2.261-5.574-2.99-8.613-2.33-3.038.66-5.34 2.778-7.463 5.053 2.026-.429 4.08.613 5.706 1.9 1.626 1.287 3.055 2.863 4.9 3.804 1.848.942 4.344 1.065 5.786-.427M41.895 61.259c-3.024.724-5.373 3.341-6.321 6.307-.949 2.966-.27 6.023.636 9.002.643-1.973 2.571-3.234 4.496-4.001 1.925-.767 4.003-1.218 5.74-2.35 1.737-1.131 3.091-3.236 2.522-5.232-.853-2.995-4.05-4.45-7.073-3.726M64.502 74.107c.3-2.054.948-4.082.838-6.155-.11-2.072-1.251-4.3-3.261-4.804-3.016-.756-5.872 1.288-6.758 4.273-.887 2.985.201 6.332 2.292 8.637 2.09 2.306 5.072 3.245 8.1 3.949-1.384-1.543-1.51-3.847-1.21-5.9"/><path fill="#A32525" d="M54.146 70.276c-9.694.117-17.646-7.66-17.764-17.371-.116-9.711 7.647-17.679 17.342-17.796 9.693-.117 17.647 7.66 17.763 17.371.117 9.712-7.646 17.68-17.34 17.796"/><path fill="#E6B57B" d="M50.011 52.905c-.089-7.365 4.357-13.724 10.739-16.419-2.16-.912-4.535-1.407-7.026-1.377-9.695.118-17.458 8.085-17.342 17.796.118 9.711 8.071 17.488 17.764 17.37 2.343-.027 4.57-.517 6.603-1.376-6.238-2.636-10.65-8.78-10.738-15.994"/><path fill="#CBAC69" d="M60.75 56.295c2.308 0 4.304-1.741 5.26-4.27-.956-2.529-2.952-4.27-5.26-4.27-2.31 0-4.305 1.741-5.26 4.27.955 2.529 2.95 4.27 5.26 4.27"/><path fill="#F1DDBC" d="M58.388 52.021c0-1.292 1.058-2.34 2.362-2.34s2.361 1.048 2.361 2.34c0 1.293-1.057 2.34-2.36 2.34-1.305 0-2.363-1.047-2.363-2.34"/><path fill="#145875" d="M58.854 52.021c0-1.037.848-1.878 1.896-1.878 1.047 0 1.896.841 1.896 1.878s-.85 1.88-1.896 1.88c-1.048 0-1.896-.843-1.896-1.88"/><path fill="#231916" d="M59.618 52.021c0-.619.507-1.12 1.132-1.12.624 0 1.13.501 1.13 1.12 0 .619-.506 1.12-1.13 1.12-.625 0-1.132-.501-1.132-1.12"/><path fill="#F4C41B" d="M60.75 54.568c-2.134 0-4.033-1.001-5.254-2.559l-.006.016c.955 2.529 2.95 4.27 5.26 4.27 2.308 0 4.304-1.741 5.26-4.27l-.007-.016c-1.221 1.558-3.12 2.56-5.253 2.56"/><path fill="#42889A" d="M60.75 49.45c-2.134 0-4.033 1.002-5.254 2.56l-.006-.016c.955-2.53 2.95-4.27 5.26-4.27 2.308 0 4.304 1.74 5.26 4.27l-.007.015c-1.221-1.557-3.12-2.558-5.253-2.558"/><path fill="#CBAC69" d="M43.656 48.753c-2.309 0-4.305 1.323-5.26 3.244.955 1.923 2.951 3.245 5.26 3.245 2.309 0 4.305-1.322 5.26-3.245-.955-1.921-2.951-3.244-5.26-3.244"/><path fill="#42889A" d="M43.656 53.954c2.134 0 4.032-.76 5.253-1.945l.007.012c-.955 1.922-2.951 3.245-5.26 3.245-2.309 0-4.305-1.323-5.26-3.245.002-.004.005-.007.006-.012 1.221 1.184 3.12 1.945 5.254 1.945"/><path fill="#A27FB8" d="M30.463 80.805c-.033.027-.06.044-.08.068-.653.777-1.307 1.551-1.95 2.334-.06.073-.047.204-.074.345 1.04-.127 2.013-.246 2.984-.368.043-.006.093-.035.122-.068.241-.282.478-.567.723-.86l-1.725-1.45m2.55-1.126l-.049.216c-.448-.087-.886-.164-1.32-.259-.148-.032-.24.003-.332.12-.22.278-.454.546-.699.837l2.524 2.123c-.155.185-.291.355-.437.516-.039.042-.109.07-.168.077-1.713.22-3.426.436-5.14.652-.014.002-.03-.006-.065-.014-.068-.213-.15-.434-.207-.66-.066-.269-.152-.501-.508-.465l-.006-.264c.04.01.062.016.086.02.023.006.048.007.072.01.256.039.548.17.758.09.22-.086.364-.373.536-.577.492-.583.982-1.169 1.472-1.754l.165-.197-.938-.788.144-.194.947.796c.276-.328.552-.632.797-.96.135-.18-.11-.732-.327-.796-.198-.06-.198-.06-.165-.273.566.14 1.13.278 1.692.428.053.013.103.095.126.155.1.257.2.515.278.779.053.175.137.277.33.291.137.01.27.055.433.09M20.92 59.321c-.385.81-.458 1.655-.024 2.51l-.052.03c-.082-.057-.169-.107-.243-.172-.813-.703-1.055-1.649-.691-2.664.037-.102.102-.24.064-.313-.093-.176-.235-.327-.37-.479-.02-.024-.106-.004-.157.011-.467.137-.935.273-1.397.424-.07.023-.152.118-.168.192-.092.453-.176.907-.241 1.364-.013.088.043.226.113.277.156.111.341.183.528.278l-.068.22c-.033-.004-.058 0-.078-.01-.759-.37-1.394-.883-1.837-1.612-.07-.117-.128-.158-.266-.114-.455.146-.914.284-1.374.411-.135.038-.168.112-.196.235-.062.273-.012.464.212.675.6.564.893 1.263.72 2.107-.013.069-.037.135-.07.254-.111-.233-.197-.42-.29-.605-.2-.402-.487-.729-.889-.936-.142-.073-.173-.152-.14-.302.166-.746.295-1.496.25-2.265-.006-.097-.03-.195-.02-.29.006-.067.053-.13.083-.193l.07.017.117.284c.4-.12.807-.23 1.2-.372.076-.027.102-.189.18-.346.054.105.097.185.137.266.215.424.428.85.647 1.272.027.053.082.09.156.169l.376-2.21c.265-.043.187.202.292.309l1.534-.46c.096-.15-.157-.372.067-.486.26.466.473.942.772 1.356.296.41.678.758 1.053 1.168M19.911 32.369l-.068.052c-.416.328-.645.652-.47 1.274.228.817.034 1.627-.589 2.274-.04.04-.083.077-.124.116l-.076.075c.206-1.131.168-1.294-.585-2.617 1.038-.569 1.9-1.317 2.364-2.45l.078-.002.072.336c.156.125.372.27.555.45.634.618.917 1.404 1.003 2.265.094.946.167 1.892.502 2.794.127.342.282.669.604.966l-.026-.399c-.1-1.318.324-2.43 1.33-3.293.228-.196.316-.378.198-.657-.051-.123-.049-.243.15-.263.13.515.267 1.032.382 1.553.014.06-.076.166-.142.218-.496.395-.979.8-1.32 1.346-.36.572-.398 1.168-.148 1.791.033.083.015.186.025.344-.505-.316-.83-.682-1.107-1.094-.476-.708-.785-1.492-1.016-2.308-.193-.682-.419-1.348-.795-1.955-.251-.407-.48-.648-.797-.816M51.481 93.899c.124-.179.236-.367.375-.532.18-.214.412-.317.706-.312.745.013 1.49.004 2.27.004l.278-2.181c-.551.209-1.067.395-1.576.603-.19.077-.343.068-.524-.025-.374-.192-.768-.346-1.14-.543-.206-.11-.383-.136-.583-.005-.072.048-.16.07-.24.105l-.064-.04c.032-.061.053-.165.098-.177.394-.105.444-.374.426-.736-.029-.622-.007-1.247-.007-1.874l-.28-.07c-.03-.229.152-.183.268-.218.51-.153 1.036-.265 1.521-.473.349-.149.643-.426.985-.663.617.68 1.337 1.142 2.344.74l.017.093c-.148.115-.284.254-.447.341-.814.438-1.606.333-2.375-.13-.102-.062-.226-.17-.316-.149-.21.048-.407.154-.601.253-.036.018-.044.114-.044.175-.003.65-.007 1.3.005 1.949.002.08.073.195.144.232.431.223.868.436 1.312.633.096.043.238.04.338.003.362-.137.715-.3 1.114-.47l-.437 3.359h-.263c-.787 0-1.574-.01-2.36.006-.218.005-.435.087-.653.13-.083.017-.169.024-.253.036l-.038-.064M44.223 19.647c-.479.648-.948 1.289-1.428 1.921-.039.05-.154.078-.223.064-.366-.073-.73-.15-1.089-.252-.178-.05-.276-.007-.385.135-.223.288-.465.56-.707.848l-.219-.109c.382-.5.747-.993 1.13-1.472.12-.15.136-.279.08-.46-.376-1.2-.746-2.404-1.102-3.612-.106-.359-.319-.587-.652-.733-.125-.056-.2-.05-.285.063-.184.246-.383.481-.585.733l-.198-.13c.423-.553.833-1.095 1.252-1.63.034-.045.125-.075.18-.065.54.101.942.319 1.11.927.39 1.409.844 2.8 1.264 4.2.046.152.127.197.272.254.484.19.81.049 1.038-.4.047-.093.135-.165.189-.255.098-.162.204-.192.358-.027M86.969 33.18c-.202.102-.41.195-.603.313-.062.038-.12.145-.116.218.018.387.055.774.09 1.16.006.06.022.14.063.172.16.121.33.234.503.335.042.024.124.007.174-.018.392-.192.784-.387 1.168-.595.06-.032.119-.13.12-.2.01-.371.006-.744-.003-1.116-.002-.062-.04-.14-.085-.182-.536-.481-.536-.48-1.181-.153-.044.022-.087.043-.13.066m-2.148 3.476c.224-.114.453-.218.669-.346.066-.04.138-.143.136-.214-.015-.43-.048-.857-.085-1.285-.005-.061-.043-.14-.092-.175-.559-.405-.56-.404-1.164-.096-.282.144-.674.226-.808.457-.138.24 0 .628-.026.947-.034.424.092.745.448.988.107.072.173.115.295.045.204-.117.417-.215.627-.321m1.611.777c-.036-.059-.073-.117-.108-.176l-.104-.182-1.486.753c.033.102.077.207.097.315.01.047-.03.103-.048.156-.042-.024-.1-.038-.125-.074-.17-.237-.316-.492-.5-.716-.406-.493-.904-.882-1.454-1.202-.135-.078-.193-.159-.181-.324.03-.437.014-.878.062-1.313.035-.324-.046-.538-.35-.67-.096-.041-.255-.095-.097-.278.185.103.37.214.563.308.072.034.18.063.242.034.389-.182.769-.382 1.15-.576l-.013-.33c.134-.108.19-.025.249.088.26.499.653.856 1.181 1.109l-.12-1.94.063-.034.294.256 1.298-.658c-.035-.108-.077-.205-.097-.307-.009-.05.024-.107.037-.162.05.03.115.048.145.091.142.207.26.431.414.63.389.501.89.873 1.455 1.151.226.112.316.236.288.497-.047.426-.04.858-.073 1.287-.012.16.027.258.172.329.116.056.226.13.324.214.041.036.045.115.067.175l-.053.027c-.196-.11-.39-.23-.592-.328-.07-.034-.177-.051-.24-.021-.403.19-.798.398-1.212.607.015.082.038.159.038.236 0 .06-.03.12-.046.18-.045-.038-.115-.067-.131-.114-.193-.557-.652-.845-1.15-1.158.025.725.122 1.415.133 2.106l-.092.014M66.362 16.534c-.127.342-.261.682-.376 1.028-.025.073-.011.196.037.249.67.738.673.74 1.656.6.085-.011.193-.104.228-.185.15-.359.28-.727.413-1.093.088-.243.262-.505.224-.729-.037-.212-.32-.371-.458-.578-.263-.393-.596-.573-1.076-.492-.143.024-.23.044-.28.195-.11.339-.244.67-.368 1.005m-1.145 4.937c-.388-.681-.867-1.27-1.732-1.336.007-.05.005-.074.013-.078.683-.33 1.827-.135 2.333.404.1.105.198.22.26.35.094.192.222.253.426.206.117-.027.242-.024.366-.035l.855-2.302c-.175.014-.33.024-.485.04-.427.044-.854.086-1.28.14-.141.017-.24-.006-.336-.125-.168-.208-.376-.383-.534-.597-.18-.245-.39-.336-.684-.262-.103.026-.24.054-.22-.143.024-.01.046-.03.067-.028.48.032.65-.259.776-.67.19-.61.438-1.203.65-1.772-.066-.188-.43-.094-.327-.38.441.082.852.21 1.267.22.546.012 1.095-.06 1.64-.119.166-.018.268.005.373.137.296.376.615.734.909 1.111.119.153.23.225.423.15.104-.04.22-.047.356-.073l.07.188c-.05.016-.08.036-.111.034-.548-.016-.75.315-.911.79-.403 1.185-.861 2.35-1.297 3.522l-.084.226c.094.18.404.122.399.411-1.058-.257-1.253-.373-3.182-.01M75.656 80.614c.247.269.492.54.744.805.048.05.138.109.193.096.6-.144 1.24-.246 1.316-1.05.004-.04.02-.081.038-.115.074-.133.044-.231-.063-.341-.299-.309-.62-.605-.868-.954-.303-.428-.628-.49-1.126-.352-.469.13-.841.276-.962.787-.005.023-.017.047-.032.065-.083.103-.055.182.032.272.248.258.486.524.728.787m.102 2.565c-.017-.097-.028-.118-.022-.128.276-.425.089-.72-.231-1.03-.458-.447-.874-.937-1.32-1.423-.096.071-.174.14-.264.192-.044.025-.107.018-.161.025.011-.06.005-.132.038-.176.248-.34.547-.65.745-1.015.245-.452.414-.947.601-1.43.05-.127.106-.194.244-.223.483-.1.962-.222 1.447-.32.146-.031.227-.088.26-.235.028-.126.064-.254.123-.367.03-.057.117-.082.179-.12l.045.059c-.057.219-.121.437-.165.659-.014.074-.002.185.044.237 1.028 1.127 2.062 2.249 3.077 3.353.204.043.297-.29.548-.101-.813.745-1.192 1.686-1.357 2.698-.411.09-.827.11-1.173.275-.338.162-.605.473-.897.714-.066-1.1.83-2.004 2.045-2.048.012-.008.03-.015.035-.027.27-.575.27-.575-.155-1.038l-1.248-1.356-.341.9c-.115.303-.155.686-.366.887-.21.202-.587.247-.9.312-.333.07-.555.215-.632.56-.013.058-.11.096-.199.166M92.85 63.4c-.092-.033-.204-.044-.274-.104-.493-.42-.99-.837-1.46-1.28-.731-.69-1.437-1.407-2.168-2.096-.197-.186-.437-.338-.68-.462-.313-.16-.64-.163-.942.056-.103.074-.15.154-.098.288.05.127.089.263.104.399.009.083-.036.172-.057.258l-.062-.007c-.172-.53-.347-1.06-.51-1.592-.017-.058.017-.168.064-.204.2-.15.402-.307.626-.413.47-.221.914-.139 1.317.187.582.473.986 1.094 1.409 1.699.61.87 1.206 1.752 1.97 2.5.086.085.18.164.27.244.017.013.038.02.121.068-.56-1.453-.536-2.786.56-3.947l-.73-.763.188-.201 1.44 1.414c-.216.282-.428.547-.627.822-.68.942-1.063 1.928-.397 3.064l-.063.07"/></g></svg>