<svg xmlns="http://www.w3.org/2000/svg" width="108" height="108" viewBox="0 0 108 108"><title>ic_gun</title><defs><filter id="a" width="107.9%" height="107.3%" x="-4%" y="-3.6%" filterUnits="objectBoundingBox"><feOffset dx="1" dy="2" in="SourceAlpha" result="shadowOffsetOuter1"/><feColorMatrix in="shadowOffsetOuter1" result="shadowMatrixOuter1" values="0 0 0 0 0.294008315 0 0 0 0 0.188197255 0 0 0 0 0.131873041 0 0 0 0.1 0"/><feMerge><feMergeNode in="shadowMatrixOuter1"/><feMergeNode in="SourceGraphic"/></feMerge></filter></defs><g fill="none" fill-rule="evenodd"><g stroke-width="2.25" transform="translate(13.5 12.375)"><circle cx="40.5" cy="40.5" r="24.632" stroke="#B4324F"/><circle cx="40.5" cy="40.5" r="36" stroke="#B4324F"/><circle cx="40.5" cy="40.5" r="6" stroke="#B4324F"/><path stroke="#B4324E" stroke-linecap="round" stroke-linejoin="round" d="M40.5 19.821V0M40.5 81.321V61.5M60.429 41.25H80.25M.429 41.25H20.25"/></g><g filter="url(#a)" transform="translate(4.5 -3.375)"><path fill="#9CA49F" d="M41.9 66.246c-4.406 6.381-12.957 7.967-19.063 3.534l2.313-3.349c4.338 3.148 10.414 2.023 13.545-2.511 3.13-4.533 2.148-10.783-2.19-13.932l2.313-3.348c6.105 4.43 7.488 13.226 3.082 19.606M14.354 48.546l.029.014-.002.005c-.54-.363-1.247-.43-1.877-.116-.96.479-1.379 1.665-.93 2.652.155.34.392.608.675.793l-.003.002c.39.26 3.953 2.478 10.597.82l-.84-3.854c-5.03 1.253-7.544-.255-7.649-.316"/><path fill="#444A55" d="M35.666 60.825l-.032-.007-.001.005c.646.06 1.238.457 1.531 1.101.447.984.032 2.171-.931 2.652-.333.166-.684.223-1.021.187l.001.003c-.463-.044-4.617-.585-8.744-6.094l3.057-2.46c3.126 4.169 6.02 4.594 6.14 4.613"/><path fill="#9CA49F" d="M78.684 15.426c-.961.48-1.38 1.665-.93 2.652l1.331 2.929 3.487-1.74-1.333-2.928c-.45-.987-1.593-1.393-2.555-.913M80.57 29.276L48.936 45.06l1.622 3.562L82.19 32.838c1.028-.513 1.496-1.726 1.049-2.71-.45-.986-1.643-1.365-2.67-.852"/><path fill="#4B3022" d="M27.398 48.304l13.264 4.93c-23.909 15.58-4.878 31.694-4.878 31.694s2.12 7.215-6.225 11.38c-5.089 2.539-9.807-.078-11.405-2.584-3.512-5.512-15.436-31.647 9.244-45.42"/><path fill="#FEFEFE" d="M24.38 50.212c.105-.07.203-.143.307-.214-.104.07-.206.145-.306.214"/><path fill="#783F20" d="M35.783 84.928c.844 1.675-.074 4.5-.074 4.5s-22.438-18.875 1.47-34.455l-12.798-4.762c.104-.07.201-.142.306-.214l.002-.001c.021-.013.038-.025.054-.037.797-.553 1.644-1.086 2.545-1.594l.019-.01c.029-.018.06-.033.09-.051l13.265 4.93c-1.117.73-2.143 1.46-3.08 2.188l-.271.213c-1.258.998-2.35 1.993-3.298 2.98-.984 1.026-1.812 2.049-2.497 3.057-.68 1.002-1.226 1.992-1.651 2.965-.616 1.416-.984 2.8-1.15 4.136-.4 3.183.328 6.1 1.442 8.551 2.112 4.629 5.626 7.604 5.626 7.604"/><path fill="#B4BFB8" d="M41.633 51.403l-4.083-8.968c-.432-.95-.031-2.095.898-2.557L83.852 17.22c.928-.462 2.03-.068 2.463.88l3.3 7.25c.432.949.03 2.094-.897 2.557L41.633 51.403z"/><path fill="#CBD1CD" d="M38.29 44.622l-.816-1.79c-.085-.19.597-.72 1.525-1.181l45.404-22.657c.927-.464 1.75-.685 1.836-.496l.659 1.448c.086.188-.597.718-1.524 1.181L38.29 44.622z"/><path fill="#CBD1CD" d="M42.58 53.482l-5.078-11.153c-.779-1.71-.055-3.776 1.618-4.61l4.393-2.191c1.672-.834 3.66-.125 4.438 1.587l3.667 8.054c.78 1.711.055 3.775-1.618 4.609l-7.42 3.704z"/><path fill="#B4BFB8" d="M36.887 36.282l-13.935 6.953c-4.807 2.4-6.891 8.334-4.652 13.253 2.238 4.917 7.956 6.963 12.763 4.564L44.998 54.1c.962-.48 1.376-1.669.928-2.65L39.44 37.195c-.45-.985-1.59-1.394-2.552-.914"/><path fill="#9CA49F" d="M29.682 48.623c-.962.48-1.38 1.663-.932 2.65.447.982 1.593 1.392 2.553.913l12.19-6.083-1.621-3.562-12.19 6.082z"/><g><path fill="#F0D03D" d="M65.855 82.13l-2.582 2.078 1.134 1.444 2.582-2.078 2.582-2.08-1.134-1.443z"/><path fill="#F0D03D" d="M77.553 90.473l.077-.063-.098-.123-6.315-8.046-.074-.094-.043.034-1.67-.866-2.583 2.078-2.582 2.079.456 1.845-.042.033 6.391 8.142.097.123.077-.062 1.298.463 2.582-2.08 2.582-2.077z"/><path fill="#D49A14" d="M77.705 91.82l-.074-1.41-3.233 2.602-3.23 2.603 1.34.39.531 1.36 2.927-2.356 2.926-2.357z"/><path fill="#F5E169" d="M59.436 73.953c-.695 2.316 1.369 7.112 3.953 10.402l2.58-2.08 2.583-2.078c-2.583-3.29-6.73-6.408-9.116-6.244M69.428 81.313l-2.58 2.08-2.583 2.079.415 1.879 3.231-2.602 3.233-2.602z"/><path fill="#F0D03D" d="M77.706 91.859l-2.583 2.078-2.58 2.079.496 1.349 2.927-2.356 2.926-2.357zM81.243 65.036l-3.297.007.003 1.845 3.3-.007 3.297-.007-.004-1.844z"/><path fill="#F0D03D" d="M85.301 78.932h.1l-.002-.16-.02-10.278v-.12h-.055l-.779-1.731-3.298.007-3.299.006-.772 1.734h-.055l.02 10.4.001.159.098-.001.735 1.179 3.298-.007 3.3-.006z"/><path fill="#D49A14" d="M84.593 80.084l.806-1.153-4.127.009-4.129.008.81 1.149-.416 1.4 3.738-.007 3.74-.008z"/><path fill="#F5E169" d="M81.223 54.59c-1.965 1.378-3.285 6.436-3.277 10.639l3.299-.006 3.297-.006c-.007-4.204-1.347-9.257-3.319-10.627M84.545 66.643l-3.299.007-3.298.007-.827 1.733 4.13-.008 4.13-.008z"/><path fill="#F0D03D" d="M84.572 80.114l-3.299.007-3.298.007-.437 1.369 3.737-.008 3.74-.008zM95.544 74.943l-3.067-1.23-.67 1.716 3.067 1.229 3.067 1.23.67-1.716z"/><path fill="#F0D03D" d="M94.238 89.373l.092.036.058-.147 3.735-9.557.044-.112-.05-.02-.092-1.9-3.067-1.23-3.067-1.23-1.35 1.322-.05-.02-3.78 9.669-.058.148.091.037.252 1.37 3.065 1.229 3.068 1.23z"/><path fill="#D49A14" d="M93.16 90.177l1.17-.767-3.839-1.54-3.839-1.54.334 1.372-.897 1.146 3.476 1.394 3.477 1.394z"/><path fill="#F5E169" d="M99.341 65.23c-2.33.544-5.404 4.75-6.932 8.656l3.067 1.23 3.067 1.23c1.528-3.91 2.128-9.104.798-11.117M98.025 77.673l-3.067-1.23-3.066-1.23-1.402 1.302 3.84 1.539 3.838 1.539z"/><path fill="#F0D03D" d="M93.13 90.198l-3.067-1.23-3.068-1.23-.906 1.109 3.476 1.394 3.477 1.394z"/></g></g></g></svg>