<?xml version="1.0" encoding="UTF-8"?>
<svg width="48px" height="48px" viewBox="0 0 48 48" version="1.1" xmlns="http://www.w3.org/2000/svg" xmlns:xlink="http://www.w3.org/1999/xlink">
    <!-- Generator: Sketch 64 (93537) - https://sketch.com -->
    <title>weixin-2</title>
    <desc>Created with Sketch.</desc>
    <defs>
        <polygon id="path-1" points="14.0014634 16.0114878 33.9804634 16.0114878 33.9804634 32.2926585 14.0014634 32.2926585"></polygon>
    </defs>
    <g id="登陆注册流程" stroke="none" stroke-width="1" fill="none" fill-rule="evenodd">
        <g id="登录-已有手机" transform="translate(-237.000000, -704.000000)">
            <g id="其他登录方式" transform="translate(43.000000, 671.000000)">
                <g id="weixin-2" transform="translate(194.000000, 33.000000)">
                    <circle id="椭圆形备份" fill="#4EE168" fill-rule="nonzero" cx="24" cy="24" r="24"></circle>
                    <mask id="mask-2" fill="white">
                        <use xlink:href="#path-1"></use>
                    </mask>
                    <g id="Clip-2"></g>
                    <path d="M33.9804634,26.5724634 C33.9804634,23.8039024 31.2123659,21.5494146 28.0983171,21.5494146 C24.7990732,21.5494146 22.2082683,23.8039024 22.2082683,26.5724634 C22.2082683,29.3480976 24.7990732,31.5945854 28.0983171,31.5945854 C28.7884878,31.5945854 29.486561,31.4185122 30.1762683,31.2503415 L32.0777561,32.2926585 L31.557439,30.5601951 C32.9448293,29.5175122 33.9804634,28.1296341 33.9804634,26.5724634 Z M26.1876829,25.7057561 C25.8434634,25.7057561 25.4983902,25.3611463 25.4983902,25.0152195 C25.4983902,24.6713659 25.8434634,24.3259024 26.1876829,24.3259024 C26.7097073,24.3259024 27.0551707,24.6713659 27.0551707,25.0152195 C27.0551707,25.3611463 26.7097073,25.7057561 26.1876829,25.7057561 Z M30.0001951,25.7057561 C29.6555854,25.7057561 29.3112683,25.3611463 29.3112683,25.0152195 C29.3112683,24.6713659 29.6555854,24.3259024 30.0001951,24.3259024 C30.5213415,24.3259024 30.8669024,24.6713659 30.8669024,25.0152195 C30.8669024,25.3611463 30.5130488,25.7057561 30.0001951,25.7057561 Z" id="Fill-1" fill="#FFFFFF" mask="url(#mask-2)"></path>
                    <path d="M27.5267805,20.937561 C27.7536098,20.937561 27.9813171,20.9533902 28.2078049,20.9766341 C27.597561,18.1252683 24.5513415,16.0114878 21.0726829,16.0114878 C17.1876829,16.0114878 14,18.6585122 14,22.0260732 C14,23.9687317 15.0577317,25.5659024 16.8276585,26.8039024 L16.1229024,28.9334634 L18.597561,27.6888049 C19.482561,27.8607805 20.1952195,28.0414146 21.0726829,28.0414146 C21.2916341,28.0414146 21.5118049,28.0335122 21.7312195,28.0110244 C21.590122,27.5402683 21.5118049,27.0402683 21.5118049,26.5303659 C21.511439,23.4438537 24.167122,20.937561 27.5267805,20.937561 Z M23.7197073,19.018561 C24.2520976,19.018561 24.6042195,19.3711707 24.6042195,19.9039268 C24.6042195,20.4359512 24.2516098,20.7884634 23.7197073,20.7884634 C23.1868293,20.7884634 22.6549268,20.4359512 22.6549268,19.9039268 C22.6628293,19.3706829 23.1943659,19.018561 23.7197073,19.018561 Z M18.7699024,20.7877073 C18.2371463,20.7877073 17.705122,20.4354634 17.705122,19.9030732 C17.705122,19.3702927 18.2375122,19.0181707 18.7699024,19.0181707 C19.3031707,19.0181707 19.6557805,19.3706829 19.6557805,19.9030732 C19.6552927,20.4280488 19.3031707,20.7877073 18.7699024,20.7877073 Z" id="Fill-3" fill="#FFFFFF" mask="url(#mask-2)"></path>
                </g>
            </g>
        </g>
    </g>
</svg>