<?xml version="1.0" encoding="UTF-8"?>
<svg width="48px" height="48px" viewBox="0 0 48 48" version="1.1" xmlns="http://www.w3.org/2000/svg" xmlns:xlink="http://www.w3.org/1999/xlink">
    <title>ic_friendcircle</title>
    <defs>
        <linearGradient x1="13.5882743%" y1="8.74346541%" x2="141.100468%" y2="168.492131%" id="linearGradient-1">
            <stop stop-color="#99D8FF" offset="0%"></stop>
            <stop stop-color="#8269FF" offset="100%"></stop>
        </linearGradient>
    </defs>
    <g id="伴伴" stroke="none" stroke-width="1" fill="none" fill-rule="evenodd">
        <g id="分享" transform="translate(-164.000000, -622.000000)">
            <g id="popup_share" transform="translate(20.000000, 607.000000)">
                <g id="ic_friendcircle" transform="translate(144.000000, 15.000000)">
                    <rect id="#" fill="url(#linearGradient-1)" x="0" y="0" width="48" height="48" rx="24"></rect>
                    <g id="main" transform="translate(16.000000, 16.000000)" fill="#FFFFFF" fill-rule="nonzero">
                        <path d="M7.99342318,-1.77635684e-15 C7.68732263,-1.77635684e-15 7.38670777,0.0183595469 7.0908804,0.0529945937 C6.37942294,0.133532493 5.68221632,0.30963336 5.01829348,0.576489844 C5.01829348,0.576489844 10.4034289,5.87902545 10.5468543,6.07611769 L10.5468543,0.421574953 C10.3850972,0.367246394 10.2217879,0.317605049 10.0571333,0.272713734 C9.384254,0.0920153536 8.69037893,0.000321632228 7.99342318,-1.77635684e-15 Z" id="路径"></path>
                        <path d="M13.6183323,2.30357762 C13.4048918,2.09166985 13.1793383,1.892195 12.9427967,1.70614797 C12.3825206,1.26290448 11.7645901,0.897064506 11.1057944,0.618567953 C11.1057944,0.618567953 11.1452913,8.15451794 11.1057944,8.39527612 L15.1253962,4.39646702 C15.0495711,4.24439924 14.9689076,4.09476781 14.883528,3.94779933 C14.5425186,3.36049223 14.1232137,2.80523991 13.6183323,2.30357762 L13.6183323,2.30357762 Z" id="路径"></path>
                        <path d="M15.3827242,5.02396666 C15.3827242,5.02396666 10.0550388,10.3814817 9.85555975,10.5241899 L15.539016,10.5241899 C15.5937367,10.3633375 15.6434308,10.2008353 15.6880268,10.0369176 C15.8699939,9.36746122 15.9623525,8.67703407 15.9627094,7.98352602 C15.9627094,7.67974991 15.9435594,7.37984419 15.9085508,7.08569444 C15.8283186,6.37785722 15.651412,5.68421928 15.3827242,5.02396666 Z" id="路径"></path>
                        <path d="M7.47886707,11.1193371 L11.4984689,15.1182454 C11.6514856,15.0428757 11.8020365,14.962648 11.9498899,14.8776857 C12.554318,14.5323303 13.1102248,14.1090091 13.6031719,13.6187168 C13.8155291,13.4059428 14.015785,13.1815411 14.2030053,12.9465588 C14.6482522,12.3889486 15.0158811,11.7741345 15.2959508,11.1187416 C15.2960505,11.1188409 7.72143354,11.1583387 7.47886707,11.1193371 L7.47886707,11.1193371 Z" id="路径"></path>
                        <path d="M5.41665306,9.86334541 L5.41665306,15.5184836 C5.57833526,15.5729681 5.74168849,15.6224142 5.90647378,15.6667494 C6.5793007,15.8479429 7.27324853,15.939842 7.97028362,15.9400585 C8.27498781,15.9400585 8.57610138,15.9211035 8.87123057,15.8869647 C9.58272404,15.806278 10.2799372,15.6299752 10.9438175,15.362874 C10.9444159,15.3630725 5.56007847,10.061827 5.41665306,9.86334541 L5.41665306,9.86334541 Z" id="路径"></path>
                        <path d="M4.85083084,7.50488761 L0.832725141,11.5035975 C0.908062993,11.6561098 0.988734999,11.8059557 1.07459344,11.9528606 C1.42113324,12.5547851 1.8465956,13.1081743 2.33978905,13.5984717 C2.55313811,13.810327 2.77873358,14.0096107 3.01542447,14.1953059 C3.57552915,14.6391615 4.19377702,15.0050503 4.85312486,15.2828859 C4.85292538,15.2828859 4.81203218,7.74614202 4.85083084,7.50488761 L4.85083084,7.50488761 Z" id="路径"></path>
                        <path d="M0.273984422,5.90681287 C0.0924602215,6.57630811 0.000340049833,7.26667451 -9.53311504e-14,7.96010519 C-9.53311504e-14,8.26328586 0.0191499843,8.56368778 0.0539590766,8.85734133 C0.133883736,9.56526497 0.31111339,10.2589184 0.580683401,10.9188706 C0.580683401,10.9188706 5.90777038,5.56135562 6.1072494,5.41924278 L0.422795776,5.41924278 C0.368012918,5.58015638 0.318384078,5.74276183 0.273984422,5.90681287 L0.273984422,5.90681287 Z" id="路径"></path>
                        <path d="M3.97451955,1.09303825 C3.37015992,1.43818002 2.81425943,1.86122949 2.32123752,2.35121322 C2.10400487,2.56676425 1.90592222,2.79233861 1.72080568,3.02347045 C1.27505039,3.58129149 0.907168046,4.19653739 0.627162013,4.85247853 C0.627162013,4.85247853 8.20307563,4.81238525 8.44494392,4.85118841 L4.42594056,0.852379297 C4.27304246,0.928012958 4.12249877,1.00826994 3.97451955,1.09303825 L3.97451955,1.09303825 Z" id="路径"></path>
                    </g>
                </g>
            </g>
        </g>
    </g>
</svg>