<?xml version="1.0" encoding="UTF-8"?>
<svg width="236px" height="45px" viewBox="0 0 236 45" version="1.1" xmlns="http://www.w3.org/2000/svg" xmlns:xlink="http://www.w3.org/1999/xlink">
    <title>GAMES@2x</title>
    <g id="谁是凶手" stroke="none" stroke-width="1" fill="none" fill-rule="evenodd" opacity="0.02">
        <g id="首页弹窗" transform="translate(-15.000000, -322.000000)" fill="#FFFFFF" fill-rule="nonzero">
            <path d="M38.3417969,366.732422 C42.4824219,366.732422 46.0615234,366.249023 49.0791016,365.282227 C52.0966797,364.31543 55.5683594,362.494141 59.4941406,359.818359 L59.4941406,359.818359 L59.4941406,341.507812 L38.9863281,341.507812 L38.9863281,350.443359 L47.8632812,350.443359 L47.8632812,354.486328 C46.125,355.521484 44.5820312,356.253906 43.234375,356.683594 C41.8867188,357.113281 40.4707031,357.328125 38.9863281,357.328125 C35.8613281,357.328125 33.4248047,356.332031 31.6767578,354.339844 C29.9287109,352.347656 29.0546875,349.027344 29.0546875,344.378906 C29.0546875,340.003906 29.9189453,336.805664 31.6474609,334.78418 C33.3759766,332.762695 35.6953125,331.751953 38.6054688,331.751953 C40.5585938,331.751953 42.1650391,332.181641 43.4248047,333.041016 C44.6845703,333.900391 45.578125,335.140625 46.1054688,336.761719 L46.1054688,336.761719 L58.9082031,334.476562 C58.1269531,331.703125 56.9599609,329.413086 55.4072266,327.606445 C53.8544922,325.799805 51.9013672,324.466797 49.5478516,323.607422 C47.1943359,322.748047 43.6445312,322.318359 38.8984375,322.318359 C33.9765625,322.318359 30.0605469,323.011719 27.1503906,324.398438 C23.4199219,326.195312 20.5878906,328.827148 18.6542969,332.293945 C16.7207031,335.760742 15.7539062,339.837891 15.7539062,344.525391 C15.7539062,348.978516 16.6376953,352.923828 18.4052734,356.361328 C20.1728516,359.798828 22.6630859,362.386719 25.8759766,364.125 C29.0888672,365.863281 33.2441406,366.732422 38.3417969,366.732422 Z M76.6035156,366 L78.6835938,358.910156 L93.8007812,358.910156 L95.9101562,366 L109.796875,366 L93.6542969,323.050781 L79.1816406,323.050781 L63.0390625,366 L76.6035156,366 Z M91.0175781,349.623047 L81.5546875,349.623047 L86.2714844,334.183594 L91.0175781,349.623047 Z M124.767578,366 L124.767578,333.246094 L133.146484,366 L142.960938,366 L151.369141,333.246094 L151.369141,366 L162.208984,366 L162.208984,323.050781 L144.806641,323.050781 L138.097656,349.183594 L131.359375,323.050781 L113.898438,323.050781 L113.898438,366 L124.767578,366 Z M206.857422,366 L206.857422,356.273438 L183.947266,356.273438 L183.947266,347.806641 L204.601562,347.806641 L204.601562,339.046875 L183.947266,339.046875 L183.947266,332.220703 L206.212891,332.220703 L206.212891,323.050781 L170.646484,323.050781 L170.646484,366 L206.857422,366 Z M231.642578,366.732422 C235.802734,366.732422 239.25,366.131836 241.984375,364.930664 C244.71875,363.729492 246.847656,361.966797 248.371094,359.642578 C249.894531,357.318359 250.65625,354.779297 250.65625,352.025391 C250.65625,349.681641 250.084961,347.5625 248.942383,345.667969 C247.799805,343.773438 245.973633,342.186523 243.463867,340.907227 C240.954102,339.62793 236.798828,338.363281 230.998047,337.113281 C228.654297,336.625 227.169922,336.097656 226.544922,335.53125 C225.900391,334.984375 225.578125,334.369141 225.578125,333.685547 C225.578125,332.748047 225.96875,331.952148 226.75,331.297852 C227.53125,330.643555 228.693359,330.316406 230.236328,330.316406 C232.111328,330.316406 233.581055,330.755859 234.645508,331.634766 C235.709961,332.513672 236.408203,333.919922 236.740234,335.853516 L236.740234,335.853516 L249.25,335.121094 C248.703125,330.667969 246.989258,327.420898 244.108398,325.379883 C241.227539,323.338867 237.042969,322.318359 231.554688,322.318359 C227.082031,322.318359 223.561523,322.879883 220.993164,324.00293 C218.424805,325.125977 216.500977,326.668945 215.22168,328.631836 C213.942383,330.594727 213.302734,332.679688 213.302734,334.886719 C213.302734,338.246094 214.552734,341.009766 217.052734,343.177734 C219.533203,345.345703 223.683594,347.083984 229.503906,348.392578 C233.058594,349.173828 235.324219,350.003906 236.300781,350.882812 C237.277344,351.761719 237.765625,352.757812 237.765625,353.871094 C237.765625,355.042969 237.25293,356.073242 236.227539,356.961914 C235.202148,357.850586 233.742188,358.294922 231.847656,358.294922 C229.308594,358.294922 227.355469,357.425781 225.988281,355.6875 C225.148438,354.613281 224.591797,353.050781 224.318359,351 L224.318359,351 L211.691406,351.791016 C212.0625,356.126953 213.654297,359.701172 216.466797,362.513672 C219.279297,365.326172 224.337891,366.732422 231.642578,366.732422 Z" id="GAMES"></path>
        </g>
    </g>
</svg>