<svg xmlns="http://www.w3.org/2000/svg" width="12" height="12" viewBox="0 0 12 12"><title>半星</title><g fill="#FFF" fill-rule="nonzero"><path d="M6 1c-.22 0-.438.124-.538.371L4.358 4.092l-2.822.25c-.514.044-.725.716-.333 1.07l2.144 1.945-.643 2.886c-.116.526.427.941.871.66L6 9.375V1z"/><path d="M6 9.375l2.425 1.534c.444.282.987-.134.87-.66l-.642-2.886 2.144-1.944c.392-.355.181-1.027-.333-1.07l-2.822-.25L6.538 1.37C6.438 1.124 6.219 1 6 1c-.22 0-.438.124-.538.371L4.358 4.092l-2.822.25c-.514.044-.725.716-.333 1.07l2.144 1.945-.643 2.886c-.116.526.427.941.871.66L6 9.375z" opacity=".399"/></g></svg>