<svg xmlns="http://www.w3.org/2000/svg" width="48" height="48" viewBox="0 0 48 48"><title>xxhdpi/图标 Icon/搜索框 Search bar/ic_searshbar_clear_black</title><g fill="none" fill-rule="evenodd"><path d="M0 0h48v48H0z"/><path fill="#FFF" fill-opacity=".595" fill-rule="nonzero" d="M24 8C15.164 8 8 15.164 8 24s7.164 16 16 16 16-7.164 16-16S32.836 8 24 8zm1.885 16l4.391 4.39c.521.522.521 1.366 0 1.886-.521.521-1.365.521-1.885 0-.206-.204-4.391-4.39-4.391-4.39l-4.39 4.39c-.522.521-1.366.521-1.886 0-.521-.521-.521-1.365 0-1.885.204-.206 4.39-4.391 4.39-4.391l-4.39-4.39c-.521-.522-.521-1.366 0-1.886.521-.521 1.365-.521 1.885 0 .206.204 4.391 4.39 4.391 4.39l4.39-4.39c.522-.521 1.366-.521 1.886 0 .521.521.521 1.365 0 1.885-.204.206-4.39 4.391-4.39 4.391z"/></g></svg>