<svg xmlns="http://www.w3.org/2000/svg" width="24" height="24" viewBox="0 0 24 24"><title>ic_navbar_search</title><path fill="#FFF" fill-rule="nonzero" d="M10.592 2c4.478 0 8.148 3.827 8.148 8.592 0 1.839-.654 3.563-1.737 4.948l4.313 4.313c.404.404.404 1.059 0 1.463-.404.404-1.059.404-1.463 0l-4.313-4.313c-1.385 1.083-3.11 1.737-4.948 1.737C5.827 18.74 2 15.07 2 10.592 2 5.747 5.747 2 10.592 2zm0 2.069c-3.702 0-6.523 2.821-6.523 6.523 0 3.315 2.882 6.079 6.523 6.079 3.258 0 6.079-2.821 6.079-6.079 0-3.641-2.764-6.523-6.079-6.523z"/></svg>