<?xml version="1.0" encoding="UTF-8"?>
<svg width="300px" height="84px" viewBox="0 0 300 84" version="1.1" xmlns="http://www.w3.org/2000/svg" xmlns:xlink="http://www.w3.org/1999/xlink">
    <title>矩形</title>
    <defs>
        <linearGradient x1="96.9099761%" y1="26.2857013%" x2="4.65599388%" y2="77.2571757%" id="linearGradient-1">
            <stop stop-color="#B281F5" offset="0%"></stop>
            <stop stop-color="#7963FF" offset="100%"></stop>
        </linearGradient>
        <path d="M44.9605039,79.6145851 C35.8874564,84.6165764 34.0573067,92.4220659 28.2090891,94.4058328 C22.3608714,96.3895997 17.7220008,96.3760308 14.1807657,90.0553432 C11.8199423,85.8415515 11.436077,78.8712842 13.0291697,69.1445411 C14.9037317,59.6081951 16.811738,51.9231102 18.7531887,46.0892863 C21.6653647,37.3385505 22.4157611,33.7180244 26.6460828,28.2273681 C30.8764046,22.7367118 33.0637306,21.6626908 37.5728621,21.6626908 C42.0819936,21.6626908 46.0731805,26.5871641 51.3259135,28.2273681 C54.8277355,29.3208375 58.4246227,29.7614591 62.116575,29.5492329 C65.8085273,29.7584867 69.4054145,29.3208375 72.9072365,28.2273681 C78.1599695,26.5871641 82.1511564,21.6626908 86.6602879,21.6626908 C91.1694194,21.6626908 93.3567454,22.7367118 97.5870672,28.2273681 C101.817389,33.7180244 102.567785,37.3385505 105.479961,46.0892863 C107.421412,51.9231102 109.329418,59.6081951 111.20398,69.1445411 C112.797073,78.8712842 112.413208,85.8415515 110.052384,90.0553432 C106.511149,96.3760308 101.872279,96.3895997 96.0240609,94.4058328 C90.1758433,92.4220659 88.3456936,84.6165764 79.2726461,79.6145851 C73.2239478,76.2799243 67.5052575,74.6088392 62.116575,74.6013298 L62.116575,74.6013298 C56.7278925,74.6088392 51.0092022,76.2799243 44.9605039,79.6145851 Z" id="path-2"></path>
    </defs>
    <g id="快速开黑" stroke="none" stroke-width="1" fill="none" fill-rule="evenodd">
        <g id="添加游戏卡弹窗" transform="translate(-40.000000, -190.000000)">
            <g id="编组-22" transform="translate(40.000000, 150.000000)">
                <g id="编组-21">
                    <g id="编组-3" transform="translate(165.000000, 46.000000)" fill="#FFFFFF" fill-rule="nonzero">
                        <path d="M25.88,1.33226763e-14 C25.0194587,2.33077127 24.2442015,3.73381795 23.5542285,4.20914004 C22.8642554,4.68446214 21.6795126,5.22375242 20,5.8270109 C21.5986108,6.58935819 22.7833536,7.36454199 23.5542285,8.15256232 C24.3251033,8.94058265 25.1069571,10.7963952 25.89979,13.72 C26.5061887,10.6954347 27.143189,8.83962218 27.810791,8.15256232 C28.478393,7.46550246 29.794796,6.69031866 31.76,5.8270109 C29.778406,5.2000799 28.462003,4.66078961 27.810791,4.20914004 C27.1595791,3.75749047 26.5159821,2.35444379 25.88,1.33226763e-14 Z" id="路径-147"></path>
                        <path d="M3.43,42 C2.92801758,43.3318693 2.47578422,44.1336103 2.07329993,44.4052229 C1.67081564,44.6768355 0.979715664,44.9850014 0,45.3297205 C0.932522985,45.7653475 1.62362296,46.2083097 2.07329993,46.658607 C2.5229769,47.1089044 2.97905831,48.1693687 3.44154418,49.84 C3.79527673,48.111677 4.16686025,47.0512127 4.55629475,46.658607 C4.94572926,46.2660014 5.713631,45.8230392 6.86,45.3297205 C5.70407014,44.9714742 4.93616839,44.6633083 4.55629475,44.4052229 C4.17642112,44.1471374 3.80098953,43.3453965 3.43,42 Z" id="路径-147备份"></path>
                    </g>
                    <path d="M5.88,71 C5.0194587,73.3307713 4.24420152,74.7338179 3.55422845,75.20914 C2.86425538,75.6844621 1.67951257,76.2237524 1.13686838e-13,76.8270109 C1.59861083,77.5893582 2.78335365,78.364542 3.55422845,79.1525623 C4.32510326,79.9405826 5.10695711,81.7963952 5.89979001,84.72 C6.50618867,81.6954347 7.143189,79.8396222 7.81079101,79.1525623 C8.47839301,78.4655025 9.79479601,77.6903187 11.76,76.8270109 C9.77840595,76.2000799 8.46200296,75.6607896 7.81079101,75.20914 C7.15957906,74.7574905 6.51598205,73.3544438 5.88,71 Z" id="路径-147" fill="#FFFFFF" fill-rule="nonzero"></path>
                    <g id="popup" transform="translate(0.000000, 111.000000)" fill="#FFFFFF">
                        <circle id="椭圆形" cx="147" cy="19" r="19"></circle>
                    </g>
                    <g id="编组-19" transform="translate(0.000000, 87.000000)" fill="#FFFFFF">
                        <circle id="椭圆形" cx="40" cy="40" r="40"></circle>
                        <circle id="椭圆形" cx="85" cy="43" r="19"></circle>
                        <circle id="椭圆形" cx="112" cy="36" r="19"></circle>
                    </g>
                    <g id="编组-19" transform="translate(218.000000, 100.500000) scale(-1, 1) translate(-218.000000, -100.500000) translate(107.000000, 0.000000)">
                        <g id="编组-3" transform="translate(98.317523, 100.281051) scale(-1, 1) rotate(-295.000000) translate(-98.317523, -100.281051) translate(22.317523, 27.281051)">
                            <path d="M67.49503,75.1234101 C58.4219825,80.1254014 56.5918329,87.9308909 50.7436152,89.9146578 C44.8953976,91.8984247 40.2565269,91.8848558 36.7152919,85.5641683 C34.3544685,81.3503766 33.9706031,74.3801092 35.5636958,64.6533661 C37.4382578,55.1170201 39.3462642,47.4319352 41.2877148,41.5981114 C44.1998909,32.8473756 44.9502873,29.2268494 49.180609,23.7361932 C53.4109307,18.2455369 55.5982567,17.1715158 60.1073882,17.1715158 C64.6165197,17.1715158 68.6077067,22.0959891 73.8604396,23.7361932 C77.3622616,24.8296625 80.9591488,25.2702841 84.6511011,25.058058 C88.3430535,25.2673117 91.9399407,24.8296625 95.4417627,23.7361932 C100.694496,22.0959891 104.685683,17.1715158 109.194814,17.1715158 C113.703946,17.1715158 115.891272,18.2455369 120.121593,23.7361932 C124.351915,29.2268494 125.102311,32.8473756 128.014487,41.5981114 C129.955938,47.4319352 131.863944,55.1170201 133.738506,64.6533661 C135.331599,74.3801092 134.947734,81.3503766 132.58691,85.5641683 C129.045675,91.8848558 124.406805,91.8984247 118.558587,89.9146578 C112.710369,87.9308909 110.88022,80.1254014 101.807172,75.1234101 C95.758474,71.7887493 90.0397836,70.1176642 84.6511011,70.1101548 L84.6511011,70.1101548 C79.2624187,70.1176642 73.5437283,71.7887493 67.49503,75.1234101 Z" id="形状结合" fill="url(#linearGradient-1)" fill-rule="nonzero" opacity="0.600000024" transform="translate(84.651101, 54.125518) rotate(-15.000000) translate(-84.651101, -54.125518) "></path>
                            <g id="形状结合-3" transform="translate(75.831976, 73.181198) rotate(-15.000000) translate(-75.831976, -73.181198) translate(13.331976, 14.681198)">
                                <mask id="mask-3" fill="white">
                                    <use xlink:href="#path-2"></use>
                                </mask>
                                <use id="形状结合" fill="url(#linearGradient-1)" fill-rule="nonzero" transform="translate(62.116575, 58.616693) rotate(-32.000000) translate(-62.116575, -58.616693) " xlink:href="#path-2"></use>
                                <path d="M45.6224522,50.9710371 C46.1001893,50.9710371 46.4874717,51.3583196 46.4874717,51.8360567 L46.4868307,58.3000371 L52.8772727,58.3010012 C53.3550098,58.3010012 53.7422923,58.6882837 53.7422923,59.1660208 L53.7422923,64.7659457 C53.7422923,65.2436828 53.3550098,65.6309653 52.8772727,65.6309653 L46.4868307,65.6300371 L46.4874717,72.0959098 C46.4874717,72.5736469 46.1001893,72.9609294 45.6224522,72.9609294 L40.0976708,72.9609294 C39.6199336,72.9609294 39.2326512,72.5736469 39.2326512,72.0959098 L39.2318307,65.6300371 L32.8428502,65.6309653 C32.3651131,65.6309653 31.9778307,65.2436828 31.9778307,64.7659457 L31.9778307,59.1660208 C31.9778307,58.6882837 32.3651131,58.3010012 32.8428502,58.3010012 L39.2318307,58.3000371 L39.2326512,51.8360567 C39.2326512,51.3583196 39.6199336,50.9710371 40.0976708,50.9710371 L45.6224522,50.9710371 Z" id="形状结合" mask="url(#mask-3)" transform="translate(42.860061, 61.965983) rotate(-38.000000) translate(-42.860061, -61.965983) "></path>
                                <path d="M44.2190892,49.5597203 C44.6968264,49.5597203 45.0841088,49.9470028 45.0841088,50.4247399 L45.0834677,56.8887203 L51.4739098,56.8896844 C51.9516469,56.8896844 52.3389293,57.2769668 52.3389293,57.7547039 L52.3389293,63.3546289 C52.3389293,63.832366 51.9516469,64.2196484 51.4739098,64.2196484 L45.0834677,64.2187203 L45.0841088,70.6845929 C45.0841088,71.1623301 44.6968264,71.5496125 44.2190892,71.5496125 L38.6943078,71.5496125 C38.2165707,71.5496125 37.8292883,71.1623301 37.8292883,70.6845929 L37.8284677,64.2187203 L31.4394873,64.2196484 C30.9617502,64.2196484 30.5744677,63.832366 30.5744677,63.3546289 L30.5744677,57.7547039 C30.5744677,57.2769668 30.9617502,56.8896844 31.4394873,56.8896844 L37.8284677,56.8887203 L37.8292883,50.4247399 C37.8292883,49.9470028 38.2165707,49.5597203 38.6943078,49.5597203 L44.2190892,49.5597203 Z" id="形状结合" fill="#FFFFFF" mask="url(#mask-3)" transform="translate(41.456699, 60.554666) rotate(-38.000000) translate(-41.456699, -60.554666) "></path>
                                <path d="M74.3001746,44.6858867 C76.4264805,44.6858867 78.1501921,46.427452 78.1501921,48.5757816 C78.1501921,50.7241113 76.4264805,52.4656766 74.3001746,52.4656766 C72.1738686,52.4656766 70.4501571,50.7241113 70.4501571,48.5757816 C70.4501571,46.427452 72.1738686,44.6858867 74.3001746,44.6858867 Z M66.6001396,36.9060968 C68.7264456,36.9060968 70.4501571,38.6476621 70.4501571,40.7959918 C70.4501571,42.9443214 68.7264456,44.6858867 66.6001396,44.6858867 C64.4738337,44.6858867 62.7501222,42.9443214 62.7501222,40.7959918 C62.7501222,38.6476621 64.4738337,36.9060968 66.6001396,36.9060968 Z M82.0002095,36.9060968 C84.1265155,36.9060968 85.850227,38.6476621 85.850227,40.7959918 C85.850227,42.9443214 84.1265155,44.6858867 82.0002095,44.6858867 C79.8739036,44.6858867 78.1501921,42.9443214 78.1501921,40.7959918 C78.1501921,38.6476621 79.8739036,36.9060968 82.0002095,36.9060968 Z M74.3001746,29.1263069 C76.4264805,29.1263069 78.1501921,30.8678722 78.1501921,33.0162019 C78.1501921,35.1645315 76.4264805,36.9060968 74.3001746,36.9060968 C72.1738686,36.9060968 70.4501571,35.1645315 70.4501571,33.0162019 C70.4501571,30.8678722 72.1738686,29.1263069 74.3001746,29.1263069 Z" id="形状结合" fill-rule="nonzero" mask="url(#mask-3)" transform="translate(74.300175, 40.795992) rotate(-38.000000) translate(-74.300175, -40.795992) "></path>
                                <path d="M72.8968117,43.2745699 C75.0231176,43.2745699 76.7468291,45.0161351 76.7468291,47.1644648 C76.7468291,49.3127945 75.0231176,51.0543597 72.8968117,51.0543597 C70.7705057,51.0543597 69.0467942,49.3127945 69.0467942,47.1644648 C69.0467942,45.0161351 70.7705057,43.2745699 72.8968117,43.2745699 Z M65.1967767,35.49478 C67.3230826,35.49478 69.0467942,37.2363453 69.0467942,39.3846749 C69.0467942,41.5330046 67.3230826,43.2745699 65.1967767,43.2745699 C63.0704708,43.2745699 61.3467592,41.5330046 61.3467592,39.3846749 C61.3467592,37.2363453 63.0704708,35.49478 65.1967767,35.49478 Z M80.5968466,35.49478 C82.7231525,35.49478 84.4468641,37.2363453 84.4468641,39.3846749 C84.4468641,41.5330046 82.7231525,43.2745699 80.5968466,43.2745699 C78.4705407,43.2745699 76.7468291,41.5330046 76.7468291,39.3846749 C76.7468291,37.2363453 78.4705407,35.49478 80.5968466,35.49478 Z M72.8968117,27.7149901 C75.0231176,27.7149901 76.7468291,29.4565554 76.7468291,31.604885 C76.7468291,33.7532147 75.0231176,35.49478 72.8968117,35.49478 C70.7705057,35.49478 69.0467942,33.7532147 69.0467942,31.604885 C69.0467942,29.4565554 70.7705057,27.7149901 72.8968117,27.7149901 Z" id="形状结合" fill="#FFFFFF" fill-rule="nonzero" mask="url(#mask-3)" transform="translate(72.896812, 39.384675) rotate(-38.000000) translate(-72.896812, -39.384675) "></path>
                            </g>
                        </g>
                        <circle id="椭圆形" fill="#FFFFFF" cx="60" cy="126" r="31"></circle>
                        <circle id="椭圆形" fill="#FFFFFF" cx="80" cy="147" r="25"></circle>
                        <path d="M35.12,89.86 C34.5345978,91.5588129 34.0072119,92.5814417 33.5378425,92.9278863 C33.0684731,93.274331 32.2625256,93.6673997 31.12,94.1070925 C32.2074904,94.6627392 33.0134379,95.227742 33.5378425,95.8021008 C34.0622471,96.3764597 34.5941205,97.7290927 35.1334626,99.86 C35.5459787,97.6555064 35.9793122,96.3028733 36.4334633,95.8021008 C36.8876143,95.3013283 37.7831265,94.7363256 39.12,94.1070925 C37.7719768,93.6501457 36.8764646,93.257077 36.4334633,92.9278863 C35.9904619,92.5986957 35.5526409,91.5760669 35.12,89.86 Z" id="路径-147" fill="#FFFFFF" fill-rule="nonzero"></path>
                        <circle id="椭圆形" fill="#FFFFFF" cx="118" cy="142" r="34"></circle>
                    </g>
                </g>
            </g>
        </g>
    </g>
</svg>