<?xml version="1.0" encoding="UTF-8"?>
<svg width="24px" height="24px" viewBox="0 0 24 24" version="1.1" xmlns="http://www.w3.org/2000/svg" xmlns:xlink="http://www.w3.org/1999/xlink">
    <title>创建交友卡</title>
    <g id="创建交友卡" stroke="none" stroke-width="1" fill="none" fill-rule="evenodd">
        <g id="编组-8" transform="translate(5.000000, 3.000000)">
            <g id="编组-6" transform="translate(0.000000, 1.000000)" stroke="#FFFFFF" stroke-linecap="round" stroke-linejoin="round" stroke-width="2">
                <path d="M14,6.61282171 L14,14.8815673 C14,15.4566858 13.5178451,15.9229115 12.9230769,15.9229115 C12.7422966,15.9229115 12.5644251,15.8789054 12.4058593,15.7949499 L7.73520213,13.3219859 C7.42226024,13.1562932 7.0447659,13.1512257 6.72718787,13.3084544 L1.56771975,15.8628391 C1.03830882,16.1249435 0.389399299,15.9224275 0.11833978,15.410507 C0.0405610932,15.2636149 0,15.1009514 0,14.935925 L0,1.04134419 C0,0.466225675 0.482154885,5.86197757e-14 1.07692308,5.86197757e-14 L7.55560345,5.86197757e-14" id="路径"></path>
            </g>
            <path d="M11,0 C11.5522847,3.38176876e-17 12,0.44771525 12,1 L12,3 L14,3 C14.5522847,3 15,3.44771525 15,4 C15,4.55228475 14.5522847,5 14,5 L11.999,5 L12,7 C12,7.55228475 11.5522847,8 11,8 C10.4477153,8 10,7.55228475 10,7 L9.999,5 L8,5 C7.44771525,5 7,4.55228475 7,4 C7,3.44771525 7.44771525,3 8,3 L10,3 L10,1 C10,0.44771525 10.4477153,-3.38176876e-17 11,0 Z" id="形状结合" fill="#FFFFFF"></path>
        </g>
    </g>
</svg>