<svg xmlns="http://www.w3.org/2000/svg" width="28" height="28" viewBox="0 0 28 28"><title>ic_sidebar_supercharge</title><defs><linearGradient id="a" x1="0%" x2="100%" y1="12.264%" y2="87.736%"><stop offset="0%" stop-color="#00F6FF"/><stop offset="100%" stop-color="#00BFFF"/></linearGradient></defs><path fill="url(#a)" fill-rule="nonzero" d="M13.964.852l10.565 9.123a1 1 0 0 1-.654 1.757h-2.313c-.036 8.876-.89 9.974-8.713 10h-.568c-7.826-.025-8.68-1.123-8.716-10H1.282A1 1 0 0 1 .634 9.97L11.36.843a2 2 0 0 1 2.603.01zm-1.11 9.773a.655.655 0 0 0-.878.298l-.356.72a1 1 0 0 1-.753.546l-.794.116a.655.655 0 0 0-.363 1.118l.575.56a1 1 0 0 1 .287.885l-.135.79a.655.655 0 0 0 .95.692l.711-.374a1 1 0 0 1 .93 0l.71.374a.655.655 0 0 0 .952-.691l-.136-.791a1 1 0 0 1 .288-.885l.574-.56a.655.655 0 0 0-.363-1.118l-.794-.116a1 1 0 0 1-.753-.547l-.355-.72a.655.655 0 0 0-.298-.297z" transform="translate(1.437 2.268)"/></svg>