<?xml version="1.0" encoding="UTF-8"?>
<svg width="16px" height="16px" viewBox="0 0 16 16" version="1.1" xmlns="http://www.w3.org/2000/svg" xmlns:xlink="http://www.w3.org/1999/xlink">
    <!-- Generator: Sketch 64 (93537) - https://sketch.com -->
    <title>ic_copy</title>
    <desc>Created with Sketch.</desc>
    <g id="ic_copy" stroke="none" stroke-width="1" fill="none" fill-rule="evenodd">
        <g fill="#B3B3B3" fill-rule="nonzero" id="1">
            <g transform="translate(2.500000, 2.000000)">
                <path d="M6.6,3 L1.6,3 C0.7163444,3 2.30926389e-14,3.7163444 2.30926389e-14,4.6 L2.30926389e-14,9.6 C2.30926389e-14,10.4836556 0.7163444,11.2 1.6,11.2 L6.6,11.2 C7.4836556,11.2 8.2,10.4836556 8.2,9.6 L8.2,4.6 C8.2,3.7163444 7.4836556,3 6.6,3 Z M1.6,4.2 L6.6,4.2 C6.8209139,4.2 7,4.3790861 7,4.6 L7,9.6 C7,9.8209139 6.8209139,10 6.6,10 L1.6,10 C1.3790861,10 1.2,9.8209139 1.2,9.6 L1.2,4.6 C1.2,4.3790861 1.3790861,4.2 1.6,4.2 Z"></path>
                <path d="M9.6,2.30926389e-14 C10.4050281,2.30926389e-14 11.1120102,0.513043621 11.192399,1.23919939 L11.2,1.37777778 L11.2,6.82222222 C11.2,7.5738454 10.5403725,8.13110215 9.74966476,8.194061 L9.6,8.2 L9.41850864,8.2 C9.08713779,8.2 8.81850864,7.93137085 8.81850864,7.6 C8.81850864,7.30176624 9.03609825,7.05435325 9.32118552,7.00785299 L9.41850864,7 L9.6,7 C9.81362325,7 9.95491276,6.91384407 9.99092154,6.85112268 L10,6.82222222 L10,1.37777778 C10,1.32591208 9.88922809,1.23234676 9.70063128,1.2066723 L9.6,1.2 L4.6,1.2 C4.38637675,1.2 4.24508724,1.28615593 4.20907846,1.34887732 L4.2,1.37777778 L4.2,1.64757199 C4.2,1.97894284 3.93137085,2.24757199 3.6,2.24757199 C3.30176624,2.24757199 3.05435325,2.02998238 3.00785299,1.74489511 L3,1.64757199 L3,1.37777778 C3,0.626154599 3.65962751,0.0688978498 4.45033524,0.00593900447 L4.6,2.30926389e-14 L9.6,2.30926389e-14 Z" id="路径"></path>
            </g>
        </g>
    </g>
</svg>