<?xml version="1.0" encoding="UTF-8"?>
<svg width="18px" height="18px" viewBox="0 0 18 18" version="1.1" xmlns="http://www.w3.org/2000/svg" xmlns:xlink="http://www.w3.org/1999/xlink">
    <!-- Generator: Sketch 63.1 (92452) - https://sketch.com -->
    <title>X</title>
    <desc>Created with Sketch.</desc>
    <g id="页面-" stroke="none" stroke-width="1" fill="none" fill-rule="evenodd" opacity="0.2">
        <g id="匹配队友-女" transform="translate(-299.000000, -272.000000)" fill="#000000" fill-rule="nonzero">
            <g id="弹窗" transform="translate(38.000000, 251.000000)">
                <g id="X" transform="translate(255.000000, 15.000000)">
                    <g id="编组">
                        <path d="M15,5 C15.5522847,5 16,5.44771525 16,6 L15.999,13.757 L24,13.7573593 C24.5522847,13.7573593 25,14.2050746 25,14.7573593 C25,15.3096441 24.5522847,15.7573593 24,15.7573593 L15.999,15.757 L16,24 C16,24.5522847 15.5522847,25 15,25 C14.4477153,25 14,24.5522847 14,24 L13.999,15.757 L6,15.7573593 C5.44771525,15.7573593 5,15.3096441 5,14.7573593 C5,14.2050746 5.44771525,13.7573593 6,13.7573593 L13.999,13.757 L14,6 C14,5.44771525 14.4477153,5 15,5 Z" id="形状结合" transform="translate(15.000000, 15.000000) rotate(45.000000) translate(-15.000000, -15.000000) "></path>
                    </g>
                </g>
            </g>
        </g>
    </g>
</svg>