<?xml version="1.0" encoding="UTF-8"?>
<svg width="16px" height="16px" viewBox="0 0 16 16" version="1.1" xmlns="http://www.w3.org/2000/svg" xmlns:xlink="http://www.w3.org/1999/xlink">
    <!-- Generator: Sketch 64 (93537) - https://sketch.com -->
    <title>底部按钮</title>
    <desc>Created with Sketch.</desc>
    <g id="个人" stroke="none" stroke-width="1" fill="none" fill-rule="evenodd">
        <g id="他人-资料" transform="translate(-249.000000, -939.000000)" fill="#FFFFFF">
            <g id="编组-39" transform="translate(0.000000, 827.000000)">
                <g id="编组-19" transform="translate(249.000000, 109.000000)">
                    <g id="编组-20">
                        <g id="icon-关注" transform="translate(0.000000, 3.000000)">
                            <path d="M8.14285714,1.14285714 C8.69514189,1.14285714 9.14285714,1.59057239 9.14285714,2.14285714 L9.14285714,6.85685714 L13.8571429,6.85714286 C14.4094276,6.85714286 14.8571429,7.30485811 14.8571429,7.85714286 L14.8571429,8.14285714 C14.8571429,8.69514189 14.4094276,9.14285714 13.8571429,9.14285714 L9.14285714,9.14285714 L9.14285714,13.8571429 C9.14285714,14.4094276 8.69514189,14.8571429 8.14285714,14.8571429 L7.85714286,14.8571429 C7.30485811,14.8571429 6.85714286,14.4094276 6.85714286,13.8571429 L6.85685714,9.14285714 L2.14285714,9.14285714 C1.59057239,9.14285714 1.14285714,8.69514189 1.14285714,8.14285714 L1.14285714,7.85714286 C1.14285714,7.30485811 1.59057239,6.85714286 2.14285714,6.85714286 L6.85685714,6.85685714 L6.85714286,2.14285714 C6.85714286,1.59057239 7.30485811,1.14285714 7.85714286,1.14285714 L8.14285714,1.14285714 Z" id="形状结合"></path>
                        </g>
                    </g>
                </g>
            </g>
        </g>
    </g>
</svg>