<?xml version="1.0" encoding="UTF-8"?>
<svg width="18px" height="22px" viewBox="0 0 18 22" version="1.1" xmlns="http://www.w3.org/2000/svg" xmlns:xlink="http://www.w3.org/1999/xlink">
    <!-- Generator: Sketch 63.1 (92452) - https://sketch.com -->
    <title>编组</title>
    <desc>Created with Sketch.</desc>
    <g id="页面-" stroke="none" stroke-width="1" fill="none" fill-rule="evenodd">
        <g id="登录-性别年龄1" transform="translate(-248.000000, -211.000000)" fill-rule="nonzero">
            <g id="女" transform="translate(247.321797, 211.540708)">
                <g id="编组" transform="translate(10.495191, 11.642305) rotate(-30.000000) translate(-10.495191, -11.642305) translate(4.995191, 1.642305)">
                    <path d="M7.10766398,0.566058054 C6.58144709,0.384380196 6.01653159,0.285714286 5.42857143,0.285714286 C2.58824986,0.285714286 0.285714286,2.58824986 0.285714286,5.42857143 C0.285714286,8.268893 2.58824986,10.5714286 5.42857143,10.5714286 C8.268893,10.5714286 10.5714286,8.268893 10.5714286,5.42857143 C10.5714286,4.8122074 10.4629995,4.22116835 10.2641753,3.67348829" id="路径" stroke="#FF9B9B" stroke-width="2" stroke-linecap="round"></path>
                    <rect id="矩形" fill="#FF9B9B" x="0.285714286" y="13.1428571" width="10.2857143" height="2.57142857" rx="1.28571429"></rect>
                    <path d="M1.57142857,13.4142857 L9,13.4142857 C9.71008039,13.4142857 10.2857143,13.9899196 10.2857143,14.7 C10.2857143,15.4100804 9.71008039,15.9857143 9,15.9857143 L1.57142857,15.9857143 C0.861348179,15.9857143 0.285714286,15.4100804 0.285714286,14.7 C0.285714286,13.9899196 0.861348179,13.4142857 1.57142857,13.4142857 Z" id="矩形备份-2" fill="#FF9B9B" transform="translate(5.285714, 14.700000) rotate(90.000000) translate(-5.285714, -14.700000) "></path>
                </g>
            </g>
        </g>
    </g>
</svg>