<?xml version="1.0" encoding="UTF-8"?>
<svg width="17px" height="21px" viewBox="0 0 17 21" version="1.1" xmlns="http://www.w3.org/2000/svg" xmlns:xlink="http://www.w3.org/1999/xlink">
    <!-- Generator: Sketch 63.1 (92452) - https://sketch.com -->
    <title>男-角标</title>
    <desc>Created with Sketch.</desc>
    <g id="页面-" stroke="none" stroke-width="1" fill="none" fill-rule="evenodd">
        <g id="登录-性别年龄1" transform="translate(-83.000000, -211.000000)" fill-rule="nonzero">
            <g id="男" transform="translate(83.000000, 211.000000)">
                <g id="编组" transform="translate(10.000000, 11.000000) rotate(-30.000000) translate(-10.000000, -11.000000) translate(4.000000, 2.000000)">
                    <path d="M7.16066992,0.245300797 C6.70023015,0.0863326711 6.20592908,0 5.69146394,0 C3.20618257,0 1.19146394,2.01471863 1.19146394,4.5 C1.19146394,6.98528137 3.20618257,9 5.69146394,9 C8.17674532,9 10.1914639,6.98528137 10.1914639,4.5 C10.1914639,3.96068148 10.0965885,3.44352231 9.92261729,2.96430225" id="路径" stroke="#63ABFF" stroke-width="2" stroke-linecap="round"></path>
                    <path d="M1.09575556,13.2365566 L5.84575556,13.2365566 C6.4670759,13.2365566 6.97075556,13.7402363 6.97075556,14.3615566 C6.97075556,14.982877 6.4670759,15.4865566 5.84575556,15.4865566 L1.09575556,15.4865566 C0.474435212,15.4865566 -0.0292444446,14.982877 -0.0292444446,14.3615566 C-0.0292444446,13.7402363 0.474435212,13.2365566 1.09575556,13.2365566 Z" id="矩形" fill="#63ABFF" transform="translate(3.470756, 14.361557) rotate(40.000000) translate(-3.470756, -14.361557) "></path>
                    <path d="M5.40424444,13.2365566 L10.1542444,13.2365566 C10.7755648,13.2365566 11.2792444,13.7402363 11.2792444,14.3615566 C11.2792444,14.982877 10.7755648,15.4865566 10.1542444,15.4865566 L5.40424444,15.4865566 C4.7829241,15.4865566 4.27924444,14.982877 4.27924444,14.3615566 C4.27924444,13.7402363 4.7829241,13.2365566 5.40424444,13.2365566 Z" id="矩形备份-5" fill="#63ABFF" transform="translate(7.779244, 14.361557) scale(-1, 1) rotate(40.000000) translate(-7.779244, -14.361557) "></path>
                    <path d="M2.31646394,11.375 L9.06646394,11.375 C9.68778429,11.375 10.1914639,11.8786797 10.1914639,12.5 C10.1914639,13.1213203 9.68778429,13.625 9.06646394,13.625 L2.31646394,13.625 C1.6951436,13.625 1.19146394,13.1213203 1.19146394,12.5 C1.19146394,11.8786797 1.6951436,11.375 2.31646394,11.375 Z" id="矩形备份-2" fill="#63ABFF" transform="translate(5.691464, 12.500000) rotate(90.000000) translate(-5.691464, -12.500000) "></path>
                </g>
            </g>
        </g>
    </g>
</svg>