<?xml version="1.0" encoding="UTF-8"?>
<svg width="48px" height="48px" viewBox="0 0 48 48" version="1.1" xmlns="http://www.w3.org/2000/svg" xmlns:xlink="http://www.w3.org/1999/xlink">
    <!-- Generator: Sketch 63.1 (92452) - https://sketch.com -->
    <title>高手认证</title>
    <desc>Created with Sketch.</desc>
    <g id="页面-" stroke="none" stroke-width="1" fill="none" fill-rule="evenodd">
        <g id="个人--游戏卡编辑3" transform="translate(-172.000000, -534.000000)">
            <g id="高手认证" transform="translate(20.000000, 448.000000)">
                <g id="编组-2" transform="translate(152.000000, 86.000000)">
                    <path d="M18.6713468,6.11009939 C17.4674014,6.91212848 16.2432881,7.59646302 15.0595107,7.59646302 L9.80798902,7.59646302 C9.16414989,7.59646302 8.59909285,7.80440107 8.20387679,8.19932112 C7.80905248,8.59384972 7.60103254,9.15790057 7.60103254,9.80064309 L7.60103254,15.0482315 C7.60103254,16.4011592 7.13140932,17.7281358 5.85732113,18.6544688 L2.23792155,22.5725483 C1.76593244,23.0361464 1.5,23.58801 1.5,24.1543408 C1.5,24.7129323 1.75871368,25.2574491 2.21868664,25.7170776 L5.92564312,29.4212577 C6.80893239,30.3038854 7.60103254,31.6506299 7.60103254,32.9517685 L7.60103254,38.1993569 C7.60103254,38.8420994 7.80905248,39.4061503 8.20387679,39.8006789 C8.59909285,40.1955989 9.16414989,40.403537 9.80798902,40.403537 L15.0595107,40.403537 C16.4224265,40.403537 17.7588181,40.8795541 18.6862759,42.1723331 L22.2980342,45.7813863 C22.7584749,46.241482 23.3040334,46.5 23.8635323,46.5 C24.4230313,46.5 24.9685898,46.241482 25.4290304,45.7813863 L29.1359869,42.0772062 C30.0188787,41.1949757 31.3659086,40.403537 32.667554,40.403537 L37.9190757,40.403537 C38.5629148,40.403537 39.1279718,40.1955989 39.5231879,39.8006789 C39.9180122,39.4061503 40.1260321,38.8420994 40.1260321,38.1993569 L40.1260321,32.9517685 C40.1260321,31.5893758 40.6022492,30.2532986 41.8966021,29.3261484 L45.5612978,25.6641975 C46.1378316,25.2032827 46.461937,24.6062213 46.49688,24.0126352 C46.5275549,23.4915534 46.3267961,22.9805931 45.8862222,22.6604836 L40.4349452,17.2132894 L40.4349452,9.80064309 C40.4349452,9.15790057 40.2269252,8.59384972 39.8321009,8.19932112 C39.4368849,7.80440107 38.8718278,7.59646302 38.2279887,7.59646302 L32.976467,7.59646302 C31.6135512,7.59646302 30.2771597,7.12044585 29.3497018,5.82766692 L25.7379435,2.21861372 C25.5257994,2.00662849 25.3012793,1.82452 25.0049702,1.77628585 C24.6973594,1.72621196 24.3465638,1.80854764 23.9252339,1.98276046 C22.6900671,2.49348115 21.1015229,3.72291058 18.6713468,6.11009939 Z" id="形状结合备份-2" stroke="#FFC56D" stroke-width="3" fill="#FF9D00" fill-rule="nonzero"></path>
                    <text id="已认证" font-family="zihun143-zhengkuchaojihei" font-size="10" font-weight="normal" fill="#FFFFFF">
                        <tspan x="9" y="27">已认证</tspan>
                    </text>
                </g>
            </g>
        </g>
    </g>
</svg>