<?xml version="1.0" encoding="UTF-8"?>
<svg width="24px" height="24px" viewBox="0 0 24 24" version="1.1" xmlns="http://www.w3.org/2000/svg" xmlns:xlink="http://www.w3.org/1999/xlink">
    <!-- Generator: Sketch 63.1 (92452) - https://sketch.com -->
    <title>消息备份</title>
    <desc>Created with Sketch.</desc>
    <g id="页面-" stroke="none" stroke-width="1" fill="none" fill-rule="evenodd">
        <g id="找人玩" transform="translate(-331.000000, -56.000000)" fill-rule="nonzero">
            <g id="icon-联系人" transform="translate(331.000000, 56.000000)">
                <path d="M14.4,8 C14.4,5.51471863 12.3852814,3.5 9.9,3.5 C7.41471863,3.5 5.4,5.51471863 5.4,8 C5.4,10.4852814 7.41471863,12.5 9.9,12.5" id="路径" stroke="#2E2E2E" stroke-width="1.5" stroke-linecap="round"></path>
                <path d="M17.3999997,21.25 C17.5299372,20.6970082 17.3999997,20.5926386 17.3999997,20 C17.3999997,15.8578644 14.0421353,12.5 9.89999965,12.5 C5.75786403,12.5 2.39999965,15.8578644 2.39999965,20 C2.39999965,20.6017206 2.26616819,20.6892697 2.39999965,21.25 L17.3999997,21.25 Z" id="路径" stroke="#2E2E2E" stroke-width="1.5" stroke-linecap="round" stroke-linejoin="round"></path>
                <path d="M19.5,7 C19.9142136,7 20.25,7.33578644 20.25,7.75 L20.25,9.75 L22.25,9.75 C22.6642136,9.75 23,10.0857864 23,10.5 C23,10.9142136 22.6642136,11.25 22.25,11.25 L20.25,11.25 L20.25,13.25 C20.25,13.6642136 19.9142136,14 19.5,14 C19.0857864,14 18.75,13.6642136 18.75,13.25 L18.75,11.25 L16.75,11.25 C16.3357864,11.25 16,10.9142136 16,10.5 C16,10.0857864 16.3357864,9.75 16.75,9.75 L18.75,9.75 L18.75,7.75 C18.75,7.33578644 19.0857864,7 19.5,7 Z" id="形状结合" fill="#2E2E2E"></path>
            </g>
        </g>
    </g>
</svg>