<?xml version="1.0" encoding="UTF-8"?>
<svg width="13px" height="13px" viewBox="0 0 13 13" version="1.1" xmlns="http://www.w3.org/2000/svg" xmlns:xlink="http://www.w3.org/1999/xlink">
    <!-- Generator: Sketch 63.1 (92452) - https://sketch.com -->
    <title>约玩标签备份</title>
    <desc>Created with Sketch.</desc>
    <g id="页面-" stroke="none" stroke-width="1" fill="none" fill-rule="evenodd">
        <g id="发布-约玩" transform="translate(-30.000000, -434.000000)" fill="#1789FF">
            <g id="约玩标签备份" transform="translate(20.000000, 428.000000)">
                <g id="标记" transform="translate(10.000000, 6.000000)">
                    <g id="dituzuobiao">
                        <path d="M6.49992437,1 C4.0146518,1 2,2.97776086 2,5.4175248 C2,8.12985247 4.67901553,10.5084543 6.11184718,11.8468674 C6.32852579,12.0504533 6.66992042,12.0511417 6.8874103,11.8483388 C8.28623724,10.5441985 11,8.12141585 11,5.4175248 C10.9997937,2.97776086 8.98519694,1 6.49992437,1 Z M6.49992437,7.07621926 C5.56667181,7.07621926 4.81023548,6.33368827 4.81023548,5.4175248 C4.81023548,4.50136133 5.56667181,3.75877635 6.49992437,3.75877635 C7.43306693,3.75877635 8.18955826,4.50141532 8.18955826,5.4175248 C8.18955826,6.33358029 7.43306693,7.07621926 6.49992437,7.07621926 Z"></path>
                    </g>
                </g>
            </g>
        </g>
    </g>
</svg>