<?xml version="1.0" encoding="UTF-8"?>
<svg width="40px" height="24px" viewBox="0 0 40 24" version="1.1" xmlns="http://www.w3.org/2000/svg" xmlns:xlink="http://www.w3.org/1999/xlink">
    <!-- Generator: Sketch 63.1 (92452) - https://sketch.com -->
    <title>矩形</title>
    <desc>Created with Sketch.</desc>
    <g id="登陆注册流程" stroke="none" stroke-width="1" fill="none" fill-rule="evenodd">
        <g id="快速开黑展示下拉" transform="translate(-335.000000, -103.000000)" fill="#202020">
            <g id="编组-21" transform="translate(305.000000, 92.000000)">
                <g id="编组-2" transform="translate(30.000000, 9.000000)">
                    <g id="编组-3">
                        <g id="编组-5" transform="translate(13.207107, 13.537987) rotate(-675.000000) translate(-13.207107, -13.537987) translate(4.207107, 4.537987)">
                            <path d="M13.4129554,1.25940551 C13.7588294,1.60527952 13.7588294,2.16605208 13.4129554,2.51192609 L7.172,8.752 L13.4002924,14.9806529 C13.7461664,15.3265269 13.7461664,15.8872995 13.4002924,16.2331735 C13.0544184,16.5790475 12.4936458,16.5790475 12.1477718,16.2331735 L5.45423058,9.54134714 C5.38894313,9.50352292 5.3274526,9.45667031 5.27157159,9.40078931 C5.14392761,9.27314533 5.06339034,9.11623299 5.02995977,8.95165514 C4.94989481,8.65520696 5.02594603,8.32475223 5.25890857,8.09178969 C5.32985709,8.02084118 5.40984801,7.96444621 5.49517164,7.92260477 L12.1604348,1.25940551 C12.5063088,0.913531498 13.0670814,0.913531498 13.4129554,1.25940551 Z" id="形状结合" transform="translate(9.336180, 8.746290) rotate(-315.000000) translate(-9.336180, -8.746290) "></path>
                        </g>
                    </g>
                </g>
            </g>
        </g>
    </g>
</svg>