<?xml version="1.0" encoding="UTF-8"?>
<svg width="24px" height="25px" viewBox="0 0 24 25" version="1.1" xmlns="http://www.w3.org/2000/svg" xmlns:xlink="http://www.w3.org/1999/xlink">
    <!-- Generator: Sketch 64 (93537) - https://sketch.com -->
    <title>icon-找队友</title>
    <desc>Created with Sketch.</desc>
    <g id="首页" stroke="none" stroke-width="1" fill="none" fill-rule="evenodd">
        <g id="首页长图" transform="translate(-331.000000, -58.000000)" fill-rule="nonzero">
            <g id="标题" transform="translate(0.000000, 44.000000)">
                <g id="icon-找队友" transform="translate(331.000000, 14.000000)">
                    <g>
                        <path d="M12,1 C18.0751322,1 23,5.92486775 23,12 C23,18.0751322 18.0751322,23 12,23 C5.92486775,23 1,18.0751322 1,12 C1,9.51099086 1.83026048,7.14585183 3.33269126,5.22597116 C3.67305704,4.79103486 4.30156355,4.71437031 4.73649985,5.05473609 C5.17143615,5.39510187 5.2481007,6.02360839 4.90773492,6.45854468 C3.67826892,8.02961739 3,9.96178246 3,12 C3,16.9705627 7.02943725,21 12,21 C16.9705627,21 21,16.9705627 21,12 C21,7.02943725 16.9705627,3 12,3 C11.2060638,3 10.4266258,3.10256486 9.67493356,3.30295209 C9.14128542,3.4452128 8.59335303,3.12793061 8.45109232,2.59428247 C8.3088316,2.06063433 8.6261138,1.51270195 9.15976194,1.37044123 C10.079141,1.1253518 11.0317476,1 12,1 Z" id="路径" fill="#202020"></path>
                        <path d="M4.21130228,5.73926299 C4.45134294,5.47227124 4.64496823,5.3017191 4.79217812,5.22760656 C4.93938802,5.15349402 5.08453084,5.15349402 5.22760656,5.22760656" id="路径-11" stroke="#202020" stroke-width="1.5" stroke-linecap="round"></path>
                        <path d="M4.05280594,4.4213891 C4.58830821,3.85887403 5.45626359,3.80318727 6.05706422,4.26908004 L6.17348463,4.36921736 L12.0369909,9.95114941 C12.637007,10.5223518 12.660365,11.471812 12.0891626,12.0718281 C11.5536604,12.6343432 10.685705,12.6900299 10.0849043,12.2241372 L9.96848394,12.1239998 L4.10497767,6.54206779 C3.5049616,5.97086537 3.48160351,5.02140518 4.05280594,4.4213891 Z" id="路径-2" fill="#202020"></path>
                    </g>
                </g>
            </g>
        </g>
    </g>
</svg>