<?xml version="1.0" encoding="UTF-8"?>
<svg width="14px" height="14px" viewBox="0 0 14 14" version="1.1" xmlns="http://www.w3.org/2000/svg" xmlns:xlink="http://www.w3.org/1999/xlink">
    <!-- Generator: Sketch 63.1 (92452) - https://sketch.com -->
    <title>匹配要求</title>
    <desc>Created with Sketch.</desc>
    <g id="页面-" stroke="none" stroke-width="1" fill="none" fill-rule="evenodd">
        <g id="匹配队友-挂起" transform="translate(-297.000000, -126.000000)" fill="#B3B3B3">
            <g id="匹配要求" transform="translate(20.000000, 112.000000)">
                <g id="icon-编辑" transform="translate(277.000000, 14.000000)">
                    <path d="M13.3,6.3 C12.9126278,6.3 12.6,6.61262778 12.6,7 L12.6,11.6666667 C12.6,12.1815556 12.1815556,12.6 11.6666667,12.6 L2.33333333,12.6 C1.81844444,12.6 1.4,12.1815556 1.4,11.6666667 L1.4,2.33333333 C1.4,1.81844444 1.81844444,1.4 2.33333333,1.4 L7,1.4 C7.38737222,1.4 7.7,1.08737222 7.7,0.7 C7.7,0.312627778 7.38737222,0 7,0 L1.86666667,0 C0.835352778,0 0,0.835352778 0,1.86666667 L0,12.1333333 C0,13.1646472 0.835352778,14 1.86666667,14 L12.1333333,14 C13.1646472,14 14,13.1646472 14,12.1333333 L14,7 C14,6.61262778 13.6873722,6.3 13.3,6.3 Z" id="Fill-1"></path>
                    <path d="M4.576425,9.65690833 C4.84864722,9.92913056 5.29351667,9.92913056 5.56573889,9.65690833 L13.1553139,2.06733333 C13.4275361,1.79511111 13.4275361,1.35024167 13.1553139,1.07801944 C12.8830917,0.805797222 12.4382222,0.805797222 12.166,1.07801944 L4.576425,8.666 C4.30420278,8.93822222 4.30420278,9.38468611 4.576425,9.65690833 Z" id="Fill-3"></path>
                </g>
            </g>
        </g>
    </g>
</svg>