<?xml version="1.0" encoding="UTF-8"?>
<svg width="9px" height="10px" viewBox="0 0 9 10" version="1.1" xmlns="http://www.w3.org/2000/svg" xmlns:xlink="http://www.w3.org/1999/xlink">
    <!-- Generator: Sketch 63.1 (92452) - https://sketch.com -->
    <title>快速开黑</title>
    <desc>Created with Sketch.</desc>
    <g id="页面-" stroke="none" stroke-width="1" fill="none" fill-rule="evenodd">
        <g id="快速开黑" transform="translate(-133.000000, -663.000000)" fill="#69D000" fill-rule="nonzero">
            <g id="编组" transform="translate(133.000000, 663.000000)">
                <g id="形状结合">
                    <path d="M6.1331657,5.02072711 L6.1331657,4.83777466 C6.8215755,4.35214588 7.26954297,3.5626881 7.26954297,2.67089503 C7.26954297,1.19562207 6.04479616,0 4.53358632,0 C3.02237648,0 1.79762967,1.19562207 1.79762967,2.67089503 C1.79762967,3.5626881 2.24558274,4.35214588 2.93400694,4.83777466 L2.93400694,4.99541037 C1.2223853,5.64324341 3.73923115e-13,7.32103623 3.73923115e-13,9.28309064 C3.73923115e-13,9.67893706 0.409031308,10 0.913574291,10 L8.08642483,10 C8.59096781,10 9,9.67893706 9,9.28309064 C9.00117988,7.34639514 7.81058861,5.68701705 6.1331657,5.02072711 Z"></path>
                </g>
            </g>
        </g>
    </g>
</svg>