<?xml version="1.0" encoding="UTF-8"?>
<svg width="30px" height="30px" viewBox="0 0 30 30" version="1.1" xmlns="http://www.w3.org/2000/svg" xmlns:xlink="http://www.w3.org/1999/xlink">
    <!-- Generator: Sketch 63.1 (92452) - https://sketch.com -->
    <title>编组 5</title>
    <desc>Created with Sketch.</desc>
    <defs>
        <path d="M24,21 C25.1045695,21 26,21.8954305 26,23 C26,24.1045695 25.1045695,25 24,25 C22.8954305,25 22,24.1045695 22,23 C22,21.8954305 22.8954305,21 24,21 Z M24,13 C25.1045695,13 26,13.8954305 26,15 C26,16.1045695 25.1045695,17 24,17 C22.8954305,17 22,16.1045695 22,15 C22,13.8954305 22.8954305,13 24,13 Z M24,5 C25.1045695,5 26,5.8954305 26,7 C26,8.1045695 25.1045695,9 24,9 C22.8954305,9 22,8.1045695 22,7 C22,5.8954305 22.8954305,5 24,5 Z" id="path-1"></path>
        <filter x="-250.0%" y="-50.0%" width="650.0%" height="210.0%" filterUnits="objectBoundingBox" id="filter-2">
            <feOffset dx="1" dy="1" in="SourceAlpha" result="shadowOffsetOuter1"></feOffset>
            <feGaussianBlur stdDeviation="3.5" in="shadowOffsetOuter1" result="shadowBlurOuter1"></feGaussianBlur>
            <feColorMatrix values="0 0 0 0 0   0 0 0 0 0   0 0 0 0 0  0 0 0 0.8 0" type="matrix" in="shadowBlurOuter1"></feColorMatrix>
        </filter>
    </defs>
    <g id="页面-" stroke="none" stroke-width="1" fill="none" fill-rule="evenodd">
        <g id="个人-他人看-动态" transform="translate(-329.000000, -53.000000)" fill-rule="nonzero">
            <g id="标题栏" transform="translate(0.000000, 44.000000)">
                <g id="举报" transform="translate(329.000000, 9.000000)">
                    <g id="形状结合">
                        <use fill="black" fill-opacity="1" filter="url(#filter-2)" xlink:href="#path-1"></use>
                        <use fill="#FFFFFF" xlink:href="#path-1"></use>
                    </g>
                </g>
            </g>
        </g>
    </g>
</svg>