<?xml version="1.0" encoding="UTF-8"?>
<svg width="16px" height="17px" viewBox="0 0 16 17" version="1.1" xmlns="http://www.w3.org/2000/svg" xmlns:xlink="http://www.w3.org/1999/xlink">
    <!-- Generator: Sketch 64 (93537) - https://sketch.com -->
    <title>底部按钮</title>
    <desc>Created with Sketch.</desc>
    <g id="个人" stroke="none" stroke-width="1" fill="none" fill-rule="evenodd">
        <g id="他人-资料" transform="translate(-74.000000, -938.000000)" fill="#FFFFFF">
            <g id="编组-39" transform="translate(0.000000, 827.000000)">
                <g id="底部按钮">
                    <g id="编组-16" transform="translate(74.000000, 109.000000)">
                        <g id="icon-私信" transform="translate(0.000000, 3.000000)">
                            <path d="M8.00225356,3.98918993e-13 C10.7785659,0.0028727209 13.3552127,1.44389847 14.8110617,3.80798689 C16.2667958,6.17196041 16.3940229,9.12144041 15.1469862,11.6019315 C14.6762966,12.5291079 15.5894772,14.4823743 14.8128543,15.1601755 C14.6622088,15.291953 14.3939656,15.3343313 14.0739215,15.3343313 C13.4290991,15.3343313 12.5536317,15.1601755 11.9417421,15.1601755 C11.7205426,15.1601755 11.532299,15.1836859 11.4004985,15.2449093 C8.43019704,16.6386386 4.9100338,16.0777226 2.51993002,13.8299219 C0.12982623,11.5820982 -0.645716485,8.10286551 0.563423231,5.05277133 C1.77258593,2.00256225 4.72123859,-0.000252799439 8.00225356,3.98918993e-13 Z M5.04122329,9.55270032 C4.78417792,9.55541047 4.57799849,9.76598392 4.58070864,10.0230293 L4.58070864,10.0230293 L4.58436654,10.3699638 C4.58801587,10.7160859 4.77039524,11.0357083 5.06653264,11.214919 C6.05054181,11.8105078 7.03455098,12.1083022 8.01856015,12.1083022 C8.99821366,12.1083022 9.97786717,11.8131383 10.9575207,11.2228106 C11.2610105,11.0399311 11.4450574,10.7100995 11.4413599,10.3557871 L11.4413599,10.3557871 L11.4378515,10.0230293 C11.4369659,9.93902953 11.413711,9.85678321 11.3704806,9.78475628 C11.2361337,9.56091844 10.9457676,9.48837169 10.7219232,9.62270753 C9.82213232,10.1627596 8.92101131,10.4327857 8.01856015,10.4327857 C7.113253,10.4327857 6.20146463,10.1610478 5.28319505,9.61757211 C5.20998267,9.57423954 5.12629361,9.55180338 5.04122329,9.55270032 Z" id="形状结合"></path>
                        </g>
                    </g>
                </g>
            </g>
        </g>
    </g>
</svg>