<?xml version="1.0" encoding="UTF-8"?>
<svg width="52px" height="52px" viewBox="0 0 52 52" version="1.1" xmlns="http://www.w3.org/2000/svg" xmlns:xlink="http://www.w3.org/1999/xlink">
    <title>编组</title>
    <defs>
        <circle id="path-1" cx="25.8470588" cy="25.8470588" r="25.8470588"></circle>
    </defs>
    <g id="消息页增加运营活动" stroke="none" stroke-width="1" fill="none" fill-rule="evenodd">
        <g transform="translate(-19.000000, -180.000000)" id="编组-3">
            <g>
                <g id="list备份" transform="translate(0.000000, 168.000000)">
                    <g id="鸭" transform="translate(19.000000, 12.000000)">
                        <g id="编组">
                            <g id="活动">
                                <g id="鸭">
                                    <g id="编组">
                                        <g id="编组-2">
                                            <mask id="mask-2" fill="white">
                                                <use xlink:href="#path-1"></use>
                                            </mask>
                                            <use id="蒙版" fill="#FE6C56" xlink:href="#path-1"></use>
                                        </g>
                                    </g>
                                </g>
                                <g id="huodong的副本" transform="translate(9.477255, 12.061961)" fill-rule="nonzero">
                                    <path d="M17.1121672,31.6395804 C16.6923806,31.9950915 16.0638776,31.9429859 15.7083665,31.5231993 C15.7056452,31.519986 15.7029443,31.5167554 15.7002346,31.5135321 C6.47774307,20.3393168 1.49812694,13.9427007 0.761386229,12.3236838 C0.00771860625,10.6674694 0.00771860625,9.10655908 0.761386229,7.64095299 C5.08379725,1.11784819 10.2776541,-1.03097652 16.3426251,1.19447888 C21.1301057,2.95115432 25.3638136,2.67378452 29.0434173,0.362202877 C30.1526205,-0.334470114 31.6138176,0.00403766181 32.3073598,1.11851454 C32.5016468,1.43074529 32.6211733,1.78401561 32.656535,2.15053013 C33.2865758,8.68246412 30.3328453,13.2574833 23.7955096,15.8752546 C18.0175387,18.1890019 12.6981651,19.7412741 14.4663383,23.9396097 C15.4718716,26.3271393 16.4480619,28.3876086 17.3949095,30.1210175 C17.6730185,30.6301561 17.5548812,31.2646523 17.1121672,31.6395804 Z" id="路径" fill="#FFFFFF"></path>
                                    <path d="M7.38768834,8.01686023 C6.9316266,8.4800814 6.1753943,8.49641287 5.6985962,8.05333759 C5.22179811,7.61026231 5.20498794,6.87556388 5.66104965,6.41234268 C7.38651762,4.65996579 9.94754226,3.80693114 13.2717064,3.80693114 C13.9314834,3.80693114 14.4663383,4.32655599 14.4663383,4.96754571 C14.4663383,5.60853544 13.9314834,6.12816028 13.2717064,6.12816028 C10.549123,6.12816028 8.61192267,6.77321696 7.38768834,8.01686023 L7.38768834,8.01686023 Z" id="路径" fill="#FE6C56"></path>
                                </g>
                            </g>
                        </g>
                    </g>
                </g>
            </g>
        </g>
    </g>
</svg>