<?xml version="1.0" encoding="UTF-8"?>
<svg width="17px" height="17px" viewBox="0 0 17 17" version="1.1" xmlns="http://www.w3.org/2000/svg" xmlns:xlink="http://www.w3.org/1999/xlink">
    <!-- Generator: Sketch 63.1 (92452) - https://sketch.com -->
    <title>快速开黑备份</title>
    <desc>Created with Sketch.</desc>
    <g id="页面-" stroke="none" stroke-width="1" fill="none" fill-rule="evenodd">
        <g id="选择房间玩法" transform="translate(-338.000000, -548.000000)" fill-rule="nonzero">
            <g id="房间名" transform="translate(20.000000, 462.000000)">
                <g id="刷新" transform="translate(317.620948, 83.464585)">
                    <g transform="translate(10.379052, 10.602402) rotate(20.000000) translate(-10.379052, -10.602402) translate(2.379052, 3.102402)">
                        <path d="M10.9384403,5.02443819 C9.85573476,3.45875441 8.04765479,2.4330127 6,2.4330127 C2.6862915,2.4330127 3.63797881e-12,5.1193042 3.63797881e-12,8.4330127 C3.63797881e-12,11.7467212 2.6862915,14.4330127 6,14.4330127 C8.4808363,14.4330127 10.6100118,12.9273741 11.5235912,10.7800322 C11.9039168,9.8957797 12.0669977,9.18727259 12.0128337,8.65451093" id="路径" stroke="#D2D2D2" stroke-width="1.5" stroke-linecap="round"></path>
                        <path d="M12.0692319,3.17033132 L13.6485764,5.42653766 C13.9652909,5.87898695 13.8552561,6.50251741 13.4028068,6.81923192 C13.2347232,6.9368904 13.0345165,7 12.8293444,7 L9.67065556,7 C9.11837081,7 8.67065556,6.55228475 8.67065556,6 C8.67065556,5.7948279 8.73376517,5.59462119 8.85142364,5.42653766 L10.4307681,3.17033132 C10.7474826,2.71788202 11.371013,2.60784723 11.8234623,2.92456174 C11.9191037,2.99151066 12.002283,3.07468999 12.0692319,3.17033132 Z" id="三角形" fill="#D2D2D2" transform="translate(11.250000, 4.500000) scale(1, -1) rotate(60.000000) translate(-11.250000, -4.500000) "></path>
                    </g>
                </g>
            </g>
        </g>
    </g>
</svg>