<?xml version="1.0" encoding="UTF-8"?>
<svg width="13px" height="10px" viewBox="0 0 13 10" version="1.1" xmlns="http://www.w3.org/2000/svg" xmlns:xlink="http://www.w3.org/1999/xlink">
    <!-- Generator: Sketch 63.1 (92452) - https://sketch.com -->
    <title>形状结合</title>
    <desc>Created with Sketch.</desc>
    <defs>
        <linearGradient x1="20.184243%" y1="79.5857988%" x2="82.1790442%" y2="28.3254011%" id="linearGradient-1">
            <stop stop-color="#FFFFFF" offset="0%"></stop>
            <stop stop-color="#FFFFFF" stop-opacity="0.634833916" offset="100%"></stop>
        </linearGradient>
    </defs>
    <g id="页面-" stroke="none" stroke-width="1" fill="none" fill-rule="evenodd">
        <g id="匹配队友-男卡片" transform="translate(-46.000000, -258.000000)" fill="url(#linearGradient-1)" fill-rule="nonzero">
            <g id="弹窗" transform="translate(38.000000, 251.000000)">
                <g id="邀请标签">
                    <g id="icon-邀请" transform="translate(8.000000, 7.000000)">
                        <path d="M6.5,2.66453526e-15 C7.01283584,2.57032884e-15 7.42857143,0.415735589 7.42857143,0.928571429 L7.42857143,1.7987013 L7.427,1.818 L8.90909091,1.81818182 C11.1684376,1.81818182 13,3.64974421 13,5.90909091 C13,8.16843761 11.1684376,10 8.90909091,10 L4.09090909,10 C1.83156239,10 2.76690171e-16,8.16843761 0,5.90909091 C-2.76690171e-16,3.64974421 1.83156239,1.81818182 4.09090909,1.81818182 L5.57164605,1.81900022 L5.57142857,0.928571429 C5.57142857,0.415735589 5.98716416,2.75874167e-15 6.5,2.66453526e-15 Z M9.98214286,6.5 C9.59751598,6.5 9.28571429,6.81180169 9.28571429,7.19642857 C9.28571429,7.58105545 9.59751598,7.89285714 9.98214286,7.89285714 C10.3667697,7.89285714 10.6785714,7.58105545 10.6785714,7.19642857 C10.6785714,6.81180169 10.3667697,6.5 9.98214286,6.5 Z M4.17857143,4.17857143 L3.25,4.17857143 L3.24914286,5.57057143 L1.85714286,5.57142857 L1.85714286,6.5 L3.24914286,6.49957143 L3.25,7.89285714 L4.17857143,7.89285714 L4.17814286,6.49957143 L5.57142857,6.5 L5.57142857,5.57142857 L4.17814286,5.57057143 L4.17857143,4.17857143 Z M8.58928571,4.17857143 C8.20465883,4.17857143 7.89285714,4.49037312 7.89285714,4.875 C7.89285714,5.25962688 8.20465883,5.57142857 8.58928571,5.57142857 C8.97391259,5.57142857 9.28571429,5.25962688 9.28571429,4.875 C9.28571429,4.49037312 8.97391259,4.17857143 8.58928571,4.17857143 Z" id="形状结合"></path>
                    </g>
                </g>
            </g>
        </g>
    </g>
</svg>