<?xml version="1.0" encoding="UTF-8"?>
<svg width="18px" height="18px" viewBox="0 0 18 18" version="1.1" xmlns="http://www.w3.org/2000/svg" xmlns:xlink="http://www.w3.org/1999/xlink">
    <!-- Generator: Sketch 64 (93537) - https://sketch.com -->
    <title>消息</title>
    <desc>Created with Sketch.</desc>
    <defs>
        <linearGradient x1="36.4217937%" y1="104.638296%" x2="77.6611726%" y2="4.60284588%" id="linearGradient-1">
            <stop stop-color="#FFBD1E" offset="0%"></stop>
            <stop stop-color="#FFE82D" offset="100%"></stop>
        </linearGradient>
    </defs>
    <g id="页面-" stroke="none" stroke-width="1" fill="none" fill-rule="evenodd">
        <g id="设置-设置备份" transform="translate(-20.000000, -513.000000)" fill="url(#linearGradient-1)" fill-rule="nonzero">
            <g id="list-2" transform="translate(0.000000, 343.000000)">
                <g id="青少年" transform="translate(20.000000, 169.400000)">
                    <path d="M16.9748605,10.197721 C16.9453979,6.0793304 13.7828488,2.69266373 9.75733333,2.30582085 L9.75733333,1.78684288 C9.75733333,1.36163289 9.41271072,1.0169163 8.98752423,1.0169163 C8.56231424,1.0169163 8.21759765,1.36163289 8.21759765,1.78684288 L8.21759765,2.30582085 C4.17326285,2.69449633 1,6.11088399 1,10.2554479 C1,10.4596417 1.08112775,10.6554949 1.22550367,10.7998708 C1.36985609,10.9442232 1.56570925,11.025351 1.76992658,11.025351 L8.21759765,11.025351 L8.21759765,15.0672188 C8.21759765,15.0762878 8.21870191,15.0850044 8.21898385,15.093909 C8.21870191,15.1028135 8.21759765,15.1115301 8.21759765,15.1206226 C8.21759765,16.0462731 7.48375918,16.7994009 6.58158003,16.7994009 C5.67951836,16.7994009 4.94567988,16.0462731 4.94567988,15.1206226 C4.94567988,14.6954126 4.60096329,14.3507195 4.1757533,14.3507195 C3.75054332,14.3507195 3.40582673,14.6954126 3.40582673,15.1206226 C3.40582673,16.8953069 4.83057856,18.3392305 6.58158003,18.3392305 C8.33269897,18.3392305 9.75733333,16.8953069 9.75733333,15.1206226 C9.75733333,15.1115301 9.75632305,15.1028135 9.75606461,15.0940029 C9.75632305,15.0850044 9.75733333,15.0762878 9.75733333,15.0673128 L9.75733333,11.0254449 L16.2070485,11.0254449 C16.4212511,11.0254449 16.6258209,10.9362349 16.7715595,10.7791248 C16.9172276,10.6220852 16.9909075,10.4113833 16.9748605,10.197721 Z" id="Fill-1"></path>
                </g>
            </g>
        </g>
    </g>
</svg>