<?xml version="1.0" encoding="UTF-8"?>
<svg width="40px" height="40px" viewBox="0 0 40 40" version="1.1" xmlns="http://www.w3.org/2000/svg" xmlns:xlink="http://www.w3.org/1999/xlink">
    <title>形状结合</title>
    <g id="匹配聊天" stroke="none" stroke-width="1" fill="none" fill-rule="evenodd">
        <g id="背景上传页面" transform="translate(-168.000000, -325.000000)" fill="#7963FF">
            <path d="M188,325 C190.209139,325 192,326.790861 192,329 L192,341 L204,341 C206.209139,341 208,342.790861 208,345 C208,347.209139 206.209139,349 204,349 L191.999,349 L192,361 C192,363.209139 190.209139,365 188,365 C185.790861,365 184,363.209139 184,361 L183.999,349 L172,349 C169.790861,349 168,347.209139 168,345 C168,342.790861 169.790861,341 172,341 L184,341 L184,329 C184,326.790861 185.790861,325 188,325 Z" id="形状结合"></path>
        </g>
    </g>
</svg>