<?xml version="1.0" encoding="UTF-8"?>
<svg width="18px" height="18px" viewBox="0 0 18 18" version="1.1" xmlns="http://www.w3.org/2000/svg" xmlns:xlink="http://www.w3.org/1999/xlink">
    <!-- Generator: Sketch 63.1 (92452) - https://sketch.com -->
    <title>设置-设置备份</title>
    <desc>Created with Sketch.</desc>
    <defs>
        <linearGradient x1="6.07986898%" y1="99.7770167%" x2="94.451393%" y2="23.8883611%" id="linearGradient-1">
            <stop stop-color="#AC49FF" offset="0%"></stop>
            <stop stop-color="#EC78FF" offset="100%"></stop>
        </linearGradient>
    </defs>
    <g id="页面-" stroke="none" stroke-width="1" fill="none" fill-rule="evenodd">
        <g id="设置-设置备份" transform="translate(-20.000000, -224.000000)">
            <rect fill="#FFFFFF" x="0" y="0" width="375" height="847"></rect>
            <g id="list-1" transform="translate(0.000000, 224.000000)"></g>
            <g id="钱包" transform="translate(20.000000, 224.000000)" fill="url(#linearGradient-1)">
                <path d="M17.6832173,11.1092465 C17.0050411,8.68097721 15.5546193,6.8057715 13.2882532,5.5295819 C13.0278117,5.38369355 12.7522206,5.26170704 12.4831378,5.12665346 C12.4852708,5.12229777 12.4852708,5.11581868 12.4918884,5.111463 L12.6297113,4.98735309 C13.0956566,4.55826329 13.5156609,4.06389261 13.7344274,3.47807969 C13.8416777,3.19498714 13.867957,3.07079556 13.94015,2.80727638 C14.0779455,1.97536704 13.9204063,1.47005269 13.4062777,1.05190656 C12.7106549,0.483543618 11.9230956,0.418235508 11.0918103,0.749267859 C11.0348763,0.773196925 10.9955803,0.788414612 10.9386464,0.736200793 C9.86669056,-0.237350106 8.14724064,-0.246061484 7.0664248,0.714395125 C7.0161085,0.760129858 6.97894554,0.770964634 6.91334294,0.74267988 C6.47580996,0.548824504 6.01864269,0.50744546 5.5482127,0.601147216 C4.65786043,0.777552613 3.92059001,1.50492542 4.05187725,2.5001731 C4.16563583,3.36268116 4.5134472,4.10750394 5.11292208,4.75211867 C5.23543131,4.88493995 5.36660917,5.00904986 5.50013876,5.14410344 L5.40163915,5.18981095 C2.33890829,6.53577324 0.269404639,9.46064551 0.026601181,12.7862139 C-0.0412437768,13.7052098 0.015580819,14.6156032 0.256251304,15.5193814 C0.634717332,16.939336 1.93640529,18.0043291 3.49621037,17.9999868 C7.17580804,17.9912621 10.8555424,17.9999868 14.5373825,17.9956178 C15.7186942,17.9933855 16.6288175,17.4837971 17.2893829,16.5559809 C17.6241503,16.0834159 17.7816075,15.5476662 17.8735714,14.9857551 C18.0835873,13.6812808 18.0397793,12.3854361 17.6832173,11.1092465 Z" id="qianbao-3"></path>
            </g>
            <circle id="椭圆形" fill="#FFFFFF" fill-rule="nonzero" cx="29" cy="234" r="2"></circle>
        </g>
    </g>
</svg>