<?xml version="1.0" encoding="UTF-8"?>
<svg width="18px" height="18px" viewBox="0 0 18 18" version="1.1" xmlns="http://www.w3.org/2000/svg" xmlns:xlink="http://www.w3.org/1999/xlink">
    <!-- Generator: Sketch 63.1 (92452) - https://sketch.com -->
    <title>list 2</title>
    <desc>Created with Sketch.</desc>
    <defs>
        <linearGradient x1="12.9066875%" y1="86.3841906%" x2="100%" y2="-2.84754188%" id="linearGradient-1">
            <stop stop-color="#A0AAC3" offset="0%"></stop>
            <stop stop-color="#D6E1FF" offset="100%"></stop>
        </linearGradient>
    </defs>
    <g id="页面-" stroke="none" stroke-width="1" fill="none" fill-rule="evenodd">
        <g id="设置-设置备份" transform="translate(-20.000000, -389.000000)" fill="url(#linearGradient-1)">
            <g id="list-2" transform="translate(0.000000, 333.000000)">
                <g id="设置" transform="translate(20.000000, 56.000000)">
                    <path d="M8.9595,5.76847947 C7.16764045,5.76847947 5.70134831,7.22621701 5.70134831,9.01099267 C5.70134831,10.7937493 7.16764045,12.2534311 8.9595,12.2534311 C10.751486,12.2534311 12.2177781,10.7956935 12.2177781,9.01099267 C12.2177781,7.22621701 10.751486,5.76847947 8.9595,5.76847947 Z M6.35260955,0.5 C6.67820225,0.5 7.04429494,0.621617302 7.24851404,0.825019062 C7.49320787,1.10816129 8.34871348,1.83806452 9,1.83806452 C9.65128652,1.83806452 10.5067921,1.10816129 10.751486,0.864951613 C10.9557051,0.621617302 11.3217978,0.5 11.6473904,0.5 C11.8517107,0.5 11.9730843,0.5 12.1368034,0.581784457 L12.1773034,0.581784457 L14.4161292,1.83806452 L14.4566292,1.83806452 C14.9035955,2.16308358 15.0674157,2.76930059 14.8631966,3.2558695 C14.8631966,3.2558695 14.6588764,3.70258065 14.6588764,4.1073651 C14.6588764,5.32381232 15.6357303,6.29495601 16.8573287,6.29495601 L16.9382022,6.29495601 C17.3446685,6.29495601 17.6703624,6.65990762 17.7937079,7.22621701 C17.8341826,7.26612463 17.9980281,8.23923754 17.9980281,9.00894868 C17.9980281,9.81859238 17.7937079,10.7917053 17.7937079,10.7917053 C17.7128343,11.3581144 17.3467416,11.7229413 16.9382022,11.7229413 L16.8573287,11.7229413 C15.6357303,11.7229413 14.6588764,12.696154 14.6588764,13.9105572 C14.6588764,14.3153167 14.8631966,14.7620528 14.8631966,14.7620528 C15.0674157,15.2486217 14.9035955,15.8149062 14.4566292,16.1400249 L14.4161292,16.1400249 L12.1773034,17.396305 L12.1368034,17.396305 C12.0155309,17.4362126 11.8517107,17.4780894 11.6898371,17.4780894 C11.3238708,17.4780894 10.9577781,17.3165645 10.7534579,17.0732302 C10.508764,16.790088 9.61275843,16.0203768 8.96157303,16.0203768 C8.35078652,16.0203768 7.53567978,16.7502551 7.21008708,17.0732302 C7.00586798,17.3165645 6.68017416,17.4780894 6.31420787,17.4780894 C6.10988764,17.4780894 5.98851404,17.4780894 5.82466854,17.396305 L5.78429494,17.396305 L3.5858427,16.1798578 L3.5453427,16.1798578 C3.09433146,15.856783 2.93258427,15.2486217 3.13483146,14.7639971 C3.13483146,14.7639971 3.33905056,14.3173607 3.33905056,13.9125015 C3.33905056,12.696154 2.36227247,11.7249853 1.14069944,11.7249853 L1.05982584,11.7249853 C0.653258427,11.7249853 0.32766573,11.3600587 0.204219101,10.7937493 C0.163820225,10.7538167 0,9.78070381 0,9.01099267 C0,8.28111437 0.163820225,7.30994575 0.204219101,7.228261 C0.28519382,6.66185191 0.651286517,6.29692522 1.05982584,6.29692522 L1.10022472,6.29692522 C2.32179775,6.29692522 3.29865169,5.32381232 3.29865169,4.10940909 C3.29865169,3.70454985 3.09433146,3.25791349 3.09433146,3.25791349 C2.89011236,2.77134457 3.05395787,2.20493548 3.50089888,1.87991642 L3.54129775,1.87991642 L5.86319663,0.583728739 L5.90359551,0.583728739 C6.02691573,0.539932551 6.19076124,0.5 6.35260955,0.5 Z" id="Fill-1"></path>
                </g>
            </g>
        </g>
    </g>
</svg>