<?xml version="1.0" encoding="UTF-8"?>
<svg width="18px" height="18px" viewBox="0 0 18 18" version="1.1" xmlns="http://www.w3.org/2000/svg" xmlns:xlink="http://www.w3.org/1999/xlink">
    <!-- Generator: Sketch 63.1 (92452) - https://sketch.com -->
    <title>消息</title>
    <desc>Created with Sketch.</desc>
    <defs>
        <linearGradient x1="58.0567349%" y1="28.2252011%" x2="39.8643624%" y2="100%" id="linearGradient-1">
            <stop stop-color="#71D7FF" offset="0%"></stop>
            <stop stop-color="#00A3FF" offset="100%"></stop>
        </linearGradient>
    </defs>
    <g id="页面-" stroke="none" stroke-width="1" fill="none" fill-rule="evenodd">
        <g id="设置-设置备份" transform="translate(-20.000000, -446.000000)" fill="url(#linearGradient-1)">
            <g id="list-2" transform="translate(0.000000, 333.000000)">
                <g id="消息" transform="translate(20.000000, 113.000000)">
                    <path d="M10.7834352,15.0305499 C11.0871355,15.0305499 11.3333333,15.2767477 11.3333333,15.5804481 C11.3333333,15.6227492 11.328557,15.6639347 11.3195141,15.7034948 C11.3287068,15.7322789 11.3333333,15.7650076 11.3333333,15.8004073 C11.3333333,17.0152088 10.2886644,18 9,18 C7.71133558,18 6.66666667,17.0152088 6.66666667,15.8004073 C6.66666667,15.7615836 6.67066362,15.725901 6.67845034,15.6931189 C6.67073647,15.6575919 6.66666667,15.6194953 6.66666667,15.5804481 C6.66666667,15.3071177 6.86608688,15.0803645 7.12736849,15.0377471 L7.21656483,15.0305499 L10.7834352,15.0305499 Z M9.03462322,0 C12.8814946,-1.59483723e-15 16,3.11850541 16,6.96537678 L16,11.9307536 C16,13.0353231 15.1045695,13.9307536 14,13.9307536 L4,13.9307536 C2.8954305,13.9307536 2,13.0353231 2,11.9307536 L2,6.96537678 C2,3.11850541 5.11850541,7.06658807e-16 8.96537678,0 L9.03462322,0 Z" id="形状结合"></path>
                </g>
            </g>
        </g>
    </g>
</svg>