<?xml version="1.0" encoding="UTF-8"?>
<svg width="18px" height="18px" viewBox="0 0 18 18" version="1.1" xmlns="http://www.w3.org/2000/svg" xmlns:xlink="http://www.w3.org/1999/xlink">
    <!-- Generator: Sketch 63.1 (92452) - https://sketch.com -->
    <title>list 3</title>
    <desc>Created with Sketch.</desc>
    <defs>
        <linearGradient x1="0%" y1="111.356174%" x2="89.2522913%" y2="-12.7489914%" id="linearGradient-1">
            <stop stop-color="#FFBD1E" offset="0%"></stop>
            <stop stop-color="#FFE82D" offset="100%"></stop>
        </linearGradient>
    </defs>
    <g id="页面-" stroke="none" stroke-width="1" fill="none" fill-rule="evenodd">
        <g id="设置-设置备份" transform="translate(-20.000000, -565.000000)" fill-rule="nonzero">
            <g id="list-3" transform="translate(20.000000, 508.000000)">
                <g id="客服" transform="translate(0.000000, 57.000000)">
                    <circle id="椭圆形" fill="url(#linearGradient-1)" cx="9" cy="9" r="9"></circle>
                    <path d="M9,11 C9.55228475,11 10,11.4477153 10,12 C10,12.5522847 9.55228475,13 9,13 C8.44771525,13 8,12.5522847 8,12 C8,11.4477153 8.44771525,11 9,11 Z M9,5 C9.55228475,5 10,5.44771525 10,6 L10,9 C10,9.55228475 9.55228475,10 9,10 C8.44771525,10 8,9.55228475 8,9 L8,6 C8,5.44771525 8.44771525,5 9,5 Z" id="形状结合" fill="#FFFFFF"></path>
                </g>
            </g>
        </g>
    </g>
</svg>