<?xml version="1.0" encoding="UTF-8"?>
<svg width="13px" height="13px" viewBox="0 0 13 13" version="1.1" xmlns="http://www.w3.org/2000/svg" xmlns:xlink="http://www.w3.org/1999/xlink">
    <!-- Generator: Sketch 63.1 (92452) - https://sketch.com -->
    <title>添加标签</title>
    <desc>Created with Sketch.</desc>
    <g id="页面-" stroke="none" stroke-width="1" fill="none" fill-rule="evenodd">
        <g id="发布2" transform="translate(-30.000000, -434.000000)" fill="#000000" fill-rule="nonzero">
            <g id="添加标签" transform="translate(20.000000, 428.000000)">
                <g id="话题-黑" transform="translate(10.000000, 6.000000)">
                    <path d="M9.38371166,1.51166999 C9.80096917,1.58417162 10.080449,1.98119985 10.0079474,2.39845736 L10.0072788,2.40224896 L9.683,4.212 L11.2402075,4.21292733 C11.6598293,4.21292733 12,4.553098 12,4.97271979 C12,5.39234157 11.6598293,5.73251224 11.2402075,5.73251224 L9.411,5.732 L9.139,7.252 L10.5205814,7.25209715 C10.9402032,7.25209715 11.2803738,7.59226782 11.2803738,8.01188961 C11.2803738,8.4315114 10.9402032,8.77168206 10.5205814,8.77168206 L8.867,8.771 L8.49360513,10.8616242 C8.41852399,11.2812255 8.01851651,11.5613035 7.59854348,11.48833 C7.18128596,11.4158284 6.90180609,11.0188002 6.97430772,10.6015426 L6.97497635,10.597751 L7.301,8.771 L4.755,8.771 L4.38145559,10.8616242 C4.30637446,11.2812255 3.90636698,11.5613035 3.48639394,11.48833 C3.06913643,11.4158284 2.78965656,11.0188002 2.86215819,10.6015426 L2.86282682,10.597751 L3.189,8.771 L1.75979246,8.77168206 C1.34017067,8.77168206 1,8.4315114 1,8.01188961 C1,7.59226782 1.34017067,7.25209715 1.75979246,7.25209715 L3.461,7.252 L3.733,5.732 L2.47941862,5.73251224 C2.05979684,5.73251224 1.71962617,5.39234157 1.71962617,4.97271979 C1.71962617,4.553098 2.05979684,4.21292733 2.47941862,4.21292733 L4.005,4.212 L4.37650048,2.13837581 C4.45158162,1.71877445 4.85158909,1.43869652 5.27156213,1.51166999 C5.68881964,1.58417162 5.96829951,1.98119985 5.89579788,2.39845736 L5.89512925,2.40224896 L5.571,4.212 L8.117,4.212 L8.48865001,2.13837581 C8.56373115,1.71877445 8.96373863,1.43869652 9.38371166,1.51166999 Z M7.845,5.732 L5.299,5.732 L5.027,7.252 L7.573,7.252 L7.845,5.732 Z" id="形状结合"></path>
                </g>
            </g>
        </g>
    </g>
</svg>