<?xml version="1.0" encoding="UTF-8"?>
<svg width="18px" height="18px" viewBox="0 0 18 18" version="1.1" xmlns="http://www.w3.org/2000/svg" xmlns:xlink="http://www.w3.org/1999/xlink">
    <!-- Generator: Sketch 63.1 (92452) - https://sketch.com -->
    <title>约玩标签备份 3</title>
    <desc>Created with Sketch.</desc>
    <g id="页面-" stroke="none" stroke-width="1" fill="none" fill-rule="evenodd">
        <g id="标签详情" transform="translate(-127.000000, -59.000000)" fill-rule="nonzero">
            <g id="话题-蓝" transform="translate(127.000000, 59.000000)">
                <circle id="椭圆形" fill="#EBF2FF" cx="9" cy="9" r="9"></circle>
                <path d="M11.8837117,4.01166999 C12.3009692,4.08417162 12.580449,4.48119985 12.5079474,4.89845736 L12.5072788,4.90224896 L12.183,6.712 L13.7402075,6.71292733 C14.1598293,6.71292733 14.5,7.053098 14.5,7.47271979 C14.5,7.89234157 14.1598293,8.23251224 13.7402075,8.23251224 L11.911,8.232 L11.639,9.752 L13.0205814,9.75209715 C13.4402032,9.75209715 13.7803738,10.0922678 13.7803738,10.5118896 C13.7803738,10.9315114 13.4402032,11.2716821 13.0205814,11.2716821 L11.367,11.271 L10.9936051,13.3616242 C10.918524,13.7812255 10.5185165,14.0613035 10.0985435,13.98833 C9.68128596,13.9158284 9.40180609,13.5188002 9.47430772,13.1015426 L9.47497635,13.097751 L9.801,11.271 L7.255,11.271 L6.88145559,13.3616242 C6.80637446,13.7812255 6.40636698,14.0613035 5.98639394,13.98833 C5.56913643,13.9158284 5.28965656,13.5188002 5.36215819,13.1015426 L5.36282682,13.097751 L5.689,11.271 L4.25979246,11.2716821 C3.84017067,11.2716821 3.5,10.9315114 3.5,10.5118896 C3.5,10.0922678 3.84017067,9.75209715 4.25979246,9.75209715 L5.961,9.752 L6.233,8.232 L4.97941862,8.23251224 C4.55979684,8.23251224 4.21962617,7.89234157 4.21962617,7.47271979 C4.21962617,7.053098 4.55979684,6.71292733 4.97941862,6.71292733 L6.505,6.712 L6.87650048,4.63837581 C6.95158162,4.21877445 7.35158909,3.93869652 7.77156213,4.01166999 C8.18881964,4.08417162 8.46829951,4.48119985 8.39579788,4.89845736 L8.39512925,4.90224896 L8.071,6.712 L10.617,6.712 L10.98865,4.63837581 C11.0637311,4.21877445 11.4637386,3.93869652 11.8837117,4.01166999 Z M10.345,8.232 L7.799,8.232 L7.527,9.752 L10.073,9.752 L10.345,8.232 Z" id="形状结合" fill="#1789FF"></path>
            </g>
        </g>
    </g>
</svg>