<?xml version="1.0" encoding="UTF-8"?>
<svg width="16px" height="16px" viewBox="0 0 16 16" version="1.1" xmlns="http://www.w3.org/2000/svg" xmlns:xlink="http://www.w3.org/1999/xlink">
    <!-- Generator: Sketch 63.1 (92452) - https://sketch.com -->
    <title>标签1备份</title>
    <desc>Created with Sketch.</desc>
    <g id="页面-" stroke="none" stroke-width="1" fill="none" fill-rule="evenodd">
        <g id="个人--游戏卡编辑3" transform="translate(-204.000000, -498.000000)" fill-rule="nonzero">
            <g id="标签" transform="translate(19.000000, 483.000000)">
                <g id="标签1备份" transform="translate(158.000000, 1.000000)">
                    <g id="编组" transform="translate(27.000000, 14.000000)">
                        <path d="M15.6258513,7.17684887 L13.9783151,5.53054662 L13.9783151,3.26688103 C13.9783151,2.54662379 13.46346,2.03215434 12.7426629,2.03215434 L10.9921557,2.03215434 C10.6832426,2.03215434 10.3743296,1.92926045 10.1683876,1.62057878 L8.9327354,0.38585209 C8.41788034,-0.128617363 7.69708325,-0.128617363 7.18222818,0.38585209 L5.94657602,1.62057878 C5.63766298,1.82636656 5.32874994,2.03215434 5.0198369,2.03215434 L3.26932967,2.03215434 C2.54853258,2.03215434 2.03367751,2.54662379 2.03367751,3.26688103 L2.03367751,5.01607717 C2.03367751,5.32475884 1.9307065,5.63344051 1.62179346,5.8392283 L0.3861413,7.17684887 C-0.128713767,7.69131833 -0.128713767,8.41157556 0.3861413,8.92604502 L1.62179346,10.1607717 C1.82773549,10.3665595 2.03367751,10.6752412 2.03367751,10.9839228 L2.03367751,12.733119 C2.03367751,13.4533762 2.54853258,13.9678457 3.26932967,13.9678457 L5.0198369,13.9678457 C5.32874994,13.9678457 5.63766298,14.0707395 5.84360501,14.3794212 L7.07925717,15.6141479 C7.59411223,16.1286174 8.31490933,16.1286174 8.82976439,15.6141479 L10.0654166,14.3794212 C10.2713586,14.1736334 10.5802716,13.9678457 10.8891847,13.9678457 L12.6396919,13.9678457 C13.360489,13.9678457 13.875344,13.4533762 13.875344,12.733119 L13.875344,10.9839228 C13.875344,10.6752412 13.9783151,10.3665595 14.2872281,10.1607717 L15.5228803,8.92604502 C16.1407063,8.41157556 16.1407063,7.58842444 15.6258513,7.17684887 Z" id="路径" fill="#FF9D00"></path>
                        <polygon id="路径" fill="#FFFFFF" points="8 13 4 5 6 5 8 8.61061947 10 5 12 5"></polygon>
                    </g>
                </g>
            </g>
        </g>
    </g>
</svg>