<?xml version="1.0" encoding="UTF-8"?>
<svg width="28px" height="12px" viewBox="0 0 28 12" version="1.1" xmlns="http://www.w3.org/2000/svg" xmlns:xlink="http://www.w3.org/1999/xlink">
    <!-- Generator: Sketch 63.1 (92452) - https://sketch.com -->
    <title>高手认证</title>
    <desc>Created with Sketch.</desc>
    <g id="页面-" stroke="none" stroke-width="1" fill="none" fill-rule="evenodd">
        <g id="个人--游戏卡编辑1" transform="translate(-140.000000, -493.000000)" fill="#D8D8D8" fill-rule="nonzero">
            <g id="高手认证" transform="translate(19.000000, 448.000000)">
                <g id="标签" transform="translate(0.000000, 35.000000)">
                    <g id="三角形备份-4" transform="translate(121.000000, 10.000000)">
                        <path d="M24.8,3.06666667 L28.8,8.4 C29.1313708,8.8418278 29.0418278,9.46862915 28.6,9.8 C28.4269038,9.92982213 28.2163702,10 28,10 L20,10 C19.4477153,10 19,9.55228475 19,9 C19,8.78362979 19.0701779,8.57309617 19.2,8.4 L23.2,3.06666667 C23.5313708,2.62483887 24.1581722,2.53529582 24.6,2.86666667 C24.6758057,2.92352092 24.7431458,2.990861 24.8,3.06666667 Z" id="三角形" transform="translate(24.000000, 6.000000) rotate(90.000000) translate(-24.000000, -6.000000) "></path>
                        <path d="M4.8,3.06666667 L8.8,8.4 C9.13137085,8.8418278 9.0418278,9.46862915 8.6,9.8 C8.42690383,9.92982213 8.21637021,10 8,10 L0,10 C-0.55228475,10 -1,9.55228475 -1,9 C-1,8.78362979 -0.929822128,8.57309617 -0.8,8.4 L3.2,3.06666667 C3.53137085,2.62483887 4.1581722,2.53529582 4.6,2.86666667 C4.67580567,2.92352092 4.74314575,2.990861 4.8,3.06666667 Z" id="三角形备份-2" fill-opacity="0.3" transform="translate(4.000000, 6.000000) rotate(90.000000) translate(-4.000000, -6.000000) "></path>
                        <path d="M14.8,3.06666667 L18.8,8.4 C19.1313708,8.8418278 19.0418278,9.46862915 18.6,9.8 C18.4269038,9.92982213 18.2163702,10 18,10 L10,10 C9.44771525,10 9,9.55228475 9,9 C9,8.78362979 9.07017787,8.57309617 9.2,8.4 L13.2,3.06666667 C13.5313708,2.62483887 14.1581722,2.53529582 14.6,2.86666667 C14.6758057,2.92352092 14.7431458,2.990861 14.8,3.06666667 Z" id="三角形备份" fill-opacity="0.6" transform="translate(14.000000, 6.000000) rotate(90.000000) translate(-14.000000, -6.000000) "></path>
                    </g>
                </g>
            </g>
        </g>
    </g>
</svg>