<?xml version="1.0" encoding="UTF-8"?>
<svg width="18px" height="18px" viewBox="0 0 18 18" version="1.1" xmlns="http://www.w3.org/2000/svg" xmlns:xlink="http://www.w3.org/1999/xlink">
    <!-- Generator: Sketch 63.1 (92452) - https://sketch.com -->
    <title>好评</title>
    <desc>Created with Sketch.</desc>
    <defs>
        <linearGradient x1="60.5230823%" y1="28.2252011%" x2="36.7616162%" y2="100%" id="linearGradient-1">
            <stop stop-color="#71D7FF" offset="0%"></stop>
            <stop stop-color="#00A3FF" offset="100%"></stop>
        </linearGradient>
    </defs>
    <g id="页面-" stroke="none" stroke-width="1" fill="none" fill-rule="evenodd">
        <g id="设置-设置备份" transform="translate(-20.000000, -622.000000)" fill="url(#linearGradient-1)">
            <g id="list-3" transform="translate(20.000000, 508.000000)">
                <g id="好评" transform="translate(0.000000, 114.000000)">
                    <path d="M2.56333179,5.24995725 C3.42666,5.24995725 4.12658535,5.92204066 4.12658535,6.75000938 L4.12658535,16.4999729 C4.12658535,17.328417 3.42512141,18 2.56333179,18 C1.70002967,18 1,17.3280167 1,16.4999729 L1,6.75000938 C1,5.92164031 1.70143787,5.24995725 2.56333179,5.24995725 Z M8.42572823,1.77635684e-15 C9.50500583,1.77635684e-15 10.3798343,0.838027454 10.3798343,1.87790513 L10.3798343,1.87790513 L10.3798343,4.35680695 C10.3798343,4.72117324 10.1973687,5.04510443 9.91612071,5.24995725 L9.91612071,5.24995725 L13.7006463,5.24995725 C15.8571675,5.24995725 17.3089389,6.90384292 16.9437729,8.94634092 L16.9437729,8.94634092 L15.8528647,15.042833 C15.5605337,16.6760007 13.9243408,18 12.1988318,18 L12.1988318,18 L6.47305643,18 C5.60891982,18 4.90818606,17.3280167 4.90818606,16.4999729 L4.90818606,16.4999729 L4.90818606,5.54739044 C5.81052649,5.30255291 6.47151785,4.50663701 6.47151785,3.56246742 C6.47151785,3.4993126 6.46846676,3.4367583 6.46275574,3.37500469 L6.46275574,3.37500469 L6.47151785,3.37500469 L6.47151785,1.87790513 C6.47151785,0.840854909 7.348589,1.77635684e-15 8.42572823,1.77635684e-15 Z"></path>
                </g>
            </g>
        </g>
    </g>
</svg>