<?xml version="1.0" encoding="UTF-8"?>
<svg width="20px" height="20px" viewBox="0 0 20 20" version="1.1" xmlns="http://www.w3.org/2000/svg" xmlns:xlink="http://www.w3.org/1999/xlink">
    <!-- Generator: Sketch 64 (93537) - https://sketch.com -->
    <title>形状结合</title>
    <desc>Created with Sketch.</desc>
    <g id="派对" stroke="none" stroke-width="1" fill="none" fill-rule="evenodd">
        <g id="语音派对创建房间" transform="translate(-212.000000, -181.000000)" fill="#FFFFFF">
            <g id="编组-12" transform="translate(20.000000, 157.000000)">
                <g id="编组-10" transform="translate(124.000000, 23.000000)">
                    <g id="编组-9">
                        <g id="编组-2">
                            <path d="M78,1 C83.5228475,1 88,5.4771525 88,11 C88,16.5228475 83.5228475,21 78,21 C72.4771525,21 68,16.5228475 68,11 C68,5.4771525 72.4771525,1 78,1 Z M78,6 C77.4477153,6 77,6.44771525 77,7 L77,7 L77,10 L74,10 C73.4871642,10 73.0644928,10.3860402 73.0067277,10.8833789 L73,11 C73,11.5522847 73.4477153,12 74,12 L74,12 L77,12 L77,15 C77,15.5128358 77.3860402,15.9355072 77.8833789,15.9932723 L78,16 C78.5522847,16 79,15.5522847 79,15 L79,15 L79,12 L82,12 C82.5128358,12 82.9355072,11.6139598 82.9932723,11.1166211 L83,11 C83,10.4477153 82.5522847,10 82,10 L82,10 L79,10 L79,7 C79,6.48716416 78.6139598,6.06449284 78.1166211,6.00672773 Z" id="形状结合"></path>
                        </g>
                    </g>
                </g>
            </g>
        </g>
    </g>
</svg>