<?xml version="1.0" encoding="UTF-8"?>
<svg width="16px" height="16px" viewBox="0 0 16 16" version="1.1" xmlns="http://www.w3.org/2000/svg" xmlns:xlink="http://www.w3.org/1999/xlink">
    <!-- Generator: Sketch 63.1 (92452) - https://sketch.com -->
    <title>编组 13</title>
    <desc>Created with Sketch.</desc>
    <g id="匹配队友流程" stroke="none" stroke-width="1" fill="none" fill-rule="evenodd">
        <g id="快速开黑展示创建游戏卡" transform="translate(-266.000000, -148.000000)">
            <g id="编组-14" transform="translate(93.000000, 147.000000)">
                <g id="编组-13" transform="translate(173.000000, 1.000000)">
                    <circle id="椭圆形" fill="#FFC120" opacity="0.600000024" cx="8" cy="8" r="8"></circle>
                    <path d="M8,4 C8.55228475,4 9,4.44771525 9,5 L9,7 L11,7 C11.5522847,7 12,7.44771525 12,8 C12,8.55228475 11.5522847,9 11,9 L9,9 L9,11 C9,11.5522847 8.55228475,12 8,12 C7.44771525,12 7,11.5522847 7,11 L7,9 L5,9 C4.44771525,9 4,8.55228475 4,8 C4,7.44771525 4.44771525,7 5,7 L7,6.999 L7,5 C7,4.44771525 7.44771525,4 8,4 Z" id="形状结合" fill="#FFFFFF"></path>
                </g>
            </g>
        </g>
    </g>
</svg>