<?xml version="1.0" encoding="UTF-8"?>
<svg width="16px" height="16px" viewBox="0 0 16 16" version="1.1" xmlns="http://www.w3.org/2000/svg" xmlns:xlink="http://www.w3.org/1999/xlink">
    <!-- Generator: Sketch 63.1 (92452) - https://sketch.com -->
    <title>发状态</title>
    <desc>Created with Sketch.</desc>
    <defs>
        <linearGradient x1="12.9066875%" y1="51.3115892%" x2="90.4630938%" y2="48.5346507%" id="linearGradient-1">
            <stop stop-color="#FFBE1F" offset="0%"></stop>
            <stop stop-color="#FFE02A" offset="100%"></stop>
        </linearGradient>
    </defs>
    <g id="页面-" stroke="none" stroke-width="1" fill="none" fill-rule="evenodd">
        <g id="个人-动态-空" transform="translate(-40.000000, -471.000000)" fill="#2E2E2E" fill-rule="nonzero">
            <g id="发状态" transform="translate(20.000000, 449.000000)">
                <g id="icon-动态" transform="translate(20.000000, 22.000000)">
                    <path d="M10,0.5 C10.5522847,0.5 11,0.94771525 11,1.5 L11,1.75 L13,1.75 C14.6568542,1.75 16,3.09314575 16,4.75 L16,11.75 C16,13.4068542 14.6568542,14.75 13,14.75 L3,14.75 C1.34314575,14.75 2.02906125e-16,13.4068542 0,11.75 L0,4.75 C-2.02906125e-16,3.09314575 1.34314575,1.75 3,1.75 L5,1.75 L5,1.5 C5,0.94771525 5.44771525,0.5 6,0.5 L10,0.5 Z M8,5.5 C6.06700338,5.5 4.5,7.06700338 4.5,9 C4.5,10.9329966 6.06700338,12.5 8,12.5 C9.93299662,12.5 11.5,10.9329966 11.5,9 C11.5,7.06700338 9.93299662,5.5 8,5.5 Z M8,7 C9.1045695,7 10,7.8954305 10,9 C10,10.1045695 9.1045695,11 8,11 C6.8954305,11 6,10.1045695 6,9 C6,7.8954305 6.8954305,7 8,7 Z M12.6153846,3.5 C12.1055833,3.5 11.6923077,3.91973305 11.6923077,4.4375 C11.6923077,4.95526695 12.1055833,5.375 12.6153846,5.375 C13.1251859,5.375 13.5384615,4.95526695 13.5384615,4.4375 C13.5384615,3.91973305 13.1251859,3.5 12.6153846,3.5 Z" id="形状结合"></path>
                </g>
            </g>
        </g>
    </g>
</svg>