<?xml version="1.0" encoding="UTF-8"?>
<svg width="12px" height="12px" viewBox="0 0 12 12" version="1.1" xmlns="http://www.w3.org/2000/svg" xmlns:xlink="http://www.w3.org/1999/xlink">
    <!-- Generator: Sketch 64 (93537) - https://sketch.com -->
    <title>约玩标签备份 3</title>
    <desc>Created with Sketch.</desc>
    <g id="派对" stroke="none" stroke-width="1" fill="none" fill-rule="evenodd">
        <g id="选择房间玩法弹窗" transform="translate(-66.000000, -387.000000)">
            <rect fill="#FFFFFF" x="0" y="0" width="375" height="812"></rect>
            <text id="互动游戏" opacity="0.699999988" font-family="PingFangSC-Medium, PingFang SC" font-size="13" font-weight="400" fill="#202020">
                <tspan x="20" y="406">互动游戏</tspan>
            </text>
            <g id="编组-37">
                <rect id="矩形" fill-opacity="0.4" fill="#08032B" x="0" y="0" width="375" height="812"></rect>
                <rect id="矩形" fill="#FFFFFF" fill-rule="nonzero" x="38" y="240" width="300" height="322" rx="8"></rect>
                <g id="编组-36" transform="translate(58.000000, 355.000000)" fill-rule="nonzero">
                    <g id="约玩标签备份-8" transform="translate(0.000000, 24.000000)">
                        <g id="编组-34">
                            <path d="M14,0 L170,0 C177.731986,-1.42034288e-15 184,6.2680135 184,14 C184,21.7319865 177.731986,28 170,28 L14,28 C6.2680135,28 9.46895252e-16,21.7319865 0,14 C-9.46895252e-16,6.2680135 6.2680135,1.42034288e-15 14,0 Z" id="矩形" fill="#EBF2FF"></path>
                            <g id="话题-蓝备份" transform="translate(8.000000, 8.000000)" fill="#638CFF">
                                <path d="M8.66188769,1.39538768 C9.04704847,1.46231226 9.30502989,1.82879986 9.23810531,2.21396064 C9.2379025,2.2151278 9.23769677,2.21629445 9.23748811,2.21746058 L8.93807692,3.88871706 L10.3755762,3.888856 C10.7629194,3.888856 11.0769231,4.20285969 11.0769231,4.59020288 C11.0769231,4.97754607 10.7629194,5.29154976 10.3755762,5.29154976 L8.68707692,5.29071706 L8.43607692,6.69371706 L9.71130589,6.69424353 C10.0986491,6.69424353 10.4126528,7.00824722 10.4126528,7.39559041 C10.4126528,7.7829336 10.0986491,8.09693729 9.71130589,8.09693729 L8.18507692,8.09671706 L7.84025089,10.0261146 C7.77094522,10.413439 7.40170755,10.6719724 7.01404013,10.6046123 C6.62887935,10.5376877 6.37089793,10.1712001 6.43782251,9.78603936 C6.43802531,9.7848722 6.43823105,9.78370555 6.43843971,9.78253942 L6.74007692,8.09671706 L4.38907692,8.09671706 L4.04442055,10.0261146 C3.97511488,10.413439 3.60587721,10.6719724 3.21820979,10.6046123 C2.83304901,10.5376877 2.57506759,10.1712001 2.64199217,9.78603936 C2.64219498,9.7848722 2.64240071,9.78370555 2.64260937,9.78253942 L2.94407692,8.09671706 L1.62442381,8.09693729 C1.23708062,8.09693729 0.923076923,7.7829336 0.923076923,7.39559041 C0.923076923,7.00824722 1.23708062,6.69424353 1.62442381,6.69424353 L3.19507692,6.69371706 L3.44607692,5.29071706 L2.28869411,5.29154976 C1.90135093,5.29154976 1.58734723,4.97754607 1.58734723,4.59020288 C1.58734723,4.20285969 1.90135093,3.888856 2.28869411,3.888856 L3.69607692,3.88871706 L4.03984659,1.97388536 C4.10915226,1.58656103 4.47838993,1.32802756 4.86605735,1.39538768 C5.25121813,1.46231226 5.50919955,1.82879986 5.44227497,2.21396064 C5.44207217,2.2151278 5.44186643,2.21629445 5.44165777,2.21746058 L5.14207692,3.88871706 L7.49207692,3.88871706 L7.83567693,1.97388536 C7.9049826,1.58656103 8.27422027,1.32802756 8.66188769,1.39538768 Z M7.24207692,5.29071706 L4.89107692,5.29071706 L4.64007692,6.69371706 L6.99107692,6.69371706 L7.24207692,5.29071706 Z" id="形状结合"></path>
                            </g>
                            <g id="话题-蓝" transform="translate(8.000000, 8.000000)" fill="#638CFF">
                                <path d="M8.66188769,1.39538768 C9.04704847,1.46231226 9.30502989,1.82879986 9.23810531,2.21396064 C9.2379025,2.2151278 9.23769677,2.21629445 9.23748811,2.21746058 L8.93807692,3.88871706 L10.3755762,3.888856 C10.7629194,3.888856 11.0769231,4.20285969 11.0769231,4.59020288 C11.0769231,4.97754607 10.7629194,5.29154976 10.3755762,5.29154976 L8.68707692,5.29071706 L8.43607692,6.69371706 L9.71130589,6.69424353 C10.0986491,6.69424353 10.4126528,7.00824722 10.4126528,7.39559041 C10.4126528,7.7829336 10.0986491,8.09693729 9.71130589,8.09693729 L8.18507692,8.09671706 L7.84025089,10.0261146 C7.77094522,10.413439 7.40170755,10.6719724 7.01404013,10.6046123 C6.62887935,10.5376877 6.37089793,10.1712001 6.43782251,9.78603936 C6.43802531,9.7848722 6.43823105,9.78370555 6.43843971,9.78253942 L6.74007692,8.09671706 L4.38907692,8.09671706 L4.04442055,10.0261146 C3.97511488,10.413439 3.60587721,10.6719724 3.21820979,10.6046123 C2.83304901,10.5376877 2.57506759,10.1712001 2.64199217,9.78603936 C2.64219498,9.7848722 2.64240071,9.78370555 2.64260937,9.78253942 L2.94407692,8.09671706 L1.62442381,8.09693729 C1.23708062,8.09693729 0.923076923,7.7829336 0.923076923,7.39559041 C0.923076923,7.00824722 1.23708062,6.69424353 1.62442381,6.69424353 L3.19507692,6.69371706 L3.44607692,5.29071706 L2.28869411,5.29154976 C1.90135093,5.29154976 1.58734723,4.97754607 1.58734723,4.59020288 C1.58734723,4.20285969 1.90135093,3.888856 2.28869411,3.888856 L3.69607692,3.88871706 L4.03984659,1.97388536 C4.10915226,1.58656103 4.47838993,1.32802756 4.86605735,1.39538768 C5.25121813,1.46231226 5.50919955,1.82879986 5.44227497,2.21396064 C5.44207217,2.2151278 5.44186643,2.21629445 5.44165777,2.21746058 L5.14207692,3.88871706 L7.49207692,3.88871706 L7.83567693,1.97388536 C7.9049826,1.58656103 8.27422027,1.32802756 8.66188769,1.39538768 Z M7.24207692,5.29071706 L4.89107692,5.29071706 L4.64007692,6.69371706 L6.99107692,6.69371706 L7.24207692,5.29071706 Z" id="形状结合"></path>
                            </g>
                        </g>
                    </g>
                </g>
            </g>
        </g>
    </g>
</svg>