<?xml version="1.0" encoding="UTF-8"?>
<svg width="18px" height="18px" viewBox="0 0 18 18" version="1.1" xmlns="http://www.w3.org/2000/svg" xmlns:xlink="http://www.w3.org/1999/xlink">
    <!-- Generator: Sketch 63.1 (92452) - https://sketch.com -->
    <title>信息</title>
    <desc>Created with Sketch.</desc>
    <g id="页面-" stroke="none" stroke-width="1" fill="none" fill-rule="evenodd">
        <g id="个人--资料2" transform="translate(-337.000000, -280.000000)" fill="#B3B3B3">
            <g id="信息" transform="translate(0.000000, 260.000000)">
                <g id="icon-编辑" transform="translate(337.000000, 20.000000)">
                    <g>
                        <path d="M17.1,8.1 C16.60195,8.1 16.2,8.50195 16.2,9 L16.2,15 C16.2,15.662 15.662,16.2 15,16.2 L3,16.2 C2.338,16.2 1.8,15.662 1.8,15 L1.8,3 C1.8,2.338 2.338,1.8 3,1.8 L9,1.8 C9.49805,1.8 9.9,1.39805 9.9,0.9 C9.9,0.40195 9.49805,0 9,0 L2.4,0 C1.074025,0 0,1.074025 0,2.4 L0,15.6 C0,16.925975 1.074025,18 2.4,18 L15.6,18 C16.925975,18 18,16.925975 18,15.6 L18,9 C18,8.50195 17.59805,8.1 17.1,8.1 Z" id="Fill-1"></path>
                        <path d="M5.883975,12.416025 C6.233975,12.766025 6.80595,12.766025 7.15595,12.416025 L16.913975,2.658 C17.263975,2.308 17.263975,1.736025 16.913975,1.386025 C16.563975,1.036025 15.992,1.036025 15.642,1.386025 L5.883975,11.142 C5.533975,11.492 5.533975,12.066025 5.883975,12.416025 Z" id="Fill-3"></path>
                    </g>
                </g>
            </g>
        </g>
    </g>
</svg>