<svg xmlns="http://www.w3.org/2000/svg" width="16" height="16" viewBox="0 0 16 16"><title>ic_arrowup</title><g fill="none" fill-rule="nonzero"><path fill="#FDA252" d="M12.008 5.5h.018a.483.483 0 0 1 .323.14l.005.006 2 2 .057.07a.5.5 0 0 1-.057.638l-.07.057a.5.5 0 0 1-.638-.057L12.5 7.206V12l-.008.09a.5.5 0 0 1-.984 0L11.5 12V7.206l-1.146 1.148a.5.5 0 0 1-.638.057l-.07-.057a.5.5 0 0 1-.057-.638l.057-.07 2-2a.492.492 0 0 1 .328-.146h.034z"/><path stroke="#FDA252" stroke-linecap="round" stroke-linejoin="round" d="M10 8l2-2v6"/></g></svg>